<?xml version="1.0" encoding="UTF-8" standalone="no"?><svg xmlns="http://www.w3.org/2000/svg" xmlns:xlink="http://www.w3.org/1999/xlink" contentScriptType="application/ecmascript" contentStyleType="text/css" height="368px" preserveAspectRatio="none" style="width:395px;height:368px;background:#FFFFFF;" version="1.1" viewBox="0 0 395 368" width="395px" zoomAndPan="magnify"><defs><filter height="300%" id="f1edvnqspg4fhs" width="300%" x="-1" y="-1"><feGaussianBlur result="blurOut" stdDeviation="2.0"/><feColorMatrix in="blurOut" result="blurOut2" type="matrix" values="0 0 0 0 0 0 0 0 0 0 0 0 0 0 0 0 0 0 .4 0"/><feOffset dx="4.0" dy="4.0" in="blurOut2" result="blurOut3"/><feBlend in="SourceGraphic" in2="blurOut3" mode="normal"/></filter></defs><g><rect fill="#FFFFFF" filter="url(#f1edvnqspg4fhs)" height="167.8633" style="stroke:#A80036;stroke-width:1.0;" width="10" x="76" y="98.4883"/><rect fill="#FFFFFF" filter="url(#f1edvnqspg4fhs)" height="29.3105" style="stroke:#A80036;stroke-width:1.0;" width="10" x="345" y="119.7988"/><rect fill="#FFFFFF" filter="url(#f1edvnqspg4fhs)" height="29.3105" style="stroke:#A80036;stroke-width:1.0;" width="10" x="345" y="178.4199"/><rect fill="#FFFFFF" filter="url(#f1edvnqspg4fhs)" height="29.3105" style="stroke:#A80036;stroke-width:1.0;" width="10" x="345" y="237.041"/><line style="stroke:#A80036;stroke-width:1.0;stroke-dasharray:5.0,5.0;" x1="81" x2="81" y1="88.4883" y2="284.3516"/><line style="stroke:#A80036;stroke-width:1.0;stroke-dasharray:5.0,5.0;" x1="350" x2="350" y1="88.4883" y2="284.3516"/><text fill="#000000" font-family="sans-serif" font-size="14" lengthAdjust="spacing" textLength="146" x="5" y="85.5352">Warehouse Employee</text><ellipse cx="81" cy="15" fill="#FEFECE" filter="url(#f1edvnqspg4fhs)" rx="8" ry="8" style="stroke:#A80036;stroke-width:2.0;"/><path d="M81,23 L81,50 M68,31 L94,31 M81,50 L68,65 M81,50 L94,65 " fill="none" filter="url(#f1edvnqspg4fhs)" style="stroke:#A80036;stroke-width:2.0;"/><text fill="#000000" font-family="sans-serif" font-size="14" lengthAdjust="spacing" textLength="146" x="5" y="296.8867">Warehouse Employee</text><ellipse cx="81" cy="309.8398" fill="#FEFECE" filter="url(#f1edvnqspg4fhs)" rx="8" ry="8" style="stroke:#A80036;stroke-width:2.0;"/><path d="M81,317.8398 L81,344.8398 M68,325.8398 L94,325.8398 M81,344.8398 L68,359.8398 M81,344.8398 L94,359.8398 " fill="none" filter="url(#f1edvnqspg4fhs)" style="stroke:#A80036;stroke-width:2.0;"/><rect fill="#FEFECE" filter="url(#f1edvnqspg4fhs)" height="30.4883" style="stroke:#A80036;stroke-width:1.5;" width="66" x="315" y="53"/><text fill="#000000" font-family="sans-serif" font-size="14" lengthAdjust="spacing" textLength="52" x="322" y="73.5352">:System</text><rect fill="#FEFECE" filter="url(#f1edvnqspg4fhs)" height="30.4883" style="stroke:#A80036;stroke-width:1.5;" width="66" x="315" y="283.3516"/><text fill="#000000" font-family="sans-serif" font-size="14" lengthAdjust="spacing" textLength="52" x="322" y="303.8867">:System</text><rect fill="#FFFFFF" filter="url(#f1edvnqspg4fhs)" height="167.8633" style="stroke:#A80036;stroke-width:1.0;" width="10" x="76" y="98.4883"/><rect fill="#FFFFFF" filter="url(#f1edvnqspg4fhs)" height="29.3105" style="stroke:#A80036;stroke-width:1.0;" width="10" x="345" y="119.7988"/><rect fill="#FFFFFF" filter="url(#f1edvnqspg4fhs)" height="29.3105" style="stroke:#A80036;stroke-width:1.0;" width="10" x="345" y="178.4199"/><rect fill="#FFFFFF" filter="url(#f1edvnqspg4fhs)" height="29.3105" style="stroke:#A80036;stroke-width:1.0;" width="10" x="345" y="237.041"/><polygon fill="#A80036" points="333,115.7988,343,119.7988,333,123.7988,337,119.7988" style="stroke:#A80036;stroke-width:1.0;"/><line style="stroke:#A80036;stroke-width:1.0;" x1="86" x2="339" y1="119.7988" y2="119.7988"/><text fill="#000000" font-family="sans-serif" font-size="13" font-weight="bold" lengthAdjust="spacing" textLength="9" x="93" y="115.0566">1</text><text fill="#000000" font-family="sans-serif" font-size="13" lengthAdjust="spacing" textLength="170" x="106" y="115.0566">set up the warehouse plant</text><polygon fill="#A80036" points="97,145.1094,87,149.1094,97,153.1094,93,149.1094" style="stroke:#A80036;stroke-width:1.0;"/><line style="stroke:#A80036;stroke-width:1.0;stroke-dasharray:2.0,2.0;" x1="91" x2="349" y1="149.1094" y2="149.1094"/><text fill="#000000" font-family="sans-serif" font-size="13" font-weight="bold" lengthAdjust="spacing" textLength="9" x="103" y="144.3672">2</text><text fill="#000000" font-family="sans-serif" font-size="13" lengthAdjust="spacing" textLength="222" x="116" y="144.3672">shows dimensions of storage areas</text><polygon fill="#A80036" points="333,174.4199,343,178.4199,333,182.4199,337,178.4199" style="stroke:#A80036;stroke-width:1.0;"/><line style="stroke:#A80036;stroke-width:1.0;" x1="86" x2="339" y1="178.4199" y2="178.4199"/><text fill="#000000" font-family="sans-serif" font-size="13" font-weight="bold" lengthAdjust="spacing" textLength="9" x="93" y="173.6777">3</text><text fill="#000000" font-family="sans-serif" font-size="13" lengthAdjust="spacing" textLength="174" x="106" y="173.6777">chooses to open a JSON file</text><polygon fill="#A80036" points="97,203.7305,87,207.7305,97,211.7305,93,207.7305" style="stroke:#A80036;stroke-width:1.0;"/><line style="stroke:#A80036;stroke-width:1.0;stroke-dasharray:2.0,2.0;" x1="91" x2="349" y1="207.7305" y2="207.7305"/><text fill="#000000" font-family="sans-serif" font-size="13" font-weight="bold" lengthAdjust="spacing" textLength="9" x="103" y="202.9883">4</text><text fill="#000000" font-family="sans-serif" font-size="13" lengthAdjust="spacing" textLength="97" x="116" y="202.9883">opens JSON file</text><polygon fill="#A80036" points="333,233.041,343,237.041,333,241.041,337,237.041" style="stroke:#A80036;stroke-width:1.0;"/><line style="stroke:#A80036;stroke-width:1.0;" x1="86" x2="339" y1="237.041" y2="237.041"/><text fill="#000000" font-family="sans-serif" font-size="13" font-weight="bold" lengthAdjust="spacing" textLength="9" x="93" y="232.2988">5</text><text fill="#000000" font-family="sans-serif" font-size="13" lengthAdjust="spacing" textLength="127" x="106" y="232.2988">confirms file upload</text><polygon fill="#A80036" points="92,262.3516,82,266.3516,92,270.3516,88,266.3516" style="stroke:#A80036;stroke-width:1.0;"/><line style="stroke:#A80036;stroke-width:1.0;stroke-dasharray:2.0,2.0;" x1="86" x2="349" y1="266.3516" y2="266.3516"/><text fill="#000000" font-family="sans-serif" font-size="13" font-weight="bold" lengthAdjust="spacing" textLength="9" x="98" y="261.6094">6</text><text fill="#000000" font-family="sans-serif" font-size="13" lengthAdjust="spacing" textLength="167" x="111" y="261.6094">informs operation success</text><!--MD5=[d0252ffd0f8b19fd6e37fddba126b900]
@startuml
autonumber
actor "Warehouse Employee" as WE

activate WE

WE -> ":System" : set up the warehouse plant
activate ":System"

":System" - -> WE : shows dimensions of storage areas
deactivate ":System"

WE -> ":System" : chooses to open a JSON file
activate ":System"

":System" - -> WE : opens JSON file
deactivate ":System"

WE -> ":System" : confirms file upload
activate ":System"

":System" - -> WE : informs operation success
deactivate ":System"

deactivate ":System"
deactivate WE

@enduml

PlantUML version 1.2022.1(Tue Feb 01 18:19:58 WET 2022)
(GPL source distribution)
Java Runtime: OpenJDK Runtime Environment
JVM: OpenJDK 64-Bit Server VM
Default Encoding: UTF-8
Language: pt
Country: PT
--></g></svg>