<?xml version="1.0" encoding="UTF-8" standalone="no"?><svg xmlns="http://www.w3.org/2000/svg" xmlns:xlink="http://www.w3.org/1999/xlink" contentStyleType="text/css" height="308px" preserveAspectRatio="none" style="width:483px;height:308px;background:#FFFFFF;" version="1.1" viewBox="0 0 483 308" width="483px" zoomAndPan="magnify"><defs/><g><!--MD5=[b8fcdd00f36f946ee695dd56ca460965]
class UploadFileUI--><g id="elem_UploadFileUI"><rect codeLine="3" fill="#F1F1F1" height="72.5625" id="UploadFileUI" rx="2.5" ry="2.5" style="stroke:#181818;stroke-width:0.5;" width="119" x="102" y="7"/><ellipse cx="117" cy="27.1328" fill="#ADD1B2" rx="11" ry="11" style="stroke:#181818;stroke-width:1.0;"/><path d="M119.3438,22.8047 C118.4063,22.3672 117.8125,22.2266 116.9375,22.2266 C114.3125,22.2266 112.3125,24.3047 112.3125,27.0234 L112.3125,28.1484 C112.3125,30.7266 114.4219,32.6172 117.3125,32.6172 C118.5313,32.6172 119.6875,32.3203 120.4375,31.7734 C121.0156,31.3672 121.3438,30.9141 121.3438,30.5234 C121.3438,30.0703 120.9531,29.6797 120.4844,29.6797 C120.2656,29.6797 120.0625,29.7578 119.875,29.9453 C119.4219,30.4297 119.4219,30.4297 119.2344,30.5234 C118.8125,30.7891 118.125,30.9141 117.3594,30.9141 C115.3125,30.9141 114.0156,29.8203 114.0156,28.1172 L114.0156,27.0234 C114.0156,25.2422 115.2656,23.9297 117,23.9297 C117.5781,23.9297 118.1875,24.0859 118.6563,24.3359 C119.1406,24.6172 119.3125,24.8359 119.4063,25.2422 C119.4688,25.6484 119.5,25.7734 119.6406,25.8984 C119.7813,26.0391 120.0156,26.1484 120.2344,26.1484 C120.5,26.1484 120.7656,26.0078 120.9375,25.7891 C121.0469,25.6328 121.0781,25.4453 121.0781,25.0234 L121.0781,23.6016 C121.0781,23.1641 121.0625,23.0391 120.9688,22.8828 C120.8125,22.6172 120.5313,22.4766 120.2344,22.4766 C119.9375,22.4766 119.7344,22.5703 119.5156,22.8828 L119.3438,22.8047 Z " fill="#000000"/><text fill="#000000" font-family="sans-serif" font-size="12" font-style="italic" lengthAdjust="spacing" textLength="90" x="129.5" y="23.1387">«presentation»</text><text fill="#000000" font-family="sans-serif" font-size="14" lengthAdjust="spacing" textLength="87" x="131" y="38.9639">UploadFileUI</text><line style="stroke:#181818;stroke-width:0.5;" x1="103" x2="220" y1="47.2656" y2="47.2656"/><line style="stroke:#181818;stroke-width:0.5;" x1="103" x2="220" y1="55.2656" y2="55.2656"/><text fill="#000000" font-family="sans-serif" font-size="14" lengthAdjust="spacing" textLength="77" x="108" y="72.2607">+doShow()</text></g><!--MD5=[73a5007b8263922b239a6e877cbbceb6]
class UploadFileController--><g id="elem_UploadFileController"><rect codeLine="7" fill="#F1F1F1" height="72.5625" id="UploadFileController" rx="2.5" ry="2.5" style="stroke:#181818;stroke-width:0.5;" width="179" x="7" y="110"/><ellipse cx="22" cy="130.1328" fill="#ADD1B2" rx="11" ry="11" style="stroke:#181818;stroke-width:1.0;"/><path d="M24.3438,125.8047 C23.4063,125.3672 22.8125,125.2266 21.9375,125.2266 C19.3125,125.2266 17.3125,127.3047 17.3125,130.0234 L17.3125,131.1484 C17.3125,133.7266 19.4219,135.6172 22.3125,135.6172 C23.5313,135.6172 24.6875,135.3203 25.4375,134.7734 C26.0156,134.3672 26.3438,133.9141 26.3438,133.5234 C26.3438,133.0703 25.9531,132.6797 25.4844,132.6797 C25.2656,132.6797 25.0625,132.7578 24.875,132.9453 C24.4219,133.4297 24.4219,133.4297 24.2344,133.5234 C23.8125,133.7891 23.125,133.9141 22.3594,133.9141 C20.3125,133.9141 19.0156,132.8203 19.0156,131.1172 L19.0156,130.0234 C19.0156,128.2422 20.2656,126.9297 22,126.9297 C22.5781,126.9297 23.1875,127.0859 23.6563,127.3359 C24.1406,127.6172 24.3125,127.8359 24.4063,128.2422 C24.4688,128.6484 24.5,128.7734 24.6406,128.8984 C24.7813,129.0391 25.0156,129.1484 25.2344,129.1484 C25.5,129.1484 25.7656,129.0078 25.9375,128.7891 C26.0469,128.6328 26.0781,128.4453 26.0781,128.0234 L26.0781,126.6016 C26.0781,126.1641 26.0625,126.0391 25.9688,125.8828 C25.8125,125.6172 25.5313,125.4766 25.2344,125.4766 C24.9375,125.4766 24.7344,125.5703 24.5156,125.8828 L24.3438,125.8047 Z " fill="#000000"/><text fill="#000000" font-family="sans-serif" font-size="12" font-style="italic" lengthAdjust="spacing" textLength="80" x="69.5" y="126.1387">«application»</text><text fill="#000000" font-family="sans-serif" font-size="14" lengthAdjust="spacing" textLength="147" x="36" y="141.9639">UploadFileController</text><line style="stroke:#181818;stroke-width:0.5;" x1="8" x2="185" y1="150.2656" y2="150.2656"/><line style="stroke:#181818;stroke-width:0.5;" x1="8" x2="185" y1="158.2656" y2="158.2656"/><text fill="#000000" font-family="sans-serif" font-size="14" lengthAdjust="spacing" textLength="94" x="13" y="175.2607">+uploadFile()</text></g><!--MD5=[bf4d0c028d0f251e49ce9c9f9f101ed4]
class WarehouseRepository--><g id="elem_WarehouseRepository"><rect codeLine="11" fill="#F1F1F1" height="72.5625" id="WarehouseRepository" rx="2.5" ry="2.5" style="stroke:#181818;stroke-width:0.5;" width="190" x="286.5" y="7"/><ellipse cx="301.5" cy="27.1328" fill="#ADD1B2" rx="11" ry="11" style="stroke:#181818;stroke-width:1.0;"/><path d="M303.8438,22.8047 C302.9063,22.3672 302.3125,22.2266 301.4375,22.2266 C298.8125,22.2266 296.8125,24.3047 296.8125,27.0234 L296.8125,28.1484 C296.8125,30.7266 298.9219,32.6172 301.8125,32.6172 C303.0313,32.6172 304.1875,32.3203 304.9375,31.7734 C305.5156,31.3672 305.8438,30.9141 305.8438,30.5234 C305.8438,30.0703 305.4531,29.6797 304.9844,29.6797 C304.7656,29.6797 304.5625,29.7578 304.375,29.9453 C303.9219,30.4297 303.9219,30.4297 303.7344,30.5234 C303.3125,30.7891 302.625,30.9141 301.8594,30.9141 C299.8125,30.9141 298.5156,29.8203 298.5156,28.1172 L298.5156,27.0234 C298.5156,25.2422 299.7656,23.9297 301.5,23.9297 C302.0781,23.9297 302.6875,24.0859 303.1563,24.3359 C303.6406,24.6172 303.8125,24.8359 303.9063,25.2422 C303.9688,25.6484 304,25.7734 304.1406,25.8984 C304.2813,26.0391 304.5156,26.1484 304.7344,26.1484 C305,26.1484 305.2656,26.0078 305.4375,25.7891 C305.5469,25.6328 305.5781,25.4453 305.5781,25.0234 L305.5781,23.6016 C305.5781,23.1641 305.5625,23.0391 305.4688,22.8828 C305.3125,22.6172 305.0313,22.4766 304.7344,22.4766 C304.4375,22.4766 304.2344,22.5703 304.0156,22.8828 L303.8438,22.8047 Z " fill="#000000"/><text fill="#000000" font-family="sans-serif" font-size="12" font-style="italic" lengthAdjust="spacing" textLength="74" x="357.5" y="23.1387">«repository»</text><text fill="#000000" font-family="sans-serif" font-size="14" lengthAdjust="spacing" textLength="158" x="315.5" y="38.9639">WarehouseRepository</text><line style="stroke:#181818;stroke-width:0.5;" x1="287.5" x2="475.5" y1="47.2656" y2="47.2656"/><line style="stroke:#181818;stroke-width:0.5;" x1="287.5" x2="475.5" y1="55.2656" y2="55.2656"/><text fill="#000000" font-family="sans-serif" font-size="14" lengthAdjust="spacing" textLength="116" x="292.5" y="72.2607">+save(JSON File)</text></g><!--MD5=[30bc798678299c73368f84fd353033d2]
class UploadFile--><g id="elem_UploadFile"><rect codeLine="15" fill="#F1F1F1" height="88.8594" id="UploadFile" rx="2.5" ry="2.5" style="stroke:#181818;stroke-width:0.5;" width="169" x="77" y="213"/><ellipse cx="120.35" cy="233.1328" fill="#ADD1B2" rx="11" ry="11" style="stroke:#181818;stroke-width:1.0;"/><path d="M122.6938,228.8047 C121.7563,228.3672 121.1625,228.2266 120.2875,228.2266 C117.6625,228.2266 115.6625,230.3047 115.6625,233.0234 L115.6625,234.1484 C115.6625,236.7266 117.7719,238.6172 120.6625,238.6172 C121.8813,238.6172 123.0375,238.3203 123.7875,237.7734 C124.3656,237.3672 124.6938,236.9141 124.6938,236.5234 C124.6938,236.0703 124.3031,235.6797 123.8344,235.6797 C123.6156,235.6797 123.4125,235.7578 123.225,235.9453 C122.7719,236.4297 122.7719,236.4297 122.5844,236.5234 C122.1625,236.7891 121.475,236.9141 120.7094,236.9141 C118.6625,236.9141 117.3656,235.8203 117.3656,234.1172 L117.3656,233.0234 C117.3656,231.2422 118.6156,229.9297 120.35,229.9297 C120.9281,229.9297 121.5375,230.0859 122.0063,230.3359 C122.4906,230.6172 122.6625,230.8359 122.7563,231.2422 C122.8188,231.6484 122.85,231.7734 122.9906,231.8984 C123.1313,232.0391 123.3656,232.1484 123.5844,232.1484 C123.85,232.1484 124.1156,232.0078 124.2875,231.7891 C124.3969,231.6328 124.4281,231.4453 124.4281,231.0234 L124.4281,229.6016 C124.4281,229.1641 124.4125,229.0391 124.3188,228.8828 C124.1625,228.6172 123.8813,228.4766 123.5844,228.4766 C123.2875,228.4766 123.0844,228.5703 122.8656,228.8828 L122.6938,228.8047 Z " fill="#000000"/><text fill="#000000" font-family="sans-serif" font-size="12" font-style="italic" lengthAdjust="spacing" textLength="59" x="148.15" y="229.1387">«domain»</text><text fill="#000000" font-family="sans-serif" font-size="14" lengthAdjust="spacing" textLength="74" x="140.65" y="244.9639">UploadFile</text><line style="stroke:#181818;stroke-width:0.5;" x1="78" x2="245" y1="253.2656" y2="253.2656"/><text fill="#000000" font-family="sans-serif" font-size="14" lengthAdjust="spacing" textLength="11" x="83" y="270.2607">+</text><line style="stroke:#181818;stroke-width:0.5;" x1="78" x2="245" y1="277.5625" y2="277.5625"/><text fill="#000000" font-family="sans-serif" font-size="14" lengthAdjust="spacing" textLength="157" x="83" y="294.5576">+uploadFile(JSON File)</text></g><!--MD5=[09095b1dc00f6d4c5c09c967e0b79399]
link UploadFileUI to UploadFileController--><g id="link_UploadFileUI_UploadFileController"><path codeLine="20" d="M138.583,80.109 C133.341,88.255 127.733,96.969 122.375,105.294 " fill="none" id="UploadFileUI-to-UploadFileController" style="stroke:#181818;stroke-width:1.0;"/><polygon fill="#181818" points="119.429,109.872,127.6632,104.4685,122.1349,105.6675,120.936,100.1391,119.429,109.872" style="stroke:#181818;stroke-width:1.0;"/></g><!--MD5=[066da8d47ed4f162f643b827cf7ba15b]
link UploadFileUI to WarehouseRepository--><g id="link_UploadFileUI_WarehouseRepository"><path codeLine="21" d="M221.035,43.5 C239.57,43.5 260.546,43.5 281.074,43.5 " fill="none" id="UploadFileUI-to-WarehouseRepository" style="stroke:#181818;stroke-width:1.0;"/><polygon fill="#181818" points="286.282,43.5,277.282,39.5,281.282,43.5,277.282,47.5,286.282,43.5" style="stroke:#181818;stroke-width:1.0;"/><text fill="#000000" font-family="sans-serif" font-size="13" lengthAdjust="spacing" textLength="29" x="239.25" y="36.5669">repo</text></g><!--MD5=[eeda37c6b837018b15a6d5056a16844e]
link UploadFileController to UploadFile--><g id="link_UploadFileController_UploadFile"><path codeLine="22" d="M117.783,183.191 C122.532,191.153 127.644,199.727 132.641,208.1052 " fill="none" id="UploadFileController-to-UploadFile" style="stroke:#181818;stroke-width:1.0;"/><polygon fill="#181818" points="135.401,212.7348,134.2281,202.956,132.8406,208.4401,127.3565,207.0527,135.401,212.7348" style="stroke:#181818;stroke-width:1.0;"/></g><!--MD5=[8f2e48fbdea65e55f03256a494d4c5cc]
link UploadFileUI to UploadFile--><g id="link_UploadFileUI_UploadFile"><path codeLine="23" d="M178.46,80.144 C182.189,89.634 185.593,100.026 187.5,110 C193.594,141.867 192.989,151.023 187.5,183 C186.097,191.175 183.875,199.648 181.308,207.8076 " fill="none" id="UploadFileUI-to-UploadFile" style="stroke:#181818;stroke-width:1.0;stroke-dasharray:7.0,7.0;"/><polygon fill="#181818" points="179.669,212.8423,186.2587,205.5227,181.2169,208.0879,178.6517,203.0461,179.669,212.8423" style="stroke:#181818;stroke-width:1.0;"/><text fill="#000000" font-family="sans-serif" font-size="13" lengthAdjust="spacing" textLength="81" x="192.5" y="151.0669">the JSON File</text></g><!--MD5=[b8fa655c803bb900c8cbdcf1af67630e]
@startuml
skinparam classAttributeIconSize 0

class UploadFileUI <<presentation>> {
    +doShow()
}

class UploadFileController <<application>> {
    +uploadFile()
}

class WarehouseRepository <<repository>> {
  +save(JSON File)
}

class UploadFile <<domain>>{
   +uploadFile(JSON File)
   +
}

UploadFileUI -> UploadFileController : theController
UploadFileUI -> WarehouseRepository : repo
UploadFileController -> UploadFile : the JSON File
UploadFileUI ..> UploadFile : the JSON File
@enduml

PlantUML version 1.2022.4beta2(Unknown compile time)
(GPL source distribution)
Java Runtime: Java(TM) SE Runtime Environment
JVM: Java HotSpot(TM) 64-Bit Server VM
Default Encoding: UTF-8
Language: en
Country: US
--></g></svg>