<?xml version="1.0" encoding="UTF-8" standalone="no"?><svg xmlns="http://www.w3.org/2000/svg" xmlns:xlink="http://www.w3.org/1999/xlink" contentScriptType="application/ecmascript" contentStyleType="text/css" height="547px" preserveAspectRatio="none" style="width:1376px;height:547px;background:#FFFFFF;" version="1.1" viewBox="0 0 1376 547" width="1376px" zoomAndPan="magnify"><defs><filter height="300%" id="f1kzblitixz6g6" width="300%" x="-1" y="-1"><feGaussianBlur result="blurOut" stdDeviation="2.0"/><feColorMatrix in="blurOut" result="blurOut2" type="matrix" values="0 0 0 0 0 0 0 0 0 0 0 0 0 0 0 0 0 0 .4 0"/><feOffset dx="4.0" dy="4.0" in="blurOut2" result="blurOut3"/><feBlend in="SourceGraphic" in2="blurOut3" mode="normal"/></filter></defs><g><rect fill="#FFFFFF" filter="url(#f1kzblitixz6g6)" height="344.416" style="stroke:#A80036;stroke-width:1.0;" width="10" x="76" y="98.4883"/><rect fill="#FFFFFF" filter="url(#f1kzblitixz6g6)" height="323.1055" style="stroke:#A80036;stroke-width:1.0;" width="10" x="323" y="119.7988"/><rect fill="#FFFFFF" filter="url(#f1kzblitixz6g6)" height="302.7949" style="stroke:#A80036;stroke-width:1.0;" width="10" x="470" y="149.1094"/><rect fill="#FFFFFF" filter="url(#f1kzblitixz6g6)" height="29.3105" style="stroke:#A80036;stroke-width:1.0;" width="10" x="634" y="178.4199"/><rect fill="#FFFFFF" filter="url(#f1kzblitixz6g6)" height="29.3105" style="stroke:#A80036;stroke-width:1.0;" width="10" x="792.5" y="207.7305"/><rect fill="#FFFFFF" filter="url(#f1kzblitixz6g6)" height="59.3105" style="stroke:#A80036;stroke-width:1.0;" width="10" x="952" y="237.041"/><rect fill="#FFFFFF" filter="url(#f1kzblitixz6g6)" height="30" style="stroke:#A80036;stroke-width:1.0;" width="10" x="1120" y="266.3516"/><rect fill="#FFFFFF" filter="url(#f1kzblitixz6g6)" height="29.3105" style="stroke:#A80036;stroke-width:1.0;" width="10" x="1120" y="325.6621"/><line style="stroke:#A80036;stroke-width:1.0;stroke-dasharray:5.0,5.0;" x1="81" x2="81" y1="88.4883" y2="460.9043"/><line style="stroke:#A80036;stroke-width:1.0;stroke-dasharray:5.0,5.0;" x1="327.5" x2="327.5" y1="88.4883" y2="460.9043"/><line style="stroke:#A80036;stroke-width:1.0;stroke-dasharray:5.0,5.0;" x1="474.5" x2="474.5" y1="88.4883" y2="460.9043"/><line style="stroke:#A80036;stroke-width:1.0;stroke-dasharray:5.0,5.0;" x1="638.5" x2="638.5" y1="88.4883" y2="460.9043"/><line style="stroke:#A80036;stroke-width:1.0;stroke-dasharray:5.0,5.0;" x1="797.5" x2="797.5" y1="88.4883" y2="460.9043"/><line style="stroke:#A80036;stroke-width:1.0;stroke-dasharray:5.0,5.0;" x1="956.5" x2="956.5" y1="88.4883" y2="460.9043"/><line style="stroke:#A80036;stroke-width:1.0;stroke-dasharray:5.0,5.0;" x1="1124.5" x2="1124.5" y1="88.4883" y2="460.9043"/><line style="stroke:#A80036;stroke-width:1.0;stroke-dasharray:5.0,5.0;" x1="1297.5" x2="1297.5" y1="88.4883" y2="460.9043"/><text fill="#000000" font-family="sans-serif" font-size="14" lengthAdjust="spacing" textLength="146" x="5" y="85.5352">Warehouse Employee</text><ellipse cx="81" cy="15" fill="#FEFECE" filter="url(#f1kzblitixz6g6)" rx="8" ry="8" style="stroke:#A80036;stroke-width:2.0;"/><path d="M81,23 L81,50 M68,31 L94,31 M81,50 L68,65 M81,50 L94,65 " fill="none" filter="url(#f1kzblitixz6g6)" style="stroke:#A80036;stroke-width:2.0;"/><text fill="#000000" font-family="sans-serif" font-size="14" lengthAdjust="spacing" textLength="146" x="5" y="473.4395">Warehouse Employee</text><ellipse cx="81" cy="486.3926" fill="#FEFECE" filter="url(#f1kzblitixz6g6)" rx="8" ry="8" style="stroke:#A80036;stroke-width:2.0;"/><path d="M81,494.3926 L81,521.3926 M68,502.3926 L94,502.3926 M81,521.3926 L68,536.3926 M81,521.3926 L94,536.3926 " fill="none" filter="url(#f1kzblitixz6g6)" style="stroke:#A80036;stroke-width:2.0;"/><rect fill="#FEFECE" filter="url(#f1kzblitixz6g6)" height="30.4883" style="stroke:#A80036;stroke-width:1.5;" width="105" x="273.5" y="53"/><text fill="#000000" font-family="sans-serif" font-size="14" lengthAdjust="spacing" textLength="91" x="280.5" y="73.5352">:UploadFileUI</text><rect fill="#FEFECE" filter="url(#f1kzblitixz6g6)" height="30.4883" style="stroke:#A80036;stroke-width:1.5;" width="105" x="273.5" y="459.9043"/><text fill="#000000" font-family="sans-serif" font-size="14" lengthAdjust="spacing" textLength="91" x="280.5" y="480.4395">:UploadFileUI</text><rect fill="#FEFECE" filter="url(#f1kzblitixz6g6)" height="30.4883" style="stroke:#A80036;stroke-width:1.5;" width="161" x="392.5" y="53"/><text fill="#000000" font-family="sans-serif" font-size="14" lengthAdjust="spacing" textLength="147" x="399.5" y="73.5352">:UploadFileController</text><rect fill="#FEFECE" filter="url(#f1kzblitixz6g6)" height="30.4883" style="stroke:#A80036;stroke-width:1.5;" width="161" x="392.5" y="459.9043"/><text fill="#000000" font-family="sans-serif" font-size="14" lengthAdjust="spacing" textLength="147" x="399.5" y="480.4395">:UploadFileController</text><rect fill="#FEFECE" filter="url(#f1kzblitixz6g6)" height="30.4883" style="stroke:#A80036;stroke-width:1.5;" width="139" x="567.5" y="53"/><text fill="#000000" font-family="sans-serif" font-size="14" lengthAdjust="spacing" textLength="125" x="574.5" y="73.5352">:UploadFileService</text><rect fill="#FEFECE" filter="url(#f1kzblitixz6g6)" height="30.4883" style="stroke:#A80036;stroke-width:1.5;" width="139" x="567.5" y="459.9043"/><text fill="#000000" font-family="sans-serif" font-size="14" lengthAdjust="spacing" textLength="125" x="574.5" y="480.4395">:UploadFileService</text><rect fill="#FEFECE" filter="url(#f1kzblitixz6g6)" height="30.4883" style="stroke:#A80036;stroke-width:1.5;" width="150" x="720.5" y="53"/><text fill="#000000" font-family="sans-serif" font-size="14" lengthAdjust="spacing" textLength="136" x="727.5" y="73.5352">:PersistenceContext</text><rect fill="#FEFECE" filter="url(#f1kzblitixz6g6)" height="30.4883" style="stroke:#A80036;stroke-width:1.5;" width="150" x="720.5" y="459.9043"/><text fill="#000000" font-family="sans-serif" font-size="14" lengthAdjust="spacing" textLength="136" x="727.5" y="480.4395">:PersistenceContext</text><rect fill="#FEFECE" filter="url(#f1kzblitixz6g6)" height="30.4883" style="stroke:#A80036;stroke-width:1.5;" width="141" x="884.5" y="53"/><text fill="#000000" font-family="sans-serif" font-size="14" lengthAdjust="spacing" textLength="127" x="891.5" y="73.5352">:RepositoryFactory</text><rect fill="#FEFECE" filter="url(#f1kzblitixz6g6)" height="30.4883" style="stroke:#A80036;stroke-width:1.5;" width="141" x="884.5" y="459.9043"/><text fill="#000000" font-family="sans-serif" font-size="14" lengthAdjust="spacing" textLength="127" x="891.5" y="480.4395">:RepositoryFactory</text><rect fill="#FEFECE" filter="url(#f1kzblitixz6g6)" height="30.4883" style="stroke:#A80036;stroke-width:1.5;" width="167" x="1039.5" y="53"/><text fill="#000000" font-family="sans-serif" font-size="14" lengthAdjust="spacing" textLength="153" x="1046.5" y="73.5352">:WarehouseRepository</text><rect fill="#FEFECE" filter="url(#f1kzblitixz6g6)" height="30.4883" style="stroke:#A80036;stroke-width:1.5;" width="167" x="1039.5" y="459.9043"/><text fill="#000000" font-family="sans-serif" font-size="14" lengthAdjust="spacing" textLength="153" x="1046.5" y="480.4395">:WarehouseRepository</text><text fill="#000000" font-family="sans-serif" font-size="14" font-style="italic" lengthAdjust="spacing" textLength="84" x="1253" y="69.0469">«repository»</text><text fill="#000000" font-family="sans-serif" font-size="14" lengthAdjust="spacing" textLength="149" x="1220.5" y="85.5352">WarehouseRepository</text><path d="M1280,19.5117 C1280,9.5117 1298,9.5117 1298,9.5117 C1298,9.5117 1316,9.5117 1316,19.5117 L1316,45.5117 C1316,55.5117 1298,55.5117 1298,55.5117 C1298,55.5117 1280,55.5117 1280,45.5117 L1280,19.5117 " fill="#FEFECE" filter="url(#f1kzblitixz6g6)" style="stroke:#000000;stroke-width:1.5;"/><path d="M1280,19.5117 C1280,29.5117 1298,29.5117 1298,29.5117 C1298,29.5117 1316,29.5117 1316,19.5117 " fill="none" style="stroke:#000000;stroke-width:1.5;"/><text fill="#000000" font-family="sans-serif" font-size="14" font-style="italic" lengthAdjust="spacing" textLength="84" x="1253" y="473.4395">«repository»</text><text fill="#000000" font-family="sans-serif" font-size="14" lengthAdjust="spacing" textLength="149" x="1220.5" y="489.9277">WarehouseRepository</text><path d="M1280,502.8809 C1280,492.8809 1298,492.8809 1298,492.8809 C1298,492.8809 1316,492.8809 1316,502.8809 L1316,528.8809 C1316,538.8809 1298,538.8809 1298,538.8809 C1298,538.8809 1280,538.8809 1280,528.8809 L1280,502.8809 " fill="#FEFECE" filter="url(#f1kzblitixz6g6)" style="stroke:#000000;stroke-width:1.5;"/><path d="M1280,502.8809 C1280,512.8809 1298,512.8809 1298,512.8809 C1298,512.8809 1316,512.8809 1316,502.8809 " fill="none" style="stroke:#000000;stroke-width:1.5;"/><rect fill="#FFFFFF" filter="url(#f1kzblitixz6g6)" height="344.416" style="stroke:#A80036;stroke-width:1.0;" width="10" x="76" y="98.4883"/><rect fill="#FFFFFF" filter="url(#f1kzblitixz6g6)" height="323.1055" style="stroke:#A80036;stroke-width:1.0;" width="10" x="323" y="119.7988"/><rect fill="#FFFFFF" filter="url(#f1kzblitixz6g6)" height="302.7949" style="stroke:#A80036;stroke-width:1.0;" width="10" x="470" y="149.1094"/><rect fill="#FFFFFF" filter="url(#f1kzblitixz6g6)" height="29.3105" style="stroke:#A80036;stroke-width:1.0;" width="10" x="634" y="178.4199"/><rect fill="#FFFFFF" filter="url(#f1kzblitixz6g6)" height="29.3105" style="stroke:#A80036;stroke-width:1.0;" width="10" x="792.5" y="207.7305"/><rect fill="#FFFFFF" filter="url(#f1kzblitixz6g6)" height="59.3105" style="stroke:#A80036;stroke-width:1.0;" width="10" x="952" y="237.041"/><rect fill="#FFFFFF" filter="url(#f1kzblitixz6g6)" height="30" style="stroke:#A80036;stroke-width:1.0;" width="10" x="1120" y="266.3516"/><rect fill="#FFFFFF" filter="url(#f1kzblitixz6g6)" height="29.3105" style="stroke:#A80036;stroke-width:1.0;" width="10" x="1120" y="325.6621"/><polygon fill="#A80036" points="311,115.7988,321,119.7988,311,123.7988,315,119.7988" style="stroke:#A80036;stroke-width:1.0;"/><line style="stroke:#A80036;stroke-width:1.0;" x1="86" x2="317" y1="119.7988" y2="119.7988"/><text fill="#000000" font-family="sans-serif" font-size="13" font-weight="bold" lengthAdjust="spacing" textLength="9" x="93" y="115.0566">1</text><text fill="#000000" font-family="sans-serif" font-size="13" lengthAdjust="spacing" textLength="205" x="106" y="115.0566">starts set up the warehouse plan</text><polygon fill="#A80036" points="458,145.1094,468,149.1094,458,153.1094,462,149.1094" style="stroke:#A80036;stroke-width:1.0;"/><line style="stroke:#A80036;stroke-width:1.0;" x1="333" x2="464" y1="149.1094" y2="149.1094"/><text fill="#000000" font-family="sans-serif" font-size="13" font-weight="bold" lengthAdjust="spacing" textLength="9" x="340" y="144.3672">2</text><text fill="#000000" font-family="sans-serif" font-size="13" lengthAdjust="spacing" textLength="81" x="353" y="144.3672">getJSONFile()</text><polygon fill="#A80036" points="622,174.4199,632,178.4199,622,182.4199,626,178.4199" style="stroke:#A80036;stroke-width:1.0;"/><line style="stroke:#A80036;stroke-width:1.0;" x1="480" x2="628" y1="178.4199" y2="178.4199"/><text fill="#000000" font-family="sans-serif" font-size="13" font-weight="bold" lengthAdjust="spacing" textLength="9" x="487" y="173.6777">3</text><text fill="#000000" font-family="sans-serif" font-size="13" lengthAdjust="spacing" textLength="81" x="500" y="173.6777">getJSONFile()</text><polygon fill="#A80036" points="780.5,203.7305,790.5,207.7305,780.5,211.7305,784.5,207.7305" style="stroke:#A80036;stroke-width:1.0;"/><line style="stroke:#A80036;stroke-width:1.0;" x1="639" x2="786.5" y1="207.7305" y2="207.7305"/><text fill="#000000" font-family="sans-serif" font-size="13" font-weight="bold" lengthAdjust="spacing" textLength="9" x="646" y="202.9883">4</text><text fill="#000000" font-family="sans-serif" font-size="13" lengthAdjust="spacing" textLength="83" x="659" y="202.9883">repositories()</text><polygon fill="#A80036" points="940,233.041,950,237.041,940,241.041,944,237.041" style="stroke:#A80036;stroke-width:1.0;"/><line style="stroke:#A80036;stroke-width:1.0;" x1="797.5" x2="946" y1="237.041" y2="237.041"/><text fill="#000000" font-family="sans-serif" font-size="13" font-weight="bold" lengthAdjust="spacing" textLength="9" x="804.5" y="232.2988">5</text><text fill="#000000" font-family="sans-serif" font-size="13" lengthAdjust="spacing" textLength="61" x="817.5" y="232.2988">JSONFile()</text><polygon fill="#A80036" points="1108,262.3516,1118,266.3516,1108,270.3516,1112,266.3516" style="stroke:#A80036;stroke-width:1.0;"/><line style="stroke:#A80036;stroke-width:1.0;" x1="962" x2="1114" y1="266.3516" y2="266.3516"/><text fill="#000000" font-family="sans-serif" font-size="13" font-weight="bold" lengthAdjust="spacing" textLength="9" x="969" y="261.6094">6</text><text fill="#000000" font-family="sans-serif" font-size="13" lengthAdjust="spacing" textLength="101" x="982" y="261.6094">warehousePlan()</text><polygon fill="#A80036" points="1108,321.6621,1118,325.6621,1108,329.6621,1112,325.6621" style="stroke:#A80036;stroke-width:1.0;"/><line style="stroke:#A80036;stroke-width:1.0;" x1="639" x2="1114" y1="325.6621" y2="325.6621"/><text fill="#000000" font-family="sans-serif" font-size="13" font-weight="bold" lengthAdjust="spacing" textLength="9" x="646" y="320.9199">7</text><text fill="#000000" font-family="sans-serif" font-size="13" lengthAdjust="spacing" textLength="127" x="659" y="320.9199">findWarehousePlan()</text><polygon fill="#A80036" points="650,350.9727,640,354.9727,650,358.9727,646,354.9727" style="stroke:#A80036;stroke-width:1.0;"/><line style="stroke:#A80036;stroke-width:1.0;stroke-dasharray:2.0,2.0;" x1="644" x2="1124" y1="354.9727" y2="354.9727"/><text fill="#000000" font-family="sans-serif" font-size="13" font-weight="bold" lengthAdjust="spacing" textLength="9" x="656" y="350.2305">8</text><text fill="#000000" font-family="sans-serif" font-size="13" lengthAdjust="spacing" textLength="112" x="669" y="350.2305">allStoragesAreas()</text><polygon fill="#A80036" points="491,380.2832,481,384.2832,491,388.2832,487,384.2832" style="stroke:#A80036;stroke-width:1.0;"/><line style="stroke:#A80036;stroke-width:1.0;stroke-dasharray:2.0,2.0;" x1="485" x2="638" y1="384.2832" y2="384.2832"/><text fill="#000000" font-family="sans-serif" font-size="13" font-weight="bold" lengthAdjust="spacing" textLength="9" x="497" y="379.541">9</text><text fill="#000000" font-family="sans-serif" font-size="13" lengthAdjust="spacing" textLength="0" x="514" y="379.541"/><polygon fill="#A80036" points="344,409.5938,334,413.5938,344,417.5938,340,413.5938" style="stroke:#A80036;stroke-width:1.0;"/><line style="stroke:#A80036;stroke-width:1.0;stroke-dasharray:2.0,2.0;" x1="338" x2="469" y1="413.5938" y2="413.5938"/><text fill="#000000" font-family="sans-serif" font-size="13" font-weight="bold" lengthAdjust="spacing" textLength="18" x="350" y="408.8516">10</text><text fill="#000000" font-family="sans-serif" font-size="13" lengthAdjust="spacing" textLength="0" x="376" y="408.8516"/><polygon fill="#A80036" points="92,438.9043,82,442.9043,92,446.9043,88,442.9043" style="stroke:#A80036;stroke-width:1.0;"/><line style="stroke:#A80036;stroke-width:1.0;stroke-dasharray:2.0,2.0;" x1="86" x2="327" y1="442.9043" y2="442.9043"/><text fill="#000000" font-family="sans-serif" font-size="13" font-weight="bold" lengthAdjust="spacing" textLength="18" x="98" y="438.1621">11</text><text fill="#000000" font-family="sans-serif" font-size="13" lengthAdjust="spacing" textLength="167" x="120" y="438.1621">informs operation success</text><!--MD5=[87fe977a2bb4120c71203c96e92ed19e]
@startuml
autonumber
'hide footbox
actor "Warehouse Employee" as WE
participant ":UploadFileUI" as UI
participant ":UploadFileController" as CTRL
participant ":UploadFileService" as UFS
participant ":PersistenceContext" as PC
participant ":RepositoryFactory" as RF
participant ":WarehouseRepository" as UFR
database "WarehouseRepository" as UR <<repository>>

activate WE
WE -> UI :  starts set up the warehouse plan
activate UI

UI -> CTRL : getJSONFile()
activate CTRL

CTRL -> UFS : getJSONFile()
activate UFS

UFS -> PC : repositories()
deactivate UFS

activate PC
PC -> RF : JSONFile()
deactivate PC

activate RF
RF -> UFR : warehousePlan()
activate UFR
deactivate UFR

deactivate RF

UFS -> UFR : findWarehousePlan()
activate UFR

UFR - -> UFS : allStoragesAreas()
deactivate UFR

UFS - -> CTRL

CTRL - -> UI

UI - -> WE : informs operation success
deactivate UI
deactivate WE

@enduml

@startuml
autonumber
actor "Warehouse Employee" as WE
participant ":UploadFileUI" as UI
participant ":UploadFileController" as CTRL
participant ":UploadFileService" as UFS
participant ":PersistenceContext" as PC
participant ":RepositoryFactory" as RF
participant ":WarehouseRepository" as UFR
database "WarehouseRepository" as UR <<repository>>

activate WE
WE -> UI :  starts set up the warehouse plan
activate UI

UI -> CTRL : getJSONFile()
activate CTRL

CTRL -> UFS : getJSONFile()
activate UFS

UFS -> PC : repositories()
deactivate UFS

activate PC
PC -> RF : JSONFile()
deactivate PC

activate RF
RF -> UFR : warehousePlan()
activate UFR
deactivate UFR

deactivate RF

UFS -> UFR : findWarehousePlan()
activate UFR

UFR - -> UFS : allStoragesAreas()
deactivate UFR

UFS - -> CTRL

CTRL - -> UI

UI - -> WE : informs operation success
deactivate UI
deactivate WE

@enduml

PlantUML version 1.2022.1(Tue Feb 01 18:19:58 WET 2022)
(GPL source distribution)
Java Runtime: OpenJDK Runtime Environment
JVM: OpenJDK 64-Bit Server VM
Default Encoding: UTF-8
Language: pt
Country: PT
--></g></svg>