<?xml version="1.0" encoding="UTF-8" standalone="no"?><svg xmlns="http://www.w3.org/2000/svg" xmlns:xlink="http://www.w3.org/1999/xlink" contentScriptType="application/ecmascript" contentStyleType="text/css" height="854px" preserveAspectRatio="none" style="width:656px;height:854px;background:#FFFFFF;" version="1.1" viewBox="0 0 656 854" width="656px" zoomAndPan="magnify"><defs><filter height="300%" id="f1is9ynl73ngn1" width="300%" x="-1" y="-1"><feGaussianBlur result="blurOut" stdDeviation="2.0"/><feColorMatrix in="blurOut" result="blurOut2" type="matrix" values="0 0 0 0 0 0 0 0 0 0 0 0 0 0 0 0 0 0 .4 0"/><feOffset dx="4.0" dy="4.0" in="blurOut2" result="blurOut3"/><feBlend in="SourceGraphic" in2="blurOut3" mode="normal"/></filter></defs><g><rect fill="#FFFFFF" filter="url(#f1is9ynl73ngn1)" height="651.2188" style="stroke:#A80036;stroke-width:1.0;" width="10" x="67.5" y="99.6094"/><rect fill="#FFFFFF" filter="url(#f1is9ynl73ngn1)" height="30.3516" style="stroke:#A80036;stroke-width:1.0;" width="10" x="583.5" y="121.9609"/><rect fill="#FFFFFF" filter="url(#f1is9ynl73ngn1)" height="81.0547" style="stroke:#A80036;stroke-width:1.0;" width="10" x="583.5" y="182.6641"/><rect fill="#FFFFFF" filter="url(#f1is9ynl73ngn1)" height="37.3516" style="stroke:#A80036;stroke-width:1.0;" width="10" x="583.5" y="294.0703"/><rect fill="#FFFFFF" filter="url(#f1is9ynl73ngn1)" height="30.3516" style="stroke:#A80036;stroke-width:1.0;" width="10" x="583.5" y="361.7734"/><rect fill="#FFFFFF" filter="url(#f1is9ynl73ngn1)" height="30.3516" style="stroke:#A80036;stroke-width:1.0;" width="10" x="583.5" y="422.4766"/><rect fill="#FFFFFF" filter="url(#f1is9ynl73ngn1)" height="30.3516" style="stroke:#A80036;stroke-width:1.0;" width="10" x="583.5" y="483.1797"/><rect fill="#FFFFFF" filter="url(#f1is9ynl73ngn1)" height="46.1875" style="stroke:#A80036;stroke-width:1.0;" width="10" x="583.5" y="569.2344"/><rect fill="#FFFFFF" filter="url(#f1is9ynl73ngn1)" height="30.3516" style="stroke:#A80036;stroke-width:1.0;" width="10" x="583.5" y="659.7734"/><rect fill="#FFFFFF" filter="url(#f1is9ynl73ngn1)" height="30.3516" style="stroke:#A80036;stroke-width:1.0;" width="10" x="583.5" y="720.4766"/><rect fill="#FFFFFF" filter="url(#f1is9ynl73ngn1)" height="432.7578" style="stroke:#000000;stroke-width:2.0;" width="632.5" x="10" y="197.6641"/><rect fill="#FFFFFF" filter="url(#f1is9ynl73ngn1)" height="79.0547" style="stroke:#000000;stroke-width:2.0;" width="612.5" x="20" y="223.0156"/><rect fill="#FFFFFF" filter="url(#f1is9ynl73ngn1)" height="94.8906" style="stroke:#000000;stroke-width:2.0;" width="612.5" x="20" y="528.5313"/><rect fill="#FFFFFF" height="46.1875" style="stroke:none;stroke-width:1.0;" width="612.5" x="20" y="577.2344"/><line style="stroke:#A80036;stroke-width:1.0;stroke-dasharray:5.0,5.0;" x1="72" x2="72" y1="89.6094" y2="768.8281"/><line style="stroke:#A80036;stroke-width:1.0;stroke-dasharray:5.0,5.0;" x1="588.5" x2="588.5" y1="89.6094" y2="768.8281"/><text fill="#000000" font-family="sans-serif" font-size="14" lengthAdjust="spacing" textLength="79" x="30" y="86.5332">Sales Clerck</text><ellipse cx="72.5" cy="15" fill="#FEFECE" filter="url(#f1is9ynl73ngn1)" rx="8" ry="8" style="stroke:#A80036;stroke-width:2.0;"/><path d="M72.5,23 L72.5,50 M59.5,31 L85.5,31 M72.5,50 L59.5,65 M72.5,50 L85.5,65 " fill="none" filter="url(#f1is9ynl73ngn1)" style="stroke:#A80036;stroke-width:2.0;"/><text fill="#000000" font-family="sans-serif" font-size="14" lengthAdjust="spacing" textLength="79" x="30" y="782.3613">Sales Clerck</text><ellipse cx="72.5" cy="795.4375" fill="#FEFECE" filter="url(#f1is9ynl73ngn1)" rx="8" ry="8" style="stroke:#A80036;stroke-width:2.0;"/><path d="M72.5,803.4375 L72.5,830.4375 M59.5,811.4375 L85.5,811.4375 M72.5,830.4375 L59.5,845.4375 M72.5,830.4375 L85.5,845.4375 " fill="none" filter="url(#f1is9ynl73ngn1)" style="stroke:#A80036;stroke-width:2.0;"/><rect fill="#FEFECE" filter="url(#f1is9ynl73ngn1)" height="31.6094" style="stroke:#A80036;stroke-width:1.5;" width="64" x="554.5" y="53"/><text fill="#000000" font-family="sans-serif" font-size="14" lengthAdjust="spacing" textLength="50" x="561.5" y="74.5332">:System</text><rect fill="#FEFECE" filter="url(#f1is9ynl73ngn1)" height="31.6094" style="stroke:#A80036;stroke-width:1.5;" width="64" x="554.5" y="767.8281"/><text fill="#000000" font-family="sans-serif" font-size="14" lengthAdjust="spacing" textLength="50" x="561.5" y="789.3613">:System</text><rect fill="#FFFFFF" filter="url(#f1is9ynl73ngn1)" height="651.2188" style="stroke:#A80036;stroke-width:1.0;" width="10" x="67.5" y="99.6094"/><rect fill="#FFFFFF" filter="url(#f1is9ynl73ngn1)" height="30.3516" style="stroke:#A80036;stroke-width:1.0;" width="10" x="583.5" y="121.9609"/><rect fill="#FFFFFF" filter="url(#f1is9ynl73ngn1)" height="81.0547" style="stroke:#A80036;stroke-width:1.0;" width="10" x="583.5" y="182.6641"/><rect fill="#FFFFFF" filter="url(#f1is9ynl73ngn1)" height="37.3516" style="stroke:#A80036;stroke-width:1.0;" width="10" x="583.5" y="294.0703"/><rect fill="#FFFFFF" filter="url(#f1is9ynl73ngn1)" height="30.3516" style="stroke:#A80036;stroke-width:1.0;" width="10" x="583.5" y="361.7734"/><rect fill="#FFFFFF" filter="url(#f1is9ynl73ngn1)" height="30.3516" style="stroke:#A80036;stroke-width:1.0;" width="10" x="583.5" y="422.4766"/><rect fill="#FFFFFF" filter="url(#f1is9ynl73ngn1)" height="30.3516" style="stroke:#A80036;stroke-width:1.0;" width="10" x="583.5" y="483.1797"/><rect fill="#FFFFFF" filter="url(#f1is9ynl73ngn1)" height="46.1875" style="stroke:#A80036;stroke-width:1.0;" width="10" x="583.5" y="569.2344"/><rect fill="#FFFFFF" filter="url(#f1is9ynl73ngn1)" height="30.3516" style="stroke:#A80036;stroke-width:1.0;" width="10" x="583.5" y="659.7734"/><rect fill="#FFFFFF" filter="url(#f1is9ynl73ngn1)" height="30.3516" style="stroke:#A80036;stroke-width:1.0;" width="10" x="583.5" y="720.4766"/><polygon fill="#A80036" points="571.5,117.9609,581.5,121.9609,571.5,125.9609,575.5,121.9609" style="stroke:#A80036;stroke-width:1.0;"/><line style="stroke:#A80036;stroke-width:1.0;" x1="77.5" x2="577.5" y1="121.9609" y2="121.9609"/><text fill="#000000" font-family="sans-serif" font-size="13" font-weight="bold" lengthAdjust="spacing" textLength="7" x="84.5" y="117.1045">1</text><text fill="#000000" font-family="sans-serif" font-size="13" lengthAdjust="spacing" textLength="324" x="95.5" y="117.1045">starts to create new product's order for a given costumer</text><polygon fill="#A80036" points="88.5,148.3125,78.5,152.3125,88.5,156.3125,84.5,152.3125" style="stroke:#A80036;stroke-width:1.0;"/><line style="stroke:#A80036;stroke-width:1.0;stroke-dasharray:2.0,2.0;" x1="82.5" x2="587.5" y1="152.3125" y2="152.3125"/><text fill="#000000" font-family="sans-serif" font-size="13" font-weight="bold" lengthAdjust="spacing" textLength="7" x="94.5" y="147.4561">2</text><text fill="#000000" font-family="sans-serif" font-size="13" lengthAdjust="spacing" textLength="137" x="105.5" y="147.4561">shows list of costumers</text><polygon fill="#A80036" points="571.5,178.6641,581.5,182.6641,571.5,186.6641,575.5,182.6641" style="stroke:#A80036;stroke-width:1.0;"/><line style="stroke:#A80036;stroke-width:1.0;" x1="77.5" x2="577.5" y1="182.6641" y2="182.6641"/><text fill="#000000" font-family="sans-serif" font-size="13" font-weight="bold" lengthAdjust="spacing" textLength="7" x="84.5" y="177.8076">3</text><text fill="#000000" font-family="sans-serif" font-size="13" lengthAdjust="spacing" textLength="181" x="95.5" y="177.8076">types the chosen costumer's id</text><path d="M10,197.6641 L83,197.6641 L83,205.6641 L73,215.6641 L10,215.6641 L10,197.6641 " fill="#EEEEEE" style="stroke:#000000;stroke-width:1.0;"/><rect fill="none" height="432.7578" style="stroke:#000000;stroke-width:2.0;" width="632.5" x="10" y="197.6641"/><text fill="#000000" font-family="sans-serif" font-size="13" font-weight="bold" lengthAdjust="spacing" textLength="28" x="25" y="212.1592">loop</text><text fill="#000000" font-family="sans-serif" font-size="11" font-weight="bold" lengthAdjust="spacing" textLength="62" x="98" y="211.083">[until exits]</text><path d="M20,223.0156 L93,223.0156 L93,231.0156 L83,241.0156 L20,241.0156 L20,223.0156 " fill="#EEEEEE" style="stroke:#000000;stroke-width:1.0;"/><rect fill="none" height="79.0547" style="stroke:#000000;stroke-width:2.0;" width="612.5" x="20" y="223.0156"/><text fill="#000000" font-family="sans-serif" font-size="13" font-weight="bold" lengthAdjust="spacing" textLength="28" x="35" y="237.5107">loop</text><text fill="#000000" font-family="sans-serif" font-size="11" font-weight="bold" lengthAdjust="spacing" textLength="62" x="108" y="236.4346">[until exits]</text><polygon fill="#A80036" points="88.5,259.7188,78.5,263.7188,88.5,267.7188,84.5,263.7188" style="stroke:#A80036;stroke-width:1.0;"/><line style="stroke:#A80036;stroke-width:1.0;stroke-dasharray:2.0,2.0;" x1="82.5" x2="587.5" y1="263.7188" y2="263.7188"/><text fill="#000000" font-family="sans-serif" font-size="13" font-weight="bold" lengthAdjust="spacing" textLength="7" x="94.5" y="258.8623">4</text><text fill="#000000" font-family="sans-serif" font-size="13" lengthAdjust="spacing" textLength="364" x="105.5" y="258.8623">asks for a field(category,description, brand..)to filter the catalog</text><polygon fill="#A80036" points="571.5,290.0703,581.5,294.0703,571.5,298.0703,575.5,294.0703" style="stroke:#A80036;stroke-width:1.0;"/><line style="stroke:#A80036;stroke-width:1.0;" x1="77.5" x2="577.5" y1="294.0703" y2="294.0703"/><text fill="#000000" font-family="sans-serif" font-size="13" font-weight="bold" lengthAdjust="spacing" textLength="7" x="84.5" y="289.2139">5</text><text fill="#000000" font-family="sans-serif" font-size="13" lengthAdjust="spacing" textLength="81" x="95.5" y="289.2139">types the field</text><polygon fill="#A80036" points="88.5,327.4219,78.5,331.4219,88.5,335.4219,84.5,331.4219" style="stroke:#A80036;stroke-width:1.0;"/><line style="stroke:#A80036;stroke-width:1.0;stroke-dasharray:2.0,2.0;" x1="82.5" x2="587.5" y1="331.4219" y2="331.4219"/><text fill="#000000" font-family="sans-serif" font-size="13" font-weight="bold" lengthAdjust="spacing" textLength="7" x="94.5" y="326.5654">6</text><text fill="#000000" font-family="sans-serif" font-size="13" lengthAdjust="spacing" textLength="471" x="105.5" y="326.5654">shows list of products and asks to choose how to order the list (by name or price)</text><polygon fill="#A80036" points="571.5,357.7734,581.5,361.7734,571.5,365.7734,575.5,361.7734" style="stroke:#A80036;stroke-width:1.0;"/><line style="stroke:#A80036;stroke-width:1.0;" x1="77.5" x2="577.5" y1="361.7734" y2="361.7734"/><text fill="#000000" font-family="sans-serif" font-size="13" font-weight="bold" lengthAdjust="spacing" textLength="7" x="84.5" y="356.917">7</text><text fill="#000000" font-family="sans-serif" font-size="13" lengthAdjust="spacing" textLength="124" x="95.5" y="356.917">chooses how to order</text><polygon fill="#A80036" points="88.5,388.125,78.5,392.125,88.5,396.125,84.5,392.125" style="stroke:#A80036;stroke-width:1.0;"/><line style="stroke:#A80036;stroke-width:1.0;stroke-dasharray:2.0,2.0;" x1="82.5" x2="587.5" y1="392.125" y2="392.125"/><text fill="#000000" font-family="sans-serif" font-size="13" font-weight="bold" lengthAdjust="spacing" textLength="7" x="94.5" y="387.2686">8</text><text fill="#000000" font-family="sans-serif" font-size="13" lengthAdjust="spacing" textLength="273" x="105.5" y="387.2686">shows list of products and asks for the barcode</text><polygon fill="#A80036" points="571.5,418.4766,581.5,422.4766,571.5,426.4766,575.5,422.4766" style="stroke:#A80036;stroke-width:1.0;"/><line style="stroke:#A80036;stroke-width:1.0;" x1="77.5" x2="577.5" y1="422.4766" y2="422.4766"/><text fill="#000000" font-family="sans-serif" font-size="13" font-weight="bold" lengthAdjust="spacing" textLength="7" x="84.5" y="417.6201">9</text><text fill="#000000" font-family="sans-serif" font-size="13" lengthAdjust="spacing" textLength="206" x="95.5" y="417.6201">types the chosen product's barcode</text><polygon fill="#A80036" points="88.5,448.8281,78.5,452.8281,88.5,456.8281,84.5,452.8281" style="stroke:#A80036;stroke-width:1.0;"/><line style="stroke:#A80036;stroke-width:1.0;stroke-dasharray:2.0,2.0;" x1="82.5" x2="587.5" y1="452.8281" y2="452.8281"/><text fill="#000000" font-family="sans-serif" font-size="13" font-weight="bold" lengthAdjust="spacing" textLength="14" x="94.5" y="447.9717">10</text><text fill="#000000" font-family="sans-serif" font-size="13" lengthAdjust="spacing" textLength="308" x="112.5" y="447.9717">shows all data(code,description,brand,category,price)</text><polygon fill="#A80036" points="571.5,479.1797,581.5,483.1797,571.5,487.1797,575.5,483.1797" style="stroke:#A80036;stroke-width:1.0;"/><line style="stroke:#A80036;stroke-width:1.0;" x1="77.5" x2="577.5" y1="483.1797" y2="483.1797"/><text fill="#000000" font-family="sans-serif" font-size="13" font-weight="bold" lengthAdjust="spacing" textLength="14" x="84.5" y="478.3232">11</text><text fill="#000000" font-family="sans-serif" font-size="13" lengthAdjust="spacing" textLength="127" x="102.5" y="478.3232">check product's stock</text><polygon fill="#A80036" points="88.5,509.5313,78.5,513.5313,88.5,517.5313,84.5,513.5313" style="stroke:#A80036;stroke-width:1.0;"/><line style="stroke:#A80036;stroke-width:1.0;stroke-dasharray:2.0,2.0;" x1="82.5" x2="587.5" y1="513.5313" y2="513.5313"/><text fill="#000000" font-family="sans-serif" font-size="13" font-weight="bold" lengthAdjust="spacing" textLength="14" x="94.5" y="508.6748">12</text><text fill="#000000" font-family="sans-serif" font-size="13" lengthAdjust="spacing" textLength="128" x="112.5" y="508.6748">Shows available stock</text><path d="M20,528.5313 L81,528.5313 L81,536.5313 L71,546.5313 L20,546.5313 L20,528.5313 " fill="#EEEEEE" style="stroke:#000000;stroke-width:1.0;"/><rect fill="none" height="94.8906" style="stroke:#000000;stroke-width:2.0;" width="612.5" x="20" y="528.5313"/><text fill="#000000" font-family="sans-serif" font-size="13" font-weight="bold" lengthAdjust="spacing" textLength="16" x="35" y="543.0264">alt</text><text fill="#000000" font-family="sans-serif" font-size="11" font-weight="bold" lengthAdjust="spacing" textLength="95" x="96" y="541.9502">[if there is stock]</text><polygon fill="#A80036" points="571.5,565.2344,581.5,569.2344,571.5,573.2344,575.5,569.2344" style="stroke:#A80036;stroke-width:1.0;"/><line style="stroke:#A80036;stroke-width:1.0;" x1="77.5" x2="577.5" y1="569.2344" y2="569.2344"/><text fill="#000000" font-family="sans-serif" font-size="13" font-weight="bold" lengthAdjust="spacing" textLength="14" x="84.5" y="564.3779">13</text><text fill="#000000" font-family="sans-serif" font-size="13" lengthAdjust="spacing" textLength="172" x="102.5" y="564.3779">adds product to shopping cart</text><line style="stroke:#000000;stroke-width:1.0;stroke-dasharray:2.0,2.0;" x1="20" x2="632.5" y1="578.2344" y2="578.2344"/><text fill="#000000" font-family="sans-serif" font-size="11" font-weight="bold" lengthAdjust="spacing" textLength="116" x="25" y="589.6533">[if there is not stock]</text><polygon fill="#A80036" points="88.5,611.4219,78.5,615.4219,88.5,619.4219,84.5,615.4219" style="stroke:#A80036;stroke-width:1.0;"/><line style="stroke:#A80036;stroke-width:1.0;stroke-dasharray:2.0,2.0;" x1="82.5" x2="587.5" y1="615.4219" y2="615.4219"/><text fill="#000000" font-family="sans-serif" font-size="13" font-weight="bold" lengthAdjust="spacing" textLength="14" x="94.5" y="610.5654">14</text><text fill="#000000" font-family="sans-serif" font-size="13" lengthAdjust="spacing" textLength="137" x="112.5" y="610.5654">informs operation failure</text><polygon fill="#A80036" points="88.5,655.7734,78.5,659.7734,88.5,663.7734,84.5,659.7734" style="stroke:#A80036;stroke-width:1.0;"/><line style="stroke:#A80036;stroke-width:1.0;stroke-dasharray:2.0,2.0;" x1="82.5" x2="582.5" y1="659.7734" y2="659.7734"/><text fill="#000000" font-family="sans-serif" font-size="13" font-weight="bold" lengthAdjust="spacing" textLength="14" x="94.5" y="654.917">15</text><text fill="#000000" font-family="sans-serif" font-size="13" lengthAdjust="spacing" textLength="239" x="112.5" y="654.917">shows price of the order with the shipping</text><polygon fill="#A80036" points="576.5,686.125,586.5,690.125,576.5,694.125,580.5,690.125" style="stroke:#A80036;stroke-width:1.0;"/><line style="stroke:#A80036;stroke-width:1.0;" x1="77.5" x2="582.5" y1="690.125" y2="690.125"/><text fill="#000000" font-family="sans-serif" font-size="13" font-weight="bold" lengthAdjust="spacing" textLength="14" x="84.5" y="685.2686">16</text><text fill="#000000" font-family="sans-serif" font-size="13" lengthAdjust="spacing" textLength="150" x="102.5" y="685.2686">chooses payment method</text><polygon fill="#A80036" points="88.5,716.4766,78.5,720.4766,88.5,724.4766,84.5,720.4766" style="stroke:#A80036;stroke-width:1.0;"/><line style="stroke:#A80036;stroke-width:1.0;stroke-dasharray:2.0,2.0;" x1="82.5" x2="582.5" y1="720.4766" y2="720.4766"/><text fill="#000000" font-family="sans-serif" font-size="13" font-weight="bold" lengthAdjust="spacing" textLength="14" x="94.5" y="715.6201">17</text><text fill="#000000" font-family="sans-serif" font-size="13" lengthAdjust="spacing" textLength="124" x="112.5" y="715.6201">requests confirmation</text><polygon fill="#A80036" points="83.5,746.8281,73.5,750.8281,83.5,754.8281,79.5,750.8281" style="stroke:#A80036;stroke-width:1.0;"/><line style="stroke:#A80036;stroke-width:1.0;stroke-dasharray:2.0,2.0;" x1="77.5" x2="587.5" y1="750.8281" y2="750.8281"/><text fill="#000000" font-family="sans-serif" font-size="13" font-weight="bold" lengthAdjust="spacing" textLength="14" x="89.5" y="745.9717">18</text><text fill="#000000" font-family="sans-serif" font-size="13" lengthAdjust="spacing" textLength="281" x="107.5" y="745.9717">confirms the data and informs operation success</text><!--MD5=[1295023f2590ef5227ae67437522ccf1]
@startuml
autonumber
actor "Sales Clerck" as SC

activate SC
SC -> ":System" : starts to create new product's order for a given costumer
activate ":System"

":System" - -> SC : shows list of costumers
deactivate ":System"

SC -> ":System" : types the chosen costumer's id
activate ":System"
loop until exits
loop until exits
":System" - -> SC : asks for a field(category,description, brand..)to filter the catalog
deactivate ":System"

SC -> ":System" : types the field
activate ":System"

end loop
":System" - -> SC : shows list of products and asks to choose how to order the list (by name or price)
deactivate ":System"

SC -> ":System" : chooses how to order
activate ":System"

":System" - -> SC : shows list of products and asks for the barcode
deactivate ":System"

SC -> ":System" : types the chosen product's barcode
activate ":System"

":System" - -> SC :shows all data(code,description,brand,category,price)
deactivate ":System"

SC -> ":System" : check product's stock
activate ":System"
":System" - -> SC : Shows available stock
deactivate ":System"

alt if there is stock
SC -> ":System" : adds product to shopping cart
activate ":System"
else if there is not stock

":System" - -> SC : informs operation failure
deactivate ":System"
end

end loop



":System" - -> SC : shows price of the order with the shipping
activate ":System"

SC -> ":System" : chooses payment method
deactivate ":System"

":System" - -> SC : requests confirmation

activate ":System"

":System" - -> SC :confirms the data and informs operation success
deactivate ":System"
deactivate SC

@enduml

PlantUML version 1.2022.1(Tue Feb 01 18:19:58 GMT 2022)
(GPL source distribution)
Java Runtime: OpenJDK Runtime Environment
JVM: OpenJDK 64-Bit Server VM
Default Encoding: Cp1252
Language: pt
Country: PT
--></g></svg>