<?xml version="1.0" encoding="UTF-8" standalone="no"?><svg xmlns="http://www.w3.org/2000/svg" xmlns:xlink="http://www.w3.org/1999/xlink" contentScriptType="application/ecmascript" contentStyleType="text/css" height="416px" preserveAspectRatio="none" style="width:1116px;height:416px;background:#FFFFFF;" version="1.1" viewBox="0 0 1116 416" width="1116px" zoomAndPan="magnify"><defs><filter height="300%" id="foroodvfcbypq" width="300%" x="-1" y="-1"><feGaussianBlur result="blurOut" stdDeviation="2.0"/><feColorMatrix in="blurOut" result="blurOut2" type="matrix" values="0 0 0 0 0 0 0 0 0 0 0 0 0 0 0 0 0 0 .4 0"/><feOffset dx="4.0" dy="4.0" in="blurOut2" result="blurOut3"/><feBlend in="SourceGraphic" in2="blurOut3" mode="normal"/></filter></defs><g><!--MD5=[9681dc6e01e10c6b4fe06895ae94f592]
cluster UI--><polygon fill="#FFFFFF" filter="url(#foroodvfcbypq)" points="466,6,486,6,493,29.6094,640,29.6094,640,106,466,106,466,6" style="stroke:#000000;stroke-width:1.5;"/><line style="stroke:#000000;stroke-width:1.5;" x1="466" x2="493" y1="29.6094" y2="29.6094"/><text fill="#000000" font-family="sans-serif" font-size="14" font-weight="bold" lengthAdjust="spacing" textLength="14" x="470" y="22.5332">UI</text><!--MD5=[1f2cfc53d9d308f53762fd0fcbaa4873]
cluster Controller--><polygon fill="#FFFFFF" filter="url(#foroodvfcbypq)" points="445,130,522,130,529,153.6094,661,153.6094,661,230,445,230,445,130" style="stroke:#000000;stroke-width:1.5;"/><line style="stroke:#000000;stroke-width:1.5;" x1="445" x2="529" y1="153.6094" y2="153.6094"/><text fill="#000000" font-family="sans-serif" font-size="14" font-weight="bold" lengthAdjust="spacing" textLength="71" x="449" y="146.5332">Controller</text><!--MD5=[4523f918a499262345e8d765b0fe948b]
cluster Order--><polygon fill="#FFFFFF" filter="url(#foroodvfcbypq)" points="16,254,63,254,70,277.6094,961,277.6094,961,409,16,409,16,254" style="stroke:#000000;stroke-width:1.5;"/><line style="stroke:#000000;stroke-width:1.5;" x1="16" x2="70" y1="277.6094" y2="277.6094"/><text fill="#000000" font-family="sans-serif" font-size="14" font-weight="bold" lengthAdjust="spacing" textLength="41" x="20" y="270.5332">Order</text><text fill="#000000" font-family="sans-serif" font-size="14" font-style="italic" lengthAdjust="spacing" textLength="82" x="451.5" y="294.1426">«Aggregate»</text><!--MD5=[5810de2917e203e3e76dad8ecc0f182f]
cluster Category--><polygon fill="#FFFFFF" filter="url(#foroodvfcbypq)" points="985,268.5,1054,268.5,1061,292.1094,1099,292.1094,1099,394.5,985,394.5,985,268.5" style="stroke:#000000;stroke-width:1.5;"/><line style="stroke:#000000;stroke-width:1.5;" x1="985" x2="1061" y1="292.1094" y2="292.1094"/><text fill="#000000" font-family="sans-serif" font-size="14" font-weight="bold" lengthAdjust="spacing" textLength="63" x="989" y="285.0332">Category</text><text fill="#000000" font-family="sans-serif" font-size="14" font-style="italic" lengthAdjust="spacing" textLength="82" x="1005" y="308.6426">«Aggregate»</text><!--MD5=[70a5b9b99ed0ca4d6e10c9831421c77d]
class NewProductOrderUI--><rect codeLine="4" fill="#FEFECE" filter="url(#foroodvfcbypq)" height="48" id="NewProductOrderUI" style="stroke:#A80036;stroke-width:1.5;" width="142" x="482" y="42"/><ellipse cx="497" cy="58" fill="#ADD1B2" rx="11" ry="11" style="stroke:#A80036;stroke-width:1.0;"/><path d="M499,54.5 Q499.2031,54 499.4375,53.75 Q499.6719,53.5 499.9375,53.5 Q500.4063,53.5 500.7031,53.7813 Q501,54.0625 501,54.7188 L501,56.2813 Q501,56.9375 500.7188,57.2188 Q500.4375,57.5 500,57.5 Q499.6094,57.5 499.3594,57.3281 Q499.1094,57.1563 499,56.7031 Q498.9531,56.3906 498.7813,56.2188 Q498.4688,55.8906 497.9063,55.7031 Q497.3438,55.5 496.7813,55.5 Q496.0781,55.5 495.4844,55.7813 Q494.9063,56.0625 494.4531,56.6875 Q494,57.3125 494,58.1719 L494,59.0938 Q494,60.125 494.8438,60.8125 Q495.6875,61.5 497.1875,61.5 Q498.0781,61.5 498.7031,61.2969 Q499.0625,61.1875 499.4688,60.8281 Q499.7344,60.625 499.875,60.5625 Q500.0156,60.5 500.1875,60.5 Q500.5156,60.5 500.75,60.7656 Q501,61.0156 501,61.375 Q501,61.7188 500.6563,62.125 Q500.1563,62.7188 499.3594,63.0469 Q498.3125,63.5 497.0313,63.5 Q495.5313,63.5 494.3281,62.9063 Q493.3594,62.4375 492.6719,61.4219 Q492,60.4063 492,59.2031 L492,58.1094 Q492,56.8594 492.5938,55.7656 Q493.2031,54.6719 494.25,54.0938 Q495.3125,53.5 496.5,53.5 Q497.2188,53.5 497.8438,53.75 Q498.4688,54 499,54.5 Z " fill="#000000"/><text fill="#000000" font-family="sans-serif" font-size="12" lengthAdjust="spacing" textLength="110" x="511" y="62.9102">NewProductOrderUI</text><line style="stroke:#A80036;stroke-width:1.5;" x1="483" x2="623" y1="74" y2="74"/><line style="stroke:#A80036;stroke-width:1.5;" x1="483" x2="623" y1="82" y2="82"/><!--MD5=[05842477dc879a3c5fb6b834a038d36c]
class NewProductOrderController--><rect codeLine="9" fill="#FEFECE" filter="url(#foroodvfcbypq)" height="48" id="NewProductOrderController" style="stroke:#A80036;stroke-width:1.5;" width="184" x="461" y="166"/><ellipse cx="476" cy="182" fill="#ADD1B2" rx="11" ry="11" style="stroke:#A80036;stroke-width:1.0;"/><path d="M478,178.5 Q478.2031,178 478.4375,177.75 Q478.6719,177.5 478.9375,177.5 Q479.4063,177.5 479.7031,177.7813 Q480,178.0625 480,178.7188 L480,180.2813 Q480,180.9375 479.7188,181.2188 Q479.4375,181.5 479,181.5 Q478.6094,181.5 478.3594,181.3281 Q478.1094,181.1563 478,180.7031 Q477.9531,180.3906 477.7813,180.2188 Q477.4688,179.8906 476.9063,179.7031 Q476.3438,179.5 475.7813,179.5 Q475.0781,179.5 474.4844,179.7813 Q473.9063,180.0625 473.4531,180.6875 Q473,181.3125 473,182.1719 L473,183.0938 Q473,184.125 473.8438,184.8125 Q474.6875,185.5 476.1875,185.5 Q477.0781,185.5 477.7031,185.2969 Q478.0625,185.1875 478.4688,184.8281 Q478.7344,184.625 478.875,184.5625 Q479.0156,184.5 479.1875,184.5 Q479.5156,184.5 479.75,184.7656 Q480,185.0156 480,185.375 Q480,185.7188 479.6563,186.125 Q479.1563,186.7188 478.3594,187.0469 Q477.3125,187.5 476.0313,187.5 Q474.5313,187.5 473.3281,186.9063 Q472.3594,186.4375 471.6719,185.4219 Q471,184.4063 471,183.2031 L471,182.1094 Q471,180.8594 471.5938,179.7656 Q472.2031,178.6719 473.25,178.0938 Q474.3125,177.5 475.5,177.5 Q476.2188,177.5 476.8438,177.75 Q477.4688,178 478,178.5 Z " fill="#000000"/><text fill="#000000" font-family="sans-serif" font-size="12" lengthAdjust="spacing" textLength="152" x="490" y="186.9102">NewProductOrderController</text><line style="stroke:#A80036;stroke-width:1.5;" x1="462" x2="644" y1="198" y2="198"/><line style="stroke:#A80036;stroke-width:1.5;" x1="462" x2="644" y1="206" y2="206"/><!--MD5=[72136138052d025cffdce3c22fbd185f]
class Product--><rect codeLine="16" fill="#FEFECE" filter="url(#foroodvfcbypq)" height="85.1172" id="Product" style="stroke:#A80036;stroke-width:1.5;" width="107" x="837.5" y="308"/><ellipse cx="867.35" cy="335.6406" fill="#ADD1B2" rx="11" ry="11" style="stroke:#A80036;stroke-width:1.0;"/><path d="M865.85,336.6406 L865.85,338.6406 L869.85,338.6406 L869.85,337.6406 L869.85,337.1563 L870.475,336.6406 L870.85,336.6406 L871.225,336.6406 L871.85,337.1563 L871.85,337.6406 L871.85,340.6406 L863.85,340.6406 L863.3656,340.6406 L862.85,340.0156 L862.85,339.6406 L862.85,339.2656 L863.3656,338.6406 L863.85,338.6406 L863.85,338.6406 L863.85,332.6406 L863.85,332.6406 L863.3656,332.6406 L862.85,332.0156 L862.85,331.6406 L862.85,331.2656 L863.3656,330.6406 L863.85,330.6406 L871.85,330.6406 L871.85,333.6406 L871.85,334.125 L871.225,334.6406 L870.85,334.6406 L870.475,334.6406 L869.85,334.125 L869.85,333.6406 L869.85,332.6406 L865.85,332.6406 L865.85,334.6406 L866.85,334.6406 L866.85,334.1563 L866.85,334.1563 L867.475,333.6406 L867.85,333.6406 L868.225,333.6406 L868.85,334.1563 L868.85,334.6406 L868.85,336.6406 L868.85,337.125 L868.225,337.6406 L868.225,337.6406 L867.85,337.6406 L867.475,337.6406 L866.85,337.125 L866.85,337.125 L866.85,336.6406 L865.85,336.6406 Z " fill="#000000"/><text fill="#000000" font-family="sans-serif" font-size="12" font-style="italic" lengthAdjust="spacing" textLength="44" x="883.65" y="325.457">«Entity»</text><text fill="#000000" font-family="sans-serif" font-size="12" font-style="italic" lengthAdjust="spacing" textLength="40" x="885.65" y="340.5508">«Root»</text><text fill="#000000" font-family="sans-serif" font-size="12" lengthAdjust="spacing" textLength="42" x="884.65" y="355.6445">Product</text><line style="stroke:#A80036;stroke-width:1.5;" x1="838.5" x2="943.5" y1="363.2813" y2="363.2813"/><text fill="#000000" font-family="sans-serif" font-size="11" lengthAdjust="spacing" textLength="95" x="843.5" y="378.7002">-ProductDescription</text><line style="stroke:#A80036;stroke-width:1.5;" x1="838.5" x2="943.5" y1="385.1172" y2="385.1172"/><!--MD5=[dfc542421e64cd05f8e432ec32216532]
class PriceTable--><rect codeLine="19" fill="#FEFECE" filter="url(#foroodvfcbypq)" height="56.1875" id="PriceTable" style="stroke:#A80036;stroke-width:1.5;" width="91" x="711.5" y="322.5"/><ellipse cx="726.5" cy="342.5938" fill="#ADD1B2" rx="11" ry="11" style="stroke:#A80036;stroke-width:1.0;"/><path d="M725,343.5938 L725,345.5938 L729,345.5938 L729,344.5938 L729,344.1094 L729.625,343.5938 L730,343.5938 L730.375,343.5938 L731,344.1094 L731,344.5938 L731,347.5938 L723,347.5938 L722.5156,347.5938 L722,346.9688 L722,346.5938 L722,346.2188 L722.5156,345.5938 L723,345.5938 L723,345.5938 L723,339.5938 L723,339.5938 L722.5156,339.5938 L722,338.9688 L722,338.5938 L722,338.2188 L722.5156,337.5938 L723,337.5938 L731,337.5938 L731,340.5938 L731,341.0781 L730.375,341.5938 L730,341.5938 L729.625,341.5938 L729,341.0781 L729,340.5938 L729,339.5938 L725,339.5938 L725,341.5938 L726,341.5938 L726,341.1094 L726,341.1094 L726.625,340.5938 L727,340.5938 L727.375,340.5938 L728,341.1094 L728,341.5938 L728,343.5938 L728,344.0781 L727.375,344.5938 L727.375,344.5938 L727,344.5938 L726.625,344.5938 L726,344.0781 L726,344.0781 L726,343.5938 L725,343.5938 Z " fill="#000000"/><text fill="#000000" font-family="sans-serif" font-size="12" font-style="italic" lengthAdjust="spacing" textLength="44" x="748" y="339.957">«Entity»</text><text fill="#000000" font-family="sans-serif" font-size="12" lengthAdjust="spacing" textLength="59" x="740.5" y="355.0508">PriceTable</text><line style="stroke:#A80036;stroke-width:1.5;" x1="712.5" x2="801.5" y1="362.6875" y2="362.6875"/><line style="stroke:#A80036;stroke-width:1.5;" x1="712.5" x2="801.5" y1="370.6875" y2="370.6875"/><!--MD5=[daea4ed884149fc5a9dd77ed50ff66dd]
class SalesRegion--><rect codeLine="20" fill="#FEFECE" filter="url(#foroodvfcbypq)" height="56.1875" id="SalesRegion" style="stroke:#A80036;stroke-width:1.5;" width="104" x="572" y="322.5"/><ellipse cx="587" cy="342.5938" fill="#ADD1B2" rx="11" ry="11" style="stroke:#A80036;stroke-width:1.0;"/><path d="M585.5,343.5938 L585.5,345.5938 L589.5,345.5938 L589.5,344.5938 L589.5,344.1094 L590.125,343.5938 L590.5,343.5938 L590.875,343.5938 L591.5,344.1094 L591.5,344.5938 L591.5,347.5938 L583.5,347.5938 L583.0156,347.5938 L582.5,346.9688 L582.5,346.5938 L582.5,346.2188 L583.0156,345.5938 L583.5,345.5938 L583.5,345.5938 L583.5,339.5938 L583.5,339.5938 L583.0156,339.5938 L582.5,338.9688 L582.5,338.5938 L582.5,338.2188 L583.0156,337.5938 L583.5,337.5938 L591.5,337.5938 L591.5,340.5938 L591.5,341.0781 L590.875,341.5938 L590.5,341.5938 L590.125,341.5938 L589.5,341.0781 L589.5,340.5938 L589.5,339.5938 L585.5,339.5938 L585.5,341.5938 L586.5,341.5938 L586.5,341.1094 L586.5,341.1094 L587.125,340.5938 L587.5,340.5938 L587.875,340.5938 L588.5,341.1094 L588.5,341.5938 L588.5,343.5938 L588.5,344.0781 L587.875,344.5938 L587.875,344.5938 L587.5,344.5938 L587.125,344.5938 L586.5,344.0781 L586.5,344.0781 L586.5,343.5938 L585.5,343.5938 Z " fill="#000000"/><text fill="#000000" font-family="sans-serif" font-size="12" font-style="italic" lengthAdjust="spacing" textLength="44" x="615" y="339.957">«Entity»</text><text fill="#000000" font-family="sans-serif" font-size="12" lengthAdjust="spacing" textLength="72" x="601" y="355.0508">SalesRegion</text><line style="stroke:#A80036;stroke-width:1.5;" x1="573" x2="675" y1="362.6875" y2="362.6875"/><line style="stroke:#A80036;stroke-width:1.5;" x1="573" x2="675" y1="370.6875" y2="370.6875"/><!--MD5=[5966e65ec991dc36b37db3be72f739a6]
class ShoppingCart--><rect codeLine="21" fill="#FEFECE" filter="url(#foroodvfcbypq)" height="56.1875" id="ShoppingCart" style="stroke:#A80036;stroke-width:1.5;" width="108" x="429" y="322.5"/><ellipse cx="444" cy="342.5938" fill="#ADD1B2" rx="11" ry="11" style="stroke:#A80036;stroke-width:1.0;"/><path d="M442.5,343.5938 L442.5,345.5938 L446.5,345.5938 L446.5,344.5938 L446.5,344.1094 L447.125,343.5938 L447.5,343.5938 L447.875,343.5938 L448.5,344.1094 L448.5,344.5938 L448.5,347.5938 L440.5,347.5938 L440.0156,347.5938 L439.5,346.9688 L439.5,346.5938 L439.5,346.2188 L440.0156,345.5938 L440.5,345.5938 L440.5,345.5938 L440.5,339.5938 L440.5,339.5938 L440.0156,339.5938 L439.5,338.9688 L439.5,338.5938 L439.5,338.2188 L440.0156,337.5938 L440.5,337.5938 L448.5,337.5938 L448.5,340.5938 L448.5,341.0781 L447.875,341.5938 L447.5,341.5938 L447.125,341.5938 L446.5,341.0781 L446.5,340.5938 L446.5,339.5938 L442.5,339.5938 L442.5,341.5938 L443.5,341.5938 L443.5,341.1094 L443.5,341.1094 L444.125,340.5938 L444.5,340.5938 L444.875,340.5938 L445.5,341.1094 L445.5,341.5938 L445.5,343.5938 L445.5,344.0781 L444.875,344.5938 L444.875,344.5938 L444.5,344.5938 L444.125,344.5938 L443.5,344.0781 L443.5,344.0781 L443.5,343.5938 L442.5,343.5938 Z " fill="#000000"/><text fill="#000000" font-family="sans-serif" font-size="12" font-style="italic" lengthAdjust="spacing" textLength="44" x="474" y="339.957">«Entity»</text><text fill="#000000" font-family="sans-serif" font-size="12" lengthAdjust="spacing" textLength="76" x="458" y="355.0508">ShoppingCart</text><line style="stroke:#A80036;stroke-width:1.5;" x1="430" x2="536" y1="362.6875" y2="362.6875"/><line style="stroke:#A80036;stroke-width:1.5;" x1="430" x2="536" y1="370.6875" y2="370.6875"/><!--MD5=[f461e63e1e7c324c6bfe0a967678823f]
class PriceItem--><rect codeLine="22" fill="#FEFECE" filter="url(#foroodvfcbypq)" height="56.1875" id="PriceItem" style="stroke:#A80036;stroke-width:1.5;" width="84" x="310" y="322.5"/><ellipse cx="325" cy="342.5938" fill="#ADD1B2" rx="11" ry="11" style="stroke:#A80036;stroke-width:1.0;"/><path d="M323.5,343.5938 L323.5,345.5938 L327.5,345.5938 L327.5,344.5938 L327.5,344.1094 L328.125,343.5938 L328.5,343.5938 L328.875,343.5938 L329.5,344.1094 L329.5,344.5938 L329.5,347.5938 L321.5,347.5938 L321.0156,347.5938 L320.5,346.9688 L320.5,346.5938 L320.5,346.2188 L321.0156,345.5938 L321.5,345.5938 L321.5,345.5938 L321.5,339.5938 L321.5,339.5938 L321.0156,339.5938 L320.5,338.9688 L320.5,338.5938 L320.5,338.2188 L321.0156,337.5938 L321.5,337.5938 L329.5,337.5938 L329.5,340.5938 L329.5,341.0781 L328.875,341.5938 L328.5,341.5938 L328.125,341.5938 L327.5,341.0781 L327.5,340.5938 L327.5,339.5938 L323.5,339.5938 L323.5,341.5938 L324.5,341.5938 L324.5,341.1094 L324.5,341.1094 L325.125,340.5938 L325.5,340.5938 L325.875,340.5938 L326.5,341.1094 L326.5,341.5938 L326.5,343.5938 L326.5,344.0781 L325.875,344.5938 L325.875,344.5938 L325.5,344.5938 L325.125,344.5938 L324.5,344.0781 L324.5,344.0781 L324.5,343.5938 L323.5,343.5938 Z " fill="#000000"/><text fill="#000000" font-family="sans-serif" font-size="12" font-style="italic" lengthAdjust="spacing" textLength="44" x="343" y="339.957">«Entity»</text><text fill="#000000" font-family="sans-serif" font-size="12" lengthAdjust="spacing" textLength="52" x="339" y="355.0508">PriceItem</text><line style="stroke:#A80036;stroke-width:1.5;" x1="311" x2="393" y1="362.6875" y2="362.6875"/><line style="stroke:#A80036;stroke-width:1.5;" x1="311" x2="393" y1="370.6875" y2="370.6875"/><!--MD5=[4ef588c4d1404d1058d28903bdac637c]
class Costumer--><rect codeLine="23" fill="#FEFECE" filter="url(#foroodvfcbypq)" height="71.2813" id="Costumer" style="stroke:#A80036;stroke-width:1.5;" width="87" x="187.5" y="315"/><ellipse cx="202.5" cy="342.6406" fill="#ADD1B2" rx="11" ry="11" style="stroke:#A80036;stroke-width:1.0;"/><path d="M201,343.6406 L201,345.6406 L205,345.6406 L205,344.6406 L205,344.1563 L205.625,343.6406 L206,343.6406 L206.375,343.6406 L207,344.1563 L207,344.6406 L207,347.6406 L199,347.6406 L198.5156,347.6406 L198,347.0156 L198,346.6406 L198,346.2656 L198.5156,345.6406 L199,345.6406 L199,345.6406 L199,339.6406 L199,339.6406 L198.5156,339.6406 L198,339.0156 L198,338.6406 L198,338.2656 L198.5156,337.6406 L199,337.6406 L207,337.6406 L207,340.6406 L207,341.125 L206.375,341.6406 L206,341.6406 L205.625,341.6406 L205,341.125 L205,340.6406 L205,339.6406 L201,339.6406 L201,341.6406 L202,341.6406 L202,341.1563 L202,341.1563 L202.625,340.6406 L203,340.6406 L203.375,340.6406 L204,341.1563 L204,341.6406 L204,343.6406 L204,344.125 L203.375,344.6406 L203.375,344.6406 L203,344.6406 L202.625,344.6406 L202,344.125 L202,344.125 L202,343.6406 L201,343.6406 Z " fill="#000000"/><text fill="#000000" font-family="sans-serif" font-size="12" font-style="italic" lengthAdjust="spacing" textLength="44" x="222" y="332.457">«Entity»</text><text fill="#000000" font-family="sans-serif" font-size="12" font-style="italic" lengthAdjust="spacing" textLength="40" x="224" y="347.5508">«Root»</text><text fill="#000000" font-family="sans-serif" font-size="12" lengthAdjust="spacing" textLength="55" x="216.5" y="362.6445">Costumer</text><line style="stroke:#A80036;stroke-width:1.5;" x1="188.5" x2="273.5" y1="370.2813" y2="370.2813"/><line style="stroke:#A80036;stroke-width:1.5;" x1="188.5" x2="273.5" y1="378.2813" y2="378.2813"/><!--MD5=[f6c77495e12a05eb94081b0ac09e8b1a]
class PaymentMethod--><rect codeLine="24" fill="#FEFECE" filter="url(#foroodvfcbypq)" height="56.1875" id="PaymentMethod" style="stroke:#A80036;stroke-width:1.5;" width="120" x="32" y="322.5"/><ellipse cx="47" cy="342.5938" fill="#ADD1B2" rx="11" ry="11" style="stroke:#A80036;stroke-width:1.0;"/><path d="M45.5,343.5938 L45.5,345.5938 L49.5,345.5938 L49.5,344.5938 L49.5,344.1094 L50.125,343.5938 L50.5,343.5938 L50.875,343.5938 L51.5,344.1094 L51.5,344.5938 L51.5,347.5938 L43.5,347.5938 L43.0156,347.5938 L42.5,346.9688 L42.5,346.5938 L42.5,346.2188 L43.0156,345.5938 L43.5,345.5938 L43.5,345.5938 L43.5,339.5938 L43.5,339.5938 L43.0156,339.5938 L42.5,338.9688 L42.5,338.5938 L42.5,338.2188 L43.0156,337.5938 L43.5,337.5938 L51.5,337.5938 L51.5,340.5938 L51.5,341.0781 L50.875,341.5938 L50.5,341.5938 L50.125,341.5938 L49.5,341.0781 L49.5,340.5938 L49.5,339.5938 L45.5,339.5938 L45.5,341.5938 L46.5,341.5938 L46.5,341.1094 L46.5,341.1094 L47.125,340.5938 L47.5,340.5938 L47.875,340.5938 L48.5,341.1094 L48.5,341.5938 L48.5,343.5938 L48.5,344.0781 L47.875,344.5938 L47.875,344.5938 L47.5,344.5938 L47.125,344.5938 L46.5,344.0781 L46.5,344.0781 L46.5,343.5938 L45.5,343.5938 Z " fill="#000000"/><text fill="#000000" font-family="sans-serif" font-size="12" font-style="italic" lengthAdjust="spacing" textLength="44" x="83" y="339.957">«Entity»</text><text fill="#000000" font-family="sans-serif" font-size="12" lengthAdjust="spacing" textLength="88" x="61" y="355.0508">PaymentMethod</text><line style="stroke:#A80036;stroke-width:1.5;" x1="33" x2="151" y1="362.6875" y2="362.6875"/><line style="stroke:#A80036;stroke-width:1.5;" x1="33" x2="151" y1="370.6875" y2="370.6875"/><!--MD5=[a96594a83e2ecdc78cbf17c2ddf01934]
class Category--><rect codeLine="29" fill="#FEFECE" filter="url(#foroodvfcbypq)" height="56.1875" id="Category" style="stroke:#A80036;stroke-width:1.5;" width="81" x="1001.5" y="322.5"/><ellipse cx="1016.5" cy="342.5938" fill="#ADD1B2" rx="11" ry="11" style="stroke:#A80036;stroke-width:1.0;"/><path d="M1015,343.5938 L1015,345.5938 L1019,345.5938 L1019,344.5938 L1019,344.1094 L1019.625,343.5938 L1020,343.5938 L1020.375,343.5938 L1021,344.1094 L1021,344.5938 L1021,347.5938 L1013,347.5938 L1012.5156,347.5938 L1012,346.9688 L1012,346.5938 L1012,346.2188 L1012.5156,345.5938 L1013,345.5938 L1013,345.5938 L1013,339.5938 L1013,339.5938 L1012.5156,339.5938 L1012,338.9688 L1012,338.5938 L1012,338.2188 L1012.5156,337.5938 L1013,337.5938 L1021,337.5938 L1021,340.5938 L1021,341.0781 L1020.375,341.5938 L1020,341.5938 L1019.625,341.5938 L1019,341.0781 L1019,340.5938 L1019,339.5938 L1015,339.5938 L1015,341.5938 L1016,341.5938 L1016,341.1094 L1016,341.1094 L1016.625,340.5938 L1017,340.5938 L1017.375,340.5938 L1018,341.1094 L1018,341.5938 L1018,343.5938 L1018,344.0781 L1017.375,344.5938 L1017.375,344.5938 L1017,344.5938 L1016.625,344.5938 L1016,344.0781 L1016,344.0781 L1016,343.5938 L1015,343.5938 Z " fill="#000000"/><text fill="#000000" font-family="sans-serif" font-size="12" font-style="italic" lengthAdjust="spacing" textLength="44" x="1033" y="339.957">«Entity»</text><text fill="#000000" font-family="sans-serif" font-size="12" lengthAdjust="spacing" textLength="49" x="1030.5" y="355.0508">Category</text><line style="stroke:#A80036;stroke-width:1.5;" x1="1002.5" x2="1081.5" y1="362.6875" y2="362.6875"/><line style="stroke:#A80036;stroke-width:1.5;" x1="1002.5" x2="1081.5" y1="370.6875" y2="370.6875"/><!--MD5=[e43d2f6dd35fb875a2aa5977ef3cee18]
link NewProductOrderUI to NewProductOrderController--><path codeLine="33" d="M553,90.23 C553,110.25 553,139.2 553,160.59 " fill="none" id="NewProductOrderUI-to-NewProductOrderController" style="stroke:#A80036;stroke-width:1.0;stroke-dasharray:7.0,7.0;"/><polygon fill="#A80036" points="553,165.85,557,156.85,553,160.85,549,156.85,553,165.85" style="stroke:#A80036;stroke-width:1.0;"/><!--MD5=[51bce1aafda57a3a808c491da4882c12]
link NewProductOrderController to Category--><path codeLine="34" d="M645.1,195.39 C748.53,201.71 908.75,216.06 961,246 C989.89,262.55 1012.16,293.86 1025.97,317.73 " fill="none" id="NewProductOrderController-to-Category" style="stroke:#A80036;stroke-width:1.0;stroke-dasharray:7.0,7.0;"/><polygon fill="#A80036" points="1028.45,322.09,1027.4751,312.2895,1025.977,317.7444,1020.5221,316.2463,1028.45,322.09" style="stroke:#A80036;stroke-width:1.0;"/><!--MD5=[b4d9b51a5f64d1f550671911a18987c7]
link NewProductOrderController to PriceTable--><path codeLine="35" d="M638.46,214.09 C658.09,222.05 677.9,232.49 694,246 C716.87,265.18 733.74,294.9 744.24,317.58 " fill="none" id="NewProductOrderController-to-PriceTable" style="stroke:#A80036;stroke-width:1.0;stroke-dasharray:7.0,7.0;"/><polygon fill="#A80036" points="746.38,322.31,746.2856,312.4616,744.3056,317.7606,739.0066,315.7806,746.38,322.31" style="stroke:#A80036;stroke-width:1.0;"/><!--MD5=[54f88b286a6944b8d16eac4270945bd6]
link NewProductOrderController to Product--><path codeLine="36" d="M645.18,193.03 C699.91,198.15 768.46,211.76 820,246 C841.09,260.01 857.67,282.63 869.48,303.15 " fill="none" id="NewProductOrderController-to-Product" style="stroke:#A80036;stroke-width:1.0;stroke-dasharray:7.0,7.0;"/><polygon fill="#A80036" points="872.08,307.77,871.1433,297.9658,869.6239,303.4148,864.1749,301.8955,872.08,307.77" style="stroke:#A80036;stroke-width:1.0;"/><!--MD5=[f01d87ac276243ebf9f2d95e561ea93e]
link NewProductOrderController to SalesRegion--><path codeLine="37" d="M563.32,214.05 C575.55,241.35 596,286.99 609.73,317.65 " fill="none" id="NewProductOrderController-to-SalesRegion" style="stroke:#A80036;stroke-width:1.0;stroke-dasharray:7.0,7.0;"/><polygon fill="#A80036" points="611.88,322.44,611.8485,312.5912,609.8347,317.8775,604.5485,315.8636,611.88,322.44" style="stroke:#A80036;stroke-width:1.0;"/><!--MD5=[747bf7bc1f3b68740cd429a378310039]
link NewProductOrderController to PriceItem--><path codeLine="38" d="M466.6,214.15 C447.22,222.08 427.76,232.49 412,246 C389.62,265.18 373.62,294.9 363.8,317.58 " fill="none" id="NewProductOrderController-to-PriceItem" style="stroke:#A80036;stroke-width:1.0;stroke-dasharray:7.0,7.0;"/><polygon fill="#A80036" points="361.79,322.31,368.9867,315.5864,363.7424,317.7069,361.6218,312.4626,361.79,322.31" style="stroke:#A80036;stroke-width:1.0;"/><!--MD5=[84797d4bcd7e87003f2bff7ab9c036be]
link NewProductOrderController to ShoppingCart--><path codeLine="39" d="M542.82,214.05 C530.76,241.35 510.61,286.99 497.07,317.65 " fill="none" id="NewProductOrderController-to-ShoppingCart" style="stroke:#A80036;stroke-width:1.0;stroke-dasharray:7.0,7.0;"/><polygon fill="#A80036" points="494.95,322.44,502.2394,315.8169,496.9661,317.8645,494.9185,312.5912,494.95,322.44" style="stroke:#A80036;stroke-width:1.0;"/><!--MD5=[7c11bc69542cb6b834b9b58245ffacd0]
link NewProductOrderController to Costumer--><path codeLine="40" d="M460.78,202.59 C397.29,212.03 319.76,226.91 293,246 C271.03,261.67 255.47,287.79 245.44,309.86 " fill="none" id="NewProductOrderController-to-Costumer" style="stroke:#A80036;stroke-width:1.0;stroke-dasharray:7.0,7.0;"/><polygon fill="#A80036" points="243.38,314.5,250.6867,307.896,245.408,309.9298,243.3743,304.6511,243.38,314.5" style="stroke:#A80036;stroke-width:1.0;"/><!--MD5=[7c261b176f1fce9953813236ad8473a4]
link NewProductOrderController to PaymentMethod--><path codeLine="41" d="M460.75,196.19 C363.47,203.06 217.78,217.76 170,246 C141.85,262.64 120.53,293.73 107.35,317.52 " fill="none" id="NewProductOrderController-to-PaymentMethod" style="stroke:#A80036;stroke-width:1.0;stroke-dasharray:7.0,7.0;"/><polygon fill="#A80036" points="104.82,322.17,112.6262,316.1648,107.2033,317.7745,105.5935,312.3516,104.82,322.17" style="stroke:#A80036;stroke-width:1.0;"/><!--MD5=[085a2d616fe058b624ef0e35dc90fa51]
@startuml
skinparam classAttributeIconSize 0

package UI {
class NewProductOrderUI {
}
}

package Controller{
class NewProductOrderController {

}
}

package Order <<Aggregate>>{

entity Product <<Entity>> <<Root>> {
- ProductDescription
}
entity PriceTable <<Entity>>
entity SalesRegion <<Entity>>
entity ShoppingCart <<Entity>>
entity PriceItem <<Entity>>
entity Costumer <<Entity>> <<Root>>
entity PaymentMethod <<Entity>>
}


package Category <<Aggregate>> {
    entity Category <<Entity>>

}

NewProductOrderUI ..> NewProductOrderController
NewProductOrderController ..> Category
NewProductOrderController ..>PriceTable
NewProductOrderController ..> Product
NewProductOrderController ..> SalesRegion
NewProductOrderController ..> PriceItem
NewProductOrderController ..> ShoppingCart
NewProductOrderController ..>Costumer
NewProductOrderController ..> PaymentMethod

@enduml

PlantUML version 1.2022.1(Tue Feb 01 18:19:58 GMT 2022)
(GPL source distribution)
Java Runtime: OpenJDK Runtime Environment
JVM: OpenJDK 64-Bit Server VM
Default Encoding: Cp1252
Language: pt
Country: PT
--></g></svg>