<?xml version="1.0" encoding="UTF-8" standalone="no"?><svg xmlns="http://www.w3.org/2000/svg" xmlns:xlink="http://www.w3.org/1999/xlink" contentStyleType="text/css" height="491.4px" preserveAspectRatio="none" style="width:438px;height:491px;background:#FFFFFF;" version="1.1" viewBox="0 0 438 491" width="438.2px" zoomAndPan="magnify"><defs/><g><rect fill="#FFFFFF" height="356.9836" style="stroke:#181818;stroke-width:0.6999999999999998;" width="7" x="40.25" y="64.8266"/><rect fill="#FFFFFF" height="21.2461" style="stroke:#181818;stroke-width:0.6999999999999998;" width="7" x="401.45" y="80.4727"/><rect fill="#FFFFFF" height="38.9922" style="stroke:#181818;stroke-width:0.6999999999999998;" width="7" x="401.45" y="122.9648"/><rect fill="#FFFFFF" height="21.2461" style="stroke:#181818;stroke-width:0.6999999999999998;" width="7" x="401.45" y="183.2031"/><rect fill="#FFFFFF" height="21.2461" style="stroke:#181818;stroke-width:0.6999999999999998;" width="7" x="401.45" y="225.6953"/><rect fill="#FFFFFF" height="21.2461" style="stroke:#181818;stroke-width:0.6999999999999998;" width="7" x="401.45" y="268.1875"/><rect fill="#FFFFFF" height="26.1461" style="stroke:#181818;stroke-width:0.6999999999999998;" width="7" x="401.45" y="310.6797"/><rect fill="#FFFFFF" height="21.2461" style="stroke:#181818;stroke-width:0.6999999999999998;" width="7" x="401.45" y="358.0719"/><rect fill="#FFFFFF" height="21.2461" style="stroke:#181818;stroke-width:0.6999999999999998;" width="7" x="401.45" y="400.5641"/><rect height="182.8148" style="stroke:#000000;stroke-width:1.0499999999999998;fill:none;" width="427.35" x="7" y="133.4648"/><line style="stroke:#181818;stroke-width:0.3499999999999999;fill:none;stroke-dasharray:5.0,5.0;" x1="43.4" x2="43.4" y1="57.8266" y2="434.4102"/><line style="stroke:#181818;stroke-width:0.3499999999999999;fill:none;stroke-dasharray:5.0,5.0;" x1="404.95" x2="404.95" y1="57.8266" y2="434.4102"/><text fill="#000000" font-family="sans-serif" font-size="9.8" lengthAdjust="spacing" textLength="55.3" x="14" y="55.6732">Sales Clerck</text><ellipse cx="43.75" cy="9.45" fill="#E2E2F0" rx="5.6" ry="5.6" style="stroke:#181818;stroke-width:0.3499999999999999;"/><path d="M43.75,15.05 L43.75,33.95 M34.65,20.65 L52.85,20.65 M43.75,33.95 L34.65,44.45 M43.75,33.95 L52.85,44.45 " fill="none" style="stroke:#181818;stroke-width:0.3499999999999999;"/><text fill="#000000" font-family="sans-serif" font-size="9.8" lengthAdjust="spacing" textLength="55.3" x="14" y="443.8834">Sales Clerck</text><ellipse cx="43.75" cy="451.9867" fill="#E2E2F0" rx="5.6" ry="5.6" style="stroke:#181818;stroke-width:0.3499999999999999;"/><path d="M43.75,457.5867 L43.75,476.4867 M34.65,463.1867 L52.85,463.1867 M43.75,476.4867 L34.65,486.9867 M43.75,476.4867 L52.85,486.9867 " fill="none" style="stroke:#181818;stroke-width:0.3499999999999999;"/><rect fill="#E2E2F0" height="22.1266" rx="1.75" ry="1.75" style="stroke:#181818;stroke-width:0.3499999999999999;" width="44.8" x="382.55" y="35"/><text fill="#000000" font-family="sans-serif" font-size="9.8" lengthAdjust="spacing" textLength="35" x="387.45" y="50.0732">:System</text><rect fill="#E2E2F0" height="22.1266" rx="1.75" ry="1.75" style="stroke:#181818;stroke-width:0.3499999999999999;" width="44.8" x="382.55" y="433.7102"/><text fill="#000000" font-family="sans-serif" font-size="9.8" lengthAdjust="spacing" textLength="35" x="387.45" y="448.7834">:System</text><rect fill="#FFFFFF" height="356.9836" style="stroke:#181818;stroke-width:0.6999999999999998;" width="7" x="40.25" y="64.8266"/><rect fill="#FFFFFF" height="21.2461" style="stroke:#181818;stroke-width:0.6999999999999998;" width="7" x="401.45" y="80.4727"/><rect fill="#FFFFFF" height="38.9922" style="stroke:#181818;stroke-width:0.6999999999999998;" width="7" x="401.45" y="122.9648"/><rect fill="#FFFFFF" height="21.2461" style="stroke:#181818;stroke-width:0.6999999999999998;" width="7" x="401.45" y="183.2031"/><rect fill="#FFFFFF" height="21.2461" style="stroke:#181818;stroke-width:0.6999999999999998;" width="7" x="401.45" y="225.6953"/><rect fill="#FFFFFF" height="21.2461" style="stroke:#181818;stroke-width:0.6999999999999998;" width="7" x="401.45" y="268.1875"/><rect fill="#FFFFFF" height="26.1461" style="stroke:#181818;stroke-width:0.6999999999999998;" width="7" x="401.45" y="310.6797"/><rect fill="#FFFFFF" height="21.2461" style="stroke:#181818;stroke-width:0.6999999999999998;" width="7" x="401.45" y="358.0719"/><rect fill="#FFFFFF" height="21.2461" style="stroke:#181818;stroke-width:0.6999999999999998;" width="7" x="401.45" y="400.5641"/><polygon fill="#181818" points="393.05,77.6727,400.05,80.4727,393.05,83.2727,395.85,80.4727" style="stroke:#181818;stroke-width:0.6999999999999998;"/><line style="stroke:#181818;stroke-width:0.6999999999999998;" x1="47.25" x2="397.25" y1="80.4727" y2="80.4727"/><text fill="#000000" font-family="sans-serif" font-size="9.1" font-weight="bold" lengthAdjust="spacing" textLength="4.9" x="52.15" y="77.0731">1</text><text fill="#000000" font-family="sans-serif" font-size="9.1" lengthAdjust="spacing" textLength="226.8" x="59.85" y="77.0731">starts to create new product's order for a given costumer</text><polygon fill="#181818" points="54.95,98.9187,47.95,101.7187,54.95,104.5187,52.15,101.7187" style="stroke:#181818;stroke-width:0.6999999999999998;"/><line style="stroke:#181818;stroke-width:0.6999999999999998;stroke-dasharray:2.0,2.0;" x1="50.75" x2="404.25" y1="101.7187" y2="101.7187"/><text fill="#000000" font-family="sans-serif" font-size="9.1" font-weight="bold" lengthAdjust="spacing" textLength="4.9" x="59.15" y="98.3192">2</text><text fill="#000000" font-family="sans-serif" font-size="9.1" lengthAdjust="spacing" textLength="95.9" x="66.85" y="98.3192">shows list of costumers</text><polygon fill="#181818" points="393.05,120.1648,400.05,122.9648,393.05,125.7648,395.85,122.9648" style="stroke:#181818;stroke-width:0.6999999999999998;"/><line style="stroke:#181818;stroke-width:0.6999999999999998;" x1="47.25" x2="397.25" y1="122.9648" y2="122.9648"/><text fill="#000000" font-family="sans-serif" font-size="9.1" font-weight="bold" lengthAdjust="spacing" textLength="4.9" x="52.15" y="119.5653">3</text><text fill="#000000" font-family="sans-serif" font-size="9.1" lengthAdjust="spacing" textLength="126.7" x="59.85" y="119.5653">types the chosen costumer's id</text><path d="M7,133.4648 L58.1,133.4648 L58.1,139.3109 L51.1,146.3109 L7,146.3109 L7,133.4648 " fill="#EEEEEE" style="stroke:#000000;stroke-width:1.0499999999999998;"/><rect fill="none" height="182.8148" style="stroke:#000000;stroke-width:1.0499999999999998;" width="427.35" x="7" y="133.4648"/><text fill="#000000" font-family="sans-serif" font-size="9.1" font-weight="bold" lengthAdjust="spacing" textLength="19.6" x="17.5" y="143.6114">loop</text><text fill="#000000" font-family="sans-serif" font-size="7.7" font-weight="bold" lengthAdjust="spacing" textLength="43.4" x="68.6" y="142.8581">[until exits]</text><polygon fill="#181818" points="54.95,159.157,47.95,161.957,54.95,164.757,52.15,161.957" style="stroke:#181818;stroke-width:0.6999999999999998;"/><line style="stroke:#181818;stroke-width:0.6999999999999998;stroke-dasharray:2.0,2.0;" x1="50.75" x2="404.25" y1="161.957" y2="161.957"/><text fill="#000000" font-family="sans-serif" font-size="9.1" font-weight="bold" lengthAdjust="spacing" textLength="4.9" x="59.15" y="158.5575">4</text><text fill="#000000" font-family="sans-serif" font-size="9.1" lengthAdjust="spacing" textLength="254.8" x="66.85" y="158.5575">asks for a field(category,description, brand..)to filter the catalog</text><polygon fill="#181818" points="393.05,180.4031,400.05,183.2031,393.05,186.0031,395.85,183.2031" style="stroke:#181818;stroke-width:0.6999999999999998;"/><line style="stroke:#181818;stroke-width:0.6999999999999998;" x1="47.25" x2="397.25" y1="183.2031" y2="183.2031"/><text fill="#000000" font-family="sans-serif" font-size="9.1" font-weight="bold" lengthAdjust="spacing" textLength="4.9" x="52.15" y="179.8036">5</text><text fill="#000000" font-family="sans-serif" font-size="9.1" lengthAdjust="spacing" textLength="56.7" x="59.85" y="179.8036">types the field</text><polygon fill="#181818" points="54.95,201.6492,47.95,204.4492,54.95,207.2492,52.15,204.4492" style="stroke:#181818;stroke-width:0.6999999999999998;"/><line style="stroke:#181818;stroke-width:0.6999999999999998;stroke-dasharray:2.0,2.0;" x1="50.75" x2="404.25" y1="204.4492" y2="204.4492"/><text fill="#000000" font-family="sans-serif" font-size="9.1" font-weight="bold" lengthAdjust="spacing" textLength="4.9" x="59.15" y="201.0497">6</text><text fill="#000000" font-family="sans-serif" font-size="9.1" lengthAdjust="spacing" textLength="329.7" x="66.85" y="201.0497">shows list of products and asks to choose how to order the list (by name or price)</text><polygon fill="#181818" points="393.05,222.8953,400.05,225.6953,393.05,228.4953,395.85,225.6953" style="stroke:#181818;stroke-width:0.6999999999999998;"/><line style="stroke:#181818;stroke-width:0.6999999999999998;" x1="47.25" x2="397.25" y1="225.6953" y2="225.6953"/><text fill="#000000" font-family="sans-serif" font-size="9.1" font-weight="bold" lengthAdjust="spacing" textLength="4.9" x="52.15" y="222.2958">7</text><text fill="#000000" font-family="sans-serif" font-size="9.1" lengthAdjust="spacing" textLength="86.8" x="59.85" y="222.2958">chooses how to order</text><polygon fill="#181818" points="54.95,244.1414,47.95,246.9414,54.95,249.7414,52.15,246.9414" style="stroke:#181818;stroke-width:0.6999999999999998;"/><line style="stroke:#181818;stroke-width:0.6999999999999998;stroke-dasharray:2.0,2.0;" x1="50.75" x2="404.25" y1="246.9414" y2="246.9414"/><text fill="#000000" font-family="sans-serif" font-size="9.1" font-weight="bold" lengthAdjust="spacing" textLength="4.9" x="59.15" y="243.5419">8</text><text fill="#000000" font-family="sans-serif" font-size="9.1" lengthAdjust="spacing" textLength="165.9" x="66.85" y="243.5419">shows list of products and asks for the id</text><polygon fill="#181818" points="393.05,265.3875,400.05,268.1875,393.05,270.9875,395.85,268.1875" style="stroke:#181818;stroke-width:0.6999999999999998;"/><line style="stroke:#181818;stroke-width:0.6999999999999998;" x1="47.25" x2="397.25" y1="268.1875" y2="268.1875"/><text fill="#000000" font-family="sans-serif" font-size="9.1" font-weight="bold" lengthAdjust="spacing" textLength="4.9" x="52.15" y="264.788">9</text><text fill="#000000" font-family="sans-serif" font-size="9.1" lengthAdjust="spacing" textLength="119" x="59.85" y="264.788">types the chosen product's id</text><polygon fill="#181818" points="54.95,286.6336,47.95,289.4336,54.95,292.2336,52.15,289.4336" style="stroke:#181818;stroke-width:0.6999999999999998;"/><line style="stroke:#181818;stroke-width:0.6999999999999998;stroke-dasharray:2.0,2.0;" x1="50.75" x2="404.25" y1="289.4336" y2="289.4336"/><text fill="#000000" font-family="sans-serif" font-size="9.1" font-weight="bold" lengthAdjust="spacing" textLength="9.8" x="59.15" y="286.0341">10</text><text fill="#000000" font-family="sans-serif" font-size="9.1" lengthAdjust="spacing" textLength="84.7" x="71.75" y="286.0341">creates the lineOrder</text><polygon fill="#181818" points="393.05,307.8797,400.05,310.6797,393.05,313.4797,395.85,310.6797" style="stroke:#181818;stroke-width:0.6999999999999998;"/><line style="stroke:#181818;stroke-width:0.6999999999999998;" x1="47.25" x2="397.25" y1="310.6797" y2="310.6797"/><text fill="#000000" font-family="sans-serif" font-size="9.1" font-weight="bold" lengthAdjust="spacing" textLength="9.8" x="52.15" y="307.2802">11</text><text fill="#000000" font-family="sans-serif" font-size="9.1" lengthAdjust="spacing" textLength="117.6" x="64.75" y="307.2802">adds product to the lineOrder</text><polygon fill="#181818" points="54.95,334.0258,47.95,336.8258,54.95,339.6258,52.15,336.8258" style="stroke:#181818;stroke-width:0.6999999999999998;"/><line style="stroke:#181818;stroke-width:0.6999999999999998;stroke-dasharray:2.0,2.0;" x1="50.75" x2="404.25" y1="336.8258" y2="336.8258"/><text fill="#000000" font-family="sans-serif" font-size="9.1" font-weight="bold" lengthAdjust="spacing" textLength="9.8" x="59.15" y="333.4263">12</text><text fill="#000000" font-family="sans-serif" font-size="9.1" lengthAdjust="spacing" textLength="236.6" x="71.75" y="333.4263">shows price of the order with the shipping and sales region</text><polygon fill="#181818" points="393.05,355.2719,400.05,358.0719,393.05,360.8719,395.85,358.0719" style="stroke:#181818;stroke-width:0.6999999999999998;"/><line style="stroke:#181818;stroke-width:0.6999999999999998;" x1="47.25" x2="397.25" y1="358.0719" y2="358.0719"/><text fill="#000000" font-family="sans-serif" font-size="9.1" font-weight="bold" lengthAdjust="spacing" textLength="9.8" x="52.15" y="354.6724">13</text><text fill="#000000" font-family="sans-serif" font-size="9.1" lengthAdjust="spacing" textLength="105" x="64.75" y="354.6724">chooses payment method</text><polygon fill="#181818" points="54.95,376.518,47.95,379.318,54.95,382.118,52.15,379.318" style="stroke:#181818;stroke-width:0.6999999999999998;"/><line style="stroke:#181818;stroke-width:0.6999999999999998;stroke-dasharray:2.0,2.0;" x1="50.75" x2="404.25" y1="379.318" y2="379.318"/><text fill="#000000" font-family="sans-serif" font-size="9.1" font-weight="bold" lengthAdjust="spacing" textLength="9.8" x="59.15" y="375.9185">14</text><text fill="#000000" font-family="sans-serif" font-size="9.1" lengthAdjust="spacing" textLength="165.2" x="71.75" y="375.9185">shows all data and requests confirmation</text><polygon fill="#181818" points="393.05,397.7641,400.05,400.5641,393.05,403.3641,395.85,400.5641" style="stroke:#181818;stroke-width:0.6999999999999998;"/><line style="stroke:#181818;stroke-width:0.6999999999999998;" x1="47.25" x2="397.25" y1="400.5641" y2="400.5641"/><text fill="#000000" font-family="sans-serif" font-size="9.1" font-weight="bold" lengthAdjust="spacing" textLength="9.8" x="52.15" y="397.1646">15</text><text fill="#000000" font-family="sans-serif" font-size="9.1" lengthAdjust="spacing" textLength="70" x="64.75" y="397.1646">confirms the data</text><polygon fill="#181818" points="51.45,419.0102,44.45,421.8102,51.45,424.6102,48.65,421.8102" style="stroke:#181818;stroke-width:0.6999999999999998;"/><line style="stroke:#181818;stroke-width:0.6999999999999998;stroke-dasharray:2.0,2.0;" x1="47.25" x2="404.25" y1="421.8102" y2="421.8102"/><text fill="#000000" font-family="sans-serif" font-size="9.1" font-weight="bold" lengthAdjust="spacing" textLength="9.8" x="55.65" y="418.4106">16</text><text fill="#000000" font-family="sans-serif" font-size="9.1" lengthAdjust="spacing" textLength="106.4" x="68.25" y="418.4106">informs operation success</text><!--MD5=[abe621e219c9074c79a0403a31daa88a]
@startuml
autonumber
actor "Sales Clerck" as SC

activate SC
SC -> ":System" : starts to create new product's order for a given costumer
activate ":System"

":System" - -> SC : shows list of costumers
deactivate ":System"

SC -> ":System" : types the chosen costumer's id
activate ":System"
loop until exits
":System" - -> SC : asks for a field(category,description, brand..)to filter the catalog
deactivate ":System"

SC -> ":System" : types the field
activate ":System"

":System" - -> SC : shows list of products and asks to choose how to order the list (by name or price)
deactivate ":System"

SC -> ":System" : chooses how to order
activate ":System"

":System" - -> SC : shows list of products and asks for the id
deactivate ":System"

SC -> ":System" : types the chosen product's id

activate ":System"

":System" - -> SC : creates the lineOrder
deactivate ":System"

SC -> ":System" : adds product to the lineOrder

activate ":System"
end loop;

":System" - -> SC : shows price of the order with the shipping and sales region

deactivate ":System"
SC -> ":System" : chooses payment method
activate ":System"

":System" - -> SC :shows all data and requests confirmation

deactivate ":System"

SC -> ":System" :confirms the data
activate ":System"

":System" - -> SC : informs operation success
deactivate ":System"
deactivate SC

@enduml

PlantUML version 1.2022.4(Sat Apr 09 14:29:17 BST 2022)
(GPL source distribution)
Java Runtime: OpenJDK Runtime Environment
JVM: OpenJDK 64-Bit Server VM
Default Encoding: Cp1252
Language: pt
Country: PT
--></g></svg>