<?xml version="1.0" encoding="UTF-8" standalone="no"?><svg xmlns="http://www.w3.org/2000/svg" xmlns:xlink="http://www.w3.org/1999/xlink" contentStyleType="text/css" height="319px" preserveAspectRatio="none" style="width:486px;height:319px;background:#FFFFFF;" version="1.1" viewBox="0 0 486 319" width="486px" zoomAndPan="magnify"><defs/><g><!--MD5=[70a5b9b99ed0ca4d6e10c9831421c77d]
class NewProductOrderUI--><g id="elem_NewProductOrderUI"><rect codeLine="4" fill="#F1F1F1" height="38.1563" id="NewProductOrderUI" rx="1.25" ry="1.25" style="stroke:#181818;stroke-width:0.25;" width="78" x="381.5" y="3.5"/><ellipse cx="389" cy="14.1758" fill="#ADD1B2" rx="5.5" ry="5.5" style="stroke:#181818;stroke-width:0.5;"/><path d="M390,12.4258 Q390.1016,12.1758 390.2188,12.0508 Q390.3359,11.9258 390.4688,11.9258 Q390.7031,11.9258 390.8516,12.0664 Q391,12.207 391,12.5352 L391,13.3164 Q391,13.6445 390.8594,13.7852 Q390.7188,13.9258 390.5,13.9258 Q390.3047,13.9258 390.1797,13.8398 Q390.0547,13.7539 390,13.5273 Q389.9766,13.3711 389.8906,13.2852 Q389.7344,13.1211 389.4531,13.0273 Q389.1719,12.9258 388.8906,12.9258 Q388.5391,12.9258 388.2422,13.0664 Q387.9531,13.207 387.7266,13.5195 Q387.5,13.832 387.5,14.2617 L387.5,14.7227 Q387.5,15.2383 387.9219,15.582 Q388.3438,15.9258 389.0938,15.9258 Q389.5391,15.9258 389.8516,15.8242 Q390.0313,15.7695 390.2344,15.5898 Q390.3672,15.4883 390.4375,15.457 Q390.5078,15.4258 390.5938,15.4258 Q390.7578,15.4258 390.875,15.5586 Q391,15.6836 391,15.8633 Q391,16.0352 390.8281,16.2383 Q390.5781,16.5352 390.1797,16.6992 Q389.6563,16.9258 389.0156,16.9258 Q388.2656,16.9258 387.6641,16.6289 Q387.1797,16.3945 386.8359,15.8867 Q386.5,15.3789 386.5,14.7773 L386.5,14.2305 Q386.5,13.6055 386.7969,13.0586 Q387.1016,12.5117 387.625,12.2227 Q388.1563,11.9258 388.75,11.9258 Q389.1094,11.9258 389.4219,12.0508 Q389.7344,12.1758 390,12.4258 Z " fill="#000000"/><text fill="#000000" font-family="sans-serif" font-size="6" font-style="italic" lengthAdjust="spacing" textLength="41" x="406.5" y="12.2285">«presentation»</text><text fill="#000000" font-family="sans-serif" font-size="7" lengthAdjust="spacing" textLength="62" x="396" y="20.8135">NewProductOrderUI</text><line style="stroke:#181818;stroke-width:0.25;" x1="382" x2="459" y1="24.8516" y2="24.8516"/><line style="stroke:#181818;stroke-width:0.25;" x1="382" x2="459" y1="28.8516" y2="28.8516"/><text fill="#000000" font-family="sans-serif" font-size="7" lengthAdjust="spacing" textLength="30" x="384.5" y="38.1182">doShow()</text></g><!--MD5=[05842477dc879a3c5fb6b834a038d36c]
class NewProductOrderController--><g id="elem_NewProductOrderController"><rect codeLine="7" fill="#F1F1F1" height="38.1563" id="NewProductOrderController" rx="1.25" ry="1.25" style="stroke:#181818;stroke-width:0.25;" width="103" x="325.5" y="80.5"/><ellipse cx="333" cy="91.1758" fill="#ADD1B2" rx="5.5" ry="5.5" style="stroke:#181818;stroke-width:0.5;"/><path d="M334,89.4258 Q334.1016,89.1758 334.2188,89.0508 Q334.3359,88.9258 334.4688,88.9258 Q334.7031,88.9258 334.8516,89.0664 Q335,89.207 335,89.5352 L335,90.3164 Q335,90.6445 334.8594,90.7852 Q334.7188,90.9258 334.5,90.9258 Q334.3047,90.9258 334.1797,90.8398 Q334.0547,90.7539 334,90.5273 Q333.9766,90.3711 333.8906,90.2852 Q333.7344,90.1211 333.4531,90.0273 Q333.1719,89.9258 332.8906,89.9258 Q332.5391,89.9258 332.2422,90.0664 Q331.9531,90.207 331.7266,90.5195 Q331.5,90.832 331.5,91.2617 L331.5,91.7227 Q331.5,92.2383 331.9219,92.582 Q332.3438,92.9258 333.0938,92.9258 Q333.5391,92.9258 333.8516,92.8242 Q334.0313,92.7695 334.2344,92.5898 Q334.3672,92.4883 334.4375,92.457 Q334.5078,92.4258 334.5938,92.4258 Q334.7578,92.4258 334.875,92.5586 Q335,92.6836 335,92.8633 Q335,93.0352 334.8281,93.2383 Q334.5781,93.5352 334.1797,93.6992 Q333.6563,93.9258 333.0156,93.9258 Q332.2656,93.9258 331.6641,93.6289 Q331.1797,93.3945 330.8359,92.8867 Q330.5,92.3789 330.5,91.7773 L330.5,91.2305 Q330.5,90.6055 330.7969,90.0586 Q331.1016,89.5117 331.625,89.2227 Q332.1563,88.9258 332.75,88.9258 Q333.1094,88.9258 333.4219,89.0508 Q333.7344,89.1758 334,89.4258 Z " fill="#000000"/><text fill="#000000" font-family="sans-serif" font-size="6" font-style="italic" lengthAdjust="spacing" textLength="37" x="365" y="89.2285">«application»</text><text fill="#000000" font-family="sans-serif" font-size="7" lengthAdjust="spacing" textLength="87" x="340" y="97.8135">NewProductOrderController</text><line style="stroke:#181818;stroke-width:0.25;" x1="326" x2="428" y1="101.8516" y2="101.8516"/><line style="stroke:#181818;stroke-width:0.25;" x1="326" x2="428" y1="105.8516" y2="105.8516"/><text fill="#000000" font-family="sans-serif" font-size="7" lengthAdjust="spacing" textLength="45.5" x="328.5" y="115.1182">createOrder ()</text></g><!--MD5=[708e328039b60d50c6285936843ac334]
class OrderRepository--><g id="elem_OrderRepository"><rect codeLine="8" fill="#F1F1F1" height="46.9609" id="OrderRepository" rx="1.25" ry="1.25" style="stroke:#181818;stroke-width:0.25;" width="68.5" x="357.25" y="170.75"/><ellipse cx="364.75" cy="181.4258" fill="#ADD1B2" rx="5.5" ry="5.5" style="stroke:#181818;stroke-width:0.5;"/><path d="M365.75,179.6758 Q365.8516,179.4258 365.9688,179.3008 Q366.0859,179.1758 366.2188,179.1758 Q366.4531,179.1758 366.6016,179.3164 Q366.75,179.457 366.75,179.7852 L366.75,180.5664 Q366.75,180.8945 366.6094,181.0352 Q366.4688,181.1758 366.25,181.1758 Q366.0547,181.1758 365.9297,181.0898 Q365.8047,181.0039 365.75,180.7773 Q365.7266,180.6211 365.6406,180.5352 Q365.4844,180.3711 365.2031,180.2773 Q364.9219,180.1758 364.6406,180.1758 Q364.2891,180.1758 363.9922,180.3164 Q363.7031,180.457 363.4766,180.7695 Q363.25,181.082 363.25,181.5117 L363.25,181.9727 Q363.25,182.4883 363.6719,182.832 Q364.0938,183.1758 364.8438,183.1758 Q365.2891,183.1758 365.6016,183.0742 Q365.7813,183.0195 365.9844,182.8398 Q366.1172,182.7383 366.1875,182.707 Q366.2578,182.6758 366.3438,182.6758 Q366.5078,182.6758 366.625,182.8086 Q366.75,182.9336 366.75,183.1133 Q366.75,183.2852 366.5781,183.4883 Q366.3281,183.7852 365.9297,183.9492 Q365.4063,184.1758 364.7656,184.1758 Q364.0156,184.1758 363.4141,183.8789 Q362.9297,183.6445 362.5859,183.1367 Q362.25,182.6289 362.25,182.0273 L362.25,181.4805 Q362.25,180.8555 362.5469,180.3086 Q362.8516,179.7617 363.375,179.4727 Q363.9063,179.1758 364.5,179.1758 Q364.8594,179.1758 365.1719,179.3008 Q365.4844,179.4258 365.75,179.6758 Z " fill="#000000"/><text fill="#000000" font-family="sans-serif" font-size="6" font-style="italic" lengthAdjust="spacing" textLength="34" x="381" y="179.4785">«repository»</text><text fill="#000000" font-family="sans-serif" font-size="7" lengthAdjust="spacing" textLength="52.5" x="371.75" y="188.0635">OrderRepository</text><line style="stroke:#181818;stroke-width:0.25;" x1="357.75" x2="425.25" y1="192.1016" y2="192.1016"/><line style="stroke:#181818;stroke-width:0.25;" x1="357.75" x2="425.25" y1="196.1016" y2="196.1016"/><text fill="#000000" font-family="sans-serif" font-size="7" lengthAdjust="spacing" textLength="37" x="360.25" y="205.3682">save(order)</text><text fill="#000000" font-family="sans-serif" font-size="7" lengthAdjust="spacing" textLength="55" x="360.25" y="214.1729">findById(OrderID)</text></g><!--MD5=[60885691ff61b259e8da5f4ba12b8b0f]
class ViewCatalogController--><g id="elem_ViewCatalogController"><rect codeLine="9" fill="#F1F1F1" height="73.375" id="ViewCatalogController" rx="1.25" ry="1.25" style="stroke:#181818;stroke-width:0.25;" width="142.5" x="197.25" y="157.5"/><ellipse cx="231.375" cy="168.1758" fill="#ADD1B2" rx="5.5" ry="5.5" style="stroke:#181818;stroke-width:0.5;"/><path d="M232.375,166.4258 Q232.4766,166.1758 232.5938,166.0508 Q232.7109,165.9258 232.8438,165.9258 Q233.0781,165.9258 233.2266,166.0664 Q233.375,166.207 233.375,166.5352 L233.375,167.3164 Q233.375,167.6445 233.2344,167.7852 Q233.0938,167.9258 232.875,167.9258 Q232.6797,167.9258 232.5547,167.8398 Q232.4297,167.7539 232.375,167.5273 Q232.3516,167.3711 232.2656,167.2852 Q232.1094,167.1211 231.8281,167.0273 Q231.5469,166.9258 231.2656,166.9258 Q230.9141,166.9258 230.6172,167.0664 Q230.3281,167.207 230.1016,167.5195 Q229.875,167.832 229.875,168.2617 L229.875,168.7227 Q229.875,169.2383 230.2969,169.582 Q230.7188,169.9258 231.4688,169.9258 Q231.9141,169.9258 232.2266,169.8242 Q232.4063,169.7695 232.6094,169.5898 Q232.7422,169.4883 232.8125,169.457 Q232.8828,169.4258 232.9688,169.4258 Q233.1328,169.4258 233.25,169.5586 Q233.375,169.6836 233.375,169.8633 Q233.375,170.0352 233.2031,170.2383 Q232.9531,170.5352 232.5547,170.6992 Q232.0313,170.9258 231.3906,170.9258 Q230.6406,170.9258 230.0391,170.6289 Q229.5547,170.3945 229.2109,169.8867 Q228.875,169.3789 228.875,168.7773 L228.875,168.2305 Q228.875,167.6055 229.1719,167.0586 Q229.4766,166.5117 230,166.2227 Q230.5313,165.9258 231.125,165.9258 Q231.4844,165.9258 231.7969,166.0508 Q232.1094,166.1758 232.375,166.4258 Z " fill="#000000"/><text fill="#000000" font-family="sans-serif" font-size="6" font-style="italic" lengthAdjust="spacing" textLength="37" x="258.125" y="166.2285">«application»</text><text fill="#000000" font-family="sans-serif" font-size="7" lengthAdjust="spacing" textLength="70" x="241.625" y="174.8135">ViewCatalogController</text><line style="stroke:#181818;stroke-width:0.25;" x1="197.75" x2="339.25" y1="178.8516" y2="178.8516"/><line style="stroke:#181818;stroke-width:0.25;" x1="197.75" x2="339.25" y1="182.8516" y2="182.8516"/><text fill="#000000" font-family="sans-serif" font-size="7" lengthAdjust="spacing" textLength="87" x="200.25" y="192.1182">getProductByBrand( brand)</text><text fill="#000000" font-family="sans-serif" font-size="7" lengthAdjust="spacing" textLength="106" x="200.25" y="200.9229">getProductByCategory( category)</text><text fill="#000000" font-family="sans-serif" font-size="7" lengthAdjust="spacing" textLength="136.5" x="200.25" y="209.7275">getProductByDescription( shortDescription)</text><text fill="#000000" font-family="sans-serif" font-size="7" lengthAdjust="spacing" textLength="78" x="200.25" y="218.5322">sortByPrice( productList)</text><text fill="#000000" font-family="sans-serif" font-size="7" lengthAdjust="spacing" textLength="97.5" x="200.25" y="227.3369">sortByDescription( productList)</text></g><!--MD5=[36e65ff18b6f5d58aed32f4733db2ea9]
class ProductSorter--><g id="elem_ProductSorter"><rect codeLine="11" fill="#F1F1F1" height="41.6094" id="ProductSorter" rx="1.25" ry="1.25" style="stroke:#181818;stroke-width:0.25;" width="84" x="3.5" y="272"/><ellipse cx="21.8" cy="280" fill="#ADD1B2" rx="5.5" ry="5.5" style="stroke:#181818;stroke-width:0.5;"/><path d="M22.8,278.25 Q22.9016,278 23.0188,277.875 Q23.1359,277.75 23.2688,277.75 Q23.5031,277.75 23.6516,277.8906 Q23.8,278.0313 23.8,278.3594 L23.8,279.1406 Q23.8,279.4688 23.6594,279.6094 Q23.5188,279.75 23.3,279.75 Q23.1047,279.75 22.9797,279.6641 Q22.8547,279.5781 22.8,279.3516 Q22.7766,279.1953 22.6906,279.1094 Q22.5344,278.9453 22.2531,278.8516 Q21.9719,278.75 21.6906,278.75 Q21.3391,278.75 21.0422,278.8906 Q20.7531,279.0313 20.5266,279.3438 Q20.3,279.6563 20.3,280.0859 L20.3,280.5469 Q20.3,281.0625 20.7219,281.4063 Q21.1438,281.75 21.8938,281.75 Q22.3391,281.75 22.6516,281.6484 Q22.8313,281.5938 23.0344,281.4141 Q23.1672,281.3125 23.2375,281.2813 Q23.3078,281.25 23.3938,281.25 Q23.5578,281.25 23.675,281.3828 Q23.8,281.5078 23.8,281.6875 Q23.8,281.8594 23.6281,282.0625 Q23.3781,282.3594 22.9797,282.5234 Q22.4563,282.75 21.8156,282.75 Q21.0656,282.75 20.4641,282.4531 Q19.9797,282.2188 19.6359,281.7109 Q19.3,281.2031 19.3,280.6016 L19.3,280.0547 Q19.3,279.4297 19.5969,278.8828 Q19.9016,278.3359 20.425,278.0469 Q20.9563,277.75 21.55,277.75 Q21.9094,277.75 22.2219,277.875 Q22.5344,278 22.8,278.25 Z " fill="#000000"/><text fill="#000000" font-family="sans-serif" font-size="7" lengthAdjust="spacing" textLength="44" x="31.2" y="282.8643">ProductSorter</text><line style="stroke:#181818;stroke-width:0.25;" x1="4" x2="87" y1="288" y2="288"/><line style="stroke:#181818;stroke-width:0.25;" x1="4" x2="87" y1="292" y2="292"/><text fill="#000000" font-family="sans-serif" font-size="7" lengthAdjust="spacing" textLength="76" x="6.5" y="301.2666">sortByPrice(productList)</text><text fill="#000000" font-family="sans-serif" font-size="7" lengthAdjust="spacing" textLength="78" x="6.5" y="310.0713">sortByName(productList)</text></g><!--MD5=[f9761e4ec0e5a044b983a0fb01ce84a9]
class ProductRepository--><g id="elem_ProductRepository"><rect codeLine="12" fill="#F1F1F1" height="38.1563" id="ProductRepository" rx="1.25" ry="1.25" style="stroke:#181818;stroke-width:0.25;" width="74.5" x="105.25" y="273.75"/><ellipse cx="112.75" cy="284.4258" fill="#ADD1B2" rx="5.5" ry="5.5" style="stroke:#181818;stroke-width:0.5;"/><path d="M113.75,282.6758 Q113.8516,282.4258 113.9688,282.3008 Q114.0859,282.1758 114.2188,282.1758 Q114.4531,282.1758 114.6016,282.3164 Q114.75,282.457 114.75,282.7852 L114.75,283.5664 Q114.75,283.8945 114.6094,284.0352 Q114.4688,284.1758 114.25,284.1758 Q114.0547,284.1758 113.9297,284.0898 Q113.8047,284.0039 113.75,283.7773 Q113.7266,283.6211 113.6406,283.5352 Q113.4844,283.3711 113.2031,283.2773 Q112.9219,283.1758 112.6406,283.1758 Q112.2891,283.1758 111.9922,283.3164 Q111.7031,283.457 111.4766,283.7695 Q111.25,284.082 111.25,284.5117 L111.25,284.9727 Q111.25,285.4883 111.6719,285.832 Q112.0938,286.1758 112.8438,286.1758 Q113.2891,286.1758 113.6016,286.0742 Q113.7813,286.0195 113.9844,285.8398 Q114.1172,285.7383 114.1875,285.707 Q114.2578,285.6758 114.3438,285.6758 Q114.5078,285.6758 114.625,285.8086 Q114.75,285.9336 114.75,286.1133 Q114.75,286.2852 114.5781,286.4883 Q114.3281,286.7852 113.9297,286.9492 Q113.4063,287.1758 112.7656,287.1758 Q112.0156,287.1758 111.4141,286.8789 Q110.9297,286.6445 110.5859,286.1367 Q110.25,285.6289 110.25,285.0273 L110.25,284.4805 Q110.25,283.8555 110.5469,283.3086 Q110.8516,282.7617 111.375,282.4727 Q111.9063,282.1758 112.5,282.1758 Q112.8594,282.1758 113.1719,282.3008 Q113.4844,282.4258 113.75,282.6758 Z " fill="#000000"/><text fill="#000000" font-family="sans-serif" font-size="6" font-style="italic" lengthAdjust="spacing" textLength="34" x="132" y="282.4785">«repository»</text><text fill="#000000" font-family="sans-serif" font-size="7" lengthAdjust="spacing" textLength="58.5" x="119.75" y="291.0635">ProductRepository</text><line style="stroke:#181818;stroke-width:0.25;" x1="105.75" x2="179.25" y1="295.1016" y2="295.1016"/><line style="stroke:#181818;stroke-width:0.25;" x1="105.75" x2="179.25" y1="299.1016" y2="299.1016"/><text fill="#000000" font-family="sans-serif" font-size="7" lengthAdjust="spacing" textLength="52" x="108.25" y="308.3682">findAllProducts()</text></g><!--MD5=[cf4d6237fcae255cd2e1656cf84a30e2]
class Order--><g id="elem_Order"><rect codeLine="14" fill="#F1F1F1" height="29.3516" id="Order" rx="1.25" ry="1.25" style="stroke:#181818;stroke-width:0.25;" width="36" x="445" y="179.5"/><ellipse cx="452.5" cy="190.1758" fill="#ADD1B2" rx="5.5" ry="5.5" style="stroke:#181818;stroke-width:0.5;"/><path d="M451.75,190.6758 L451.75,191.6758 L453.75,191.6758 L453.75,191.1758 L453.75,190.9336 L454.0625,190.6758 L454.25,190.6758 L454.4375,190.6758 L454.75,190.9336 L454.75,191.1758 L454.75,192.6758 L450.75,192.6758 L450.5078,192.6758 L450.25,192.3633 L450.25,192.1758 L450.25,191.9883 L450.5078,191.6758 L450.75,191.6758 L450.75,191.6758 L450.75,188.6758 L450.75,188.6758 L450.5078,188.6758 L450.25,188.3633 L450.25,188.1758 L450.25,187.9883 L450.5078,187.6758 L450.75,187.6758 L454.75,187.6758 L454.75,189.1758 L454.75,189.418 L454.4375,189.6758 L454.25,189.6758 L454.0625,189.6758 L453.75,189.418 L453.75,189.1758 L453.75,188.6758 L451.75,188.6758 L451.75,189.6758 L452.25,189.6758 L452.25,189.4336 L452.25,189.4336 L452.5625,189.1758 L452.75,189.1758 L452.9375,189.1758 L453.25,189.4336 L453.25,189.6758 L453.25,190.6758 L453.25,190.918 L452.9375,191.1758 L452.9375,191.1758 L452.75,191.1758 L452.5625,191.1758 L452.25,190.918 L452.25,190.918 L452.25,190.6758 L451.75,190.6758 Z " fill="#000000"/><text fill="#000000" font-family="sans-serif" font-size="6" font-style="italic" lengthAdjust="spacing" textLength="22" x="458.5" y="188.2285">«Entity»</text><text fill="#000000" font-family="sans-serif" font-size="7" lengthAdjust="spacing" textLength="18.5" x="460.25" y="196.8135">Order</text><line style="stroke:#181818;stroke-width:0.25;" x1="445.5" x2="480.5" y1="200.8516" y2="200.8516"/><line style="stroke:#181818;stroke-width:0.25;" x1="445.5" x2="480.5" y1="204.8516" y2="204.8516"/></g><!--MD5=[4ef588c4d1404d1058d28903bdac637c]
class Costumer--><g id="elem_Costumer"><rect codeLine="17" fill="#F1F1F1" height="36.8984" id="Costumer" rx="1.25" ry="1.25" style="stroke:#181818;stroke-width:0.25;" width="46.5" x="133.25" y="175.75"/><ellipse cx="140.75" cy="190.1992" fill="#ADD1B2" rx="5.5" ry="5.5" style="stroke:#181818;stroke-width:0.5;"/><path d="M140,190.6992 L140,191.6992 L142,191.6992 L142,191.1992 L142,190.957 L142.3125,190.6992 L142.5,190.6992 L142.6875,190.6992 L143,190.957 L143,191.1992 L143,192.6992 L139,192.6992 L138.7578,192.6992 L138.5,192.3867 L138.5,192.1992 L138.5,192.0117 L138.7578,191.6992 L139,191.6992 L139,191.6992 L139,188.6992 L139,188.6992 L138.7578,188.6992 L138.5,188.3867 L138.5,188.1992 L138.5,188.0117 L138.7578,187.6992 L139,187.6992 L143,187.6992 L143,189.1992 L143,189.4414 L142.6875,189.6992 L142.5,189.6992 L142.3125,189.6992 L142,189.4414 L142,189.1992 L142,188.6992 L140,188.6992 L140,189.6992 L140.5,189.6992 L140.5,189.457 L140.5,189.457 L140.8125,189.1992 L141,189.1992 L141.1875,189.1992 L141.5,189.457 L141.5,189.6992 L141.5,190.6992 L141.5,190.9414 L141.1875,191.1992 L141.1875,191.1992 L141,191.1992 L140.8125,191.1992 L140.5,190.9414 L140.5,190.9414 L140.5,190.6992 L140,190.6992 Z " fill="#000000"/><text fill="#000000" font-family="sans-serif" font-size="6" font-style="italic" lengthAdjust="spacing" textLength="22" x="152" y="184.4785">«Entity»</text><text fill="#000000" font-family="sans-serif" font-size="6" font-style="italic" lengthAdjust="spacing" textLength="20" x="153" y="192.0254">«Root»</text><text fill="#000000" font-family="sans-serif" font-size="7" lengthAdjust="spacing" textLength="30.5" x="147.75" y="200.6104">Costumer</text><line style="stroke:#181818;stroke-width:0.25;" x1="133.75" x2="179.25" y1="204.6484" y2="204.6484"/><line style="stroke:#181818;stroke-width:0.25;" x1="133.75" x2="179.25" y1="208.6484" y2="208.6484"/></g><!--MD5=[72136138052d025cffdce3c22fbd185f]
class Product--><g id="elem_Product"><rect codeLine="19" fill="#F1F1F1" height="45.7031" id="Product" rx="1.25" ry="1.25" style="stroke:#181818;stroke-width:0.25;" width="68.5" x="197.25" y="270"/><ellipse cx="217.35" cy="284.4492" fill="#ADD1B2" rx="5.5" ry="5.5" style="stroke:#181818;stroke-width:0.5;"/><path d="M216.6,284.9492 L216.6,285.9492 L218.6,285.9492 L218.6,285.4492 L218.6,285.207 L218.9125,284.9492 L219.1,284.9492 L219.2875,284.9492 L219.6,285.207 L219.6,285.4492 L219.6,286.9492 L215.6,286.9492 L215.3578,286.9492 L215.1,286.6367 L215.1,286.4492 L215.1,286.2617 L215.3578,285.9492 L215.6,285.9492 L215.6,285.9492 L215.6,282.9492 L215.6,282.9492 L215.3578,282.9492 L215.1,282.6367 L215.1,282.4492 L215.1,282.2617 L215.3578,281.9492 L215.6,281.9492 L219.6,281.9492 L219.6,283.4492 L219.6,283.6914 L219.2875,283.9492 L219.1,283.9492 L218.9125,283.9492 L218.6,283.6914 L218.6,283.4492 L218.6,282.9492 L216.6,282.9492 L216.6,283.9492 L217.1,283.9492 L217.1,283.707 L217.1,283.707 L217.4125,283.4492 L217.6,283.4492 L217.7875,283.4492 L218.1,283.707 L218.1,283.9492 L218.1,284.9492 L218.1,285.1914 L217.7875,285.4492 L217.7875,285.4492 L217.6,285.4492 L217.4125,285.4492 L217.1,285.1914 L217.1,285.1914 L217.1,284.9492 L216.6,284.9492 Z " fill="#000000"/><text fill="#000000" font-family="sans-serif" font-size="6" font-style="italic" lengthAdjust="spacing" textLength="22" x="228.4" y="278.7285">«Entity»</text><text fill="#000000" font-family="sans-serif" font-size="6" font-style="italic" lengthAdjust="spacing" textLength="20" x="229.4" y="286.2754">«Root»</text><text fill="#000000" font-family="sans-serif" font-size="7" lengthAdjust="spacing" textLength="24.5" x="227.15" y="294.8604">Product</text><line style="stroke:#181818;stroke-width:0.25;" x1="197.75" x2="265.25" y1="298.8984" y2="298.8984"/><text fill="#000000" font-family="sans-serif" font-size="7" lengthAdjust="spacing" textLength="62.5" x="200.25" y="308.165">-ProductDescription</text><line style="stroke:#181818;stroke-width:0.25;" x1="197.75" x2="265.25" y1="311.7031" y2="311.7031"/></g><!--MD5=[a96594a83e2ecdc78cbf17c2ddf01934]
class Category--><g id="elem_Category"><rect codeLine="23" fill="#F1F1F1" height="29.3516" id="Category" rx="1.25" ry="1.25" style="stroke:#181818;stroke-width:0.25;" width="45" x="283.5" y="278"/><ellipse cx="291" cy="288.6758" fill="#ADD1B2" rx="5.5" ry="5.5" style="stroke:#181818;stroke-width:0.5;"/><path d="M290.25,289.1758 L290.25,290.1758 L292.25,290.1758 L292.25,289.6758 L292.25,289.4336 L292.5625,289.1758 L292.75,289.1758 L292.9375,289.1758 L293.25,289.4336 L293.25,289.6758 L293.25,291.1758 L289.25,291.1758 L289.0078,291.1758 L288.75,290.8633 L288.75,290.6758 L288.75,290.4883 L289.0078,290.1758 L289.25,290.1758 L289.25,290.1758 L289.25,287.1758 L289.25,287.1758 L289.0078,287.1758 L288.75,286.8633 L288.75,286.6758 L288.75,286.4883 L289.0078,286.1758 L289.25,286.1758 L293.25,286.1758 L293.25,287.6758 L293.25,287.918 L292.9375,288.1758 L292.75,288.1758 L292.5625,288.1758 L292.25,287.918 L292.25,287.6758 L292.25,287.1758 L290.25,287.1758 L290.25,288.1758 L290.75,288.1758 L290.75,287.9336 L290.75,287.9336 L291.0625,287.6758 L291.25,287.6758 L291.4375,287.6758 L291.75,287.9336 L291.75,288.1758 L291.75,289.1758 L291.75,289.418 L291.4375,289.6758 L291.4375,289.6758 L291.25,289.6758 L291.0625,289.6758 L290.75,289.418 L290.75,289.418 L290.75,289.1758 L290.25,289.1758 Z " fill="#000000"/><text fill="#000000" font-family="sans-serif" font-size="6" font-style="italic" lengthAdjust="spacing" textLength="22" x="301.5" y="286.7285">«Entity»</text><text fill="#000000" font-family="sans-serif" font-size="7" lengthAdjust="spacing" textLength="29" x="298" y="295.3135">Category</text><line style="stroke:#181818;stroke-width:0.25;" x1="284" x2="328" y1="299.3516" y2="299.3516"/><line style="stroke:#181818;stroke-width:0.25;" x1="284" x2="328" y1="303.3516" y2="303.3516"/></g><!--MD5=[8a78b94ac034f628eee9959bc26304be]
class Brand--><g id="elem_Brand"><rect fill="#F1F1F1" height="24" id="Brand" rx="1.25" ry="1.25" style="stroke:#181818;stroke-width:0.25;" width="35" x="346" y="280.75"/><ellipse cx="353.5" cy="288.75" fill="#ADD1B2" rx="5.5" ry="5.5" style="stroke:#181818;stroke-width:0.5;"/><path d="M354.5,287 Q354.6016,286.75 354.7188,286.625 Q354.8359,286.5 354.9688,286.5 Q355.2031,286.5 355.3516,286.6406 Q355.5,286.7813 355.5,287.1094 L355.5,287.8906 Q355.5,288.2188 355.3594,288.3594 Q355.2188,288.5 355,288.5 Q354.8047,288.5 354.6797,288.4141 Q354.5547,288.3281 354.5,288.1016 Q354.4766,287.9453 354.3906,287.8594 Q354.2344,287.6953 353.9531,287.6016 Q353.6719,287.5 353.3906,287.5 Q353.0391,287.5 352.7422,287.6406 Q352.4531,287.7813 352.2266,288.0938 Q352,288.4063 352,288.8359 L352,289.2969 Q352,289.8125 352.4219,290.1563 Q352.8438,290.5 353.5938,290.5 Q354.0391,290.5 354.3516,290.3984 Q354.5313,290.3438 354.7344,290.1641 Q354.8672,290.0625 354.9375,290.0313 Q355.0078,290 355.0938,290 Q355.2578,290 355.375,290.1328 Q355.5,290.2578 355.5,290.4375 Q355.5,290.6094 355.3281,290.8125 Q355.0781,291.1094 354.6797,291.2734 Q354.1563,291.5 353.5156,291.5 Q352.7656,291.5 352.1641,291.2031 Q351.6797,290.9688 351.3359,290.4609 Q351,289.9531 351,289.3516 L351,288.8047 Q351,288.1797 351.2969,287.6328 Q351.6016,287.0859 352.125,286.7969 Q352.6563,286.5 353.25,286.5 Q353.6094,286.5 353.9219,286.625 Q354.2344,286.75 354.5,287 Z " fill="#000000"/><text fill="#000000" font-family="sans-serif" font-size="7" lengthAdjust="spacing" textLength="19" x="360.5" y="291.6143">Brand</text><line style="stroke:#181818;stroke-width:0.25;" x1="346.5" x2="380.5" y1="296.75" y2="296.75"/><line style="stroke:#181818;stroke-width:0.25;" x1="346.5" x2="380.5" y1="300.75" y2="300.75"/></g><!--MD5=[79d3acb8d8b4a000645cdf546551f625]
class ShortDescription--><g id="elem_ShortDescription"><rect fill="#F1F1F1" height="24" id="ShortDescription" rx="1.25" ry="1.25" style="stroke:#181818;stroke-width:0.25;" width="68.5" x="398.75" y="280.75"/><ellipse cx="406.25" cy="288.75" fill="#ADD1B2" rx="5.5" ry="5.5" style="stroke:#181818;stroke-width:0.5;"/><path d="M407.25,287 Q407.3516,286.75 407.4688,286.625 Q407.5859,286.5 407.7188,286.5 Q407.9531,286.5 408.1016,286.6406 Q408.25,286.7813 408.25,287.1094 L408.25,287.8906 Q408.25,288.2188 408.1094,288.3594 Q407.9688,288.5 407.75,288.5 Q407.5547,288.5 407.4297,288.4141 Q407.3047,288.3281 407.25,288.1016 Q407.2266,287.9453 407.1406,287.8594 Q406.9844,287.6953 406.7031,287.6016 Q406.4219,287.5 406.1406,287.5 Q405.7891,287.5 405.4922,287.6406 Q405.2031,287.7813 404.9766,288.0938 Q404.75,288.4063 404.75,288.8359 L404.75,289.2969 Q404.75,289.8125 405.1719,290.1563 Q405.5938,290.5 406.3438,290.5 Q406.7891,290.5 407.1016,290.3984 Q407.2813,290.3438 407.4844,290.1641 Q407.6172,290.0625 407.6875,290.0313 Q407.7578,290 407.8438,290 Q408.0078,290 408.125,290.1328 Q408.25,290.2578 408.25,290.4375 Q408.25,290.6094 408.0781,290.8125 Q407.8281,291.1094 407.4297,291.2734 Q406.9063,291.5 406.2656,291.5 Q405.5156,291.5 404.9141,291.2031 Q404.4297,290.9688 404.0859,290.4609 Q403.75,289.9531 403.75,289.3516 L403.75,288.8047 Q403.75,288.1797 404.0469,287.6328 Q404.3516,287.0859 404.875,286.7969 Q405.4063,286.5 406,286.5 Q406.3594,286.5 406.6719,286.625 Q406.9844,286.75 407.25,287 Z " fill="#000000"/><text fill="#000000" font-family="sans-serif" font-size="7" lengthAdjust="spacing" textLength="52.5" x="413.25" y="291.6143">ShortDescription</text><line style="stroke:#181818;stroke-width:0.25;" x1="399.25" x2="466.75" y1="296.75" y2="296.75"/><line style="stroke:#181818;stroke-width:0.25;" x1="399.25" x2="466.75" y1="300.75" y2="300.75"/></g><!--MD5=[7c11bc69542cb6b834b9b58245ffacd0]
link NewProductOrderController to Costumer--><g id="link_NewProductOrderController_Costumer"><path codeLine="28" d="M325.355,107.835 C285.53,115.67 230.36,130.56 188.5,157.5 C181.905,161.745 175.86,167.72 170.845,173.595 " fill="none" id="NewProductOrderController-to-Costumer" style="stroke:#181818;stroke-width:0.5;"/><polygon fill="#181818" points="169.185,175.585,173.6015,173.4068,170.7848,173.6639,170.5277,170.8471,169.185,175.585" style="stroke:#181818;stroke-width:0.5;"/></g><!--MD5=[dc3a93f8d774742c6fabe4ea673f2b7f]
link NewProductOrderController to ViewCatalogController--><g id="link_NewProductOrderController_ViewCatalogController"><path codeLine="29" d="M355.565,118.52 C343.27,129.145 327.375,142.88 312.54,155.7 " fill="none" id="NewProductOrderController-to-ViewCatalogController" style="stroke:#181818;stroke-width:0.5;"/><polygon fill="#181818" points="310.545,157.42,315.2575,155.991,312.4366,155.7854,312.6422,152.9644,310.545,157.42" style="stroke:#181818;stroke-width:0.5;"/></g><!--MD5=[e43d2f6dd35fb875a2aa5977ef3cee18]
link NewProductOrderUI to NewProductOrderController--><g id="link_NewProductOrderUI_NewProductOrderController"><path codeLine="30" d="M409.86,41.59 C403.515,52.675 395.45,66.765 388.895,78.215 " fill="none" id="NewProductOrderUI-to-NewProductOrderController" style="stroke:#181818;stroke-width:0.5;"/><polygon fill="#181818" points="387.605,80.47,391.5762,77.558,388.8469,78.3003,388.1046,75.571,387.605,80.47" style="stroke:#181818;stroke-width:0.5;"/><text fill="#000000" font-family="sans-serif" font-size="6.5" lengthAdjust="spacing" textLength="36.5" x="400.5" y="63.7476">theController</text></g><!--MD5=[847a18e7af1497fdaadb1dfd99dbccd8]
link NewProductOrderUI to Order--><g id="link_NewProductOrderUI_Order"><path codeLine="31" d="M434.01,41.615 C436.875,46.285 439.6,51.42 441.5,56.5 C456.97,97.89 461.31,150.335 462.525,176.81 " fill="none" id="NewProductOrderUI-to-Order" style="stroke:#181818;stroke-width:0.5;stroke-dasharray:7.0,7.0;"/><polygon fill="#181818" points="462.64,179.445,464.4449,174.8633,462.5326,176.9473,460.4486,175.035,462.64,179.445" style="stroke:#181818;stroke-width:0.5;"/><text fill="#000000" font-family="sans-serif" font-size="6.5" lengthAdjust="spacing" textLength="25" x="457" y="102.2476">theOrder</text></g><!--MD5=[98705eb870898d9c54350797c083f8e2]
link NewProductOrderController to OrderRepository--><g id="link_NewProductOrderController_OrderRepository"><path codeLine="33" d="M379.865,118.52 C382.06,132.705 385.11,152.435 387.54,168.13 " fill="none" id="NewProductOrderController-to-OrderRepository" style="stroke:#181818;stroke-width:0.5;"/><polygon fill="#181818" points="387.92,170.615,389.2156,165.8641,387.5415,168.1438,385.2617,166.4697,387.92,170.615" style="stroke:#181818;stroke-width:0.5;"/><text fill="#000000" font-family="sans-serif" font-size="6.5" lengthAdjust="spacing" textLength="12.5" x="383.5" y="140.7476">repo</text></g><!--MD5=[86c5f4275cb591b7408ff22749b77ce3]
link NewProductOrderController to Order--><g id="link_NewProductOrderController_Order"><path codeLine="34" d="M396.755,118.615 C408.13,129.61 422.505,143.985 434.5,157.5 C440.085,163.795 445.89,171.03 450.79,177.375 " fill="none" id="NewProductOrderController-to-Order" style="stroke:#181818;stroke-width:0.5;"/><polygon fill="#181818" points="452.415,179.49,451.2574,174.7036,450.8911,177.5082,448.0865,177.1419,452.415,179.49" style="stroke:#181818;stroke-width:0.5;"/><text fill="#000000" font-family="sans-serif" font-size="6.5" lengthAdjust="spacing" textLength="27" x="419.5" y="140.7476">the Order</text></g><!--MD5=[a68f3e21f21b913849507d4172d10460]
link ViewCatalogController to Category--><g id="link_ViewCatalogController_Category"><path codeLine="39" d="M282.465,231.055 C288.32,246.285 294.845,263.245 299.535,275.445 " fill="none" id="ViewCatalogController-to-Category" style="stroke:#181818;stroke-width:0.5;"/><polygon fill="#181818" points="300.45,277.82,300.6983,272.9018,299.5511,275.4872,296.9658,274.34,300.45,277.82" style="stroke:#181818;stroke-width:0.5;"/></g><!--MD5=[1e3eade0a768cc45ff46ae526a857d0a]
link ViewCatalogController to Product--><g id="link_ViewCatalogController_Product"><path codeLine="40" d="M254.725,231.055 C250.12,243.185 245.1,256.42 240.905,267.465 " fill="none" id="ViewCatalogController-to-Product" style="stroke:#181818;stroke-width:0.5;"/><polygon fill="#181818" points="239.97,269.935,243.4356,266.4365,240.8564,267.5974,239.6955,265.0182,239.97,269.935" style="stroke:#181818;stroke-width:0.5;"/><text fill="#000000" font-family="sans-serif" font-size="6.5" lengthAdjust="spacing" textLength="31.5" x="249" y="253.2476">theProduct</text></g><!--MD5=[e1131d1684a62e94cf79a48d3749b7f8]
link ViewCatalogController to Brand--><g id="link_ViewCatalogController_Brand"><path codeLine="41" d="M303.875,231.055 C320.1,247.705 338.345,266.435 350.33,278.735 " fill="none" id="ViewCatalogController-to-Brand" style="stroke:#181818;stroke-width:0.5;"/><polygon fill="#181818" points="352.2,280.65,350.4787,276.0362,350.4502,278.8645,347.6219,278.8359,352.2,280.65" style="stroke:#181818;stroke-width:0.5;"/></g><!--MD5=[4a2dd4d91db26e5e279d53454f3e55ca]
link ViewCatalogController to ShortDescription--><g id="link_ViewCatalogController_ShortDescription"><path codeLine="42" d="M329.755,231.055 C358.31,247.98 390.485,267.05 411.215,279.335 " fill="none" id="ViewCatalogController-to-ShortDescription" style="stroke:#181818;stroke-width:0.5;"/><polygon fill="#181818" points="413.435,280.65,410.5895,276.6309,411.2862,279.3722,408.545,280.0689,413.435,280.65" style="stroke:#181818;stroke-width:0.5;"/></g><!--MD5=[201364d21bfd415ec2c4aa4dfbf507ed]
link ViewCatalogController to ProductRepository--><g id="link_ViewCatalogController_ProductRepository"><path codeLine="44" d="M221.58,231.055 C203.635,244.94 183.825,260.27 168.52,272.115 " fill="none" id="ViewCatalogController-to-ProductRepository" style="stroke:#181818;stroke-width:0.5;"/><polygon fill="#181818" points="166.485,273.69,171.2688,272.5215,168.4634,272.1616,168.8233,269.3562,166.485,273.69" style="stroke:#181818;stroke-width:0.5;"/><text fill="#000000" font-family="sans-serif" font-size="6.5" lengthAdjust="spacing" textLength="12.5" x="202.5" y="253.2476">repo</text></g><!--MD5=[12f7310e23388535722b820f24ba4c8a]
link ViewCatalogController to ProductSorter--><g id="link_ViewCatalogController_ProductSorter"><path codeLine="45" d="M197.225,227.155 C194.28,228.46 191.365,229.745 188.5,231 C147.825,248.835 137.3,252.455 96.5,270 C94.35,270.925 92.15,271.875 89.925,272.835 " fill="none" id="ViewCatalogController-to-ProductSorter" style="stroke:#181818;stroke-width:0.5;"/><polygon fill="#181818" points="87.51,273.88,92.4342,273.9272,89.8041,272.8866,90.8447,270.2565,87.51,273.88" style="stroke:#181818;stroke-width:0.5;"/><text fill="#000000" font-family="sans-serif" font-size="6.5" lengthAdjust="spacing" textLength="16.5" x="154" y="253.2476">sorter</text></g><!--MD5=[7b535c5ef6860af3e54d4c4beeb84f59]
@startuml
skinparam classAttributeIconSize 0


class NewProductOrderUI <<presentation>>


class NewProductOrderController <<application>>
class OrderRepository <<repository>>
class ViewCatalogController <<application>>

class ProductSorter
class ProductRepository <<repository>>

entity Order <<Entity>>


entity Costumer <<Entity>> <<Root>>

entity Product <<Entity>> <<Root>> {
- ProductDescription
}

    entity Category <<Entity>>




NewProductOrderController - ->Costumer
NewProductOrderController - ->ViewCatalogController
NewProductOrderUI - -> NewProductOrderController : theController
NewProductOrderUI ..> Order : theOrder
NewProductOrderUI : doShow()
NewProductOrderController - -> OrderRepository : repo
NewProductOrderController - -> Order : the Order
NewProductOrderController : createOrder ()
OrderRepository : save(order)
OrderRepository : findById(OrderID)

ViewCatalogController - -> Category
ViewCatalogController - -> Product: theProduct
ViewCatalogController - ->Brand
ViewCatalogController - ->ShortDescription

ViewCatalogController - -> ProductRepository : repo
ViewCatalogController - -> ProductSorter : sorter
ProductSorter : sortByPrice(productList)
ProductSorter : sortByName(productList)
ViewCatalogController : getProductByBrand( brand)
ViewCatalogController : getProductByCategory( category)
ViewCatalogController : getProductByDescription( shortDescription)
ViewCatalogController : sortByPrice( productList)
ViewCatalogController : sortByDescription( productList)

ProductRepository : findAllProducts()

@enduml

PlantUML version 1.2022.4(Sat Apr 09 14:29:17 BST 2022)
(GPL source distribution)
Java Runtime: OpenJDK Runtime Environment
JVM: OpenJDK 64-Bit Server VM
Default Encoding: Cp1252
Language: pt
Country: PT
--></g></svg>