<?xml version="1.0" encoding="UTF-8" standalone="no"?><svg xmlns="http://www.w3.org/2000/svg" xmlns:xlink="http://www.w3.org/1999/xlink" contentStyleType="text/css" height="509.6px" preserveAspectRatio="none" style="width:445px;height:509px;background:#FFFFFF;" version="1.1" viewBox="0 0 445 509" width="445.2px" zoomAndPan="magnify"><defs/><g><rect fill="#FFFFFF" height="374.7297" style="stroke:#181818;stroke-width:0.6999999999999998;" width="7" x="47.25" y="64.8266"/><rect fill="#FFFFFF" height="21.2461" style="stroke:#181818;stroke-width:0.6999999999999998;" width="7" x="408.45" y="80.4727"/><rect fill="#FFFFFF" height="56.7383" style="stroke:#181818;stroke-width:0.6999999999999998;" width="7" x="408.45" y="122.9648"/><rect fill="#FFFFFF" height="26.1461" style="stroke:#181818;stroke-width:0.6999999999999998;" width="7" x="408.45" y="200.9492"/><rect fill="#FFFFFF" height="21.2461" style="stroke:#181818;stroke-width:0.6999999999999998;" width="7" x="408.45" y="248.3414"/><rect fill="#FFFFFF" height="21.2461" style="stroke:#181818;stroke-width:0.6999999999999998;" width="7" x="408.45" y="290.8336"/><rect fill="#FFFFFF" height="21.2461" style="stroke:#181818;stroke-width:0.6999999999999998;" width="7" x="408.45" y="333.3258"/><rect fill="#FFFFFF" height="21.2461" style="stroke:#181818;stroke-width:0.6999999999999998;" width="7" x="408.45" y="375.818"/><rect fill="#FFFFFF" height="21.2461" style="stroke:#181818;stroke-width:0.6999999999999998;" width="7" x="408.45" y="418.3102"/><rect height="55.3383" style="stroke:#000000;stroke-width:1.0499999999999998;fill:none;" width="427.35" x="14" y="151.2109"/><line style="stroke:#181818;stroke-width:0.3499999999999999;fill:none;stroke-dasharray:5.0,5.0;" x1="50.4" x2="50.4" y1="57.8266" y2="452.1562"/><line style="stroke:#181818;stroke-width:0.3499999999999999;fill:none;stroke-dasharray:5.0,5.0;" x1="411.95" x2="411.95" y1="57.8266" y2="452.1562"/><text fill="#000000" font-family="sans-serif" font-size="9.8" lengthAdjust="spacing" textLength="55.3" x="21" y="55.6732">Sales Clerck</text><ellipse cx="50.75" cy="9.45" fill="#E2E2F0" rx="5.6" ry="5.6" style="stroke:#181818;stroke-width:0.3499999999999999;"/><path d="M50.75,15.05 L50.75,33.95 M41.65,20.65 L59.85,20.65 M50.75,33.95 L41.65,44.45 M50.75,33.95 L59.85,44.45 " fill="none" style="stroke:#181818;stroke-width:0.3499999999999999;"/><text fill="#000000" font-family="sans-serif" font-size="9.8" lengthAdjust="spacing" textLength="55.3" x="21" y="461.6295">Sales Clerck</text><ellipse cx="50.75" cy="469.7328" fill="#E2E2F0" rx="5.6" ry="5.6" style="stroke:#181818;stroke-width:0.3499999999999999;"/><path d="M50.75,475.3328 L50.75,494.2328 M41.65,480.9328 L59.85,480.9328 M50.75,494.2328 L41.65,504.7328 M50.75,494.2328 L59.85,504.7328 " fill="none" style="stroke:#181818;stroke-width:0.3499999999999999;"/><rect fill="#E2E2F0" height="22.1266" rx="1.75" ry="1.75" style="stroke:#181818;stroke-width:0.3499999999999999;" width="44.8" x="389.55" y="35"/><text fill="#000000" font-family="sans-serif" font-size="9.8" lengthAdjust="spacing" textLength="35" x="394.45" y="50.0732">:System</text><rect fill="#E2E2F0" height="22.1266" rx="1.75" ry="1.75" style="stroke:#181818;stroke-width:0.3499999999999999;" width="44.8" x="389.55" y="451.4562"/><text fill="#000000" font-family="sans-serif" font-size="9.8" lengthAdjust="spacing" textLength="35" x="394.45" y="466.5295">:System</text><rect fill="#FFFFFF" height="374.7297" style="stroke:#181818;stroke-width:0.6999999999999998;" width="7" x="47.25" y="64.8266"/><rect fill="#FFFFFF" height="21.2461" style="stroke:#181818;stroke-width:0.6999999999999998;" width="7" x="408.45" y="80.4727"/><rect fill="#FFFFFF" height="56.7383" style="stroke:#181818;stroke-width:0.6999999999999998;" width="7" x="408.45" y="122.9648"/><rect fill="#FFFFFF" height="26.1461" style="stroke:#181818;stroke-width:0.6999999999999998;" width="7" x="408.45" y="200.9492"/><rect fill="#FFFFFF" height="21.2461" style="stroke:#181818;stroke-width:0.6999999999999998;" width="7" x="408.45" y="248.3414"/><rect fill="#FFFFFF" height="21.2461" style="stroke:#181818;stroke-width:0.6999999999999998;" width="7" x="408.45" y="290.8336"/><rect fill="#FFFFFF" height="21.2461" style="stroke:#181818;stroke-width:0.6999999999999998;" width="7" x="408.45" y="333.3258"/><rect fill="#FFFFFF" height="21.2461" style="stroke:#181818;stroke-width:0.6999999999999998;" width="7" x="408.45" y="375.818"/><rect fill="#FFFFFF" height="21.2461" style="stroke:#181818;stroke-width:0.6999999999999998;" width="7" x="408.45" y="418.3102"/><polygon fill="#181818" points="400.05,77.6727,407.05,80.4727,400.05,83.2727,402.85,80.4727" style="stroke:#181818;stroke-width:0.6999999999999998;"/><line style="stroke:#181818;stroke-width:0.6999999999999998;" x1="54.25" x2="404.25" y1="80.4727" y2="80.4727"/><text fill="#000000" font-family="sans-serif" font-size="9.1" font-weight="bold" lengthAdjust="spacing" textLength="4.9" x="59.15" y="77.0731">1</text><text fill="#000000" font-family="sans-serif" font-size="9.1" lengthAdjust="spacing" textLength="226.8" x="66.85" y="77.0731">starts to create new product's order for a given costumer</text><polygon fill="#181818" points="61.95,98.9187,54.95,101.7187,61.95,104.5187,59.15,101.7187" style="stroke:#181818;stroke-width:0.6999999999999998;"/><line style="stroke:#181818;stroke-width:0.6999999999999998;stroke-dasharray:2.0,2.0;" x1="57.75" x2="411.25" y1="101.7187" y2="101.7187"/><text fill="#000000" font-family="sans-serif" font-size="9.1" font-weight="bold" lengthAdjust="spacing" textLength="4.9" x="66.15" y="98.3192">2</text><text fill="#000000" font-family="sans-serif" font-size="9.1" lengthAdjust="spacing" textLength="95.9" x="73.85" y="98.3192">shows list of costumers</text><polygon fill="#181818" points="400.05,120.1648,407.05,122.9648,400.05,125.7648,402.85,122.9648" style="stroke:#181818;stroke-width:0.6999999999999998;"/><line style="stroke:#181818;stroke-width:0.6999999999999998;" x1="54.25" x2="404.25" y1="122.9648" y2="122.9648"/><text fill="#000000" font-family="sans-serif" font-size="9.1" font-weight="bold" lengthAdjust="spacing" textLength="4.9" x="59.15" y="119.5653">3</text><text fill="#000000" font-family="sans-serif" font-size="9.1" lengthAdjust="spacing" textLength="126.7" x="66.85" y="119.5653">types the chosen costumer's id</text><path d="M14,151.2109 L65.1,151.2109 L65.1,157.057 L58.1,164.057 L14,164.057 L14,151.2109 " fill="#EEEEEE" style="stroke:#000000;stroke-width:1.0499999999999998;"/><rect fill="none" height="55.3383" style="stroke:#000000;stroke-width:1.0499999999999998;" width="427.35" x="14" y="151.2109"/><text fill="#000000" font-family="sans-serif" font-size="9.1" font-weight="bold" lengthAdjust="spacing" textLength="19.6" x="24.5" y="161.3575">loop</text><text fill="#000000" font-family="sans-serif" font-size="7.7" font-weight="bold" lengthAdjust="spacing" textLength="43.4" x="75.6" y="160.6042">[until exits]</text><polygon fill="#181818" points="61.95,176.9031,54.95,179.7031,61.95,182.5031,59.15,179.7031" style="stroke:#181818;stroke-width:0.6999999999999998;"/><line style="stroke:#181818;stroke-width:0.6999999999999998;stroke-dasharray:2.0,2.0;" x1="57.75" x2="411.25" y1="179.7031" y2="179.7031"/><text fill="#000000" font-family="sans-serif" font-size="9.1" font-weight="bold" lengthAdjust="spacing" textLength="4.9" x="66.15" y="176.3036">4</text><text fill="#000000" font-family="sans-serif" font-size="9.1" lengthAdjust="spacing" textLength="254.8" x="73.85" y="176.3036">asks for a field(category,description, brand..)to filter the catalog</text><polygon fill="#181818" points="400.05,198.1492,407.05,200.9492,400.05,203.7492,402.85,200.9492" style="stroke:#181818;stroke-width:0.6999999999999998;"/><line style="stroke:#181818;stroke-width:0.6999999999999998;" x1="54.25" x2="404.25" y1="200.9492" y2="200.9492"/><text fill="#000000" font-family="sans-serif" font-size="9.1" font-weight="bold" lengthAdjust="spacing" textLength="4.9" x="59.15" y="197.5497">5</text><text fill="#000000" font-family="sans-serif" font-size="9.1" lengthAdjust="spacing" textLength="56.7" x="66.85" y="197.5497">types the field</text><polygon fill="#181818" points="61.95,224.2953,54.95,227.0953,61.95,229.8953,59.15,227.0953" style="stroke:#181818;stroke-width:0.6999999999999998;"/><line style="stroke:#181818;stroke-width:0.6999999999999998;stroke-dasharray:2.0,2.0;" x1="57.75" x2="411.25" y1="227.0953" y2="227.0953"/><text fill="#000000" font-family="sans-serif" font-size="9.1" font-weight="bold" lengthAdjust="spacing" textLength="4.9" x="66.15" y="223.6958">6</text><text fill="#000000" font-family="sans-serif" font-size="9.1" lengthAdjust="spacing" textLength="329.7" x="73.85" y="223.6958">shows list of products and asks to choose how to order the list (by name or price)</text><polygon fill="#181818" points="400.05,245.5414,407.05,248.3414,400.05,251.1414,402.85,248.3414" style="stroke:#181818;stroke-width:0.6999999999999998;"/><line style="stroke:#181818;stroke-width:0.6999999999999998;" x1="54.25" x2="404.25" y1="248.3414" y2="248.3414"/><text fill="#000000" font-family="sans-serif" font-size="9.1" font-weight="bold" lengthAdjust="spacing" textLength="4.9" x="59.15" y="244.9419">7</text><text fill="#000000" font-family="sans-serif" font-size="9.1" lengthAdjust="spacing" textLength="86.8" x="66.85" y="244.9419">chooses how to order</text><polygon fill="#181818" points="61.95,266.7875,54.95,269.5875,61.95,272.3875,59.15,269.5875" style="stroke:#181818;stroke-width:0.6999999999999998;"/><line style="stroke:#181818;stroke-width:0.6999999999999998;stroke-dasharray:2.0,2.0;" x1="57.75" x2="411.25" y1="269.5875" y2="269.5875"/><text fill="#000000" font-family="sans-serif" font-size="9.1" font-weight="bold" lengthAdjust="spacing" textLength="4.9" x="66.15" y="266.188">8</text><text fill="#000000" font-family="sans-serif" font-size="9.1" lengthAdjust="spacing" textLength="191.1" x="73.85" y="266.188">shows list of products and asks for the barcode</text><polygon fill="#181818" points="400.05,288.0336,407.05,290.8336,400.05,293.6336,402.85,290.8336" style="stroke:#181818;stroke-width:0.6999999999999998;"/><line style="stroke:#181818;stroke-width:0.6999999999999998;" x1="54.25" x2="404.25" y1="290.8336" y2="290.8336"/><text fill="#000000" font-family="sans-serif" font-size="9.1" font-weight="bold" lengthAdjust="spacing" textLength="4.9" x="59.15" y="287.4341">9</text><text fill="#000000" font-family="sans-serif" font-size="9.1" lengthAdjust="spacing" textLength="144.2" x="66.85" y="287.4341">types the chosen product's barcode</text><polygon fill="#181818" points="61.95,309.2797,54.95,312.0797,61.95,314.8797,59.15,312.0797" style="stroke:#181818;stroke-width:0.6999999999999998;"/><line style="stroke:#181818;stroke-width:0.6999999999999998;stroke-dasharray:2.0,2.0;" x1="57.75" x2="411.25" y1="312.0797" y2="312.0797"/><text fill="#000000" font-family="sans-serif" font-size="9.1" font-weight="bold" lengthAdjust="spacing" textLength="9.8" x="66.15" y="308.6802">10</text><text fill="#000000" font-family="sans-serif" font-size="9.1" lengthAdjust="spacing" textLength="215.6" x="78.75" y="308.6802">shows all data(code,description,brand,category,price)</text><polygon fill="#181818" points="400.05,330.5258,407.05,333.3258,400.05,336.1258,402.85,333.3258" style="stroke:#181818;stroke-width:0.6999999999999998;"/><line style="stroke:#181818;stroke-width:0.6999999999999998;" x1="54.25" x2="404.25" y1="333.3258" y2="333.3258"/><text fill="#000000" font-family="sans-serif" font-size="9.1" font-weight="bold" lengthAdjust="spacing" textLength="9.8" x="59.15" y="329.9263">11</text><text fill="#000000" font-family="sans-serif" font-size="9.1" lengthAdjust="spacing" textLength="88.9" x="71.75" y="329.9263">check product's stock</text><polygon fill="#181818" points="61.95,351.7719,54.95,354.5719,61.95,357.3719,59.15,354.5719" style="stroke:#181818;stroke-width:0.6999999999999998;"/><line style="stroke:#181818;stroke-width:0.6999999999999998;stroke-dasharray:2.0,2.0;" x1="57.75" x2="411.25" y1="354.5719" y2="354.5719"/><text fill="#000000" font-family="sans-serif" font-size="9.1" font-weight="bold" lengthAdjust="spacing" textLength="9.8" x="66.15" y="351.1724">12</text><text fill="#000000" font-family="sans-serif" font-size="9.1" lengthAdjust="spacing" textLength="89.6" x="78.75" y="351.1724">Shows available stock</text><polygon fill="#181818" points="61.95,373.018,54.95,375.818,61.95,378.618,59.15,375.818" style="stroke:#181818;stroke-width:0.6999999999999998;"/><line style="stroke:#181818;stroke-width:0.6999999999999998;stroke-dasharray:2.0,2.0;" x1="57.75" x2="407.75" y1="375.818" y2="375.818"/><text fill="#000000" font-family="sans-serif" font-size="9.1" font-weight="bold" lengthAdjust="spacing" textLength="9.8" x="66.15" y="372.4185">13</text><text fill="#000000" font-family="sans-serif" font-size="9.1" lengthAdjust="spacing" textLength="167.3" x="78.75" y="372.4185">shows price of the order with the shipping</text><polygon fill="#181818" points="403.55,394.2641,410.55,397.0641,403.55,399.8641,406.35,397.0641" style="stroke:#181818;stroke-width:0.6999999999999998;"/><line style="stroke:#181818;stroke-width:0.6999999999999998;" x1="54.25" x2="407.75" y1="397.0641" y2="397.0641"/><text fill="#000000" font-family="sans-serif" font-size="9.1" font-weight="bold" lengthAdjust="spacing" textLength="9.8" x="59.15" y="393.6646">14</text><text fill="#000000" font-family="sans-serif" font-size="9.1" lengthAdjust="spacing" textLength="105" x="71.75" y="393.6646">chooses payment method</text><polygon fill="#181818" points="61.95,415.5102,54.95,418.3102,61.95,421.1102,59.15,418.3102" style="stroke:#181818;stroke-width:0.6999999999999998;"/><line style="stroke:#181818;stroke-width:0.6999999999999998;stroke-dasharray:2.0,2.0;" x1="57.75" x2="407.75" y1="418.3102" y2="418.3102"/><text fill="#000000" font-family="sans-serif" font-size="9.1" font-weight="bold" lengthAdjust="spacing" textLength="9.8" x="66.15" y="414.9106">15</text><text fill="#000000" font-family="sans-serif" font-size="9.1" lengthAdjust="spacing" textLength="86.8" x="78.75" y="414.9106">requests confirmation</text><polygon fill="#181818" points="58.45,436.7562,51.45,439.5562,58.45,442.3562,55.65,439.5562" style="stroke:#181818;stroke-width:0.6999999999999998;"/><line style="stroke:#181818;stroke-width:0.6999999999999998;stroke-dasharray:2.0,2.0;" x1="54.25" x2="411.25" y1="439.5562" y2="439.5562"/><text fill="#000000" font-family="sans-serif" font-size="9.1" font-weight="bold" lengthAdjust="spacing" textLength="9.8" x="62.65" y="436.1567">16</text><text fill="#000000" font-family="sans-serif" font-size="9.1" lengthAdjust="spacing" textLength="196.7" x="75.25" y="436.1567">confirms the data and informs operation success</text><!--MD5=[b78c9daef0820eb272da80ba0eb2bc0e]
@startuml
autonumber
actor "Sales Clerck" as SC

activate SC
SC -> ":System" : starts to create new product's order for a given costumer
activate ":System"

":System" - -> SC : shows list of costumers
deactivate ":System"

SC -> ":System" : types the chosen costumer's id
activate ":System"
loop until exits
loop until exits
":System" - -> SC : asks for a field(category,description, brand..)to filter the catalog
deactivate ":System"

SC -> ":System" : types the field
activate ":System"

end loop
":System" - -> SC : shows list of products and asks to choose how to order the list (by name or price)
deactivate ":System"

SC -> ":System" : chooses how to order
activate ":System"

":System" - -> SC : shows list of products and asks for the barcode
deactivate ":System"

SC -> ":System" : types the chosen product's barcode
activate ":System"

":System" - -> SC :shows all data(code,description,brand,category,price)
deactivate ":System"

SC -> ":System" : check product's stock
activate ":System"
":System" - -> SC : Shows available stock
deactivate ":System"




":System" - -> SC : shows price of the order with the shipping
activate ":System"

SC -> ":System" : chooses payment method
deactivate ":System"

":System" - -> SC : requests confirmation

activate ":System"

":System" - -> SC :confirms the data and informs operation success
deactivate ":System"
deactivate SC

@enduml

PlantUML version 1.2022.4(Sat Apr 09 14:29:17 BST 2022)
(GPL source distribution)
Java Runtime: OpenJDK Runtime Environment
JVM: OpenJDK 64-Bit Server VM
Default Encoding: Cp1252
Language: pt
Country: PT
--></g></svg>