<?xml version="1.0" encoding="UTF-8" standalone="no"?><svg xmlns="http://www.w3.org/2000/svg" xmlns:xlink="http://www.w3.org/1999/xlink" contentStyleType="text/css" height="535px" preserveAspectRatio="none" style="width:921px;height:535px;background:#FFFFFF;" version="1.1" viewBox="0 0 921 535" width="921px" zoomAndPan="magnify"><defs/><g><rect fill="#FFFFFF" height="345.1055" style="stroke:#181818;stroke-width:1.0;" width="10" x="58.5" y="91.4883"/><rect fill="#FFFFFF" height="88.6211" style="stroke:#181818;stroke-width:1.0;" width="10" x="390.5" y="112.7988"/><rect fill="#FFFFFF" height="147.2422" style="stroke:#181818;stroke-width:1.0;" width="10" x="390.5" y="230.7305"/><rect fill="#FFFFFF" height="29.3105" style="stroke:#181818;stroke-width:1.0;" width="10" x="390.5" y="407.2832"/><rect fill="#FFFFFF" height="30" style="stroke:#181818;stroke-width:1.0;" width="10" x="485" y="142.1094"/><rect fill="#FFFFFF" height="29.3105" style="stroke:#181818;stroke-width:1.0;" width="10" x="591.5" y="260.041"/><rect fill="#FFFFFF" height="59.3105" style="stroke:#181818;stroke-width:1.0;" width="10" x="751.5" y="289.3516"/><rect fill="#FFFFFF" height="30" style="stroke:#181818;stroke-width:1.0;" width="10" x="867" y="318.6621"/><line style="stroke:#181818;stroke-width:0.5;stroke-dasharray:5.0,5.0;" x1="63" x2="63" y1="81.4883" y2="454.5938"/><line style="stroke:#181818;stroke-width:0.5;stroke-dasharray:5.0,5.0;" x1="395.5" x2="395.5" y1="81.4883" y2="454.5938"/><line style="stroke:#181818;stroke-width:0.5;stroke-dasharray:5.0,5.0;" x1="489.5" x2="489.5" y1="81.4883" y2="454.5938"/><line style="stroke:#181818;stroke-width:0.5;stroke-dasharray:5.0,5.0;" x1="596.5" x2="596.5" y1="81.4883" y2="454.5938"/><line style="stroke:#181818;stroke-width:0.5;stroke-dasharray:5.0,5.0;" x1="756" x2="756" y1="81.4883" y2="454.5938"/><line style="stroke:#181818;stroke-width:0.5;stroke-dasharray:5.0,5.0;" x1="872" x2="872" y1="81.4883" y2="454.5938"/><text fill="#000000" font-family="sans-serif" font-size="14" lengthAdjust="spacing" textLength="111" x="5" y="78.5352">Project Manager</text><ellipse cx="63.5" cy="13.5" fill="#E2E2F0" rx="8" ry="8" style="stroke:#181818;stroke-width:0.5;"/><path d="M63.5,21.5 L63.5,48.5 M50.5,29.5 L76.5,29.5 M63.5,48.5 L50.5,63.5 M63.5,48.5 L76.5,63.5 " fill="none" style="stroke:#181818;stroke-width:0.5;"/><text fill="#000000" font-family="sans-serif" font-size="14" lengthAdjust="spacing" textLength="111" x="5" y="467.1289">Project Manager</text><ellipse cx="63.5" cy="478.582" fill="#E2E2F0" rx="8" ry="8" style="stroke:#181818;stroke-width:0.5;"/><path d="M63.5,486.582 L63.5,513.582 M50.5,494.582 L76.5,494.582 M63.5,513.582 L50.5,528.582 M63.5,513.582 L76.5,528.582 " fill="none" style="stroke:#181818;stroke-width:0.5;"/><rect fill="#E2E2F0" height="30.4883" rx="2.5" ry="2.5" style="stroke:#181818;stroke-width:0.5;" width="96" x="347.5" y="50"/><text fill="#000000" font-family="sans-serif" font-size="14" lengthAdjust="spacing" textLength="82" x="354.5" y="70.5352">:GrammarUI</text><rect fill="#E2E2F0" height="30.4883" rx="2.5" ry="2.5" style="stroke:#181818;stroke-width:0.5;" width="96" x="347.5" y="453.5938"/><text fill="#000000" font-family="sans-serif" font-size="14" lengthAdjust="spacing" textLength="82" x="354.5" y="474.1289">:GrammarUI</text><rect fill="#E2E2F0" height="30.4883" rx="2.5" ry="2.5" style="stroke:#181818;stroke-width:0.5;" width="73" x="453.5" y="50"/><text fill="#000000" font-family="sans-serif" font-size="14" lengthAdjust="spacing" textLength="59" x="460.5" y="70.5352">:TextFile</text><rect fill="#E2E2F0" height="30.4883" rx="2.5" ry="2.5" style="stroke:#181818;stroke-width:0.5;" width="73" x="453.5" y="453.5938"/><text fill="#000000" font-family="sans-serif" font-size="14" lengthAdjust="spacing" textLength="59" x="460.5" y="474.1289">:TextFile</text><rect fill="#E2E2F0" height="30.4883" rx="2.5" ry="2.5" style="stroke:#181818;stroke-width:0.5;" width="120" x="536.5" y="50"/><text fill="#000000" font-family="sans-serif" font-size="14" lengthAdjust="spacing" textLength="106" x="543.5" y="70.5352">:GrammarLexer</text><rect fill="#E2E2F0" height="30.4883" rx="2.5" ry="2.5" style="stroke:#181818;stroke-width:0.5;" width="120" x="536.5" y="453.5938"/><text fill="#000000" font-family="sans-serif" font-size="14" lengthAdjust="spacing" textLength="106" x="543.5" y="474.1289">:GrammarLexer</text><rect fill="#E2E2F0" height="30.4883" rx="2.5" ry="2.5" style="stroke:#181818;stroke-width:0.5;" width="125" x="694" y="50"/><text fill="#000000" font-family="sans-serif" font-size="14" lengthAdjust="spacing" textLength="111" x="701" y="70.5352">:GrammarParser</text><rect fill="#E2E2F0" height="30.4883" rx="2.5" ry="2.5" style="stroke:#181818;stroke-width:0.5;" width="125" x="694" y="453.5938"/><text fill="#000000" font-family="sans-serif" font-size="14" lengthAdjust="spacing" textLength="111" x="701" y="474.1289">:GrammarParser</text><rect fill="#E2E2F0" height="30.4883" rx="2.5" ry="2.5" style="stroke:#181818;stroke-width:0.5;" width="86" x="829" y="50"/><text fill="#000000" font-family="sans-serif" font-size="14" lengthAdjust="spacing" textLength="72" x="836" y="70.5352">:ParseTree</text><rect fill="#E2E2F0" height="30.4883" rx="2.5" ry="2.5" style="stroke:#181818;stroke-width:0.5;" width="86" x="829" y="453.5938"/><text fill="#000000" font-family="sans-serif" font-size="14" lengthAdjust="spacing" textLength="72" x="836" y="474.1289">:ParseTree</text><rect fill="#FFFFFF" height="345.1055" style="stroke:#181818;stroke-width:1.0;" width="10" x="58.5" y="91.4883"/><rect fill="#FFFFFF" height="88.6211" style="stroke:#181818;stroke-width:1.0;" width="10" x="390.5" y="112.7988"/><rect fill="#FFFFFF" height="147.2422" style="stroke:#181818;stroke-width:1.0;" width="10" x="390.5" y="230.7305"/><rect fill="#FFFFFF" height="29.3105" style="stroke:#181818;stroke-width:1.0;" width="10" x="390.5" y="407.2832"/><rect fill="#FFFFFF" height="30" style="stroke:#181818;stroke-width:1.0;" width="10" x="485" y="142.1094"/><rect fill="#FFFFFF" height="29.3105" style="stroke:#181818;stroke-width:1.0;" width="10" x="591.5" y="260.041"/><rect fill="#FFFFFF" height="59.3105" style="stroke:#181818;stroke-width:1.0;" width="10" x="751.5" y="289.3516"/><rect fill="#FFFFFF" height="30" style="stroke:#181818;stroke-width:1.0;" width="10" x="867" y="318.6621"/><polygon fill="#181818" points="378.5,108.7988,388.5,112.7988,378.5,116.7988,382.5,112.7988" style="stroke:#181818;stroke-width:1.0;"/><line style="stroke:#181818;stroke-width:1.0;" x1="68.5" x2="384.5" y1="112.7988" y2="112.7988"/><text fill="#000000" font-family="sans-serif" font-size="13" font-weight="bold" lengthAdjust="spacing" textLength="9" x="75.5" y="108.0566">1</text><text fill="#000000" font-family="sans-serif" font-size="13" lengthAdjust="spacing" textLength="260" x="88.5" y="108.0566">start to specify the questionnaire in a file</text><polygon fill="#181818" points="473,138.1094,483,142.1094,473,146.1094,477,142.1094" style="stroke:#181818;stroke-width:1.0;"/><line style="stroke:#181818;stroke-width:1.0;" x1="400.5" x2="479" y1="142.1094" y2="142.1094"/><text fill="#000000" font-family="sans-serif" font-size="13" font-weight="bold" lengthAdjust="spacing" textLength="9" x="407.5" y="137.3672">2</text><text fill="#000000" font-family="sans-serif" font-size="13" lengthAdjust="spacing" textLength="42" x="420.5" y="137.3672">getFile</text><polygon fill="#181818" points="79.5,197.4199,69.5,201.4199,79.5,205.4199,75.5,201.4199" style="stroke:#181818;stroke-width:1.0;"/><line style="stroke:#181818;stroke-width:1.0;stroke-dasharray:2.0,2.0;" x1="73.5" x2="394.5" y1="201.4199" y2="201.4199"/><text fill="#000000" font-family="sans-serif" font-size="13" font-weight="bold" lengthAdjust="spacing" textLength="9" x="85.5" y="196.6777">3</text><text fill="#000000" font-family="sans-serif" font-size="13" lengthAdjust="spacing" textLength="83" x="98.5" y="196.6777">saves the file</text><polygon fill="#181818" points="378.5,226.7305,388.5,230.7305,378.5,234.7305,382.5,230.7305" style="stroke:#181818;stroke-width:1.0;"/><line style="stroke:#181818;stroke-width:1.0;" x1="68.5" x2="384.5" y1="230.7305" y2="230.7305"/><text fill="#000000" font-family="sans-serif" font-size="13" font-weight="bold" lengthAdjust="spacing" textLength="9" x="75.5" y="225.9883">4</text><text fill="#000000" font-family="sans-serif" font-size="13" lengthAdjust="spacing" textLength="290" x="88.5" y="225.9883">asks to validate the grammar of questionnaire</text><polygon fill="#181818" points="579.5,256.041,589.5,260.041,579.5,264.041,583.5,260.041" style="stroke:#181818;stroke-width:1.0;"/><line style="stroke:#181818;stroke-width:1.0;" x1="400.5" x2="585.5" y1="260.041" y2="260.041"/><text fill="#000000" font-family="sans-serif" font-size="13" font-weight="bold" lengthAdjust="spacing" textLength="9" x="407.5" y="255.2988">5</text><text fill="#000000" font-family="sans-serif" font-size="13" lengthAdjust="spacing" textLength="52" x="420.5" y="255.2988">analise()</text><polygon fill="#181818" points="739.5,285.3516,749.5,289.3516,739.5,293.3516,743.5,289.3516" style="stroke:#181818;stroke-width:1.0;"/><line style="stroke:#181818;stroke-width:1.0;" x1="596.5" x2="745.5" y1="289.3516" y2="289.3516"/><text fill="#000000" font-family="sans-serif" font-size="13" font-weight="bold" lengthAdjust="spacing" textLength="9" x="603.5" y="284.6094">6</text><text fill="#000000" font-family="sans-serif" font-size="13" lengthAdjust="spacing" textLength="118" x="616.5" y="284.6094">analise by tokens()</text><polygon fill="#181818" points="855,314.6621,865,318.6621,855,322.6621,859,318.6621" style="stroke:#181818;stroke-width:1.0;"/><line style="stroke:#181818;stroke-width:1.0;" x1="761.5" x2="861" y1="318.6621" y2="318.6621"/><text fill="#000000" font-family="sans-serif" font-size="13" font-weight="bold" lengthAdjust="spacing" textLength="9" x="768.5" y="313.9199">7</text><text fill="#000000" font-family="sans-serif" font-size="13" lengthAdjust="spacing" textLength="46" x="781.5" y="313.9199">create()</text><polygon fill="#181818" points="79.5,373.9727,69.5,377.9727,79.5,381.9727,75.5,377.9727" style="stroke:#181818;stroke-width:1.0;"/><line style="stroke:#181818;stroke-width:1.0;stroke-dasharray:2.0,2.0;" x1="73.5" x2="394.5" y1="377.9727" y2="377.9727"/><text fill="#000000" font-family="sans-serif" font-size="13" font-weight="bold" lengthAdjust="spacing" textLength="9" x="85.5" y="373.2305">8</text><text fill="#000000" font-family="sans-serif" font-size="13" lengthAdjust="spacing" textLength="253" x="98.5" y="373.2305">shows all data and request confirmation</text><polygon fill="#181818" points="378.5,403.2832,388.5,407.2832,378.5,411.2832,382.5,407.2832" style="stroke:#181818;stroke-width:1.0;"/><line style="stroke:#181818;stroke-width:1.0;" x1="68.5" x2="384.5" y1="407.2832" y2="407.2832"/><text fill="#000000" font-family="sans-serif" font-size="13" font-weight="bold" lengthAdjust="spacing" textLength="9" x="75.5" y="402.541">9</text><text fill="#000000" font-family="sans-serif" font-size="13" lengthAdjust="spacing" textLength="111" x="88.5" y="402.541">confirms the data</text><polygon fill="#181818" points="74.5,432.5938,64.5,436.5938,74.5,440.5938,70.5,436.5938" style="stroke:#181818;stroke-width:1.0;"/><line style="stroke:#181818;stroke-width:1.0;stroke-dasharray:2.0,2.0;" x1="68.5" x2="394.5" y1="436.5938" y2="436.5938"/><text fill="#000000" font-family="sans-serif" font-size="13" font-weight="bold" lengthAdjust="spacing" textLength="18" x="80.5" y="431.8516">10</text><text fill="#000000" font-family="sans-serif" font-size="13" lengthAdjust="spacing" textLength="167" x="102.5" y="431.8516">informs operation success</text><!--MD5=[1f4e2be9740227fd0c5b77d4dfa7b66f]
@startuml
autonumber
'hide footbox
actor "Project Manager" as PM
participant ":GrammarUI" as UI
participant ":TextFile" as TF
participant ":GrammarLexer" as GL
participant ":GrammarParser" as GP
participant ":ParseTree" as PS



activate PM

PM -> UI : start to specify the questionnaire in a file
activate UI

UI -> TF : getFile
activate TF

deactivate TF

UI - -> PM : saves the file
deactivate UI

PM -> UI : asks to validate the grammar of questionnaire
activate UI

UI -> GL : analise()
deactivate TF

activate GL
GL -> GP : analise by tokens()
deactivate GL
activate GP
GP -> PS : create()
activate PS
deactivate GP

deactivate PS
UI - -> PM : shows all data and request confirmation
deactivate UI



PM -> UI : confirms the data

activate UI
UI - -> PM : informs operation success
deactivate UI

deactivate UI
deactivate PM

@enduml

@startuml
autonumber
actor "Project Manager" as PM
participant ":GrammarUI" as UI
participant ":TextFile" as TF
participant ":GrammarLexer" as GL
participant ":GrammarParser" as GP
participant ":ParseTree" as PS



activate PM

PM -> UI : start to specify the questionnaire in a file
activate UI

UI -> TF : getFile
activate TF

deactivate TF

UI - -> PM : saves the file
deactivate UI

PM -> UI : asks to validate the grammar of questionnaire
activate UI

UI -> GL : analise()
deactivate TF

activate GL
GL -> GP : analise by tokens()
deactivate GL
activate GP
GP -> PS : create()
activate PS
deactivate GP

deactivate PS
UI - -> PM : shows all data and request confirmation
deactivate UI



PM -> UI : confirms the data

activate UI
UI - -> PM : informs operation success
deactivate UI

deactivate UI
deactivate PM

@enduml

PlantUML version 1.2022.4(Sat Apr 09 14:29:17 WEST 2022)
(GPL source distribution)
Java Runtime: OpenJDK Runtime Environment
JVM: OpenJDK 64-Bit Server VM
Default Encoding: UTF-8
Language: pt
Country: PT
--></g></svg>