<?xml version="1.0" encoding="UTF-8" standalone="no"?><svg xmlns="http://www.w3.org/2000/svg" xmlns:xlink="http://www.w3.org/1999/xlink" contentStyleType="text/css" height="413px" preserveAspectRatio="none" style="width:357px;height:413px;background:#FFFFFF;" version="1.1" viewBox="0 0 357 413" width="357px" zoomAndPan="magnify"><defs/><g><!--MD5=[9681dc6e01e10c6b4fe06895ae94f592]
cluster UI--><g id="cluster_UI"><path d="M60.5,6 L77.5,6 A3.75,3.75 0 0 1 80,8.5 L87,28.2969 L273.5,28.2969 A2.5,2.5 0 0 1 276,30.7969 L276,102.5 A2.5,2.5 0 0 1 273.5,105 L60.5,105 A2.5,2.5 0 0 1 58,102.5 L58,8.5 A2.5,2.5 0 0 1 60.5,6 " style="stroke:#000000;stroke-width:1.5;fill:none;"/><line style="stroke:#000000;stroke-width:1.5;fill:none;" x1="58" x2="87" y1="28.2969" y2="28.2969"/><text fill="#000000" font-family="sans-serif" font-size="14" font-weight="bold" lengthAdjust="spacing" textLength="16" x="62" y="20.9951">UI</text></g><!--MD5=[1f2cfc53d9d308f53762fd0fcbaa4873]
cluster Controller--><g id="cluster_Controller"><path d="M30.5,129 L112.5,129 A3.75,3.75 0 0 1 115,131.5 L122,151.2969 L303.5,151.2969 A2.5,2.5 0 0 1 306,153.7969 L306,225.5 A2.5,2.5 0 0 1 303.5,228 L30.5,228 A2.5,2.5 0 0 1 28,225.5 L28,131.5 A2.5,2.5 0 0 1 30.5,129 " style="stroke:#000000;stroke-width:1.5;fill:none;"/><line style="stroke:#000000;stroke-width:1.5;fill:none;" x1="28" x2="122" y1="151.2969" y2="151.2969"/><text fill="#000000" font-family="sans-serif" font-size="14" font-weight="bold" lengthAdjust="spacing" textLength="81" x="32" y="143.9951">Controller</text></g><!--MD5=[4badbd0983d6782c7244e9911fe17658]
cluster Product--><g id="cluster_Product"><path d="M8.5,252 L73.5,252 A3.75,3.75 0 0 1 76,254.5 L83,274.2969 L193.5,274.2969 A2.5,2.5 0 0 1 196,276.7969 L196,403.5 A2.5,2.5 0 0 1 193.5,406 L8.5,406 A2.5,2.5 0 0 1 6,403.5 L6,254.5 A2.5,2.5 0 0 1 8.5,252 " style="stroke:#000000;stroke-width:1.5;fill:none;"/><line style="stroke:#000000;stroke-width:1.5;fill:none;" x1="6" x2="83" y1="274.2969" y2="274.2969"/><text fill="#000000" font-family="sans-serif" font-size="14" font-weight="bold" lengthAdjust="spacing" textLength="64" x="10" y="266.9951">Product</text><text fill="#000000" font-family="sans-serif" font-size="14" font-style="italic" lengthAdjust="spacing" textLength="93" x="58.5" y="289.292">«Aggregate»</text></g><!--MD5=[5810de2917e203e3e76dad8ecc0f182f]
cluster Category--><g id="cluster_Category"><path d="M222.5,267.5 L296.5,267.5 A3.75,3.75 0 0 1 299,270 L306,289.7969 L347.5,289.7969 A2.5,2.5 0 0 1 350,292.2969 L350,388 A2.5,2.5 0 0 1 347.5,390.5 L222.5,390.5 A2.5,2.5 0 0 1 220,388 L220,270 A2.5,2.5 0 0 1 222.5,267.5 " style="stroke:#000000;stroke-width:1.5;fill:none;"/><line style="stroke:#000000;stroke-width:1.5;fill:none;" x1="220" x2="306" y1="289.7969" y2="289.7969"/><text fill="#000000" font-family="sans-serif" font-size="14" font-weight="bold" lengthAdjust="spacing" textLength="73" x="224" y="282.4951">Category</text><text fill="#000000" font-family="sans-serif" font-size="14" font-style="italic" lengthAdjust="spacing" textLength="93" x="242.5" y="304.792">«Aggregate»</text></g><!--MD5=[60980612b141bad7eafb87f24579ed74]
class SpecifyNewProductUI--><g id="elem_SpecifyNewProductUI"><rect codeLine="4" fill="#F1F1F1" height="48" id="SpecifyNewProductUI" rx="2.5" ry="2.5" style="stroke:#181818;stroke-width:0.5;" width="185" x="74.5" y="41"/><ellipse cx="89.5" cy="57" fill="#ADD1B2" rx="11" ry="11" style="stroke:#181818;stroke-width:1.0;"/><path d="M91.8438,52.6719 C90.9063,52.2344 90.3125,52.0938 89.4375,52.0938 C86.8125,52.0938 84.8125,54.1719 84.8125,56.8906 L84.8125,58.0156 C84.8125,60.5938 86.9219,62.4844 89.8125,62.4844 C91.0313,62.4844 92.1875,62.1875 92.9375,61.6406 C93.5156,61.2344 93.8438,60.7813 93.8438,60.3906 C93.8438,59.9375 93.4531,59.5469 92.9844,59.5469 C92.7656,59.5469 92.5625,59.625 92.375,59.8125 C91.9219,60.2969 91.9219,60.2969 91.7344,60.3906 C91.3125,60.6563 90.625,60.7813 89.8594,60.7813 C87.8125,60.7813 86.5156,59.6875 86.5156,57.9844 L86.5156,56.8906 C86.5156,55.1094 87.7656,53.7969 89.5,53.7969 C90.0781,53.7969 90.6875,53.9531 91.1563,54.2031 C91.6406,54.4844 91.8125,54.7031 91.9063,55.1094 C91.9688,55.5156 92,55.6406 92.1406,55.7656 C92.2813,55.9063 92.5156,56.0156 92.7344,56.0156 C93,56.0156 93.2656,55.875 93.4375,55.6563 C93.5469,55.5 93.5781,55.3125 93.5781,54.8906 L93.5781,53.4688 C93.5781,53.0313 93.5625,52.9063 93.4688,52.75 C93.3125,52.4844 93.0313,52.3438 92.7344,52.3438 C92.4375,52.3438 92.2344,52.4375 92.0156,52.75 L91.8438,52.6719 Z " fill="#000000"/><text fill="#000000" font-family="sans-serif" font-size="14" lengthAdjust="spacing" textLength="153" x="103.5" y="61.8467">SpecifyNewProductUI</text><line style="stroke:#181818;stroke-width:0.5;" x1="75.5" x2="258.5" y1="73" y2="73"/><line style="stroke:#181818;stroke-width:0.5;" x1="75.5" x2="258.5" y1="81" y2="81"/></g><!--MD5=[ab63ddbbe11f7d2a0302e90075dc46cf]
class SpecifyNewProductController--><g id="elem_SpecifyNewProductController"><rect codeLine="9" fill="#F1F1F1" height="48" id="SpecifyNewProductController" rx="2.5" ry="2.5" style="stroke:#181818;stroke-width:0.5;" width="245" x="44.5" y="164"/><ellipse cx="59.5" cy="180" fill="#ADD1B2" rx="11" ry="11" style="stroke:#181818;stroke-width:1.0;"/><path d="M61.8438,175.6719 C60.9063,175.2344 60.3125,175.0938 59.4375,175.0938 C56.8125,175.0938 54.8125,177.1719 54.8125,179.8906 L54.8125,181.0156 C54.8125,183.5938 56.9219,185.4844 59.8125,185.4844 C61.0313,185.4844 62.1875,185.1875 62.9375,184.6406 C63.5156,184.2344 63.8438,183.7813 63.8438,183.3906 C63.8438,182.9375 63.4531,182.5469 62.9844,182.5469 C62.7656,182.5469 62.5625,182.625 62.375,182.8125 C61.9219,183.2969 61.9219,183.2969 61.7344,183.3906 C61.3125,183.6563 60.625,183.7813 59.8594,183.7813 C57.8125,183.7813 56.5156,182.6875 56.5156,180.9844 L56.5156,179.8906 C56.5156,178.1094 57.7656,176.7969 59.5,176.7969 C60.0781,176.7969 60.6875,176.9531 61.1563,177.2031 C61.6406,177.4844 61.8125,177.7031 61.9063,178.1094 C61.9688,178.5156 62,178.6406 62.1406,178.7656 C62.2813,178.9063 62.5156,179.0156 62.7344,179.0156 C63,179.0156 63.2656,178.875 63.4375,178.6563 C63.5469,178.5 63.5781,178.3125 63.5781,177.8906 L63.5781,176.4688 C63.5781,176.0313 63.5625,175.9063 63.4688,175.75 C63.3125,175.4844 63.0313,175.3438 62.7344,175.3438 C62.4375,175.3438 62.2344,175.4375 62.0156,175.75 L61.8438,175.6719 Z " fill="#000000"/><text fill="#000000" font-family="sans-serif" font-size="14" lengthAdjust="spacing" textLength="213" x="73.5" y="184.8467">SpecifyNewProductController</text><line style="stroke:#181818;stroke-width:0.5;" x1="45.5" x2="288.5" y1="196" y2="196"/><line style="stroke:#181818;stroke-width:0.5;" x1="45.5" x2="288.5" y1="204" y2="204"/></g><!--MD5=[72136138052d025cffdce3c22fbd185f]
class Product--><g id="elem_Product"><rect codeLine="15" fill="#F1F1F1" height="86.5313" id="Product" rx="2.5" ry="2.5" style="stroke:#181818;stroke-width:0.5;" width="158" x="22" y="303"/><ellipse cx="68.75" cy="330.1172" fill="#ADD1B2" rx="11" ry="11" style="stroke:#181818;stroke-width:1.0;"/><path d="M67.5469,330.9922 L69,330.9922 L69,331.1016 C69,331.5078 69.0313,331.6641 69.1094,331.8203 C69.2656,332.0703 69.5469,332.2266 69.8438,332.2266 C70.0938,332.2266 70.3594,332.0859 70.5156,331.8672 C70.6406,331.7109 70.6719,331.5547 70.6719,331.1016 L70.6719,329.1797 C70.6719,329.0234 70.6719,328.9766 70.6563,328.8203 C70.5938,328.3516 70.2813,328.0391 69.8281,328.0391 C69.5781,328.0391 69.3125,328.1797 69.1406,328.3984 C69.0313,328.5703 69,328.7266 69,329.1797 L69,329.3047 L67.5469,329.3047 L67.5469,326.8984 L71.5313,326.8984 L71.5313,327.7578 C71.5313,328.1641 71.5625,328.3359 71.6406,328.4922 C71.8125,328.7422 72.0938,328.8984 72.375,328.8984 C72.6406,328.8984 72.9063,328.7578 73.0781,328.5391 C73.1875,328.3672 73.2188,328.2266 73.2188,327.7578 L73.2188,325.2109 L65.5938,325.2109 C65.1563,325.2109 65.0313,325.2266 64.875,325.3203 C64.625,325.4766 64.4688,325.7734 64.4688,326.0547 C64.4688,326.3359 64.6094,326.5859 64.8281,326.7578 C64.9844,326.8672 65.1719,326.8984 65.5938,326.8984 L65.8438,326.8984 L65.8438,333.4141 L65.5938,333.4141 C65.1875,333.4141 65.0313,333.4297 64.875,333.5391 C64.625,333.7109 64.4688,333.9766 64.4688,334.2734 C64.4688,334.5391 64.6094,334.7891 64.8281,334.9453 C64.9688,335.0703 65.2031,335.1172 65.5938,335.1172 L73.5938,335.1172 L73.5938,332.5391 C73.5938,332.1016 73.5625,331.9609 73.4844,331.8047 C73.3125,331.5547 73.0313,331.3984 72.75,331.3984 C72.4844,331.3984 72.2188,331.5078 72.0469,331.7578 C71.9375,331.9141 71.9063,332.0547 71.9063,332.5391 L71.9063,333.4141 L67.5469,333.4141 L67.5469,330.9922 Z " fill="#000000"/><text fill="#000000" font-family="sans-serif" font-size="12" font-style="italic" lengthAdjust="spacing" textLength="50" x="92.25" y="319.1387">«Entity»</text><text fill="#000000" font-family="sans-serif" font-size="12" font-style="italic" lengthAdjust="spacing" textLength="41" x="96.75" y="333.1074">«Root»</text><text fill="#000000" font-family="sans-serif" font-size="14" lengthAdjust="spacing" textLength="56" x="89.25" y="348.9326">Product</text><line style="stroke:#181818;stroke-width:0.5;" x1="23" x2="179" y1="357.2344" y2="357.2344"/><text fill="#000000" font-family="sans-serif" font-size="14" lengthAdjust="spacing" textLength="146" x="28" y="374.2295">-ProductDescription</text><line style="stroke:#181818;stroke-width:0.5;" x1="23" x2="179" y1="381.5313" y2="381.5313"/></g><!--MD5=[a96594a83e2ecdc78cbf17c2ddf01934]
class Category--><g id="elem_Category"><rect codeLine="22" fill="#F1F1F1" height="56.2656" id="Category" rx="2.5" ry="2.5" style="stroke:#181818;stroke-width:0.5;" width="98" x="236" y="318.5"/><ellipse cx="251" cy="338.6328" fill="#ADD1B2" rx="11" ry="11" style="stroke:#181818;stroke-width:1.0;"/><path d="M249.7969,339.5078 L251.25,339.5078 L251.25,339.6172 C251.25,340.0234 251.2813,340.1797 251.3594,340.3359 C251.5156,340.5859 251.7969,340.7422 252.0938,340.7422 C252.3438,340.7422 252.6094,340.6016 252.7656,340.3828 C252.8906,340.2266 252.9219,340.0703 252.9219,339.6172 L252.9219,337.6953 C252.9219,337.5391 252.9219,337.4922 252.9063,337.3359 C252.8438,336.8672 252.5313,336.5547 252.0781,336.5547 C251.8281,336.5547 251.5625,336.6953 251.3906,336.9141 C251.2813,337.0859 251.25,337.2422 251.25,337.6953 L251.25,337.8203 L249.7969,337.8203 L249.7969,335.4141 L253.7813,335.4141 L253.7813,336.2734 C253.7813,336.6797 253.8125,336.8516 253.8906,337.0078 C254.0625,337.2578 254.3438,337.4141 254.625,337.4141 C254.8906,337.4141 255.1563,337.2734 255.3281,337.0547 C255.4375,336.8828 255.4688,336.7422 255.4688,336.2734 L255.4688,333.7266 L247.8438,333.7266 C247.4063,333.7266 247.2813,333.7422 247.125,333.8359 C246.875,333.9922 246.7188,334.2891 246.7188,334.5703 C246.7188,334.8516 246.8594,335.1016 247.0781,335.2734 C247.2344,335.3828 247.4219,335.4141 247.8438,335.4141 L248.0938,335.4141 L248.0938,341.9297 L247.8438,341.9297 C247.4375,341.9297 247.2813,341.9453 247.125,342.0547 C246.875,342.2266 246.7188,342.4922 246.7188,342.7891 C246.7188,343.0547 246.8594,343.3047 247.0781,343.4609 C247.2188,343.5859 247.4531,343.6328 247.8438,343.6328 L255.8438,343.6328 L255.8438,341.0547 C255.8438,340.6172 255.8125,340.4766 255.7344,340.3203 C255.5625,340.0703 255.2813,339.9141 255,339.9141 C254.7344,339.9141 254.4688,340.0234 254.2969,340.2734 C254.1875,340.4297 254.1563,340.5703 254.1563,341.0547 L254.1563,341.9297 L249.7969,341.9297 L249.7969,339.5078 Z " fill="#000000"/><text fill="#000000" font-family="sans-serif" font-size="12" font-style="italic" lengthAdjust="spacing" textLength="50" x="273" y="334.6387">«Entity»</text><text fill="#000000" font-family="sans-serif" font-size="14" lengthAdjust="spacing" textLength="66" x="265" y="350.4639">Category</text><line style="stroke:#181818;stroke-width:0.5;" x1="237" x2="333" y1="358.7656" y2="358.7656"/><line style="stroke:#181818;stroke-width:0.5;" x1="237" x2="333" y1="366.7656" y2="366.7656"/></g><!--MD5=[20ba0d3f866826d0cd8ac1f3585cc6dd]
link SpecifyNewProductUI to SpecifyNewProductController--><g id="link_SpecifyNewProductUI_SpecifyNewProductController"><path codeLine="25" d="M167,89.044 C167,108.766 167,137.243 167,158.414 " fill="none" id="SpecifyNewProductUI-to-SpecifyNewProductController" style="stroke:#181818;stroke-width:1.0;stroke-dasharray:7.0,7.0;"/><polygon fill="#181818" points="167,163.63,171,154.63,167,158.63,163,154.63,167,163.63" style="stroke:#181818;stroke-width:1.0;"/></g><!--MD5=[709b3ff4c9317ffd38a13c00eeb85d3e]
link SpecifyNewProductController to Category--><g id="link_SpecifyNewProductController_Category"><path codeLine="26" d="M184.411,212.092 C204.759,239.078 238.534,283.873 261.269,314.027 " fill="none" id="SpecifyNewProductController-to-Category" style="stroke:#181818;stroke-width:1.0;stroke-dasharray:7.0,7.0;"/><polygon fill="#181818" points="264.541,318.365,262.3174,308.7704,261.5312,314.3724,255.9292,313.5861,264.541,318.365" style="stroke:#181818;stroke-width:1.0;"/></g><!--MD5=[4dd9c7566709ee17763f23c0c4fc2fc4]
link SpecifyNewProductController to Product--><g id="link_SpecifyNewProductController_Product"><path codeLine="27" d="M157.261,212.092 C147.77,234.597 133.056,269.488 121.056,297.943 " fill="none" id="SpecifyNewProductController-to-Product" style="stroke:#181818;stroke-width:1.0;stroke-dasharray:7.0,7.0;"/><polygon fill="#181818" points="119.002,302.813,126.1848,296.0745,120.9448,298.2059,118.8134,292.9659,119.002,302.813" style="stroke:#181818;stroke-width:1.0;"/></g><!--MD5=[fbc8a4ba8d1197946762f8e17d77fce1]
@startuml
skinparam classAttributeIconSize 0

package UI {
class SpecifyNewProductUI {
}
}

package Controller{
class SpecifyNewProductController {

}
}

package Product <<Aggregate>> {
entity Product <<Entity>> <<Root>> {
- ProductDescription
}
}


package Category <<Aggregate>> {
    entity Category <<Entity>>
}

SpecifyNewProductUI ..> SpecifyNewProductController
SpecifyNewProductController ..> Category
SpecifyNewProductController ..> Product
@enduml

PlantUML version 1.2022.4beta2(Unknown compile time)
(GPL source distribution)
Java Runtime: Java(TM) SE Runtime Environment
JVM: Java HotSpot(TM) 64-Bit Server VM
Default Encoding: UTF-8
Language: en
Country: US
--></g></svg>