<?xml version="1.0" encoding="UTF-8" standalone="no"?><svg xmlns="http://www.w3.org/2000/svg" xmlns:xlink="http://www.w3.org/1999/xlink" contentStyleType="text/css" height="388px" preserveAspectRatio="none" style="width:880px;height:388px;background:#FFFFFF;" version="1.1" viewBox="0 0 880 388" width="880px" zoomAndPan="magnify"><defs/><g><rect fill="#FFFFFF" height="190.9297" style="stroke:#181818;stroke-width:1.0;" width="10" x="57.5" y="91.2969"/><rect fill="#FFFFFF" height="29.1328" style="stroke:#181818;stroke-width:1.0;" width="10" x="377.5" y="136.5625"/><rect fill="#FFFFFF" height="29.1328" style="stroke:#181818;stroke-width:1.0;" width="10" x="377.5" y="194.8281"/><rect fill="#FFFFFF" height="29.1328" style="stroke:#181818;stroke-width:1.0;" width="10" x="377.5" y="253.0938"/><rect height="191.9297" style="stroke:#000000;stroke-width:1.5;fill:none;" width="468.5" x="10" y="98.2969"/><line style="stroke:#181818;stroke-width:0.5;fill:none;stroke-dasharray:5.0,5.0;" x1="62" x2="62" y1="81.2969" y2="307.2266"/><line style="stroke:#181818;stroke-width:0.5;fill:none;stroke-dasharray:5.0,5.0;" x1="382.5" x2="382.5" y1="81.2969" y2="307.2266"/><line style="stroke:#181818;stroke-width:0.5;fill:none;stroke-dasharray:5.0,5.0;" x1="594.5" x2="594.5" y1="81.2969" y2="307.2266"/><line style="stroke:#181818;stroke-width:0.5;fill:none;stroke-dasharray:5.0,5.0;" x1="757.5" x2="757.5" y1="81.2969" y2="307.2266"/><line style="stroke:#181818;stroke-width:0.5;fill:none;stroke-dasharray:5.0,5.0;" x1="842.5" x2="842.5" y1="81.2969" y2="307.2266"/><text fill="#000000" font-family="sans-serif" font-size="14" lengthAdjust="spacing" textLength="79" x="20" y="77.9951">Sales Clerk</text><ellipse cx="62.5" cy="13.5" fill="#E2E2F0" rx="8" ry="8" style="stroke:#181818;stroke-width:0.5;"/><path d="M62.5,21.5 L62.5,48.5 M49.5,29.5 L75.5,29.5 M62.5,48.5 L49.5,63.5 M62.5,48.5 L75.5,63.5 " fill="none" style="stroke:#181818;stroke-width:0.5;"/><text fill="#000000" font-family="sans-serif" font-size="14" lengthAdjust="spacing" textLength="79" x="20" y="319.2217">Sales Clerk</text><ellipse cx="62.5" cy="331.0234" fill="#E2E2F0" rx="8" ry="8" style="stroke:#181818;stroke-width:0.5;"/><path d="M62.5,339.0234 L62.5,366.0234 M49.5,347.0234 L75.5,347.0234 M62.5,366.0234 L49.5,381.0234 M62.5,366.0234 L75.5,381.0234 " fill="none" style="stroke:#181818;stroke-width:0.5;"/><rect fill="#E2E2F0" height="30.2969" rx="2.5" ry="2.5" style="stroke:#181818;stroke-width:0.5;" width="172" x="296.5" y="50"/><text fill="#000000" font-family="sans-serif" font-size="14" lengthAdjust="spacing" textLength="158" x="303.5" y="69.9951">:SpecifyNewProductUI</text><rect fill="#E2E2F0" height="30.2969" rx="2.5" ry="2.5" style="stroke:#181818;stroke-width:0.5;" width="172" x="296.5" y="306.2266"/><text fill="#000000" font-family="sans-serif" font-size="14" lengthAdjust="spacing" textLength="158" x="303.5" y="326.2217">:SpecifyNewProductUI</text><rect fill="#E2E2F0" height="30.2969" rx="2.5" ry="2.5" style="stroke:#181818;stroke-width:0.5;" width="232" x="478.5" y="50"/><text fill="#000000" font-family="sans-serif" font-size="14" lengthAdjust="spacing" textLength="218" x="485.5" y="69.9951">:SpecifyNewProductController</text><rect fill="#E2E2F0" height="30.2969" rx="2.5" ry="2.5" style="stroke:#181818;stroke-width:0.5;" width="232" x="478.5" y="306.2266"/><text fill="#000000" font-family="sans-serif" font-size="14" lengthAdjust="spacing" textLength="218" x="485.5" y="326.2217">:SpecifyNewProductController</text><rect fill="#E2E2F0" height="30.2969" rx="2.5" ry="2.5" style="stroke:#181818;stroke-width:0.5;" width="75" x="720.5" y="50"/><text fill="#000000" font-family="sans-serif" font-size="14" lengthAdjust="spacing" textLength="61" x="727.5" y="69.9951">:Product</text><rect fill="#E2E2F0" height="30.2969" rx="2.5" ry="2.5" style="stroke:#181818;stroke-width:0.5;" width="75" x="720.5" y="306.2266"/><text fill="#000000" font-family="sans-serif" font-size="14" lengthAdjust="spacing" textLength="61" x="727.5" y="326.2217">:Product</text><text fill="#000000" font-family="sans-serif" font-size="14" lengthAdjust="spacing" textLength="68" x="805.5" y="77.9951">Database</text><path d="M824.5,29 C824.5,19 842.5,19 842.5,19 C842.5,19 860.5,19 860.5,29 L860.5,55 C860.5,65 842.5,65 842.5,65 C842.5,65 824.5,65 824.5,55 L824.5,29 " fill="#E2E2F0" style="stroke:#181818;stroke-width:1.5;"/><path d="M824.5,29 C824.5,39 842.5,39 842.5,39 C842.5,39 860.5,39 860.5,29 " fill="none" style="stroke:#181818;stroke-width:1.5;"/><text fill="#000000" font-family="sans-serif" font-size="14" lengthAdjust="spacing" textLength="68" x="805.5" y="319.2217">Database</text><path d="M824.5,332.5234 C824.5,322.5234 842.5,322.5234 842.5,322.5234 C842.5,322.5234 860.5,322.5234 860.5,332.5234 L860.5,358.5234 C860.5,368.5234 842.5,368.5234 842.5,368.5234 C842.5,368.5234 824.5,368.5234 824.5,358.5234 L824.5,332.5234 " fill="#E2E2F0" style="stroke:#181818;stroke-width:1.5;"/><path d="M824.5,332.5234 C824.5,342.5234 842.5,342.5234 842.5,342.5234 C842.5,342.5234 860.5,342.5234 860.5,332.5234 " fill="none" style="stroke:#181818;stroke-width:1.5;"/><rect fill="#FFFFFF" height="190.9297" style="stroke:#181818;stroke-width:1.0;" width="10" x="57.5" y="91.2969"/><rect fill="#FFFFFF" height="29.1328" style="stroke:#181818;stroke-width:1.0;" width="10" x="377.5" y="136.5625"/><rect fill="#FFFFFF" height="29.1328" style="stroke:#181818;stroke-width:1.0;" width="10" x="377.5" y="194.8281"/><rect fill="#FFFFFF" height="29.1328" style="stroke:#181818;stroke-width:1.0;" width="10" x="377.5" y="253.0938"/><path d="M10,98.2969 L88,98.2969 L88,105.4297 L78,115.4297 L10,115.4297 L10,98.2969 " fill="#EEEEEE" style="stroke:#000000;stroke-width:1.5;"/><rect fill="none" height="191.9297" style="stroke:#000000;stroke-width:1.5;" width="468.5" x="10" y="98.2969"/><text fill="#000000" font-family="sans-serif" font-size="13" font-weight="bold" lengthAdjust="spacing" textLength="33" x="25" y="111.3638">loop</text><polygon fill="#181818" points="365.5,132.5625,375.5,136.5625,365.5,140.5625,369.5,136.5625" style="stroke:#181818;stroke-width:1.0;"/><line style="stroke:#181818;stroke-width:1.0;" x1="67.5" x2="371.5" y1="136.5625" y2="136.5625"/><text fill="#000000" font-family="sans-serif" font-size="13" font-weight="bold" lengthAdjust="spacing" textLength="9" x="74.5" y="131.4966">1</text><text fill="#000000" font-family="sans-serif" font-size="13" lengthAdjust="spacing" textLength="253" x="87.5" y="131.4966">Starts to specify a new product for sale</text><polygon fill="#181818" points="78.5,161.6953,68.5,165.6953,78.5,169.6953,74.5,165.6953" style="stroke:#181818;stroke-width:1.0;"/><line style="stroke:#181818;stroke-width:1.0;stroke-dasharray:2.0,2.0;" x1="72.5" x2="381.5" y1="165.6953" y2="165.6953"/><text fill="#000000" font-family="sans-serif" font-size="13" font-weight="bold" lengthAdjust="spacing" textLength="9" x="84.5" y="160.6294">2</text><text fill="#000000" font-family="sans-serif" font-size="13" lengthAdjust="spacing" textLength="273" x="97.5" y="160.6294">Requests data (Brand, description, price...)</text><polygon fill="#181818" points="365.5,190.8281,375.5,194.8281,365.5,198.8281,369.5,194.8281" style="stroke:#181818;stroke-width:1.0;"/><line style="stroke:#181818;stroke-width:1.0;" x1="67.5" x2="371.5" y1="194.8281" y2="194.8281"/><text fill="#000000" font-family="sans-serif" font-size="13" font-weight="bold" lengthAdjust="spacing" textLength="8" x="74.5" y="189.7622">3</text><text fill="#000000" font-family="sans-serif" font-size="13" lengthAdjust="spacing" textLength="141" x="86.5" y="189.7622">Types requested data</text><polygon fill="#181818" points="78.5,219.9609,68.5,223.9609,78.5,227.9609,74.5,223.9609" style="stroke:#181818;stroke-width:1.0;"/><line style="stroke:#181818;stroke-width:1.0;stroke-dasharray:2.0,2.0;" x1="72.5" x2="381.5" y1="223.9609" y2="223.9609"/><text fill="#000000" font-family="sans-serif" font-size="13" font-weight="bold" lengthAdjust="spacing" textLength="9" x="84.5" y="218.895">4</text><text fill="#000000" font-family="sans-serif" font-size="13" lengthAdjust="spacing" textLength="266" x="97.5" y="218.895">Shows all data and requests confirmation</text><polygon fill="#181818" points="365.5,249.0938,375.5,253.0938,365.5,257.0938,369.5,253.0938" style="stroke:#181818;stroke-width:1.0;"/><line style="stroke:#181818;stroke-width:1.0;" x1="67.5" x2="371.5" y1="253.0938" y2="253.0938"/><text fill="#000000" font-family="sans-serif" font-size="13" font-weight="bold" lengthAdjust="spacing" textLength="9" x="74.5" y="248.0278">5</text><text fill="#000000" font-family="sans-serif" font-size="13" lengthAdjust="spacing" textLength="116" x="87.5" y="248.0278">Confirms the data</text><polygon fill="#181818" points="73.5,278.2266,63.5,282.2266,73.5,286.2266,69.5,282.2266" style="stroke:#181818;stroke-width:1.0;"/><line style="stroke:#181818;stroke-width:1.0;stroke-dasharray:2.0,2.0;" x1="67.5" x2="381.5" y1="282.2266" y2="282.2266"/><text fill="#000000" font-family="sans-serif" font-size="13" font-weight="bold" lengthAdjust="spacing" textLength="9" x="79.5" y="277.1606">6</text><text fill="#000000" font-family="sans-serif" font-size="13" lengthAdjust="spacing" textLength="190" x="92.5" y="277.1606">Informs operation (in)success</text><!--MD5=[1cbce1337126c46d94c567c60c21b890]
@startuml
autonumber
actor "Sales Clerk" as SC
participant ":SpecifyNewProductUI" as UI
participant ":SpecifyNewProductController" as CTRL
participant ":Product" as Prod

loop
activate SC

SC -> UI : Starts to specify a new product for sale
activate UI

UI - -> SC : Requests data (Brand, description, price...)
deactivate UI

SC -> UI : Types requested data
activate UI

UI - -> SC :Shows all data and requests confirmation
deactivate UI

SC -> UI : Confirms the data
activate UI

UI - -> SC : Informs operation (in)success
deactivate UI

deactivate SC
end loop
database "Database" as DB
@enduml

PlantUML version 1.2022.4beta2(Unknown compile time)
(GPL source distribution)
Java Runtime: Java(TM) SE Runtime Environment
JVM: Java HotSpot(TM) 64-Bit Server VM
Default Encoding: UTF-8
Language: en
Country: US
--></g></svg>