<?xml version="1.0" encoding="UTF-8" standalone="no"?><svg xmlns="http://www.w3.org/2000/svg" xmlns:xlink="http://www.w3.org/1999/xlink" contentStyleType="text/css" height="770px" preserveAspectRatio="none" style="width:1390px;height:770px;background:#FFFFFF;" version="1.1" viewBox="0 0 1390 770" width="1390px" zoomAndPan="magnify"><defs/><g><rect fill="#FFFFFF" height="573.3906" style="stroke:#181818;stroke-width:1.0;" width="10" x="67.5" y="91.2969"/><rect fill="#FFFFFF" height="29.1328" style="stroke:#181818;stroke-width:1.0;" width="10" x="389.5" y="136.5625"/><rect fill="#FFFFFF" height="89.3984" style="stroke:#181818;stroke-width:1.0;" width="10" x="389.5" y="194.8281"/><rect fill="#FFFFFF" height="175.6641" style="stroke:#181818;stroke-width:1.0;" width="10" x="389.5" y="430.7578"/><rect fill="#FFFFFF" height="29.1328" style="stroke:#181818;stroke-width:1.0;" width="10" x="389.5" y="635.5547"/><rect fill="#FFFFFF" height="29.1328" style="stroke:#181818;stroke-width:1.0;" width="10" x="601.5" y="284.2266"/><rect fill="#FFFFFF" height="146.5313" style="stroke:#181818;stroke-width:1.0;" width="10" x="601.5" y="430.7578"/><rect fill="#FFFFFF" height="29.1328" style="stroke:#181818;stroke-width:1.0;" width="10" x="808.5" y="313.3594"/><rect fill="#FFFFFF" height="59.1328" style="stroke:#181818;stroke-width:1.0;" width="10" x="808.5" y="371.625"/><rect fill="#FFFFFF" height="59.1328" style="stroke:#181818;stroke-width:1.0;" width="10" x="975.5" y="342.4922"/><rect fill="#FFFFFF" height="30" style="stroke:#181818;stroke-width:1.0;" width="10" x="1138.5" y="371.625"/><rect fill="#FFFFFF" height="29.1328" style="stroke:#181818;stroke-width:1.0;" width="10" x="1138.5" y="548.1563"/><rect fill="#FFFFFF" height="30" style="stroke:#181818;stroke-width:1.0;" width="10" x="1263" y="489.0234"/><rect height="574.3906" style="stroke:#000000;stroke-width:1.5;fill:none;" width="1305.5" x="10" y="98.2969"/><rect height="46.2656" style="stroke:#000000;stroke-width:1.5;fill:none;" width="470.5" x="20" y="209.8281"/><line style="stroke:#181818;stroke-width:0.5;fill:none;stroke-dasharray:5.0,5.0;" x1="72" x2="72" y1="81.2969" y2="689.6875"/><line style="stroke:#181818;stroke-width:0.5;fill:none;stroke-dasharray:5.0,5.0;" x1="394.5" x2="394.5" y1="81.2969" y2="689.6875"/><line style="stroke:#181818;stroke-width:0.5;fill:none;stroke-dasharray:5.0,5.0;" x1="606.5" x2="606.5" y1="81.2969" y2="689.6875"/><line style="stroke:#181818;stroke-width:0.5;fill:none;stroke-dasharray:5.0,5.0;" x1="813.5" x2="813.5" y1="81.2969" y2="689.6875"/><line style="stroke:#181818;stroke-width:0.5;fill:none;stroke-dasharray:5.0,5.0;" x1="980.5" x2="980.5" y1="81.2969" y2="689.6875"/><line style="stroke:#181818;stroke-width:0.5;fill:none;stroke-dasharray:5.0,5.0;" x1="1143.5" x2="1143.5" y1="81.2969" y2="689.6875"/><line style="stroke:#181818;stroke-width:0.5;fill:none;stroke-dasharray:5.0,5.0;" x1="1267.5" x2="1267.5" y1="81.2969" y2="689.6875"/><line style="stroke:#181818;stroke-width:0.5;fill:none;stroke-dasharray:5.0,5.0;" x1="1352.5" x2="1352.5" y1="81.2969" y2="689.6875"/><text fill="#000000" font-family="sans-serif" font-size="14" lengthAdjust="spacing" textLength="79" x="30" y="77.9951">Sales Clerk</text><ellipse cx="72.5" cy="13.5" fill="#E2E2F0" rx="8" ry="8" style="stroke:#181818;stroke-width:0.5;"/><path d="M72.5,21.5 L72.5,48.5 M59.5,29.5 L85.5,29.5 M72.5,48.5 L59.5,63.5 M72.5,48.5 L85.5,63.5 " fill="none" style="stroke:#181818;stroke-width:0.5;"/><text fill="#000000" font-family="sans-serif" font-size="14" lengthAdjust="spacing" textLength="79" x="30" y="701.6826">Sales Clerk</text><ellipse cx="72.5" cy="713.4844" fill="#E2E2F0" rx="8" ry="8" style="stroke:#181818;stroke-width:0.5;"/><path d="M72.5,721.4844 L72.5,748.4844 M59.5,729.4844 L85.5,729.4844 M72.5,748.4844 L59.5,763.4844 M72.5,748.4844 L85.5,763.4844 " fill="none" style="stroke:#181818;stroke-width:0.5;"/><rect fill="#E2E2F0" height="30.2969" rx="2.5" ry="2.5" style="stroke:#181818;stroke-width:0.5;" width="172" x="308.5" y="50"/><text fill="#000000" font-family="sans-serif" font-size="14" lengthAdjust="spacing" textLength="158" x="315.5" y="69.9951">:SpecifyNewProductUI</text><rect fill="#E2E2F0" height="30.2969" rx="2.5" ry="2.5" style="stroke:#181818;stroke-width:0.5;" width="172" x="308.5" y="688.6875"/><text fill="#000000" font-family="sans-serif" font-size="14" lengthAdjust="spacing" textLength="158" x="315.5" y="708.6826">:SpecifyNewProductUI</text><rect fill="#E2E2F0" height="30.2969" rx="2.5" ry="2.5" style="stroke:#181818;stroke-width:0.5;" width="232" x="490.5" y="50"/><text fill="#000000" font-family="sans-serif" font-size="14" lengthAdjust="spacing" textLength="218" x="497.5" y="69.9951">:SpecifyNewProductController</text><rect fill="#E2E2F0" height="30.2969" rx="2.5" ry="2.5" style="stroke:#181818;stroke-width:0.5;" width="232" x="490.5" y="688.6875"/><text fill="#000000" font-family="sans-serif" font-size="14" lengthAdjust="spacing" textLength="218" x="497.5" y="708.6826">:SpecifyNewProductController</text><rect fill="#E2E2F0" height="30.2969" rx="2.5" ry="2.5" style="stroke:#181818;stroke-width:0.5;" width="162" x="732.5" y="50"/><text fill="#000000" font-family="sans-serif" font-size="14" lengthAdjust="spacing" textLength="148" x="739.5" y="69.9951">:PersistenceContext</text><rect fill="#E2E2F0" height="30.2969" rx="2.5" ry="2.5" style="stroke:#181818;stroke-width:0.5;" width="162" x="732.5" y="688.6875"/><text fill="#000000" font-family="sans-serif" font-size="14" lengthAdjust="spacing" textLength="148" x="739.5" y="708.6826">:PersistenceContext</text><rect fill="#E2E2F0" height="30.2969" rx="2.5" ry="2.5" style="stroke:#181818;stroke-width:0.5;" width="152" x="904.5" y="50"/><text fill="#000000" font-family="sans-serif" font-size="14" lengthAdjust="spacing" textLength="138" x="911.5" y="69.9951">:RepositoryFactory</text><rect fill="#E2E2F0" height="30.2969" rx="2.5" ry="2.5" style="stroke:#181818;stroke-width:0.5;" width="152" x="904.5" y="688.6875"/><text fill="#000000" font-family="sans-serif" font-size="14" lengthAdjust="spacing" textLength="138" x="911.5" y="708.6826">:RepositoryFactory</text><rect fill="#E2E2F0" height="30.2969" rx="2.5" ry="2.5" style="stroke:#181818;stroke-width:0.5;" width="154" x="1066.5" y="50"/><text fill="#000000" font-family="sans-serif" font-size="14" lengthAdjust="spacing" textLength="140" x="1073.5" y="69.9951">:ProductRepository</text><rect fill="#E2E2F0" height="30.2969" rx="2.5" ry="2.5" style="stroke:#181818;stroke-width:0.5;" width="154" x="1066.5" y="688.6875"/><text fill="#000000" font-family="sans-serif" font-size="14" lengthAdjust="spacing" textLength="140" x="1073.5" y="708.6826">:ProductRepository</text><rect fill="#E2E2F0" height="30.2969" rx="2.5" ry="2.5" style="stroke:#181818;stroke-width:0.5;" width="75" x="1230.5" y="50"/><text fill="#000000" font-family="sans-serif" font-size="14" lengthAdjust="spacing" textLength="61" x="1237.5" y="69.9951">:Product</text><rect fill="#E2E2F0" height="30.2969" rx="2.5" ry="2.5" style="stroke:#181818;stroke-width:0.5;" width="75" x="1230.5" y="688.6875"/><text fill="#000000" font-family="sans-serif" font-size="14" lengthAdjust="spacing" textLength="61" x="1237.5" y="708.6826">:Product</text><text fill="#000000" font-family="sans-serif" font-size="14" lengthAdjust="spacing" textLength="68" x="1315.5" y="77.9951">Database</text><path d="M1334.5,29 C1334.5,19 1352.5,19 1352.5,19 C1352.5,19 1370.5,19 1370.5,29 L1370.5,55 C1370.5,65 1352.5,65 1352.5,65 C1352.5,65 1334.5,65 1334.5,55 L1334.5,29 " fill="#E2E2F0" style="stroke:#181818;stroke-width:1.5;"/><path d="M1334.5,29 C1334.5,39 1352.5,39 1352.5,39 C1352.5,39 1370.5,39 1370.5,29 " fill="none" style="stroke:#181818;stroke-width:1.5;"/><text fill="#000000" font-family="sans-serif" font-size="14" lengthAdjust="spacing" textLength="68" x="1315.5" y="701.6826">Database</text><path d="M1334.5,714.9844 C1334.5,704.9844 1352.5,704.9844 1352.5,704.9844 C1352.5,704.9844 1370.5,704.9844 1370.5,714.9844 L1370.5,740.9844 C1370.5,750.9844 1352.5,750.9844 1352.5,750.9844 C1352.5,750.9844 1334.5,750.9844 1334.5,740.9844 L1334.5,714.9844 " fill="#E2E2F0" style="stroke:#181818;stroke-width:1.5;"/><path d="M1334.5,714.9844 C1334.5,724.9844 1352.5,724.9844 1352.5,724.9844 C1352.5,724.9844 1370.5,724.9844 1370.5,714.9844 " fill="none" style="stroke:#181818;stroke-width:1.5;"/><rect fill="#FFFFFF" height="573.3906" style="stroke:#181818;stroke-width:1.0;" width="10" x="67.5" y="91.2969"/><rect fill="#FFFFFF" height="29.1328" style="stroke:#181818;stroke-width:1.0;" width="10" x="389.5" y="136.5625"/><rect fill="#FFFFFF" height="89.3984" style="stroke:#181818;stroke-width:1.0;" width="10" x="389.5" y="194.8281"/><rect fill="#FFFFFF" height="175.6641" style="stroke:#181818;stroke-width:1.0;" width="10" x="389.5" y="430.7578"/><rect fill="#FFFFFF" height="29.1328" style="stroke:#181818;stroke-width:1.0;" width="10" x="389.5" y="635.5547"/><rect fill="#FFFFFF" height="29.1328" style="stroke:#181818;stroke-width:1.0;" width="10" x="601.5" y="284.2266"/><rect fill="#FFFFFF" height="146.5313" style="stroke:#181818;stroke-width:1.0;" width="10" x="601.5" y="430.7578"/><rect fill="#FFFFFF" height="29.1328" style="stroke:#181818;stroke-width:1.0;" width="10" x="808.5" y="313.3594"/><rect fill="#FFFFFF" height="59.1328" style="stroke:#181818;stroke-width:1.0;" width="10" x="808.5" y="371.625"/><rect fill="#FFFFFF" height="59.1328" style="stroke:#181818;stroke-width:1.0;" width="10" x="975.5" y="342.4922"/><rect fill="#FFFFFF" height="30" style="stroke:#181818;stroke-width:1.0;" width="10" x="1138.5" y="371.625"/><rect fill="#FFFFFF" height="29.1328" style="stroke:#181818;stroke-width:1.0;" width="10" x="1138.5" y="548.1563"/><rect fill="#FFFFFF" height="30" style="stroke:#181818;stroke-width:1.0;" width="10" x="1263" y="489.0234"/><path d="M10,98.2969 L88,98.2969 L88,105.4297 L78,115.4297 L10,115.4297 L10,98.2969 " fill="#EEEEEE" style="stroke:#000000;stroke-width:1.5;"/><rect fill="none" height="574.3906" style="stroke:#000000;stroke-width:1.5;" width="1305.5" x="10" y="98.2969"/><text fill="#000000" font-family="sans-serif" font-size="13" font-weight="bold" lengthAdjust="spacing" textLength="33" x="25" y="111.3638">loop</text><text fill="#000000" font-family="sans-serif" font-size="11" font-weight="bold" lengthAdjust="spacing" textLength="555" x="103" y="110.5073">[The mandatory attributes are the internal code, short and extended description.]</text><polygon fill="#181818" points="377.5,132.5625,387.5,136.5625,377.5,140.5625,381.5,136.5625" style="stroke:#181818;stroke-width:1.0;"/><line style="stroke:#181818;stroke-width:1.0;" x1="77.5" x2="383.5" y1="136.5625" y2="136.5625"/><text fill="#000000" font-family="sans-serif" font-size="13" font-weight="bold" lengthAdjust="spacing" textLength="9" x="84.5" y="131.4966">1</text><text fill="#000000" font-family="sans-serif" font-size="13" lengthAdjust="spacing" textLength="253" x="97.5" y="131.4966">Starts to specify a new product for sale</text><polygon fill="#181818" points="88.5,161.6953,78.5,165.6953,88.5,169.6953,84.5,165.6953" style="stroke:#181818;stroke-width:1.0;"/><line style="stroke:#181818;stroke-width:1.0;stroke-dasharray:2.0,2.0;" x1="82.5" x2="393.5" y1="165.6953" y2="165.6953"/><text fill="#000000" font-family="sans-serif" font-size="13" font-weight="bold" lengthAdjust="spacing" textLength="9" x="94.5" y="160.6294">2</text><text fill="#000000" font-family="sans-serif" font-size="13" lengthAdjust="spacing" textLength="273" x="107.5" y="160.6294">Requests data (Brand, description, price...)</text><polygon fill="#181818" points="377.5,190.8281,387.5,194.8281,377.5,198.8281,381.5,194.8281" style="stroke:#181818;stroke-width:1.0;"/><line style="stroke:#181818;stroke-width:1.0;" x1="77.5" x2="383.5" y1="194.8281" y2="194.8281"/><text fill="#000000" font-family="sans-serif" font-size="13" font-weight="bold" lengthAdjust="spacing" textLength="8" x="84.5" y="189.7622">3</text><text fill="#000000" font-family="sans-serif" font-size="13" lengthAdjust="spacing" textLength="141" x="96.5" y="189.7622">Types requested data</text><path d="M20,209.8281 L98,209.8281 L98,216.9609 L88,226.9609 L20,226.9609 L20,209.8281 " fill="#EEEEEE" style="stroke:#000000;stroke-width:1.5;"/><rect fill="none" height="46.2656" style="stroke:#000000;stroke-width:1.5;" width="470.5" x="20" y="209.8281"/><text fill="#000000" font-family="sans-serif" font-size="13" font-weight="bold" lengthAdjust="spacing" textLength="33" x="35" y="222.895">loop</text><polygon fill="#181818" points="377.5,244.0938,387.5,248.0938,377.5,252.0938,381.5,248.0938" style="stroke:#181818;stroke-width:1.0;"/><line style="stroke:#181818;stroke-width:1.0;" x1="77.5" x2="383.5" y1="248.0938" y2="248.0938"/><text fill="#000000" font-family="sans-serif" font-size="13" font-weight="bold" lengthAdjust="spacing" textLength="9" x="84.5" y="243.0278">4</text><text fill="#000000" font-family="sans-serif" font-size="13" lengthAdjust="spacing" textLength="99" x="97.5" y="243.0278">Uploads picture</text><polygon fill="#181818" points="589.5,280.2266,599.5,284.2266,589.5,288.2266,593.5,284.2266" style="stroke:#181818;stroke-width:1.0;"/><line style="stroke:#181818;stroke-width:1.0;" x1="394.5" x2="595.5" y1="284.2266" y2="284.2266"/><text fill="#000000" font-family="sans-serif" font-size="13" font-weight="bold" lengthAdjust="spacing" textLength="9" x="401.5" y="279.1606">5</text><text fill="#000000" font-family="sans-serif" font-size="13" lengthAdjust="spacing" textLength="41" x="414.5" y="279.1606">create</text><polygon fill="#181818" points="796.5,309.3594,806.5,313.3594,796.5,317.3594,800.5,313.3594" style="stroke:#181818;stroke-width:1.0;"/><line style="stroke:#181818;stroke-width:1.0;" x1="606.5" x2="802.5" y1="313.3594" y2="313.3594"/><text fill="#000000" font-family="sans-serif" font-size="13" font-weight="bold" lengthAdjust="spacing" textLength="9" x="613.5" y="308.2935">6</text><text fill="#000000" font-family="sans-serif" font-size="13" lengthAdjust="spacing" textLength="85" x="626.5" y="308.2935">repositories()</text><polygon fill="#181818" points="963.5,338.4922,973.5,342.4922,963.5,346.4922,967.5,342.4922" style="stroke:#181818;stroke-width:1.0;"/><line style="stroke:#181818;stroke-width:1.0;" x1="813.5" x2="969.5" y1="342.4922" y2="342.4922"/><text fill="#000000" font-family="sans-serif" font-size="13" font-weight="bold" lengthAdjust="spacing" textLength="9" x="820.5" y="337.4263">7</text><text fill="#000000" font-family="sans-serif" font-size="13" lengthAdjust="spacing" textLength="41" x="833.5" y="337.4263">create</text><polygon fill="#181818" points="1126.5,367.625,1136.5,371.625,1126.5,375.625,1130.5,371.625" style="stroke:#181818;stroke-width:1.0;"/><line style="stroke:#181818;stroke-width:1.0;" x1="985.5" x2="1132.5" y1="371.625" y2="371.625"/><text fill="#000000" font-family="sans-serif" font-size="13" font-weight="bold" lengthAdjust="spacing" textLength="9" x="992.5" y="366.5591">8</text><text fill="#000000" font-family="sans-serif" font-size="13" lengthAdjust="spacing" textLength="41" x="1005.5" y="366.5591">create</text><polygon fill="#181818" points="622.5,426.7578,612.5,430.7578,622.5,434.7578,618.5,430.7578" style="stroke:#181818;stroke-width:1.0;"/><line style="stroke:#181818;stroke-width:1.0;" x1="616.5" x2="812.5" y1="430.7578" y2="430.7578"/><text fill="#000000" font-family="sans-serif" font-size="13" font-weight="bold" lengthAdjust="spacing" textLength="9" x="628.5" y="425.6919">9</text><text fill="#000000" font-family="sans-serif" font-size="13" lengthAdjust="spacing" textLength="118" x="641.5" y="425.6919">ProductRepository</text><polygon fill="#181818" points="589.5,455.8906,599.5,459.8906,589.5,463.8906,593.5,459.8906" style="stroke:#181818;stroke-width:1.0;"/><line style="stroke:#181818;stroke-width:1.0;" x1="399.5" x2="595.5" y1="459.8906" y2="459.8906"/><text fill="#000000" font-family="sans-serif" font-size="13" font-weight="bold" lengthAdjust="spacing" textLength="19" x="406.5" y="454.8247">10</text><text fill="#000000" font-family="sans-serif" font-size="13" lengthAdjust="spacing" textLength="133" x="429.5" y="454.8247">specifyNewProduct()</text><polygon fill="#181818" points="1251,485.0234,1261,489.0234,1251,493.0234,1255,489.0234" style="stroke:#181818;stroke-width:1.0;"/><line style="stroke:#181818;stroke-width:1.0;" x1="611.5" x2="1257" y1="489.0234" y2="489.0234"/><text fill="#000000" font-family="sans-serif" font-size="13" font-weight="bold" lengthAdjust="spacing" textLength="18" x="618.5" y="483.9575">11</text><text fill="#000000" font-family="sans-serif" font-size="13" lengthAdjust="spacing" textLength="145" x="640.5" y="483.9575">newProduct = create()</text><polygon fill="#181818" points="1126.5,544.1563,1136.5,548.1563,1126.5,552.1563,1130.5,548.1563" style="stroke:#181818;stroke-width:1.0;"/><line style="stroke:#181818;stroke-width:1.0;" x1="611.5" x2="1132.5" y1="548.1563" y2="548.1563"/><text fill="#000000" font-family="sans-serif" font-size="13" font-weight="bold" lengthAdjust="spacing" textLength="18" x="618.5" y="543.0903">12</text><text fill="#000000" font-family="sans-serif" font-size="13" lengthAdjust="spacing" textLength="117" x="640.5" y="543.0903">save(newProduct)</text><polygon fill="#181818" points="410.5,573.2891,400.5,577.2891,410.5,581.2891,406.5,577.2891" style="stroke:#181818;stroke-width:1.0;"/><line style="stroke:#181818;stroke-width:1.0;" x1="404.5" x2="605.5" y1="577.2891" y2="577.2891"/><text fill="#000000" font-family="sans-serif" font-size="13" font-weight="bold" lengthAdjust="spacing" textLength="17" x="416.5" y="572.2231">13</text><text fill="#000000" font-family="sans-serif" font-size="13" lengthAdjust="spacing" textLength="76" x="437.5" y="572.2231">newProduct</text><polygon fill="#181818" points="88.5,602.4219,78.5,606.4219,88.5,610.4219,84.5,606.4219" style="stroke:#181818;stroke-width:1.0;"/><line style="stroke:#181818;stroke-width:1.0;stroke-dasharray:2.0,2.0;" x1="82.5" x2="393.5" y1="606.4219" y2="606.4219"/><text fill="#000000" font-family="sans-serif" font-size="13" font-weight="bold" lengthAdjust="spacing" textLength="18" x="94.5" y="601.356">14</text><text fill="#000000" font-family="sans-serif" font-size="13" lengthAdjust="spacing" textLength="266" x="116.5" y="601.356">Shows all data and requests confirmation</text><polygon fill="#181818" points="377.5,631.5547,387.5,635.5547,377.5,639.5547,381.5,635.5547" style="stroke:#181818;stroke-width:1.0;"/><line style="stroke:#181818;stroke-width:1.0;" x1="77.5" x2="383.5" y1="635.5547" y2="635.5547"/><text fill="#000000" font-family="sans-serif" font-size="13" font-weight="bold" lengthAdjust="spacing" textLength="18" x="84.5" y="630.4888">15</text><text fill="#000000" font-family="sans-serif" font-size="13" lengthAdjust="spacing" textLength="116" x="106.5" y="630.4888">Confirms the data</text><polygon fill="#181818" points="83.5,660.6875,73.5,664.6875,83.5,668.6875,79.5,664.6875" style="stroke:#181818;stroke-width:1.0;"/><line style="stroke:#181818;stroke-width:1.0;stroke-dasharray:2.0,2.0;" x1="77.5" x2="393.5" y1="664.6875" y2="664.6875"/><text fill="#000000" font-family="sans-serif" font-size="13" font-weight="bold" lengthAdjust="spacing" textLength="18" x="89.5" y="659.6216">16</text><text fill="#000000" font-family="sans-serif" font-size="13" lengthAdjust="spacing" textLength="190" x="111.5" y="659.6216">Informs operation (in)success</text><!--MD5=[5cb24c16199bb919bfb2e718ea68f2f1]
@startuml
autonumber
actor "Sales Clerk" as SC
participant ":SpecifyNewProductUI" as UI
participant ":SpecifyNewProductController" as CTRL
participant ":PersistenceContext" as PC
participant ":RepositoryFactory" as RF
participant ":ProductRepository" as ProdRep
participant ":Product" as Prod

loop The mandatory attributes are the internal code, short and extended description.
activate SC

SC -> UI : Starts to specify a new product for sale
activate UI

UI - -> SC : Requests data (Brand, description, price...)
deactivate UI

SC -> UI : Types requested data
activate UI
loop
SC -> UI : Uploads picture
end loop


UI -> CTRL : create
deactivate UI
activate CTRL


CTRL -> PC : repositories()
deactivate CTRL
activate PC
PC -> RF : create
deactivate PC
activate RF

RF -> ProdRep : create
activate ProdRep
deactivate RF


deactivate ProdRep

activate PC
PC -> CTRL : ProductRepository
deactivate PC
activate CTRL
deactivate CTRL

activate UI
UI -> CTRL : specifyNewProduct()

CTRL -> Prod : newProduct = create()
activate Prod
deactivate Prod


CTRL -> ProdRep : save(newProduct)
activate ProdRep

CTRL -> UI : newProduct

deactivate CTRL

deactivate ProdRep

UI - -> SC :Shows all data and requests confirmation
deactivate UI

SC -> UI : Confirms the data
activate UI

UI - -> SC : Informs operation (in)success
deactivate UI

deactivate SC
end loop
database "Database" as DB
@enduml

PlantUML version 1.2022.4beta2(Unknown compile time)
(GPL source distribution)
Java Runtime: Java(TM) SE Runtime Environment
JVM: Java HotSpot(TM) 64-Bit Server VM
Default Encoding: UTF-8
Language: en
Country: US
--></g></svg>