<?xml version="1.0" encoding="UTF-8" standalone="no"?><svg xmlns="http://www.w3.org/2000/svg" xmlns:xlink="http://www.w3.org/1999/xlink" contentStyleType="text/css" height="496px" preserveAspectRatio="none" style="width:357px;height:496px;background:#FFFFFF;" version="1.1" viewBox="0 0 357 496" width="357px" zoomAndPan="magnify"><defs/><g><!--MD5=[9681dc6e01e10c6b4fe06895ae94f592]
cluster UI--><g id="cluster_UI"><path d="M65.5,6 L82.5,6 A3.75,3.75 0 0 1 85,8.5 L92,28.2969 L278.5,28.2969 A2.5,2.5 0 0 1 281,30.7969 L281,102.5 A2.5,2.5 0 0 1 278.5,105 L65.5,105 A2.5,2.5 0 0 1 63,102.5 L63,8.5 A2.5,2.5 0 0 1 65.5,6 " style="stroke:#000000;stroke-width:1.5;fill:none;"/><line style="stroke:#000000;stroke-width:1.5;fill:none;" x1="63" x2="92" y1="28.2969" y2="28.2969"/><text fill="#000000" font-family="sans-serif" font-size="14" font-weight="bold" lengthAdjust="spacing" textLength="16" x="67" y="20.9951">UI</text></g><!--MD5=[1f2cfc53d9d308f53762fd0fcbaa4873]
cluster Controller--><g id="cluster_Controller"><path d="M35.5,175 L117.5,175 A3.75,3.75 0 0 1 120,177.5 L127,197.2969 L308.5,197.2969 A2.5,2.5 0 0 1 311,199.7969 L311,271.5 A2.5,2.5 0 0 1 308.5,274 L35.5,274 A2.5,2.5 0 0 1 33,271.5 L33,177.5 A2.5,2.5 0 0 1 35.5,175 " style="stroke:#000000;stroke-width:1.5;fill:none;"/><line style="stroke:#000000;stroke-width:1.5;fill:none;" x1="33" x2="127" y1="197.2969" y2="197.2969"/><text fill="#000000" font-family="sans-serif" font-size="14" font-weight="bold" lengthAdjust="spacing" textLength="81" x="37" y="189.9951">Controller</text></g><!--MD5=[4badbd0983d6782c7244e9911fe17658]
cluster Product--><g id="cluster_Product"><path d="M8.5,335 L73.5,335 A3.75,3.75 0 0 1 76,337.5 L83,357.2969 L193.5,357.2969 A2.5,2.5 0 0 1 196,359.7969 L196,486.5 A2.5,2.5 0 0 1 193.5,489 L8.5,489 A2.5,2.5 0 0 1 6,486.5 L6,337.5 A2.5,2.5 0 0 1 8.5,335 " style="stroke:#000000;stroke-width:1.5;fill:none;"/><line style="stroke:#000000;stroke-width:1.5;fill:none;" x1="6" x2="83" y1="357.2969" y2="357.2969"/><text fill="#000000" font-family="sans-serif" font-size="14" font-weight="bold" lengthAdjust="spacing" textLength="64" x="10" y="349.9951">Product</text><text fill="#000000" font-family="sans-serif" font-size="14" font-style="italic" lengthAdjust="spacing" textLength="93" x="58.5" y="372.292">«Aggregate»</text></g><!--MD5=[5810de2917e203e3e76dad8ecc0f182f]
cluster Category--><g id="cluster_Category"><path d="M222.5,350.5 L296.5,350.5 A3.75,3.75 0 0 1 299,353 L306,372.7969 L347.5,372.7969 A2.5,2.5 0 0 1 350,375.2969 L350,471 A2.5,2.5 0 0 1 347.5,473.5 L222.5,473.5 A2.5,2.5 0 0 1 220,471 L220,353 A2.5,2.5 0 0 1 222.5,350.5 " style="stroke:#000000;stroke-width:1.5;fill:none;"/><line style="stroke:#000000;stroke-width:1.5;fill:none;" x1="220" x2="306" y1="372.7969" y2="372.7969"/><text fill="#000000" font-family="sans-serif" font-size="14" font-weight="bold" lengthAdjust="spacing" textLength="73" x="224" y="365.4951">Category</text><text fill="#000000" font-family="sans-serif" font-size="14" font-style="italic" lengthAdjust="spacing" textLength="93" x="242.5" y="387.792">«Aggregate»</text></g><!--MD5=[60980612b141bad7eafb87f24579ed74]
class SpecifyNewProductUI--><g id="elem_SpecifyNewProductUI"><rect codeLine="4" fill="#F1F1F1" height="48" id="SpecifyNewProductUI" rx="2.5" ry="2.5" style="stroke:#181818;stroke-width:0.5;" width="185" x="79.5" y="41"/><ellipse cx="94.5" cy="57" fill="#ADD1B2" rx="11" ry="11" style="stroke:#181818;stroke-width:1.0;"/><path d="M96.8438,52.6719 C95.9063,52.2344 95.3125,52.0938 94.4375,52.0938 C91.8125,52.0938 89.8125,54.1719 89.8125,56.8906 L89.8125,58.0156 C89.8125,60.5938 91.9219,62.4844 94.8125,62.4844 C96.0313,62.4844 97.1875,62.1875 97.9375,61.6406 C98.5156,61.2344 98.8438,60.7813 98.8438,60.3906 C98.8438,59.9375 98.4531,59.5469 97.9844,59.5469 C97.7656,59.5469 97.5625,59.625 97.375,59.8125 C96.9219,60.2969 96.9219,60.2969 96.7344,60.3906 C96.3125,60.6563 95.625,60.7813 94.8594,60.7813 C92.8125,60.7813 91.5156,59.6875 91.5156,57.9844 L91.5156,56.8906 C91.5156,55.1094 92.7656,53.7969 94.5,53.7969 C95.0781,53.7969 95.6875,53.9531 96.1563,54.2031 C96.6406,54.4844 96.8125,54.7031 96.9063,55.1094 C96.9688,55.5156 97,55.6406 97.1406,55.7656 C97.2813,55.9063 97.5156,56.0156 97.7344,56.0156 C98,56.0156 98.2656,55.875 98.4375,55.6563 C98.5469,55.5 98.5781,55.3125 98.5781,54.8906 L98.5781,53.4688 C98.5781,53.0313 98.5625,52.9063 98.4688,52.75 C98.3125,52.4844 98.0313,52.3438 97.7344,52.3438 C97.4375,52.3438 97.2344,52.4375 97.0156,52.75 L96.8438,52.6719 Z " fill="#000000"/><text fill="#000000" font-family="sans-serif" font-size="14" lengthAdjust="spacing" textLength="153" x="108.5" y="61.8467">SpecifyNewProductUI</text><line style="stroke:#181818;stroke-width:0.5;" x1="80.5" x2="263.5" y1="73" y2="73"/><line style="stroke:#181818;stroke-width:0.5;" x1="80.5" x2="263.5" y1="81" y2="81"/></g><!--MD5=[ab63ddbbe11f7d2a0302e90075dc46cf]
class SpecifyNewProductController--><g id="elem_SpecifyNewProductController"><rect codeLine="9" fill="#F1F1F1" height="48" id="SpecifyNewProductController" rx="2.5" ry="2.5" style="stroke:#181818;stroke-width:0.5;" width="245" x="49.5" y="210"/><ellipse cx="64.5" cy="226" fill="#ADD1B2" rx="11" ry="11" style="stroke:#181818;stroke-width:1.0;"/><path d="M66.8438,221.6719 C65.9063,221.2344 65.3125,221.0938 64.4375,221.0938 C61.8125,221.0938 59.8125,223.1719 59.8125,225.8906 L59.8125,227.0156 C59.8125,229.5938 61.9219,231.4844 64.8125,231.4844 C66.0313,231.4844 67.1875,231.1875 67.9375,230.6406 C68.5156,230.2344 68.8438,229.7813 68.8438,229.3906 C68.8438,228.9375 68.4531,228.5469 67.9844,228.5469 C67.7656,228.5469 67.5625,228.625 67.375,228.8125 C66.9219,229.2969 66.9219,229.2969 66.7344,229.3906 C66.3125,229.6563 65.625,229.7813 64.8594,229.7813 C62.8125,229.7813 61.5156,228.6875 61.5156,226.9844 L61.5156,225.8906 C61.5156,224.1094 62.7656,222.7969 64.5,222.7969 C65.0781,222.7969 65.6875,222.9531 66.1563,223.2031 C66.6406,223.4844 66.8125,223.7031 66.9063,224.1094 C66.9688,224.5156 67,224.6406 67.1406,224.7656 C67.2813,224.9063 67.5156,225.0156 67.7344,225.0156 C68,225.0156 68.2656,224.875 68.4375,224.6563 C68.5469,224.5 68.5781,224.3125 68.5781,223.8906 L68.5781,222.4688 C68.5781,222.0313 68.5625,221.9063 68.4688,221.75 C68.3125,221.4844 68.0313,221.3438 67.7344,221.3438 C67.4375,221.3438 67.2344,221.4375 67.0156,221.75 L66.8438,221.6719 Z " fill="#000000"/><text fill="#000000" font-family="sans-serif" font-size="14" lengthAdjust="spacing" textLength="213" x="78.5" y="230.8467">SpecifyNewProductController</text><line style="stroke:#181818;stroke-width:0.5;" x1="50.5" x2="293.5" y1="242" y2="242"/><line style="stroke:#181818;stroke-width:0.5;" x1="50.5" x2="293.5" y1="250" y2="250"/></g><!--MD5=[72136138052d025cffdce3c22fbd185f]
class Product--><g id="elem_Product"><rect codeLine="15" fill="#F1F1F1" height="86.5313" id="Product" rx="2.5" ry="2.5" style="stroke:#181818;stroke-width:0.5;" width="158" x="22" y="386"/><ellipse cx="68.75" cy="413.1172" fill="#ADD1B2" rx="11" ry="11" style="stroke:#181818;stroke-width:1.0;"/><path d="M67.5469,413.9922 L69,413.9922 L69,414.1016 C69,414.5078 69.0313,414.6641 69.1094,414.8203 C69.2656,415.0703 69.5469,415.2266 69.8438,415.2266 C70.0938,415.2266 70.3594,415.0859 70.5156,414.8672 C70.6406,414.7109 70.6719,414.5547 70.6719,414.1016 L70.6719,412.1797 C70.6719,412.0234 70.6719,411.9766 70.6563,411.8203 C70.5938,411.3516 70.2813,411.0391 69.8281,411.0391 C69.5781,411.0391 69.3125,411.1797 69.1406,411.3984 C69.0313,411.5703 69,411.7266 69,412.1797 L69,412.3047 L67.5469,412.3047 L67.5469,409.8984 L71.5313,409.8984 L71.5313,410.7578 C71.5313,411.1641 71.5625,411.3359 71.6406,411.4922 C71.8125,411.7422 72.0938,411.8984 72.375,411.8984 C72.6406,411.8984 72.9063,411.7578 73.0781,411.5391 C73.1875,411.3672 73.2188,411.2266 73.2188,410.7578 L73.2188,408.2109 L65.5938,408.2109 C65.1563,408.2109 65.0313,408.2266 64.875,408.3203 C64.625,408.4766 64.4688,408.7734 64.4688,409.0547 C64.4688,409.3359 64.6094,409.5859 64.8281,409.7578 C64.9844,409.8672 65.1719,409.8984 65.5938,409.8984 L65.8438,409.8984 L65.8438,416.4141 L65.5938,416.4141 C65.1875,416.4141 65.0313,416.4297 64.875,416.5391 C64.625,416.7109 64.4688,416.9766 64.4688,417.2734 C64.4688,417.5391 64.6094,417.7891 64.8281,417.9453 C64.9688,418.0703 65.2031,418.1172 65.5938,418.1172 L73.5938,418.1172 L73.5938,415.5391 C73.5938,415.1016 73.5625,414.9609 73.4844,414.8047 C73.3125,414.5547 73.0313,414.3984 72.75,414.3984 C72.4844,414.3984 72.2188,414.5078 72.0469,414.7578 C71.9375,414.9141 71.9063,415.0547 71.9063,415.5391 L71.9063,416.4141 L67.5469,416.4141 L67.5469,413.9922 Z " fill="#000000"/><text fill="#000000" font-family="sans-serif" font-size="12" font-style="italic" lengthAdjust="spacing" textLength="50" x="92.25" y="402.1387">«Entity»</text><text fill="#000000" font-family="sans-serif" font-size="12" font-style="italic" lengthAdjust="spacing" textLength="41" x="96.75" y="416.1074">«Root»</text><text fill="#000000" font-family="sans-serif" font-size="14" lengthAdjust="spacing" textLength="56" x="89.25" y="431.9326">Product</text><line style="stroke:#181818;stroke-width:0.5;" x1="23" x2="179" y1="440.2344" y2="440.2344"/><text fill="#000000" font-family="sans-serif" font-size="14" lengthAdjust="spacing" textLength="146" x="28" y="457.2295">-ProductDescription</text><line style="stroke:#181818;stroke-width:0.5;" x1="23" x2="179" y1="464.5313" y2="464.5313"/></g><!--MD5=[a96594a83e2ecdc78cbf17c2ddf01934]
class Category--><g id="elem_Category"><rect codeLine="22" fill="#F1F1F1" height="56.2656" id="Category" rx="2.5" ry="2.5" style="stroke:#181818;stroke-width:0.5;" width="98" x="236" y="401.5"/><ellipse cx="251" cy="421.6328" fill="#ADD1B2" rx="11" ry="11" style="stroke:#181818;stroke-width:1.0;"/><path d="M249.7969,422.5078 L251.25,422.5078 L251.25,422.6172 C251.25,423.0234 251.2813,423.1797 251.3594,423.3359 C251.5156,423.5859 251.7969,423.7422 252.0938,423.7422 C252.3438,423.7422 252.6094,423.6016 252.7656,423.3828 C252.8906,423.2266 252.9219,423.0703 252.9219,422.6172 L252.9219,420.6953 C252.9219,420.5391 252.9219,420.4922 252.9063,420.3359 C252.8438,419.8672 252.5313,419.5547 252.0781,419.5547 C251.8281,419.5547 251.5625,419.6953 251.3906,419.9141 C251.2813,420.0859 251.25,420.2422 251.25,420.6953 L251.25,420.8203 L249.7969,420.8203 L249.7969,418.4141 L253.7813,418.4141 L253.7813,419.2734 C253.7813,419.6797 253.8125,419.8516 253.8906,420.0078 C254.0625,420.2578 254.3438,420.4141 254.625,420.4141 C254.8906,420.4141 255.1563,420.2734 255.3281,420.0547 C255.4375,419.8828 255.4688,419.7422 255.4688,419.2734 L255.4688,416.7266 L247.8438,416.7266 C247.4063,416.7266 247.2813,416.7422 247.125,416.8359 C246.875,416.9922 246.7188,417.2891 246.7188,417.5703 C246.7188,417.8516 246.8594,418.1016 247.0781,418.2734 C247.2344,418.3828 247.4219,418.4141 247.8438,418.4141 L248.0938,418.4141 L248.0938,424.9297 L247.8438,424.9297 C247.4375,424.9297 247.2813,424.9453 247.125,425.0547 C246.875,425.2266 246.7188,425.4922 246.7188,425.7891 C246.7188,426.0547 246.8594,426.3047 247.0781,426.4609 C247.2188,426.5859 247.4531,426.6328 247.8438,426.6328 L255.8438,426.6328 L255.8438,424.0547 C255.8438,423.6172 255.8125,423.4766 255.7344,423.3203 C255.5625,423.0703 255.2813,422.9141 255,422.9141 C254.7344,422.9141 254.4688,423.0234 254.2969,423.2734 C254.1875,423.4297 254.1563,423.5703 254.1563,424.0547 L254.1563,424.9297 L249.7969,424.9297 L249.7969,422.5078 Z " fill="#000000"/><text fill="#000000" font-family="sans-serif" font-size="12" font-style="italic" lengthAdjust="spacing" textLength="50" x="273" y="417.6387">«Entity»</text><text fill="#000000" font-family="sans-serif" font-size="14" lengthAdjust="spacing" textLength="66" x="265" y="433.4639">Category</text><line style="stroke:#181818;stroke-width:0.5;" x1="237" x2="333" y1="441.7656" y2="441.7656"/><line style="stroke:#181818;stroke-width:0.5;" x1="237" x2="333" y1="449.7656" y2="449.7656"/></g><!--MD5=[20ba0d3f866826d0cd8ac1f3585cc6dd]
link SpecifyNewProductUI to SpecifyNewProductController--><g id="link_SpecifyNewProductUI_SpecifyNewProductController"><path codeLine="25" d="M172,89.221 C172,119.506 172,172.446 172,204.943 " fill="none" id="SpecifyNewProductUI-to-SpecifyNewProductController" style="stroke:#181818;stroke-width:1.0;stroke-dasharray:7.0,7.0;"/><polygon fill="#181818" points="172,209.977,176,200.977,172,204.977,168,200.977,172,209.977" style="stroke:#181818;stroke-width:1.0;"/></g><!--MD5=[709b3ff4c9317ffd38a13c00eeb85d3e]
link SpecifyNewProductController to Category--><g id="link_SpecifyNewProductController_Category"><path codeLine="26" d="M185.63,258.341 C205.824,292.92 243.742,357.851 266.45,396.736 " fill="none" id="SpecifyNewProductController-to-Category" style="stroke:#181818;stroke-width:1.0;stroke-dasharray:7.0,7.0;"/><polygon fill="#181818" points="269.142,401.345,268.0585,391.5559,266.621,397.0271,261.1498,395.5896,269.142,401.345" style="stroke:#181818;stroke-width:1.0;"/></g><!--MD5=[4dd9c7566709ee17763f23c0c4fc2fc4]
link SpecifyNewProductController to Product--><g id="link_SpecifyNewProductController_Product"><path codeLine="27" d="M163.436,258.341 C152.388,288.451 132.896,341.573 118.622,380.474 " fill="none" id="SpecifyNewProductController-to-Product" style="stroke:#181818;stroke-width:1.0;stroke-dasharray:7.0,7.0;"/><polygon fill="#181818" points="116.732,385.625,123.5867,378.5531,118.4539,380.9308,116.0761,375.798,116.732,385.625" style="stroke:#181818;stroke-width:1.0;"/></g><!--MD5=[d25e8dea931917d6b301a85b46a0958c]
@startuml
skinparam classAttributeIconSize 0

package UI {
class SpecifyNewProductUI {
}
}

package Controller{
class SpecifyNewProductController {

}
}

package Product <<Aggregate>> {
entity Product <<Entity>> <<Root>> {
- ProductDescription
}
}


package Category <<Aggregate>> {
    entity Category <<Entity>>
}

SpecifyNewProductUI ...> SpecifyNewProductController
SpecifyNewProductController ...> Category
SpecifyNewProductController ...> Product
@enduml

PlantUML version 1.2022.4beta2(Unknown compile time)
(GPL source distribution)
Java Runtime: Java(TM) SE Runtime Environment
JVM: Java HotSpot(TM) 64-Bit Server VM
Default Encoding: UTF-8
Language: en
Country: US
--></g></svg>