<?xml version="1.0" encoding="UTF-8" standalone="no"?><svg xmlns="http://www.w3.org/2000/svg" xmlns:xlink="http://www.w3.org/1999/xlink" contentStyleType="text/css" height="415px" preserveAspectRatio="none" style="width:251px;height:415px;background:#FFFFFF;" version="1.1" viewBox="0 0 251 415" width="251px" zoomAndPan="magnify"><defs/><g><!--MD5=[9681dc6e01e10c6b4fe06895ae94f592]
cluster UI--><g id="cluster_UI"><path d="M38.5,6 L55.5,6 A3.75,3.75 0 0 1 58,8.5 L65,28.2969 L211.5,28.2969 A2.5,2.5 0 0 1 214,30.7969 L214,102.5 A2.5,2.5 0 0 1 211.5,105 L38.5,105 A2.5,2.5 0 0 1 36,102.5 L36,8.5 A2.5,2.5 0 0 1 38.5,6 " style="stroke:#000000;stroke-width:1.5;fill:none;"/><line style="stroke:#000000;stroke-width:1.5;fill:none;" x1="36" x2="65" y1="28.2969" y2="28.2969"/><text fill="#000000" font-family="sans-serif" font-size="14" font-weight="bold" lengthAdjust="spacing" textLength="16" x="40" y="20.9951">UI</text></g><!--MD5=[1f2cfc53d9d308f53762fd0fcbaa4873]
cluster Controller--><g id="cluster_Controller"><path d="M8.5,129 L90.5,129 A3.75,3.75 0 0 1 93,131.5 L100,151.2969 L241.5,151.2969 A2.5,2.5 0 0 1 244,153.7969 L244,225.5 A2.5,2.5 0 0 1 241.5,228 L8.5,228 A2.5,2.5 0 0 1 6,225.5 L6,131.5 A2.5,2.5 0 0 1 8.5,129 " style="stroke:#000000;stroke-width:1.5;fill:none;"/><line style="stroke:#000000;stroke-width:1.5;fill:none;" x1="6" x2="100" y1="151.2969" y2="151.2969"/><text fill="#000000" font-family="sans-serif" font-size="14" font-weight="bold" lengthAdjust="spacing" textLength="81" x="10" y="143.9951">Controller</text></g><!--MD5=[148a997a4ab8392850a35085eb511c12]
cluster AGV--><g id="cluster_AGV"><path d="M44.5,252 L79.5,252 A3.75,3.75 0 0 1 82,254.5 L89,274.2969 L205.5,274.2969 A2.5,2.5 0 0 1 208,276.7969 L208,405.5 A2.5,2.5 0 0 1 205.5,408 L44.5,408 A2.5,2.5 0 0 1 42,405.5 L42,254.5 A2.5,2.5 0 0 1 44.5,252 " style="stroke:#000000;stroke-width:1.5;fill:none;"/><line style="stroke:#000000;stroke-width:1.5;fill:none;" x1="42" x2="89" y1="274.2969" y2="274.2969"/><text fill="#000000" font-family="sans-serif" font-size="14" font-weight="bold" lengthAdjust="spacing" textLength="34" x="46" y="266.9951">AGV</text><text fill="#000000" font-family="sans-serif" font-size="14" font-style="italic" lengthAdjust="spacing" textLength="93" x="82.5" y="289.292">«Aggregate»</text></g><!--MD5=[47bc46f73210ae9de136f250d636c983]
class ConfigureAGVUI--><g id="elem_ConfigureAGVUI"><rect codeLine="4" fill="#F1F1F1" height="48" id="ConfigureAGVUI" rx="2.5" ry="2.5" style="stroke:#181818;stroke-width:0.5;" width="146" x="52" y="41"/><ellipse cx="67" cy="57" fill="#ADD1B2" rx="11" ry="11" style="stroke:#181818;stroke-width:1.0;"/><path d="M69.3438,52.6719 C68.4063,52.2344 67.8125,52.0938 66.9375,52.0938 C64.3125,52.0938 62.3125,54.1719 62.3125,56.8906 L62.3125,58.0156 C62.3125,60.5938 64.4219,62.4844 67.3125,62.4844 C68.5313,62.4844 69.6875,62.1875 70.4375,61.6406 C71.0156,61.2344 71.3438,60.7813 71.3438,60.3906 C71.3438,59.9375 70.9531,59.5469 70.4844,59.5469 C70.2656,59.5469 70.0625,59.625 69.875,59.8125 C69.4219,60.2969 69.4219,60.2969 69.2344,60.3906 C68.8125,60.6563 68.125,60.7813 67.3594,60.7813 C65.3125,60.7813 64.0156,59.6875 64.0156,57.9844 L64.0156,56.8906 C64.0156,55.1094 65.2656,53.7969 67,53.7969 C67.5781,53.7969 68.1875,53.9531 68.6563,54.2031 C69.1406,54.4844 69.3125,54.7031 69.4063,55.1094 C69.4688,55.5156 69.5,55.6406 69.6406,55.7656 C69.7813,55.9063 70.0156,56.0156 70.2344,56.0156 C70.5,56.0156 70.7656,55.875 70.9375,55.6563 C71.0469,55.5 71.0781,55.3125 71.0781,54.8906 L71.0781,53.4688 C71.0781,53.0313 71.0625,52.9063 70.9688,52.75 C70.8125,52.4844 70.5313,52.3438 70.2344,52.3438 C69.9375,52.3438 69.7344,52.4375 69.5156,52.75 L69.3438,52.6719 Z " fill="#000000"/><text fill="#000000" font-family="sans-serif" font-size="14" lengthAdjust="spacing" textLength="114" x="81" y="61.8467">ConfigureAGVUI</text><line style="stroke:#181818;stroke-width:0.5;" x1="53" x2="197" y1="73" y2="73"/><line style="stroke:#181818;stroke-width:0.5;" x1="53" x2="197" y1="81" y2="81"/></g><!--MD5=[4a05030ac364552cd297a89687ca123f]
class ConfigureAGVController--><g id="elem_ConfigureAGVController"><rect codeLine="9" fill="#F1F1F1" height="48" id="ConfigureAGVController" rx="2.5" ry="2.5" style="stroke:#181818;stroke-width:0.5;" width="206" x="22" y="164"/><ellipse cx="37" cy="180" fill="#ADD1B2" rx="11" ry="11" style="stroke:#181818;stroke-width:1.0;"/><path d="M39.3438,175.6719 C38.4063,175.2344 37.8125,175.0938 36.9375,175.0938 C34.3125,175.0938 32.3125,177.1719 32.3125,179.8906 L32.3125,181.0156 C32.3125,183.5938 34.4219,185.4844 37.3125,185.4844 C38.5313,185.4844 39.6875,185.1875 40.4375,184.6406 C41.0156,184.2344 41.3438,183.7813 41.3438,183.3906 C41.3438,182.9375 40.9531,182.5469 40.4844,182.5469 C40.2656,182.5469 40.0625,182.625 39.875,182.8125 C39.4219,183.2969 39.4219,183.2969 39.2344,183.3906 C38.8125,183.6563 38.125,183.7813 37.3594,183.7813 C35.3125,183.7813 34.0156,182.6875 34.0156,180.9844 L34.0156,179.8906 C34.0156,178.1094 35.2656,176.7969 37,176.7969 C37.5781,176.7969 38.1875,176.9531 38.6563,177.2031 C39.1406,177.4844 39.3125,177.7031 39.4063,178.1094 C39.4688,178.5156 39.5,178.6406 39.6406,178.7656 C39.7813,178.9063 40.0156,179.0156 40.2344,179.0156 C40.5,179.0156 40.7656,178.875 40.9375,178.6563 C41.0469,178.5 41.0781,178.3125 41.0781,177.8906 L41.0781,176.4688 C41.0781,176.0313 41.0625,175.9063 40.9688,175.75 C40.8125,175.4844 40.5313,175.3438 40.2344,175.3438 C39.9375,175.3438 39.7344,175.4375 39.5156,175.75 L39.3438,175.6719 Z " fill="#000000"/><text fill="#000000" font-family="sans-serif" font-size="14" lengthAdjust="spacing" textLength="174" x="51" y="184.8467">ConfigureAGVController</text><line style="stroke:#181818;stroke-width:0.5;" x1="23" x2="227" y1="196" y2="196"/><line style="stroke:#181818;stroke-width:0.5;" x1="23" x2="227" y1="204" y2="204"/></g><!--MD5=[53b2c06ade5903185ca3326dce80e141]
class AGV--><g id="elem_AGV"><rect codeLine="15" fill="#F1F1F1" height="88.8594" id="AGV" rx="2.5" ry="2.5" style="stroke:#181818;stroke-width:0.5;" width="133" x="58.5" y="303"/><ellipse cx="98.25" cy="323.1328" fill="#ADD1B2" rx="11" ry="11" style="stroke:#181818;stroke-width:1.0;"/><path d="M97.0469,324.0078 L98.5,324.0078 L98.5,324.1172 C98.5,324.5234 98.5313,324.6797 98.6094,324.8359 C98.7656,325.0859 99.0469,325.2422 99.3438,325.2422 C99.5938,325.2422 99.8594,325.1016 100.0156,324.8828 C100.1406,324.7266 100.1719,324.5703 100.1719,324.1172 L100.1719,322.1953 C100.1719,322.0391 100.1719,321.9922 100.1563,321.8359 C100.0938,321.3672 99.7813,321.0547 99.3281,321.0547 C99.0781,321.0547 98.8125,321.1953 98.6406,321.4141 C98.5313,321.5859 98.5,321.7422 98.5,322.1953 L98.5,322.3203 L97.0469,322.3203 L97.0469,319.9141 L101.0313,319.9141 L101.0313,320.7734 C101.0313,321.1797 101.0625,321.3516 101.1406,321.5078 C101.3125,321.7578 101.5938,321.9141 101.875,321.9141 C102.1406,321.9141 102.4063,321.7734 102.5781,321.5547 C102.6875,321.3828 102.7188,321.2422 102.7188,320.7734 L102.7188,318.2266 L95.0938,318.2266 C94.6563,318.2266 94.5313,318.2422 94.375,318.3359 C94.125,318.4922 93.9688,318.7891 93.9688,319.0703 C93.9688,319.3516 94.1094,319.6016 94.3281,319.7734 C94.4844,319.8828 94.6719,319.9141 95.0938,319.9141 L95.3438,319.9141 L95.3438,326.4297 L95.0938,326.4297 C94.6875,326.4297 94.5313,326.4453 94.375,326.5547 C94.125,326.7266 93.9688,326.9922 93.9688,327.2891 C93.9688,327.5547 94.1094,327.8047 94.3281,327.9609 C94.4688,328.0859 94.7031,328.1328 95.0938,328.1328 L103.0938,328.1328 L103.0938,325.5547 C103.0938,325.1172 103.0625,324.9766 102.9844,324.8203 C102.8125,324.5703 102.5313,324.4141 102.25,324.4141 C101.9844,324.4141 101.7188,324.5234 101.5469,324.7734 C101.4375,324.9297 101.4063,325.0703 101.4063,325.5547 L101.4063,326.4297 L97.0469,326.4297 L97.0469,324.0078 Z " fill="#000000"/><text fill="#000000" font-family="sans-serif" font-size="12" font-style="italic" lengthAdjust="spacing" textLength="50" x="115.75" y="319.1387">«Entity»</text><text fill="#000000" font-family="sans-serif" font-size="14" lengthAdjust="spacing" textLength="31" x="125.25" y="334.9639">AGV</text><line style="stroke:#181818;stroke-width:0.5;" x1="59.5" x2="190.5" y1="343.2656" y2="343.2656"/><text fill="#000000" font-family="sans-serif" font-size="14" lengthAdjust="spacing" textLength="80" x="64.5" y="360.2607">-Autonomy</text><text fill="#000000" font-family="sans-serif" font-size="14" lengthAdjust="spacing" textLength="121" x="64.5" y="376.5576">-AGVDescription</text><line style="stroke:#181818;stroke-width:0.5;" x1="59.5" x2="190.5" y1="383.8594" y2="383.8594"/></g><!--MD5=[4c2ca6742170b953f9ed8ad6fa9ed9f7]
link ConfigureAGVUI to ConfigureAGVController--><g id="link_ConfigureAGVUI_ConfigureAGVController"><path codeLine="22" d="M125,89.044 C125,108.766 125,137.243 125,158.414 " fill="none" id="ConfigureAGVUI-to-ConfigureAGVController" style="stroke:#181818;stroke-width:1.0;stroke-dasharray:7.0,7.0;"/><polygon fill="#181818" points="125,163.63,129,154.63,125,158.63,121,154.63,125,163.63" style="stroke:#181818;stroke-width:1.0;"/></g><!--MD5=[1a4fe2959b20493a6ebeb11f982161e0]
link ConfigureAGVController to AGV--><g id="link_ConfigureAGVController_AGV"><path codeLine="23" d="M125,212.24 C125,234.634 125,269.214 125,297.671 " fill="none" id="ConfigureAGVController-to-AGV" style="stroke:#181818;stroke-width:1.0;stroke-dasharray:7.0,7.0;"/><polygon fill="#181818" points="125,302.908,129,293.908,125,297.908,121,293.908,125,302.908" style="stroke:#181818;stroke-width:1.0;"/></g><!--MD5=[263358c7123f47cb2f4a57ffac978d2a]
@startuml
skinparam classAttributeIconSize 0

package UI {
class ConfigureAGVUI {
}
}

package Controller{
class ConfigureAGVController {

}
}

package AGV <<Aggregate>> {
entity AGV <<Entity>> {
- Autonomy
- AGVDescription
}
}


ConfigureAGVUI ..> ConfigureAGVController
ConfigureAGVController ..> AGV
@enduml

PlantUML version 1.2022.4beta2(Unknown compile time)
(GPL source distribution)
Java Runtime: Java(TM) SE Runtime Environment
JVM: Java HotSpot(TM) 64-Bit Server VM
Default Encoding: UTF-8
Language: en
Country: US
--></g></svg>