<?xml version="1.0" encoding="UTF-8" standalone="no"?><svg xmlns="http://www.w3.org/2000/svg" xmlns:xlink="http://www.w3.org/1999/xlink" contentStyleType="text/css" height="388px" preserveAspectRatio="none" style="width:835px;height:388px;background:#FFFFFF;" version="1.1" viewBox="0 0 835 388" width="835px" zoomAndPan="magnify"><defs/><g><rect fill="#FFFFFF" height="190.9297" style="stroke:#181818;stroke-width:1.0;" width="10" x="95.5" y="91.2969"/><rect fill="#FFFFFF" height="29.1328" style="stroke:#181818;stroke-width:1.0;" width="10" x="415.5" y="136.5625"/><rect fill="#FFFFFF" height="29.1328" style="stroke:#181818;stroke-width:1.0;" width="10" x="415.5" y="194.8281"/><rect fill="#FFFFFF" height="29.1328" style="stroke:#181818;stroke-width:1.0;" width="10" x="415.5" y="253.0938"/><rect height="191.9297" style="stroke:#000000;stroke-width:1.5;fill:none;" width="487" x="10" y="98.2969"/><line style="stroke:#181818;stroke-width:0.5;fill:none;stroke-dasharray:5.0,5.0;" x1="100" x2="100" y1="81.2969" y2="307.2266"/><line style="stroke:#181818;stroke-width:0.5;fill:none;stroke-dasharray:5.0,5.0;" x1="420" x2="420" y1="81.2969" y2="307.2266"/><line style="stroke:#181818;stroke-width:0.5;fill:none;stroke-dasharray:5.0,5.0;" x1="593" x2="593" y1="81.2969" y2="307.2266"/><line style="stroke:#181818;stroke-width:0.5;fill:none;stroke-dasharray:5.0,5.0;" x1="725" x2="725" y1="81.2969" y2="307.2266"/><line style="stroke:#181818;stroke-width:0.5;fill:none;stroke-dasharray:5.0,5.0;" x1="797" x2="797" y1="81.2969" y2="307.2266"/><text fill="#000000" font-family="sans-serif" font-size="14" lengthAdjust="spacing" textLength="155" x="20" y="77.9951">Warehouse Employee</text><ellipse cx="100.5" cy="13.5" fill="#E2E2F0" rx="8" ry="8" style="stroke:#181818;stroke-width:0.5;"/><path d="M100.5,21.5 L100.5,48.5 M87.5,29.5 L113.5,29.5 M100.5,48.5 L87.5,63.5 M100.5,48.5 L113.5,63.5 " fill="none" style="stroke:#181818;stroke-width:0.5;"/><text fill="#000000" font-family="sans-serif" font-size="14" lengthAdjust="spacing" textLength="155" x="20" y="319.2217">Warehouse Employee</text><ellipse cx="100.5" cy="331.0234" fill="#E2E2F0" rx="8" ry="8" style="stroke:#181818;stroke-width:0.5;"/><path d="M100.5,339.0234 L100.5,366.0234 M87.5,347.0234 L113.5,347.0234 M100.5,366.0234 L87.5,381.0234 M100.5,366.0234 L113.5,381.0234 " fill="none" style="stroke:#181818;stroke-width:0.5;"/><rect fill="#E2E2F0" height="30.2969" rx="2.5" ry="2.5" style="stroke:#181818;stroke-width:0.5;" width="133" x="354" y="50"/><text fill="#000000" font-family="sans-serif" font-size="14" lengthAdjust="spacing" textLength="119" x="361" y="69.9951">:ConfigureAGVUI</text><rect fill="#E2E2F0" height="30.2969" rx="2.5" ry="2.5" style="stroke:#181818;stroke-width:0.5;" width="133" x="354" y="306.2266"/><text fill="#000000" font-family="sans-serif" font-size="14" lengthAdjust="spacing" textLength="119" x="361" y="326.2217">:ConfigureAGVUI</text><rect fill="#E2E2F0" height="30.2969" rx="2.5" ry="2.5" style="stroke:#181818;stroke-width:0.5;" width="193" x="497" y="50"/><text fill="#000000" font-family="sans-serif" font-size="14" lengthAdjust="spacing" textLength="179" x="504" y="69.9951">:ConfigureAGVController</text><rect fill="#E2E2F0" height="30.2969" rx="2.5" ry="2.5" style="stroke:#181818;stroke-width:0.5;" width="193" x="497" y="306.2266"/><text fill="#000000" font-family="sans-serif" font-size="14" lengthAdjust="spacing" textLength="179" x="504" y="326.2217">:ConfigureAGVController</text><rect fill="#E2E2F0" height="30.2969" rx="2.5" ry="2.5" style="stroke:#181818;stroke-width:0.5;" width="50" x="700" y="50"/><text fill="#000000" font-family="sans-serif" font-size="14" lengthAdjust="spacing" textLength="36" x="707" y="69.9951">:AGV</text><rect fill="#E2E2F0" height="30.2969" rx="2.5" ry="2.5" style="stroke:#181818;stroke-width:0.5;" width="50" x="700" y="306.2266"/><text fill="#000000" font-family="sans-serif" font-size="14" lengthAdjust="spacing" textLength="36" x="707" y="326.2217">:AGV</text><text fill="#000000" font-family="sans-serif" font-size="14" lengthAdjust="spacing" textLength="68" x="760" y="77.9951">Database</text><path d="M779,29 C779,19 797,19 797,19 C797,19 815,19 815,29 L815,55 C815,65 797,65 797,65 C797,65 779,65 779,55 L779,29 " fill="#E2E2F0" style="stroke:#181818;stroke-width:1.5;"/><path d="M779,29 C779,39 797,39 797,39 C797,39 815,39 815,29 " fill="none" style="stroke:#181818;stroke-width:1.5;"/><text fill="#000000" font-family="sans-serif" font-size="14" lengthAdjust="spacing" textLength="68" x="760" y="319.2217">Database</text><path d="M779,332.5234 C779,322.5234 797,322.5234 797,322.5234 C797,322.5234 815,322.5234 815,332.5234 L815,358.5234 C815,368.5234 797,368.5234 797,368.5234 C797,368.5234 779,368.5234 779,358.5234 L779,332.5234 " fill="#E2E2F0" style="stroke:#181818;stroke-width:1.5;"/><path d="M779,332.5234 C779,342.5234 797,342.5234 797,342.5234 C797,342.5234 815,342.5234 815,332.5234 " fill="none" style="stroke:#181818;stroke-width:1.5;"/><rect fill="#FFFFFF" height="190.9297" style="stroke:#181818;stroke-width:1.0;" width="10" x="95.5" y="91.2969"/><rect fill="#FFFFFF" height="29.1328" style="stroke:#181818;stroke-width:1.0;" width="10" x="415.5" y="136.5625"/><rect fill="#FFFFFF" height="29.1328" style="stroke:#181818;stroke-width:1.0;" width="10" x="415.5" y="194.8281"/><rect fill="#FFFFFF" height="29.1328" style="stroke:#181818;stroke-width:1.0;" width="10" x="415.5" y="253.0938"/><path d="M10,98.2969 L88,98.2969 L88,105.4297 L78,115.4297 L10,115.4297 L10,98.2969 " fill="#EEEEEE" style="stroke:#000000;stroke-width:1.5;"/><rect fill="none" height="191.9297" style="stroke:#000000;stroke-width:1.5;" width="487" x="10" y="98.2969"/><text fill="#000000" font-family="sans-serif" font-size="13" font-weight="bold" lengthAdjust="spacing" textLength="33" x="25" y="111.3638">loop</text><polygon fill="#181818" points="403.5,132.5625,413.5,136.5625,403.5,140.5625,407.5,136.5625" style="stroke:#181818;stroke-width:1.0;"/><line style="stroke:#181818;stroke-width:1.0;" x1="105.5" x2="409.5" y1="136.5625" y2="136.5625"/><text fill="#000000" font-family="sans-serif" font-size="13" font-weight="bold" lengthAdjust="spacing" textLength="9" x="112.5" y="131.4966">1</text><text fill="#000000" font-family="sans-serif" font-size="13" lengthAdjust="spacing" textLength="253" x="125.5" y="131.4966">Starts to specify a new product for sale</text><polygon fill="#181818" points="116.5,161.6953,106.5,165.6953,116.5,169.6953,112.5,165.6953" style="stroke:#181818;stroke-width:1.0;"/><line style="stroke:#181818;stroke-width:1.0;stroke-dasharray:2.0,2.0;" x1="110.5" x2="419.5" y1="165.6953" y2="165.6953"/><text fill="#000000" font-family="sans-serif" font-size="13" font-weight="bold" lengthAdjust="spacing" textLength="9" x="122.5" y="160.6294">2</text><text fill="#000000" font-family="sans-serif" font-size="13" lengthAdjust="spacing" textLength="273" x="135.5" y="160.6294">Requests data (Brand, description, price...)</text><polygon fill="#181818" points="403.5,190.8281,413.5,194.8281,403.5,198.8281,407.5,194.8281" style="stroke:#181818;stroke-width:1.0;"/><line style="stroke:#181818;stroke-width:1.0;" x1="105.5" x2="409.5" y1="194.8281" y2="194.8281"/><text fill="#000000" font-family="sans-serif" font-size="13" font-weight="bold" lengthAdjust="spacing" textLength="8" x="112.5" y="189.7622">3</text><text fill="#000000" font-family="sans-serif" font-size="13" lengthAdjust="spacing" textLength="141" x="124.5" y="189.7622">Types requested data</text><polygon fill="#181818" points="116.5,219.9609,106.5,223.9609,116.5,227.9609,112.5,223.9609" style="stroke:#181818;stroke-width:1.0;"/><line style="stroke:#181818;stroke-width:1.0;stroke-dasharray:2.0,2.0;" x1="110.5" x2="419.5" y1="223.9609" y2="223.9609"/><text fill="#000000" font-family="sans-serif" font-size="13" font-weight="bold" lengthAdjust="spacing" textLength="9" x="122.5" y="218.895">4</text><text fill="#000000" font-family="sans-serif" font-size="13" lengthAdjust="spacing" textLength="266" x="135.5" y="218.895">Shows all data and requests confirmation</text><polygon fill="#181818" points="403.5,249.0938,413.5,253.0938,403.5,257.0938,407.5,253.0938" style="stroke:#181818;stroke-width:1.0;"/><line style="stroke:#181818;stroke-width:1.0;" x1="105.5" x2="409.5" y1="253.0938" y2="253.0938"/><text fill="#000000" font-family="sans-serif" font-size="13" font-weight="bold" lengthAdjust="spacing" textLength="9" x="112.5" y="248.0278">5</text><text fill="#000000" font-family="sans-serif" font-size="13" lengthAdjust="spacing" textLength="116" x="125.5" y="248.0278">Confirms the data</text><polygon fill="#181818" points="111.5,278.2266,101.5,282.2266,111.5,286.2266,107.5,282.2266" style="stroke:#181818;stroke-width:1.0;"/><line style="stroke:#181818;stroke-width:1.0;stroke-dasharray:2.0,2.0;" x1="105.5" x2="419.5" y1="282.2266" y2="282.2266"/><text fill="#000000" font-family="sans-serif" font-size="13" font-weight="bold" lengthAdjust="spacing" textLength="9" x="117.5" y="277.1606">6</text><text fill="#000000" font-family="sans-serif" font-size="13" lengthAdjust="spacing" textLength="190" x="130.5" y="277.1606">Informs operation (in)success</text><!--MD5=[7f1b86f4a4b9e64618defea1eb70ce2c]
@startuml
autonumber
actor "Warehouse Employee" as WE
participant ":ConfigureAGVUI" as UI
participant ":ConfigureAGVController" as CTRL
participant ":AGV" as AGV

loop
activate WE

WE -> UI : Starts to specify a new product for sale
activate UI

UI - -> WE : Requests data (Brand, description, price...)
deactivate UI

WE -> UI : Types requested data
activate UI

UI - -> WE :Shows all data and requests confirmation
deactivate UI

WE -> UI : Confirms the data
activate UI

UI - -> WE : Informs operation (in)success
deactivate UI

deactivate WE
end loop
database "Database" as DB
@enduml

PlantUML version 1.2022.4beta2(Unknown compile time)
(GPL source distribution)
Java Runtime: Java(TM) SE Runtime Environment
JVM: Java HotSpot(TM) 64-Bit Server VM
Default Encoding: UTF-8
Language: en
Country: US
--></g></svg>