<?xml version="1.0" encoding="UTF-8" standalone="no"?><svg xmlns="http://www.w3.org/2000/svg" xmlns:xlink="http://www.w3.org/1999/xlink" contentStyleType="text/css" height="420px" preserveAspectRatio="none" style="width:281px;height:420px;background:#FFFFFF;" version="1.1" viewBox="0 0 281 420" width="281px" zoomAndPan="magnify"><defs/><g><!--MD5=[9681dc6e01e10c6b4fe06895ae94f592]
cluster UI--><g id="cluster_UI"><path d="M38.5,6 L55.5,6 A3.75,3.75 0 0 1 58,8.5 L65,28.2969 L241.5,28.2969 A2.5,2.5 0 0 1 244,30.7969 L244,110.5 A2.5,2.5 0 0 1 241.5,113 L38.5,113 A2.5,2.5 0 0 1 36,110.5 L36,8.5 A2.5,2.5 0 0 1 38.5,6 " style="stroke:#000000;stroke-width:1.5;fill:none;"/><line style="stroke:#000000;stroke-width:1.5;fill:none;" x1="36" x2="65" y1="28.2969" y2="28.2969"/><text fill="#000000" font-family="sans-serif" font-size="14" font-weight="bold" lengthAdjust="spacing" textLength="16" x="40" y="20.9951">UI</text></g><!--MD5=[1f2cfc53d9d308f53762fd0fcbaa4873]
cluster Controller--><g id="cluster_Controller"><path d="M8.5,137 L90.5,137 A3.75,3.75 0 0 1 93,139.5 L100,159.2969 L271.5,159.2969 A2.5,2.5 0 0 1 274,161.7969 L274,249.5 A2.5,2.5 0 0 1 271.5,252 L8.5,252 A2.5,2.5 0 0 1 6,249.5 L6,139.5 A2.5,2.5 0 0 1 8.5,137 " style="stroke:#000000;stroke-width:1.5;fill:none;"/><line style="stroke:#000000;stroke-width:1.5;fill:none;" x1="6" x2="100" y1="159.2969" y2="159.2969"/><text fill="#000000" font-family="sans-serif" font-size="14" font-weight="bold" lengthAdjust="spacing" textLength="81" x="10" y="151.9951">Controller</text><text fill="#000000" font-family="sans-serif" font-size="14" font-style="italic" lengthAdjust="spacing" textLength="97" x="95.5" y="174.292">«application»</text></g><!--MD5=[a81f7aca4c07b9194780aa67bf6d0525]
cluster Customer--><g id="cluster_Customer"><path d="M75.5,276 L154.5,276 A3.75,3.75 0 0 1 157,278.5 L164,298.2969 L204.5,298.2969 A2.5,2.5 0 0 1 207,300.7969 L207,410.5 A2.5,2.5 0 0 1 204.5,413 L75.5,413 A2.5,2.5 0 0 1 73,410.5 L73,278.5 A2.5,2.5 0 0 1 75.5,276 " style="stroke:#000000;stroke-width:1.5;fill:none;"/><line style="stroke:#000000;stroke-width:1.5;fill:none;" x1="73" x2="164" y1="298.2969" y2="298.2969"/><text fill="#000000" font-family="sans-serif" font-size="14" font-weight="bold" lengthAdjust="spacing" textLength="78" x="77" y="290.9951">Customer</text><text fill="#000000" font-family="sans-serif" font-size="14" font-style="italic" lengthAdjust="spacing" textLength="93" x="97.5" y="313.292">«Aggregate»</text></g><!--MD5=[6da3ee1a450180cf948252897b0c67ba]
class RegisterCustomerUI--><g id="elem_RegisterCustomerUI"><rect codeLine="4" fill="#F1F1F1" height="56.2656" id="RegisterCustomerUI" rx="2.5" ry="2.5" style="stroke:#181818;stroke-width:0.5;" width="176" x="52" y="41"/><ellipse cx="67" cy="61.1328" fill="#ADD1B2" rx="11" ry="11" style="stroke:#181818;stroke-width:1.0;"/><path d="M69.3438,56.8047 C68.4063,56.3672 67.8125,56.2266 66.9375,56.2266 C64.3125,56.2266 62.3125,58.3047 62.3125,61.0234 L62.3125,62.1484 C62.3125,64.7266 64.4219,66.6172 67.3125,66.6172 C68.5313,66.6172 69.6875,66.3203 70.4375,65.7734 C71.0156,65.3672 71.3438,64.9141 71.3438,64.5234 C71.3438,64.0703 70.9531,63.6797 70.4844,63.6797 C70.2656,63.6797 70.0625,63.7578 69.875,63.9453 C69.4219,64.4297 69.4219,64.4297 69.2344,64.5234 C68.8125,64.7891 68.125,64.9141 67.3594,64.9141 C65.3125,64.9141 64.0156,63.8203 64.0156,62.1172 L64.0156,61.0234 C64.0156,59.2422 65.2656,57.9297 67,57.9297 C67.5781,57.9297 68.1875,58.0859 68.6563,58.3359 C69.1406,58.6172 69.3125,58.8359 69.4063,59.2422 C69.4688,59.6484 69.5,59.7734 69.6406,59.8984 C69.7813,60.0391 70.0156,60.1484 70.2344,60.1484 C70.5,60.1484 70.7656,60.0078 70.9375,59.7891 C71.0469,59.6328 71.0781,59.4453 71.0781,59.0234 L71.0781,57.6016 C71.0781,57.1641 71.0625,57.0391 70.9688,56.8828 C70.8125,56.6172 70.5313,56.4766 70.2344,56.4766 C69.9375,56.4766 69.7344,56.5703 69.5156,56.8828 L69.3438,56.8047 Z " fill="#000000"/><text fill="#000000" font-family="sans-serif" font-size="12" font-style="italic" lengthAdjust="spacing" textLength="90" x="108" y="57.1387">«presentation»</text><text fill="#000000" font-family="sans-serif" font-size="14" lengthAdjust="spacing" textLength="144" x="81" y="72.9639">RegisterCustomerUI</text><line style="stroke:#181818;stroke-width:0.5;" x1="53" x2="227" y1="81.2656" y2="81.2656"/><line style="stroke:#181818;stroke-width:0.5;" x1="53" x2="227" y1="89.2656" y2="89.2656"/></g><!--MD5=[292e49acba7fe27a55ea2af1822ad667]
class RegisterCustomerController--><g id="elem_RegisterCustomerController"><rect codeLine="9" fill="#F1F1F1" height="48" id="RegisterCustomerController" rx="2.5" ry="2.5" style="stroke:#181818;stroke-width:0.5;" width="236" x="22" y="188"/><ellipse cx="37" cy="204" fill="#ADD1B2" rx="11" ry="11" style="stroke:#181818;stroke-width:1.0;"/><path d="M39.3438,199.6719 C38.4063,199.2344 37.8125,199.0938 36.9375,199.0938 C34.3125,199.0938 32.3125,201.1719 32.3125,203.8906 L32.3125,205.0156 C32.3125,207.5938 34.4219,209.4844 37.3125,209.4844 C38.5313,209.4844 39.6875,209.1875 40.4375,208.6406 C41.0156,208.2344 41.3438,207.7813 41.3438,207.3906 C41.3438,206.9375 40.9531,206.5469 40.4844,206.5469 C40.2656,206.5469 40.0625,206.625 39.875,206.8125 C39.4219,207.2969 39.4219,207.2969 39.2344,207.3906 C38.8125,207.6563 38.125,207.7813 37.3594,207.7813 C35.3125,207.7813 34.0156,206.6875 34.0156,204.9844 L34.0156,203.8906 C34.0156,202.1094 35.2656,200.7969 37,200.7969 C37.5781,200.7969 38.1875,200.9531 38.6563,201.2031 C39.1406,201.4844 39.3125,201.7031 39.4063,202.1094 C39.4688,202.5156 39.5,202.6406 39.6406,202.7656 C39.7813,202.9063 40.0156,203.0156 40.2344,203.0156 C40.5,203.0156 40.7656,202.875 40.9375,202.6563 C41.0469,202.5 41.0781,202.3125 41.0781,201.8906 L41.0781,200.4688 C41.0781,200.0313 41.0625,199.9063 40.9688,199.75 C40.8125,199.4844 40.5313,199.3438 40.2344,199.3438 C39.9375,199.3438 39.7344,199.4375 39.5156,199.75 L39.3438,199.6719 Z " fill="#000000"/><text fill="#000000" font-family="sans-serif" font-size="14" lengthAdjust="spacing" textLength="204" x="51" y="208.8467">RegisterCustomerController</text><line style="stroke:#181818;stroke-width:0.5;" x1="23" x2="257" y1="220" y2="220"/><line style="stroke:#181818;stroke-width:0.5;" x1="23" x2="257" y1="228" y2="228"/></g><!--MD5=[2ce0c9fb7f55b1e256ab28a8ea6b25ec]
class Customer--><g id="elem_Customer"><rect codeLine="16" fill="#F1F1F1" height="70.2344" id="Customer" rx="2.5" ry="2.5" style="stroke:#181818;stroke-width:0.5;" width="102" x="89" y="327"/><ellipse cx="104" cy="354.1172" fill="#ADD1B2" rx="11" ry="11" style="stroke:#181818;stroke-width:1.0;"/><path d="M102.7969,354.9922 L104.25,354.9922 L104.25,355.1016 C104.25,355.5078 104.2813,355.6641 104.3594,355.8203 C104.5156,356.0703 104.7969,356.2266 105.0938,356.2266 C105.3438,356.2266 105.6094,356.0859 105.7656,355.8672 C105.8906,355.7109 105.9219,355.5547 105.9219,355.1016 L105.9219,353.1797 C105.9219,353.0234 105.9219,352.9766 105.9063,352.8203 C105.8438,352.3516 105.5313,352.0391 105.0781,352.0391 C104.8281,352.0391 104.5625,352.1797 104.3906,352.3984 C104.2813,352.5703 104.25,352.7266 104.25,353.1797 L104.25,353.3047 L102.7969,353.3047 L102.7969,350.8984 L106.7813,350.8984 L106.7813,351.7578 C106.7813,352.1641 106.8125,352.3359 106.8906,352.4922 C107.0625,352.7422 107.3438,352.8984 107.625,352.8984 C107.8906,352.8984 108.1563,352.7578 108.3281,352.5391 C108.4375,352.3672 108.4688,352.2266 108.4688,351.7578 L108.4688,349.2109 L100.8438,349.2109 C100.4063,349.2109 100.2813,349.2266 100.125,349.3203 C99.875,349.4766 99.7188,349.7734 99.7188,350.0547 C99.7188,350.3359 99.8594,350.5859 100.0781,350.7578 C100.2344,350.8672 100.4219,350.8984 100.8438,350.8984 L101.0938,350.8984 L101.0938,357.4141 L100.8438,357.4141 C100.4375,357.4141 100.2813,357.4297 100.125,357.5391 C99.875,357.7109 99.7188,357.9766 99.7188,358.2734 C99.7188,358.5391 99.8594,358.7891 100.0781,358.9453 C100.2188,359.0703 100.4531,359.1172 100.8438,359.1172 L108.8438,359.1172 L108.8438,356.5391 C108.8438,356.1016 108.8125,355.9609 108.7344,355.8047 C108.5625,355.5547 108.2813,355.3984 108,355.3984 C107.7344,355.3984 107.4688,355.5078 107.2969,355.7578 C107.1875,355.9141 107.1563,356.0547 107.1563,356.5391 L107.1563,357.4141 L102.7969,357.4141 L102.7969,354.9922 Z " fill="#000000"/><text fill="#000000" font-family="sans-serif" font-size="12" font-style="italic" lengthAdjust="spacing" textLength="50" x="128" y="343.1387">«Entity»</text><text fill="#000000" font-family="sans-serif" font-size="12" font-style="italic" lengthAdjust="spacing" textLength="41" x="132.5" y="357.1074">«Root»</text><text fill="#000000" font-family="sans-serif" font-size="14" lengthAdjust="spacing" textLength="70" x="118" y="372.9326">Customer</text><line style="stroke:#181818;stroke-width:0.5;" x1="90" x2="190" y1="381.2344" y2="381.2344"/><line style="stroke:#181818;stroke-width:0.5;" x1="90" x2="190" y1="389.2344" y2="389.2344"/></g><!--MD5=[c033d4bbac79f31b46533f3288e86589]
link RegisterCustomerUI to RegisterCustomerController--><g id="link_RegisterCustomerUI_RegisterCustomerController"><path codeLine="21" d="M140,97.186 C140,121.691 140,157.596 140,182.499 " fill="none" id="RegisterCustomerUI-to-RegisterCustomerController" style="stroke:#181818;stroke-width:1.0;stroke-dasharray:7.0,7.0;"/><polygon fill="#181818" points="140,187.638,144,178.638,140,182.638,136,178.638,140,187.638" style="stroke:#181818;stroke-width:1.0;"/></g><!--MD5=[c6a79696cb588641b3692d8b8be2b447]
link RegisterCustomerController to Customer--><g id="link_RegisterCustomerController_Customer"><path codeLine="22" d="M140,236.125 C140,258.914 140,294.18 140,321.43 " fill="none" id="RegisterCustomerController-to-Customer" style="stroke:#181818;stroke-width:1.0;stroke-dasharray:7.0,7.0;"/><polygon fill="#181818" points="140,326.767,144,317.767,140,321.767,136,317.767,140,326.767" style="stroke:#181818;stroke-width:1.0;"/></g><!--MD5=[d16abbc35f6b588ebdffbc5361763ab1]
@startuml
skinparam classAttributeIconSize 0

package UI {
class RegisterCustomerUI <<presentation>> {
}
}

package Controller <<application>>{
class RegisterCustomerController {

}
}

package Customer <<Aggregate>>{

entity Customer <<Entity>> <<Root>> {
}



RegisterCustomerUI ..> RegisterCustomerController
RegisterCustomerController ..> Customer
@enduml

PlantUML version 1.2022.4beta2(Unknown compile time)
(GPL source distribution)
Java Runtime: Java(TM) SE Runtime Environment
JVM: Java HotSpot(TM) 64-Bit Server VM
Default Encoding: UTF-8
Language: en
Country: US
--></g></svg>