<?xml version="1.0" encoding="UTF-8" standalone="no"?><svg xmlns="http://www.w3.org/2000/svg" xmlns:xlink="http://www.w3.org/1999/xlink" contentStyleType="text/css" height="369px" preserveAspectRatio="none" style="width:1005px;height:369px;background:#FFFFFF;" version="1.1" viewBox="0 0 1005 369" width="1005px" zoomAndPan="magnify"><defs/><g><rect fill="#FFFFFF" height="51.1328" style="stroke:#181818;stroke-width:1.0;" width="10" x="243.5" y="228.9609"/><rect fill="#FFFFFF" height="172.7969" style="stroke:#181818;stroke-width:1.0;" width="10" x="565.5" y="91.2969"/><rect fill="#FFFFFF" height="50.2656" style="stroke:#181818;stroke-width:1.0;" width="10" x="720.5" y="91.2969"/><rect fill="#FFFFFF" height="29.1328" style="stroke:#181818;stroke-width:1.0;" width="10" x="720.5" y="170.6953"/><rect fill="#FFFFFF" height="29.1328" style="stroke:#181818;stroke-width:1.0;" width="10" x="870" y="141.5625"/><line style="stroke:#181818;stroke-width:0.5;stroke-dasharray:5.0,5.0;" x1="85" x2="85" y1="81.2969" y2="289.0938"/><line style="stroke:#181818;stroke-width:0.5;stroke-dasharray:5.0,5.0;" x1="248" x2="248" y1="81.2969" y2="289.0938"/><line style="stroke:#181818;stroke-width:0.5;stroke-dasharray:5.0,5.0;" x1="436" x2="436" y1="81.2969" y2="289.0938"/><line style="stroke:#181818;stroke-width:0.5;stroke-dasharray:5.0,5.0;" x1="570" x2="570" y1="81.2969" y2="289.0938"/><line style="stroke:#181818;stroke-width:0.5;stroke-dasharray:5.0,5.0;" x1="725.5" x2="725.5" y1="81.2969" y2="289.0938"/><line style="stroke:#181818;stroke-width:0.5;stroke-dasharray:5.0,5.0;" x1="874.5" x2="874.5" y1="81.2969" y2="289.0938"/><line style="stroke:#181818;stroke-width:0.5;stroke-dasharray:5.0,5.0;" x1="974.5" x2="974.5" y1="81.2969" y2="289.0938"/><text fill="#000000" font-family="sans-serif" font-size="14" lengthAdjust="spacing" textLength="155" x="5" y="77.9951">Warehouse Employee</text><ellipse cx="85.5" cy="13.5" fill="#E2E2F0" rx="8" ry="8" style="stroke:#181818;stroke-width:0.5;"/><path d="M85.5,21.5 L85.5,48.5 M72.5,29.5 L98.5,29.5 M85.5,48.5 L72.5,63.5 M85.5,48.5 L98.5,63.5 " fill="none" style="stroke:#181818;stroke-width:0.5;"/><text fill="#000000" font-family="sans-serif" font-size="14" lengthAdjust="spacing" textLength="155" x="5" y="301.0889">Warehouse Employee</text><ellipse cx="85.5" cy="312.8906" fill="#E2E2F0" rx="8" ry="8" style="stroke:#181818;stroke-width:0.5;"/><path d="M85.5,320.8906 L85.5,347.8906 M72.5,328.8906 L98.5,328.8906 M85.5,347.8906 L72.5,362.8906 M85.5,347.8906 L98.5,362.8906 " fill="none" style="stroke:#181818;stroke-width:0.5;"/><rect fill="#E2E2F0" height="30.2969" rx="2.5" ry="2.5" style="stroke:#181818;stroke-width:0.5;" width="145" x="176" y="50"/><text fill="#000000" font-family="sans-serif" font-size="14" lengthAdjust="spacing" textLength="131" x="183" y="69.9951">:HTTPAjaxRequest</text><rect fill="#E2E2F0" height="30.2969" rx="2.5" ry="2.5" style="stroke:#181818;stroke-width:0.5;" width="145" x="176" y="288.0938"/><text fill="#000000" font-family="sans-serif" font-size="14" lengthAdjust="spacing" textLength="131" x="183" y="308.0889">:HTTPAjaxRequest</text><rect fill="#E2E2F0" height="30.2969" rx="2.5" ry="2.5" style="stroke:#181818;stroke-width:0.5;" width="119" x="377" y="50"/><text fill="#000000" font-family="sans-serif" font-size="14" lengthAdjust="spacing" textLength="105" x="384" y="69.9951">:HTTPmessage</text><rect fill="#E2E2F0" height="30.2969" rx="2.5" ry="2.5" style="stroke:#181818;stroke-width:0.5;" width="119" x="377" y="288.0938"/><text fill="#000000" font-family="sans-serif" font-size="14" lengthAdjust="spacing" textLength="105" x="384" y="308.0889">:HTTPmessage</text><rect fill="#E2E2F0" height="30.2969" rx="2.5" ry="2.5" style="stroke:#181818;stroke-width:0.5;" width="129" x="506" y="50"/><text fill="#000000" font-family="sans-serif" font-size="14" lengthAdjust="spacing" textLength="115" x="513" y="69.9951">:WebDashboard</text><rect fill="#E2E2F0" height="30.2969" rx="2.5" ry="2.5" style="stroke:#181818;stroke-width:0.5;" width="129" x="506" y="288.0938"/><text fill="#000000" font-family="sans-serif" font-size="14" lengthAdjust="spacing" textLength="115" x="513" y="308.0889">:WebDashboard</text><rect fill="#E2E2F0" height="30.2969" rx="2.5" ry="2.5" style="stroke:#181818;stroke-width:0.5;" width="150" x="650.5" y="50"/><text fill="#000000" font-family="sans-serif" font-size="14" lengthAdjust="spacing" textLength="136" x="657.5" y="69.9951">:GetAGVController</text><rect fill="#E2E2F0" height="30.2969" rx="2.5" ry="2.5" style="stroke:#181818;stroke-width:0.5;" width="150" x="650.5" y="288.0938"/><text fill="#000000" font-family="sans-serif" font-size="14" lengthAdjust="spacing" textLength="136" x="657.5" y="308.0889">:GetAGVController</text><rect fill="#E2E2F0" height="30.2969" rx="2.5" ry="2.5" style="stroke:#181818;stroke-width:0.5;" width="129" x="810.5" y="50"/><text fill="#000000" font-family="sans-serif" font-size="14" lengthAdjust="spacing" textLength="115" x="817.5" y="69.9951">:AGVRepository</text><rect fill="#E2E2F0" height="30.2969" rx="2.5" ry="2.5" style="stroke:#181818;stroke-width:0.5;" width="129" x="810.5" y="288.0938"/><text fill="#000000" font-family="sans-serif" font-size="14" lengthAdjust="spacing" textLength="115" x="817.5" y="308.0889">:AGVRepository</text><rect fill="#E2E2F0" height="30.2969" rx="2.5" ry="2.5" style="stroke:#181818;stroke-width:0.5;" width="50" x="949.5" y="50"/><text fill="#000000" font-family="sans-serif" font-size="14" lengthAdjust="spacing" textLength="36" x="956.5" y="69.9951">:AGV</text><rect fill="#E2E2F0" height="30.2969" rx="2.5" ry="2.5" style="stroke:#181818;stroke-width:0.5;" width="50" x="949.5" y="288.0938"/><text fill="#000000" font-family="sans-serif" font-size="14" lengthAdjust="spacing" textLength="36" x="956.5" y="308.0889">:AGV</text><rect fill="#FFFFFF" height="51.1328" style="stroke:#181818;stroke-width:1.0;" width="10" x="243.5" y="228.9609"/><rect fill="#FFFFFF" height="172.7969" style="stroke:#181818;stroke-width:1.0;" width="10" x="565.5" y="91.2969"/><rect fill="#FFFFFF" height="50.2656" style="stroke:#181818;stroke-width:1.0;" width="10" x="720.5" y="91.2969"/><rect fill="#FFFFFF" height="29.1328" style="stroke:#181818;stroke-width:1.0;" width="10" x="720.5" y="170.6953"/><rect fill="#FFFFFF" height="29.1328" style="stroke:#181818;stroke-width:1.0;" width="10" x="870" y="141.5625"/><polygon fill="#181818" points="708.5,108.4297,718.5,112.4297,708.5,116.4297,712.5,112.4297" style="stroke:#181818;stroke-width:1.0;"/><line style="stroke:#181818;stroke-width:1.0;" x1="575.5" x2="714.5" y1="112.4297" y2="112.4297"/><text fill="#000000" font-family="sans-serif" font-size="13" font-weight="bold" lengthAdjust="spacing" textLength="9" x="582.5" y="107.3638">1</text><text fill="#000000" font-family="sans-serif" font-size="13" lengthAdjust="spacing" textLength="108" x="595.5" y="107.3638">getAGVfromDB()</text><polygon fill="#181818" points="858,137.5625,868,141.5625,858,145.5625,862,141.5625" style="stroke:#181818;stroke-width:1.0;"/><line style="stroke:#181818;stroke-width:1.0;" x1="725.5" x2="864" y1="141.5625" y2="141.5625"/><text fill="#000000" font-family="sans-serif" font-size="13" font-weight="bold" lengthAdjust="spacing" textLength="9" x="732.5" y="136.4966">2</text><text fill="#000000" font-family="sans-serif" font-size="13" lengthAdjust="spacing" textLength="49" x="745.5" y="136.4966">findAll()</text><polygon fill="#181818" points="741.5,166.6953,731.5,170.6953,741.5,174.6953,737.5,170.6953" style="stroke:#181818;stroke-width:1.0;"/><line style="stroke:#181818;stroke-width:1.0;" x1="735.5" x2="874" y1="170.6953" y2="170.6953"/><text fill="#000000" font-family="sans-serif" font-size="13" font-weight="bold" lengthAdjust="spacing" textLength="8" x="747.5" y="165.6294">3</text><text fill="#000000" font-family="sans-serif" font-size="13" lengthAdjust="spacing" textLength="78" x="759.5" y="165.6294">returns AGV</text><polygon fill="#181818" points="586.5,195.8281,576.5,199.8281,586.5,203.8281,582.5,199.8281" style="stroke:#181818;stroke-width:1.0;"/><line style="stroke:#181818;stroke-width:1.0;" x1="580.5" x2="724.5" y1="199.8281" y2="199.8281"/><text fill="#000000" font-family="sans-serif" font-size="13" font-weight="bold" lengthAdjust="spacing" textLength="9" x="592.5" y="194.7622">4</text><text fill="#000000" font-family="sans-serif" font-size="13" lengthAdjust="spacing" textLength="78" x="605.5" y="194.7622">returns AGV</text><polygon fill="#181818" points="264.5,224.9609,254.5,228.9609,264.5,232.9609,260.5,228.9609" style="stroke:#181818;stroke-width:1.0;"/><line style="stroke:#181818;stroke-width:1.0;" x1="258.5" x2="564.5" y1="228.9609" y2="228.9609"/><text fill="#000000" font-family="sans-serif" font-size="13" font-weight="bold" lengthAdjust="spacing" textLength="9" x="270.5" y="223.895">5</text><text fill="#000000" font-family="sans-serif" font-size="13" lengthAdjust="spacing" textLength="58" x="283.5" y="223.895">initializes</text><line style="stroke:#181818;stroke-width:1.0;" x1="253.5" x2="295.5" y1="263.0938" y2="263.0938"/><line style="stroke:#181818;stroke-width:1.0;" x1="295.5" x2="295.5" y1="263.0938" y2="276.0938"/><line style="stroke:#181818;stroke-width:1.0;" x1="248.5" x2="295.5" y1="276.0938" y2="276.0938"/><polygon fill="#181818" points="258.5,272.0938,248.5,276.0938,258.5,280.0938,254.5,276.0938" style="stroke:#181818;stroke-width:1.0;"/><text fill="#000000" font-family="sans-serif" font-size="13" font-weight="bold" lengthAdjust="spacing" textLength="9" x="260.5" y="258.0278">6</text><text fill="#000000" font-family="sans-serif" font-size="13" lengthAdjust="spacing" textLength="151" x="273.5" y="258.0278">waiting for GET request</text><!--MD5=[cd1d0a59d06983065b42353ddd85be6a]
@startuml
autonumber
actor "Warehouse Employee" as WE
participant ":HTTPAjaxRequest" as AJAX
participant ":HTTPmessage" as HTTPM
participant ":WebDashboard" as WEB
participant ":GetAGVController" as CTRL
participant ":AGVRepository" as REPO
participant ":AGV" as AGV

activate WEB
activate CTRL

WEB -> CTRL :getAGVfromDB()

CTRL -> REPO: findAll()

deactivate CTRL
activate REPO

REPO -> CTRL: returns AGV

deactivate REPO
activate CTRL

CTRL -> WEB: returns AGV

deactivate CTRL


WEB -> AJAX: initializes
activate AJAX
AJAX -> AJAX: waiting for GET request
deactivate WEB
@enduml

PlantUML version 1.2022.6beta4(Unknown compile time)
(GPL source distribution)
Java Runtime: Java(TM) SE Runtime Environment
JVM: Java HotSpot(TM) 64-Bit Server VM
Default Encoding: UTF-8
Language: en
Country: US
--></g></svg>