<?xml version="1.0" encoding="UTF-8" standalone="no"?><svg xmlns="http://www.w3.org/2000/svg" xmlns:xlink="http://www.w3.org/1999/xlink" contentStyleType="text/css" height="1361px" preserveAspectRatio="none" style="width:2061px;height:1361px;background:#FFFFFF;" version="1.1" viewBox="0 0 2061 1361" width="2061px" zoomAndPan="magnify"><defs/><g><rect fill="#FFFFFF" height="1179.7637" style="stroke:#181818;stroke-width:1.0;" width="10" x="186" y="91.4883"/><rect fill="#FFFFFF" height="28" style="stroke:#181818;stroke-width:1.0;" width="10" x="191" y="1168.6309"/><rect fill="#FFFFFF" height="236.5527" style="stroke:#181818;stroke-width:1.0;" width="10" x="356" y="716.8359"/><rect fill="#FFFFFF" height="397.4844" style="stroke:#181818;stroke-width:1.0;" width="10" x="522.5" y="290.041"/><rect fill="#FFFFFF" height="28" style="stroke:#181818;stroke-width:1.0;" width="10" x="527.5" y="327.3516"/><rect fill="#FFFFFF" height="59.3105" style="stroke:#181818;stroke-width:1.0;" width="10" x="680.5" y="112.7988"/><rect fill="#FFFFFF" height="59.3105" style="stroke:#181818;stroke-width:1.0;" width="10" x="680.5" y="391.6621"/><rect fill="#FFFFFF" height="29.3105" style="stroke:#181818;stroke-width:1.0;" width="10" x="680.5" y="746.1465"/><rect fill="#FFFFFF" height="59.3105" style="stroke:#181818;stroke-width:1.0;" width="10" x="786" y="201.4199"/><rect fill="#FFFFFF" height="59.3105" style="stroke:#181818;stroke-width:1.0;" width="10" x="786" y="480.2832"/><rect fill="#FFFFFF" height="59.3105" style="stroke:#181818;stroke-width:1.0;" width="10" x="786" y="628.2148"/><rect fill="#FFFFFF" height="30" style="stroke:#181818;stroke-width:1.0;" width="10" x="786" y="864.0781"/><rect fill="#FFFFFF" height="30" style="stroke:#181818;stroke-width:1.0;" width="10" x="902" y="982.6992"/><rect fill="#FFFFFF" height="30" style="stroke:#181818;stroke-width:1.0;" width="10" x="1002.5" y="1042.0098"/><rect fill="#FFFFFF" height="30" style="stroke:#181818;stroke-width:1.0;" width="10" x="1097" y="568.9043"/><rect fill="#FFFFFF" height="29.3105" style="stroke:#181818;stroke-width:1.0;" width="10" x="1220.5" y="1232.9414"/><rect fill="#FFFFFF" height="30" style="stroke:#181818;stroke-width:1.0;" width="10" x="1361.5" y="1101.3203"/><rect fill="#FFFFFF" height="30" style="stroke:#181818;stroke-width:1.0;" width="10" x="1493.5" y="142.1094"/><rect fill="#FFFFFF" height="30" style="stroke:#181818;stroke-width:1.0;" width="10" x="1493.5" y="420.9727"/><rect fill="#FFFFFF" height="30" style="stroke:#181818;stroke-width:1.0;" width="10" x="1493.5" y="804.7676"/><rect fill="#FFFFFF" height="30" style="stroke:#181818;stroke-width:1.0;" width="10" x="1655.5" y="230.7305"/><rect fill="#FFFFFF" height="30" style="stroke:#181818;stroke-width:1.0;" width="10" x="1655.5" y="509.5938"/><rect fill="#FFFFFF" height="30" style="stroke:#181818;stroke-width:1.0;" width="10" x="1655.5" y="657.5254"/><rect fill="#FFFFFF" height="30" style="stroke:#181818;stroke-width:1.0;" width="10" x="1655.5" y="923.3887"/><line style="stroke:#181818;stroke-width:0.5;stroke-dasharray:5.0,5.0;" x1="63" x2="63" y1="81.4883" y2="1280.252"/><line style="stroke:#181818;stroke-width:0.5;stroke-dasharray:5.0,5.0;" x1="191" x2="191" y1="81.4883" y2="1280.252"/><line style="stroke:#181818;stroke-width:0.5;stroke-dasharray:5.0,5.0;" x1="361" x2="361" y1="81.4883" y2="1280.252"/><line style="stroke:#181818;stroke-width:0.5;stroke-dasharray:5.0,5.0;" x1="527" x2="527" y1="81.4883" y2="1280.252"/><line style="stroke:#181818;stroke-width:0.5;stroke-dasharray:5.0,5.0;" x1="685.5" x2="685.5" y1="81.4883" y2="1280.252"/><line style="stroke:#181818;stroke-width:0.5;stroke-dasharray:5.0,5.0;" x1="790.5" x2="790.5" y1="81.4883" y2="1280.252"/><line style="stroke:#181818;stroke-width:0.5;stroke-dasharray:5.0,5.0;" x1="906.5" x2="906.5" y1="81.4883" y2="1280.252"/><line style="stroke:#181818;stroke-width:0.5;stroke-dasharray:5.0,5.0;" x1="1007.5" x2="1007.5" y1="81.4883" y2="1280.252"/><line style="stroke:#181818;stroke-width:0.5;stroke-dasharray:5.0,5.0;" x1="1101.5" x2="1101.5" y1="81.4883" y2="1280.252"/><line style="stroke:#181818;stroke-width:0.5;stroke-dasharray:5.0,5.0;" x1="1225.5" x2="1225.5" y1="81.4883" y2="1280.252"/><line style="stroke:#181818;stroke-width:0.5;stroke-dasharray:5.0,5.0;" x1="1366.5" x2="1366.5" y1="81.4883" y2="1280.252"/><line style="stroke:#181818;stroke-width:0.5;stroke-dasharray:5.0,5.0;" x1="1498.5" x2="1498.5" y1="81.4883" y2="1280.252"/><line style="stroke:#181818;stroke-width:0.5;stroke-dasharray:5.0,5.0;" x1="1660.5" x2="1660.5" y1="81.4883" y2="1280.252"/><line style="stroke:#181818;stroke-width:0.5;stroke-dasharray:5.0,5.0;" x1="1835.5" x2="1835.5" y1="81.4883" y2="1280.252"/><line style="stroke:#181818;stroke-width:0.5;stroke-dasharray:5.0,5.0;" x1="1986.5" x2="1986.5" y1="81.4883" y2="1280.252"/><text fill="#000000" font-family="sans-serif" font-size="14" lengthAdjust="spacing" textLength="111" x="5" y="78.5352">Project Manager</text><ellipse cx="63.5" cy="13.5" fill="#E2E2F0" rx="8" ry="8" style="stroke:#181818;stroke-width:0.5;"/><path d="M63.5,21.5 L63.5,48.5 M50.5,29.5 L76.5,29.5 M63.5,48.5 L50.5,63.5 M63.5,48.5 L76.5,63.5 " fill="none" style="stroke:#181818;stroke-width:0.5;"/><text fill="#000000" font-family="sans-serif" font-size="14" lengthAdjust="spacing" textLength="111" x="5" y="1292.7871">Project Manager</text><ellipse cx="63.5" cy="1304.2402" fill="#E2E2F0" rx="8" ry="8" style="stroke:#181818;stroke-width:0.5;"/><path d="M63.5,1312.2402 L63.5,1339.2402 M50.5,1320.2402 L76.5,1320.2402 M63.5,1339.2402 L50.5,1354.2402 M63.5,1339.2402 L76.5,1354.2402 " fill="none" style="stroke:#181818;stroke-width:0.5;"/><rect fill="#E2E2F0" height="30.4883" rx="2.5" ry="2.5" style="stroke:#181818;stroke-width:0.5;" width="118" x="132" y="50"/><text fill="#000000" font-family="sans-serif" font-size="14" lengthAdjust="spacing" textLength="104" x="139" y="70.5352">:PrepareOrders</text><rect fill="#E2E2F0" height="30.4883" rx="2.5" ry="2.5" style="stroke:#181818;stroke-width:0.5;" width="118" x="132" y="1279.252"/><text fill="#000000" font-family="sans-serif" font-size="14" lengthAdjust="spacing" textLength="104" x="139" y="1299.7871">:PrepareOrders</text><rect fill="#E2E2F0" height="46.9766" rx="2.5" ry="2.5" style="stroke:#181818;stroke-width:0.5;" width="202" x="260" y="33.5117"/><text fill="#000000" font-family="sans-serif" font-size="14" font-style="italic" lengthAdjust="spacing" textLength="90" x="316" y="54.0469">«application»</text><text fill="#000000" font-family="sans-serif" font-size="14" lengthAdjust="spacing" textLength="188" x="267" y="70.5352">AGVToPrepOrderController</text><rect fill="#E2E2F0" height="46.9766" rx="2.5" ry="2.5" style="stroke:#181818;stroke-width:0.5;" width="202" x="260" y="1279.252"/><text fill="#000000" font-family="sans-serif" font-size="14" font-style="italic" lengthAdjust="spacing" textLength="90" x="316" y="1299.7871">«application»</text><text fill="#000000" font-family="sans-serif" font-size="14" lengthAdjust="spacing" textLength="188" x="267" y="1316.2754">AGVToPrepOrderController</text><rect fill="#E2E2F0" height="30.4883" rx="2.5" ry="2.5" style="stroke:#181818;stroke-width:0.5;" width="111" x="472" y="50"/><text fill="#000000" font-family="sans-serif" font-size="14" lengthAdjust="spacing" textLength="97" x="479" y="70.5352">:TaskExecutor</text><rect fill="#E2E2F0" height="30.4883" rx="2.5" ry="2.5" style="stroke:#181818;stroke-width:0.5;" width="111" x="472" y="1279.252"/><text fill="#000000" font-family="sans-serif" font-size="14" lengthAdjust="spacing" textLength="97" x="479" y="1299.7871">:TaskExecutor</text><rect fill="#E2E2F0" height="46.9766" rx="2.5" ry="2.5" style="stroke:#181818;stroke-width:0.5;" width="80" x="645.5" y="33.5117"/><text fill="#000000" font-family="sans-serif" font-size="14" font-style="italic" lengthAdjust="spacing" textLength="66" x="652.5" y="54.0469">«domain»</text><text fill="#000000" font-family="sans-serif" font-size="14" lengthAdjust="spacing" textLength="33" x="669" y="70.5352">:AGV</text><rect fill="#E2E2F0" height="46.9766" rx="2.5" ry="2.5" style="stroke:#181818;stroke-width:0.5;" width="80" x="645.5" y="1279.252"/><text fill="#000000" font-family="sans-serif" font-size="14" font-style="italic" lengthAdjust="spacing" textLength="66" x="652.5" y="1299.7871">«domain»</text><text fill="#000000" font-family="sans-serif" font-size="14" lengthAdjust="spacing" textLength="33" x="669" y="1316.2754">:AGV</text><rect fill="#E2E2F0" height="46.9766" rx="2.5" ry="2.5" style="stroke:#181818;stroke-width:0.5;" width="111" x="735.5" y="33.5117"/><text fill="#000000" font-family="sans-serif" font-size="14" font-style="italic" lengthAdjust="spacing" textLength="66" x="758" y="54.0469">«domain»</text><text fill="#000000" font-family="sans-serif" font-size="14" lengthAdjust="spacing" textLength="97" x="742.5" y="70.5352">:ProductOrder</text><rect fill="#E2E2F0" height="46.9766" rx="2.5" ry="2.5" style="stroke:#181818;stroke-width:0.5;" width="111" x="735.5" y="1279.252"/><text fill="#000000" font-family="sans-serif" font-size="14" font-style="italic" lengthAdjust="spacing" textLength="66" x="758" y="1299.7871">«domain»</text><text fill="#000000" font-family="sans-serif" font-size="14" lengthAdjust="spacing" textLength="97" x="742.5" y="1316.2754">:ProductOrder</text><rect fill="#E2E2F0" height="46.9766" rx="2.5" ry="2.5" style="stroke:#181818;stroke-width:0.5;" width="101" x="856.5" y="33.5117"/><text fill="#000000" font-family="sans-serif" font-size="14" font-style="italic" lengthAdjust="spacing" textLength="66" x="874" y="54.0469">«domain»</text><text fill="#000000" font-family="sans-serif" font-size="14" lengthAdjust="spacing" textLength="87" x="863.5" y="70.5352">:ProductItem</text><rect fill="#E2E2F0" height="46.9766" rx="2.5" ry="2.5" style="stroke:#181818;stroke-width:0.5;" width="101" x="856.5" y="1279.252"/><text fill="#000000" font-family="sans-serif" font-size="14" font-style="italic" lengthAdjust="spacing" textLength="66" x="874" y="1299.7871">«domain»</text><text fill="#000000" font-family="sans-serif" font-size="14" lengthAdjust="spacing" textLength="87" x="863.5" y="1316.2754">:ProductItem</text><rect fill="#E2E2F0" height="46.9766" rx="2.5" ry="2.5" style="stroke:#181818;stroke-width:0.5;" width="80" x="967.5" y="33.5117"/><text fill="#000000" font-family="sans-serif" font-size="14" font-style="italic" lengthAdjust="spacing" textLength="66" x="974.5" y="54.0469">«domain»</text><text fill="#000000" font-family="sans-serif" font-size="14" lengthAdjust="spacing" textLength="57" x="979" y="70.5352">:Product</text><rect fill="#E2E2F0" height="46.9766" rx="2.5" ry="2.5" style="stroke:#181818;stroke-width:0.5;" width="80" x="967.5" y="1279.252"/><text fill="#000000" font-family="sans-serif" font-size="14" font-style="italic" lengthAdjust="spacing" textLength="66" x="974.5" y="1299.7871">«domain»</text><text fill="#000000" font-family="sans-serif" font-size="14" lengthAdjust="spacing" textLength="57" x="979" y="1316.2754">:Product</text><rect fill="#E2E2F0" height="46.9766" rx="2.5" ry="2.5" style="stroke:#181818;stroke-width:0.5;" width="89" x="1057.5" y="33.5117"/><text fill="#000000" font-family="sans-serif" font-size="14" font-style="italic" lengthAdjust="spacing" textLength="66" x="1069" y="54.0469">«domain»</text><text fill="#000000" font-family="sans-serif" font-size="14" lengthAdjust="spacing" textLength="75" x="1064.5" y="70.5352">:Autonomy</text><rect fill="#E2E2F0" height="46.9766" rx="2.5" ry="2.5" style="stroke:#181818;stroke-width:0.5;" width="89" x="1057.5" y="1279.252"/><text fill="#000000" font-family="sans-serif" font-size="14" font-style="italic" lengthAdjust="spacing" textLength="66" x="1069" y="1299.7871">«domain»</text><text fill="#000000" font-family="sans-serif" font-size="14" lengthAdjust="spacing" textLength="75" x="1064.5" y="1316.2754">:Autonomy</text><rect fill="#E2E2F0" height="30.4883" rx="2.5" ry="2.5" style="stroke:#181818;stroke-width:0.5;" width="138" x="1156.5" y="50"/><text fill="#000000" font-family="sans-serif" font-size="14" lengthAdjust="spacing" textLength="124" x="1163.5" y="70.5352">:WarehouseMatrix</text><rect fill="#E2E2F0" height="30.4883" rx="2.5" ry="2.5" style="stroke:#181818;stroke-width:0.5;" width="138" x="1156.5" y="1279.252"/><text fill="#000000" font-family="sans-serif" font-size="14" lengthAdjust="spacing" textLength="124" x="1163.5" y="1299.7871">:WarehouseMatrix</text><rect fill="#E2E2F0" height="46.9766" rx="2.5" ry="2.5" style="stroke:#181818;stroke-width:0.5;" width="124" x="1304.5" y="33.5117"/><text fill="#000000" font-family="sans-serif" font-size="14" font-style="italic" lengthAdjust="spacing" textLength="84" x="1324.5" y="54.0469">«repository»</text><text fill="#000000" font-family="sans-serif" font-size="14" lengthAdjust="spacing" textLength="110" x="1311.5" y="70.5352">:AisleRepository</text><rect fill="#E2E2F0" height="46.9766" rx="2.5" ry="2.5" style="stroke:#181818;stroke-width:0.5;" width="124" x="1304.5" y="1279.252"/><text fill="#000000" font-family="sans-serif" font-size="14" font-style="italic" lengthAdjust="spacing" textLength="84" x="1324.5" y="1299.7871">«repository»</text><text fill="#000000" font-family="sans-serif" font-size="14" lengthAdjust="spacing" textLength="110" x="1311.5" y="1316.2754">:AisleRepository</text><rect fill="#E2E2F0" height="46.9766" rx="2.5" ry="2.5" style="stroke:#181818;stroke-width:0.5;" width="120" x="1438.5" y="33.5117"/><text fill="#000000" font-family="sans-serif" font-size="14" font-style="italic" lengthAdjust="spacing" textLength="84" x="1456.5" y="54.0469">«repository»</text><text fill="#000000" font-family="sans-serif" font-size="14" lengthAdjust="spacing" textLength="106" x="1445.5" y="70.5352">:AGVRepository</text><rect fill="#E2E2F0" height="46.9766" rx="2.5" ry="2.5" style="stroke:#181818;stroke-width:0.5;" width="120" x="1438.5" y="1279.252"/><text fill="#000000" font-family="sans-serif" font-size="14" font-style="italic" lengthAdjust="spacing" textLength="84" x="1456.5" y="1299.7871">«repository»</text><text fill="#000000" font-family="sans-serif" font-size="14" lengthAdjust="spacing" textLength="106" x="1445.5" y="1316.2754">:AGVRepository</text><rect fill="#E2E2F0" height="46.9766" rx="2.5" ry="2.5" style="stroke:#181818;stroke-width:0.5;" width="184" x="1568.5" y="33.5117"/><text fill="#000000" font-family="sans-serif" font-size="14" font-style="italic" lengthAdjust="spacing" textLength="84" x="1618.5" y="54.0469">«repository»</text><text fill="#000000" font-family="sans-serif" font-size="14" lengthAdjust="spacing" textLength="170" x="1575.5" y="70.5352">:ProductOrderRepository</text><rect fill="#E2E2F0" height="46.9766" rx="2.5" ry="2.5" style="stroke:#181818;stroke-width:0.5;" width="184" x="1568.5" y="1279.252"/><text fill="#000000" font-family="sans-serif" font-size="14" font-style="italic" lengthAdjust="spacing" textLength="84" x="1618.5" y="1299.7871">«repository»</text><text fill="#000000" font-family="sans-serif" font-size="14" lengthAdjust="spacing" textLength="170" x="1575.5" y="1316.2754">:ProductOrderRepository</text><rect fill="#E2E2F0" height="46.9766" rx="2.5" ry="2.5" style="stroke:#181818;stroke-width:0.5;" width="146" x="1762.5" y="33.5117"/><text fill="#000000" font-family="sans-serif" font-size="14" font-style="italic" lengthAdjust="spacing" textLength="92" x="1789.5" y="54.0469">«persistence»</text><text fill="#000000" font-family="sans-serif" font-size="14" lengthAdjust="spacing" textLength="132" x="1769.5" y="70.5352">PersistenceContext</text><rect fill="#E2E2F0" height="46.9766" rx="2.5" ry="2.5" style="stroke:#181818;stroke-width:0.5;" width="146" x="1762.5" y="1279.252"/><text fill="#000000" font-family="sans-serif" font-size="14" font-style="italic" lengthAdjust="spacing" textLength="92" x="1789.5" y="1299.7871">«persistence»</text><text fill="#000000" font-family="sans-serif" font-size="14" lengthAdjust="spacing" textLength="132" x="1769.5" y="1316.2754">PersistenceContext</text><rect fill="#E2E2F0" height="46.9766" rx="2.5" ry="2.5" style="stroke:#181818;stroke-width:0.5;" width="137" x="1918.5" y="33.5117"/><text fill="#000000" font-family="sans-serif" font-size="14" font-style="italic" lengthAdjust="spacing" textLength="61" x="1956.5" y="54.0469">«factory»</text><text fill="#000000" font-family="sans-serif" font-size="14" lengthAdjust="spacing" textLength="123" x="1925.5" y="70.5352">RepositoryFactory</text><rect fill="#E2E2F0" height="46.9766" rx="2.5" ry="2.5" style="stroke:#181818;stroke-width:0.5;" width="137" x="1918.5" y="1279.252"/><text fill="#000000" font-family="sans-serif" font-size="14" font-style="italic" lengthAdjust="spacing" textLength="61" x="1956.5" y="1299.7871">«factory»</text><text fill="#000000" font-family="sans-serif" font-size="14" lengthAdjust="spacing" textLength="123" x="1925.5" y="1316.2754">RepositoryFactory</text><rect fill="#FFFFFF" height="1179.7637" style="stroke:#181818;stroke-width:1.0;" width="10" x="186" y="91.4883"/><rect fill="#FFFFFF" height="28" style="stroke:#181818;stroke-width:1.0;" width="10" x="191" y="1168.6309"/><rect fill="#FFFFFF" height="236.5527" style="stroke:#181818;stroke-width:1.0;" width="10" x="356" y="716.8359"/><rect fill="#FFFFFF" height="397.4844" style="stroke:#181818;stroke-width:1.0;" width="10" x="522.5" y="290.041"/><rect fill="#FFFFFF" height="28" style="stroke:#181818;stroke-width:1.0;" width="10" x="527.5" y="327.3516"/><rect fill="#FFFFFF" height="59.3105" style="stroke:#181818;stroke-width:1.0;" width="10" x="680.5" y="112.7988"/><rect fill="#FFFFFF" height="59.3105" style="stroke:#181818;stroke-width:1.0;" width="10" x="680.5" y="391.6621"/><rect fill="#FFFFFF" height="29.3105" style="stroke:#181818;stroke-width:1.0;" width="10" x="680.5" y="746.1465"/><rect fill="#FFFFFF" height="59.3105" style="stroke:#181818;stroke-width:1.0;" width="10" x="786" y="201.4199"/><rect fill="#FFFFFF" height="59.3105" style="stroke:#181818;stroke-width:1.0;" width="10" x="786" y="480.2832"/><rect fill="#FFFFFF" height="59.3105" style="stroke:#181818;stroke-width:1.0;" width="10" x="786" y="628.2148"/><rect fill="#FFFFFF" height="30" style="stroke:#181818;stroke-width:1.0;" width="10" x="786" y="864.0781"/><rect fill="#FFFFFF" height="30" style="stroke:#181818;stroke-width:1.0;" width="10" x="902" y="982.6992"/><rect fill="#FFFFFF" height="30" style="stroke:#181818;stroke-width:1.0;" width="10" x="1002.5" y="1042.0098"/><rect fill="#FFFFFF" height="30" style="stroke:#181818;stroke-width:1.0;" width="10" x="1097" y="568.9043"/><rect fill="#FFFFFF" height="29.3105" style="stroke:#181818;stroke-width:1.0;" width="10" x="1220.5" y="1232.9414"/><rect fill="#FFFFFF" height="30" style="stroke:#181818;stroke-width:1.0;" width="10" x="1361.5" y="1101.3203"/><rect fill="#FFFFFF" height="30" style="stroke:#181818;stroke-width:1.0;" width="10" x="1493.5" y="142.1094"/><rect fill="#FFFFFF" height="30" style="stroke:#181818;stroke-width:1.0;" width="10" x="1493.5" y="420.9727"/><rect fill="#FFFFFF" height="30" style="stroke:#181818;stroke-width:1.0;" width="10" x="1493.5" y="804.7676"/><rect fill="#FFFFFF" height="30" style="stroke:#181818;stroke-width:1.0;" width="10" x="1655.5" y="230.7305"/><rect fill="#FFFFFF" height="30" style="stroke:#181818;stroke-width:1.0;" width="10" x="1655.5" y="509.5938"/><rect fill="#FFFFFF" height="30" style="stroke:#181818;stroke-width:1.0;" width="10" x="1655.5" y="657.5254"/><rect fill="#FFFFFF" height="30" style="stroke:#181818;stroke-width:1.0;" width="10" x="1655.5" y="923.3887"/><polygon fill="#181818" points="668.5,108.7988,678.5,112.7988,668.5,116.7988,672.5,112.7988" style="stroke:#181818;stroke-width:1.0;"/><line style="stroke:#181818;stroke-width:1.0;" x1="196" x2="674.5" y1="112.7988" y2="112.7988"/><text fill="#000000" font-family="sans-serif" font-size="13" font-weight="bold" lengthAdjust="spacing" textLength="9" x="203" y="108.0566">1</text><text fill="#000000" font-family="sans-serif" font-size="13" lengthAdjust="spacing" textLength="116" x="216" y="108.0566">getAvailableAgvs()</text><polygon fill="#181818" points="1481.5,138.1094,1491.5,142.1094,1481.5,146.1094,1485.5,142.1094" style="stroke:#181818;stroke-width:1.0;"/><line style="stroke:#181818;stroke-width:1.0;" x1="690.5" x2="1487.5" y1="142.1094" y2="142.1094"/><text fill="#000000" font-family="sans-serif" font-size="13" font-weight="bold" lengthAdjust="spacing" textLength="9" x="697.5" y="137.3672">2</text><text fill="#000000" font-family="sans-serif" font-size="13" lengthAdjust="spacing" textLength="112" x="710.5" y="137.3672">findAGVByStatus()</text><polygon fill="#181818" points="774,197.4199,784,201.4199,774,205.4199,778,201.4199" style="stroke:#181818;stroke-width:1.0;"/><line style="stroke:#181818;stroke-width:1.0;" x1="196" x2="780" y1="201.4199" y2="201.4199"/><text fill="#000000" font-family="sans-serif" font-size="13" font-weight="bold" lengthAdjust="spacing" textLength="9" x="203" y="196.6777">3</text><text fill="#000000" font-family="sans-serif" font-size="13" lengthAdjust="spacing" textLength="154" x="216" y="196.6777">getOrdersToBePrepared()</text><polygon fill="#181818" points="1643.5,226.7305,1653.5,230.7305,1643.5,234.7305,1647.5,230.7305" style="stroke:#181818;stroke-width:1.0;"/><line style="stroke:#181818;stroke-width:1.0;" x1="796" x2="1649.5" y1="230.7305" y2="230.7305"/><text fill="#000000" font-family="sans-serif" font-size="13" font-weight="bold" lengthAdjust="spacing" textLength="9" x="803" y="225.9883">4</text><text fill="#000000" font-family="sans-serif" font-size="13" lengthAdjust="spacing" textLength="128" x="816" y="225.9883">findOrdersByStatus()</text><polygon fill="#181818" points="510.5,286.041,520.5,290.041,510.5,294.041,514.5,290.041" style="stroke:#181818;stroke-width:1.0;"/><line style="stroke:#181818;stroke-width:1.0;" x1="196" x2="516.5" y1="290.041" y2="290.041"/><text fill="#000000" font-family="sans-serif" font-size="13" font-weight="bold" lengthAdjust="spacing" textLength="9" x="203" y="285.2988">5</text><text fill="#000000" font-family="sans-serif" font-size="13" lengthAdjust="spacing" textLength="89" x="216" y="285.2988">createThread()</text><line style="stroke:#181818;stroke-width:1.0;" x1="537.5" x2="579.5" y1="319.3516" y2="319.3516"/><line style="stroke:#181818;stroke-width:1.0;" x1="579.5" x2="579.5" y1="319.3516" y2="332.3516"/><line style="stroke:#181818;stroke-width:1.0;" x1="538.5" x2="579.5" y1="332.3516" y2="332.3516"/><polygon fill="#181818" points="548.5,328.3516,538.5,332.3516,548.5,336.3516,544.5,332.3516" style="stroke:#181818;stroke-width:1.0;"/><text fill="#000000" font-family="sans-serif" font-size="13" font-weight="bold" lengthAdjust="spacing" textLength="9" x="544.5" y="314.6094">6</text><text fill="#000000" font-family="sans-serif" font-size="13" lengthAdjust="spacing" textLength="105" x="557.5" y="314.6094">initializeThread()</text><polygon fill="#181818" points="668.5,387.6621,678.5,391.6621,668.5,395.6621,672.5,391.6621" style="stroke:#181818;stroke-width:1.0;"/><line style="stroke:#181818;stroke-width:1.0;" x1="532.5" x2="674.5" y1="391.6621" y2="391.6621"/><text fill="#000000" font-family="sans-serif" font-size="13" font-weight="bold" lengthAdjust="spacing" textLength="9" x="539.5" y="386.9199">7</text><text fill="#000000" font-family="sans-serif" font-size="13" lengthAdjust="spacing" textLength="116" x="552.5" y="386.9199">getAvailableAgvs()</text><polygon fill="#181818" points="1481.5,416.9727,1491.5,420.9727,1481.5,424.9727,1485.5,420.9727" style="stroke:#181818;stroke-width:1.0;"/><line style="stroke:#181818;stroke-width:1.0;" x1="690.5" x2="1487.5" y1="420.9727" y2="420.9727"/><text fill="#000000" font-family="sans-serif" font-size="13" font-weight="bold" lengthAdjust="spacing" textLength="9" x="697.5" y="416.2305">8</text><text fill="#000000" font-family="sans-serif" font-size="13" lengthAdjust="spacing" textLength="112" x="710.5" y="416.2305">findAGVByStatus()</text><polygon fill="#181818" points="774,476.2832,784,480.2832,774,484.2832,778,480.2832" style="stroke:#181818;stroke-width:1.0;"/><line style="stroke:#181818;stroke-width:1.0;" x1="532.5" x2="780" y1="480.2832" y2="480.2832"/><text fill="#000000" font-family="sans-serif" font-size="13" font-weight="bold" lengthAdjust="spacing" textLength="9" x="539.5" y="475.541">9</text><text fill="#000000" font-family="sans-serif" font-size="13" lengthAdjust="spacing" textLength="154" x="552.5" y="475.541">getOrdersToBePrepared()</text><polygon fill="#181818" points="1643.5,505.5938,1653.5,509.5938,1643.5,513.5938,1647.5,509.5938" style="stroke:#181818;stroke-width:1.0;"/><line style="stroke:#181818;stroke-width:1.0;" x1="796" x2="1649.5" y1="509.5938" y2="509.5938"/><text fill="#000000" font-family="sans-serif" font-size="13" font-weight="bold" lengthAdjust="spacing" textLength="18" x="803" y="504.8516">10</text><text fill="#000000" font-family="sans-serif" font-size="13" lengthAdjust="spacing" textLength="128" x="825" y="504.8516">findOrdersByStatus()</text><polygon fill="#181818" points="1085,564.9043,1095,568.9043,1085,572.9043,1089,568.9043" style="stroke:#181818;stroke-width:1.0;"/><line style="stroke:#181818;stroke-width:1.0;" x1="532.5" x2="1091" y1="568.9043" y2="568.9043"/><text fill="#000000" font-family="sans-serif" font-size="13" font-weight="bold" lengthAdjust="spacing" textLength="18" x="539.5" y="564.1621">11</text><text fill="#000000" font-family="sans-serif" font-size="13" lengthAdjust="spacing" textLength="89" x="561.5" y="564.1621">discharching()</text><polygon fill="#181818" points="774,624.2148,784,628.2148,774,632.2148,778,628.2148" style="stroke:#181818;stroke-width:1.0;"/><line style="stroke:#181818;stroke-width:1.0;" x1="532.5" x2="780" y1="628.2148" y2="628.2148"/><text fill="#000000" font-family="sans-serif" font-size="13" font-weight="bold" lengthAdjust="spacing" textLength="18" x="539.5" y="623.4727">12</text><text fill="#000000" font-family="sans-serif" font-size="13" lengthAdjust="spacing" textLength="92" x="561.5" y="623.4727">changeStatus()</text><polygon fill="#181818" points="1643.5,653.5254,1653.5,657.5254,1643.5,661.5254,1647.5,657.5254" style="stroke:#181818;stroke-width:1.0;"/><line style="stroke:#181818;stroke-width:1.0;" x1="796" x2="1649.5" y1="657.5254" y2="657.5254"/><text fill="#000000" font-family="sans-serif" font-size="13" font-weight="bold" lengthAdjust="spacing" textLength="18" x="803" y="652.7832">13</text><text fill="#000000" font-family="sans-serif" font-size="13" lengthAdjust="spacing" textLength="36" x="825" y="652.7832">save()</text><polygon fill="#181818" points="344,712.8359,354,716.8359,344,720.8359,348,716.8359" style="stroke:#181818;stroke-width:1.0;"/><line style="stroke:#181818;stroke-width:1.0;" x1="196" x2="350" y1="716.8359" y2="716.8359"/><text fill="#000000" font-family="sans-serif" font-size="13" font-weight="bold" lengthAdjust="spacing" textLength="18" x="203" y="712.0938">14</text><text fill="#000000" font-family="sans-serif" font-size="13" lengthAdjust="spacing" textLength="108" x="225" y="712.0938">agvToPrepOrder()</text><polygon fill="#181818" points="668.5,742.1465,678.5,746.1465,668.5,750.1465,672.5,746.1465" style="stroke:#181818;stroke-width:1.0;"/><line style="stroke:#181818;stroke-width:1.0;" x1="366" x2="674.5" y1="746.1465" y2="746.1465"/><text fill="#000000" font-family="sans-serif" font-size="13" font-weight="bold" lengthAdjust="spacing" textLength="18" x="373" y="741.4043">15</text><text fill="#000000" font-family="sans-serif" font-size="13" lengthAdjust="spacing" textLength="88" x="395" y="741.4043">changeOrder()</text><polygon fill="#181818" points="673.5,771.457,683.5,775.457,673.5,779.457,677.5,775.457" style="stroke:#181818;stroke-width:1.0;"/><line style="stroke:#181818;stroke-width:1.0;" x1="366" x2="679.5" y1="775.457" y2="775.457"/><text fill="#000000" font-family="sans-serif" font-size="13" font-weight="bold" lengthAdjust="spacing" textLength="18" x="373" y="770.7148">16</text><text fill="#000000" font-family="sans-serif" font-size="13" lengthAdjust="spacing" textLength="92" x="395" y="770.7148">changeStatus()</text><polygon fill="#181818" points="1481.5,800.7676,1491.5,804.7676,1481.5,808.7676,1485.5,804.7676" style="stroke:#181818;stroke-width:1.0;"/><line style="stroke:#181818;stroke-width:1.0;" x1="366" x2="1487.5" y1="804.7676" y2="804.7676"/><text fill="#000000" font-family="sans-serif" font-size="13" font-weight="bold" lengthAdjust="spacing" textLength="18" x="373" y="800.0254">17</text><text fill="#000000" font-family="sans-serif" font-size="13" lengthAdjust="spacing" textLength="36" x="395" y="800.0254">save()</text><polygon fill="#181818" points="774,860.0781,784,864.0781,774,868.0781,778,864.0781" style="stroke:#181818;stroke-width:1.0;"/><line style="stroke:#181818;stroke-width:1.0;" x1="366" x2="780" y1="864.0781" y2="864.0781"/><text fill="#000000" font-family="sans-serif" font-size="13" font-weight="bold" lengthAdjust="spacing" textLength="18" x="373" y="859.3359">18</text><text fill="#000000" font-family="sans-serif" font-size="13" lengthAdjust="spacing" textLength="92" x="395" y="859.3359">changeStatus()</text><polygon fill="#181818" points="1643.5,919.3887,1653.5,923.3887,1643.5,927.3887,1647.5,923.3887" style="stroke:#181818;stroke-width:1.0;"/><line style="stroke:#181818;stroke-width:1.0;" x1="366" x2="1649.5" y1="923.3887" y2="923.3887"/><text fill="#000000" font-family="sans-serif" font-size="13" font-weight="bold" lengthAdjust="spacing" textLength="18" x="373" y="918.6465">19</text><text fill="#000000" font-family="sans-serif" font-size="13" lengthAdjust="spacing" textLength="36" x="395" y="918.6465">save()</text><polygon fill="#181818" points="890,978.6992,900,982.6992,890,986.6992,894,982.6992" style="stroke:#181818;stroke-width:1.0;"/><line style="stroke:#181818;stroke-width:1.0;" x1="196" x2="896" y1="982.6992" y2="982.6992"/><text fill="#000000" font-family="sans-serif" font-size="13" font-weight="bold" lengthAdjust="spacing" textLength="18" x="203" y="977.957">20</text><text fill="#000000" font-family="sans-serif" font-size="13" lengthAdjust="spacing" textLength="89" x="225" y="977.957">getLineOrder()</text><polygon fill="#181818" points="990.5,1038.0098,1000.5,1042.0098,990.5,1046.0098,994.5,1042.0098" style="stroke:#181818;stroke-width:1.0;"/><line style="stroke:#181818;stroke-width:1.0;" x1="196" x2="996.5" y1="1042.0098" y2="1042.0098"/><text fill="#000000" font-family="sans-serif" font-size="13" font-weight="bold" lengthAdjust="spacing" textLength="18" x="203" y="1037.2676">21</text><text fill="#000000" font-family="sans-serif" font-size="13" lengthAdjust="spacing" textLength="48" x="225" y="1037.2676">addAll()</text><polygon fill="#181818" points="1349.5,1097.3203,1359.5,1101.3203,1349.5,1105.3203,1353.5,1101.3203" style="stroke:#181818;stroke-width:1.0;"/><line style="stroke:#181818;stroke-width:1.0;" x1="196" x2="1355.5" y1="1101.3203" y2="1101.3203"/><text fill="#000000" font-family="sans-serif" font-size="13" font-weight="bold" lengthAdjust="spacing" textLength="18" x="203" y="1096.5781">22</text><text fill="#000000" font-family="sans-serif" font-size="13" lengthAdjust="spacing" textLength="61" x="225" y="1096.5781">findByID()</text><line style="stroke:#181818;stroke-width:1.0;" x1="201" x2="243" y1="1160.6309" y2="1160.6309"/><line style="stroke:#181818;stroke-width:1.0;" x1="243" x2="243" y1="1160.6309" y2="1173.6309"/><line style="stroke:#181818;stroke-width:1.0;" x1="202" x2="243" y1="1173.6309" y2="1173.6309"/><polygon fill="#181818" points="212,1169.6309,202,1173.6309,212,1177.6309,208,1173.6309" style="stroke:#181818;stroke-width:1.0;"/><text fill="#000000" font-family="sans-serif" font-size="13" font-weight="bold" lengthAdjust="spacing" textLength="18" x="208" y="1155.8887">23</text><text fill="#000000" font-family="sans-serif" font-size="13" lengthAdjust="spacing" textLength="90" x="230" y="1155.8887">prepareOrder()</text><polygon fill="#181818" points="1208.5,1228.9414,1218.5,1232.9414,1208.5,1236.9414,1212.5,1232.9414" style="stroke:#181818;stroke-width:1.0;"/><line style="stroke:#181818;stroke-width:1.0;" x1="196" x2="1214.5" y1="1232.9414" y2="1232.9414"/><text fill="#000000" font-family="sans-serif" font-size="13" font-weight="bold" lengthAdjust="spacing" textLength="18" x="203" y="1228.1992">24</text><text fill="#000000" font-family="sans-serif" font-size="13" lengthAdjust="spacing" textLength="136" x="225" y="1228.1992">getWarehouseMatrix()</text><polygon fill="#181818" points="1213.5,1258.252,1223.5,1262.252,1213.5,1266.252,1217.5,1262.252" style="stroke:#181818;stroke-width:1.0;"/><line style="stroke:#181818;stroke-width:1.0;" x1="196" x2="1219.5" y1="1262.252" y2="1262.252"/><text fill="#000000" font-family="sans-serif" font-size="13" font-weight="bold" lengthAdjust="spacing" textLength="18" x="203" y="1257.5098">25</text><text fill="#000000" font-family="sans-serif" font-size="13" lengthAdjust="spacing" textLength="111" x="225" y="1257.5098">getVisitedMatrix()</text><!--MD5=[6ea3293246b121eebdb30d925383d5e4]
@startuml
autonumber

actor "Project Manager" as PM
participant ":PrepareOrders" as PrepO
participant "AGVToPrepOrderController" as CTRL <<application>>
participant ":TaskExecutor" as TE
participant ":AGV" as AGV <<domain>>
participant ":ProductOrder" as PO <<domain>>
participant ":ProductItem" as PI <<domain>>
participant ":Product" as Product <<domain>>
participant ":Autonomy" as A <<domain>>
participant ":WarehouseMatrix" as WM
participant ":AisleRepository" as AisleRepo <<repository>>
participant ":AGVRepository" as AGVRepo <<repository>>
participant ":ProductOrderRepository" as PORepo <<repository>>
participant "PersistenceContext" as PC <<persistence>>
participant "RepositoryFactory" as RF <<factory>>

activate PrepO

PrepO -> AGV : getAvailableAgvs()
activate AGV

AGV -> AGVRepo : findAGVByStatus()
activate AGVRepo

deactivate AGVRepo
deactivate AGV
PrepO -> PO : getOrdersToBePrepared()
activate PO

PO -> PORepo : findOrdersByStatus()
activate PORepo

deactivate PORepo
deactivate PO
PrepO -> TE : createThread()
activate TE
TE -> TE : initializeThread()
activate TE
deactivate TE

TE -> AGV : getAvailableAgvs()
activate AGV


AGV -> AGVRepo : findAGVByStatus()
activate AGVRepo

deactivate AGVRepo
deactivate AGV
TE -> PO : getOrdersToBePrepared()
activate PO

PO -> PORepo : findOrdersByStatus()
activate PORepo

deactivate PORepo
deactivate PO
TE -> A : discharching()
activate A

deactivate A
TE -> PO : changeStatus()
activate PO

PO -> PORepo : save()
activate PORepo
deactivate PO

deactivate TE
deactivate PORepo
PrepO -> CTRL : agvToPrepOrder()
activate CTRL

CTRL -> AGV : changeOrder()
activate AGV
CTRL -> AGV : changeStatus()

deactivate AGV
CTRL -> AGVRepo : save()
activate AGVRepo

deactivate AGVRepo
CTRL -> PO : changeStatus()
activate PO

deactivate PO
CTRL -> PORepo : save()
activate PORepo

deactivate PORepo
deactivate CTRL
PrepO -> PI : getLineOrder()
activate PI

deactivate PI
PrepO -> Product : addAll()
activate Product

deactivate Product
PrepO -> AisleRepo : findByID()
activate AisleRepo

deactivate AisleRepo
PrepO -> PrepO : prepareOrder()
activate PrepO

deactivate PrepO
PrepO -> WM : getWarehouseMatrix()
activate WM
PrepO -> WM : getVisitedMatrix()
deactivate WM



@enduml

PlantUML version 1.2022.4(Sat Apr 09 14:29:17 WEST 2022)
(GPL source distribution)
Java Runtime: OpenJDK Runtime Environment
JVM: OpenJDK 64-Bit Server VM
Default Encoding: UTF-8
Language: pt
Country: PT
--></g></svg>