<?xml version="1.0" encoding="UTF-8" standalone="no"?><svg xmlns="http://www.w3.org/2000/svg" xmlns:xlink="http://www.w3.org/1999/xlink" contentStyleType="text/css" height="861px" preserveAspectRatio="none" style="width:1854px;height:861px;background:#FFFFFF;" version="1.1" viewBox="0 0 1854 861" width="1854px" zoomAndPan="magnify"><defs/><g><rect fill="#FFFFFF" height="654.832" style="stroke:#181818;stroke-width:1.0;" width="10" x="44" y="93.9766"/><rect fill="#FFFFFF" height="29.3105" style="stroke:#181818;stroke-width:1.0;" width="10" x="387" y="115.2871"/><rect fill="#FFFFFF" height="574.9004" style="stroke:#181818;stroke-width:1.0;" width="10" x="387" y="173.9082"/><rect fill="#FFFFFF" height="516.2793" style="stroke:#181818;stroke-width:1.0;" width="10" x="728" y="203.2188"/><rect fill="#FFFFFF" height="87.9316" style="stroke:#181818;stroke-width:1.0;" width="10" x="1041" y="361.7715"/><rect fill="#FFFFFF" height="93.9316" style="stroke:#181818;stroke-width:1.0;" width="10" x="1477.5" y="479.0137"/><rect fill="#FFFFFF" height="58.6211" style="stroke:#181818;stroke-width:1.0;" width="10" x="1629" y="602.2559"/><line style="stroke:#181818;stroke-width:0.5;stroke-dasharray:5.0,5.0;" x1="49" x2="49" y1="83.9766" y2="766.8086"/><line style="stroke:#181818;stroke-width:0.5;stroke-dasharray:5.0,5.0;" x1="392" x2="392" y1="83.9766" y2="766.8086"/><line style="stroke:#181818;stroke-width:0.5;stroke-dasharray:5.0,5.0;" x1="733" x2="733" y1="83.9766" y2="766.8086"/><line style="stroke:#181818;stroke-width:0.5;stroke-dasharray:5.0,5.0;" x1="1046" x2="1046" y1="83.9766" y2="766.8086"/><line style="stroke:#181818;stroke-width:0.5;stroke-dasharray:5.0,5.0;" x1="1329.5" x2="1329.5" y1="83.9766" y2="766.8086"/><line style="stroke:#181818;stroke-width:0.5;stroke-dasharray:5.0,5.0;" x1="1482.5" x2="1482.5" y1="83.9766" y2="766.8086"/><line style="stroke:#181818;stroke-width:0.5;stroke-dasharray:5.0,5.0;" x1="1633.5" x2="1633.5" y1="83.9766" y2="766.8086"/><line style="stroke:#181818;stroke-width:0.5;stroke-dasharray:5.0,5.0;" x1="1782.5" x2="1782.5" y1="83.9766" y2="766.8086"/><text fill="#000000" font-family="sans-serif" font-size="14" lengthAdjust="spacing" textLength="82" x="5" y="81.0234">Sales Clerck</text><ellipse cx="49" cy="15.9883" fill="#E2E2F0" rx="8" ry="8" style="stroke:#181818;stroke-width:0.5;"/><path d="M49,23.9883 L49,50.9883 M36,31.9883 L62,31.9883 M49,50.9883 L36,65.9883 M49,50.9883 L62,65.9883 " fill="none" style="stroke:#181818;stroke-width:0.5;"/><text fill="#000000" font-family="sans-serif" font-size="14" lengthAdjust="spacing" textLength="82" x="5" y="779.3438">Sales Clerck</text><ellipse cx="49" cy="790.7969" fill="#E2E2F0" rx="8" ry="8" style="stroke:#181818;stroke-width:0.5;"/><path d="M49,798.7969 L49,825.7969 M36,806.7969 L62,806.7969 M49,825.7969 L36,840.7969 M49,825.7969 L62,840.7969 " fill="none" style="stroke:#181818;stroke-width:0.5;"/><rect fill="#E2E2F0" height="46.9766" rx="2.5" ry="2.5" style="stroke:#181818;stroke-width:0.5;" width="134" x="325" y="36"/><text fill="#000000" font-family="sans-serif" font-size="14" font-style="italic" lengthAdjust="spacing" textLength="101" x="341.5" y="56.5352">«presentation»</text><text fill="#000000" font-family="sans-serif" font-size="14" lengthAdjust="spacing" textLength="120" x="332" y="73.0234">DefineCategoryUI</text><rect fill="#E2E2F0" height="46.9766" rx="2.5" ry="2.5" style="stroke:#181818;stroke-width:0.5;" width="134" x="325" y="765.8086"/><text fill="#000000" font-family="sans-serif" font-size="14" font-style="italic" lengthAdjust="spacing" textLength="101" x="341.5" y="786.3438">«presentation»</text><text fill="#000000" font-family="sans-serif" font-size="14" lengthAdjust="spacing" textLength="120" x="332" y="802.832">DefineCategoryUI</text><rect fill="#E2E2F0" height="46.9766" rx="2.5" ry="2.5" style="stroke:#181818;stroke-width:0.5;" width="190" x="638" y="36"/><text fill="#000000" font-family="sans-serif" font-size="14" font-style="italic" lengthAdjust="spacing" textLength="90" x="688" y="56.5352">«application»</text><text fill="#000000" font-family="sans-serif" font-size="14" lengthAdjust="spacing" textLength="176" x="645" y="73.0234">DefineCategoryController</text><rect fill="#E2E2F0" height="46.9766" rx="2.5" ry="2.5" style="stroke:#181818;stroke-width:0.5;" width="190" x="638" y="765.8086"/><text fill="#000000" font-family="sans-serif" font-size="14" font-style="italic" lengthAdjust="spacing" textLength="90" x="688" y="786.3438">«application»</text><text fill="#000000" font-family="sans-serif" font-size="14" lengthAdjust="spacing" textLength="176" x="645" y="802.832">DefineCategoryController</text><rect fill="#E2E2F0" height="46.9766" rx="2.5" ry="2.5" style="stroke:#181818;stroke-width:0.5;" width="124" x="984" y="36"/><text fill="#000000" font-family="sans-serif" font-size="14" font-style="italic" lengthAdjust="spacing" textLength="63" x="1014.5" y="56.5352">«builder»</text><text fill="#000000" font-family="sans-serif" font-size="14" lengthAdjust="spacing" textLength="110" x="991" y="73.0234">CategoryBuilder</text><rect fill="#E2E2F0" height="46.9766" rx="2.5" ry="2.5" style="stroke:#181818;stroke-width:0.5;" width="124" x="984" y="765.8086"/><text fill="#000000" font-family="sans-serif" font-size="14" font-style="italic" lengthAdjust="spacing" textLength="63" x="1014.5" y="786.3438">«builder»</text><text fill="#000000" font-family="sans-serif" font-size="14" lengthAdjust="spacing" textLength="110" x="991" y="802.832">CategoryBuilder</text><rect fill="#E2E2F0" height="46.9766" rx="2.5" ry="2.5" style="stroke:#181818;stroke-width:0.5;" width="139" x="1260.5" y="36"/><text fill="#000000" font-family="sans-serif" font-size="14" font-style="italic" lengthAdjust="spacing" textLength="66" x="1297" y="56.5352">«domain»</text><text fill="#000000" font-family="sans-serif" font-size="14" lengthAdjust="spacing" textLength="125" x="1267.5" y="73.0234">category:Category</text><rect fill="#E2E2F0" height="46.9766" rx="2.5" ry="2.5" style="stroke:#181818;stroke-width:0.5;" width="139" x="1260.5" y="765.8086"/><text fill="#000000" font-family="sans-serif" font-size="14" font-style="italic" lengthAdjust="spacing" textLength="66" x="1297" y="786.3438">«domain»</text><text fill="#000000" font-family="sans-serif" font-size="14" lengthAdjust="spacing" textLength="125" x="1267.5" y="802.832">category:Category</text><rect fill="#E2E2F0" height="46.9766" rx="2.5" ry="2.5" style="stroke:#181818;stroke-width:0.5;" width="146" x="1409.5" y="36"/><text fill="#000000" font-family="sans-serif" font-size="14" font-style="italic" lengthAdjust="spacing" textLength="92" x="1436.5" y="56.5352">«persistence»</text><text fill="#000000" font-family="sans-serif" font-size="14" lengthAdjust="spacing" textLength="132" x="1416.5" y="73.0234">PersistenceContext</text><rect fill="#E2E2F0" height="46.9766" rx="2.5" ry="2.5" style="stroke:#181818;stroke-width:0.5;" width="146" x="1409.5" y="765.8086"/><text fill="#000000" font-family="sans-serif" font-size="14" font-style="italic" lengthAdjust="spacing" textLength="92" x="1436.5" y="786.3438">«persistence»</text><text fill="#000000" font-family="sans-serif" font-size="14" lengthAdjust="spacing" textLength="132" x="1416.5" y="802.832">PersistenceContext</text><rect fill="#E2E2F0" height="46.9766" rx="2.5" ry="2.5" style="stroke:#181818;stroke-width:0.5;" width="137" x="1565.5" y="36"/><text fill="#000000" font-family="sans-serif" font-size="14" font-style="italic" lengthAdjust="spacing" textLength="61" x="1603.5" y="56.5352">«factory»</text><text fill="#000000" font-family="sans-serif" font-size="14" lengthAdjust="spacing" textLength="123" x="1572.5" y="73.0234">RepositoryFactory</text><rect fill="#E2E2F0" height="46.9766" rx="2.5" ry="2.5" style="stroke:#181818;stroke-width:0.5;" width="137" x="1565.5" y="765.8086"/><text fill="#000000" font-family="sans-serif" font-size="14" font-style="italic" lengthAdjust="spacing" textLength="61" x="1603.5" y="786.3438">«factory»</text><text fill="#000000" font-family="sans-serif" font-size="14" lengthAdjust="spacing" textLength="123" x="1572.5" y="802.832">RepositoryFactory</text><text fill="#000000" font-family="sans-serif" font-size="14" font-style="italic" lengthAdjust="spacing" textLength="84" x="1738" y="64.5352">«repository»</text><text fill="#000000" font-family="sans-serif" font-size="14" lengthAdjust="spacing" textLength="135" x="1712.5" y="81.0234">CategoryRepository</text><path d="M1765,15 C1765,5 1783,5 1783,5 C1783,5 1801,5 1801,15 L1801,41 C1801,51 1783,51 1783,51 C1783,51 1765,51 1765,41 L1765,15 " fill="#E2E2F0" style="stroke:#181818;stroke-width:1.5;"/><path d="M1765,15 C1765,25 1783,25 1783,25 C1783,25 1801,25 1801,15 " fill="none" style="stroke:#181818;stroke-width:1.5;"/><text fill="#000000" font-family="sans-serif" font-size="14" font-style="italic" lengthAdjust="spacing" textLength="84" x="1738" y="779.3438">«repository»</text><text fill="#000000" font-family="sans-serif" font-size="14" lengthAdjust="spacing" textLength="135" x="1712.5" y="795.832">CategoryRepository</text><path d="M1765,808.7852 C1765,798.7852 1783,798.7852 1783,798.7852 C1783,798.7852 1801,798.7852 1801,808.7852 L1801,834.7852 C1801,844.7852 1783,844.7852 1783,844.7852 C1783,844.7852 1765,844.7852 1765,834.7852 L1765,808.7852 " fill="#E2E2F0" style="stroke:#181818;stroke-width:1.5;"/><path d="M1765,808.7852 C1765,818.7852 1783,818.7852 1783,818.7852 C1783,818.7852 1801,818.7852 1801,808.7852 " fill="none" style="stroke:#181818;stroke-width:1.5;"/><rect fill="#FFFFFF" height="654.832" style="stroke:#181818;stroke-width:1.0;" width="10" x="44" y="93.9766"/><rect fill="#FFFFFF" height="29.3105" style="stroke:#181818;stroke-width:1.0;" width="10" x="387" y="115.2871"/><rect fill="#FFFFFF" height="574.9004" style="stroke:#181818;stroke-width:1.0;" width="10" x="387" y="173.9082"/><rect fill="#FFFFFF" height="516.2793" style="stroke:#181818;stroke-width:1.0;" width="10" x="728" y="203.2188"/><rect fill="#FFFFFF" height="87.9316" style="stroke:#181818;stroke-width:1.0;" width="10" x="1041" y="361.7715"/><rect fill="#FFFFFF" height="93.9316" style="stroke:#181818;stroke-width:1.0;" width="10" x="1477.5" y="479.0137"/><rect fill="#FFFFFF" height="58.6211" style="stroke:#181818;stroke-width:1.0;" width="10" x="1629" y="602.2559"/><polygon fill="#181818" points="375,111.2871,385,115.2871,375,119.2871,379,115.2871" style="stroke:#181818;stroke-width:1.0;"/><line style="stroke:#181818;stroke-width:1.0;" x1="54" x2="381" y1="115.2871" y2="115.2871"/><text fill="#000000" font-family="sans-serif" font-size="13" font-weight="bold" lengthAdjust="spacing" textLength="9" x="61" y="110.5449">1</text><text fill="#000000" font-family="sans-serif" font-size="13" lengthAdjust="spacing" textLength="194" x="74" y="110.5449">Starts to define a new category</text><polygon fill="#181818" points="65,140.5977,55,144.5977,65,148.5977,61,144.5977" style="stroke:#181818;stroke-width:1.0;"/><line style="stroke:#181818;stroke-width:1.0;stroke-dasharray:2.0,2.0;" x1="59" x2="391" y1="144.5977" y2="144.5977"/><text fill="#000000" font-family="sans-serif" font-size="13" font-weight="bold" lengthAdjust="spacing" textLength="9" x="71" y="139.8555">2</text><text fill="#000000" font-family="sans-serif" font-size="13" lengthAdjust="spacing" textLength="296" x="84" y="139.8555">Requests data (alphanumericCode, description)</text><polygon fill="#181818" points="375,169.9082,385,173.9082,375,177.9082,379,173.9082" style="stroke:#181818;stroke-width:1.0;"/><line style="stroke:#181818;stroke-width:1.0;" x1="54" x2="381" y1="173.9082" y2="173.9082"/><text fill="#000000" font-family="sans-serif" font-size="13" font-weight="bold" lengthAdjust="spacing" textLength="9" x="61" y="169.166">3</text><text fill="#000000" font-family="sans-serif" font-size="13" lengthAdjust="spacing" textLength="140" x="74" y="169.166">Inserts requested data</text><polygon fill="#181818" points="716,199.2188,726,203.2188,716,207.2188,720,203.2188" style="stroke:#181818;stroke-width:1.0;"/><line style="stroke:#181818;stroke-width:1.0;" x1="397" x2="722" y1="203.2188" y2="203.2188"/><text fill="#000000" font-family="sans-serif" font-size="13" font-weight="bold" lengthAdjust="spacing" textLength="9" x="404" y="198.4766">4</text><text fill="#000000" font-family="sans-serif" font-size="13" lengthAdjust="spacing" textLength="299" x="417" y="198.4766">defineCategory(alphanumericCode, description)</text><path d="M1051,216.2188 L1051,241.2188 L1516,241.2188 L1516,226.2188 L1506,216.2188 L1051,216.2188 " fill="#CCE2CB" style="stroke:#181818;stroke-width:0.5;"/><path d="M1506,216.2188 L1506,226.2188 L1516,226.2188 L1506,216.2188 " fill="#CCE2CB" style="stroke:#181818;stroke-width:0.5;"/><text fill="#000000" font-family="sans-serif" font-size="13" lengthAdjust="spacing" textLength="444" x="1057" y="233.7871">CategoryBuilder is used to create an entity of Customer in a valid state</text><polygon fill="#181818" points="1034,263.8398,1044,267.8398,1034,271.8398,1038,267.8398" style="stroke:#181818;stroke-width:1.0;"/><line style="stroke:#181818;stroke-width:1.0;" x1="738" x2="1040" y1="267.8398" y2="267.8398"/><text fill="#000000" font-family="sans-serif" font-size="13" font-weight="bold" lengthAdjust="spacing" textLength="9" x="745" y="263.0977">5</text><text fill="#000000" font-family="sans-serif" font-size="13" lengthAdjust="spacing" textLength="38" x="758" y="263.0977">create</text><polygon fill="#181818" points="1034,293.1504,1044,297.1504,1034,301.1504,1038,297.1504" style="stroke:#181818;stroke-width:1.0;"/><line style="stroke:#181818;stroke-width:1.0;" x1="738" x2="1040" y1="297.1504" y2="297.1504"/><text fill="#000000" font-family="sans-serif" font-size="13" font-weight="bold" lengthAdjust="spacing" textLength="9" x="745" y="292.4082">6</text><text fill="#000000" font-family="sans-serif" font-size="13" lengthAdjust="spacing" textLength="271" x="758" y="292.4082">withAlphanumericCode(alphanumericCode)</text><path d="M743,310.1504 L743,335.1504 L984,335.1504 L984,320.1504 L974,310.1504 L743,310.1504 " fill="#CCE2CB" style="stroke:#181818;stroke-width:0.5;"/><path d="M974,310.1504 L974,320.1504 L984,320.1504 L974,310.1504 " fill="#CCE2CB" style="stroke:#181818;stroke-width:0.5;"/><text fill="#000000" font-family="sans-serif" font-size="13" lengthAdjust="spacing" textLength="220" x="749" y="327.7188">Places rest of category information</text><polygon fill="#181818" points="1029,357.7715,1039,361.7715,1029,365.7715,1033,361.7715" style="stroke:#181818;stroke-width:1.0;"/><line style="stroke:#181818;stroke-width:1.0;" x1="738" x2="1035" y1="361.7715" y2="361.7715"/><text fill="#000000" font-family="sans-serif" font-size="13" font-weight="bold" lengthAdjust="spacing" textLength="9" x="745" y="357.0293">7</text><text fill="#000000" font-family="sans-serif" font-size="13" lengthAdjust="spacing" textLength="102" x="758" y="357.0293">createCategory()</text><polygon fill="#181818" points="1318,387.082,1328,391.082,1318,395.082,1322,391.082" style="stroke:#181818;stroke-width:1.0;"/><line style="stroke:#181818;stroke-width:1.0;" x1="1051" x2="1324" y1="391.082" y2="391.082"/><text fill="#000000" font-family="sans-serif" font-size="13" font-weight="bold" lengthAdjust="spacing" textLength="9" x="1058" y="386.3398">8</text><text fill="#000000" font-family="sans-serif" font-size="13" lengthAdjust="spacing" textLength="242" x="1071" y="386.3398">create(alphanumericCode, description)</text><polygon fill="#181818" points="1062,416.3926,1052,420.3926,1062,424.3926,1058,420.3926" style="stroke:#181818;stroke-width:1.0;"/><line style="stroke:#181818;stroke-width:1.0;" x1="1056" x2="1329" y1="420.3926" y2="420.3926"/><text fill="#000000" font-family="sans-serif" font-size="13" font-weight="bold" lengthAdjust="spacing" textLength="9" x="1068" y="415.6504">9</text><text fill="#000000" font-family="sans-serif" font-size="13" lengthAdjust="spacing" textLength="54" x="1081" y="415.6504">category</text><polygon fill="#181818" points="749,445.7031,739,449.7031,749,453.7031,745,449.7031" style="stroke:#181818;stroke-width:1.0;"/><line style="stroke:#181818;stroke-width:1.0;" x1="743" x2="1045" y1="449.7031" y2="449.7031"/><text fill="#000000" font-family="sans-serif" font-size="13" font-weight="bold" lengthAdjust="spacing" textLength="18" x="755" y="444.9609">10</text><text fill="#000000" font-family="sans-serif" font-size="13" lengthAdjust="spacing" textLength="54" x="777" y="444.9609">category</text><polygon fill="#181818" points="1465.5,475.0137,1475.5,479.0137,1465.5,483.0137,1469.5,479.0137" style="stroke:#181818;stroke-width:1.0;"/><line style="stroke:#181818;stroke-width:1.0;" x1="738" x2="1471.5" y1="479.0137" y2="479.0137"/><text fill="#000000" font-family="sans-serif" font-size="13" font-weight="bold" lengthAdjust="spacing" textLength="18" x="745" y="474.2715">11</text><text fill="#000000" font-family="sans-serif" font-size="13" lengthAdjust="spacing" textLength="83" x="767" y="474.2715">repositories()</text><path d="M1492,492.0137 L1492,517.0137 L1757,517.0137 L1757,502.0137 L1747,492.0137 L1492,492.0137 " fill="#CCE2CB" style="stroke:#181818;stroke-width:0.5;"/><path d="M1747,492.0137 L1747,502.0137 L1757,502.0137 L1747,492.0137 " fill="#CCE2CB" style="stroke:#181818;stroke-width:0.5;"/><text fill="#000000" font-family="sans-serif" font-size="13" lengthAdjust="spacing" textLength="244" x="1498" y="509.582">can create repository in memory or JPA</text><polygon fill="#181818" points="1622,539.6348,1632,543.6348,1622,547.6348,1626,543.6348" style="stroke:#181818;stroke-width:1.0;"/><line style="stroke:#181818;stroke-width:1.0;" x1="1487.5" x2="1628" y1="543.6348" y2="543.6348"/><text fill="#000000" font-family="sans-serif" font-size="13" font-weight="bold" lengthAdjust="spacing" textLength="18" x="1494.5" y="538.8926">12</text><text fill="#000000" font-family="sans-serif" font-size="13" lengthAdjust="spacing" textLength="38" x="1516.5" y="538.8926">create</text><polygon fill="#181818" points="749,568.9453,739,572.9453,749,576.9453,745,572.9453" style="stroke:#181818;stroke-width:1.0;"/><line style="stroke:#181818;stroke-width:1.0;" x1="743" x2="1481.5" y1="572.9453" y2="572.9453"/><text fill="#000000" font-family="sans-serif" font-size="13" font-weight="bold" lengthAdjust="spacing" textLength="18" x="755" y="568.2031">13</text><text fill="#000000" font-family="sans-serif" font-size="13" lengthAdjust="spacing" textLength="44" x="777" y="568.2031">factory</text><polygon fill="#181818" points="1617,598.2559,1627,602.2559,1617,606.2559,1621,602.2559" style="stroke:#181818;stroke-width:1.0;"/><line style="stroke:#181818;stroke-width:1.0;" x1="738" x2="1623" y1="602.2559" y2="602.2559"/><text fill="#000000" font-family="sans-serif" font-size="13" font-weight="bold" lengthAdjust="spacing" textLength="18" x="745" y="597.5137">14</text><text fill="#000000" font-family="sans-serif" font-size="13" lengthAdjust="spacing" textLength="62" x="767" y="597.5137">category()</text><polygon fill="#181818" points="1771,627.5664,1781,631.5664,1771,635.5664,1775,631.5664" style="stroke:#181818;stroke-width:1.0;"/><line style="stroke:#181818;stroke-width:1.0;" x1="1639" x2="1777" y1="631.5664" y2="631.5664"/><text fill="#000000" font-family="sans-serif" font-size="13" font-weight="bold" lengthAdjust="spacing" textLength="18" x="1646" y="626.8242">15</text><text fill="#000000" font-family="sans-serif" font-size="13" lengthAdjust="spacing" textLength="38" x="1668" y="626.8242">create</text><polygon fill="#181818" points="749,656.877,739,660.877,749,664.877,745,660.877" style="stroke:#181818;stroke-width:1.0;"/><line style="stroke:#181818;stroke-width:1.0;" x1="743" x2="1633" y1="660.877" y2="660.877"/><text fill="#000000" font-family="sans-serif" font-size="13" font-weight="bold" lengthAdjust="spacing" textLength="18" x="755" y="656.1348">16</text><text fill="#000000" font-family="sans-serif" font-size="13" lengthAdjust="spacing" textLength="121" x="777" y="656.1348">categoryRepository</text><polygon fill="#181818" points="1771,686.1875,1781,690.1875,1771,694.1875,1775,690.1875" style="stroke:#181818;stroke-width:1.0;"/><line style="stroke:#181818;stroke-width:1.0;" x1="738" x2="1777" y1="690.1875" y2="690.1875"/><text fill="#000000" font-family="sans-serif" font-size="13" font-weight="bold" lengthAdjust="spacing" textLength="18" x="745" y="685.4453">17</text><text fill="#000000" font-family="sans-serif" font-size="13" lengthAdjust="spacing" textLength="90" x="767" y="685.4453">save(category)</text><polygon fill="#181818" points="408,715.498,398,719.498,408,723.498,404,719.498" style="stroke:#181818;stroke-width:1.0;"/><line style="stroke:#181818;stroke-width:1.0;" x1="402" x2="732" y1="719.498" y2="719.498"/><text fill="#000000" font-family="sans-serif" font-size="13" font-weight="bold" lengthAdjust="spacing" textLength="18" x="414" y="714.7559">18</text><text fill="#000000" font-family="sans-serif" font-size="13" lengthAdjust="spacing" textLength="54" x="436" y="714.7559">category</text><polygon fill="#181818" points="60,744.8086,50,748.8086,60,752.8086,56,748.8086" style="stroke:#181818;stroke-width:1.0;"/><line style="stroke:#181818;stroke-width:1.0;stroke-dasharray:2.0,2.0;" x1="54" x2="391" y1="748.8086" y2="748.8086"/><text fill="#000000" font-family="sans-serif" font-size="13" font-weight="bold" lengthAdjust="spacing" textLength="18" x="66" y="744.0664">19</text><text fill="#000000" font-family="sans-serif" font-size="13" lengthAdjust="spacing" textLength="167" x="88" y="744.0664">informs operation success</text><!--MD5=[026cb81214be0a1353df825bcfa9a2ab]
@startuml
autonumber
'hide footbox
actor "Sales Clerck" as SC
participant "DefineCategoryUI" as UI <<presentation>>
participant "DefineCategoryController" as CTRL <<application>>
participant "CategoryBuilder" as CB <<builder>>
participant "category:Category" as Category <<domain>>
participant "PersistenceContext" as PC <<persistence>>
participant "RepositoryFactory" as RF <<factory>>
database "CategoryRepository" as CR <<repository>>


activate SC
SC -> UI : Starts to define a new category
activate UI
UI - -> SC : Requests data (alphanumericCode, description)
deactivate UI



SC -> UI : Inserts requested data
activate UI

UI -> CTRL : defineCategory(alphanumericCode, description)
activate CTRL

note right CB #CCE2CB
    CategoryBuilder is used to create an entity of Customer in a valid state
end note

CTRL -> CB : create
CTRL -> CB : withAlphanumericCode(alphanumericCode)

note right CTRL #CCE2CB
    Places rest of category information
end note

CTRL -> CB : createCategory()
activate CB
CB -> Category : create(alphanumericCode, description)
Category -> CB : category

CB -> CTRL : category
deactivate CB

CTRL -> PC : repositories()
activate PC
note right PC #CCE2CB
    can create repository in memory or JPA
end note
PC -> RF : create
PC -> CTRL : factory
deactivate PC



CTRL -> RF : category()
activate RF
RF -> CR : create
RF -> CTRL : categoryRepository
deactivate RF
CTRL -> CR : save(category)
CTRL -> UI : category
deactivate CTRL

UI - -> SC :informs operation success
deactivate UI


deactivate SC



@enduml

@startuml
autonumber
actor "Sales Clerck" as SC
participant "DefineCategoryUI" as UI <<presentation>>
participant "DefineCategoryController" as CTRL <<application>>
participant "CategoryBuilder" as CB <<builder>>
participant "category:Category" as Category <<domain>>
participant "PersistenceContext" as PC <<persistence>>
participant "RepositoryFactory" as RF <<factory>>
database "CategoryRepository" as CR <<repository>>


activate SC
SC -> UI : Starts to define a new category
activate UI
UI - -> SC : Requests data (alphanumericCode, description)
deactivate UI



SC -> UI : Inserts requested data
activate UI

UI -> CTRL : defineCategory(alphanumericCode, description)
activate CTRL

note right CB #CCE2CB
    CategoryBuilder is used to create an entity of Customer in a valid state
end note

CTRL -> CB : create
CTRL -> CB : withAlphanumericCode(alphanumericCode)

note right CTRL #CCE2CB
    Places rest of category information
end note

CTRL -> CB : createCategory()
activate CB
CB -> Category : create(alphanumericCode, description)
Category -> CB : category

CB -> CTRL : category
deactivate CB

CTRL -> PC : repositories()
activate PC
note right PC #CCE2CB
    can create repository in memory or JPA
end note
PC -> RF : create
PC -> CTRL : factory
deactivate PC



CTRL -> RF : category()
activate RF
RF -> CR : create
RF -> CTRL : categoryRepository
deactivate RF
CTRL -> CR : save(category)
CTRL -> UI : category
deactivate CTRL

UI - -> SC :informs operation success
deactivate UI


deactivate SC



@enduml

PlantUML version 1.2022.4(Sat Apr 09 14:29:17 WEST 2022)
(GPL source distribution)
Java Runtime: OpenJDK Runtime Environment
JVM: OpenJDK 64-Bit Server VM
Default Encoding: UTF-8
Language: pt
Country: PT
--></g></svg>