<?xml version="1.0" encoding="UTF-8" standalone="no"?><svg xmlns="http://www.w3.org/2000/svg" xmlns:xlink="http://www.w3.org/1999/xlink" contentStyleType="text/css" height="420px" preserveAspectRatio="none" style="width:265px;height:420px;background:#FFFFFF;" version="1.1" viewBox="0 0 265 420" width="265px" zoomAndPan="magnify"><defs/><g><!--MD5=[9681dc6e01e10c6b4fe06895ae94f592]
cluster UI--><g id="cluster_UI"><path d="M38.5,6 L55.5,6 A3.75,3.75 0 0 1 58,8.5 L65,28.2969 L225.5,28.2969 A2.5,2.5 0 0 1 228,30.7969 L228,110.5 A2.5,2.5 0 0 1 225.5,113 L38.5,113 A2.5,2.5 0 0 1 36,110.5 L36,8.5 A2.5,2.5 0 0 1 38.5,6 " style="stroke:#000000;stroke-width:1.5;fill:none;"/><line style="stroke:#000000;stroke-width:1.5;fill:none;" x1="36" x2="65" y1="28.2969" y2="28.2969"/><text fill="#000000" font-family="sans-serif" font-size="14" font-weight="bold" lengthAdjust="spacing" textLength="16" x="40" y="20.9951">UI</text></g><!--MD5=[1f2cfc53d9d308f53762fd0fcbaa4873]
cluster Controller--><g id="cluster_Controller"><path d="M8.5,137 L90.5,137 A3.75,3.75 0 0 1 93,139.5 L100,159.2969 L255.5,159.2969 A2.5,2.5 0 0 1 258,161.7969 L258,249.5 A2.5,2.5 0 0 1 255.5,252 L8.5,252 A2.5,2.5 0 0 1 6,249.5 L6,139.5 A2.5,2.5 0 0 1 8.5,137 " style="stroke:#000000;stroke-width:1.5;fill:none;"/><line style="stroke:#000000;stroke-width:1.5;fill:none;" x1="6" x2="100" y1="159.2969" y2="159.2969"/><text fill="#000000" font-family="sans-serif" font-size="14" font-weight="bold" lengthAdjust="spacing" textLength="81" x="10" y="151.9951">Controller</text><text fill="#000000" font-family="sans-serif" font-size="14" font-style="italic" lengthAdjust="spacing" textLength="97" x="87.5" y="174.292">«application»</text></g><!--MD5=[5810de2917e203e3e76dad8ecc0f182f]
cluster Category--><g id="cluster_Category"><path d="M69.5,276 L143.5,276 A3.75,3.75 0 0 1 146,278.5 L153,298.2969 L194.5,298.2969 A2.5,2.5 0 0 1 197,300.7969 L197,410.5 A2.5,2.5 0 0 1 194.5,413 L69.5,413 A2.5,2.5 0 0 1 67,410.5 L67,278.5 A2.5,2.5 0 0 1 69.5,276 " style="stroke:#000000;stroke-width:1.5;fill:none;"/><line style="stroke:#000000;stroke-width:1.5;fill:none;" x1="67" x2="153" y1="298.2969" y2="298.2969"/><text fill="#000000" font-family="sans-serif" font-size="14" font-weight="bold" lengthAdjust="spacing" textLength="73" x="71" y="290.9951">Category</text><text fill="#000000" font-family="sans-serif" font-size="14" font-style="italic" lengthAdjust="spacing" textLength="93" x="89.5" y="313.292">«Aggregate»</text></g><!--MD5=[dee9e1b06252a4bc6b90bde5b547f353]
class DefineCategoryUI--><g id="elem_DefineCategoryUI"><rect codeLine="4" fill="#F1F1F1" height="56.2656" id="DefineCategoryUI" rx="2.5" ry="2.5" style="stroke:#181818;stroke-width:0.5;" width="159" x="52.5" y="41"/><ellipse cx="67.5" cy="61.1328" fill="#ADD1B2" rx="11" ry="11" style="stroke:#181818;stroke-width:1.0;"/><path d="M69.8438,56.8047 C68.9063,56.3672 68.3125,56.2266 67.4375,56.2266 C64.8125,56.2266 62.8125,58.3047 62.8125,61.0234 L62.8125,62.1484 C62.8125,64.7266 64.9219,66.6172 67.8125,66.6172 C69.0313,66.6172 70.1875,66.3203 70.9375,65.7734 C71.5156,65.3672 71.8438,64.9141 71.8438,64.5234 C71.8438,64.0703 71.4531,63.6797 70.9844,63.6797 C70.7656,63.6797 70.5625,63.7578 70.375,63.9453 C69.9219,64.4297 69.9219,64.4297 69.7344,64.5234 C69.3125,64.7891 68.625,64.9141 67.8594,64.9141 C65.8125,64.9141 64.5156,63.8203 64.5156,62.1172 L64.5156,61.0234 C64.5156,59.2422 65.7656,57.9297 67.5,57.9297 C68.0781,57.9297 68.6875,58.0859 69.1563,58.3359 C69.6406,58.6172 69.8125,58.8359 69.9063,59.2422 C69.9688,59.6484 70,59.7734 70.1406,59.8984 C70.2813,60.0391 70.5156,60.1484 70.7344,60.1484 C71,60.1484 71.2656,60.0078 71.4375,59.7891 C71.5469,59.6328 71.5781,59.4453 71.5781,59.0234 L71.5781,57.6016 C71.5781,57.1641 71.5625,57.0391 71.4688,56.8828 C71.3125,56.6172 71.0313,56.4766 70.7344,56.4766 C70.4375,56.4766 70.2344,56.5703 70.0156,56.8828 L69.8438,56.8047 Z " fill="#000000"/><text fill="#000000" font-family="sans-serif" font-size="12" font-style="italic" lengthAdjust="spacing" textLength="90" x="100" y="57.1387">«presentation»</text><text fill="#000000" font-family="sans-serif" font-size="14" lengthAdjust="spacing" textLength="127" x="81.5" y="72.9639">DefineCategoryUI</text><line style="stroke:#181818;stroke-width:0.5;" x1="53.5" x2="210.5" y1="81.2656" y2="81.2656"/><line style="stroke:#181818;stroke-width:0.5;" x1="53.5" x2="210.5" y1="89.2656" y2="89.2656"/></g><!--MD5=[bdbc25604339ed746272e8ac8c63b012]
class DefineCategoryController--><g id="elem_DefineCategoryController"><rect codeLine="9" fill="#F1F1F1" height="48" id="DefineCategoryController" rx="2.5" ry="2.5" style="stroke:#181818;stroke-width:0.5;" width="219" x="22.5" y="188"/><ellipse cx="37.5" cy="204" fill="#ADD1B2" rx="11" ry="11" style="stroke:#181818;stroke-width:1.0;"/><path d="M39.8438,199.6719 C38.9063,199.2344 38.3125,199.0938 37.4375,199.0938 C34.8125,199.0938 32.8125,201.1719 32.8125,203.8906 L32.8125,205.0156 C32.8125,207.5938 34.9219,209.4844 37.8125,209.4844 C39.0313,209.4844 40.1875,209.1875 40.9375,208.6406 C41.5156,208.2344 41.8438,207.7813 41.8438,207.3906 C41.8438,206.9375 41.4531,206.5469 40.9844,206.5469 C40.7656,206.5469 40.5625,206.625 40.375,206.8125 C39.9219,207.2969 39.9219,207.2969 39.7344,207.3906 C39.3125,207.6563 38.625,207.7813 37.8594,207.7813 C35.8125,207.7813 34.5156,206.6875 34.5156,204.9844 L34.5156,203.8906 C34.5156,202.1094 35.7656,200.7969 37.5,200.7969 C38.0781,200.7969 38.6875,200.9531 39.1563,201.2031 C39.6406,201.4844 39.8125,201.7031 39.9063,202.1094 C39.9688,202.5156 40,202.6406 40.1406,202.7656 C40.2813,202.9063 40.5156,203.0156 40.7344,203.0156 C41,203.0156 41.2656,202.875 41.4375,202.6563 C41.5469,202.5 41.5781,202.3125 41.5781,201.8906 L41.5781,200.4688 C41.5781,200.0313 41.5625,199.9063 41.4688,199.75 C41.3125,199.4844 41.0313,199.3438 40.7344,199.3438 C40.4375,199.3438 40.2344,199.4375 40.0156,199.75 L39.8438,199.6719 Z " fill="#000000"/><text fill="#000000" font-family="sans-serif" font-size="14" lengthAdjust="spacing" textLength="187" x="51.5" y="208.8467">DefineCategoryController</text><line style="stroke:#181818;stroke-width:0.5;" x1="23.5" x2="240.5" y1="220" y2="220"/><line style="stroke:#181818;stroke-width:0.5;" x1="23.5" x2="240.5" y1="228" y2="228"/></g><!--MD5=[a96594a83e2ecdc78cbf17c2ddf01934]
class Category--><g id="elem_Category"><rect codeLine="16" fill="#F1F1F1" height="70.2344" id="Category" rx="2.5" ry="2.5" style="stroke:#181818;stroke-width:0.5;" width="98" x="83" y="327"/><ellipse cx="98" cy="354.1172" fill="#ADD1B2" rx="11" ry="11" style="stroke:#181818;stroke-width:1.0;"/><path d="M96.7969,354.9922 L98.25,354.9922 L98.25,355.1016 C98.25,355.5078 98.2813,355.6641 98.3594,355.8203 C98.5156,356.0703 98.7969,356.2266 99.0938,356.2266 C99.3438,356.2266 99.6094,356.0859 99.7656,355.8672 C99.8906,355.7109 99.9219,355.5547 99.9219,355.1016 L99.9219,353.1797 C99.9219,353.0234 99.9219,352.9766 99.9063,352.8203 C99.8438,352.3516 99.5313,352.0391 99.0781,352.0391 C98.8281,352.0391 98.5625,352.1797 98.3906,352.3984 C98.2813,352.5703 98.25,352.7266 98.25,353.1797 L98.25,353.3047 L96.7969,353.3047 L96.7969,350.8984 L100.7813,350.8984 L100.7813,351.7578 C100.7813,352.1641 100.8125,352.3359 100.8906,352.4922 C101.0625,352.7422 101.3438,352.8984 101.625,352.8984 C101.8906,352.8984 102.1563,352.7578 102.3281,352.5391 C102.4375,352.3672 102.4688,352.2266 102.4688,351.7578 L102.4688,349.2109 L94.8438,349.2109 C94.4063,349.2109 94.2813,349.2266 94.125,349.3203 C93.875,349.4766 93.7188,349.7734 93.7188,350.0547 C93.7188,350.3359 93.8594,350.5859 94.0781,350.7578 C94.2344,350.8672 94.4219,350.8984 94.8438,350.8984 L95.0938,350.8984 L95.0938,357.4141 L94.8438,357.4141 C94.4375,357.4141 94.2813,357.4297 94.125,357.5391 C93.875,357.7109 93.7188,357.9766 93.7188,358.2734 C93.7188,358.5391 93.8594,358.7891 94.0781,358.9453 C94.2188,359.0703 94.4531,359.1172 94.8438,359.1172 L102.8438,359.1172 L102.8438,356.5391 C102.8438,356.1016 102.8125,355.9609 102.7344,355.8047 C102.5625,355.5547 102.2813,355.3984 102,355.3984 C101.7344,355.3984 101.4688,355.5078 101.2969,355.7578 C101.1875,355.9141 101.1563,356.0547 101.1563,356.5391 L101.1563,357.4141 L96.7969,357.4141 L96.7969,354.9922 Z " fill="#000000"/><text fill="#000000" font-family="sans-serif" font-size="12" font-style="italic" lengthAdjust="spacing" textLength="50" x="120" y="343.1387">«Entity»</text><text fill="#000000" font-family="sans-serif" font-size="12" font-style="italic" lengthAdjust="spacing" textLength="41" x="124.5" y="357.1074">«Root»</text><text fill="#000000" font-family="sans-serif" font-size="14" lengthAdjust="spacing" textLength="66" x="112" y="372.9326">Category</text><line style="stroke:#181818;stroke-width:0.5;" x1="84" x2="180" y1="381.2344" y2="381.2344"/><line style="stroke:#181818;stroke-width:0.5;" x1="84" x2="180" y1="389.2344" y2="389.2344"/></g><!--MD5=[b982873553d20225904e30ac24defca4]
link DefineCategoryUI to DefineCategoryController--><g id="link_DefineCategoryUI_DefineCategoryController"><path codeLine="21" d="M132,97.186 C132,121.691 132,157.596 132,182.499 " fill="none" id="DefineCategoryUI-to-DefineCategoryController" style="stroke:#181818;stroke-width:1.0;stroke-dasharray:7.0,7.0;"/><polygon fill="#181818" points="132,187.638,136,178.638,132,182.638,128,178.638,132,187.638" style="stroke:#181818;stroke-width:1.0;"/></g><!--MD5=[6bc3045a20778840d3e92f95ce57f2f2]
link DefineCategoryController to Category--><g id="link_DefineCategoryController_Category"><path codeLine="22" d="M132,236.125 C132,258.914 132,294.18 132,321.43 " fill="none" id="DefineCategoryController-to-Category" style="stroke:#181818;stroke-width:1.0;stroke-dasharray:7.0,7.0;"/><polygon fill="#181818" points="132,326.767,136,317.767,132,321.767,128,317.767,132,326.767" style="stroke:#181818;stroke-width:1.0;"/></g><!--MD5=[60437c10081532e7f15caca9de21e0d5]
@startuml
skinparam classAttributeIconSize 0

package UI {
class DefineCategoryUI <<presentation>> {
}
}

package Controller <<application>>{
class DefineCategoryController {

}
}

package Category <<Aggregate>>{

entity Category <<Entity>> <<Root>> {
}



DefineCategoryUI ..> DefineCategoryController
DefineCategoryController ..> Category
@enduml

PlantUML version 1.2022.4beta2(Unknown compile time)
(GPL source distribution)
Java Runtime: Java(TM) SE Runtime Environment
JVM: Java HotSpot(TM) 64-Bit Server VM
Default Encoding: UTF-8
Language: en
Country: US
--></g></svg>