<?xml version="1.0" encoding="UTF-8" standalone="no"?><svg xmlns="http://www.w3.org/2000/svg" xmlns:xlink="http://www.w3.org/1999/xlink" contentStyleType="text/css" height="1021px" preserveAspectRatio="none" style="width:1645px;height:1021px;background:#FFFFFF;" version="1.1" viewBox="0 0 1645 1021" width="1645px" zoomAndPan="magnify"><defs/><g><rect fill="#FFFFFF" height="814.7637" style="stroke:#181818;stroke-width:1.0;" width="10" x="40.5" y="93.9766"/><rect fill="#FFFFFF" height="205.1738" style="stroke:#181818;stroke-width:1.0;" width="10" x="454.5" y="115.2871"/><rect fill="#FFFFFF" height="117.2422" style="stroke:#181818;stroke-width:1.0;" width="10" x="454.5" y="349.7715"/><rect fill="#FFFFFF" height="353.7949" style="stroke:#181818;stroke-width:1.0;" width="10" x="454.5" y="496.3242"/><rect fill="#FFFFFF" height="29.3105" style="stroke:#181818;stroke-width:1.0;" width="10" x="454.5" y="879.4297"/><rect fill="#FFFFFF" height="146.5527" style="stroke:#181818;stroke-width:1.0;" width="10" x="664.5" y="144.5977"/><rect fill="#FFFFFF" height="58.6211" style="stroke:#181818;stroke-width:1.0;" width="10" x="664.5" y="379.082"/><rect fill="#FFFFFF" height="295.1738" style="stroke:#181818;stroke-width:1.0;" width="10" x="664.5" y="525.6348"/><rect fill="#FFFFFF" height="29.3105" style="stroke:#181818;stroke-width:1.0;" width="10" x="953.5" y="408.3926"/><rect fill="#FFFFFF" height="30" style="stroke:#181818;stroke-width:1.0;" width="10" x="1098.5" y="732.1875"/><rect fill="#FFFFFF" height="29.3105" style="stroke:#181818;stroke-width:1.0;" width="10" x="1237" y="173.9082"/><rect fill="#FFFFFF" height="29.3105" style="stroke:#181818;stroke-width:1.0;" width="10" x="1237" y="554.9453"/><rect fill="#FFFFFF" height="29.3105" style="stroke:#181818;stroke-width:1.0;" width="10" x="1388.5" y="203.2188"/><rect fill="#FFFFFF" height="59.3105" style="stroke:#181818;stroke-width:1.0;" width="10" x="1388.5" y="584.2559"/><rect fill="#FFFFFF" height="29.3105" style="stroke:#181818;stroke-width:1.0;" width="10" x="1553" y="232.5293"/><rect fill="#FFFFFF" height="30" style="stroke:#181818;stroke-width:1.0;" width="10" x="1553" y="613.5664"/><rect fill="#FFFFFF" height="30" style="stroke:#181818;stroke-width:1.0;" width="10" x="1553" y="672.877"/><line style="stroke:#181818;stroke-width:0.5;stroke-dasharray:5.0,5.0;" x1="45" x2="45" y1="83.9766" y2="926.7402"/><line style="stroke:#181818;stroke-width:0.5;stroke-dasharray:5.0,5.0;" x1="459" x2="459" y1="83.9766" y2="926.7402"/><line style="stroke:#181818;stroke-width:0.5;stroke-dasharray:5.0,5.0;" x1="669" x2="669" y1="83.9766" y2="926.7402"/><line style="stroke:#181818;stroke-width:0.5;stroke-dasharray:5.0,5.0;" x1="958" x2="958" y1="83.9766" y2="926.7402"/><line style="stroke:#181818;stroke-width:0.5;stroke-dasharray:5.0,5.0;" x1="1103" x2="1103" y1="83.9766" y2="926.7402"/><line style="stroke:#181818;stroke-width:0.5;stroke-dasharray:5.0,5.0;" x1="1242" x2="1242" y1="83.9766" y2="926.7402"/><line style="stroke:#181818;stroke-width:0.5;stroke-dasharray:5.0,5.0;" x1="1393" x2="1393" y1="83.9766" y2="926.7402"/><line style="stroke:#181818;stroke-width:0.5;stroke-dasharray:5.0,5.0;" x1="1558" x2="1558" y1="83.9766" y2="926.7402"/><text fill="#000000" font-family="sans-serif" font-size="14" lengthAdjust="spacing" textLength="75" x="5" y="81.0234">Sales Clerk</text><ellipse cx="45.5" cy="15.9883" fill="#E2E2F0" rx="8" ry="8" style="stroke:#181818;stroke-width:0.5;"/><path d="M45.5,23.9883 L45.5,50.9883 M32.5,31.9883 L58.5,31.9883 M45.5,50.9883 L32.5,65.9883 M45.5,50.9883 L58.5,65.9883 " fill="none" style="stroke:#181818;stroke-width:0.5;"/><text fill="#000000" font-family="sans-serif" font-size="14" lengthAdjust="spacing" textLength="75" x="5" y="939.2754">Sales Clerk</text><ellipse cx="45.5" cy="950.7285" fill="#E2E2F0" rx="8" ry="8" style="stroke:#181818;stroke-width:0.5;"/><path d="M45.5,958.7285 L45.5,985.7285 M32.5,966.7285 L58.5,966.7285 M45.5,985.7285 L32.5,1000.7285 M45.5,985.7285 L58.5,1000.7285 " fill="none" style="stroke:#181818;stroke-width:0.5;"/><rect fill="#E2E2F0" height="46.9766" rx="2.5" ry="2.5" style="stroke:#181818;stroke-width:0.5;" width="155" x="382" y="36"/><text fill="#000000" font-family="sans-serif" font-size="14" font-style="italic" lengthAdjust="spacing" textLength="101" x="409" y="56.5352">«presentation»</text><text fill="#000000" font-family="sans-serif" font-size="14" lengthAdjust="spacing" textLength="141" x="389" y="73.0234">:OrdersDispatchedUI</text><rect fill="#E2E2F0" height="46.9766" rx="2.5" ry="2.5" style="stroke:#181818;stroke-width:0.5;" width="155" x="382" y="925.7402"/><text fill="#000000" font-family="sans-serif" font-size="14" font-style="italic" lengthAdjust="spacing" textLength="101" x="409" y="946.2754">«presentation»</text><text fill="#000000" font-family="sans-serif" font-size="14" lengthAdjust="spacing" textLength="141" x="389" y="962.7637">:OrdersDispatchedUI</text><rect fill="#E2E2F0" height="46.9766" rx="2.5" ry="2.5" style="stroke:#181818;stroke-width:0.5;" width="211" x="564" y="36"/><text fill="#000000" font-family="sans-serif" font-size="14" font-style="italic" lengthAdjust="spacing" textLength="90" x="624.5" y="56.5352">«application»</text><text fill="#000000" font-family="sans-serif" font-size="14" lengthAdjust="spacing" textLength="197" x="571" y="73.0234">:OrdersDispatchedController</text><rect fill="#E2E2F0" height="46.9766" rx="2.5" ry="2.5" style="stroke:#181818;stroke-width:0.5;" width="211" x="564" y="925.7402"/><text fill="#000000" font-family="sans-serif" font-size="14" font-style="italic" lengthAdjust="spacing" textLength="90" x="624.5" y="946.2754">«application»</text><text fill="#000000" font-family="sans-serif" font-size="14" lengthAdjust="spacing" textLength="197" x="571" y="962.7637">:OrdersDispatchedController</text><rect fill="#E2E2F0" height="46.9766" rx="2.5" ry="2.5" style="stroke:#181818;stroke-width:0.5;" width="159" x="879" y="36"/><text fill="#000000" font-family="sans-serif" font-size="14" font-style="italic" lengthAdjust="spacing" textLength="61" x="928" y="56.5352">«service»</text><text fill="#000000" font-family="sans-serif" font-size="14" lengthAdjust="spacing" textLength="145" x="886" y="73.0234">:ProductOrderService</text><rect fill="#E2E2F0" height="46.9766" rx="2.5" ry="2.5" style="stroke:#181818;stroke-width:0.5;" width="159" x="879" y="925.7402"/><text fill="#000000" font-family="sans-serif" font-size="14" font-style="italic" lengthAdjust="spacing" textLength="61" x="928" y="946.2754">«service»</text><text fill="#000000" font-family="sans-serif" font-size="14" lengthAdjust="spacing" textLength="145" x="886" y="962.7637">:ProductOrderService</text><rect fill="#E2E2F0" height="46.9766" rx="2.5" ry="2.5" style="stroke:#181818;stroke-width:0.5;" width="111" x="1048" y="36"/><text fill="#000000" font-family="sans-serif" font-size="14" font-style="italic" lengthAdjust="spacing" textLength="66" x="1070.5" y="56.5352">«domain»</text><text fill="#000000" font-family="sans-serif" font-size="14" lengthAdjust="spacing" textLength="97" x="1055" y="73.0234">:ProductOrder</text><rect fill="#E2E2F0" height="46.9766" rx="2.5" ry="2.5" style="stroke:#181818;stroke-width:0.5;" width="111" x="1048" y="925.7402"/><text fill="#000000" font-family="sans-serif" font-size="14" font-style="italic" lengthAdjust="spacing" textLength="66" x="1070.5" y="946.2754">«domain»</text><text fill="#000000" font-family="sans-serif" font-size="14" lengthAdjust="spacing" textLength="97" x="1055" y="962.7637">:ProductOrder</text><rect fill="#E2E2F0" height="46.9766" rx="2.5" ry="2.5" style="stroke:#181818;stroke-width:0.5;" width="146" x="1169" y="36"/><text fill="#000000" font-family="sans-serif" font-size="14" font-style="italic" lengthAdjust="spacing" textLength="92" x="1196" y="56.5352">«persistence»</text><text fill="#000000" font-family="sans-serif" font-size="14" lengthAdjust="spacing" textLength="132" x="1176" y="73.0234">PersistenceContext</text><rect fill="#E2E2F0" height="46.9766" rx="2.5" ry="2.5" style="stroke:#181818;stroke-width:0.5;" width="146" x="1169" y="925.7402"/><text fill="#000000" font-family="sans-serif" font-size="14" font-style="italic" lengthAdjust="spacing" textLength="92" x="1196" y="946.2754">«persistence»</text><text fill="#000000" font-family="sans-serif" font-size="14" lengthAdjust="spacing" textLength="132" x="1176" y="962.7637">PersistenceContext</text><rect fill="#E2E2F0" height="46.9766" rx="2.5" ry="2.5" style="stroke:#181818;stroke-width:0.5;" width="137" x="1325" y="36"/><text fill="#000000" font-family="sans-serif" font-size="14" font-style="italic" lengthAdjust="spacing" textLength="61" x="1363" y="56.5352">«factory»</text><text fill="#000000" font-family="sans-serif" font-size="14" lengthAdjust="spacing" textLength="123" x="1332" y="73.0234">RepositoryFactory</text><rect fill="#E2E2F0" height="46.9766" rx="2.5" ry="2.5" style="stroke:#181818;stroke-width:0.5;" width="137" x="1325" y="925.7402"/><text fill="#000000" font-family="sans-serif" font-size="14" font-style="italic" lengthAdjust="spacing" textLength="61" x="1363" y="946.2754">«factory»</text><text fill="#000000" font-family="sans-serif" font-size="14" lengthAdjust="spacing" textLength="123" x="1332" y="962.7637">RepositoryFactory</text><text fill="#000000" font-family="sans-serif" font-size="14" font-style="italic" lengthAdjust="spacing" textLength="84" x="1513" y="64.5352">«repository»</text><text fill="#000000" font-family="sans-serif" font-size="14" lengthAdjust="spacing" textLength="166" x="1472" y="81.0234">ProductOrderRepository</text><path d="M1540,15 C1540,5 1558,5 1558,5 C1558,5 1576,5 1576,15 L1576,41 C1576,51 1558,51 1558,51 C1558,51 1540,51 1540,41 L1540,15 " fill="#E2E2F0" style="stroke:#181818;stroke-width:1.5;"/><path d="M1540,15 C1540,25 1558,25 1558,25 C1558,25 1576,25 1576,15 " fill="none" style="stroke:#181818;stroke-width:1.5;"/><text fill="#000000" font-family="sans-serif" font-size="14" font-style="italic" lengthAdjust="spacing" textLength="84" x="1513" y="939.2754">«repository»</text><text fill="#000000" font-family="sans-serif" font-size="14" lengthAdjust="spacing" textLength="166" x="1472" y="955.7637">ProductOrderRepository</text><path d="M1540,968.7168 C1540,958.7168 1558,958.7168 1558,958.7168 C1558,958.7168 1576,958.7168 1576,968.7168 L1576,994.7168 C1576,1004.7168 1558,1004.7168 1558,1004.7168 C1558,1004.7168 1540,1004.7168 1540,994.7168 L1540,968.7168 " fill="#E2E2F0" style="stroke:#181818;stroke-width:1.5;"/><path d="M1540,968.7168 C1540,978.7168 1558,978.7168 1558,978.7168 C1558,978.7168 1576,978.7168 1576,968.7168 " fill="none" style="stroke:#181818;stroke-width:1.5;"/><rect fill="#FFFFFF" height="814.7637" style="stroke:#181818;stroke-width:1.0;" width="10" x="40.5" y="93.9766"/><rect fill="#FFFFFF" height="205.1738" style="stroke:#181818;stroke-width:1.0;" width="10" x="454.5" y="115.2871"/><rect fill="#FFFFFF" height="117.2422" style="stroke:#181818;stroke-width:1.0;" width="10" x="454.5" y="349.7715"/><rect fill="#FFFFFF" height="353.7949" style="stroke:#181818;stroke-width:1.0;" width="10" x="454.5" y="496.3242"/><rect fill="#FFFFFF" height="29.3105" style="stroke:#181818;stroke-width:1.0;" width="10" x="454.5" y="879.4297"/><rect fill="#FFFFFF" height="146.5527" style="stroke:#181818;stroke-width:1.0;" width="10" x="664.5" y="144.5977"/><rect fill="#FFFFFF" height="58.6211" style="stroke:#181818;stroke-width:1.0;" width="10" x="664.5" y="379.082"/><rect fill="#FFFFFF" height="295.1738" style="stroke:#181818;stroke-width:1.0;" width="10" x="664.5" y="525.6348"/><rect fill="#FFFFFF" height="29.3105" style="stroke:#181818;stroke-width:1.0;" width="10" x="953.5" y="408.3926"/><rect fill="#FFFFFF" height="30" style="stroke:#181818;stroke-width:1.0;" width="10" x="1098.5" y="732.1875"/><rect fill="#FFFFFF" height="29.3105" style="stroke:#181818;stroke-width:1.0;" width="10" x="1237" y="173.9082"/><rect fill="#FFFFFF" height="29.3105" style="stroke:#181818;stroke-width:1.0;" width="10" x="1237" y="554.9453"/><rect fill="#FFFFFF" height="29.3105" style="stroke:#181818;stroke-width:1.0;" width="10" x="1388.5" y="203.2188"/><rect fill="#FFFFFF" height="59.3105" style="stroke:#181818;stroke-width:1.0;" width="10" x="1388.5" y="584.2559"/><rect fill="#FFFFFF" height="29.3105" style="stroke:#181818;stroke-width:1.0;" width="10" x="1553" y="232.5293"/><rect fill="#FFFFFF" height="30" style="stroke:#181818;stroke-width:1.0;" width="10" x="1553" y="613.5664"/><rect fill="#FFFFFF" height="30" style="stroke:#181818;stroke-width:1.0;" width="10" x="1553" y="672.877"/><polygon fill="#181818" points="442.5,111.2871,452.5,115.2871,442.5,119.2871,446.5,115.2871" style="stroke:#181818;stroke-width:1.0;"/><line style="stroke:#181818;stroke-width:1.0;" x1="50.5" x2="448.5" y1="115.2871" y2="115.2871"/><text fill="#000000" font-family="sans-serif" font-size="13" font-weight="bold" lengthAdjust="spacing" textLength="9" x="57.5" y="110.5449">1</text><text fill="#000000" font-family="sans-serif" font-size="13" lengthAdjust="spacing" textLength="283" x="70.5" y="110.5449">asks to view the list of previous orders made</text><polygon fill="#181818" points="652.5,140.5977,662.5,144.5977,652.5,148.5977,656.5,144.5977" style="stroke:#181818;stroke-width:1.0;"/><line style="stroke:#181818;stroke-width:1.0;" x1="464.5" x2="658.5" y1="144.5977" y2="144.5977"/><text fill="#000000" font-family="sans-serif" font-size="13" font-weight="bold" lengthAdjust="spacing" textLength="9" x="471.5" y="139.8555">2</text><text fill="#000000" font-family="sans-serif" font-size="13" lengthAdjust="spacing" textLength="92" x="484.5" y="139.8555">findAllOrders()</text><polygon fill="#181818" points="1225,169.9082,1235,173.9082,1225,177.9082,1229,173.9082" style="stroke:#181818;stroke-width:1.0;"/><line style="stroke:#181818;stroke-width:1.0;" x1="674.5" x2="1231" y1="173.9082" y2="173.9082"/><text fill="#000000" font-family="sans-serif" font-size="13" font-weight="bold" lengthAdjust="spacing" textLength="9" x="681.5" y="169.166">3</text><text fill="#000000" font-family="sans-serif" font-size="13" lengthAdjust="spacing" textLength="83" x="694.5" y="169.166">repositories()</text><polygon fill="#181818" points="1376.5,199.2188,1386.5,203.2188,1376.5,207.2188,1380.5,203.2188" style="stroke:#181818;stroke-width:1.0;"/><line style="stroke:#181818;stroke-width:1.0;" x1="1242" x2="1382.5" y1="203.2188" y2="203.2188"/><text fill="#000000" font-family="sans-serif" font-size="13" font-weight="bold" lengthAdjust="spacing" textLength="9" x="1249" y="198.4766">4</text><text fill="#000000" font-family="sans-serif" font-size="13" lengthAdjust="spacing" textLength="38" x="1262" y="198.4766">create</text><polygon fill="#181818" points="1541,228.5293,1551,232.5293,1541,236.5293,1545,232.5293" style="stroke:#181818;stroke-width:1.0;"/><line style="stroke:#181818;stroke-width:1.0;" x1="1393.5" x2="1547" y1="232.5293" y2="232.5293"/><text fill="#000000" font-family="sans-serif" font-size="13" font-weight="bold" lengthAdjust="spacing" textLength="9" x="1400.5" y="227.7871">5</text><text fill="#000000" font-family="sans-serif" font-size="13" lengthAdjust="spacing" textLength="38" x="1413.5" y="227.7871">create</text><polygon fill="#181818" points="1546,257.8398,1556,261.8398,1546,265.8398,1550,261.8398" style="stroke:#181818;stroke-width:1.0;"/><line style="stroke:#181818;stroke-width:1.0;" x1="674.5" x2="1552" y1="261.8398" y2="261.8398"/><text fill="#000000" font-family="sans-serif" font-size="13" font-weight="bold" lengthAdjust="spacing" textLength="9" x="681.5" y="257.0977">6</text><text fill="#000000" font-family="sans-serif" font-size="13" lengthAdjust="spacing" textLength="146" x="694.5" y="257.0977">getOrders= getOrders()</text><polygon fill="#181818" points="475.5,287.1504,465.5,291.1504,475.5,295.1504,471.5,291.1504" style="stroke:#181818;stroke-width:1.0;"/><line style="stroke:#181818;stroke-width:1.0;stroke-dasharray:2.0,2.0;" x1="469.5" x2="668.5" y1="291.1504" y2="291.1504"/><text fill="#000000" font-family="sans-serif" font-size="13" font-weight="bold" lengthAdjust="spacing" textLength="9" x="481.5" y="286.4082">7</text><text fill="#000000" font-family="sans-serif" font-size="13" lengthAdjust="spacing" textLength="154" x="494.5" y="286.4082">List&lt;ProductOrderDTO&gt;</text><polygon fill="#181818" points="61.5,316.4609,51.5,320.4609,61.5,324.4609,57.5,320.4609" style="stroke:#181818;stroke-width:1.0;"/><line style="stroke:#181818;stroke-width:1.0;stroke-dasharray:2.0,2.0;" x1="55.5" x2="458.5" y1="320.4609" y2="320.4609"/><text fill="#000000" font-family="sans-serif" font-size="13" font-weight="bold" lengthAdjust="spacing" textLength="9" x="67.5" y="315.7188">8</text><text fill="#000000" font-family="sans-serif" font-size="13" lengthAdjust="spacing" textLength="125" x="80.5" y="315.7188">shows list of orders</text><polygon fill="#181818" points="442.5,345.7715,452.5,349.7715,442.5,353.7715,446.5,349.7715" style="stroke:#181818;stroke-width:1.0;"/><line style="stroke:#181818;stroke-width:1.0;" x1="50.5" x2="448.5" y1="349.7715" y2="349.7715"/><text fill="#000000" font-family="sans-serif" font-size="13" font-weight="bold" lengthAdjust="spacing" textLength="9" x="57.5" y="345.0293">9</text><text fill="#000000" font-family="sans-serif" font-size="13" lengthAdjust="spacing" textLength="292" x="70.5" y="345.0293">asks to see the ones with status: DISPATCHED</text><polygon fill="#181818" points="652.5,375.082,662.5,379.082,652.5,383.082,656.5,379.082" style="stroke:#181818;stroke-width:1.0;"/><line style="stroke:#181818;stroke-width:1.0;" x1="464.5" x2="658.5" y1="379.082" y2="379.082"/><text fill="#000000" font-family="sans-serif" font-size="13" font-weight="bold" lengthAdjust="spacing" textLength="18" x="471.5" y="374.3398">10</text><text fill="#000000" font-family="sans-serif" font-size="13" lengthAdjust="spacing" textLength="108" x="493.5" y="374.3398">getOrderByStatus</text><polygon fill="#181818" points="941.5,404.3926,951.5,408.3926,941.5,412.3926,945.5,408.3926" style="stroke:#181818;stroke-width:1.0;"/><line style="stroke:#181818;stroke-width:1.0;" x1="674.5" x2="947.5" y1="408.3926" y2="408.3926"/><text fill="#000000" font-family="sans-serif" font-size="13" font-weight="bold" lengthAdjust="spacing" textLength="18" x="681.5" y="403.6504">11</text><text fill="#000000" font-family="sans-serif" font-size="13" lengthAdjust="spacing" textLength="238" x="703.5" y="403.6504">getOrderByStatus= getOrderByStatus()</text><polygon fill="#181818" points="475.5,433.7031,465.5,437.7031,475.5,441.7031,471.5,437.7031" style="stroke:#181818;stroke-width:1.0;"/><line style="stroke:#181818;stroke-width:1.0;stroke-dasharray:2.0,2.0;" x1="469.5" x2="668.5" y1="437.7031" y2="437.7031"/><text fill="#000000" font-family="sans-serif" font-size="13" font-weight="bold" lengthAdjust="spacing" textLength="18" x="481.5" y="432.9609">12</text><text fill="#000000" font-family="sans-serif" font-size="13" lengthAdjust="spacing" textLength="154" x="503.5" y="432.9609">List&lt;ProductOrderDTO&gt;</text><polygon fill="#181818" points="61.5,463.0137,51.5,467.0137,61.5,471.0137,57.5,467.0137" style="stroke:#181818;stroke-width:1.0;"/><line style="stroke:#181818;stroke-width:1.0;stroke-dasharray:2.0,2.0;" x1="55.5" x2="458.5" y1="467.0137" y2="467.0137"/><text fill="#000000" font-family="sans-serif" font-size="13" font-weight="bold" lengthAdjust="spacing" textLength="18" x="67.5" y="462.2715">13</text><text fill="#000000" font-family="sans-serif" font-size="13" lengthAdjust="spacing" textLength="228" x="89.5" y="462.2715">shows list of orders with that status</text><polygon fill="#181818" points="442.5,492.3242,452.5,496.3242,442.5,500.3242,446.5,496.3242" style="stroke:#181818;stroke-width:1.0;"/><line style="stroke:#181818;stroke-width:1.0;" x1="50.5" x2="448.5" y1="496.3242" y2="496.3242"/><text fill="#000000" font-family="sans-serif" font-size="13" font-weight="bold" lengthAdjust="spacing" textLength="18" x="57.5" y="491.582">14</text><text fill="#000000" font-family="sans-serif" font-size="13" lengthAdjust="spacing" textLength="363" x="79.5" y="491.582">asks which of these orders you want to change the status</text><polygon fill="#181818" points="652.5,521.6348,662.5,525.6348,652.5,529.6348,656.5,525.6348" style="stroke:#181818;stroke-width:1.0;"/><line style="stroke:#181818;stroke-width:1.0;" x1="464.5" x2="658.5" y1="525.6348" y2="525.6348"/><text fill="#000000" font-family="sans-serif" font-size="13" font-weight="bold" lengthAdjust="spacing" textLength="18" x="471.5" y="520.8926">15</text><text fill="#000000" font-family="sans-serif" font-size="13" lengthAdjust="spacing" textLength="126" x="493.5" y="520.8926">getOrderToModified</text><polygon fill="#181818" points="1225,550.9453,1235,554.9453,1225,558.9453,1229,554.9453" style="stroke:#181818;stroke-width:1.0;"/><line style="stroke:#181818;stroke-width:1.0;" x1="674.5" x2="1231" y1="554.9453" y2="554.9453"/><text fill="#000000" font-family="sans-serif" font-size="13" font-weight="bold" lengthAdjust="spacing" textLength="18" x="681.5" y="550.2031">16</text><text fill="#000000" font-family="sans-serif" font-size="13" lengthAdjust="spacing" textLength="83" x="703.5" y="550.2031">repositories()</text><polygon fill="#181818" points="1376.5,580.2559,1386.5,584.2559,1376.5,588.2559,1380.5,584.2559" style="stroke:#181818;stroke-width:1.0;"/><line style="stroke:#181818;stroke-width:1.0;" x1="1242" x2="1382.5" y1="584.2559" y2="584.2559"/><text fill="#000000" font-family="sans-serif" font-size="13" font-weight="bold" lengthAdjust="spacing" textLength="18" x="1249" y="579.5137">17</text><text fill="#000000" font-family="sans-serif" font-size="13" lengthAdjust="spacing" textLength="38" x="1271" y="579.5137">create</text><polygon fill="#181818" points="1541,609.5664,1551,613.5664,1541,617.5664,1545,613.5664" style="stroke:#181818;stroke-width:1.0;"/><line style="stroke:#181818;stroke-width:1.0;" x1="1398.5" x2="1547" y1="613.5664" y2="613.5664"/><text fill="#000000" font-family="sans-serif" font-size="13" font-weight="bold" lengthAdjust="spacing" textLength="18" x="1405.5" y="608.8242">18</text><text fill="#000000" font-family="sans-serif" font-size="13" lengthAdjust="spacing" textLength="38" x="1427.5" y="608.8242">create</text><polygon fill="#181818" points="1541,668.877,1551,672.877,1541,676.877,1545,672.877" style="stroke:#181818;stroke-width:1.0;"/><line style="stroke:#181818;stroke-width:1.0;" x1="674.5" x2="1547" y1="672.877" y2="672.877"/><text fill="#000000" font-family="sans-serif" font-size="13" font-weight="bold" lengthAdjust="spacing" textLength="18" x="681.5" y="668.1348">19</text><text fill="#000000" font-family="sans-serif" font-size="13" lengthAdjust="spacing" textLength="94" x="703.5" y="668.1348">findByOrderId()</text><polygon fill="#181818" points="1086.5,728.1875,1096.5,732.1875,1086.5,736.1875,1090.5,732.1875" style="stroke:#181818;stroke-width:1.0;"/><line style="stroke:#181818;stroke-width:1.0;" x1="674.5" x2="1092.5" y1="732.1875" y2="732.1875"/><text fill="#000000" font-family="sans-serif" font-size="13" font-weight="bold" lengthAdjust="spacing" textLength="18" x="681.5" y="727.4453">20</text><text fill="#000000" font-family="sans-serif" font-size="13" lengthAdjust="spacing" textLength="260" x="703.5" y="727.4453">changeOrderStatus= changeOrderStatus()</text><polygon fill="#181818" points="1546,787.498,1556,791.498,1546,795.498,1550,791.498" style="stroke:#181818;stroke-width:1.0;"/><line style="stroke:#181818;stroke-width:1.0;" x1="674.5" x2="1552" y1="791.498" y2="791.498"/><text fill="#000000" font-family="sans-serif" font-size="13" font-weight="bold" lengthAdjust="spacing" textLength="18" x="681.5" y="786.7559">21</text><text fill="#000000" font-family="sans-serif" font-size="13" lengthAdjust="spacing" textLength="36" x="703.5" y="786.7559">save()</text><polygon fill="#181818" points="475.5,816.8086,465.5,820.8086,475.5,824.8086,471.5,820.8086" style="stroke:#181818;stroke-width:1.0;"/><line style="stroke:#181818;stroke-width:1.0;stroke-dasharray:2.0,2.0;" x1="469.5" x2="668.5" y1="820.8086" y2="820.8086"/><text fill="#000000" font-family="sans-serif" font-size="13" font-weight="bold" lengthAdjust="spacing" textLength="18" x="481.5" y="816.0664">22</text><text fill="#000000" font-family="sans-serif" font-size="13" lengthAdjust="spacing" textLength="55" x="503.5" y="816.0664">getOrder</text><polygon fill="#181818" points="61.5,846.1191,51.5,850.1191,61.5,854.1191,57.5,850.1191" style="stroke:#181818;stroke-width:1.0;"/><line style="stroke:#181818;stroke-width:1.0;stroke-dasharray:2.0,2.0;" x1="55.5" x2="458.5" y1="850.1191" y2="850.1191"/><text fill="#000000" font-family="sans-serif" font-size="13" font-weight="bold" lengthAdjust="spacing" textLength="18" x="67.5" y="845.377">23</text><text fill="#000000" font-family="sans-serif" font-size="13" lengthAdjust="spacing" textLength="90" x="89.5" y="845.377">shows all data</text><polygon fill="#181818" points="442.5,875.4297,452.5,879.4297,442.5,883.4297,446.5,879.4297" style="stroke:#181818;stroke-width:1.0;"/><line style="stroke:#181818;stroke-width:1.0;" x1="50.5" x2="448.5" y1="879.4297" y2="879.4297"/><text fill="#000000" font-family="sans-serif" font-size="13" font-weight="bold" lengthAdjust="spacing" textLength="18" x="57.5" y="874.6875">24</text><text fill="#000000" font-family="sans-serif" font-size="13" lengthAdjust="spacing" textLength="111" x="79.5" y="874.6875">confirms the data</text><polygon fill="#181818" points="56.5,904.7402,46.5,908.7402,56.5,912.7402,52.5,908.7402" style="stroke:#181818;stroke-width:1.0;"/><line style="stroke:#181818;stroke-width:1.0;stroke-dasharray:2.0,2.0;" x1="50.5" x2="458.5" y1="908.7402" y2="908.7402"/><text fill="#000000" font-family="sans-serif" font-size="13" font-weight="bold" lengthAdjust="spacing" textLength="18" x="62.5" y="903.998">25</text><text fill="#000000" font-family="sans-serif" font-size="13" lengthAdjust="spacing" textLength="167" x="84.5" y="903.998">informs operation success</text><!--MD5=[df3849de19660f7f5f15233ce8e79342]
@startuml
autonumber
'hide footbox
actor "Sales Clerk" as SC
participant ":OrdersDispatchedUI" as UI <<presentation>>
participant ":OrdersDispatchedController" as CTRL <<application>>
participant ":ProductOrderService" as ProdS <<service>>
participant ":ProductOrder" as PORd <<domain>>
participant "PersistenceContext" as PC <<persistence>>
participant "RepositoryFactory" as RF <<factory>>
database "ProductOrderRepository" as ProdRepo <<repository>>

activate SC

SC -> UI : asks to view the list of previous orders made
activate UI

UI -> CTRL : findAllOrders()
activate CTRL
CTRL -> PC : repositories()

activate PC
PC -> RF : create
deactivate PC
activate RF
RF -> ProdRepo : create
deactivate RF
activate ProdRepo
deactivate ProdRepo
CTRL -> ProdRepo : getOrders= getOrders()

deactivate ProdRepo

CTRL - -> UI :  List<ProductOrderDTO>
deactivate CTRL

UI - -> SC : shows list of orders
deactivate UI
SC -> UI : asks to see the ones with status: DISPATCHED
activate UI

UI -> CTRL : getOrderByStatus
activate CTRL
CTRL -> ProdS : getOrderByStatus= getOrderByStatus()
activate ProdS
CTRL - -> UI :  List<ProductOrderDTO>
deactivate CTRL
deactivate ProdS

UI - -> SC :  shows list of orders with that status
deactivate UI

SC -> UI : asks which of these orders you want to change the status
activate UI

UI -> CTRL : getOrderToModified
activate CTRL
CTRL -> PC : repositories()

activate PC
PC -> RF : create
deactivate PC
activate RF
RF -> ProdRepo : create
activate ProdRepo
deactivate RF

deactivate ProdRepo
CTRL -> ProdRepo : findByOrderId()
activate ProdRepo

deactivate ProdRepo

CTRL -> PORd : changeOrderStatus= changeOrderStatus()
activate PORd
deactivate ProdRepo
deactivate PORd
CTRL -> ProdRepo : save()

CTRL - -> UI :  getOrder
deactivate CTRL

UI - -> SC :shows all data
deactivate UI
deactivate ProdS
deactivate UI

SC -> UI : confirms the data

activate UI
UI - -> SC : informs operation success
deactivate UI

deactivate UI
deactivate SC

@enduml

@startuml
autonumber
actor "Sales Clerk" as SC
participant ":OrdersDispatchedUI" as UI <<presentation>>
participant ":OrdersDispatchedController" as CTRL <<application>>
participant ":ProductOrderService" as ProdS <<service>>
participant ":ProductOrder" as PORd <<domain>>
participant "PersistenceContext" as PC <<persistence>>
participant "RepositoryFactory" as RF <<factory>>
database "ProductOrderRepository" as ProdRepo <<repository>>

activate SC

SC -> UI : asks to view the list of previous orders made
activate UI

UI -> CTRL : findAllOrders()
activate CTRL
CTRL -> PC : repositories()

activate PC
PC -> RF : create
deactivate PC
activate RF
RF -> ProdRepo : create
deactivate RF
activate ProdRepo
deactivate ProdRepo
CTRL -> ProdRepo : getOrders= getOrders()

deactivate ProdRepo

CTRL - -> UI :  List<ProductOrderDTO>
deactivate CTRL

UI - -> SC : shows list of orders
deactivate UI
SC -> UI : asks to see the ones with status: DISPATCHED
activate UI

UI -> CTRL : getOrderByStatus
activate CTRL
CTRL -> ProdS : getOrderByStatus= getOrderByStatus()
activate ProdS
CTRL - -> UI :  List<ProductOrderDTO>
deactivate CTRL
deactivate ProdS

UI - -> SC :  shows list of orders with that status
deactivate UI

SC -> UI : asks which of these orders you want to change the status
activate UI

UI -> CTRL : getOrderToModified
activate CTRL
CTRL -> PC : repositories()

activate PC
PC -> RF : create
deactivate PC
activate RF
RF -> ProdRepo : create
activate ProdRepo
deactivate RF

deactivate ProdRepo
CTRL -> ProdRepo : findByOrderId()
activate ProdRepo

deactivate ProdRepo

CTRL -> PORd : changeOrderStatus= changeOrderStatus()
activate PORd
deactivate ProdRepo
deactivate PORd
CTRL -> ProdRepo : save()

CTRL - -> UI :  getOrder
deactivate CTRL

UI - -> SC :shows all data
deactivate UI
deactivate ProdS
deactivate UI

SC -> UI : confirms the data

activate UI
UI - -> SC : informs operation success
deactivate UI

deactivate UI
deactivate SC

@enduml

PlantUML version 1.2022.4(Sat Apr 09 14:29:17 WEST 2022)
(GPL source distribution)
Java Runtime: OpenJDK Runtime Environment
JVM: OpenJDK 64-Bit Server VM
Default Encoding: UTF-8
Language: pt
Country: PT
--></g></svg>