<?xml version="1.0" encoding="UTF-8" standalone="no"?><svg xmlns="http://www.w3.org/2000/svg" xmlns:xlink="http://www.w3.org/1999/xlink" contentStyleType="text/css" height="574px" preserveAspectRatio="none" style="width:940px;height:574px;background:#FFFFFF;" version="1.1" viewBox="0 0 940 574" width="940px" zoomAndPan="magnify"><defs/><g><rect fill="#FFFFFF" height="35.3105" style="stroke:#181818;stroke-width:1.0;" width="10" x="285" y="432.7031"/><rect fill="#FFFFFF" height="100.9316" style="stroke:#181818;stroke-width:1.0;" width="10" x="419" y="113.5977"/><rect fill="#FFFFFF" height="319.1055" style="stroke:#181818;stroke-width:1.0;" width="10" x="553" y="185.2188"/><rect fill="#FFFFFF" height="71.6211" style="stroke:#181818;stroke-width:1.0;" width="10" x="811" y="302.4609"/><line style="stroke:#181818;stroke-width:0.5;stroke-dasharray:5.0,5.0;" x1="60" x2="60" y1="52.9766" y2="522.3242"/><line style="stroke:#181818;stroke-width:0.5;stroke-dasharray:5.0,5.0;" x1="177" x2="177" y1="52.9766" y2="522.3242"/><line style="stroke:#181818;stroke-width:0.5;stroke-dasharray:5.0,5.0;" x1="290" x2="290" y1="52.9766" y2="522.3242"/><line style="stroke:#181818;stroke-width:0.5;stroke-dasharray:5.0,5.0;" x1="424" x2="424" y1="52.9766" y2="522.3242"/><line style="stroke:#181818;stroke-width:0.5;stroke-dasharray:5.0,5.0;" x1="558" x2="558" y1="52.9766" y2="522.3242"/><line style="stroke:#181818;stroke-width:0.5;stroke-dasharray:5.0,5.0;" x1="689" x2="689" y1="52.9766" y2="522.3242"/><line style="stroke:#181818;stroke-width:0.5;stroke-dasharray:5.0,5.0;" x1="816" x2="816" y1="52.9766" y2="522.3242"/><rect fill="#E2E2F0" height="46.9766" rx="2.5" ry="2.5" style="stroke:#181818;stroke-width:0.5;" width="111" x="5" y="5"/><text fill="#000000" font-family="sans-serif" font-size="14" font-style="italic" lengthAdjust="spacing" textLength="51" x="35" y="25.5352">«client»</text><text fill="#000000" font-family="sans-serif" font-size="14" lengthAdjust="spacing" textLength="97" x="12" y="42.0234">BackofficeApp</text><rect fill="#E2E2F0" height="46.9766" rx="2.5" ry="2.5" style="stroke:#181818;stroke-width:0.5;" width="111" x="5" y="521.3242"/><text fill="#000000" font-family="sans-serif" font-size="14" font-style="italic" lengthAdjust="spacing" textLength="51" x="35" y="541.8594">«client»</text><text fill="#000000" font-family="sans-serif" font-size="14" lengthAdjust="spacing" textLength="97" x="12" y="558.3477">BackofficeApp</text><rect fill="#E2E2F0" height="30.4883" rx="2.5" ry="2.5" style="stroke:#181818;stroke-width:0.5;" width="103" x="126" y="21.4883"/><text fill="#000000" font-family="sans-serif" font-size="14" lengthAdjust="spacing" textLength="89" x="133" y="42.0234">AGVManager</text><rect fill="#E2E2F0" height="30.4883" rx="2.5" ry="2.5" style="stroke:#181818;stroke-width:0.5;" width="103" x="126" y="521.3242"/><text fill="#000000" font-family="sans-serif" font-size="14" lengthAdjust="spacing" textLength="89" x="133" y="541.8594">AGVManager</text><rect fill="#E2E2F0" height="30.4883" rx="2.5" ry="2.5" style="stroke:#181818;stroke-width:0.5;" width="102" x="239" y="21.4883"/><text fill="#000000" font-family="sans-serif" font-size="14" lengthAdjust="spacing" textLength="88" x="246" y="42.0234">OrderService</text><rect fill="#E2E2F0" height="30.4883" rx="2.5" ry="2.5" style="stroke:#181818;stroke-width:0.5;" width="102" x="239" y="521.3242"/><text fill="#000000" font-family="sans-serif" font-size="14" lengthAdjust="spacing" textLength="88" x="246" y="541.8594">OrderService</text><rect fill="#E2E2F0" height="30.4883" rx="2.5" ry="2.5" style="stroke:#181818;stroke-width:0.5;" width="146" x="351" y="21.4883"/><text fill="#000000" font-family="sans-serif" font-size="14" lengthAdjust="spacing" textLength="132" x="358" y="42.0234">AGVManagerServer</text><rect fill="#E2E2F0" height="30.4883" rx="2.5" ry="2.5" style="stroke:#181818;stroke-width:0.5;" width="146" x="351" y="521.3242"/><text fill="#000000" font-family="sans-serif" font-size="14" lengthAdjust="spacing" textLength="132" x="358" y="541.8594">AGVManagerServer</text><rect fill="#E2E2F0" height="46.9766" rx="2.5" ry="2.5" style="stroke:#181818;stroke-width:0.5;" width="102" x="507" y="5"/><text fill="#000000" font-family="sans-serif" font-size="14" font-style="italic" lengthAdjust="spacing" textLength="63" x="526.5" y="25.5352">«Thread»</text><text fill="#000000" font-family="sans-serif" font-size="14" lengthAdjust="spacing" textLength="88" x="514" y="42.0234">HandleClient</text><rect fill="#E2E2F0" height="46.9766" rx="2.5" ry="2.5" style="stroke:#181818;stroke-width:0.5;" width="102" x="507" y="521.3242"/><text fill="#000000" font-family="sans-serif" font-size="14" font-style="italic" lengthAdjust="spacing" textLength="63" x="526.5" y="541.8594">«Thread»</text><text fill="#000000" font-family="sans-serif" font-size="14" lengthAdjust="spacing" textLength="88" x="514" y="558.3477">HandleClient</text><rect fill="#E2E2F0" height="30.4883" rx="2.5" ry="2.5" style="stroke:#181818;stroke-width:0.5;" width="116" x="631" y="21.4883"/><text fill="#000000" font-family="sans-serif" font-size="14" lengthAdjust="spacing" textLength="102" x="638" y="42.0234">MessageParser</text><rect fill="#E2E2F0" height="30.4883" rx="2.5" ry="2.5" style="stroke:#181818;stroke-width:0.5;" width="116" x="631" y="521.3242"/><text fill="#000000" font-family="sans-serif" font-size="14" lengthAdjust="spacing" textLength="102" x="638" y="541.8594">MessageParser</text><rect fill="#E2E2F0" height="30.4883" rx="2.5" ry="2.5" style="stroke:#181818;stroke-width:0.5;" width="118" x="757" y="21.4883"/><text fill="#000000" font-family="sans-serif" font-size="14" lengthAdjust="spacing" textLength="104" x="764" y="42.0234">SPOMSProtocol</text><rect fill="#E2E2F0" height="30.4883" rx="2.5" ry="2.5" style="stroke:#181818;stroke-width:0.5;" width="118" x="757" y="521.3242"/><text fill="#000000" font-family="sans-serif" font-size="14" lengthAdjust="spacing" textLength="104" x="764" y="541.8594">SPOMSProtocol</text><rect fill="#FFFFFF" height="35.3105" style="stroke:#181818;stroke-width:1.0;" width="10" x="285" y="432.7031"/><rect fill="#FFFFFF" height="100.9316" style="stroke:#181818;stroke-width:1.0;" width="10" x="419" y="113.5977"/><rect fill="#FFFFFF" height="319.1055" style="stroke:#181818;stroke-width:1.0;" width="10" x="553" y="185.2188"/><rect fill="#FFFFFF" height="71.6211" style="stroke:#181818;stroke-width:1.0;" width="10" x="811" y="302.4609"/><polygon fill="#181818" points="412,80.2871,422,84.2871,412,88.2871,416,84.2871" style="stroke:#181818;stroke-width:1.0;"/><line style="stroke:#181818;stroke-width:1.0;" x1="177.5" x2="418" y1="84.2871" y2="84.2871"/><text fill="#000000" font-family="sans-serif" font-size="13" font-weight="bold" lengthAdjust="spacing" textLength="9" x="184.5" y="79.5449">1</text><text fill="#000000" font-family="sans-serif" font-size="13" lengthAdjust="spacing" textLength="33" x="197.5" y="79.5449">new()</text><polygon fill="#181818" points="407,109.5977,417,113.5977,407,117.5977,411,113.5977" style="stroke:#181818;stroke-width:1.0;"/><line style="stroke:#181818;stroke-width:1.0;" x1="177.5" x2="413" y1="113.5977" y2="113.5977"/><text fill="#000000" font-family="sans-serif" font-size="13" font-weight="bold" lengthAdjust="spacing" textLength="9" x="184.5" y="108.8555">2</text><text fill="#000000" font-family="sans-serif" font-size="13" lengthAdjust="spacing" textLength="37" x="197.5" y="108.8555">start()</text><line style="stroke:#181818;stroke-width:1.0;" x1="429" x2="471" y1="142.9082" y2="142.9082"/><line style="stroke:#181818;stroke-width:1.0;" x1="471" x2="471" y1="142.9082" y2="155.9082"/><line style="stroke:#181818;stroke-width:1.0;" x1="430" x2="471" y1="155.9082" y2="155.9082"/><polygon fill="#181818" points="440,151.9082,430,155.9082,440,159.9082,436,155.9082" style="stroke:#181818;stroke-width:1.0;"/><text fill="#000000" font-family="sans-serif" font-size="13" font-weight="bold" lengthAdjust="spacing" textLength="9" x="436" y="138.166">3</text><text fill="#000000" font-family="sans-serif" font-size="13" lengthAdjust="spacing" textLength="41" x="449" y="138.166">accept</text><polygon fill="#181818" points="407,181.2188,417,185.2188,407,189.2188,411,185.2188" style="stroke:#181818;stroke-width:1.0;"/><line style="stroke:#181818;stroke-width:1.0;stroke-dasharray:2.0,2.0;" x1="60.5" x2="413" y1="185.2188" y2="185.2188"/><text fill="#000000" font-family="sans-serif" font-size="13" font-weight="bold" lengthAdjust="spacing" textLength="9" x="67.5" y="180.4766">4</text><text fill="#000000" font-family="sans-serif" font-size="13" lengthAdjust="spacing" textLength="47" x="80.5" y="180.4766">request</text><polygon fill="#181818" points="541,210.5293,551,214.5293,541,218.5293,545,214.5293" style="stroke:#181818;stroke-width:1.0;"/><line style="stroke:#181818;stroke-width:1.0;" x1="424" x2="547" y1="214.5293" y2="214.5293"/><text fill="#000000" font-family="sans-serif" font-size="13" font-weight="bold" lengthAdjust="spacing" textLength="9" x="431" y="209.7871">5</text><text fill="#000000" font-family="sans-serif" font-size="13" lengthAdjust="spacing" textLength="29" x="444" y="209.7871">start</text><polygon fill="#181818" points="677,239.8398,687,243.8398,677,247.8398,681,243.8398" style="stroke:#181818;stroke-width:1.0;"/><line style="stroke:#181818;stroke-width:1.0;" x1="563" x2="683" y1="243.8398" y2="243.8398"/><text fill="#000000" font-family="sans-serif" font-size="13" font-weight="bold" lengthAdjust="spacing" textLength="9" x="570" y="239.0977">6</text><text fill="#000000" font-family="sans-serif" font-size="13" lengthAdjust="spacing" textLength="89" x="583" y="239.0977">parse(request)</text><polygon fill="#181818" points="804,269.1504,814,273.1504,804,277.1504,808,273.1504" style="stroke:#181818;stroke-width:1.0;"/><line style="stroke:#181818;stroke-width:1.0;" x1="689" x2="810" y1="273.1504" y2="273.1504"/><text fill="#000000" font-family="sans-serif" font-size="13" font-weight="bold" lengthAdjust="spacing" textLength="9" x="696" y="268.4082">7</text><text fill="#000000" font-family="sans-serif" font-size="13" lengthAdjust="spacing" textLength="25" x="709" y="268.4082">new</text><polygon fill="#181818" points="799,298.4609,809,302.4609,799,306.4609,803,302.4609" style="stroke:#181818;stroke-width:1.0;"/><line style="stroke:#181818;stroke-width:1.0;" x1="563" x2="805" y1="302.4609" y2="302.4609"/><text fill="#000000" font-family="sans-serif" font-size="13" font-weight="bold" lengthAdjust="spacing" textLength="9" x="570" y="297.7188">8</text><text fill="#000000" font-family="sans-serif" font-size="13" lengthAdjust="spacing" textLength="49" x="583" y="297.7188">execute</text><line style="stroke:#181818;stroke-width:1.0;" x1="821" x2="863" y1="331.7715" y2="331.7715"/><line style="stroke:#181818;stroke-width:1.0;" x1="863" x2="863" y1="331.7715" y2="344.7715"/><line style="stroke:#181818;stroke-width:1.0;" x1="822" x2="863" y1="344.7715" y2="344.7715"/><polygon fill="#181818" points="832,340.7715,822,344.7715,832,348.7715,828,344.7715" style="stroke:#181818;stroke-width:1.0;"/><text fill="#000000" font-family="sans-serif" font-size="13" font-weight="bold" lengthAdjust="spacing" textLength="9" x="828" y="327.0293">9</text><text fill="#000000" font-family="sans-serif" font-size="13" lengthAdjust="spacing" textLength="92" x="841" y="327.0293">buildResponse</text><polygon fill="#181818" points="574,370.082,564,374.082,574,378.082,570,374.082" style="stroke:#181818;stroke-width:1.0;"/><line style="stroke:#181818;stroke-width:1.0;stroke-dasharray:2.0,2.0;" x1="568" x2="815" y1="374.082" y2="374.082"/><text fill="#000000" font-family="sans-serif" font-size="13" font-weight="bold" lengthAdjust="spacing" textLength="18" x="580" y="369.3398">10</text><text fill="#000000" font-family="sans-serif" font-size="13" lengthAdjust="spacing" textLength="57" x="602" y="369.3398">response</text><polygon fill="#181818" points="188.5,399.3926,178.5,403.3926,188.5,407.3926,184.5,403.3926" style="stroke:#181818;stroke-width:1.0;"/><line style="stroke:#181818;stroke-width:1.0;stroke-dasharray:2.0,2.0;" x1="182.5" x2="552" y1="403.3926" y2="403.3926"/><text fill="#000000" font-family="sans-serif" font-size="13" font-weight="bold" lengthAdjust="spacing" textLength="18" x="194.5" y="398.6504">11</text><text fill="#000000" font-family="sans-serif" font-size="13" lengthAdjust="spacing" textLength="57" x="216.5" y="398.6504">response</text><polygon fill="#181818" points="273,428.7031,283,432.7031,273,436.7031,277,432.7031" style="stroke:#181818;stroke-width:1.0;"/><line style="stroke:#181818;stroke-width:1.0;" x1="177.5" x2="279" y1="432.7031" y2="432.7031"/><text fill="#000000" font-family="sans-serif" font-size="13" font-weight="bold" lengthAdjust="spacing" textLength="18" x="184.5" y="427.9609">12</text><text fill="#000000" font-family="sans-serif" font-size="13" lengthAdjust="spacing" textLength="44" x="206.5" y="427.9609">analise</text><line style="stroke:#181818;stroke-width:1.0;" x1="295" x2="337" y1="467.0137" y2="467.0137"/><line style="stroke:#181818;stroke-width:1.0;" x1="337" x2="337" y1="467.0137" y2="480.0137"/><line style="stroke:#181818;stroke-width:1.0;" x1="290" x2="337" y1="480.0137" y2="480.0137"/><polygon fill="#181818" points="300,476.0137,290,480.0137,300,484.0137,296,480.0137" style="stroke:#181818;stroke-width:1.0;"/><text fill="#000000" font-family="sans-serif" font-size="13" font-weight="bold" lengthAdjust="spacing" textLength="18" x="302" y="462.2715">13</text><text fill="#000000" font-family="sans-serif" font-size="13" lengthAdjust="spacing" textLength="82" x="324" y="462.2715">updateStatus</text><polygon fill="#181818" points="71.5,500.3242,61.5,504.3242,71.5,508.3242,67.5,504.3242" style="stroke:#181818;stroke-width:1.0;"/><line style="stroke:#181818;stroke-width:1.0;stroke-dasharray:2.0,2.0;" x1="65.5" x2="557" y1="504.3242" y2="504.3242"/><text fill="#000000" font-family="sans-serif" font-size="13" font-weight="bold" lengthAdjust="spacing" textLength="18" x="77.5" y="499.582">14</text><text fill="#000000" font-family="sans-serif" font-size="13" lengthAdjust="spacing" textLength="57" x="99.5" y="499.582">response</text><!--MD5=[1d6db9aeded640a92b56132f6bcffb4b]
@startuml
autonumber
'hide footbox

participant BackofficeApp <<client>>
participant "AGVManager" as AM
participant "OrderService" as OS
participant "AGVManagerServer" as AMS
participant HandleClient <<Thread>>
participant "MessageParser" as MP
participant "SPOMSProtocol" as SP


AM -> AMS : new()

AM -> AMS : start()
activate AMS

AMS -> AMS : accept

BackofficeApp - -> AMS: request
activate HandleClient

AMS -> HandleClient : start
deactivate AMS

HandleClient -> MP : parse(request)

MP -> SP : new

HandleClient -> SP : execute
activate SP

SP -> SP : buildResponse

SP - -> HandleClient : response
deactivate SP

HandleClient - -> AM : response

AM -> OS : analise
activate OS

OS -> OS : updateStatus
deactivate OS

HandleClient - -> BackofficeApp : response
deactivate HandleClient







@enduml

@startuml
autonumber

participant BackofficeApp <<client>>
participant "AGVManager" as AM
participant "OrderService" as OS
participant "AGVManagerServer" as AMS
participant HandleClient <<Thread>>
participant "MessageParser" as MP
participant "SPOMSProtocol" as SP


AM -> AMS : new()

AM -> AMS : start()
activate AMS

AMS -> AMS : accept

BackofficeApp - -> AMS: request
activate HandleClient

AMS -> HandleClient : start
deactivate AMS

HandleClient -> MP : parse(request)

MP -> SP : new

HandleClient -> SP : execute
activate SP

SP -> SP : buildResponse

SP - -> HandleClient : response
deactivate SP

HandleClient - -> AM : response

AM -> OS : analise
activate OS

OS -> OS : updateStatus
deactivate OS

HandleClient - -> BackofficeApp : response
deactivate HandleClient







@enduml

PlantUML version 1.2022.4(Sat Apr 09 14:29:17 WEST 2022)
(GPL source distribution)
Java Runtime: OpenJDK Runtime Environment
JVM: OpenJDK 64-Bit Server VM
Default Encoding: UTF-8
Language: pt
Country: PT
--></g></svg>