<?xml version="1.0" encoding="UTF-8" standalone="no"?><svg xmlns="http://www.w3.org/2000/svg" xmlns:xlink="http://www.w3.org/1999/xlink" contentStyleType="text/css" height="876px" preserveAspectRatio="none" style="width:1265px;height:876px;background:#FFFFFF;" version="1.1" viewBox="0 0 1265 876" width="1265.6px" zoomAndPan="magnify"><defs/><g><rect fill="#FFFFFF" height="722.0375" style="stroke:#181818;stroke-width:0.8000000000000002;" width="8" x="58" y="74.0875"/><rect fill="#FFFFFF" height="169.9688" style="stroke:#181818;stroke-width:0.8000000000000002;" width="8" x="344.4" y="91.9688"/><rect fill="#FFFFFF" height="97.125" style="stroke:#181818;stroke-width:0.8000000000000002;" width="8" x="344.4" y="286.2188"/><rect fill="#FFFFFF" height="169.9688" style="stroke:#181818;stroke-width:0.8000000000000002;" width="8" x="344.4" y="407.625"/><rect fill="#FFFFFF" height="145.6875" style="stroke:#181818;stroke-width:0.8000000000000002;" width="8" x="344.4" y="601.875"/><rect fill="#FFFFFF" height="24.2813" style="stroke:#181818;stroke-width:0.8000000000000002;" width="8" x="344.4" y="771.8438"/><rect fill="#FFFFFF" height="121.4063" style="stroke:#181818;stroke-width:0.8000000000000002;" width="8" x="486.8" y="116.25"/><rect fill="#FFFFFF" height="48.5625" style="stroke:#181818;stroke-width:0.8000000000000002;" width="8" x="486.8" y="310.5"/><rect fill="#FFFFFF" height="121.4063" style="stroke:#181818;stroke-width:0.8000000000000002;" width="8" x="486.8" y="431.9063"/><rect fill="#FFFFFF" height="97.125" style="stroke:#181818;stroke-width:0.8000000000000002;" width="8" x="486.8" y="626.1563"/><rect fill="#FFFFFF" height="24.2813" style="stroke:#181818;stroke-width:0.8000000000000002;" width="8" x="628" y="140.5313"/><rect fill="#FFFFFF" height="24.2813" style="stroke:#181818;stroke-width:0.8000000000000002;" width="8" x="628" y="456.1875"/><rect fill="#FFFFFF" height="24.2813" style="stroke:#181818;stroke-width:0.8000000000000002;" width="8" x="745.6" y="164.8125"/><rect fill="#FFFFFF" height="24.2813" style="stroke:#181818;stroke-width:0.8000000000000002;" width="8" x="745.6" y="480.4688"/><rect fill="#FFFFFF" height="24.2813" style="stroke:#181818;stroke-width:0.8000000000000002;" width="8" x="876" y="189.0938"/><rect fill="#FFFFFF" height="24.2813" style="stroke:#181818;stroke-width:0.8000000000000002;" width="8" x="876" y="334.7813"/><rect fill="#FFFFFF" height="48.5625" style="stroke:#181818;stroke-width:0.8000000000000002;" width="8" x="998.8" y="504.75"/><rect fill="#FFFFFF" height="24.2813" style="stroke:#181818;stroke-width:0.8000000000000002;" width="8" x="998.8" y="650.4375"/><rect fill="#FFFFFF" height="48.5625" style="stroke:#181818;stroke-width:0.8000000000000002;" width="8" x="1113.2" y="699"/><rect fill="#FFFFFF" height="24.2813" style="stroke:#181818;stroke-width:0.8000000000000002;" width="8" x="1219.2" y="674.7188"/><line style="stroke:#181818;stroke-width:0.4000000000000001;stroke-dasharray:5.0,5.0;" x1="61.6" x2="61.6" y1="66.0875" y2="810.525"/><line style="stroke:#181818;stroke-width:0.4000000000000001;stroke-dasharray:5.0,5.0;" x1="348" x2="348" y1="66.0875" y2="810.525"/><line style="stroke:#181818;stroke-width:0.4000000000000001;stroke-dasharray:5.0,5.0;" x1="490.4" x2="490.4" y1="66.0875" y2="810.525"/><line style="stroke:#181818;stroke-width:0.4000000000000001;stroke-dasharray:5.0,5.0;" x1="632" x2="632" y1="66.0875" y2="810.525"/><line style="stroke:#181818;stroke-width:0.4000000000000001;stroke-dasharray:5.0,5.0;" x1="749.6" x2="749.6" y1="66.0875" y2="810.525"/><line style="stroke:#181818;stroke-width:0.4000000000000001;stroke-dasharray:5.0,5.0;" x1="880" x2="880" y1="66.0875" y2="810.525"/><line style="stroke:#181818;stroke-width:0.4000000000000001;stroke-dasharray:5.0,5.0;" x1="1002.4" x2="1002.4" y1="66.0875" y2="810.525"/><line style="stroke:#181818;stroke-width:0.4000000000000001;stroke-dasharray:5.0,5.0;" x1="1116.8" x2="1116.8" y1="66.0875" y2="810.525"/><line style="stroke:#181818;stroke-width:0.4000000000000001;stroke-dasharray:5.0,5.0;" x1="1223.2" x2="1223.2" y1="66.0875" y2="810.525"/><text fill="#000000" font-family="sans-serif" font-size="11.2" lengthAdjust="spacing" textLength="111.2" x="4" y="63.6266">Warehouse Employee</text><ellipse cx="62" cy="10.8" fill="#E2E2F0" rx="6.4" ry="6.4" style="stroke:#181818;stroke-width:0.4000000000000001;"/><path d="M62,17.2 L62,38.8 M51.6,23.6 L72.4,23.6 M62,38.8 L51.6,50.8 M62,38.8 L72.4,50.8 " fill="none" style="stroke:#181818;stroke-width:0.4000000000000001;"/><text fill="#000000" font-family="sans-serif" font-size="11.2" lengthAdjust="spacing" textLength="111.2" x="4" y="821.3516">Warehouse Employee</text><ellipse cx="62" cy="830.6125" fill="#E2E2F0" rx="6.4" ry="6.4" style="stroke:#181818;stroke-width:0.4000000000000001;"/><path d="M62,837.0125 L62,858.6125 M51.6,843.4125 L72.4,843.4125 M62,858.6125 L51.6,870.6125 M62,858.6125 L72.4,870.6125 " fill="none" style="stroke:#181818;stroke-width:0.4000000000000001;"/><rect fill="#E2E2F0" height="25.2875" rx="2" ry="2" style="stroke:#181818;stroke-width:0.4000000000000001;" width="114.4" x="291.2" y="40"/><text fill="#000000" font-family="sans-serif" font-size="11.2" lengthAdjust="spacing" textLength="103.2" x="296.8" y="57.2266">:AGVToPrepOrderUI</text><rect fill="#E2E2F0" height="25.2875" rx="2" ry="2" style="stroke:#181818;stroke-width:0.4000000000000001;" width="114.4" x="291.2" y="809.725"/><text fill="#000000" font-family="sans-serif" font-size="11.2" lengthAdjust="spacing" textLength="103.2" x="296.8" y="826.9516">:AGVToPrepOrderUI</text><rect fill="#E2E2F0" height="25.2875" rx="2" ry="2" style="stroke:#181818;stroke-width:0.4000000000000001;" width="154.4" x="413.6" y="40"/><text fill="#000000" font-family="sans-serif" font-size="11.2" lengthAdjust="spacing" textLength="143.2" x="419.2" y="57.2266">:AGVToPrepOrderController</text><rect fill="#E2E2F0" height="25.2875" rx="2" ry="2" style="stroke:#181818;stroke-width:0.4000000000000001;" width="154.4" x="413.6" y="809.725"/><text fill="#000000" font-family="sans-serif" font-size="11.2" lengthAdjust="spacing" textLength="143.2" x="419.2" y="826.9516">:AGVToPrepOrderController</text><rect fill="#E2E2F0" height="25.2875" rx="2" ry="2" style="stroke:#181818;stroke-width:0.4000000000000001;" width="112" x="576" y="40"/><text fill="#000000" font-family="sans-serif" font-size="11.2" lengthAdjust="spacing" textLength="100.8" x="581.6" y="57.2266">:PersistenceContext</text><rect fill="#E2E2F0" height="25.2875" rx="2" ry="2" style="stroke:#181818;stroke-width:0.4000000000000001;" width="112" x="576" y="809.725"/><text fill="#000000" font-family="sans-serif" font-size="11.2" lengthAdjust="spacing" textLength="100.8" x="581.6" y="826.9516">:PersistenceContext</text><rect fill="#E2E2F0" height="25.2875" rx="2" ry="2" style="stroke:#181818;stroke-width:0.4000000000000001;" width="107.2" x="696" y="40"/><text fill="#000000" font-family="sans-serif" font-size="11.2" lengthAdjust="spacing" textLength="96" x="701.6" y="57.2266">:RepositoryFactory</text><rect fill="#E2E2F0" height="25.2875" rx="2" ry="2" style="stroke:#181818;stroke-width:0.4000000000000001;" width="107.2" x="696" y="809.725"/><text fill="#000000" font-family="sans-serif" font-size="11.2" lengthAdjust="spacing" textLength="96" x="701.6" y="826.9516">:RepositoryFactory</text><rect fill="#E2E2F0" height="25.2875" rx="2" ry="2" style="stroke:#181818;stroke-width:0.4000000000000001;" width="137.6" x="811.2" y="40"/><text fill="#000000" font-family="sans-serif" font-size="11.2" lengthAdjust="spacing" textLength="126.4" x="816.8" y="57.2266">:ProductOrderRepository</text><rect fill="#E2E2F0" height="25.2875" rx="2" ry="2" style="stroke:#181818;stroke-width:0.4000000000000001;" width="137.6" x="811.2" y="809.725"/><text fill="#000000" font-family="sans-serif" font-size="11.2" lengthAdjust="spacing" textLength="126.4" x="816.8" y="826.9516">:ProductOrderRepository</text><rect fill="#E2E2F0" height="25.2875" rx="2" ry="2" style="stroke:#181818;stroke-width:0.4000000000000001;" width="92" x="956.8" y="40"/><text fill="#000000" font-family="sans-serif" font-size="11.2" lengthAdjust="spacing" textLength="80.8" x="962.4" y="57.2266">:AGVRepository</text><rect fill="#E2E2F0" height="25.2875" rx="2" ry="2" style="stroke:#181818;stroke-width:0.4000000000000001;" width="92" x="956.8" y="809.725"/><text fill="#000000" font-family="sans-serif" font-size="11.2" lengthAdjust="spacing" textLength="80.8" x="962.4" y="826.9516">:AGVRepository</text><rect fill="#E2E2F0" height="25.2875" rx="2" ry="2" style="stroke:#181818;stroke-width:0.4000000000000001;" width="120.8" x="1056.8" y="40"/><text fill="#000000" font-family="sans-serif" font-size="11.2" lengthAdjust="spacing" textLength="109.6" x="1062.4" y="57.2266">:ProductOrderService</text><rect fill="#E2E2F0" height="25.2875" rx="2" ry="2" style="stroke:#181818;stroke-width:0.4000000000000001;" width="120.8" x="1056.8" y="809.725"/><text fill="#000000" font-family="sans-serif" font-size="11.2" lengthAdjust="spacing" textLength="109.6" x="1062.4" y="826.9516">:ProductOrderService</text><rect fill="#E2E2F0" height="25.2875" rx="2" ry="2" style="stroke:#181818;stroke-width:0.4000000000000001;" width="75.2" x="1185.6" y="40"/><text fill="#000000" font-family="sans-serif" font-size="11.2" lengthAdjust="spacing" textLength="64" x="1191.2" y="57.2266">:AGVService</text><rect fill="#E2E2F0" height="25.2875" rx="2" ry="2" style="stroke:#181818;stroke-width:0.4000000000000001;" width="75.2" x="1185.6" y="809.725"/><text fill="#000000" font-family="sans-serif" font-size="11.2" lengthAdjust="spacing" textLength="64" x="1191.2" y="826.9516">:AGVService</text><rect fill="#FFFFFF" height="722.0375" style="stroke:#181818;stroke-width:0.8000000000000002;" width="8" x="58" y="74.0875"/><rect fill="#FFFFFF" height="169.9688" style="stroke:#181818;stroke-width:0.8000000000000002;" width="8" x="344.4" y="91.9688"/><rect fill="#FFFFFF" height="97.125" style="stroke:#181818;stroke-width:0.8000000000000002;" width="8" x="344.4" y="286.2188"/><rect fill="#FFFFFF" height="169.9688" style="stroke:#181818;stroke-width:0.8000000000000002;" width="8" x="344.4" y="407.625"/><rect fill="#FFFFFF" height="145.6875" style="stroke:#181818;stroke-width:0.8000000000000002;" width="8" x="344.4" y="601.875"/><rect fill="#FFFFFF" height="24.2813" style="stroke:#181818;stroke-width:0.8000000000000002;" width="8" x="344.4" y="771.8438"/><rect fill="#FFFFFF" height="121.4063" style="stroke:#181818;stroke-width:0.8000000000000002;" width="8" x="486.8" y="116.25"/><rect fill="#FFFFFF" height="48.5625" style="stroke:#181818;stroke-width:0.8000000000000002;" width="8" x="486.8" y="310.5"/><rect fill="#FFFFFF" height="121.4063" style="stroke:#181818;stroke-width:0.8000000000000002;" width="8" x="486.8" y="431.9063"/><rect fill="#FFFFFF" height="97.125" style="stroke:#181818;stroke-width:0.8000000000000002;" width="8" x="486.8" y="626.1563"/><rect fill="#FFFFFF" height="24.2813" style="stroke:#181818;stroke-width:0.8000000000000002;" width="8" x="628" y="140.5313"/><rect fill="#FFFFFF" height="24.2813" style="stroke:#181818;stroke-width:0.8000000000000002;" width="8" x="628" y="456.1875"/><rect fill="#FFFFFF" height="24.2813" style="stroke:#181818;stroke-width:0.8000000000000002;" width="8" x="745.6" y="164.8125"/><rect fill="#FFFFFF" height="24.2813" style="stroke:#181818;stroke-width:0.8000000000000002;" width="8" x="745.6" y="480.4688"/><rect fill="#FFFFFF" height="24.2813" style="stroke:#181818;stroke-width:0.8000000000000002;" width="8" x="876" y="189.0938"/><rect fill="#FFFFFF" height="24.2813" style="stroke:#181818;stroke-width:0.8000000000000002;" width="8" x="876" y="334.7813"/><rect fill="#FFFFFF" height="48.5625" style="stroke:#181818;stroke-width:0.8000000000000002;" width="8" x="998.8" y="504.75"/><rect fill="#FFFFFF" height="24.2813" style="stroke:#181818;stroke-width:0.8000000000000002;" width="8" x="998.8" y="650.4375"/><rect fill="#FFFFFF" height="48.5625" style="stroke:#181818;stroke-width:0.8000000000000002;" width="8" x="1113.2" y="699"/><rect fill="#FFFFFF" height="24.2813" style="stroke:#181818;stroke-width:0.8000000000000002;" width="8" x="1219.2" y="674.7188"/><polygon fill="#181818" points="334.8,88.7688,342.8,91.9688,334.8,95.1688,338,91.9688" style="stroke:#181818;stroke-width:0.8000000000000002;"/><line style="stroke:#181818;stroke-width:0.8000000000000002;" x1="66" x2="339.6" y1="91.9688" y2="91.9688"/><text fill="#000000" font-family="sans-serif" font-size="10.4" font-weight="bold" lengthAdjust="spacing" textLength="5.6" x="71.6" y="88.0836">1</text><text fill="#000000" font-family="sans-serif" font-size="10.4" lengthAdjust="spacing" textLength="204" x="80.4" y="88.0836">asks to view the list of previous orders made</text><polygon fill="#181818" points="477.2,113.05,485.2,116.25,477.2,119.45,480.4,116.25" style="stroke:#181818;stroke-width:0.8000000000000002;"/><line style="stroke:#181818;stroke-width:0.8000000000000002;" x1="352.4" x2="482" y1="116.25" y2="116.25"/><text fill="#000000" font-family="sans-serif" font-size="10.4" font-weight="bold" lengthAdjust="spacing" textLength="5.6" x="358" y="112.3648">2</text><text fill="#000000" font-family="sans-serif" font-size="10.4" lengthAdjust="spacing" textLength="45.6" x="366.8" y="112.3648">getOrders</text><polygon fill="#181818" points="618.4,137.3313,626.4,140.5313,618.4,143.7313,621.6,140.5313" style="stroke:#181818;stroke-width:0.8000000000000002;"/><line style="stroke:#181818;stroke-width:0.8000000000000002;" x1="494.8" x2="623.2" y1="140.5313" y2="140.5313"/><text fill="#000000" font-family="sans-serif" font-size="10.4" font-weight="bold" lengthAdjust="spacing" textLength="5.6" x="500.4" y="136.6461">3</text><text fill="#000000" font-family="sans-serif" font-size="10.4" lengthAdjust="spacing" textLength="60" x="509.2" y="136.6461">repositories()</text><polygon fill="#181818" points="736,161.6125,744,164.8125,736,168.0125,739.2,164.8125" style="stroke:#181818;stroke-width:0.8000000000000002;"/><line style="stroke:#181818;stroke-width:0.8000000000000002;" x1="632" x2="740.8" y1="164.8125" y2="164.8125"/><text fill="#000000" font-family="sans-serif" font-size="10.4" font-weight="bold" lengthAdjust="spacing" textLength="5.6" x="637.6" y="160.9273">4</text><text fill="#000000" font-family="sans-serif" font-size="10.4" lengthAdjust="spacing" textLength="28.8" x="646.4" y="160.9273">create</text><polygon fill="#181818" points="866.4,185.8938,874.4,189.0938,866.4,192.2938,869.6,189.0938" style="stroke:#181818;stroke-width:0.8000000000000002;"/><line style="stroke:#181818;stroke-width:0.8000000000000002;" x1="749.6" x2="871.2" y1="189.0938" y2="189.0938"/><text fill="#000000" font-family="sans-serif" font-size="10.4" font-weight="bold" lengthAdjust="spacing" textLength="5.6" x="755.2" y="185.2086">5</text><text fill="#000000" font-family="sans-serif" font-size="10.4" lengthAdjust="spacing" textLength="28.8" x="764" y="185.2086">create</text><polygon fill="#181818" points="870.4,210.175,878.4,213.375,870.4,216.575,873.6,213.375" style="stroke:#181818;stroke-width:0.8000000000000002;"/><line style="stroke:#181818;stroke-width:0.8000000000000002;" x1="494.8" x2="875.2" y1="213.375" y2="213.375"/><text fill="#000000" font-family="sans-serif" font-size="10.4" font-weight="bold" lengthAdjust="spacing" textLength="5.6" x="500.4" y="209.4898">6</text><text fill="#000000" font-family="sans-serif" font-size="10.4" lengthAdjust="spacing" textLength="107.2" x="509.2" y="209.4898">getOrders= getOrders()</text><polygon fill="#181818" points="361.2,234.4563,353.2,237.6563,361.2,240.8563,358,237.6563" style="stroke:#181818;stroke-width:0.8000000000000002;"/><line style="stroke:#181818;stroke-width:0.8000000000000002;stroke-dasharray:2.0,2.0;" x1="356.4" x2="490" y1="237.6563" y2="237.6563"/><text fill="#000000" font-family="sans-serif" font-size="10.4" font-weight="bold" lengthAdjust="spacing" textLength="5.6" x="366" y="233.7711">7</text><text fill="#000000" font-family="sans-serif" font-size="10.4" lengthAdjust="spacing" textLength="45.6" x="374.8" y="233.7711">getOrders</text><polygon fill="#181818" points="74.8,258.7375,66.8,261.9375,74.8,265.1375,71.6,261.9375" style="stroke:#181818;stroke-width:0.8000000000000002;"/><line style="stroke:#181818;stroke-width:0.8000000000000002;stroke-dasharray:2.0,2.0;" x1="70" x2="347.6" y1="261.9375" y2="261.9375"/><text fill="#000000" font-family="sans-serif" font-size="10.4" font-weight="bold" lengthAdjust="spacing" textLength="5.6" x="79.6" y="258.0523">8</text><text fill="#000000" font-family="sans-serif" font-size="10.4" lengthAdjust="spacing" textLength="89.6" x="88.4" y="258.0523">shows list of orders</text><polygon fill="#181818" points="334.8,283.0188,342.8,286.2188,334.8,289.4188,338,286.2188" style="stroke:#181818;stroke-width:0.8000000000000002;"/><line style="stroke:#181818;stroke-width:0.8000000000000002;" x1="66" x2="339.6" y1="286.2188" y2="286.2188"/><text fill="#000000" font-family="sans-serif" font-size="10.4" font-weight="bold" lengthAdjust="spacing" textLength="5.6" x="71.6" y="282.3336">9</text><text fill="#000000" font-family="sans-serif" font-size="10.4" lengthAdjust="spacing" textLength="254.4" x="80.4" y="282.3336">asks to see the ones with status: TO_BE_PREPARED</text><polygon fill="#181818" points="477.2,307.3,485.2,310.5,477.2,313.7,480.4,310.5" style="stroke:#181818;stroke-width:0.8000000000000002;"/><line style="stroke:#181818;stroke-width:0.8000000000000002;" x1="352.4" x2="482" y1="310.5" y2="310.5"/><text fill="#000000" font-family="sans-serif" font-size="10.4" font-weight="bold" lengthAdjust="spacing" textLength="11.2" x="358" y="306.6148">10</text><text fill="#000000" font-family="sans-serif" font-size="10.4" lengthAdjust="spacing" textLength="83.2" x="372.4" y="306.6148">getOrderByStatus</text><polygon fill="#181818" points="866.4,331.5813,874.4,334.7813,866.4,337.9813,869.6,334.7813" style="stroke:#181818;stroke-width:0.8000000000000002;"/><line style="stroke:#181818;stroke-width:0.8000000000000002;" x1="494.8" x2="871.2" y1="334.7813" y2="334.7813"/><text fill="#000000" font-family="sans-serif" font-size="10.4" font-weight="bold" lengthAdjust="spacing" textLength="11.2" x="500.4" y="330.8961">11</text><text fill="#000000" font-family="sans-serif" font-size="10.4" lengthAdjust="spacing" textLength="182.4" x="514.8" y="330.8961">getOrderByStatus= getOrderByStatus()</text><polygon fill="#181818" points="361.2,355.8625,353.2,359.0625,361.2,362.2625,358,359.0625" style="stroke:#181818;stroke-width:0.8000000000000002;"/><line style="stroke:#181818;stroke-width:0.8000000000000002;stroke-dasharray:2.0,2.0;" x1="356.4" x2="490" y1="359.0625" y2="359.0625"/><text fill="#000000" font-family="sans-serif" font-size="10.4" font-weight="bold" lengthAdjust="spacing" textLength="11.2" x="366" y="355.1773">12</text><text fill="#000000" font-family="sans-serif" font-size="10.4" lengthAdjust="spacing" textLength="83.2" x="380.4" y="355.1773">getOrderByStatus</text><polygon fill="#181818" points="74.8,380.1438,66.8,383.3438,74.8,386.5438,71.6,383.3438" style="stroke:#181818;stroke-width:0.8000000000000002;"/><line style="stroke:#181818;stroke-width:0.8000000000000002;stroke-dasharray:2.0,2.0;" x1="70" x2="347.6" y1="383.3438" y2="383.3438"/><text fill="#000000" font-family="sans-serif" font-size="10.4" font-weight="bold" lengthAdjust="spacing" textLength="11.2" x="79.6" y="379.4586">13</text><text fill="#000000" font-family="sans-serif" font-size="10.4" lengthAdjust="spacing" textLength="164" x="94" y="379.4586">shows list of orders with that status</text><polygon fill="#181818" points="334.8,404.425,342.8,407.625,334.8,410.825,338,407.625" style="stroke:#181818;stroke-width:0.8000000000000002;"/><line style="stroke:#181818;stroke-width:0.8000000000000002;" x1="66" x2="339.6" y1="407.625" y2="407.625"/><text fill="#000000" font-family="sans-serif" font-size="10.4" font-weight="bold" lengthAdjust="spacing" textLength="11.2" x="71.6" y="403.7398">14</text><text fill="#000000" font-family="sans-serif" font-size="10.4" lengthAdjust="spacing" textLength="184" x="86" y="403.7398">asks to see the AGVs that are available</text><polygon fill="#181818" points="477.2,428.7063,485.2,431.9063,477.2,435.1063,480.4,431.9063" style="stroke:#181818;stroke-width:0.8000000000000002;"/><line style="stroke:#181818;stroke-width:0.8000000000000002;" x1="352.4" x2="482" y1="431.9063" y2="431.9063"/><text fill="#000000" font-family="sans-serif" font-size="10.4" font-weight="bold" lengthAdjust="spacing" textLength="11.2" x="358" y="428.0211">15</text><text fill="#000000" font-family="sans-serif" font-size="10.4" lengthAdjust="spacing" textLength="42.4" x="372.4" y="428.0211">getAGVs</text><polygon fill="#181818" points="618.4,452.9875,626.4,456.1875,618.4,459.3875,621.6,456.1875" style="stroke:#181818;stroke-width:0.8000000000000002;"/><line style="stroke:#181818;stroke-width:0.8000000000000002;" x1="494.8" x2="623.2" y1="456.1875" y2="456.1875"/><text fill="#000000" font-family="sans-serif" font-size="10.4" font-weight="bold" lengthAdjust="spacing" textLength="11.2" x="500.4" y="452.3023">16</text><text fill="#000000" font-family="sans-serif" font-size="10.4" lengthAdjust="spacing" textLength="60" x="514.8" y="452.3023">repositories()</text><polygon fill="#181818" points="736,477.2688,744,480.4688,736,483.6688,739.2,480.4688" style="stroke:#181818;stroke-width:0.8000000000000002;"/><line style="stroke:#181818;stroke-width:0.8000000000000002;" x1="632" x2="740.8" y1="480.4688" y2="480.4688"/><text fill="#000000" font-family="sans-serif" font-size="10.4" font-weight="bold" lengthAdjust="spacing" textLength="11.2" x="637.6" y="476.5836">17</text><text fill="#000000" font-family="sans-serif" font-size="10.4" lengthAdjust="spacing" textLength="28.8" x="652" y="476.5836">create</text><polygon fill="#181818" points="989.2,501.55,997.2,504.75,989.2,507.95,992.4,504.75" style="stroke:#181818;stroke-width:0.8000000000000002;"/><line style="stroke:#181818;stroke-width:0.8000000000000002;" x1="749.6" x2="994" y1="504.75" y2="504.75"/><text fill="#000000" font-family="sans-serif" font-size="10.4" font-weight="bold" lengthAdjust="spacing" textLength="11.2" x="755.2" y="500.8648">18</text><text fill="#000000" font-family="sans-serif" font-size="10.4" lengthAdjust="spacing" textLength="28.8" x="769.6" y="500.8648">create</text><polygon fill="#181818" points="989.2,525.8313,997.2,529.0313,989.2,532.2313,992.4,529.0313" style="stroke:#181818;stroke-width:0.8000000000000002;"/><line style="stroke:#181818;stroke-width:0.8000000000000002;" x1="494.8" x2="994" y1="529.0313" y2="529.0313"/><text fill="#000000" font-family="sans-serif" font-size="10.4" font-weight="bold" lengthAdjust="spacing" textLength="11.2" x="500.4" y="525.1461">19</text><text fill="#000000" font-family="sans-serif" font-size="10.4" lengthAdjust="spacing" textLength="100.8" x="514.8" y="525.1461">getAGVs= getAGVs()</text><polygon fill="#181818" points="361.2,550.1125,353.2,553.3125,361.2,556.5125,358,553.3125" style="stroke:#181818;stroke-width:0.8000000000000002;"/><line style="stroke:#181818;stroke-width:0.8000000000000002;stroke-dasharray:2.0,2.0;" x1="356.4" x2="490" y1="553.3125" y2="553.3125"/><text fill="#000000" font-family="sans-serif" font-size="10.4" font-weight="bold" lengthAdjust="spacing" textLength="11.2" x="366" y="549.4273">20</text><text fill="#000000" font-family="sans-serif" font-size="10.4" lengthAdjust="spacing" textLength="42.4" x="380.4" y="549.4273">getAGVs</text><polygon fill="#181818" points="74.8,574.3938,66.8,577.5938,74.8,580.7938,71.6,577.5938" style="stroke:#181818;stroke-width:0.8000000000000002;"/><line style="stroke:#181818;stroke-width:0.8000000000000002;stroke-dasharray:2.0,2.0;" x1="70" x2="347.6" y1="577.5938" y2="577.5938"/><text fill="#000000" font-family="sans-serif" font-size="10.4" font-weight="bold" lengthAdjust="spacing" textLength="11.2" x="79.6" y="573.7086">21</text><text fill="#000000" font-family="sans-serif" font-size="10.4" lengthAdjust="spacing" textLength="106.4" x="94" y="573.7086">shows the list of AGVs</text><polygon fill="#181818" points="334.8,598.675,342.8,601.875,334.8,605.075,338,601.875" style="stroke:#181818;stroke-width:0.8000000000000002;"/><line style="stroke:#181818;stroke-width:0.8000000000000002;" x1="66" x2="339.6" y1="601.875" y2="601.875"/><text fill="#000000" font-family="sans-serif" font-size="10.4" font-weight="bold" lengthAdjust="spacing" textLength="11.2" x="71.6" y="597.9898">22</text><text fill="#000000" font-family="sans-serif" font-size="10.4" lengthAdjust="spacing" textLength="152.8" x="86" y="597.9898">chooses one to prepare the order</text><polygon fill="#181818" points="477.2,622.9563,485.2,626.1563,477.2,629.3563,480.4,626.1563" style="stroke:#181818;stroke-width:0.8000000000000002;"/><line style="stroke:#181818;stroke-width:0.8000000000000002;" x1="352.4" x2="482" y1="626.1563" y2="626.1563"/><text fill="#000000" font-family="sans-serif" font-size="10.4" font-weight="bold" lengthAdjust="spacing" textLength="11.2" x="358" y="622.2711">23</text><text fill="#000000" font-family="sans-serif" font-size="10.4" lengthAdjust="spacing" textLength="77.6" x="372.4" y="622.2711">getAvailableAGV</text><polygon fill="#181818" points="989.2,647.2375,997.2,650.4375,989.2,653.6375,992.4,650.4375" style="stroke:#181818;stroke-width:0.8000000000000002;"/><line style="stroke:#181818;stroke-width:0.8000000000000002;" x1="494.8" x2="994" y1="650.4375" y2="650.4375"/><text fill="#000000" font-family="sans-serif" font-size="10.4" font-weight="bold" lengthAdjust="spacing" textLength="11.2" x="500.4" y="646.5523">24</text><text fill="#000000" font-family="sans-serif" font-size="10.4" lengthAdjust="spacing" textLength="171.2" x="514.8" y="646.5523">getAvailableAGV= getAvailableAGV()</text><polygon fill="#181818" points="1209.6,671.5188,1217.6,674.7188,1209.6,677.9188,1212.8,674.7188" style="stroke:#181818;stroke-width:0.8000000000000002;"/><line style="stroke:#181818;stroke-width:0.8000000000000002;" x1="494.8" x2="1214.4" y1="674.7188" y2="674.7188"/><text fill="#000000" font-family="sans-serif" font-size="10.4" font-weight="bold" lengthAdjust="spacing" textLength="11.2" x="500.4" y="670.8336">25</text><text fill="#000000" font-family="sans-serif" font-size="10.4" lengthAdjust="spacing" textLength="188.8" x="514.8" y="670.8336">changeAGVStatus= changeAGVStatus()</text><polygon fill="#181818" points="1103.6,695.8,1111.6,699,1103.6,702.2,1106.8,699" style="stroke:#181818;stroke-width:0.8000000000000002;"/><line style="stroke:#181818;stroke-width:0.8000000000000002;" x1="494.8" x2="1108.4" y1="699" y2="699"/><text fill="#000000" font-family="sans-serif" font-size="10.4" font-weight="bold" lengthAdjust="spacing" textLength="11.2" x="500.4" y="695.1148">26</text><text fill="#000000" font-family="sans-serif" font-size="10.4" lengthAdjust="spacing" textLength="195.2" x="514.8" y="695.1148">changeOrderStatus= changeOrderStatus()</text><polygon fill="#181818" points="361.2,720.0813,353.2,723.2813,361.2,726.4813,358,723.2813" style="stroke:#181818;stroke-width:0.8000000000000002;"/><line style="stroke:#181818;stroke-width:0.8000000000000002;stroke-dasharray:2.0,2.0;" x1="356.4" x2="490" y1="723.2813" y2="723.2813"/><text fill="#000000" font-family="sans-serif" font-size="10.4" font-weight="bold" lengthAdjust="spacing" textLength="11.2" x="366" y="719.3961">27</text><text fill="#000000" font-family="sans-serif" font-size="10.4" lengthAdjust="spacing" textLength="77.6" x="380.4" y="719.3961">getAvailableAGV</text><polygon fill="#181818" points="74.8,744.3625,66.8,747.5625,74.8,750.7625,71.6,747.5625" style="stroke:#181818;stroke-width:0.8000000000000002;"/><line style="stroke:#181818;stroke-width:0.8000000000000002;stroke-dasharray:2.0,2.0;" x1="70" x2="347.6" y1="747.5625" y2="747.5625"/><text fill="#000000" font-family="sans-serif" font-size="10.4" font-weight="bold" lengthAdjust="spacing" textLength="11.2" x="79.6" y="743.6773">28</text><text fill="#000000" font-family="sans-serif" font-size="10.4" lengthAdjust="spacing" textLength="66.4" x="94" y="743.6773">shows all data</text><polygon fill="#181818" points="334.8,768.6438,342.8,771.8438,334.8,775.0438,338,771.8438" style="stroke:#181818;stroke-width:0.8000000000000002;"/><line style="stroke:#181818;stroke-width:0.8000000000000002;" x1="66" x2="339.6" y1="771.8438" y2="771.8438"/><text fill="#000000" font-family="sans-serif" font-size="10.4" font-weight="bold" lengthAdjust="spacing" textLength="11.2" x="71.6" y="767.9586">29</text><text fill="#000000" font-family="sans-serif" font-size="10.4" lengthAdjust="spacing" textLength="80" x="86" y="767.9586">confirms the data</text><polygon fill="#181818" points="70.8,792.925,62.8,796.125,70.8,799.325,67.6,796.125" style="stroke:#181818;stroke-width:0.8000000000000002;"/><line style="stroke:#181818;stroke-width:0.8000000000000002;stroke-dasharray:2.0,2.0;" x1="66" x2="347.6" y1="796.125" y2="796.125"/><text fill="#000000" font-family="sans-serif" font-size="10.4" font-weight="bold" lengthAdjust="spacing" textLength="11.2" x="75.6" y="792.2398">30</text><text fill="#000000" font-family="sans-serif" font-size="10.4" lengthAdjust="spacing" textLength="121.6" x="90" y="792.2398">informs operation success</text><!--MD5=[09507931db3caa5a83025321f49cf04c]
@startuml
autonumber
'hide footbox
actor "Warehouse Employee" as WE
participant ":AGVToPrepOrderUI" as UI
participant ":AGVToPrepOrderController" as CTRL
participant ":PersistenceContext" as PC
participant ":RepositoryFactory" as RF
participant ":ProductOrderRepository" as ProdRepo
participant ":AGVRepository" as AGVRepo
participant ":ProductOrderService" as ProdS
participant ":AGVService" as AGVS

activate WE

WE -> UI : asks to view the list of previous orders made
activate UI


UI -> CTRL : getOrders
activate CTRL
CTRL -> PC : repositories()

activate PC
PC -> RF : create
deactivate PC
activate RF
RF -> ProdRepo : create
deactivate RF
activate ProdRepo
deactivate ProdRepo
CTRL -> ProdRepo : getOrders= getOrders()

deactivate ProdRepo


CTRL - -> UI :  getOrders
deactivate CTRL

UI - -> WE : shows list of orders
deactivate UI
WE -> UI : asks to see the ones with status: TO_BE_PREPARED
activate UI


UI -> CTRL : getOrderByStatus
activate CTRL
CTRL -> ProdRepo : getOrderByStatus= getOrderByStatus()
activate ProdRepo
CTRL - -> UI :  getOrderByStatus
deactivate CTRL
deactivate ProdRepo

UI - -> WE :  shows list of orders with that status
deactivate UI

WE -> UI : asks to see the AGVs that are available
activate UI


UI -> CTRL : getAGVs
activate CTRL
CTRL -> PC : repositories()

activate PC
PC -> RF : create
deactivate PC
activate RF
RF -> AGVRepo : create
deactivate RF
activate AGVRepo
deactivate AGVRepo
CTRL -> AGVRepo : getAGVs= getAGVs()
CTRL - -> UI :  getAGVs
deactivate CTRL
deactivate AGVRepo

UI - -> WE : shows the list of AGVs
deactivate UI

WE -> UI : chooses one to prepare the order
activate UI


UI -> CTRL : getAvailableAGV
activate CTRL
CTRL -> AGVRepo : getAvailableAGV= getAvailableAGV()
activate AGVRepo
CTRL -> AGVS: changeAGVStatus= changeAGVStatus()
deactivate AGVRepo
activate AGVS
CTRL -> ProdS : changeOrderStatus= changeOrderStatus()
deactivate AGVS
deactivate AGVRepo
activate ProdS
CTRL - -> UI :  getAvailableAGV
deactivate CTRL


UI - -> WE :shows all data
deactivate UI
deactivate ProdS
deactivate UI


WE -> UI : confirms the data

activate UI
UI - -> WE : informs operation success
deactivate UI

deactivate UI
deactivate WE

@enduml

@startuml
autonumber
actor "Warehouse Employee" as WE
participant ":AGVToPrepOrderUI" as UI
participant ":AGVToPrepOrderController" as CTRL
participant ":PersistenceContext" as PC
participant ":RepositoryFactory" as RF
participant ":ProductOrderRepository" as ProdRepo
participant ":AGVRepository" as AGVRepo
participant ":ProductOrderService" as ProdS
participant ":AGVService" as AGVS

activate WE

WE -> UI : asks to view the list of previous orders made
activate UI


UI -> CTRL : getOrders
activate CTRL
CTRL -> PC : repositories()

activate PC
PC -> RF : create
deactivate PC
activate RF
RF -> ProdRepo : create
deactivate RF
activate ProdRepo
deactivate ProdRepo
CTRL -> ProdRepo : getOrders= getOrders()

deactivate ProdRepo


CTRL - -> UI :  getOrders
deactivate CTRL

UI - -> WE : shows list of orders
deactivate UI
WE -> UI : asks to see the ones with status: TO_BE_PREPARED
activate UI


UI -> CTRL : getOrderByStatus
activate CTRL
CTRL -> ProdRepo : getOrderByStatus= getOrderByStatus()
activate ProdRepo
CTRL - -> UI :  getOrderByStatus
deactivate CTRL
deactivate ProdRepo

UI - -> WE :  shows list of orders with that status
deactivate UI

WE -> UI : asks to see the AGVs that are available
activate UI


UI -> CTRL : getAGVs
activate CTRL
CTRL -> PC : repositories()

activate PC
PC -> RF : create
deactivate PC
activate RF
RF -> AGVRepo : create
deactivate RF
activate AGVRepo
deactivate AGVRepo
CTRL -> AGVRepo : getAGVs= getAGVs()
CTRL - -> UI :  getAGVs
deactivate CTRL
deactivate AGVRepo

UI - -> WE : shows the list of AGVs
deactivate UI

WE -> UI : chooses one to prepare the order
activate UI


UI -> CTRL : getAvailableAGV
activate CTRL
CTRL -> AGVRepo : getAvailableAGV= getAvailableAGV()
activate AGVRepo
CTRL -> AGVS: changeAGVStatus= changeAGVStatus()
deactivate AGVRepo
activate AGVS
CTRL -> ProdS : changeOrderStatus= changeOrderStatus()
deactivate AGVS
deactivate AGVRepo
activate ProdS
CTRL - -> UI :  getAvailableAGV
deactivate CTRL


UI - -> WE :shows all data
deactivate UI
deactivate ProdS
deactivate UI


WE -> UI : confirms the data

activate UI
UI - -> WE : informs operation success
deactivate UI

deactivate UI
deactivate WE

@enduml

PlantUML version 1.2022.4(Sat Apr 09 14:29:17 BST 2022)
(GPL source distribution)
Java Runtime: OpenJDK Runtime Environment
JVM: OpenJDK 64-Bit Server VM
Default Encoding: Cp1252
Language: pt
Country: PT
--></g></svg>