<?xml version="1.0" encoding="UTF-8" standalone="no"?><svg xmlns="http://www.w3.org/2000/svg" xmlns:xlink="http://www.w3.org/1999/xlink" contentStyleType="text/css" height="778.4px" preserveAspectRatio="none" style="width:1053px;height:778px;background:#FFFFFF;" version="1.1" viewBox="0 0 1053 778" width="1053.6px" zoomAndPan="magnify"><defs/><g><rect fill="#FFFFFF" height="624.6313" style="stroke:#181818;stroke-width:0.8000000000000002;" width="8" x="58" y="74.0875"/><rect fill="#FFFFFF" height="145.6875" style="stroke:#181818;stroke-width:0.8000000000000002;" width="8" x="344.4" y="91.9688"/><rect fill="#FFFFFF" height="96.8438" style="stroke:#181818;stroke-width:0.8000000000000002;" width="8" x="344.4" y="261.9375"/><rect fill="#FFFFFF" height="145.6875" style="stroke:#181818;stroke-width:0.8000000000000002;" width="8" x="344.4" y="383.0625"/><rect fill="#FFFFFF" height="97.125" style="stroke:#181818;stroke-width:0.8000000000000002;" width="8" x="344.4" y="553.0313"/><rect fill="#FFFFFF" height="24.2813" style="stroke:#181818;stroke-width:0.8000000000000002;" width="8" x="344.4" y="674.4375"/><rect fill="#FFFFFF" height="97.125" style="stroke:#181818;stroke-width:0.8000000000000002;" width="8" x="486.8" y="116.25"/><rect fill="#FFFFFF" height="48.2813" style="stroke:#181818;stroke-width:0.8000000000000002;" width="8" x="486.8" y="286.2188"/><rect fill="#FFFFFF" height="97.125" style="stroke:#181818;stroke-width:0.8000000000000002;" width="8" x="486.8" y="407.3438"/><rect fill="#FFFFFF" height="48.5625" style="stroke:#181818;stroke-width:0.8000000000000002;" width="8" x="486.8" y="577.3125"/><rect fill="#FFFFFF" height="24.2813" style="stroke:#181818;stroke-width:0.8000000000000002;" width="8" x="628" y="140.5313"/><rect fill="#FFFFFF" height="24.2813" style="stroke:#181818;stroke-width:0.8000000000000002;" width="8" x="628" y="431.625"/><rect fill="#FFFFFF" height="24.2813" style="stroke:#181818;stroke-width:0.8000000000000002;" width="8" x="745.6" y="164.8125"/><rect fill="#FFFFFF" height="24.2813" style="stroke:#181818;stroke-width:0.8000000000000002;" width="8" x="745.6" y="455.9063"/><rect fill="#FFFFFF" height="24.2813" style="stroke:#181818;stroke-width:0.8000000000000002;" width="8" x="876" y="189.0938"/><rect fill="#FFFFFF" height="24" style="stroke:#181818;stroke-width:0.8000000000000002;" width="8" x="876" y="310.5"/><rect fill="#FFFFFF" height="24.2813" style="stroke:#181818;stroke-width:0.8000000000000002;" width="8" x="876" y="625.875"/><rect fill="#FFFFFF" height="24.2813" style="stroke:#181818;stroke-width:0.8000000000000002;" width="8" x="998.8" y="480.1875"/><rect fill="#FFFFFF" height="24.2813" style="stroke:#181818;stroke-width:0.8000000000000002;" width="8" x="998.8" y="601.5938"/><line style="stroke:#181818;stroke-width:0.4000000000000001;stroke-dasharray:5.0,5.0;" x1="61.6" x2="61.6" y1="66.0875" y2="713.1188"/><line style="stroke:#181818;stroke-width:0.4000000000000001;stroke-dasharray:5.0,5.0;" x1="348" x2="348" y1="66.0875" y2="713.1188"/><line style="stroke:#181818;stroke-width:0.4000000000000001;stroke-dasharray:5.0,5.0;" x1="490.4" x2="490.4" y1="66.0875" y2="713.1188"/><line style="stroke:#181818;stroke-width:0.4000000000000001;stroke-dasharray:5.0,5.0;" x1="632" x2="632" y1="66.0875" y2="713.1188"/><line style="stroke:#181818;stroke-width:0.4000000000000001;stroke-dasharray:5.0,5.0;" x1="749.6" x2="749.6" y1="66.0875" y2="713.1188"/><line style="stroke:#181818;stroke-width:0.4000000000000001;stroke-dasharray:5.0,5.0;" x1="880" x2="880" y1="66.0875" y2="713.1188"/><line style="stroke:#181818;stroke-width:0.4000000000000001;stroke-dasharray:5.0,5.0;" x1="1002.4" x2="1002.4" y1="66.0875" y2="713.1188"/><text fill="#000000" font-family="sans-serif" font-size="11.2" lengthAdjust="spacing" textLength="111.2" x="4" y="63.6266">Warehouse Employee</text><ellipse cx="62" cy="10.8" fill="#E2E2F0" rx="6.4" ry="6.4" style="stroke:#181818;stroke-width:0.4000000000000001;"/><path d="M62,17.2 L62,38.8 M51.6,23.6 L72.4,23.6 M62,38.8 L51.6,50.8 M62,38.8 L72.4,50.8 " fill="none" style="stroke:#181818;stroke-width:0.4000000000000001;"/><text fill="#000000" font-family="sans-serif" font-size="11.2" lengthAdjust="spacing" textLength="111.2" x="4" y="723.9453">Warehouse Employee</text><ellipse cx="62" cy="733.2063" fill="#E2E2F0" rx="6.4" ry="6.4" style="stroke:#181818;stroke-width:0.4000000000000001;"/><path d="M62,739.6063 L62,761.2063 M51.6,746.0063 L72.4,746.0063 M62,761.2063 L51.6,773.2063 M62,761.2063 L72.4,773.2063 " fill="none" style="stroke:#181818;stroke-width:0.4000000000000001;"/><rect fill="#E2E2F0" height="25.2875" rx="2" ry="2" style="stroke:#181818;stroke-width:0.4000000000000001;" width="114.4" x="291.2" y="40"/><text fill="#000000" font-family="sans-serif" font-size="11.2" lengthAdjust="spacing" textLength="103.2" x="296.8" y="57.2266">:AGVToPrepOrderUI</text><rect fill="#E2E2F0" height="25.2875" rx="2" ry="2" style="stroke:#181818;stroke-width:0.4000000000000001;" width="114.4" x="291.2" y="712.3188"/><text fill="#000000" font-family="sans-serif" font-size="11.2" lengthAdjust="spacing" textLength="103.2" x="296.8" y="729.5453">:AGVToPrepOrderUI</text><rect fill="#E2E2F0" height="25.2875" rx="2" ry="2" style="stroke:#181818;stroke-width:0.4000000000000001;" width="154.4" x="413.6" y="40"/><text fill="#000000" font-family="sans-serif" font-size="11.2" lengthAdjust="spacing" textLength="143.2" x="419.2" y="57.2266">:AGVToPrepOrderController</text><rect fill="#E2E2F0" height="25.2875" rx="2" ry="2" style="stroke:#181818;stroke-width:0.4000000000000001;" width="154.4" x="413.6" y="712.3188"/><text fill="#000000" font-family="sans-serif" font-size="11.2" lengthAdjust="spacing" textLength="143.2" x="419.2" y="729.5453">:AGVToPrepOrderController</text><rect fill="#E2E2F0" height="25.2875" rx="2" ry="2" style="stroke:#181818;stroke-width:0.4000000000000001;" width="112" x="576" y="40"/><text fill="#000000" font-family="sans-serif" font-size="11.2" lengthAdjust="spacing" textLength="100.8" x="581.6" y="57.2266">:PersistenceContext</text><rect fill="#E2E2F0" height="25.2875" rx="2" ry="2" style="stroke:#181818;stroke-width:0.4000000000000001;" width="112" x="576" y="712.3188"/><text fill="#000000" font-family="sans-serif" font-size="11.2" lengthAdjust="spacing" textLength="100.8" x="581.6" y="729.5453">:PersistenceContext</text><rect fill="#E2E2F0" height="25.2875" rx="2" ry="2" style="stroke:#181818;stroke-width:0.4000000000000001;" width="107.2" x="696" y="40"/><text fill="#000000" font-family="sans-serif" font-size="11.2" lengthAdjust="spacing" textLength="96" x="701.6" y="57.2266">:RepositoryFactory</text><rect fill="#E2E2F0" height="25.2875" rx="2" ry="2" style="stroke:#181818;stroke-width:0.4000000000000001;" width="107.2" x="696" y="712.3188"/><text fill="#000000" font-family="sans-serif" font-size="11.2" lengthAdjust="spacing" textLength="96" x="701.6" y="729.5453">:RepositoryFactory</text><rect fill="#E2E2F0" height="25.2875" rx="2" ry="2" style="stroke:#181818;stroke-width:0.4000000000000001;" width="137.6" x="811.2" y="40"/><text fill="#000000" font-family="sans-serif" font-size="11.2" lengthAdjust="spacing" textLength="126.4" x="816.8" y="57.2266">:ProductOrderRepository</text><rect fill="#E2E2F0" height="25.2875" rx="2" ry="2" style="stroke:#181818;stroke-width:0.4000000000000001;" width="137.6" x="811.2" y="712.3188"/><text fill="#000000" font-family="sans-serif" font-size="11.2" lengthAdjust="spacing" textLength="126.4" x="816.8" y="729.5453">:ProductOrderRepository</text><rect fill="#E2E2F0" height="25.2875" rx="2" ry="2" style="stroke:#181818;stroke-width:0.4000000000000001;" width="92" x="956.8" y="40"/><text fill="#000000" font-family="sans-serif" font-size="11.2" lengthAdjust="spacing" textLength="80.8" x="962.4" y="57.2266">:AGVRepository</text><rect fill="#E2E2F0" height="25.2875" rx="2" ry="2" style="stroke:#181818;stroke-width:0.4000000000000001;" width="92" x="956.8" y="712.3188"/><text fill="#000000" font-family="sans-serif" font-size="11.2" lengthAdjust="spacing" textLength="80.8" x="962.4" y="729.5453">:AGVRepository</text><rect fill="#FFFFFF" height="624.6313" style="stroke:#181818;stroke-width:0.8000000000000002;" width="8" x="58" y="74.0875"/><rect fill="#FFFFFF" height="145.6875" style="stroke:#181818;stroke-width:0.8000000000000002;" width="8" x="344.4" y="91.9688"/><rect fill="#FFFFFF" height="96.8438" style="stroke:#181818;stroke-width:0.8000000000000002;" width="8" x="344.4" y="261.9375"/><rect fill="#FFFFFF" height="145.6875" style="stroke:#181818;stroke-width:0.8000000000000002;" width="8" x="344.4" y="383.0625"/><rect fill="#FFFFFF" height="97.125" style="stroke:#181818;stroke-width:0.8000000000000002;" width="8" x="344.4" y="553.0313"/><rect fill="#FFFFFF" height="24.2813" style="stroke:#181818;stroke-width:0.8000000000000002;" width="8" x="344.4" y="674.4375"/><rect fill="#FFFFFF" height="97.125" style="stroke:#181818;stroke-width:0.8000000000000002;" width="8" x="486.8" y="116.25"/><rect fill="#FFFFFF" height="48.2813" style="stroke:#181818;stroke-width:0.8000000000000002;" width="8" x="486.8" y="286.2188"/><rect fill="#FFFFFF" height="97.125" style="stroke:#181818;stroke-width:0.8000000000000002;" width="8" x="486.8" y="407.3438"/><rect fill="#FFFFFF" height="48.5625" style="stroke:#181818;stroke-width:0.8000000000000002;" width="8" x="486.8" y="577.3125"/><rect fill="#FFFFFF" height="24.2813" style="stroke:#181818;stroke-width:0.8000000000000002;" width="8" x="628" y="140.5313"/><rect fill="#FFFFFF" height="24.2813" style="stroke:#181818;stroke-width:0.8000000000000002;" width="8" x="628" y="431.625"/><rect fill="#FFFFFF" height="24.2813" style="stroke:#181818;stroke-width:0.8000000000000002;" width="8" x="745.6" y="164.8125"/><rect fill="#FFFFFF" height="24.2813" style="stroke:#181818;stroke-width:0.8000000000000002;" width="8" x="745.6" y="455.9063"/><rect fill="#FFFFFF" height="24.2813" style="stroke:#181818;stroke-width:0.8000000000000002;" width="8" x="876" y="189.0938"/><rect fill="#FFFFFF" height="24" style="stroke:#181818;stroke-width:0.8000000000000002;" width="8" x="876" y="310.5"/><rect fill="#FFFFFF" height="24.2813" style="stroke:#181818;stroke-width:0.8000000000000002;" width="8" x="876" y="625.875"/><rect fill="#FFFFFF" height="24.2813" style="stroke:#181818;stroke-width:0.8000000000000002;" width="8" x="998.8" y="480.1875"/><rect fill="#FFFFFF" height="24.2813" style="stroke:#181818;stroke-width:0.8000000000000002;" width="8" x="998.8" y="601.5938"/><polygon fill="#181818" points="334.8,88.7688,342.8,91.9688,334.8,95.1688,338,91.9688" style="stroke:#181818;stroke-width:0.8000000000000002;"/><line style="stroke:#181818;stroke-width:0.8000000000000002;" x1="66" x2="339.6" y1="91.9688" y2="91.9688"/><text fill="#000000" font-family="sans-serif" font-size="10.4" font-weight="bold" lengthAdjust="spacing" textLength="5.6" x="71.6" y="88.0836">1</text><text fill="#000000" font-family="sans-serif" font-size="10.4" lengthAdjust="spacing" textLength="204" x="80.4" y="88.0836">asks to view the list of previous orders made</text><polygon fill="#181818" points="477.2,113.05,485.2,116.25,477.2,119.45,480.4,116.25" style="stroke:#181818;stroke-width:0.8000000000000002;"/><line style="stroke:#181818;stroke-width:0.8000000000000002;" x1="352.4" x2="482" y1="116.25" y2="116.25"/><text fill="#000000" font-family="sans-serif" font-size="10.4" font-weight="bold" lengthAdjust="spacing" textLength="5.6" x="358" y="112.3648">2</text><text fill="#000000" font-family="sans-serif" font-size="10.4" lengthAdjust="spacing" textLength="45.6" x="366.8" y="112.3648">getOrders</text><polygon fill="#181818" points="618.4,137.3313,626.4,140.5313,618.4,143.7313,621.6,140.5313" style="stroke:#181818;stroke-width:0.8000000000000002;"/><line style="stroke:#181818;stroke-width:0.8000000000000002;" x1="494.8" x2="623.2" y1="140.5313" y2="140.5313"/><text fill="#000000" font-family="sans-serif" font-size="10.4" font-weight="bold" lengthAdjust="spacing" textLength="5.6" x="500.4" y="136.6461">3</text><text fill="#000000" font-family="sans-serif" font-size="10.4" lengthAdjust="spacing" textLength="60" x="509.2" y="136.6461">repositories()</text><polygon fill="#181818" points="736,161.6125,744,164.8125,736,168.0125,739.2,164.8125" style="stroke:#181818;stroke-width:0.8000000000000002;"/><line style="stroke:#181818;stroke-width:0.8000000000000002;" x1="632" x2="740.8" y1="164.8125" y2="164.8125"/><text fill="#000000" font-family="sans-serif" font-size="10.4" font-weight="bold" lengthAdjust="spacing" textLength="5.6" x="637.6" y="160.9273">4</text><text fill="#000000" font-family="sans-serif" font-size="10.4" lengthAdjust="spacing" textLength="28.8" x="646.4" y="160.9273">create</text><polygon fill="#181818" points="866.4,185.8938,874.4,189.0938,866.4,192.2938,869.6,189.0938" style="stroke:#181818;stroke-width:0.8000000000000002;"/><line style="stroke:#181818;stroke-width:0.8000000000000002;" x1="749.6" x2="871.2" y1="189.0938" y2="189.0938"/><text fill="#000000" font-family="sans-serif" font-size="10.4" font-weight="bold" lengthAdjust="spacing" textLength="5.6" x="755.2" y="185.2086">5</text><text fill="#000000" font-family="sans-serif" font-size="10.4" lengthAdjust="spacing" textLength="28.8" x="764" y="185.2086">create</text><polygon fill="#181818" points="870.4,210.175,878.4,213.375,870.4,216.575,873.6,213.375" style="stroke:#181818;stroke-width:0.8000000000000002;"/><line style="stroke:#181818;stroke-width:0.8000000000000002;" x1="490.8" x2="875.2" y1="213.375" y2="213.375"/><text fill="#000000" font-family="sans-serif" font-size="10.4" font-weight="bold" lengthAdjust="spacing" textLength="5.6" x="496.4" y="209.4898">6</text><text fill="#000000" font-family="sans-serif" font-size="10.4" lengthAdjust="spacing" textLength="107.2" x="505.2" y="209.4898">getOrders= getOrders()</text><polygon fill="#181818" points="74.8,234.4563,66.8,237.6563,74.8,240.8563,71.6,237.6563" style="stroke:#181818;stroke-width:0.8000000000000002;"/><line style="stroke:#181818;stroke-width:0.8000000000000002;stroke-dasharray:2.0,2.0;" x1="70" x2="347.6" y1="237.6563" y2="237.6563"/><text fill="#000000" font-family="sans-serif" font-size="10.4" font-weight="bold" lengthAdjust="spacing" textLength="5.6" x="79.6" y="233.7711">7</text><text fill="#000000" font-family="sans-serif" font-size="10.4" lengthAdjust="spacing" textLength="89.6" x="88.4" y="233.7711">shows list of orders</text><polygon fill="#181818" points="334.8,258.7375,342.8,261.9375,334.8,265.1375,338,261.9375" style="stroke:#181818;stroke-width:0.8000000000000002;"/><line style="stroke:#181818;stroke-width:0.8000000000000002;" x1="66" x2="339.6" y1="261.9375" y2="261.9375"/><text fill="#000000" font-family="sans-serif" font-size="10.4" font-weight="bold" lengthAdjust="spacing" textLength="5.6" x="71.6" y="258.0523">8</text><text fill="#000000" font-family="sans-serif" font-size="10.4" lengthAdjust="spacing" textLength="254.4" x="80.4" y="258.0523">asks to see the ones with status: TO_BE_PREPARED</text><polygon fill="#181818" points="477.2,283.0188,485.2,286.2188,477.2,289.4188,480.4,286.2188" style="stroke:#181818;stroke-width:0.8000000000000002;"/><line style="stroke:#181818;stroke-width:0.8000000000000002;" x1="352.4" x2="482" y1="286.2188" y2="286.2188"/><text fill="#000000" font-family="sans-serif" font-size="10.4" font-weight="bold" lengthAdjust="spacing" textLength="5.6" x="358" y="282.3336">9</text><text fill="#000000" font-family="sans-serif" font-size="10.4" lengthAdjust="spacing" textLength="83.2" x="366.8" y="282.3336">getOrderByStatus</text><polygon fill="#181818" points="866.4,307.3,874.4,310.5,866.4,313.7,869.6,310.5" style="stroke:#181818;stroke-width:0.8000000000000002;"/><line style="stroke:#181818;stroke-width:0.8000000000000002;" x1="494.8" x2="871.2" y1="310.5" y2="310.5"/><text fill="#000000" font-family="sans-serif" font-size="10.4" font-weight="bold" lengthAdjust="spacing" textLength="11.2" x="500.4" y="306.6148">10</text><text fill="#000000" font-family="sans-serif" font-size="10.4" lengthAdjust="spacing" textLength="182.4" x="514.8" y="306.6148">getOrderByStatus= getOrderByStatus()</text><polygon fill="#181818" points="74.8,355.5813,66.8,358.7813,74.8,361.9813,71.6,358.7813" style="stroke:#181818;stroke-width:0.8000000000000002;"/><line style="stroke:#181818;stroke-width:0.8000000000000002;stroke-dasharray:2.0,2.0;" x1="70" x2="347.6" y1="358.7813" y2="358.7813"/><text fill="#000000" font-family="sans-serif" font-size="10.4" font-weight="bold" lengthAdjust="spacing" textLength="11.2" x="79.6" y="354.8961">11</text><text fill="#000000" font-family="sans-serif" font-size="10.4" lengthAdjust="spacing" textLength="164" x="94" y="354.8961">shows list of orders with that status</text><polygon fill="#181818" points="334.8,379.8625,342.8,383.0625,334.8,386.2625,338,383.0625" style="stroke:#181818;stroke-width:0.8000000000000002;"/><line style="stroke:#181818;stroke-width:0.8000000000000002;" x1="66" x2="339.6" y1="383.0625" y2="383.0625"/><text fill="#000000" font-family="sans-serif" font-size="10.4" font-weight="bold" lengthAdjust="spacing" textLength="11.2" x="71.6" y="379.1773">12</text><text fill="#000000" font-family="sans-serif" font-size="10.4" lengthAdjust="spacing" textLength="184" x="86" y="379.1773">asks to see the AGVs that are available</text><polygon fill="#181818" points="477.2,404.1438,485.2,407.3438,477.2,410.5438,480.4,407.3438" style="stroke:#181818;stroke-width:0.8000000000000002;"/><line style="stroke:#181818;stroke-width:0.8000000000000002;" x1="352.4" x2="482" y1="407.3438" y2="407.3438"/><text fill="#000000" font-family="sans-serif" font-size="10.4" font-weight="bold" lengthAdjust="spacing" textLength="11.2" x="358" y="403.4586">13</text><text fill="#000000" font-family="sans-serif" font-size="10.4" lengthAdjust="spacing" textLength="42.4" x="372.4" y="403.4586">getAGVs</text><polygon fill="#181818" points="618.4,428.425,626.4,431.625,618.4,434.825,621.6,431.625" style="stroke:#181818;stroke-width:0.8000000000000002;"/><line style="stroke:#181818;stroke-width:0.8000000000000002;" x1="494.8" x2="623.2" y1="431.625" y2="431.625"/><text fill="#000000" font-family="sans-serif" font-size="10.4" font-weight="bold" lengthAdjust="spacing" textLength="11.2" x="500.4" y="427.7398">14</text><text fill="#000000" font-family="sans-serif" font-size="10.4" lengthAdjust="spacing" textLength="60" x="514.8" y="427.7398">repositories()</text><polygon fill="#181818" points="736,452.7063,744,455.9063,736,459.1063,739.2,455.9063" style="stroke:#181818;stroke-width:0.8000000000000002;"/><line style="stroke:#181818;stroke-width:0.8000000000000002;" x1="632" x2="740.8" y1="455.9063" y2="455.9063"/><text fill="#000000" font-family="sans-serif" font-size="10.4" font-weight="bold" lengthAdjust="spacing" textLength="11.2" x="637.6" y="452.0211">15</text><text fill="#000000" font-family="sans-serif" font-size="10.4" lengthAdjust="spacing" textLength="28.8" x="652" y="452.0211">create</text><polygon fill="#181818" points="989.2,476.9875,997.2,480.1875,989.2,483.3875,992.4,480.1875" style="stroke:#181818;stroke-width:0.8000000000000002;"/><line style="stroke:#181818;stroke-width:0.8000000000000002;" x1="749.6" x2="994" y1="480.1875" y2="480.1875"/><text fill="#000000" font-family="sans-serif" font-size="10.4" font-weight="bold" lengthAdjust="spacing" textLength="11.2" x="755.2" y="476.3023">16</text><text fill="#000000" font-family="sans-serif" font-size="10.4" lengthAdjust="spacing" textLength="28.8" x="769.6" y="476.3023">create</text><polygon fill="#181818" points="993.2,501.2688,1001.2,504.4688,993.2,507.6688,996.4,504.4688" style="stroke:#181818;stroke-width:0.8000000000000002;"/><line style="stroke:#181818;stroke-width:0.8000000000000002;" x1="490.8" x2="998" y1="504.4688" y2="504.4688"/><text fill="#000000" font-family="sans-serif" font-size="10.4" font-weight="bold" lengthAdjust="spacing" textLength="11.2" x="496.4" y="500.5836">17</text><text fill="#000000" font-family="sans-serif" font-size="10.4" lengthAdjust="spacing" textLength="100.8" x="510.8" y="500.5836">getAGVs= getAGVs()</text><polygon fill="#181818" points="74.8,525.55,66.8,528.75,74.8,531.95,71.6,528.75" style="stroke:#181818;stroke-width:0.8000000000000002;"/><line style="stroke:#181818;stroke-width:0.8000000000000002;stroke-dasharray:2.0,2.0;" x1="70" x2="347.6" y1="528.75" y2="528.75"/><text fill="#000000" font-family="sans-serif" font-size="10.4" font-weight="bold" lengthAdjust="spacing" textLength="11.2" x="79.6" y="524.8648">18</text><text fill="#000000" font-family="sans-serif" font-size="10.4" lengthAdjust="spacing" textLength="106.4" x="94" y="524.8648">shows the list of AGVs</text><polygon fill="#181818" points="334.8,549.8313,342.8,553.0313,334.8,556.2313,338,553.0313" style="stroke:#181818;stroke-width:0.8000000000000002;"/><line style="stroke:#181818;stroke-width:0.8000000000000002;" x1="66" x2="339.6" y1="553.0313" y2="553.0313"/><text fill="#000000" font-family="sans-serif" font-size="10.4" font-weight="bold" lengthAdjust="spacing" textLength="11.2" x="71.6" y="549.1461">19</text><text fill="#000000" font-family="sans-serif" font-size="10.4" lengthAdjust="spacing" textLength="152.8" x="86" y="549.1461">chooses one to prepare the order</text><polygon fill="#181818" points="477.2,574.1125,485.2,577.3125,477.2,580.5125,480.4,577.3125" style="stroke:#181818;stroke-width:0.8000000000000002;"/><line style="stroke:#181818;stroke-width:0.8000000000000002;" x1="352.4" x2="482" y1="577.3125" y2="577.3125"/><text fill="#000000" font-family="sans-serif" font-size="10.4" font-weight="bold" lengthAdjust="spacing" textLength="11.2" x="358" y="573.4273">20</text><text fill="#000000" font-family="sans-serif" font-size="10.4" lengthAdjust="spacing" textLength="77.6" x="372.4" y="573.4273">getAvailableAGV</text><polygon fill="#181818" points="989.2,598.3938,997.2,601.5938,989.2,604.7938,992.4,601.5938" style="stroke:#181818;stroke-width:0.8000000000000002;"/><line style="stroke:#181818;stroke-width:0.8000000000000002;" x1="494.8" x2="994" y1="601.5938" y2="601.5938"/><text fill="#000000" font-family="sans-serif" font-size="10.4" font-weight="bold" lengthAdjust="spacing" textLength="11.2" x="500.4" y="597.7086">21</text><text fill="#000000" font-family="sans-serif" font-size="10.4" lengthAdjust="spacing" textLength="171.2" x="514.8" y="597.7086">getAvailableAGV= getAvailableAGV()</text><polygon fill="#181818" points="866.4,622.675,874.4,625.875,866.4,629.075,869.6,625.875" style="stroke:#181818;stroke-width:0.8000000000000002;"/><line style="stroke:#181818;stroke-width:0.8000000000000002;" x1="490.8" x2="871.2" y1="625.875" y2="625.875"/><text fill="#000000" font-family="sans-serif" font-size="10.4" font-weight="bold" lengthAdjust="spacing" textLength="11.2" x="496.4" y="621.9898">22</text><text fill="#000000" font-family="sans-serif" font-size="10.4" lengthAdjust="spacing" textLength="195.2" x="510.8" y="621.9898">changeOrderStatus= changeOrderStatus()</text><polygon fill="#181818" points="74.8,646.9563,66.8,650.1563,74.8,653.3563,71.6,650.1563" style="stroke:#181818;stroke-width:0.8000000000000002;"/><line style="stroke:#181818;stroke-width:0.8000000000000002;stroke-dasharray:2.0,2.0;" x1="70" x2="347.6" y1="650.1563" y2="650.1563"/><text fill="#000000" font-family="sans-serif" font-size="10.4" font-weight="bold" lengthAdjust="spacing" textLength="11.2" x="79.6" y="646.2711">23</text><text fill="#000000" font-family="sans-serif" font-size="10.4" lengthAdjust="spacing" textLength="66.4" x="94" y="646.2711">shows all data</text><polygon fill="#181818" points="334.8,671.2375,342.8,674.4375,334.8,677.6375,338,674.4375" style="stroke:#181818;stroke-width:0.8000000000000002;"/><line style="stroke:#181818;stroke-width:0.8000000000000002;" x1="66" x2="339.6" y1="674.4375" y2="674.4375"/><text fill="#000000" font-family="sans-serif" font-size="10.4" font-weight="bold" lengthAdjust="spacing" textLength="11.2" x="71.6" y="670.5523">24</text><text fill="#000000" font-family="sans-serif" font-size="10.4" lengthAdjust="spacing" textLength="80" x="86" y="670.5523">confirms the data</text><polygon fill="#181818" points="70.8,695.5188,62.8,698.7188,70.8,701.9188,67.6,698.7188" style="stroke:#181818;stroke-width:0.8000000000000002;"/><line style="stroke:#181818;stroke-width:0.8000000000000002;stroke-dasharray:2.0,2.0;" x1="66" x2="347.6" y1="698.7188" y2="698.7188"/><text fill="#000000" font-family="sans-serif" font-size="10.4" font-weight="bold" lengthAdjust="spacing" textLength="11.2" x="75.6" y="694.8336">25</text><text fill="#000000" font-family="sans-serif" font-size="10.4" lengthAdjust="spacing" textLength="121.6" x="90" y="694.8336">informs operation success</text><!--MD5=[091d69dd84ea22763d146d6238835683]
@startuml
autonumber
'hide footbox
actor "Warehouse Employee" as WE
participant ":AGVToPrepOrderUI" as UI
participant ":AGVToPrepOrderController" as CTRL
participant ":PersistenceContext" as PC
participant ":RepositoryFactory" as RF
participant ":ProductOrderRepository" as ProdRepo
participant ":AGVRepository" as AGVRepo


activate WE

WE -> UI : asks to view the list of previous orders made
activate UI


UI -> CTRL : getOrders
activate CTRL
CTRL -> PC : repositories()

activate PC
PC -> RF : create
deactivate PC
activate RF
RF -> ProdRepo : create
deactivate RF
activate ProdRepo
deactivate ProdRepo
CTRL -> ProdRepo : getOrders= getOrders()
deactivate CTRL
deactivate ProdRepo



UI - -> WE : shows list of orders
deactivate UI
WE -> UI : asks to see the ones with status: TO_BE_PREPARED
activate UI


UI -> CTRL : getOrderByStatus
activate CTRL
CTRL -> ProdRepo : getOrderByStatus= getOrderByStatus()
activate ProdRepo
deactivate CTRL
deactivate ProdRepo

UI - -> WE :  shows list of orders with that status
deactivate UI

WE -> UI : asks to see the AGVs that are available
activate UI


UI -> CTRL : getAGVs
activate CTRL
CTRL -> PC : repositories()

activate PC
PC -> RF : create
deactivate PC
activate RF
RF -> AGVRepo : create
deactivate RF
activate AGVRepo
deactivate AGVRepo
CTRL -> AGVRepo : getAGVs= getAGVs()

deactivate CTRL
deactivate AGVRepo

UI - -> WE : shows the list of AGVs
deactivate UI

WE -> UI : chooses one to prepare the order
activate UI


UI -> CTRL : getAvailableAGV
activate CTRL
CTRL -> AGVRepo : getAvailableAGV= getAvailableAGV()
activate AGVRepo
CTRL -> ProdRepo : changeOrderStatus= changeOrderStatus()
deactivate AGVRepo
activate ProdRepo
deactivate CTRL


UI - -> WE :shows all data
deactivate UI
deactivate ProdRepo
deactivate UI


WE -> UI : confirms the data

activate UI
UI - -> WE : informs operation success
deactivate UI

deactivate UI
deactivate WE

@enduml

@startuml
autonumber
actor "Warehouse Employee" as WE
participant ":AGVToPrepOrderUI" as UI
participant ":AGVToPrepOrderController" as CTRL
participant ":PersistenceContext" as PC
participant ":RepositoryFactory" as RF
participant ":ProductOrderRepository" as ProdRepo
participant ":AGVRepository" as AGVRepo


activate WE

WE -> UI : asks to view the list of previous orders made
activate UI


UI -> CTRL : getOrders
activate CTRL
CTRL -> PC : repositories()

activate PC
PC -> RF : create
deactivate PC
activate RF
RF -> ProdRepo : create
deactivate RF
activate ProdRepo
deactivate ProdRepo
CTRL -> ProdRepo : getOrders= getOrders()
deactivate CTRL
deactivate ProdRepo



UI - -> WE : shows list of orders
deactivate UI
WE -> UI : asks to see the ones with status: TO_BE_PREPARED
activate UI


UI -> CTRL : getOrderByStatus
activate CTRL
CTRL -> ProdRepo : getOrderByStatus= getOrderByStatus()
activate ProdRepo
deactivate CTRL
deactivate ProdRepo

UI - -> WE :  shows list of orders with that status
deactivate UI

WE -> UI : asks to see the AGVs that are available
activate UI


UI -> CTRL : getAGVs
activate CTRL
CTRL -> PC : repositories()

activate PC
PC -> RF : create
deactivate PC
activate RF
RF -> AGVRepo : create
deactivate RF
activate AGVRepo
deactivate AGVRepo
CTRL -> AGVRepo : getAGVs= getAGVs()

deactivate CTRL
deactivate AGVRepo

UI - -> WE : shows the list of AGVs
deactivate UI

WE -> UI : chooses one to prepare the order
activate UI


UI -> CTRL : getAvailableAGV
activate CTRL
CTRL -> AGVRepo : getAvailableAGV= getAvailableAGV()
activate AGVRepo
CTRL -> ProdRepo : changeOrderStatus= changeOrderStatus()
deactivate AGVRepo
activate ProdRepo
deactivate CTRL


UI - -> WE :shows all data
deactivate UI
deactivate ProdRepo
deactivate UI


WE -> UI : confirms the data

activate UI
UI - -> WE : informs operation success
deactivate UI

deactivate UI
deactivate WE

@enduml

PlantUML version 1.2022.4(Sat Apr 09 14:29:17 BST 2022)
(GPL source distribution)
Java Runtime: OpenJDK Runtime Environment
JVM: OpenJDK 64-Bit Server VM
Default Encoding: Cp1252
Language: pt
Country: PT
--></g></svg>