<?xml version="1.0" encoding="UTF-8" standalone="no"?><svg xmlns="http://www.w3.org/2000/svg" xmlns:xlink="http://www.w3.org/1999/xlink" contentStyleType="text/css" height="327.6px" preserveAspectRatio="none" style="width:441px;height:327px;background:#FFFFFF;" version="1.1" viewBox="0 0 441 327" width="441.7px" zoomAndPan="magnify"><defs/><g><!--MD5=[4e585643bc2c81a122d62286d0877010]
class AGVToPrepOrderUI--><g id="elem_AGVToPrepOrderUI"><rect codeLine="4" fill="#F1F1F1" height="53.4187" id="AGVToPrepOrderUI" rx="1.75" ry="1.75" style="stroke:#181818;stroke-width:0.3499999999999999;" width="109.9" x="208.95" y="4.9"/><ellipse cx="219.45" cy="19.8461" fill="#ADD1B2" rx="7.7" ry="7.7" style="stroke:#181818;stroke-width:0.6999999999999998;"/><path d="M220.85,17.3961 Q220.9922,17.0461 221.1562,16.8711 Q221.3203,16.6961 221.5062,16.6961 Q221.8344,16.6961 222.0422,16.893 Q222.25,17.0898 222.25,17.5492 L222.25,18.643 Q222.25,19.1023 222.0531,19.2992 Q221.8562,19.4961 221.55,19.4961 Q221.2766,19.4961 221.1016,19.3758 Q220.9266,19.2555 220.85,18.9383 Q220.8172,18.7195 220.6969,18.5992 Q220.4781,18.3695 220.0844,18.2383 Q219.6906,18.0961 219.2969,18.0961 Q218.8047,18.0961 218.3891,18.293 Q217.9844,18.4898 217.6672,18.9273 Q217.35,19.3648 217.35,19.9664 L217.35,20.6117 Q217.35,21.3336 217.9406,21.8148 Q218.5312,22.2961 219.5812,22.2961 Q220.2047,22.2961 220.6422,22.1539 Q220.8937,22.0773 221.1781,21.8258 Q221.3641,21.6836 221.4625,21.6398 Q221.5609,21.5961 221.6812,21.5961 Q221.9109,21.5961 222.075,21.782 Q222.25,21.957 222.25,22.2086 Q222.25,22.4492 222.0094,22.7336 Q221.6594,23.1492 221.1016,23.3789 Q220.3687,23.6961 219.4719,23.6961 Q218.4219,23.6961 217.5797,23.2805 Q216.9016,22.9523 216.4203,22.2414 Q215.95,21.5305 215.95,20.6883 L215.95,19.9227 Q215.95,19.0477 216.3656,18.282 Q216.7922,17.5164 217.525,17.1117 Q218.2687,16.6961 219.1,16.6961 Q219.6031,16.6961 220.0406,16.8711 Q220.4781,17.0461 220.85,17.3961 Z " fill="#000000"/><text fill="#000000" font-family="sans-serif" font-size="8.4" font-style="italic" lengthAdjust="spacing" textLength="57.4" x="244.3" y="17.1199">«presentation»</text><text fill="#000000" font-family="sans-serif" font-size="9.8" lengthAdjust="spacing" textLength="87.5" x="229.25" y="29.1389">AGVToPrepOrderUI</text><line style="stroke:#181818;stroke-width:0.3499999999999999;" x1="209.65" x2="318.15" y1="34.7922" y2="34.7922"/><line style="stroke:#181818;stroke-width:0.3499999999999999;" x1="209.65" x2="318.15" y1="40.3922" y2="40.3922"/><text fill="#000000" font-family="sans-serif" font-size="9.8" lengthAdjust="spacing" textLength="42" x="213.15" y="53.3654">doShow()</text></g><!--MD5=[06fbcdc4e2e2e4684bf7bf11768ea3fd]
class AGVToPrepOrderController--><g id="elem_AGVToPrepOrderController"><rect codeLine="8" fill="#F1F1F1" height="90.3984" id="AGVToPrepOrderController" rx="1.75" ry="1.75" style="stroke:#181818;stroke-width:0.3499999999999999;" width="160.3" x="183.75" y="112.7"/><ellipse cx="201.18" cy="127.6461" fill="#ADD1B2" rx="7.7" ry="7.7" style="stroke:#181818;stroke-width:0.6999999999999998;"/><path d="M202.58,125.1961 Q202.7222,124.8461 202.8862,124.6711 Q203.0503,124.4961 203.2362,124.4961 Q203.5644,124.4961 203.7722,124.693 Q203.98,124.8898 203.98,125.3492 L203.98,126.443 Q203.98,126.9023 203.7831,127.0992 Q203.5862,127.2961 203.28,127.2961 Q203.0066,127.2961 202.8316,127.1758 Q202.6566,127.0555 202.58,126.7383 Q202.5472,126.5195 202.4269,126.3992 Q202.2081,126.1695 201.8144,126.0383 Q201.4206,125.8961 201.0269,125.8961 Q200.5347,125.8961 200.1191,126.093 Q199.7144,126.2898 199.3972,126.7273 Q199.08,127.1648 199.08,127.7664 L199.08,128.4117 Q199.08,129.1336 199.6706,129.6148 Q200.2612,130.0961 201.3112,130.0961 Q201.9347,130.0961 202.3722,129.9539 Q202.6237,129.8773 202.9081,129.6258 Q203.0941,129.4836 203.1925,129.4398 Q203.2909,129.3961 203.4112,129.3961 Q203.6409,129.3961 203.805,129.582 Q203.98,129.757 203.98,130.0086 Q203.98,130.2492 203.7394,130.5336 Q203.3894,130.9492 202.8316,131.1789 Q202.0987,131.4961 201.2019,131.4961 Q200.1519,131.4961 199.3097,131.0805 Q198.6316,130.7523 198.1503,130.0414 Q197.68,129.3305 197.68,128.4883 L197.68,127.7227 Q197.68,126.8477 198.0956,126.082 Q198.5222,125.3164 199.255,124.9117 Q199.9987,124.4961 200.83,124.4961 Q201.3331,124.4961 201.7706,124.6711 Q202.2081,124.8461 202.58,125.1961 Z " fill="#000000"/><text fill="#000000" font-family="sans-serif" font-size="8.4" font-style="italic" lengthAdjust="spacing" textLength="51.8" x="247.87" y="124.9199">«application»</text><text fill="#000000" font-family="sans-serif" font-size="9.8" lengthAdjust="spacing" textLength="122.5" x="212.52" y="136.9389">AGVToPrepOrderController</text><line style="stroke:#181818;stroke-width:0.3499999999999999;" x1="184.45" x2="343.35" y1="142.5922" y2="142.5922"/><line style="stroke:#181818;stroke-width:0.3499999999999999;" x1="184.45" x2="343.35" y1="148.1922" y2="148.1922"/><text fill="#000000" font-family="sans-serif" font-size="9.8" lengthAdjust="spacing" textLength="62.3" x="187.95" y="161.1654">getAllOrders()</text><text fill="#000000" font-family="sans-serif" font-size="9.8" lengthAdjust="spacing" textLength="86.1" x="187.95" y="173.492">getAvailableAGVs()</text><text fill="#000000" font-family="sans-serif" font-size="9.8" lengthAdjust="spacing" textLength="115.5" x="187.95" y="185.8186">getOrderByStatus( status)</text><text fill="#000000" font-family="sans-serif" font-size="9.8" lengthAdjust="spacing" textLength="151.9" x="187.95" y="198.1451">aGVGetsOrderToPrep(agv, order)</text></g><!--MD5=[bd7ae71472438d91a1e396970731067c]
class ProductOrderRepository--><g id="elem_ProductOrderRepository"><rect codeLine="10" fill="#F1F1F1" height="65.7453" id="ProductOrderRepository" rx="1.75" ry="1.75" style="stroke:#181818;stroke-width:0.3499999999999999;" width="130.2" x="4.9" y="257.6"/><ellipse cx="15.4" cy="272.5461" fill="#ADD1B2" rx="7.7" ry="7.7" style="stroke:#181818;stroke-width:0.6999999999999998;"/><path d="M16.8,270.0961 Q16.9422,269.7461 17.1062,269.5711 Q17.2703,269.3961 17.4562,269.3961 Q17.7844,269.3961 17.9922,269.593 Q18.2,269.7898 18.2,270.2492 L18.2,271.343 Q18.2,271.8023 18.0031,271.9992 Q17.8062,272.1961 17.5,272.1961 Q17.2266,272.1961 17.0516,272.0758 Q16.8766,271.9555 16.8,271.6383 Q16.7672,271.4195 16.6469,271.2992 Q16.4281,271.0695 16.0344,270.9383 Q15.6406,270.7961 15.2469,270.7961 Q14.7547,270.7961 14.3391,270.993 Q13.9344,271.1898 13.6172,271.6273 Q13.3,272.0648 13.3,272.6664 L13.3,273.3117 Q13.3,274.0336 13.8906,274.5148 Q14.4812,274.9961 15.5312,274.9961 Q16.1547,274.9961 16.5922,274.8539 Q16.8437,274.7773 17.1281,274.5258 Q17.3141,274.3836 17.4125,274.3398 Q17.5109,274.2961 17.6312,274.2961 Q17.8609,274.2961 18.025,274.482 Q18.2,274.657 18.2,274.9086 Q18.2,275.1492 17.9594,275.4336 Q17.6094,275.8492 17.0516,276.0789 Q16.3187,276.3961 15.4219,276.3961 Q14.3719,276.3961 13.5297,275.9805 Q12.8516,275.6523 12.3703,274.9414 Q11.9,274.2305 11.9,273.3883 L11.9,272.6227 Q11.9,271.7477 12.3156,270.982 Q12.7422,270.2164 13.475,269.8117 Q14.2187,269.3961 15.05,269.3961 Q15.5531,269.3961 15.9906,269.5711 Q16.4281,269.7461 16.8,270.0961 Z " fill="#000000"/><text fill="#000000" font-family="sans-serif" font-size="8.4" font-style="italic" lengthAdjust="spacing" textLength="47.6" x="55.3" y="269.8199">«repository»</text><text fill="#000000" font-family="sans-serif" font-size="9.8" lengthAdjust="spacing" textLength="107.8" x="25.2" y="281.8389">ProductOrderRepository</text><line style="stroke:#181818;stroke-width:0.3499999999999999;" x1="5.6" x2="134.4" y1="287.4922" y2="287.4922"/><line style="stroke:#181818;stroke-width:0.3499999999999999;" x1="5.6" x2="134.4" y1="293.0922" y2="293.0922"/><text fill="#000000" font-family="sans-serif" font-size="9.8" lengthAdjust="spacing" textLength="62.3" x="9.1" y="306.0654">getAllOrders()</text><text fill="#000000" font-family="sans-serif" font-size="9.8" lengthAdjust="spacing" textLength="115.5" x="9.1" y="318.392">getOrderByStatus( status)</text></g><!--MD5=[a2934c79e3adc781b0cd87c74812aba5]
class AGVRepository--><g id="elem_AGVRepository"><rect codeLine="11" fill="#F1F1F1" height="53.4187" id="AGVRepository" rx="1.75" ry="1.75" style="stroke:#181818;stroke-width:0.3499999999999999;" width="94.5" x="159.95" y="263.9"/><ellipse cx="172.34" cy="278.8461" fill="#ADD1B2" rx="7.7" ry="7.7" style="stroke:#181818;stroke-width:0.6999999999999998;"/><path d="M173.74,276.3961 Q173.8822,276.0461 174.0462,275.8711 Q174.2103,275.6961 174.3962,275.6961 Q174.7244,275.6961 174.9322,275.893 Q175.14,276.0898 175.14,276.5492 L175.14,277.643 Q175.14,278.1023 174.9431,278.2992 Q174.7462,278.4961 174.44,278.4961 Q174.1666,278.4961 173.9916,278.3758 Q173.8166,278.2555 173.74,277.9383 Q173.7072,277.7195 173.5869,277.5992 Q173.3681,277.3695 172.9744,277.2383 Q172.5806,277.0961 172.1869,277.0961 Q171.6947,277.0961 171.2791,277.293 Q170.8744,277.4898 170.5572,277.9273 Q170.24,278.3648 170.24,278.9664 L170.24,279.6117 Q170.24,280.3336 170.8306,280.8148 Q171.4212,281.2961 172.4712,281.2961 Q173.0947,281.2961 173.5322,281.1539 Q173.7837,281.0773 174.0681,280.8258 Q174.2541,280.6836 174.3525,280.6398 Q174.4509,280.5961 174.5712,280.5961 Q174.8009,280.5961 174.965,280.782 Q175.14,280.957 175.14,281.2086 Q175.14,281.4492 174.8994,281.7336 Q174.5494,282.1492 173.9916,282.3789 Q173.2587,282.6961 172.3619,282.6961 Q171.3119,282.6961 170.4697,282.2805 Q169.7916,281.9523 169.3103,281.2414 Q168.84,280.5305 168.84,279.6883 L168.84,278.9227 Q168.84,278.0477 169.2556,277.282 Q169.6822,276.5164 170.415,276.1117 Q171.1587,275.6961 171.99,275.6961 Q172.4931,275.6961 172.9306,275.8711 Q173.3681,276.0461 173.74,276.3961 Z " fill="#000000"/><text fill="#000000" font-family="sans-serif" font-size="8.4" font-style="italic" lengthAdjust="spacing" textLength="47.6" x="192.71" y="276.1199">«repository»</text><text fill="#000000" font-family="sans-serif" font-size="9.8" lengthAdjust="spacing" textLength="67.9" x="182.56" y="288.1389">AGVRepository</text><line style="stroke:#181818;stroke-width:0.3499999999999999;" x1="160.65" x2="253.75" y1="293.7922" y2="293.7922"/><line style="stroke:#181818;stroke-width:0.3499999999999999;" x1="160.65" x2="253.75" y1="299.3922" y2="299.3922"/><text fill="#000000" font-family="sans-serif" font-size="9.8" lengthAdjust="spacing" textLength="86.1" x="164.15" y="312.3654">getAvailableAGVs()</text></g><!--MD5=[9265192601ae3d68217fc2a2ce1ea439]
class ProductOrder--><g id="elem_ProductOrder"><rect codeLine="14" fill="#F1F1F1" height="51.6578" id="ProductOrder" rx="1.75" ry="1.75" style="stroke:#181818;stroke-width:0.3499999999999999;" width="82.6" x="279.3" y="264.6"/><ellipse cx="289.8" cy="284.8289" fill="#ADD1B2" rx="7.7" ry="7.7" style="stroke:#181818;stroke-width:0.6999999999999998;"/><path d="M288.75,285.5289 L288.75,286.9289 L291.55,286.9289 L291.55,286.2289 L291.55,285.8898 L291.9875,285.5289 L292.25,285.5289 L292.5125,285.5289 L292.95,285.8898 L292.95,286.2289 L292.95,288.3289 L287.35,288.3289 L287.0109,288.3289 L286.65,287.8914 L286.65,287.6289 L286.65,287.3664 L287.0109,286.9289 L287.35,286.9289 L287.35,286.9289 L287.35,282.7289 L287.35,282.7289 L287.0109,282.7289 L286.65,282.2914 L286.65,282.0289 L286.65,281.7664 L287.0109,281.3289 L287.35,281.3289 L292.95,281.3289 L292.95,283.4289 L292.95,283.768 L292.5125,284.1289 L292.25,284.1289 L291.9875,284.1289 L291.55,283.768 L291.55,283.4289 L291.55,282.7289 L288.75,282.7289 L288.75,284.1289 L289.45,284.1289 L289.45,283.7898 L289.45,283.7898 L289.8875,283.4289 L290.15,283.4289 L290.4125,283.4289 L290.85,283.7898 L290.85,284.1289 L290.85,285.5289 L290.85,285.868 L290.4125,286.2289 L290.4125,286.2289 L290.15,286.2289 L289.8875,286.2289 L289.45,285.868 L289.45,285.868 L289.45,285.5289 L288.75,285.5289 Z " fill="#000000"/><text fill="#000000" font-family="sans-serif" font-size="8.4" font-style="italic" lengthAdjust="spacing" textLength="30.8" x="314.3" y="276.8199">«Entity»</text><text fill="#000000" font-family="sans-serif" font-size="8.4" font-style="italic" lengthAdjust="spacing" textLength="28" x="315.7" y="287.3855">«Root»</text><text fill="#000000" font-family="sans-serif" font-size="9.8" lengthAdjust="spacing" textLength="60.2" x="299.6" y="299.4045">ProductOrder</text><line style="stroke:#181818;stroke-width:0.3499999999999999;" x1="280" x2="361.2" y1="305.0578" y2="305.0578"/><line style="stroke:#181818;stroke-width:0.3499999999999999;" x1="280" x2="361.2" y1="310.6578" y2="310.6578"/></g><!--MD5=[53b2c06ade5903185ca3326dce80e141]
class AGV--><g id="elem_AGV"><rect codeLine="15" fill="#F1F1F1" height="51.6578" id="AGV" rx="1.75" ry="1.75" style="stroke:#181818;stroke-width:0.3499999999999999;" width="50.4" x="386.4" y="264.6"/><ellipse cx="396.9" cy="284.8289" fill="#ADD1B2" rx="7.7" ry="7.7" style="stroke:#181818;stroke-width:0.6999999999999998;"/><path d="M395.85,285.5289 L395.85,286.9289 L398.65,286.9289 L398.65,286.2289 L398.65,285.8898 L399.0875,285.5289 L399.35,285.5289 L399.6125,285.5289 L400.05,285.8898 L400.05,286.2289 L400.05,288.3289 L394.45,288.3289 L394.1109,288.3289 L393.75,287.8914 L393.75,287.6289 L393.75,287.3664 L394.1109,286.9289 L394.45,286.9289 L394.45,286.9289 L394.45,282.7289 L394.45,282.7289 L394.1109,282.7289 L393.75,282.2914 L393.75,282.0289 L393.75,281.7664 L394.1109,281.3289 L394.45,281.3289 L400.05,281.3289 L400.05,283.4289 L400.05,283.768 L399.6125,284.1289 L399.35,284.1289 L399.0875,284.1289 L398.65,283.768 L398.65,283.4289 L398.65,282.7289 L395.85,282.7289 L395.85,284.1289 L396.55,284.1289 L396.55,283.7898 L396.55,283.7898 L396.9875,283.4289 L397.25,283.4289 L397.5125,283.4289 L397.95,283.7898 L397.95,284.1289 L397.95,285.5289 L397.95,285.868 L397.5125,286.2289 L397.5125,286.2289 L397.25,286.2289 L396.9875,286.2289 L396.55,285.868 L396.55,285.868 L396.55,285.5289 L395.85,285.5289 Z " fill="#000000"/><text fill="#000000" font-family="sans-serif" font-size="8.4" font-style="italic" lengthAdjust="spacing" textLength="30.8" x="405.3" y="276.8199">«Entity»</text><text fill="#000000" font-family="sans-serif" font-size="8.4" font-style="italic" lengthAdjust="spacing" textLength="28" x="406.7" y="287.3855">«Root»</text><text fill="#000000" font-family="sans-serif" font-size="9.8" lengthAdjust="spacing" textLength="20.3" x="410.55" y="299.4045">AGV</text><line style="stroke:#181818;stroke-width:0.3499999999999999;" x1="387.1" x2="436.1" y1="305.0578" y2="305.0578"/><line style="stroke:#181818;stroke-width:0.3499999999999999;" x1="387.1" x2="436.1" y1="310.6578" y2="310.6578"/></g><!--MD5=[31d02e75e7abebc3970d132fd4c68a63]
link AGVToPrepOrderController to ProductOrder--><g id="link_AGVToPrepOrderController_ProductOrder"><path codeLine="21" d="M283.178,203.168 C291.452,222.327 300.881,244.16 308.203,261.114 " fill="none" id="AGVToPrepOrderController-to-ProductOrder" style="stroke:#181818;stroke-width:0.6999999999999998;"/><polygon fill="#181818" points="309.645,264.432,309.711,257.5381,308.2542,261.2202,304.5721,259.7634,309.645,264.432" style="stroke:#181818;stroke-width:0.6999999999999998;"/></g><!--MD5=[3883eef6ec15845734865688912d842e]
link AGVToPrepOrderController to AGV--><g id="link_AGVToPrepOrderController_AGV"><path codeLine="22" d="M314.111,203.168 C337.309,223.783 363.979,247.485 383.558,264.88 " fill="none" id="AGVToPrepOrderController-to-AGV" style="stroke:#181818;stroke-width:0.6999999999999998;"/><polygon fill="#181818" points="386.393,267.4,383.5326,261.1272,383.7727,265.0797,379.8201,265.3197,386.393,267.4" style="stroke:#181818;stroke-width:0.6999999999999998;"/></g><!--MD5=[9fd7847c428c365a9b6ba53c77a7bf14]
link AGVToPrepOrderUI to AGVToPrepOrderController--><g id="link_AGVToPrepOrderUI_AGVToPrepOrderController"><path codeLine="23" d="M263.9,58.394 C263.9,73.024 263.9,91.721 263.9,108.899 " fill="none" id="AGVToPrepOrderUI-to-AGVToPrepOrderController" style="stroke:#181818;stroke-width:0.6999999999999998;"/><polygon fill="#181818" points="263.9,112.539,266.7,106.239,263.9,109.039,261.1,106.239,263.9,112.539" style="stroke:#181818;stroke-width:0.6999999999999998;"/><text fill="#000000" font-family="sans-serif" font-size="9.1" lengthAdjust="spacing" textLength="51.1" x="264.6" y="89.2466">theController</text></g><!--MD5=[1618229e65a5beafdfb6bdb393b9beac]
link AGVToPrepOrderController to ProductOrderRepository--><g id="link_AGVToPrepOrderController_ProductOrderRepository"><path codeLine="25" d="M197.981,203.168 C172.767,220.241 144.417,239.428 120.82,255.395 " fill="none" id="AGVToPrepOrderController-to-ProductOrderRepository" style="stroke:#181818;stroke-width:0.6999999999999998;"/><polygon fill="#181818" points="117.677,257.53,124.4646,256.3221,120.5768,255.5701,121.3288,251.6824,117.677,257.53" style="stroke:#181818;stroke-width:0.6999999999999998;"/><text fill="#000000" font-family="sans-serif" font-size="9.1" lengthAdjust="spacing" textLength="17.5" x="168" y="234.1466">repo</text></g><!--MD5=[6a12910029bd4535072209ae1c138e53]
link AGVToPrepOrderController to AGVRepository--><g id="link_AGVToPrepOrderController_AGVRepository"><path codeLine="26" d="M244.622,203.168 C236.439,222.117 227.122,243.684 219.835,260.554 " fill="none" id="AGVToPrepOrderController-to-AGVRepository" style="stroke:#181818;stroke-width:0.6999999999999998;"/><polygon fill="#181818" points="218.407,263.865,223.4746,259.1906,219.7941,260.6516,218.3332,256.9712,218.407,263.865" style="stroke:#181818;stroke-width:0.6999999999999998;"/><text fill="#000000" font-family="sans-serif" font-size="9.1" lengthAdjust="spacing" textLength="17.5" x="236.6" y="234.1466">repo</text></g><!--MD5=[754507e454ab730b4cdda19e8d4ffcad]
@startuml
skinparam classAttributeIconSize 0


class AGVToPrepOrderUI <<presentation>>



class AGVToPrepOrderController <<application>>

class ProductOrderRepository <<repository>>
class AGVRepository <<repository>>


entity ProductOrder <<Entity>> <<Root>>
entity AGV <<Entity>> <<Root>>





AGVToPrepOrderController - -> ProductOrder
AGVToPrepOrderController - -> AGV
AGVToPrepOrderUI - -> AGVToPrepOrderController : theController
AGVToPrepOrderUI : doShow()
AGVToPrepOrderController - -> ProductOrderRepository : repo
AGVToPrepOrderController - -> AGVRepository : repo
AGVToPrepOrderController : getAllOrders()
AGVToPrepOrderController : getAvailableAGVs()
AGVToPrepOrderController : getOrderByStatus( status)
ProductOrderRepository : getAllOrders()
AGVRepository : getAvailableAGVs()
ProductOrderRepository : getOrderByStatus( status)
AGVToPrepOrderController : aGVGetsOrderToPrep(agv, order)

@enduml

PlantUML version 1.2022.4(Sat Apr 09 14:29:17 BST 2022)
(GPL source distribution)
Java Runtime: OpenJDK Runtime Environment
JVM: OpenJDK 64-Bit Server VM
Default Encoding: Cp1252
Language: pt
Country: PT
--></g></svg>