<?xml version="1.0" encoding="UTF-8" standalone="no"?><svg xmlns="http://www.w3.org/2000/svg" xmlns:xlink="http://www.w3.org/1999/xlink" contentStyleType="text/css" height="378px" preserveAspectRatio="none" style="width:864px;height:378px;background:#FFFFFF;" version="1.1" viewBox="0 0 864 378" width="864px" zoomAndPan="magnify"><defs/><g><!--MD5=[54080d9e854548ae7799007fbb6ced19]
class AddProductShopCartUI--><g id="elem_AddProductShopCartUI"><rect codeLine="4" fill="#F1F1F1" height="45.7875" id="AddProductShopCartUI" rx="1.5" ry="1.5" style="stroke:#181818;stroke-width:0.3;" width="106.8" x="675.6" y="4.2"/><ellipse cx="684.6" cy="17.0109" fill="#ADD1B2" rx="6.6" ry="6.6" style="stroke:#181818;stroke-width:0.6;"/><path d="M685.8,14.9109 Q685.9219,14.6109 686.0625,14.4609 Q686.2031,14.3109 686.3625,14.3109 Q686.6438,14.3109 686.8219,14.4797 Q687,14.6484 687,15.0422 L687,15.9797 Q687,16.3734 686.8313,16.5422 Q686.6625,16.7109 686.4,16.7109 Q686.1656,16.7109 686.0156,16.6078 Q685.8656,16.5047 685.8,16.2328 Q685.7719,16.0453 685.6687,15.9422 Q685.4812,15.7453 685.1438,15.6328 Q684.8063,15.5109 684.4688,15.5109 Q684.0469,15.5109 683.6906,15.6797 Q683.3438,15.8484 683.0719,16.2234 Q682.8,16.5984 682.8,17.1141 L682.8,17.6672 Q682.8,18.2859 683.3063,18.6984 Q683.8125,19.1109 684.7125,19.1109 Q685.2469,19.1109 685.6219,18.9891 Q685.8375,18.9234 686.0813,18.7078 Q686.2406,18.5859 686.325,18.5484 Q686.4094,18.5109 686.5125,18.5109 Q686.7094,18.5109 686.85,18.6703 Q687,18.8203 687,19.0359 Q687,19.2422 686.7937,19.4859 Q686.4938,19.8422 686.0156,20.0391 Q685.3875,20.3109 684.6188,20.3109 Q683.7188,20.3109 682.9969,19.9547 Q682.4156,19.6734 682.0031,19.0641 Q681.6,18.4547 681.6,17.7328 L681.6,17.0766 Q681.6,16.3266 681.9563,15.6703 Q682.3219,15.0141 682.95,14.6672 Q683.5875,14.3109 684.3,14.3109 Q684.7312,14.3109 685.1062,14.4609 Q685.4812,14.6109 685.8,14.9109 Z " fill="#000000"/><text fill="#000000" font-family="sans-serif" font-size="7.2" font-style="italic" lengthAdjust="spacing" textLength="49.2" x="712.2" y="14.6742">«presentation»</text><text fill="#000000" font-family="sans-serif" font-size="8.4" lengthAdjust="spacing" textLength="87.6" x="693" y="24.9762">AddProductShopCartUI</text><line style="stroke:#181818;stroke-width:0.3;" x1="676.2" x2="781.8" y1="29.8219" y2="29.8219"/><line style="stroke:#181818;stroke-width:0.3;" x1="676.2" x2="781.8" y1="34.6219" y2="34.6219"/><text fill="#000000" font-family="sans-serif" font-size="8.4" lengthAdjust="spacing" textLength="36" x="679.2" y="45.7418">doShow()</text></g><!--MD5=[0b8f7153b7a94e6f0aa3fbd53e63e9c0]
class AddProductShopCartController--><g id="elem_AddProductShopCartController"><rect codeLine="7" fill="#F1F1F1" height="45.7875" id="AddProductShopCartController" rx="1.5" ry="1.5" style="stroke:#181818;stroke-width:0.3;" width="136.8" x="566.4" y="96.6"/><ellipse cx="575.4" cy="109.4109" fill="#ADD1B2" rx="6.6" ry="6.6" style="stroke:#181818;stroke-width:0.6;"/><path d="M576.6,107.3109 Q576.7219,107.0109 576.8625,106.8609 Q577.0031,106.7109 577.1625,106.7109 Q577.4438,106.7109 577.6219,106.8797 Q577.8,107.0484 577.8,107.4422 L577.8,108.3797 Q577.8,108.7734 577.6313,108.9422 Q577.4625,109.1109 577.2,109.1109 Q576.9656,109.1109 576.8156,109.0078 Q576.6656,108.9047 576.6,108.6328 Q576.5719,108.4453 576.4688,108.3422 Q576.2813,108.1453 575.9438,108.0328 Q575.6062,107.9109 575.2688,107.9109 Q574.8469,107.9109 574.4906,108.0797 Q574.1438,108.2484 573.8719,108.6234 Q573.6,108.9984 573.6,109.5141 L573.6,110.0672 Q573.6,110.6859 574.1062,111.0984 Q574.6125,111.5109 575.5125,111.5109 Q576.0469,111.5109 576.4219,111.3891 Q576.6375,111.3234 576.8813,111.1078 Q577.0406,110.9859 577.125,110.9484 Q577.2094,110.9109 577.3125,110.9109 Q577.5094,110.9109 577.65,111.0703 Q577.8,111.2203 577.8,111.4359 Q577.8,111.6422 577.5938,111.8859 Q577.2937,112.2422 576.8156,112.4391 Q576.1875,112.7109 575.4187,112.7109 Q574.5188,112.7109 573.7969,112.3547 Q573.2156,112.0734 572.8031,111.4641 Q572.4,110.8547 572.4,110.1328 L572.4,109.4766 Q572.4,108.7266 572.7563,108.0703 Q573.1219,107.4141 573.75,107.0672 Q574.3875,106.7109 575.1,106.7109 Q575.5313,106.7109 575.9063,106.8609 Q576.2813,107.0109 576.6,107.3109 Z " fill="#000000"/><text fill="#000000" font-family="sans-serif" font-size="7.2" font-style="italic" lengthAdjust="spacing" textLength="44.4" x="620.4" y="107.0742">«application»</text><text fill="#000000" font-family="sans-serif" font-size="8.4" lengthAdjust="spacing" textLength="117.6" x="583.8" y="117.3762">AddProductShopCartController</text><line style="stroke:#181818;stroke-width:0.3;" x1="567" x2="702.6" y1="122.2219" y2="122.2219"/><line style="stroke:#181818;stroke-width:0.3;" x1="567" x2="702.6" y1="127.0219" y2="127.0219"/><text fill="#000000" font-family="sans-serif" font-size="8.4" lengthAdjust="spacing" textLength="85.8" x="570" y="138.1418">addProductShopCart()</text></g><!--MD5=[708e328039b60d50c6285936843ac334]
class OrderRepository--><g id="elem_OrderRepository"><rect codeLine="8" fill="#F1F1F1" height="56.3531" id="OrderRepository" rx="1.5" ry="1.5" style="stroke:#181818;stroke-width:0.3;" width="82.2" x="503.7" y="204.9"/><ellipse cx="512.7" cy="217.7109" fill="#ADD1B2" rx="6.6" ry="6.6" style="stroke:#181818;stroke-width:0.6;"/><path d="M513.9,215.6109 Q514.0219,215.3109 514.1625,215.1609 Q514.3031,215.0109 514.4625,215.0109 Q514.7438,215.0109 514.9219,215.1797 Q515.1,215.3484 515.1,215.7422 L515.1,216.6797 Q515.1,217.0734 514.9313,217.2422 Q514.7625,217.4109 514.5,217.4109 Q514.2656,217.4109 514.1156,217.3078 Q513.9656,217.2047 513.9,216.9328 Q513.8719,216.7453 513.7688,216.6422 Q513.5813,216.4453 513.2438,216.3328 Q512.9063,216.2109 512.5688,216.2109 Q512.1469,216.2109 511.7906,216.3797 Q511.4437,216.5484 511.1719,216.9234 Q510.9,217.2984 510.9,217.8141 L510.9,218.3672 Q510.9,218.9859 511.4063,219.3984 Q511.9125,219.8109 512.8125,219.8109 Q513.3469,219.8109 513.7219,219.6891 Q513.9375,219.6234 514.1813,219.4078 Q514.3406,219.2859 514.425,219.2484 Q514.5094,219.2109 514.6125,219.2109 Q514.8094,219.2109 514.95,219.3703 Q515.1,219.5203 515.1,219.7359 Q515.1,219.9422 514.8938,220.1859 Q514.5938,220.5422 514.1156,220.7391 Q513.4875,221.0109 512.7188,221.0109 Q511.8187,221.0109 511.0969,220.6547 Q510.5156,220.3734 510.1031,219.7641 Q509.7,219.1547 509.7,218.4328 L509.7,217.7766 Q509.7,217.0266 510.0563,216.3703 Q510.4219,215.7141 511.05,215.3672 Q511.6875,215.0109 512.4,215.0109 Q512.8313,215.0109 513.2063,215.1609 Q513.5813,215.3109 513.9,215.6109 Z " fill="#000000"/><text fill="#000000" font-family="sans-serif" font-size="7.2" font-style="italic" lengthAdjust="spacing" textLength="40.8" x="532.2" y="215.3742">«repository»</text><text fill="#000000" font-family="sans-serif" font-size="8.4" lengthAdjust="spacing" textLength="63" x="521.1" y="225.6762">OrderRepository</text><line style="stroke:#181818;stroke-width:0.3;" x1="504.3" x2="585.3" y1="230.5219" y2="230.5219"/><line style="stroke:#181818;stroke-width:0.3;" x1="504.3" x2="585.3" y1="235.3219" y2="235.3219"/><text fill="#000000" font-family="sans-serif" font-size="8.4" lengthAdjust="spacing" textLength="44.4" x="507.3" y="246.4418">save(order)</text><text fill="#000000" font-family="sans-serif" font-size="8.4" lengthAdjust="spacing" textLength="66" x="507.3" y="257.0074">findById(OrderID)</text></g><!--MD5=[60885691ff61b259e8da5f4ba12b8b0f]
class ViewCatalogController--><g id="elem_ViewCatalogController"><rect codeLine="9" fill="#F1F1F1" height="88.05" id="ViewCatalogController" rx="1.5" ry="1.5" style="stroke:#181818;stroke-width:0.3;" width="171" x="178.5" y="189"/><ellipse cx="219.45" cy="201.8109" fill="#ADD1B2" rx="6.6" ry="6.6" style="stroke:#181818;stroke-width:0.6;"/><path d="M220.65,199.7109 Q220.7719,199.4109 220.9125,199.2609 Q221.0531,199.1109 221.2125,199.1109 Q221.4938,199.1109 221.6719,199.2797 Q221.85,199.4484 221.85,199.8422 L221.85,200.7797 Q221.85,201.1734 221.6813,201.3422 Q221.5125,201.5109 221.25,201.5109 Q221.0156,201.5109 220.8656,201.4078 Q220.7156,201.3047 220.65,201.0328 Q220.6219,200.8453 220.5187,200.7422 Q220.3312,200.5453 219.9938,200.4328 Q219.6563,200.3109 219.3188,200.3109 Q218.8969,200.3109 218.5406,200.4797 Q218.1938,200.6484 217.9219,201.0234 Q217.65,201.3984 217.65,201.9141 L217.65,202.4672 Q217.65,203.0859 218.1563,203.4984 Q218.6625,203.9109 219.5625,203.9109 Q220.0969,203.9109 220.4719,203.7891 Q220.6875,203.7234 220.9313,203.5078 Q221.0906,203.3859 221.175,203.3484 Q221.2594,203.3109 221.3625,203.3109 Q221.5594,203.3109 221.7,203.4703 Q221.85,203.6203 221.85,203.8359 Q221.85,204.0422 221.6437,204.2859 Q221.3438,204.6422 220.8656,204.8391 Q220.2375,205.1109 219.4688,205.1109 Q218.5688,205.1109 217.8469,204.7547 Q217.2656,204.4734 216.8531,203.8641 Q216.45,203.2547 216.45,202.5328 L216.45,201.8766 Q216.45,201.1266 216.8063,200.4703 Q217.1719,199.8141 217.8,199.4672 Q218.4375,199.1109 219.15,199.1109 Q219.5812,199.1109 219.9562,199.2609 Q220.3312,199.4109 220.65,199.7109 Z " fill="#000000"/><text fill="#000000" font-family="sans-serif" font-size="7.2" font-style="italic" lengthAdjust="spacing" textLength="44.4" x="251.55" y="199.4742">«application»</text><text fill="#000000" font-family="sans-serif" font-size="8.4" lengthAdjust="spacing" textLength="84" x="231.75" y="209.7762">ViewCatalogController</text><line style="stroke:#181818;stroke-width:0.3;" x1="179.1" x2="348.9" y1="214.6219" y2="214.6219"/><line style="stroke:#181818;stroke-width:0.3;" x1="179.1" x2="348.9" y1="219.4219" y2="219.4219"/><text fill="#000000" font-family="sans-serif" font-size="8.4" lengthAdjust="spacing" textLength="104.4" x="182.1" y="230.5418">getProductByBrand( brand)</text><text fill="#000000" font-family="sans-serif" font-size="8.4" lengthAdjust="spacing" textLength="127.2" x="182.1" y="241.1074">getProductByCategory( category)</text><text fill="#000000" font-family="sans-serif" font-size="8.4" lengthAdjust="spacing" textLength="163.8" x="182.1" y="251.673">getProductByDescription( shortDescription)</text><text fill="#000000" font-family="sans-serif" font-size="8.4" lengthAdjust="spacing" textLength="93.6" x="182.1" y="262.2387">sortByPrice( productList)</text><text fill="#000000" font-family="sans-serif" font-size="8.4" lengthAdjust="spacing" textLength="117" x="182.1" y="272.8043">sortByDescription( productList)</text></g><!--MD5=[36e65ff18b6f5d58aed32f4733db2ea9]
class ProductSorter--><g id="elem_ProductSorter"><rect codeLine="11" fill="#F1F1F1" height="49.9313" id="ProductSorter" rx="1.5" ry="1.5" style="stroke:#181818;stroke-width:0.3;" width="100.8" x="4.2" y="324"/><ellipse cx="26.16" cy="333.6" fill="#ADD1B2" rx="6.6" ry="6.6" style="stroke:#181818;stroke-width:0.6;"/><path d="M27.36,331.5 Q27.4819,331.2 27.6225,331.05 Q27.7631,330.9 27.9225,330.9 Q28.2038,330.9 28.3819,331.0687 Q28.56,331.2375 28.56,331.6312 L28.56,332.5687 Q28.56,332.9625 28.3913,333.1312 Q28.2225,333.3 27.96,333.3 Q27.7256,333.3 27.5756,333.1969 Q27.4256,333.0938 27.36,332.8219 Q27.3319,332.6344 27.2288,332.5313 Q27.0413,332.3344 26.7038,332.2219 Q26.3663,332.1 26.0288,332.1 Q25.6069,332.1 25.2506,332.2688 Q24.9038,332.4375 24.6319,332.8125 Q24.36,333.1875 24.36,333.7031 L24.36,334.2562 Q24.36,334.875 24.8663,335.2875 Q25.3725,335.7 26.2725,335.7 Q26.8069,335.7 27.1819,335.5781 Q27.3975,335.5125 27.6413,335.2969 Q27.8006,335.175 27.885,335.1375 Q27.9694,335.1 28.0725,335.1 Q28.2694,335.1 28.41,335.2594 Q28.56,335.4094 28.56,335.625 Q28.56,335.8313 28.3538,336.075 Q28.0538,336.4313 27.5756,336.6281 Q26.9475,336.9 26.1788,336.9 Q25.2788,336.9 24.5569,336.5438 Q23.9756,336.2625 23.5631,335.6531 Q23.16,335.0438 23.16,334.3219 L23.16,333.6656 Q23.16,332.9156 23.5163,332.2594 Q23.8819,331.6031 24.51,331.2562 Q25.1475,330.9 25.86,330.9 Q26.2913,330.9 26.6663,331.05 Q27.0413,331.2 27.36,331.5 Z " fill="#000000"/><text fill="#000000" font-family="sans-serif" font-size="8.4" lengthAdjust="spacing" textLength="52.8" x="37.44" y="337.0371">ProductSorter</text><line style="stroke:#181818;stroke-width:0.3;" x1="4.8" x2="104.4" y1="343.2" y2="343.2"/><line style="stroke:#181818;stroke-width:0.3;" x1="4.8" x2="104.4" y1="348" y2="348"/><text fill="#000000" font-family="sans-serif" font-size="8.4" lengthAdjust="spacing" textLength="91.2" x="7.8" y="359.1199">sortByPrice(productList)</text><text fill="#000000" font-family="sans-serif" font-size="8.4" lengthAdjust="spacing" textLength="93.6" x="7.8" y="369.6855">sortByName(productList)</text></g><!--MD5=[f9761e4ec0e5a044b983a0fb01ce84a9]
class ProductRepository--><g id="elem_ProductRepository"><rect codeLine="12" fill="#F1F1F1" height="45.7875" id="ProductRepository" rx="1.5" ry="1.5" style="stroke:#181818;stroke-width:0.3;" width="89.4" x="126.3" y="326.1"/><ellipse cx="135.3" cy="338.9109" fill="#ADD1B2" rx="6.6" ry="6.6" style="stroke:#181818;stroke-width:0.6;"/><path d="M136.5,336.8109 Q136.6219,336.5109 136.7625,336.3609 Q136.9031,336.2109 137.0625,336.2109 Q137.3438,336.2109 137.5219,336.3797 Q137.7,336.5484 137.7,336.9422 L137.7,337.8797 Q137.7,338.2734 137.5313,338.4422 Q137.3625,338.6109 137.1,338.6109 Q136.8656,338.6109 136.7156,338.5078 Q136.5656,338.4047 136.5,338.1328 Q136.4719,337.9453 136.3688,337.8422 Q136.1813,337.6453 135.8438,337.5328 Q135.5063,337.4109 135.1688,337.4109 Q134.7469,337.4109 134.3906,337.5797 Q134.0438,337.7484 133.7719,338.1234 Q133.5,338.4984 133.5,339.0141 L133.5,339.5672 Q133.5,340.1859 134.0063,340.5984 Q134.5125,341.0109 135.4125,341.0109 Q135.9469,341.0109 136.3219,340.8891 Q136.5375,340.8234 136.7813,340.6078 Q136.9406,340.4859 137.025,340.4484 Q137.1094,340.4109 137.2125,340.4109 Q137.4094,340.4109 137.55,340.5703 Q137.7,340.7203 137.7,340.9359 Q137.7,341.1422 137.4938,341.3859 Q137.1938,341.7422 136.7156,341.9391 Q136.0875,342.2109 135.3188,342.2109 Q134.4188,342.2109 133.6969,341.8547 Q133.1156,341.5734 132.7031,340.9641 Q132.3,340.3547 132.3,339.6328 L132.3,338.9766 Q132.3,338.2266 132.6563,337.5703 Q133.0219,336.9141 133.65,336.5672 Q134.2875,336.2109 135,336.2109 Q135.4313,336.2109 135.8063,336.3609 Q136.1813,336.5109 136.5,336.8109 Z " fill="#000000"/><text fill="#000000" font-family="sans-serif" font-size="7.2" font-style="italic" lengthAdjust="spacing" textLength="40.8" x="158.4" y="336.5742">«repository»</text><text fill="#000000" font-family="sans-serif" font-size="8.4" lengthAdjust="spacing" textLength="70.2" x="143.7" y="346.8762">ProductRepository</text><line style="stroke:#181818;stroke-width:0.3;" x1="126.9" x2="215.1" y1="351.7219" y2="351.7219"/><line style="stroke:#181818;stroke-width:0.3;" x1="126.9" x2="215.1" y1="356.5219" y2="356.5219"/><text fill="#000000" font-family="sans-serif" font-size="8.4" lengthAdjust="spacing" textLength="62.4" x="129.9" y="367.6418">findAllProducts()</text></g><!--MD5=[25783f8fc8de777e346e07d3a0736e5b]
class ShoppingCartRepository--><g id="elem_ShoppingCartRepository"><rect codeLine="13" fill="#F1F1F1" height="35.2219" id="ShoppingCartRepository" rx="1.5" ry="1.5" style="stroke:#181818;stroke-width:0.3;" width="112.2" x="370.5" y="215.4"/><ellipse cx="379.5" cy="228.2109" fill="#ADD1B2" rx="6.6" ry="6.6" style="stroke:#181818;stroke-width:0.6;"/><path d="M380.7,226.1109 Q380.8219,225.8109 380.9625,225.6609 Q381.1031,225.5109 381.2625,225.5109 Q381.5438,225.5109 381.7219,225.6797 Q381.9,225.8484 381.9,226.2422 L381.9,227.1797 Q381.9,227.5734 381.7313,227.7422 Q381.5625,227.9109 381.3,227.9109 Q381.0656,227.9109 380.9156,227.8078 Q380.7656,227.7047 380.7,227.4328 Q380.6719,227.2453 380.5687,227.1422 Q380.3812,226.9453 380.0438,226.8328 Q379.7063,226.7109 379.3688,226.7109 Q378.9469,226.7109 378.5906,226.8797 Q378.2438,227.0484 377.9719,227.4234 Q377.7,227.7984 377.7,228.3141 L377.7,228.8672 Q377.7,229.4859 378.2063,229.8984 Q378.7125,230.3109 379.6125,230.3109 Q380.1469,230.3109 380.5219,230.1891 Q380.7375,230.1234 380.9813,229.9078 Q381.1406,229.7859 381.225,229.7484 Q381.3094,229.7109 381.4125,229.7109 Q381.6094,229.7109 381.75,229.8703 Q381.9,230.0203 381.9,230.2359 Q381.9,230.4422 381.6937,230.6859 Q381.3938,231.0422 380.9156,231.2391 Q380.2875,231.5109 379.5188,231.5109 Q378.6188,231.5109 377.8969,231.1547 Q377.3156,230.8734 376.9031,230.2641 Q376.5,229.6547 376.5,228.9328 L376.5,228.2766 Q376.5,227.5266 376.8563,226.8703 Q377.2219,226.2141 377.85,225.8672 Q378.4875,225.5109 379.2,225.5109 Q379.6312,225.5109 380.0062,225.6609 Q380.3812,225.8109 380.7,226.1109 Z " fill="#000000"/><text fill="#000000" font-family="sans-serif" font-size="7.2" font-style="italic" lengthAdjust="spacing" textLength="40.8" x="414" y="225.8742">«repository»</text><text fill="#000000" font-family="sans-serif" font-size="8.4" lengthAdjust="spacing" textLength="93" x="387.9" y="236.1762">ShoppingCartRepository</text><line style="stroke:#181818;stroke-width:0.3;" x1="371.1" x2="482.1" y1="241.0219" y2="241.0219"/><line style="stroke:#181818;stroke-width:0.3;" x1="371.1" x2="482.1" y1="245.8219" y2="245.8219"/></g><!--MD5=[5966e65ec991dc36b37db3be72f739a6]
class ShoppingCart--><g id="elem_ShoppingCart"><rect codeLine="15" fill="#F1F1F1" height="35.2219" id="ShoppingCart" rx="1.5" ry="1.5" style="stroke:#181818;stroke-width:0.3;" width="71.4" x="786.9" y="215.4"/><ellipse cx="795.9" cy="228.2109" fill="#ADD1B2" rx="6.6" ry="6.6" style="stroke:#181818;stroke-width:0.6;"/><path d="M795,228.8109 L795,230.0109 L797.4,230.0109 L797.4,229.4109 L797.4,229.1203 L797.775,228.8109 L798,228.8109 L798.225,228.8109 L798.6,229.1203 L798.6,229.4109 L798.6,231.2109 L793.8,231.2109 L793.5094,231.2109 L793.2,230.8359 L793.2,230.6109 L793.2,230.3859 L793.5094,230.0109 L793.8,230.0109 L793.8,230.0109 L793.8,226.4109 L793.8,226.4109 L793.5094,226.4109 L793.2,226.0359 L793.2,225.8109 L793.2,225.5859 L793.5094,225.2109 L793.8,225.2109 L798.6,225.2109 L798.6,227.0109 L798.6,227.3016 L798.225,227.6109 L798,227.6109 L797.775,227.6109 L797.4,227.3016 L797.4,227.0109 L797.4,226.4109 L795,226.4109 L795,227.6109 L795.6,227.6109 L795.6,227.3203 L795.6,227.3203 L795.975,227.0109 L796.2,227.0109 L796.425,227.0109 L796.8,227.3203 L796.8,227.6109 L796.8,228.8109 L796.8,229.1016 L796.425,229.4109 L796.425,229.4109 L796.2,229.4109 L795.975,229.4109 L795.6,229.1016 L795.6,229.1016 L795.6,228.8109 L795,228.8109 Z " fill="#000000"/><text fill="#000000" font-family="sans-serif" font-size="7.2" font-style="italic" lengthAdjust="spacing" textLength="26.4" x="817.2" y="225.8742">«Entity»</text><text fill="#000000" font-family="sans-serif" font-size="8.4" lengthAdjust="spacing" textLength="52.2" x="804.3" y="236.1762">ShoppingCart</text><line style="stroke:#181818;stroke-width:0.3;" x1="787.5" x2="857.7" y1="241.0219" y2="241.0219"/><line style="stroke:#181818;stroke-width:0.3;" x1="787.5" x2="857.7" y1="245.8219" y2="245.8219"/></g><!--MD5=[4ef588c4d1404d1058d28903bdac637c]
class Costumer--><g id="elem_Costumer"><rect codeLine="18" fill="#F1F1F1" height="44.2781" id="Costumer" rx="1.5" ry="1.5" style="stroke:#181818;stroke-width:0.3;" width="55.8" x="606.9" y="210.9"/><ellipse cx="615.9" cy="228.2391" fill="#ADD1B2" rx="6.6" ry="6.6" style="stroke:#181818;stroke-width:0.6;"/><path d="M615,228.8391 L615,230.0391 L617.4,230.0391 L617.4,229.4391 L617.4,229.1484 L617.775,228.8391 L618,228.8391 L618.225,228.8391 L618.6,229.1484 L618.6,229.4391 L618.6,231.2391 L613.8,231.2391 L613.5094,231.2391 L613.2,230.8641 L613.2,230.6391 L613.2,230.4141 L613.5094,230.0391 L613.8,230.0391 L613.8,230.0391 L613.8,226.4391 L613.8,226.4391 L613.5094,226.4391 L613.2,226.0641 L613.2,225.8391 L613.2,225.6141 L613.5094,225.2391 L613.8,225.2391 L618.6,225.2391 L618.6,227.0391 L618.6,227.3297 L618.225,227.6391 L618,227.6391 L617.775,227.6391 L617.4,227.3297 L617.4,227.0391 L617.4,226.4391 L615,226.4391 L615,227.6391 L615.6,227.6391 L615.6,227.3484 L615.6,227.3484 L615.975,227.0391 L616.2,227.0391 L616.425,227.0391 L616.8,227.3484 L616.8,227.6391 L616.8,228.8391 L616.8,229.1297 L616.425,229.4391 L616.425,229.4391 L616.2,229.4391 L615.975,229.4391 L615.6,229.1297 L615.6,229.1297 L615.6,228.8391 L615,228.8391 Z " fill="#000000"/><text fill="#000000" font-family="sans-serif" font-size="7.2" font-style="italic" lengthAdjust="spacing" textLength="26.4" x="629.4" y="221.3742">«Entity»</text><text fill="#000000" font-family="sans-serif" font-size="7.2" font-style="italic" lengthAdjust="spacing" textLength="24" x="630.6" y="230.4305">«Root»</text><text fill="#000000" font-family="sans-serif" font-size="8.4" lengthAdjust="spacing" textLength="36.6" x="624.3" y="240.7324">Costumer</text><line style="stroke:#181818;stroke-width:0.3;" x1="607.5" x2="662.1" y1="245.5781" y2="245.5781"/><line style="stroke:#181818;stroke-width:0.3;" x1="607.5" x2="662.1" y1="250.3781" y2="250.3781"/></g><!--MD5=[72136138052d025cffdce3c22fbd185f]
class Product--><g id="elem_Product"><rect codeLine="20" fill="#F1F1F1" height="54.8438" id="Product" rx="1.5" ry="1.5" style="stroke:#181818;stroke-width:0.3;" width="82.2" x="683.7" y="205.8"/><ellipse cx="707.82" cy="223.1391" fill="#ADD1B2" rx="6.6" ry="6.6" style="stroke:#181818;stroke-width:0.6;"/><path d="M706.92,223.7391 L706.92,224.9391 L709.32,224.9391 L709.32,224.3391 L709.32,224.0484 L709.695,223.7391 L709.92,223.7391 L710.145,223.7391 L710.52,224.0484 L710.52,224.3391 L710.52,226.1391 L705.72,226.1391 L705.4294,226.1391 L705.12,225.7641 L705.12,225.5391 L705.12,225.3141 L705.4294,224.9391 L705.72,224.9391 L705.72,224.9391 L705.72,221.3391 L705.72,221.3391 L705.4294,221.3391 L705.12,220.9641 L705.12,220.7391 L705.12,220.5141 L705.4294,220.1391 L705.72,220.1391 L710.52,220.1391 L710.52,221.9391 L710.52,222.2297 L710.145,222.5391 L709.92,222.5391 L709.695,222.5391 L709.32,222.2297 L709.32,221.9391 L709.32,221.3391 L706.92,221.3391 L706.92,222.5391 L707.52,222.5391 L707.52,222.2484 L707.52,222.2484 L707.895,221.9391 L708.12,221.9391 L708.345,221.9391 L708.72,222.2484 L708.72,222.5391 L708.72,223.7391 L708.72,224.0297 L708.345,224.3391 L708.345,224.3391 L708.12,224.3391 L707.895,224.3391 L707.52,224.0297 L707.52,224.0297 L707.52,223.7391 L706.92,223.7391 Z " fill="#000000"/><text fill="#000000" font-family="sans-serif" font-size="7.2" font-style="italic" lengthAdjust="spacing" textLength="26.4" x="721.08" y="216.2742">«Entity»</text><text fill="#000000" font-family="sans-serif" font-size="7.2" font-style="italic" lengthAdjust="spacing" textLength="24" x="722.28" y="225.3305">«Root»</text><text fill="#000000" font-family="sans-serif" font-size="8.4" lengthAdjust="spacing" textLength="29.4" x="719.58" y="235.6324">Product</text><line style="stroke:#181818;stroke-width:0.3;" x1="684.3" x2="765.3" y1="240.4781" y2="240.4781"/><text fill="#000000" font-family="sans-serif" font-size="8.4" lengthAdjust="spacing" textLength="75" x="687.3" y="251.598">-ProductDescription</text><line style="stroke:#181818;stroke-width:0.3;" x1="684.3" x2="765.3" y1="255.8438" y2="255.8438"/></g><!--MD5=[a96594a83e2ecdc78cbf17c2ddf01934]
class Category--><g id="elem_Category"><rect codeLine="24" fill="#F1F1F1" height="35.2219" id="Category" rx="1.5" ry="1.5" style="stroke:#181818;stroke-width:0.3;" width="54" x="237" y="331.2"/><ellipse cx="246" cy="344.0109" fill="#ADD1B2" rx="6.6" ry="6.6" style="stroke:#181818;stroke-width:0.6;"/><path d="M245.1,344.6109 L245.1,345.8109 L247.5,345.8109 L247.5,345.2109 L247.5,344.9203 L247.875,344.6109 L248.1,344.6109 L248.325,344.6109 L248.7,344.9203 L248.7,345.2109 L248.7,347.0109 L243.9,347.0109 L243.6094,347.0109 L243.3,346.6359 L243.3,346.4109 L243.3,346.1859 L243.6094,345.8109 L243.9,345.8109 L243.9,345.8109 L243.9,342.2109 L243.9,342.2109 L243.6094,342.2109 L243.3,341.8359 L243.3,341.6109 L243.3,341.3859 L243.6094,341.0109 L243.9,341.0109 L248.7,341.0109 L248.7,342.8109 L248.7,343.1016 L248.325,343.4109 L248.1,343.4109 L247.875,343.4109 L247.5,343.1016 L247.5,342.8109 L247.5,342.2109 L245.1,342.2109 L245.1,343.4109 L245.7,343.4109 L245.7,343.1203 L245.7,343.1203 L246.075,342.8109 L246.3,342.8109 L246.525,342.8109 L246.9,343.1203 L246.9,343.4109 L246.9,344.6109 L246.9,344.9016 L246.525,345.2109 L246.525,345.2109 L246.3,345.2109 L246.075,345.2109 L245.7,344.9016 L245.7,344.9016 L245.7,344.6109 L245.1,344.6109 Z " fill="#000000"/><text fill="#000000" font-family="sans-serif" font-size="7.2" font-style="italic" lengthAdjust="spacing" textLength="26.4" x="258.6" y="341.6742">«Entity»</text><text fill="#000000" font-family="sans-serif" font-size="8.4" lengthAdjust="spacing" textLength="34.8" x="254.4" y="351.9762">Category</text><line style="stroke:#181818;stroke-width:0.3;" x1="237.6" x2="290.4" y1="356.8219" y2="356.8219"/><line style="stroke:#181818;stroke-width:0.3;" x1="237.6" x2="290.4" y1="361.6219" y2="361.6219"/></g><!--MD5=[8a78b94ac034f628eee9959bc26304be]
class Brand--><g id="elem_Brand"><rect fill="#F1F1F1" height="28.8" id="Brand" rx="1.5" ry="1.5" style="stroke:#181818;stroke-width:0.3;" width="42" x="312" y="334.5"/><ellipse cx="321" cy="344.1" fill="#ADD1B2" rx="6.6" ry="6.6" style="stroke:#181818;stroke-width:0.6;"/><path d="M322.2,342 Q322.3219,341.7 322.4625,341.55 Q322.6031,341.4 322.7625,341.4 Q323.0438,341.4 323.2219,341.5687 Q323.4,341.7375 323.4,342.1312 L323.4,343.0687 Q323.4,343.4625 323.2313,343.6312 Q323.0625,343.8 322.8,343.8 Q322.5656,343.8 322.4156,343.6969 Q322.2656,343.5938 322.2,343.3219 Q322.1719,343.1344 322.0687,343.0313 Q321.8812,342.8344 321.5438,342.7219 Q321.2063,342.6 320.8688,342.6 Q320.4469,342.6 320.0906,342.7688 Q319.7438,342.9375 319.4719,343.3125 Q319.2,343.6875 319.2,344.2031 L319.2,344.7562 Q319.2,345.375 319.7063,345.7875 Q320.2125,346.2 321.1125,346.2 Q321.6469,346.2 322.0219,346.0781 Q322.2375,346.0125 322.4813,345.7969 Q322.6406,345.675 322.725,345.6375 Q322.8094,345.6 322.9125,345.6 Q323.1094,345.6 323.25,345.7594 Q323.4,345.9094 323.4,346.125 Q323.4,346.3313 323.1937,346.575 Q322.8938,346.9313 322.4156,347.1281 Q321.7875,347.4 321.0188,347.4 Q320.1188,347.4 319.3969,347.0438 Q318.8156,346.7625 318.4031,346.1531 Q318,345.5438 318,344.8219 L318,344.1656 Q318,343.4156 318.3563,342.7594 Q318.7219,342.1031 319.35,341.7562 Q319.9875,341.4 320.7,341.4 Q321.1312,341.4 321.5062,341.55 Q321.8812,341.7 322.2,342 Z " fill="#000000"/><text fill="#000000" font-family="sans-serif" font-size="8.4" lengthAdjust="spacing" textLength="22.8" x="329.4" y="347.5371">Brand</text><line style="stroke:#181818;stroke-width:0.3;" x1="312.6" x2="353.4" y1="353.7" y2="353.7"/><line style="stroke:#181818;stroke-width:0.3;" x1="312.6" x2="353.4" y1="358.5" y2="358.5"/></g><!--MD5=[79d3acb8d8b4a000645cdf546551f625]
class ShortDescription--><g id="elem_ShortDescription"><rect fill="#F1F1F1" height="28.8" id="ShortDescription" rx="1.5" ry="1.5" style="stroke:#181818;stroke-width:0.3;" width="82.2" x="375.3" y="334.5"/><ellipse cx="384.3" cy="344.1" fill="#ADD1B2" rx="6.6" ry="6.6" style="stroke:#181818;stroke-width:0.6;"/><path d="M385.5,342 Q385.6219,341.7 385.7625,341.55 Q385.9031,341.4 386.0625,341.4 Q386.3438,341.4 386.5219,341.5687 Q386.7,341.7375 386.7,342.1312 L386.7,343.0687 Q386.7,343.4625 386.5313,343.6312 Q386.3625,343.8 386.1,343.8 Q385.8656,343.8 385.7156,343.6969 Q385.5656,343.5938 385.5,343.3219 Q385.4719,343.1344 385.3688,343.0313 Q385.1813,342.8344 384.8438,342.7219 Q384.5062,342.6 384.1688,342.6 Q383.7469,342.6 383.3906,342.7688 Q383.0438,342.9375 382.7719,343.3125 Q382.5,343.6875 382.5,344.2031 L382.5,344.7562 Q382.5,345.375 383.0062,345.7875 Q383.5125,346.2 384.4125,346.2 Q384.9469,346.2 385.3219,346.0781 Q385.5375,346.0125 385.7813,345.7969 Q385.9406,345.675 386.025,345.6375 Q386.1094,345.6 386.2125,345.6 Q386.4094,345.6 386.55,345.7594 Q386.7,345.9094 386.7,346.125 Q386.7,346.3313 386.4938,346.575 Q386.1937,346.9313 385.7156,347.1281 Q385.0875,347.4 384.3187,347.4 Q383.4188,347.4 382.6969,347.0438 Q382.1156,346.7625 381.7031,346.1531 Q381.3,345.5438 381.3,344.8219 L381.3,344.1656 Q381.3,343.4156 381.6563,342.7594 Q382.0219,342.1031 382.65,341.7562 Q383.2875,341.4 384,341.4 Q384.4313,341.4 384.8063,341.55 Q385.1813,341.7 385.5,342 Z " fill="#000000"/><text fill="#000000" font-family="sans-serif" font-size="8.4" lengthAdjust="spacing" textLength="63" x="392.7" y="347.5371">ShortDescription</text><line style="stroke:#181818;stroke-width:0.3;" x1="375.9" x2="456.9" y1="353.7" y2="353.7"/><line style="stroke:#181818;stroke-width:0.3;" x1="375.9" x2="456.9" y1="358.5" y2="358.5"/></g><!--MD5=[91f4cacd5a9271ec1075c91635baaab3]
link AddProductShopCartController to Costumer--><g id="link_AddProductShopCartController_Costumer"><path codeLine="29" d="M634.8,142.224 C634.8,161.13 634.8,188.244 634.8,207.816 " fill="none" id="AddProductShopCartController-to-Costumer" style="stroke:#181818;stroke-width:0.6;"/><polygon fill="#181818" points="634.8,210.894,637.2,205.494,634.8,207.894,632.4,205.494,634.8,210.894" style="stroke:#181818;stroke-width:0.6;"/></g><!--MD5=[9298cbf79516637f0766df1189088a57]
link AddProductShopCartController to ViewCatalogController--><g id="link_AddProductShopCartController_ViewCatalogController"><path codeLine="30" d="M566.328,133.614 C510.114,145.638 428.85,164.976 360,189 C357.516,189.864 355.008,190.77 352.488,191.712 " fill="none" id="AddProductShopCartController-to-ViewCatalogController" style="stroke:#181818;stroke-width:0.6;"/><polygon fill="#181818" points="349.524,192.828,355.4238,193.1634,352.3302,191.7671,353.7264,188.6735,349.524,192.828" style="stroke:#181818;stroke-width:0.6;"/></g><!--MD5=[ef64e35b10d94ef84de64895fc3d04d4]
link AddProductShopCartUI to AddProductShopCartController--><g id="link_AddProductShopCartUI_AddProductShopCartController"><path codeLine="31" d="M705.954,49.908 C692.046,63.378 674.316,80.544 660.03,94.374 " fill="none" id="AddProductShopCartUI-to-AddProductShopCartController" style="stroke:#181818;stroke-width:0.6;"/><polygon fill="#181818" points="657.768,96.564,663.3211,94.5433,659.9275,94.4816,659.9892,91.088,657.768,96.564" style="stroke:#181818;stroke-width:0.6;"/><text fill="#000000" font-family="sans-serif" font-size="7.8" lengthAdjust="spacing" textLength="43.8" x="685.2" y="76.4971">theController</text></g><!--MD5=[95fdcd9f878847f3678a629c5005ec16]
link AddProductShopCartController to OrderRepository--><g id="link_AddProductShopCartController_OrderRepository"><path codeLine="33" d="M617.016,142.224 C603.294,159.384 584.148,183.312 569.022,202.218 " fill="none" id="AddProductShopCartController-to-OrderRepository" style="stroke:#181818;stroke-width:0.6;"/><polygon fill="#181818" points="567.012,204.738,572.2631,202.0276,568.8892,202.3979,568.5189,199.0241,567.012,204.738" style="stroke:#181818;stroke-width:0.6;"/><text fill="#000000" font-family="sans-serif" font-size="7.8" lengthAdjust="spacing" textLength="15" x="601.2" y="168.8971">repo</text></g><!--MD5=[13a89c5df077350b9103036e1200e8a0]
link AddProductShopCartController to ShoppingCartRepository--><g id="link_AddProductShopCartController_ShoppingCartRepository"><path codeLine="34" d="M585.36,142.23 C557.802,155.088 523.11,172.032 493.2,189 C479.964,196.506 465.786,205.608 453.93,213.54 " fill="none" id="AddProductShopCartController-to-ShoppingCartRepository" style="stroke:#181818;stroke-width:0.6;"/><polygon fill="#181818" points="451.284,215.322,457.1043,214.3004,453.7735,213.648,454.426,210.3172,451.284,215.322" style="stroke:#181818;stroke-width:0.6;"/><text fill="#000000" font-family="sans-serif" font-size="7.8" lengthAdjust="spacing" textLength="15" x="547.8" y="168.8971">repo</text></g><!--MD5=[518efccbb1ede9bde3c07aea38633ad1]
link AddProductShopCartController to ShoppingCart--><g id="link_AddProductShopCartController_ShoppingCart"><path codeLine="38" d="M690.27,142.248 C717.342,154.278 749.736,170.466 776.4,189 C786.408,195.954 796.386,205.02 804.504,213.072 " fill="none" id="AddProductShopCartController-to-ShoppingCart" style="stroke:#181818;stroke-width:0.6;"/><polygon fill="#181818" points="806.736,215.316,804.6258,209.7963,804.619,213.1904,801.2249,213.1835,806.736,215.316" style="stroke:#181818;stroke-width:0.6;"/><text fill="#000000" font-family="sans-serif" font-size="7.8" lengthAdjust="spacing" textLength="57.6" x="747.6" y="168.8971">theShoppingCart</text></g><!--MD5=[aa20f61ece58934bd8748cc241abfbc4]
link AddProductShopCartController to Product--><g id="link_AddProductShopCartController_Product"><path codeLine="39" d="M652.584,142.224 C666.552,159.69 686.136,184.17 701.382,203.226 " fill="none" id="AddProductShopCartController-to-Product" style="stroke:#181818;stroke-width:0.6;"/><polygon fill="#181818" points="703.41,205.764,701.9031,200.0501,701.5328,203.4239,698.1589,203.0536,703.41,205.764" style="stroke:#181818;stroke-width:0.6;"/><text fill="#000000" font-family="sans-serif" font-size="7.8" lengthAdjust="spacing" textLength="37.8" x="675" y="168.8971">theProduct</text></g><!--MD5=[a68f3e21f21b913849507d4172d10460]
link ViewCatalogController to Category--><g id="link_ViewCatalogController_Category"><path codeLine="40" d="M264,277.35 C264,294.756 264,313.95 264,327.978 " fill="none" id="ViewCatalogController-to-Category" style="stroke:#181818;stroke-width:0.6;"/><polygon fill="#181818" points="264,331.068,266.4,325.668,264,328.068,261.6,325.668,264,331.068" style="stroke:#181818;stroke-width:0.6;"/></g><!--MD5=[e1131d1684a62e94cf79a48d3749b7f8]
link ViewCatalogController to Brand--><g id="link_ViewCatalogController_Brand"><path codeLine="41" d="M290.28,277.35 C301.758,296.406 314.514,317.598 323.076,331.818 " fill="none" id="ViewCatalogController-to-Brand" style="stroke:#181818;stroke-width:0.6;"/><polygon fill="#181818" points="324.624,334.392,323.8894,328.5285,323.0742,331.8233,319.7794,331.0082,324.624,334.392" style="stroke:#181818;stroke-width:0.6;"/></g><!--MD5=[4a2dd4d91db26e5e279d53454f3e55ca]
link ViewCatalogController to ShortDescription--><g id="link_ViewCatalogController_ShortDescription"><path codeLine="42" d="M322.05,277.35 C347.814,296.724 376.512,318.306 395.418,332.52 " fill="none" id="ViewCatalogController-to-ShortDescription" style="stroke:#181818;stroke-width:0.6;"/><polygon fill="#181818" points="397.902,334.392,395.0338,329.2254,395.5061,332.5865,392.145,333.0589,397.902,334.392" style="stroke:#181818;stroke-width:0.6;"/></g><!--MD5=[3c038c8cec0f9d07a15919f2452bfd9d]
link AddProductShopCartUI to ShoppingCart--><g id="link_AddProductShopCartUI_ShoppingCart"><path codeLine="43" d="M746.112,49.98 C764.616,75.33 793.584,118.542 809.4,160.2 C815.826,177.126 819.186,197.502 820.902,212.304 " fill="none" id="AddProductShopCartUI-to-ShoppingCart" style="stroke:#181818;stroke-width:0.6;stroke-dasharray:7.0,7.0;"/><polygon fill="#181818" points="821.244,215.376,823.0436,209.7474,820.9183,212.3937,818.272,210.2684,821.244,215.376" style="stroke:#181818;stroke-width:0.6;"/><text fill="#000000" font-family="sans-serif" font-size="7.8" lengthAdjust="spacing" textLength="57.6" x="801.6" y="122.6971">theShoppingCart</text></g><!--MD5=[201364d21bfd415ec2c4aa4dfbf507ed]
link ViewCatalogController to ProductRepository--><g id="link_ViewCatalogController_ProductRepository"><path codeLine="44" d="M228.576,277.35 C215.868,293.016 201.984,310.116 191.04,323.61 " fill="none" id="ViewCatalogController-to-ProductRepository" style="stroke:#181818;stroke-width:0.6;"/><polygon fill="#181818" points="189.03,326.082,194.2919,323.3927,190.9166,323.7495,190.5599,320.3742,189.03,326.082" style="stroke:#181818;stroke-width:0.6;"/><text fill="#000000" font-family="sans-serif" font-size="7.8" lengthAdjust="spacing" textLength="15" x="213" y="303.8971">repo</text></g><!--MD5=[12f7310e23388535722b820f24ba4c8a]
link ViewCatalogController to ProductSorter--><g id="link_ViewCatalogController_ProductSorter"><path codeLine="45" d="M184.236,277.35 C156.582,292.488 126.462,308.97 102.222,322.236 " fill="none" id="ViewCatalogController-to-ProductSorter" style="stroke:#181818;stroke-width:0.6;"/><polygon fill="#181818" points="99.294,323.838,105.1832,323.3511,101.9257,322.3978,102.879,319.1403,99.294,323.838" style="stroke:#181818;stroke-width:0.6;"/><text fill="#000000" font-family="sans-serif" font-size="7.8" lengthAdjust="spacing" textLength="19.8" x="147.6" y="303.8971">sorter</text></g><!--MD5=[bb21627f9dd8969258e5fcc2e516c287]
@startuml
skinparam classAttributeIconSize 0


class AddProductShopCartUI <<presentation>>


class AddProductShopCartController <<application>>
class OrderRepository <<repository>>
class ViewCatalogController <<application>>

class ProductSorter
class ProductRepository <<repository>>
class ShoppingCartRepository <<repository>>

entity ShoppingCart <<Entity>>


entity Costumer <<Entity>> <<Root>>

entity Product <<Entity>> <<Root>> {
- ProductDescription
}

    entity Category <<Entity>>




AddProductShopCartController - ->Costumer
AddProductShopCartController - ->ViewCatalogController
AddProductShopCartUI - -> AddProductShopCartController : theController
AddProductShopCartUI : doShow()
AddProductShopCartController - -> OrderRepository : repo
AddProductShopCartController - -> ShoppingCartRepository : repo
AddProductShopCartController : addProductShopCart()
OrderRepository : save(order)
OrderRepository : findById(OrderID)
AddProductShopCartController - -> ShoppingCart : theShoppingCart
AddProductShopCartController - -> Product : theProduct
ViewCatalogController - -> Category
ViewCatalogController - ->Brand
ViewCatalogController - ->ShortDescription
AddProductShopCartUI ..> ShoppingCart : theShoppingCart
ViewCatalogController - -> ProductRepository : repo
ViewCatalogController - -> ProductSorter : sorter
ProductSorter : sortByPrice(productList)
ProductSorter : sortByName(productList)
ViewCatalogController : getProductByBrand( brand)
ViewCatalogController : getProductByCategory( category)
ViewCatalogController : getProductByDescription( shortDescription)
ViewCatalogController : sortByPrice( productList)
ViewCatalogController : sortByDescription( productList)

ProductRepository : findAllProducts()

@enduml

PlantUML version 1.2022.4(Sat Apr 09 14:29:17 BST 2022)
(GPL source distribution)
Java Runtime: OpenJDK Runtime Environment
JVM: OpenJDK 64-Bit Server VM
Default Encoding: Cp1252
Language: pt
Country: PT
--></g></svg>