<?xml version="1.0" encoding="UTF-8" standalone="no"?><svg xmlns="http://www.w3.org/2000/svg" xmlns:xlink="http://www.w3.org/1999/xlink" contentStyleType="text/css" height="448.7px" preserveAspectRatio="none" style="width:431px;height:448px;background:#FFFFFF;" version="1.1" viewBox="0 0 431 448" width="431.9px" zoomAndPan="magnify"><defs/><g><rect fill="#FFFFFF" height="314.4914" style="stroke:#181818;stroke-width:0.6999999999999998;" width="7" x="33.95" y="64.8266"/><rect fill="#FFFFFF" height="21.2461" style="stroke:#181818;stroke-width:0.6999999999999998;" width="7" x="395.15" y="80.4727"/><rect fill="#FFFFFF" height="38.9922" style="stroke:#181818;stroke-width:0.6999999999999998;" width="7" x="395.15" y="122.9648"/><rect fill="#FFFFFF" height="21.2461" style="stroke:#181818;stroke-width:0.6999999999999998;" width="7" x="395.15" y="183.2031"/><rect fill="#FFFFFF" height="21.2461" style="stroke:#181818;stroke-width:0.6999999999999998;" width="7" x="395.15" y="225.6953"/><rect fill="#FFFFFF" height="21.2461" style="stroke:#181818;stroke-width:0.6999999999999998;" width="7" x="395.15" y="268.1875"/><rect fill="#FFFFFF" height="26.1461" style="stroke:#181818;stroke-width:0.6999999999999998;" width="7" x="395.15" y="310.6797"/><rect fill="#FFFFFF" height="21.2461" style="stroke:#181818;stroke-width:0.6999999999999998;" width="7" x="395.15" y="358.0719"/><rect height="182.8148" style="stroke:#000000;stroke-width:1.0499999999999998;fill:none;" width="421.05" x="7" y="133.4648"/><line style="stroke:#181818;stroke-width:0.3499999999999999;fill:none;stroke-dasharray:5.0,5.0;" x1="37.1" x2="37.1" y1="57.8266" y2="391.918"/><line style="stroke:#181818;stroke-width:0.3499999999999999;fill:none;stroke-dasharray:5.0,5.0;" x1="398.65" x2="398.65" y1="57.8266" y2="391.918"/><text fill="#000000" font-family="sans-serif" font-size="9.8" lengthAdjust="spacing" textLength="42.7" x="14" y="55.6732">Customer</text><ellipse cx="37.45" cy="9.45" fill="#E2E2F0" rx="5.6" ry="5.6" style="stroke:#181818;stroke-width:0.3499999999999999;"/><path d="M37.45,15.05 L37.45,33.95 M28.35,20.65 L46.55,20.65 M37.45,33.95 L28.35,44.45 M37.45,33.95 L46.55,44.45 " fill="none" style="stroke:#181818;stroke-width:0.3499999999999999;"/><text fill="#000000" font-family="sans-serif" font-size="9.8" lengthAdjust="spacing" textLength="42.7" x="14" y="401.3912">Customer</text><ellipse cx="37.45" cy="409.4945" fill="#E2E2F0" rx="5.6" ry="5.6" style="stroke:#181818;stroke-width:0.3499999999999999;"/><path d="M37.45,415.0945 L37.45,433.9945 M28.35,420.6945 L46.55,420.6945 M37.45,433.9945 L28.35,444.4945 M37.45,433.9945 L46.55,444.4945 " fill="none" style="stroke:#181818;stroke-width:0.3499999999999999;"/><rect fill="#E2E2F0" height="22.1266" rx="1.75" ry="1.75" style="stroke:#181818;stroke-width:0.3499999999999999;" width="44.8" x="376.25" y="35"/><text fill="#000000" font-family="sans-serif" font-size="9.8" lengthAdjust="spacing" textLength="35" x="381.15" y="50.0732">:System</text><rect fill="#E2E2F0" height="22.1266" rx="1.75" ry="1.75" style="stroke:#181818;stroke-width:0.3499999999999999;" width="44.8" x="376.25" y="391.218"/><text fill="#000000" font-family="sans-serif" font-size="9.8" lengthAdjust="spacing" textLength="35" x="381.15" y="406.2912">:System</text><rect fill="#FFFFFF" height="314.4914" style="stroke:#181818;stroke-width:0.6999999999999998;" width="7" x="33.95" y="64.8266"/><rect fill="#FFFFFF" height="21.2461" style="stroke:#181818;stroke-width:0.6999999999999998;" width="7" x="395.15" y="80.4727"/><rect fill="#FFFFFF" height="38.9922" style="stroke:#181818;stroke-width:0.6999999999999998;" width="7" x="395.15" y="122.9648"/><rect fill="#FFFFFF" height="21.2461" style="stroke:#181818;stroke-width:0.6999999999999998;" width="7" x="395.15" y="183.2031"/><rect fill="#FFFFFF" height="21.2461" style="stroke:#181818;stroke-width:0.6999999999999998;" width="7" x="395.15" y="225.6953"/><rect fill="#FFFFFF" height="21.2461" style="stroke:#181818;stroke-width:0.6999999999999998;" width="7" x="395.15" y="268.1875"/><rect fill="#FFFFFF" height="26.1461" style="stroke:#181818;stroke-width:0.6999999999999998;" width="7" x="395.15" y="310.6797"/><rect fill="#FFFFFF" height="21.2461" style="stroke:#181818;stroke-width:0.6999999999999998;" width="7" x="395.15" y="358.0719"/><polygon fill="#181818" points="386.75,77.6727,393.75,80.4727,386.75,83.2727,389.55,80.4727" style="stroke:#181818;stroke-width:0.6999999999999998;"/><line style="stroke:#181818;stroke-width:0.6999999999999998;" x1="40.95" x2="390.95" y1="80.4727" y2="80.4727"/><text fill="#000000" font-family="sans-serif" font-size="9.1" font-weight="bold" lengthAdjust="spacing" textLength="4.9" x="45.85" y="77.0731">1</text><text fill="#000000" font-family="sans-serif" font-size="9.1" lengthAdjust="spacing" textLength="226.8" x="53.55" y="77.0731">starts to create new product's order for a given costumer</text><polygon fill="#181818" points="48.65,98.9187,41.65,101.7187,48.65,104.5187,45.85,101.7187" style="stroke:#181818;stroke-width:0.6999999999999998;"/><line style="stroke:#181818;stroke-width:0.6999999999999998;stroke-dasharray:2.0,2.0;" x1="44.45" x2="397.95" y1="101.7187" y2="101.7187"/><text fill="#000000" font-family="sans-serif" font-size="9.1" font-weight="bold" lengthAdjust="spacing" textLength="4.9" x="52.85" y="98.3192">2</text><text fill="#000000" font-family="sans-serif" font-size="9.1" lengthAdjust="spacing" textLength="95.9" x="60.55" y="98.3192">shows list of costumers</text><polygon fill="#181818" points="386.75,120.1648,393.75,122.9648,386.75,125.7648,389.55,122.9648" style="stroke:#181818;stroke-width:0.6999999999999998;"/><line style="stroke:#181818;stroke-width:0.6999999999999998;" x1="40.95" x2="390.95" y1="122.9648" y2="122.9648"/><text fill="#000000" font-family="sans-serif" font-size="9.1" font-weight="bold" lengthAdjust="spacing" textLength="4.9" x="45.85" y="119.5653">3</text><text fill="#000000" font-family="sans-serif" font-size="9.1" lengthAdjust="spacing" textLength="126.7" x="53.55" y="119.5653">types the chosen costumer's id</text><path d="M7,133.4648 L58.1,133.4648 L58.1,139.3109 L51.1,146.3109 L7,146.3109 L7,133.4648 " fill="#EEEEEE" style="stroke:#000000;stroke-width:1.0499999999999998;"/><rect fill="none" height="182.8148" style="stroke:#000000;stroke-width:1.0499999999999998;" width="421.05" x="7" y="133.4648"/><text fill="#000000" font-family="sans-serif" font-size="9.1" font-weight="bold" lengthAdjust="spacing" textLength="19.6" x="17.5" y="143.6114">loop</text><text fill="#000000" font-family="sans-serif" font-size="7.7" font-weight="bold" lengthAdjust="spacing" textLength="43.4" x="68.6" y="142.8581">[until exits]</text><polygon fill="#181818" points="48.65,159.157,41.65,161.957,48.65,164.757,45.85,161.957" style="stroke:#181818;stroke-width:0.6999999999999998;"/><line style="stroke:#181818;stroke-width:0.6999999999999998;stroke-dasharray:2.0,2.0;" x1="44.45" x2="397.95" y1="161.957" y2="161.957"/><text fill="#000000" font-family="sans-serif" font-size="9.1" font-weight="bold" lengthAdjust="spacing" textLength="4.9" x="52.85" y="158.5575">4</text><text fill="#000000" font-family="sans-serif" font-size="9.1" lengthAdjust="spacing" textLength="254.8" x="60.55" y="158.5575">asks for a field(category,description, brand..)to filter the catalog</text><polygon fill="#181818" points="386.75,180.4031,393.75,183.2031,386.75,186.0031,389.55,183.2031" style="stroke:#181818;stroke-width:0.6999999999999998;"/><line style="stroke:#181818;stroke-width:0.6999999999999998;" x1="40.95" x2="390.95" y1="183.2031" y2="183.2031"/><text fill="#000000" font-family="sans-serif" font-size="9.1" font-weight="bold" lengthAdjust="spacing" textLength="4.9" x="45.85" y="179.8036">5</text><text fill="#000000" font-family="sans-serif" font-size="9.1" lengthAdjust="spacing" textLength="56.7" x="53.55" y="179.8036">types the field</text><polygon fill="#181818" points="48.65,201.6492,41.65,204.4492,48.65,207.2492,45.85,204.4492" style="stroke:#181818;stroke-width:0.6999999999999998;"/><line style="stroke:#181818;stroke-width:0.6999999999999998;stroke-dasharray:2.0,2.0;" x1="44.45" x2="397.95" y1="204.4492" y2="204.4492"/><text fill="#000000" font-family="sans-serif" font-size="9.1" font-weight="bold" lengthAdjust="spacing" textLength="4.9" x="52.85" y="201.0497">6</text><text fill="#000000" font-family="sans-serif" font-size="9.1" lengthAdjust="spacing" textLength="329.7" x="60.55" y="201.0497">shows list of products and asks to choose how to order the list (by name or price)</text><polygon fill="#181818" points="386.75,222.8953,393.75,225.6953,386.75,228.4953,389.55,225.6953" style="stroke:#181818;stroke-width:0.6999999999999998;"/><line style="stroke:#181818;stroke-width:0.6999999999999998;" x1="40.95" x2="390.95" y1="225.6953" y2="225.6953"/><text fill="#000000" font-family="sans-serif" font-size="9.1" font-weight="bold" lengthAdjust="spacing" textLength="4.9" x="45.85" y="222.2958">7</text><text fill="#000000" font-family="sans-serif" font-size="9.1" lengthAdjust="spacing" textLength="86.8" x="53.55" y="222.2958">chooses how to order</text><polygon fill="#181818" points="48.65,244.1414,41.65,246.9414,48.65,249.7414,45.85,246.9414" style="stroke:#181818;stroke-width:0.6999999999999998;"/><line style="stroke:#181818;stroke-width:0.6999999999999998;stroke-dasharray:2.0,2.0;" x1="44.45" x2="397.95" y1="246.9414" y2="246.9414"/><text fill="#000000" font-family="sans-serif" font-size="9.1" font-weight="bold" lengthAdjust="spacing" textLength="4.9" x="52.85" y="243.5419">8</text><text fill="#000000" font-family="sans-serif" font-size="9.1" lengthAdjust="spacing" textLength="165.9" x="60.55" y="243.5419">shows list of products and asks for the id</text><polygon fill="#181818" points="386.75,265.3875,393.75,268.1875,386.75,270.9875,389.55,268.1875" style="stroke:#181818;stroke-width:0.6999999999999998;"/><line style="stroke:#181818;stroke-width:0.6999999999999998;" x1="40.95" x2="390.95" y1="268.1875" y2="268.1875"/><text fill="#000000" font-family="sans-serif" font-size="9.1" font-weight="bold" lengthAdjust="spacing" textLength="4.9" x="45.85" y="264.788">9</text><text fill="#000000" font-family="sans-serif" font-size="9.1" lengthAdjust="spacing" textLength="119" x="53.55" y="264.788">types the chosen product's id</text><polygon fill="#181818" points="48.65,286.6336,41.65,289.4336,48.65,292.2336,45.85,289.4336" style="stroke:#181818;stroke-width:0.6999999999999998;"/><line style="stroke:#181818;stroke-width:0.6999999999999998;stroke-dasharray:2.0,2.0;" x1="44.45" x2="397.95" y1="289.4336" y2="289.4336"/><text fill="#000000" font-family="sans-serif" font-size="9.1" font-weight="bold" lengthAdjust="spacing" textLength="9.8" x="52.85" y="286.0341">10</text><text fill="#000000" font-family="sans-serif" font-size="9.1" lengthAdjust="spacing" textLength="100.8" x="65.45" y="286.0341">shows all data of product</text><polygon fill="#181818" points="386.75,307.8797,393.75,310.6797,386.75,313.4797,389.55,310.6797" style="stroke:#181818;stroke-width:0.6999999999999998;"/><line style="stroke:#181818;stroke-width:0.6999999999999998;" x1="40.95" x2="390.95" y1="310.6797" y2="310.6797"/><text fill="#000000" font-family="sans-serif" font-size="9.1" font-weight="bold" lengthAdjust="spacing" textLength="9.8" x="45.85" y="307.2802">11</text><text fill="#000000" font-family="sans-serif" font-size="9.1" lengthAdjust="spacing" textLength="135.8" x="58.45" y="307.2802">adds product to the shopping cart</text><polygon fill="#181818" points="48.65,334.0258,41.65,336.8258,48.65,339.6258,45.85,336.8258" style="stroke:#181818;stroke-width:0.6999999999999998;"/><line style="stroke:#181818;stroke-width:0.6999999999999998;stroke-dasharray:2.0,2.0;" x1="44.45" x2="397.95" y1="336.8258" y2="336.8258"/><text fill="#000000" font-family="sans-serif" font-size="9.1" font-weight="bold" lengthAdjust="spacing" textLength="9.8" x="52.85" y="333.4263">12</text><text fill="#000000" font-family="sans-serif" font-size="9.1" lengthAdjust="spacing" textLength="236.6" x="65.45" y="333.4263">shows price of the order with the shipping and sales region</text><polygon fill="#181818" points="386.75,355.2719,393.75,358.0719,386.75,360.8719,389.55,358.0719" style="stroke:#181818;stroke-width:0.6999999999999998;"/><line style="stroke:#181818;stroke-width:0.6999999999999998;" x1="40.95" x2="390.95" y1="358.0719" y2="358.0719"/><text fill="#000000" font-family="sans-serif" font-size="9.1" font-weight="bold" lengthAdjust="spacing" textLength="9.8" x="45.85" y="354.6724">13</text><text fill="#000000" font-family="sans-serif" font-size="9.1" lengthAdjust="spacing" textLength="105" x="58.45" y="354.6724">chooses payment method</text><polygon fill="#181818" points="45.15,376.518,38.15,379.318,45.15,382.118,42.35,379.318" style="stroke:#181818;stroke-width:0.6999999999999998;"/><line style="stroke:#181818;stroke-width:0.6999999999999998;stroke-dasharray:2.0,2.0;" x1="40.95" x2="397.95" y1="379.318" y2="379.318"/><text fill="#000000" font-family="sans-serif" font-size="9.1" font-weight="bold" lengthAdjust="spacing" textLength="9.8" x="49.35" y="375.9185">14</text><text fill="#000000" font-family="sans-serif" font-size="9.1" lengthAdjust="spacing" textLength="184.8" x="61.95" y="375.9185">shows all data and informs operation success</text><!--MD5=[487fdefdb4a16ffbab7f3cf82b900c56]
@startuml
autonumber
actor "Customer" as C

activate C
C -> ":System" : starts to create new product's order for a given costumer
activate ":System"

":System" - -> C : shows list of costumers
deactivate ":System"

C -> ":System" : types the chosen costumer's id
activate ":System"
loop until exits
":System" - -> C : asks for a field(category,description, brand..)to filter the catalog
deactivate ":System"

C -> ":System" : types the field
activate ":System"

":System" - -> C : shows list of products and asks to choose how to order the list (by name or price)
deactivate ":System"

C -> ":System" : chooses how to order
activate ":System"

":System" - -> C : shows list of products and asks for the id
deactivate ":System"

C -> ":System" : types the chosen product's id

activate ":System"

":System" - -> C : shows all data of product
deactivate ":System"

C -> ":System" : adds product to the shopping cart

activate ":System"
end loop;

":System" - -> C : shows price of the order with the shipping and sales region

deactivate ":System"
C -> ":System" : chooses payment method
activate ":System"

":System" - -> C :shows all data and informs operation success

deactivate ":System"
deactivate C

@enduml

PlantUML version 1.2022.4(Sat Apr 09 14:29:17 BST 2022)
(GPL source distribution)
Java Runtime: OpenJDK Runtime Environment
JVM: OpenJDK 64-Bit Server VM
Default Encoding: Cp1252
Language: pt
Country: PT
--></g></svg>