<?xml version="1.0" encoding="UTF-8" standalone="no"?><svg xmlns="http://www.w3.org/2000/svg" xmlns:xlink="http://www.w3.org/1999/xlink" contentStyleType="text/css" height="494px" preserveAspectRatio="none" style="width:357px;height:494px;background:#FFFFFF;" version="1.1" viewBox="0 0 357 494" width="357px" zoomAndPan="magnify"><defs/><g><!--MD5=[b3f6d21f3daf8bd1dee920b8f53c2975]
class WebDashboard--><g id="elem_WebDashboard"><rect codeLine="4" fill="#F1F1F1" height="48" id="WebDashboard" rx="2.5" ry="2.5" style="stroke:#181818;stroke-width:0.5;" width="142" x="112" y="7"/><ellipse cx="127" cy="23" fill="#ADD1B2" rx="11" ry="11" style="stroke:#181818;stroke-width:1.0;"/><path d="M129.3438,18.6719 C128.4063,18.2344 127.8125,18.0938 126.9375,18.0938 C124.3125,18.0938 122.3125,20.1719 122.3125,22.8906 L122.3125,24.0156 C122.3125,26.5938 124.4219,28.4844 127.3125,28.4844 C128.5313,28.4844 129.6875,28.1875 130.4375,27.6406 C131.0156,27.2344 131.3438,26.7813 131.3438,26.3906 C131.3438,25.9375 130.9531,25.5469 130.4844,25.5469 C130.2656,25.5469 130.0625,25.625 129.875,25.8125 C129.4219,26.2969 129.4219,26.2969 129.2344,26.3906 C128.8125,26.6563 128.125,26.7813 127.3594,26.7813 C125.3125,26.7813 124.0156,25.6875 124.0156,23.9844 L124.0156,22.8906 C124.0156,21.1094 125.2656,19.7969 127,19.7969 C127.5781,19.7969 128.1875,19.9531 128.6563,20.2031 C129.1406,20.4844 129.3125,20.7031 129.4063,21.1094 C129.4688,21.5156 129.5,21.6406 129.6406,21.7656 C129.7813,21.9063 130.0156,22.0156 130.2344,22.0156 C130.5,22.0156 130.7656,21.875 130.9375,21.6563 C131.0469,21.5 131.0781,21.3125 131.0781,20.8906 L131.0781,19.4688 C131.0781,19.0313 131.0625,18.9063 130.9688,18.75 C130.8125,18.4844 130.5313,18.3438 130.2344,18.3438 C129.9375,18.3438 129.7344,18.4375 129.5156,18.75 L129.3438,18.6719 Z " fill="#000000"/><text fill="#000000" font-family="sans-serif" font-size="14" lengthAdjust="spacing" textLength="110" x="141" y="27.8467">WebDashboard</text><line style="stroke:#181818;stroke-width:0.5;" x1="113" x2="253" y1="39" y2="39"/><line style="stroke:#181818;stroke-width:0.5;" x1="113" x2="253" y1="47" y2="47"/></g><!--MD5=[550b08800643a28dc1ae460f5d79b529]
class HTTPAjaxRequest--><g id="elem_HTTPAjaxRequest"><rect codeLine="7" fill="#F1F1F1" height="48" id="HTTPAjaxRequest" rx="2.5" ry="2.5" style="stroke:#181818;stroke-width:0.5;" width="158" x="7" y="223"/><ellipse cx="22" cy="239" fill="#ADD1B2" rx="11" ry="11" style="stroke:#181818;stroke-width:1.0;"/><path d="M24.3438,234.6719 C23.4063,234.2344 22.8125,234.0938 21.9375,234.0938 C19.3125,234.0938 17.3125,236.1719 17.3125,238.8906 L17.3125,240.0156 C17.3125,242.5938 19.4219,244.4844 22.3125,244.4844 C23.5313,244.4844 24.6875,244.1875 25.4375,243.6406 C26.0156,243.2344 26.3438,242.7813 26.3438,242.3906 C26.3438,241.9375 25.9531,241.5469 25.4844,241.5469 C25.2656,241.5469 25.0625,241.625 24.875,241.8125 C24.4219,242.2969 24.4219,242.2969 24.2344,242.3906 C23.8125,242.6563 23.125,242.7813 22.3594,242.7813 C20.3125,242.7813 19.0156,241.6875 19.0156,239.9844 L19.0156,238.8906 C19.0156,237.1094 20.2656,235.7969 22,235.7969 C22.5781,235.7969 23.1875,235.9531 23.6563,236.2031 C24.1406,236.4844 24.3125,236.7031 24.4063,237.1094 C24.4688,237.5156 24.5,237.6406 24.6406,237.7656 C24.7813,237.9063 25.0156,238.0156 25.2344,238.0156 C25.5,238.0156 25.7656,237.875 25.9375,237.6563 C26.0469,237.5 26.0781,237.3125 26.0781,236.8906 L26.0781,235.4688 C26.0781,235.0313 26.0625,234.9063 25.9688,234.75 C25.8125,234.4844 25.5313,234.3438 25.2344,234.3438 C24.9375,234.3438 24.7344,234.4375 24.5156,234.75 L24.3438,234.6719 Z " fill="#000000"/><text fill="#000000" font-family="sans-serif" font-size="14" lengthAdjust="spacing" textLength="126" x="36" y="243.8467">HTTPAjaxRequest</text><line style="stroke:#181818;stroke-width:0.5;" x1="8" x2="164" y1="255" y2="255"/><line style="stroke:#181818;stroke-width:0.5;" x1="8" x2="164" y1="263" y2="263"/></g><!--MD5=[651f324bbc73f451a51eb2620fccdf4e]
class HTTPmessage--><g id="elem_HTTPmessage"><rect codeLine="10" fill="#F1F1F1" height="48" id="HTTPmessage" rx="2.5" ry="2.5" style="stroke:#181818;stroke-width:0.5;" width="132" x="20" y="439"/><ellipse cx="35" cy="455" fill="#ADD1B2" rx="11" ry="11" style="stroke:#181818;stroke-width:1.0;"/><path d="M37.3438,450.6719 C36.4063,450.2344 35.8125,450.0938 34.9375,450.0938 C32.3125,450.0938 30.3125,452.1719 30.3125,454.8906 L30.3125,456.0156 C30.3125,458.5938 32.4219,460.4844 35.3125,460.4844 C36.5313,460.4844 37.6875,460.1875 38.4375,459.6406 C39.0156,459.2344 39.3438,458.7813 39.3438,458.3906 C39.3438,457.9375 38.9531,457.5469 38.4844,457.5469 C38.2656,457.5469 38.0625,457.625 37.875,457.8125 C37.4219,458.2969 37.4219,458.2969 37.2344,458.3906 C36.8125,458.6563 36.125,458.7813 35.3594,458.7813 C33.3125,458.7813 32.0156,457.6875 32.0156,455.9844 L32.0156,454.8906 C32.0156,453.1094 33.2656,451.7969 35,451.7969 C35.5781,451.7969 36.1875,451.9531 36.6563,452.2031 C37.1406,452.4844 37.3125,452.7031 37.4063,453.1094 C37.4688,453.5156 37.5,453.6406 37.6406,453.7656 C37.7813,453.9063 38.0156,454.0156 38.2344,454.0156 C38.5,454.0156 38.7656,453.875 38.9375,453.6563 C39.0469,453.5 39.0781,453.3125 39.0781,452.8906 L39.0781,451.4688 C39.0781,451.0313 39.0625,450.9063 38.9688,450.75 C38.8125,450.4844 38.5313,450.3438 38.2344,450.3438 C37.9375,450.3438 37.7344,450.4375 37.5156,450.75 L37.3438,450.6719 Z " fill="#000000"/><text fill="#000000" font-family="sans-serif" font-size="14" lengthAdjust="spacing" textLength="100" x="49" y="459.8467">HTTPmessage</text><line style="stroke:#181818;stroke-width:0.5;" x1="21" x2="151" y1="471" y2="471"/><line style="stroke:#181818;stroke-width:0.5;" x1="21" x2="151" y1="479" y2="479"/></g><!--MD5=[a2934c79e3adc781b0cd87c74812aba5]
class AGVRepository--><g id="elem_AGVRepository"><rect codeLine="13" fill="#F1F1F1" height="48" id="AGVRepository" rx="2.5" ry="2.5" style="stroke:#181818;stroke-width:0.5;" width="142" x="200" y="223"/><ellipse cx="215" cy="239" fill="#ADD1B2" rx="11" ry="11" style="stroke:#181818;stroke-width:1.0;"/><path d="M217.3438,234.6719 C216.4063,234.2344 215.8125,234.0938 214.9375,234.0938 C212.3125,234.0938 210.3125,236.1719 210.3125,238.8906 L210.3125,240.0156 C210.3125,242.5938 212.4219,244.4844 215.3125,244.4844 C216.5313,244.4844 217.6875,244.1875 218.4375,243.6406 C219.0156,243.2344 219.3438,242.7813 219.3438,242.3906 C219.3438,241.9375 218.9531,241.5469 218.4844,241.5469 C218.2656,241.5469 218.0625,241.625 217.875,241.8125 C217.4219,242.2969 217.4219,242.2969 217.2344,242.3906 C216.8125,242.6563 216.125,242.7813 215.3594,242.7813 C213.3125,242.7813 212.0156,241.6875 212.0156,239.9844 L212.0156,238.8906 C212.0156,237.1094 213.2656,235.7969 215,235.7969 C215.5781,235.7969 216.1875,235.9531 216.6563,236.2031 C217.1406,236.4844 217.3125,236.7031 217.4063,237.1094 C217.4688,237.5156 217.5,237.6406 217.6406,237.7656 C217.7813,237.9063 218.0156,238.0156 218.2344,238.0156 C218.5,238.0156 218.7656,237.875 218.9375,237.6563 C219.0469,237.5 219.0781,237.3125 219.0781,236.8906 L219.0781,235.4688 C219.0781,235.0313 219.0625,234.9063 218.9688,234.75 C218.8125,234.4844 218.5313,234.3438 218.2344,234.3438 C217.9375,234.3438 217.7344,234.4375 217.5156,234.75 L217.3438,234.6719 Z " fill="#000000"/><text fill="#000000" font-family="sans-serif" font-size="14" lengthAdjust="spacing" textLength="110" x="229" y="243.8467">AGVRepository</text><line style="stroke:#181818;stroke-width:0.5;" x1="201" x2="341" y1="255" y2="255"/><line style="stroke:#181818;stroke-width:0.5;" x1="201" x2="341" y1="263" y2="263"/></g><!--MD5=[a8f51d2c4fb7212d815781522f778f9c]
class GetAllAGVController--><g id="elem_GetAllAGVController"><rect codeLine="16" fill="#F1F1F1" height="48" id="GetAllAGVController" rx="2.5" ry="2.5" style="stroke:#181818;stroke-width:0.5;" width="181" x="169.5" y="115"/><ellipse cx="184.5" cy="131" fill="#ADD1B2" rx="11" ry="11" style="stroke:#181818;stroke-width:1.0;"/><path d="M186.8438,126.6719 C185.9063,126.2344 185.3125,126.0938 184.4375,126.0938 C181.8125,126.0938 179.8125,128.1719 179.8125,130.8906 L179.8125,132.0156 C179.8125,134.5938 181.9219,136.4844 184.8125,136.4844 C186.0313,136.4844 187.1875,136.1875 187.9375,135.6406 C188.5156,135.2344 188.8438,134.7813 188.8438,134.3906 C188.8438,133.9375 188.4531,133.5469 187.9844,133.5469 C187.7656,133.5469 187.5625,133.625 187.375,133.8125 C186.9219,134.2969 186.9219,134.2969 186.7344,134.3906 C186.3125,134.6563 185.625,134.7813 184.8594,134.7813 C182.8125,134.7813 181.5156,133.6875 181.5156,131.9844 L181.5156,130.8906 C181.5156,129.1094 182.7656,127.7969 184.5,127.7969 C185.0781,127.7969 185.6875,127.9531 186.1563,128.2031 C186.6406,128.4844 186.8125,128.7031 186.9063,129.1094 C186.9688,129.5156 187,129.6406 187.1406,129.7656 C187.2813,129.9063 187.5156,130.0156 187.7344,130.0156 C188,130.0156 188.2656,129.875 188.4375,129.6563 C188.5469,129.5 188.5781,129.3125 188.5781,128.8906 L188.5781,127.4688 C188.5781,127.0313 188.5625,126.9063 188.4688,126.75 C188.3125,126.4844 188.0313,126.3438 187.7344,126.3438 C187.4375,126.3438 187.2344,126.4375 187.0156,126.75 L186.8438,126.6719 Z " fill="#000000"/><text fill="#000000" font-family="sans-serif" font-size="14" lengthAdjust="spacing" textLength="149" x="198.5" y="135.8467">GetAllAGVController</text><line style="stroke:#181818;stroke-width:0.5;" x1="170.5" x2="349.5" y1="147" y2="147"/><line style="stroke:#181818;stroke-width:0.5;" x1="170.5" x2="349.5" y1="155" y2="155"/></g><!--MD5=[53b2c06ade5903185ca3326dce80e141]
class AGV--><g id="elem_AGV"><rect codeLine="19" fill="#F1F1F1" height="48" id="AGV" rx="2.5" ry="2.5" style="stroke:#181818;stroke-width:0.5;" width="63" x="239.5" y="331"/><ellipse cx="254.5" cy="347" fill="#ADD1B2" rx="11" ry="11" style="stroke:#181818;stroke-width:1.0;"/><path d="M256.8438,342.6719 C255.9063,342.2344 255.3125,342.0938 254.4375,342.0938 C251.8125,342.0938 249.8125,344.1719 249.8125,346.8906 L249.8125,348.0156 C249.8125,350.5938 251.9219,352.4844 254.8125,352.4844 C256.0313,352.4844 257.1875,352.1875 257.9375,351.6406 C258.5156,351.2344 258.8438,350.7813 258.8438,350.3906 C258.8438,349.9375 258.4531,349.5469 257.9844,349.5469 C257.7656,349.5469 257.5625,349.625 257.375,349.8125 C256.9219,350.2969 256.9219,350.2969 256.7344,350.3906 C256.3125,350.6563 255.625,350.7813 254.8594,350.7813 C252.8125,350.7813 251.5156,349.6875 251.5156,347.9844 L251.5156,346.8906 C251.5156,345.1094 252.7656,343.7969 254.5,343.7969 C255.0781,343.7969 255.6875,343.9531 256.1563,344.2031 C256.6406,344.4844 256.8125,344.7031 256.9063,345.1094 C256.9688,345.5156 257,345.6406 257.1406,345.7656 C257.2813,345.9063 257.5156,346.0156 257.7344,346.0156 C258,346.0156 258.2656,345.875 258.4375,345.6563 C258.5469,345.5 258.5781,345.3125 258.5781,344.8906 L258.5781,343.4688 C258.5781,343.0313 258.5625,342.9063 258.4688,342.75 C258.3125,342.4844 258.0313,342.3438 257.7344,342.3438 C257.4375,342.3438 257.2344,342.4375 257.0156,342.75 L256.8438,342.6719 Z " fill="#000000"/><text fill="#000000" font-family="sans-serif" font-size="14" lengthAdjust="spacing" textLength="31" x="268.5" y="351.8467">AGV</text><line style="stroke:#181818;stroke-width:0.5;" x1="240.5" x2="301.5" y1="363" y2="363"/><line style="stroke:#181818;stroke-width:0.5;" x1="240.5" x2="301.5" y1="371" y2="371"/></g><!--MD5=[e26d22c09264c74a57d6bc4dc17de21b]
link WebDashboard to HTTPAjaxRequest--><g id="link_WebDashboard_HTTPAjaxRequest"><path codeLine="23" d="M172.435,55.309 C154.468,94.946 118.037,175.32 98.7088,217.962 " fill="none" id="WebDashboard-to-HTTPAjaxRequest" style="stroke:#181818;stroke-width:1.0;stroke-dasharray:7.0,7.0;"/><polygon fill="#181818" points="96.5523,222.72,103.9112,216.1743,98.6166,218.166,96.6248,212.8714,96.5523,222.72" style="stroke:#181818;stroke-width:1.0;"/></g><!--MD5=[c84c59cdfdc2c7f70c18c7d5ff336d02]
link HTTPAjaxRequest to HTTPmessage--><g id="link_HTTPAjaxRequest_HTTPmessage"><path codeLine="24" d="M86,271.309 C86,310.866 86,390.9938 86,433.702 " fill="none" id="HTTPAjaxRequest-to-HTTPmessage" style="stroke:#181818;stroke-width:1.0;stroke-dasharray:7.0,7.0;"/><polygon fill="#181818" points="86,438.7196,90,429.7196,86,433.7196,82,429.7196,86,438.7196" style="stroke:#181818;stroke-width:1.0;"/></g><!--MD5=[62f0cb7a95fc3d83402c24b6ec8b3b20]
link WebDashboard to GetAllAGVController--><g id="link_WebDashboard_GetAllAGVController"><path codeLine="25" d="M199.708,55 C211.533,71.279 227.447,93.187 239.956,110.408 " fill="none" id="WebDashboard-to-GetAllAGVController" style="stroke:#181818;stroke-width:1.0;stroke-dasharray:7.0,7.0;"/><polygon fill="#181818" points="243.059,114.678,241.0063,105.0454,240.1206,110.6325,234.5335,109.7469,243.059,114.678" style="stroke:#181818;stroke-width:1.0;"/></g><!--MD5=[2a591ff83db4e74dbdb28feb7f27427e]
link GetAllAGVController to AGVRepository--><g id="link_GetAllAGVController_AGVRepository"><path codeLine="26" d="M262.387,163 C264.047,179.003 266.273,200.446 268.045,217.528 " fill="none" id="GetAllAGVController-to-AGVRepository" style="stroke:#181818;stroke-width:1.0;stroke-dasharray:7.0,7.0;"/><polygon fill="#181818" points="268.58,222.678,271.6276,213.3125,268.0628,217.7048,263.6705,214.14,268.58,222.678" style="stroke:#181818;stroke-width:1.0;"/></g><!--MD5=[44c78d46300cbd445cde51c8cf6651a2]
link AGVRepository to AGV--><g id="link_AGVRepository_AGV"><path codeLine="27" d="M271,271 C271,287.003 271,308.446 271,325.528 " fill="none" id="AGVRepository-to-AGV" style="stroke:#181818;stroke-width:1.0;stroke-dasharray:7.0,7.0;"/><polygon fill="#181818" points="271,330.678,275,321.678,271,325.678,267,321.678,271,330.678" style="stroke:#181818;stroke-width:1.0;"/></g><!--MD5=[ce3fc77cc9658d7da41d436884906765]
@startuml
skinparam classAttributeIconSize 0


class WebDashboard {
}

class HTTPAjaxRequest {
}

class HTTPmessage {
}

class AGVRepository{
}

class GetAllAGVController{
}

class AGV{
}


WebDashboard ...> HTTPAjaxRequest
HTTPAjaxRequest ...> HTTPmessage
WebDashboard ..> GetAllAGVController
GetAllAGVController ..> AGVRepository
AGVRepository ..> AGV
@enduml

PlantUML version 1.2022.6beta5(Unknown compile time)
(GPL source distribution)
Java Runtime: Java(TM) SE Runtime Environment
JVM: Java HotSpot(TM) 64-Bit Server VM
Default Encoding: UTF-8
Language: en
Country: US
--></g></svg>