<?xml version="1.0" encoding="UTF-8" standalone="no"?><svg xmlns="http://www.w3.org/2000/svg" xmlns:xlink="http://www.w3.org/1999/xlink" contentStyleType="text/css" height="579px" preserveAspectRatio="none" style="width:948px;height:579px;background:#FFFFFF;" version="1.1" viewBox="0 0 948 579" width="948px" zoomAndPan="magnify"><defs/><g><rect fill="#FFFFFF" height="386.5703" style="stroke:#181818;stroke-width:1.0;" width="10" x="33.5" y="92.6094"/><rect fill="#FFFFFF" height="151.7578" style="stroke:#181818;stroke-width:1.0;" width="10" x="361.5" y="114.9609"/><rect fill="#FFFFFF" height="30.3516" style="stroke:#181818;stroke-width:1.0;" width="10" x="361.5" y="297.0703"/><rect fill="#FFFFFF" height="30.3516" style="stroke:#181818;stroke-width:1.0;" width="10" x="361.5" y="357.7734"/><rect fill="#FFFFFF" height="60.7031" style="stroke:#181818;stroke-width:1.0;" width="10" x="361.5" y="418.4766"/><rect fill="#FFFFFF" height="30.3516" style="stroke:#181818;stroke-width:1.0;" width="10" x="561.5" y="145.3125"/><rect fill="#FFFFFF" height="30.3516" style="stroke:#181818;stroke-width:1.0;" width="10" x="561.5" y="206.0156"/><rect fill="#FFFFFF" height="30.3516" style="stroke:#181818;stroke-width:1.0;" width="10" x="748.5" y="175.6641"/><rect fill="#FFFFFF" height="30.3516" style="stroke:#181818;stroke-width:1.0;" width="10" x="877" y="448.8281"/><line style="stroke:#181818;stroke-width:0.5;stroke-dasharray:5.0,5.0;" x1="38" x2="38" y1="82.6094" y2="497.1797"/><line style="stroke:#181818;stroke-width:0.5;stroke-dasharray:5.0,5.0;" x1="366" x2="366" y1="82.6094" y2="497.1797"/><line style="stroke:#181818;stroke-width:0.5;stroke-dasharray:5.0,5.0;" x1="566" x2="566" y1="82.6094" y2="497.1797"/><line style="stroke:#181818;stroke-width:0.5;stroke-dasharray:5.0,5.0;" x1="753.5" x2="753.5" y1="82.6094" y2="497.1797"/><line style="stroke:#181818;stroke-width:0.5;stroke-dasharray:5.0,5.0;" x1="881.5" x2="881.5" y1="82.6094" y2="497.1797"/><text fill="#000000" font-family="sans-serif" font-size="14" lengthAdjust="spacing" textLength="61" x="5" y="79.5332">Customer</text><ellipse cx="38.5" cy="13.5" fill="#E2E2F0" rx="8" ry="8" style="stroke:#181818;stroke-width:0.5;"/><path d="M38.5,21.5 L38.5,48.5 M25.5,29.5 L51.5,29.5 M38.5,48.5 L25.5,63.5 M38.5,48.5 L51.5,63.5 " fill="none" style="stroke:#181818;stroke-width:0.5;"/><text fill="#000000" font-family="sans-serif" font-size="14" lengthAdjust="spacing" textLength="61" x="5" y="510.7129">Customer</text><ellipse cx="38.5" cy="522.2891" fill="#E2E2F0" rx="8" ry="8" style="stroke:#181818;stroke-width:0.5;"/><path d="M38.5,530.2891 L38.5,557.2891 M25.5,538.2891 L51.5,538.2891 M38.5,557.2891 L25.5,572.2891 M38.5,557.2891 L51.5,572.2891 " fill="none" style="stroke:#181818;stroke-width:0.5;"/><rect fill="#E2E2F0" height="31.6094" rx="2.5" ry="2.5" style="stroke:#181818;stroke-width:0.5;" width="165" x="284" y="50"/><text fill="#000000" font-family="sans-serif" font-size="14" lengthAdjust="spacing" textLength="151" x="291" y="71.5332">:QuestionnaireAnswerUI</text><rect fill="#E2E2F0" height="31.6094" rx="2.5" ry="2.5" style="stroke:#181818;stroke-width:0.5;" width="165" x="284" y="496.1797"/><text fill="#000000" font-family="sans-serif" font-size="14" lengthAdjust="spacing" textLength="151" x="291" y="517.7129">:QuestionnaireAnswerUI</text><rect fill="#E2E2F0" height="31.6094" rx="2.5" ry="2.5" style="stroke:#181818;stroke-width:0.5;" width="215" x="459" y="50"/><text fill="#000000" font-family="sans-serif" font-size="14" lengthAdjust="spacing" textLength="201" x="466" y="71.5332">:QuestionnaireAnswerController</text><rect fill="#E2E2F0" height="31.6094" rx="2.5" ry="2.5" style="stroke:#181818;stroke-width:0.5;" width="215" x="459" y="496.1797"/><text fill="#000000" font-family="sans-serif" font-size="14" lengthAdjust="spacing" textLength="201" x="466" y="517.7129">:QuestionnaireAnswerController</text><rect fill="#E2E2F0" height="31.6094" rx="2.5" ry="2.5" style="stroke:#181818;stroke-width:0.5;" width="116" x="695.5" y="50"/><text fill="#000000" font-family="sans-serif" font-size="14" lengthAdjust="spacing" textLength="102" x="702.5" y="71.5332">:SurveysService</text><rect fill="#E2E2F0" height="31.6094" rx="2.5" ry="2.5" style="stroke:#181818;stroke-width:0.5;" width="116" x="695.5" y="496.1797"/><text fill="#000000" font-family="sans-serif" font-size="14" lengthAdjust="spacing" textLength="102" x="702.5" y="517.7129">:SurveysService</text><rect fill="#E2E2F0" height="31.6094" rx="2.5" ry="2.5" style="stroke:#181818;stroke-width:0.5;" width="121" x="821.5" y="50"/><text fill="#000000" font-family="sans-serif" font-size="14" lengthAdjust="spacing" textLength="107" x="828.5" y="71.5332">:TextFileAnswers</text><rect fill="#E2E2F0" height="31.6094" rx="2.5" ry="2.5" style="stroke:#181818;stroke-width:0.5;" width="121" x="821.5" y="496.1797"/><text fill="#000000" font-family="sans-serif" font-size="14" lengthAdjust="spacing" textLength="107" x="828.5" y="517.7129">:TextFileAnswers</text><rect fill="#FFFFFF" height="386.5703" style="stroke:#181818;stroke-width:1.0;" width="10" x="33.5" y="92.6094"/><rect fill="#FFFFFF" height="151.7578" style="stroke:#181818;stroke-width:1.0;" width="10" x="361.5" y="114.9609"/><rect fill="#FFFFFF" height="30.3516" style="stroke:#181818;stroke-width:1.0;" width="10" x="361.5" y="297.0703"/><rect fill="#FFFFFF" height="30.3516" style="stroke:#181818;stroke-width:1.0;" width="10" x="361.5" y="357.7734"/><rect fill="#FFFFFF" height="60.7031" style="stroke:#181818;stroke-width:1.0;" width="10" x="361.5" y="418.4766"/><rect fill="#FFFFFF" height="30.3516" style="stroke:#181818;stroke-width:1.0;" width="10" x="561.5" y="145.3125"/><rect fill="#FFFFFF" height="30.3516" style="stroke:#181818;stroke-width:1.0;" width="10" x="561.5" y="206.0156"/><rect fill="#FFFFFF" height="30.3516" style="stroke:#181818;stroke-width:1.0;" width="10" x="748.5" y="175.6641"/><rect fill="#FFFFFF" height="30.3516" style="stroke:#181818;stroke-width:1.0;" width="10" x="877" y="448.8281"/><polygon fill="#181818" points="349.5,110.9609,359.5,114.9609,349.5,118.9609,353.5,114.9609" style="stroke:#181818;stroke-width:1.0;"/><line style="stroke:#181818;stroke-width:1.0;" x1="43.5" x2="355.5" y1="114.9609" y2="114.9609"/><text fill="#000000" font-family="sans-serif" font-size="13" font-weight="bold" lengthAdjust="spacing" textLength="7" x="50.5" y="110.1045">1</text><text fill="#000000" font-family="sans-serif" font-size="13" lengthAdjust="spacing" textLength="171" x="61.5" y="110.1045">aks to see the questionnaires</text><polygon fill="#181818" points="549.5,141.3125,559.5,145.3125,549.5,149.3125,553.5,145.3125" style="stroke:#181818;stroke-width:1.0;"/><line style="stroke:#181818;stroke-width:1.0;" x1="371.5" x2="555.5" y1="145.3125" y2="145.3125"/><text fill="#000000" font-family="sans-serif" font-size="13" font-weight="bold" lengthAdjust="spacing" textLength="7" x="378.5" y="140.4561">2</text><text fill="#000000" font-family="sans-serif" font-size="13" lengthAdjust="spacing" textLength="105" x="389.5" y="140.4561">getQuestionnaires</text><polygon fill="#181818" points="736.5,171.6641,746.5,175.6641,736.5,179.6641,740.5,175.6641" style="stroke:#181818;stroke-width:1.0;"/><line style="stroke:#181818;stroke-width:1.0;" x1="566.5" x2="742.5" y1="175.6641" y2="175.6641"/><text fill="#000000" font-family="sans-serif" font-size="13" font-weight="bold" lengthAdjust="spacing" textLength="7" x="573.5" y="170.8076">3</text><text fill="#000000" font-family="sans-serif" font-size="13" lengthAdjust="spacing" textLength="105" x="584.5" y="170.8076">getQuestionnaires</text><polygon fill="#181818" points="582.5,202.0156,572.5,206.0156,582.5,210.0156,578.5,206.0156" style="stroke:#181818;stroke-width:1.0;"/><line style="stroke:#181818;stroke-width:1.0;" x1="576.5" x2="752.5" y1="206.0156" y2="206.0156"/><text fill="#000000" font-family="sans-serif" font-size="13" font-weight="bold" lengthAdjust="spacing" textLength="7" x="588.5" y="201.1592">4</text><text fill="#000000" font-family="sans-serif" font-size="13" lengthAdjust="spacing" textLength="147" x="599.5" y="201.1592">shows the questionnaires</text><polygon fill="#181818" points="382.5,232.3672,372.5,236.3672,382.5,240.3672,378.5,236.3672" style="stroke:#181818;stroke-width:1.0;"/><line style="stroke:#181818;stroke-width:1.0;stroke-dasharray:2.0,2.0;" x1="376.5" x2="565.5" y1="236.3672" y2="236.3672"/><text fill="#000000" font-family="sans-serif" font-size="13" font-weight="bold" lengthAdjust="spacing" textLength="7" x="388.5" y="231.5107">5</text><text fill="#000000" font-family="sans-serif" font-size="13" lengthAdjust="spacing" textLength="147" x="399.5" y="231.5107">shows the questionnaires</text><polygon fill="#181818" points="54.5,262.7188,44.5,266.7188,54.5,270.7188,50.5,266.7188" style="stroke:#181818;stroke-width:1.0;"/><line style="stroke:#181818;stroke-width:1.0;stroke-dasharray:2.0,2.0;" x1="48.5" x2="365.5" y1="266.7188" y2="266.7188"/><text fill="#000000" font-family="sans-serif" font-size="13" font-weight="bold" lengthAdjust="spacing" textLength="7" x="60.5" y="261.8623">6</text><text fill="#000000" font-family="sans-serif" font-size="13" lengthAdjust="spacing" textLength="147" x="71.5" y="261.8623">shows the questionnaires</text><polygon fill="#181818" points="349.5,293.0703,359.5,297.0703,349.5,301.0703,353.5,297.0703" style="stroke:#181818;stroke-width:1.0;"/><line style="stroke:#181818;stroke-width:1.0;" x1="43.5" x2="355.5" y1="297.0703" y2="297.0703"/><text fill="#000000" font-family="sans-serif" font-size="13" font-weight="bold" lengthAdjust="spacing" textLength="7" x="50.5" y="292.2139">7</text><text fill="#000000" font-family="sans-serif" font-size="13" lengthAdjust="spacing" textLength="212" x="61.5" y="292.2139">chooses the questionnaire to answer</text><polygon fill="#181818" points="54.5,323.4219,44.5,327.4219,54.5,331.4219,50.5,327.4219" style="stroke:#181818;stroke-width:1.0;"/><line style="stroke:#181818;stroke-width:1.0;stroke-dasharray:2.0,2.0;" x1="48.5" x2="365.5" y1="327.4219" y2="327.4219"/><text fill="#000000" font-family="sans-serif" font-size="13" font-weight="bold" lengthAdjust="spacing" textLength="7" x="60.5" y="322.5654">8</text><text fill="#000000" font-family="sans-serif" font-size="13" lengthAdjust="spacing" textLength="97" x="71.5" y="322.5654">shows questions</text><polygon fill="#181818" points="349.5,353.7734,359.5,357.7734,349.5,361.7734,353.5,357.7734" style="stroke:#181818;stroke-width:1.0;"/><line style="stroke:#181818;stroke-width:1.0;" x1="43.5" x2="355.5" y1="357.7734" y2="357.7734"/><text fill="#000000" font-family="sans-serif" font-size="13" font-weight="bold" lengthAdjust="spacing" textLength="7" x="50.5" y="352.917">9</text><text fill="#000000" font-family="sans-serif" font-size="13" lengthAdjust="spacing" textLength="288" x="61.5" y="352.917">chooses if wants to answer the optional questions</text><polygon fill="#181818" points="54.5,384.125,44.5,388.125,54.5,392.125,50.5,388.125" style="stroke:#181818;stroke-width:1.0;"/><line style="stroke:#181818;stroke-width:1.0;stroke-dasharray:2.0,2.0;" x1="48.5" x2="365.5" y1="388.125" y2="388.125"/><text fill="#000000" font-family="sans-serif" font-size="13" font-weight="bold" lengthAdjust="spacing" textLength="14" x="60.5" y="383.2686">10</text><text fill="#000000" font-family="sans-serif" font-size="13" lengthAdjust="spacing" textLength="157" x="78.5" y="383.2686">shows questions to answer</text><polygon fill="#181818" points="349.5,414.4766,359.5,418.4766,349.5,422.4766,353.5,418.4766" style="stroke:#181818;stroke-width:1.0;"/><line style="stroke:#181818;stroke-width:1.0;" x1="43.5" x2="355.5" y1="418.4766" y2="418.4766"/><text fill="#000000" font-family="sans-serif" font-size="13" font-weight="bold" lengthAdjust="spacing" textLength="14" x="50.5" y="413.6201">11</text><text fill="#000000" font-family="sans-serif" font-size="13" lengthAdjust="spacing" textLength="130" x="68.5" y="413.6201">answers the questions</text><polygon fill="#181818" points="865,444.8281,875,448.8281,865,452.8281,869,448.8281" style="stroke:#181818;stroke-width:1.0;"/><line style="stroke:#181818;stroke-width:1.0;stroke-dasharray:2.0,2.0;" x1="371.5" x2="871" y1="448.8281" y2="448.8281"/><text fill="#000000" font-family="sans-serif" font-size="13" font-weight="bold" lengthAdjust="spacing" textLength="14" x="378.5" y="443.9717">12</text><text fill="#000000" font-family="sans-serif" font-size="13" lengthAdjust="spacing" textLength="169" x="396.5" y="443.9717">answers are stored in the .txt</text><polygon fill="#181818" points="49.5,475.1797,39.5,479.1797,49.5,483.1797,45.5,479.1797" style="stroke:#181818;stroke-width:1.0;"/><line style="stroke:#181818;stroke-width:1.0;stroke-dasharray:2.0,2.0;" x1="43.5" x2="365.5" y1="479.1797" y2="479.1797"/><text fill="#000000" font-family="sans-serif" font-size="13" font-weight="bold" lengthAdjust="spacing" textLength="14" x="55.5" y="474.3232">13</text><text fill="#000000" font-family="sans-serif" font-size="13" lengthAdjust="spacing" textLength="158" x="73.5" y="474.3232">answers are stored in a .txt</text><!--MD5=[7f30bb47711216daf518f085cf12ef68]
@startuml
autonumber
'hide footbox
actor "Customer" as PM
participant ":QuestionnaireAnswerUI" as UI
participant ":QuestionnaireAnswerController" as C
participant ":SurveysService" as S
participant ":TextFileAnswers" as T


activate PM

PM -> UI : aks to see the questionnaires
activate UI

UI -> C : getQuestionnaires
activate C
C -> S : getQuestionnaires
deactivate C
activate S
S -> C: shows the questionnaires
deactivate S
activate C
C - -> UI : shows the questionnaires
deactivate C
UI - -> PM : shows the questionnaires
deactivate UI

PM -> UI : chooses the questionnaire to answer
activate UI


UI - -> PM : shows questions
deactivate UI

PM -> UI : chooses if wants to answer the optional questions
activate UI
UI - -> PM : shows questions to answer
deactivate UI
PM -> UI : answers the questions
activate UI
UI - -> T : answers are stored in the .txt
activate T
UI - -> PM : answers are stored in a .txt
deactivate T
deactivate UI

deactivate UI
deactivate PM

@enduml

@startuml
autonumber
actor "Customer" as PM
participant ":QuestionnaireAnswerUI" as UI
participant ":QuestionnaireAnswerController" as C
participant ":SurveysService" as S
participant ":TextFileAnswers" as T


activate PM

PM -> UI : aks to see the questionnaires
activate UI

UI -> C : getQuestionnaires
activate C
C -> S : getQuestionnaires
deactivate C
activate S
S -> C: shows the questionnaires
deactivate S
activate C
C - -> UI : shows the questionnaires
deactivate C
UI - -> PM : shows the questionnaires
deactivate UI

PM -> UI : chooses the questionnaire to answer
activate UI


UI - -> PM : shows questions
deactivate UI

PM -> UI : chooses if wants to answer the optional questions
activate UI
UI - -> PM : shows questions to answer
deactivate UI
PM -> UI : answers the questions
activate UI
UI - -> T : answers are stored in the .txt
activate T
UI - -> PM : answers are stored in a .txt
deactivate T
deactivate UI

deactivate UI
deactivate PM

@enduml

PlantUML version 1.2022.4(Sat Apr 09 14:29:17 BST 2022)
(GPL source distribution)
Java Runtime: OpenJDK Runtime Environment
JVM: OpenJDK 64-Bit Server VM
Default Encoding: Cp1252
Language: pt
Country: PT
--></g></svg>