<?xml version="1.0" encoding="UTF-8" standalone="no"?><svg xmlns="http://www.w3.org/2000/svg" xmlns:xlink="http://www.w3.org/1999/xlink" contentStyleType="text/css" height="563px" preserveAspectRatio="none" style="width:1224px;height:563px;background:#FFFFFF;" version="1.1" viewBox="0 0 1224 563" width="1224px" zoomAndPan="magnify"><defs/><g><rect fill="#FFFFFF" height="373.3281" style="stroke:#181818;stroke-width:1.0;" width="10" x="54" y="91.2969"/><rect fill="#FFFFFF" height="29.1328" style="stroke:#181818;stroke-width:1.0;" width="10" x="323" y="112.4297"/><rect fill="#FFFFFF" height="293.9297" style="stroke:#181818;stroke-width:1.0;" width="10" x="323" y="170.6953"/><rect fill="#FFFFFF" height="147.3984" style="stroke:#181818;stroke-width:1.0;" width="10" x="574" y="199.8281"/><rect fill="#FFFFFF" height="30" style="stroke:#181818;stroke-width:1.0;" width="10" x="755.5" y="228.9609"/><rect fill="#FFFFFF" height="30" style="stroke:#181818;stroke-width:1.0;" width="10" x="883" y="288.0938"/><rect fill="#FFFFFF" height="29.1328" style="stroke:#181818;stroke-width:1.0;" width="10" x="883" y="347.2266"/><rect fill="#FFFFFF" height="59.1328" style="stroke:#181818;stroke-width:1.0;" width="10" x="1047" y="376.3594"/><rect fill="#FFFFFF" height="30" style="stroke:#181818;stroke-width:1.0;" width="10" x="1168" y="405.4922"/><line style="stroke:#181818;stroke-width:0.5;stroke-dasharray:5.0,5.0;" x1="59" x2="59" y1="81.2969" y2="482.625"/><line style="stroke:#181818;stroke-width:0.5;stroke-dasharray:5.0,5.0;" x1="327.5" x2="327.5" y1="81.2969" y2="482.625"/><line style="stroke:#181818;stroke-width:0.5;stroke-dasharray:5.0,5.0;" x1="578.5" x2="578.5" y1="81.2969" y2="482.625"/><line style="stroke:#181818;stroke-width:0.5;stroke-dasharray:5.0,5.0;" x1="760.5" x2="760.5" y1="81.2969" y2="482.625"/><line style="stroke:#181818;stroke-width:0.5;stroke-dasharray:5.0,5.0;" x1="887.5" x2="887.5" y1="81.2969" y2="482.625"/><line style="stroke:#181818;stroke-width:0.5;stroke-dasharray:5.0,5.0;" x1="1051.5" x2="1051.5" y1="81.2969" y2="482.625"/><line style="stroke:#181818;stroke-width:0.5;stroke-dasharray:5.0,5.0;" x1="1172.5" x2="1172.5" y1="81.2969" y2="482.625"/><text fill="#000000" font-family="sans-serif" font-size="14" lengthAdjust="spacing" textLength="102" x="5" y="77.9951">Sales Manager</text><ellipse cx="59" cy="13.5" fill="#E2E2F0" rx="8" ry="8" style="stroke:#181818;stroke-width:0.5;"/><path d="M59,21.5 L59,48.5 M46,29.5 L72,29.5 M59,48.5 L46,63.5 M59,48.5 L72,63.5 " fill="none" style="stroke:#181818;stroke-width:0.5;"/><text fill="#000000" font-family="sans-serif" font-size="14" lengthAdjust="spacing" textLength="102" x="5" y="494.6201">Sales Manager</text><ellipse cx="59" cy="506.4219" fill="#E2E2F0" rx="8" ry="8" style="stroke:#181818;stroke-width:0.5;"/><path d="M59,514.4219 L59,541.4219 M46,522.4219 L72,522.4219 M59,541.4219 L46,556.4219 M59,541.4219 L72,556.4219 " fill="none" style="stroke:#181818;stroke-width:0.5;"/><rect fill="#E2E2F0" height="30.2969" rx="2.5" ry="2.5" style="stroke:#181818;stroke-width:0.5;" width="211" x="222.5" y="50"/><text fill="#000000" font-family="sans-serif" font-size="14" lengthAdjust="spacing" textLength="197" x="229.5" y="69.9951">:CreateNewQuestionnaireUI</text><rect fill="#E2E2F0" height="30.2969" rx="2.5" ry="2.5" style="stroke:#181818;stroke-width:0.5;" width="211" x="222.5" y="481.625"/><text fill="#000000" font-family="sans-serif" font-size="14" lengthAdjust="spacing" textLength="197" x="229.5" y="501.6201">:CreateNewQuestionnaireUI</text><rect fill="#E2E2F0" height="30.2969" rx="2.5" ry="2.5" style="stroke:#181818;stroke-width:0.5;" width="271" x="443.5" y="50"/><text fill="#000000" font-family="sans-serif" font-size="14" lengthAdjust="spacing" textLength="257" x="450.5" y="69.9951">:CreateNewQuestionnaireController</text><rect fill="#E2E2F0" height="30.2969" rx="2.5" ry="2.5" style="stroke:#181818;stroke-width:0.5;" width="271" x="443.5" y="481.625"/><text fill="#000000" font-family="sans-serif" font-size="14" lengthAdjust="spacing" textLength="257" x="450.5" y="501.6201">:CreateNewQuestionnaireController</text><rect fill="#E2E2F0" height="30.2969" rx="2.5" ry="2.5" style="stroke:#181818;stroke-width:0.5;" width="72" x="724.5" y="50"/><text fill="#000000" font-family="sans-serif" font-size="14" lengthAdjust="spacing" textLength="58" x="731.5" y="69.9951">TextFile</text><rect fill="#E2E2F0" height="30.2969" rx="2.5" ry="2.5" style="stroke:#181818;stroke-width:0.5;" width="72" x="724.5" y="481.625"/><text fill="#000000" font-family="sans-serif" font-size="14" lengthAdjust="spacing" textLength="58" x="731.5" y="501.6201">TextFile</text><rect fill="#E2E2F0" height="30.2969" rx="2.5" ry="2.5" style="stroke:#181818;stroke-width:0.5;" width="163" x="806.5" y="50"/><text fill="#000000" font-family="sans-serif" font-size="14" lengthAdjust="spacing" textLength="149" x="813.5" y="69.9951">:FormGrammarLexer</text><rect fill="#E2E2F0" height="30.2969" rx="2.5" ry="2.5" style="stroke:#181818;stroke-width:0.5;" width="163" x="806.5" y="481.625"/><text fill="#000000" font-family="sans-serif" font-size="14" lengthAdjust="spacing" textLength="149" x="813.5" y="501.6201">:FormGrammarLexer</text><rect fill="#E2E2F0" height="30.2969" rx="2.5" ry="2.5" style="stroke:#181818;stroke-width:0.5;" width="131" x="986.5" y="50"/><text fill="#000000" font-family="sans-serif" font-size="14" lengthAdjust="spacing" textLength="117" x="993.5" y="69.9951">:GrammarParser</text><rect fill="#E2E2F0" height="30.2969" rx="2.5" ry="2.5" style="stroke:#181818;stroke-width:0.5;" width="131" x="986.5" y="481.625"/><text fill="#000000" font-family="sans-serif" font-size="14" lengthAdjust="spacing" textLength="117" x="993.5" y="501.6201">:GrammarParser</text><rect fill="#E2E2F0" height="30.2969" rx="2.5" ry="2.5" style="stroke:#181818;stroke-width:0.5;" width="91" x="1127.5" y="50"/><text fill="#000000" font-family="sans-serif" font-size="14" lengthAdjust="spacing" textLength="77" x="1134.5" y="69.9951">:ParseTree</text><rect fill="#E2E2F0" height="30.2969" rx="2.5" ry="2.5" style="stroke:#181818;stroke-width:0.5;" width="91" x="1127.5" y="481.625"/><text fill="#000000" font-family="sans-serif" font-size="14" lengthAdjust="spacing" textLength="77" x="1134.5" y="501.6201">:ParseTree</text><rect fill="#FFFFFF" height="373.3281" style="stroke:#181818;stroke-width:1.0;" width="10" x="54" y="91.2969"/><rect fill="#FFFFFF" height="29.1328" style="stroke:#181818;stroke-width:1.0;" width="10" x="323" y="112.4297"/><rect fill="#FFFFFF" height="293.9297" style="stroke:#181818;stroke-width:1.0;" width="10" x="323" y="170.6953"/><rect fill="#FFFFFF" height="147.3984" style="stroke:#181818;stroke-width:1.0;" width="10" x="574" y="199.8281"/><rect fill="#FFFFFF" height="30" style="stroke:#181818;stroke-width:1.0;" width="10" x="755.5" y="228.9609"/><rect fill="#FFFFFF" height="30" style="stroke:#181818;stroke-width:1.0;" width="10" x="883" y="288.0938"/><rect fill="#FFFFFF" height="29.1328" style="stroke:#181818;stroke-width:1.0;" width="10" x="883" y="347.2266"/><rect fill="#FFFFFF" height="59.1328" style="stroke:#181818;stroke-width:1.0;" width="10" x="1047" y="376.3594"/><rect fill="#FFFFFF" height="30" style="stroke:#181818;stroke-width:1.0;" width="10" x="1168" y="405.4922"/><polygon fill="#181818" points="311,108.4297,321,112.4297,311,116.4297,315,112.4297" style="stroke:#181818;stroke-width:1.0;"/><line style="stroke:#181818;stroke-width:1.0;" x1="64" x2="317" y1="112.4297" y2="112.4297"/><text fill="#000000" font-family="sans-serif" font-size="13" font-weight="bold" lengthAdjust="spacing" textLength="9" x="71" y="107.3638">1</text><text fill="#000000" font-family="sans-serif" font-size="13" lengthAdjust="spacing" textLength="227" x="84" y="107.3638">Start to create a new questionnaire</text><polygon fill="#181818" points="75,137.5625,65,141.5625,75,145.5625,71,141.5625" style="stroke:#181818;stroke-width:1.0;"/><line style="stroke:#181818;stroke-width:1.0;" x1="69" x2="327" y1="141.5625" y2="141.5625"/><text fill="#000000" font-family="sans-serif" font-size="13" font-weight="bold" lengthAdjust="spacing" textLength="9" x="81" y="136.4966">2</text><text fill="#000000" font-family="sans-serif" font-size="13" lengthAdjust="spacing" textLength="133" x="94" y="136.4966">Asks for the file path</text><polygon fill="#181818" points="311,166.6953,321,170.6953,311,174.6953,315,170.6953" style="stroke:#181818;stroke-width:1.0;"/><line style="stroke:#181818;stroke-width:1.0;" x1="64" x2="317" y1="170.6953" y2="170.6953"/><text fill="#000000" font-family="sans-serif" font-size="13" font-weight="bold" lengthAdjust="spacing" textLength="8" x="71" y="165.6294">3</text><text fill="#000000" font-family="sans-serif" font-size="13" lengthAdjust="spacing" textLength="99" x="83" y="165.6294">Inserts file path</text><polygon fill="#181818" points="562,195.8281,572,199.8281,562,203.8281,566,199.8281" style="stroke:#181818;stroke-width:1.0;"/><line style="stroke:#181818;stroke-width:1.0;" x1="333" x2="568" y1="199.8281" y2="199.8281"/><text fill="#000000" font-family="sans-serif" font-size="13" font-weight="bold" lengthAdjust="spacing" textLength="9" x="340" y="194.7622">4</text><text fill="#000000" font-family="sans-serif" font-size="13" lengthAdjust="spacing" textLength="71" x="353" y="194.7622">getFilePath</text><polygon fill="#181818" points="743.5,224.9609,753.5,228.9609,743.5,232.9609,747.5,228.9609" style="stroke:#181818;stroke-width:1.0;"/><line style="stroke:#181818;stroke-width:1.0;" x1="584" x2="749.5" y1="228.9609" y2="228.9609"/><text fill="#000000" font-family="sans-serif" font-size="13" font-weight="bold" lengthAdjust="spacing" textLength="9" x="591" y="223.895">5</text><text fill="#000000" font-family="sans-serif" font-size="13" lengthAdjust="spacing" textLength="71" x="604" y="223.895">getFilePath</text><polygon fill="#181818" points="871,284.0938,881,288.0938,871,292.0938,875,288.0938" style="stroke:#181818;stroke-width:1.0;"/><line style="stroke:#181818;stroke-width:1.0;" x1="584" x2="877" y1="288.0938" y2="288.0938"/><text fill="#000000" font-family="sans-serif" font-size="13" font-weight="bold" lengthAdjust="spacing" textLength="9" x="591" y="283.0278">6</text><text fill="#000000" font-family="sans-serif" font-size="13" lengthAdjust="spacing" textLength="71" x="604" y="283.0278">sends path</text><polygon fill="#181818" points="871,343.2266,881,347.2266,871,351.2266,875,347.2266" style="stroke:#181818;stroke-width:1.0;"/><line style="stroke:#181818;stroke-width:1.0;" x1="579" x2="877" y1="347.2266" y2="347.2266"/><text fill="#000000" font-family="sans-serif" font-size="13" font-weight="bold" lengthAdjust="spacing" textLength="9" x="586" y="342.1606">7</text><text fill="#000000" font-family="sans-serif" font-size="13" lengthAdjust="spacing" textLength="61" x="599" y="342.1606">validate()</text><polygon fill="#181818" points="1035,372.3594,1045,376.3594,1035,380.3594,1039,376.3594" style="stroke:#181818;stroke-width:1.0;"/><line style="stroke:#181818;stroke-width:1.0;" x1="888" x2="1041" y1="376.3594" y2="376.3594"/><text fill="#000000" font-family="sans-serif" font-size="13" font-weight="bold" lengthAdjust="spacing" textLength="9" x="895" y="371.2935">8</text><text fill="#000000" font-family="sans-serif" font-size="13" lengthAdjust="spacing" textLength="122" x="908" y="371.2935">analise by tokens()</text><polygon fill="#181818" points="1156,401.4922,1166,405.4922,1156,409.4922,1160,405.4922" style="stroke:#181818;stroke-width:1.0;"/><line style="stroke:#181818;stroke-width:1.0;" x1="1057" x2="1162" y1="405.4922" y2="405.4922"/><text fill="#000000" font-family="sans-serif" font-size="13" font-weight="bold" lengthAdjust="spacing" textLength="9" x="1064" y="400.4263">9</text><text fill="#000000" font-family="sans-serif" font-size="13" lengthAdjust="spacing" textLength="51" x="1077" y="400.4263">create()</text><polygon fill="#181818" points="70,460.625,60,464.625,70,468.625,66,464.625" style="stroke:#181818;stroke-width:1.0;"/><line style="stroke:#181818;stroke-width:1.0;stroke-dasharray:2.0,2.0;" x1="64" x2="327" y1="464.625" y2="464.625"/><text fill="#000000" font-family="sans-serif" font-size="13" font-weight="bold" lengthAdjust="spacing" textLength="19" x="76" y="459.5591">10</text><text fill="#000000" font-family="sans-serif" font-size="13" lengthAdjust="spacing" textLength="190" x="99" y="459.5591">informs operation (in)success</text><!--MD5=[04fca7cb84721762afb1d13bf94cc0d8]
@startuml
autonumber
actor "Sales Manager" as SM
participant ":CreateNewQuestionnaireUI" as UI
participant ":CreateNewQuestionnaireController" as CTRL
participant "TextFile" as TF
participant ":FormGrammarLexer" as GL
participant ":GrammarParser" as GP
participant ":ParseTree" as PS


activate SM

SM -> UI : Start to create a new questionnaire
activate UI

UI -> SM : Asks for the file path
deactivate UI

SM -> UI : Inserts file path
activate UI

UI -> CTRL : getFilePath
activate CTRL

CTRL -> TF : getFilePath
activate TF

deactivate TF

CTRL -> GL : sends path
activate GL
deactivate GL


CTRL -> GL : validate()
deactivate TF
deactivate CTRL

activate GL
GL -> GP : analise by tokens()
deactivate GL
activate GP

GP -> PS : create()
activate PS
deactivate GP

deactivate PS

UI - -> SM : informs operation (in)success
deactivate UI

deactivate UI
deactivate SM
@enduml

PlantUML version 1.2022.6beta4(Unknown compile time)
(GPL source distribution)
Java Runtime: Java(TM) SE Runtime Environment
JVM: Java HotSpot(TM) 64-Bit Server VM
Default Encoding: UTF-8
Language: en
Country: US
--></g></svg>