<?xml version="1.0" encoding="UTF-8" standalone="no"?><svg xmlns="http://www.w3.org/2000/svg" xmlns:xlink="http://www.w3.org/1999/xlink" contentScriptType="application/ecmascript" contentStyleType="text/css" height="531px" preserveAspectRatio="none" style="width:636px;height:531px;background:#FFFFFF;" version="1.1" viewBox="0 0 636 531" width="636px" zoomAndPan="magnify"><defs><filter height="300%" id="f12tvlnhdv7k76" width="300%" x="-1" y="-1"><feGaussianBlur result="blurOut" stdDeviation="2.0"/><feColorMatrix in="blurOut" result="blurOut2" type="matrix" values="0 0 0 0 0 0 0 0 0 0 0 0 0 0 0 0 0 0 .4 0"/><feOffset dx="4.0" dy="4.0" in="blurOut2" result="blurOut3"/><feBlend in="SourceGraphic" in2="blurOut3" mode="normal"/></filter></defs><g><rect fill="#FFFFFF" filter="url(#f12tvlnhdv7k76)" height="327.8672" style="stroke:#A80036;stroke-width:1.0;" width="10" x="57.5" y="99.6094"/><rect fill="#FFFFFF" filter="url(#f12tvlnhdv7k76)" height="55.7031" style="stroke:#A80036;stroke-width:1.0;" width="10" x="573.5" y="121.9609"/><rect fill="#FFFFFF" filter="url(#f12tvlnhdv7k76)" height="37.3516" style="stroke:#A80036;stroke-width:1.0;" width="10" x="573.5" y="208.0156"/><rect fill="#FFFFFF" filter="url(#f12tvlnhdv7k76)" height="30.3516" style="stroke:#A80036;stroke-width:1.0;" width="10" x="573.5" y="275.7188"/><rect fill="#FFFFFF" filter="url(#f12tvlnhdv7k76)" height="30.3516" style="stroke:#A80036;stroke-width:1.0;" width="10" x="573.5" y="336.4219"/><rect fill="#FFFFFF" filter="url(#f12tvlnhdv7k76)" height="30.3516" style="stroke:#A80036;stroke-width:1.0;" width="10" x="573.5" y="397.125"/><rect fill="#FFFFFF" filter="url(#f12tvlnhdv7k76)" height="79.0547" style="stroke:#000000;stroke-width:2.0;" width="612.5" x="10" y="136.9609"/><line style="stroke:#A80036;stroke-width:1.0;stroke-dasharray:5.0,5.0;" x1="62" x2="62" y1="89.6094" y2="445.4766"/><line style="stroke:#A80036;stroke-width:1.0;stroke-dasharray:5.0,5.0;" x1="578.5" x2="578.5" y1="89.6094" y2="445.4766"/><text fill="#000000" font-family="sans-serif" font-size="14" lengthAdjust="spacing" textLength="79" x="20" y="86.5332">Sales Clerck</text><ellipse cx="62.5" cy="15" fill="#FEFECE" filter="url(#f12tvlnhdv7k76)" rx="8" ry="8" style="stroke:#A80036;stroke-width:2.0;"/><path d="M62.5,23 L62.5,50 M49.5,31 L75.5,31 M62.5,50 L49.5,65 M62.5,50 L75.5,65 " fill="none" filter="url(#f12tvlnhdv7k76)" style="stroke:#A80036;stroke-width:2.0;"/><text fill="#000000" font-family="sans-serif" font-size="14" lengthAdjust="spacing" textLength="79" x="20" y="459.0098">Sales Clerck</text><ellipse cx="62.5" cy="472.0859" fill="#FEFECE" filter="url(#f12tvlnhdv7k76)" rx="8" ry="8" style="stroke:#A80036;stroke-width:2.0;"/><path d="M62.5,480.0859 L62.5,507.0859 M49.5,488.0859 L75.5,488.0859 M62.5,507.0859 L49.5,522.0859 M62.5,507.0859 L75.5,522.0859 " fill="none" filter="url(#f12tvlnhdv7k76)" style="stroke:#A80036;stroke-width:2.0;"/><rect fill="#FEFECE" filter="url(#f12tvlnhdv7k76)" height="31.6094" style="stroke:#A80036;stroke-width:1.5;" width="64" x="544.5" y="53"/><text fill="#000000" font-family="sans-serif" font-size="14" lengthAdjust="spacing" textLength="50" x="551.5" y="74.5332">:System</text><rect fill="#FEFECE" filter="url(#f12tvlnhdv7k76)" height="31.6094" style="stroke:#A80036;stroke-width:1.5;" width="64" x="544.5" y="444.4766"/><text fill="#000000" font-family="sans-serif" font-size="14" lengthAdjust="spacing" textLength="50" x="551.5" y="466.0098">:System</text><rect fill="#FFFFFF" filter="url(#f12tvlnhdv7k76)" height="327.8672" style="stroke:#A80036;stroke-width:1.0;" width="10" x="57.5" y="99.6094"/><rect fill="#FFFFFF" filter="url(#f12tvlnhdv7k76)" height="55.7031" style="stroke:#A80036;stroke-width:1.0;" width="10" x="573.5" y="121.9609"/><rect fill="#FFFFFF" filter="url(#f12tvlnhdv7k76)" height="37.3516" style="stroke:#A80036;stroke-width:1.0;" width="10" x="573.5" y="208.0156"/><rect fill="#FFFFFF" filter="url(#f12tvlnhdv7k76)" height="30.3516" style="stroke:#A80036;stroke-width:1.0;" width="10" x="573.5" y="275.7188"/><rect fill="#FFFFFF" filter="url(#f12tvlnhdv7k76)" height="30.3516" style="stroke:#A80036;stroke-width:1.0;" width="10" x="573.5" y="336.4219"/><rect fill="#FFFFFF" filter="url(#f12tvlnhdv7k76)" height="30.3516" style="stroke:#A80036;stroke-width:1.0;" width="10" x="573.5" y="397.125"/><polygon fill="#A80036" points="561.5,117.9609,571.5,121.9609,561.5,125.9609,565.5,121.9609" style="stroke:#A80036;stroke-width:1.0;"/><line style="stroke:#A80036;stroke-width:1.0;" x1="67.5" x2="567.5" y1="121.9609" y2="121.9609"/><text fill="#000000" font-family="sans-serif" font-size="13" font-weight="bold" lengthAdjust="spacing" textLength="7" x="74.5" y="117.1045">1</text><text fill="#000000" font-family="sans-serif" font-size="13" lengthAdjust="spacing" textLength="241" x="85.5" y="117.1045">starts to view/search the products catalog</text><path d="M10,136.9609 L83,136.9609 L83,144.9609 L73,154.9609 L10,154.9609 L10,136.9609 " fill="#EEEEEE" style="stroke:#000000;stroke-width:1.0;"/><rect fill="none" height="79.0547" style="stroke:#000000;stroke-width:2.0;" width="612.5" x="10" y="136.9609"/><text fill="#000000" font-family="sans-serif" font-size="13" font-weight="bold" lengthAdjust="spacing" textLength="28" x="25" y="151.4561">loop</text><text fill="#000000" font-family="sans-serif" font-size="11" font-weight="bold" lengthAdjust="spacing" textLength="62" x="98" y="150.3799">[until exits]</text><polygon fill="#A80036" points="78.5,173.6641,68.5,177.6641,78.5,181.6641,74.5,177.6641" style="stroke:#A80036;stroke-width:1.0;"/><line style="stroke:#A80036;stroke-width:1.0;stroke-dasharray:2.0,2.0;" x1="72.5" x2="577.5" y1="177.6641" y2="177.6641"/><text fill="#000000" font-family="sans-serif" font-size="13" font-weight="bold" lengthAdjust="spacing" textLength="7" x="84.5" y="172.8076">2</text><text fill="#000000" font-family="sans-serif" font-size="13" lengthAdjust="spacing" textLength="364" x="95.5" y="172.8076">asks for a field(category,description, brand..)to filter the catalog</text><polygon fill="#A80036" points="561.5,204.0156,571.5,208.0156,561.5,212.0156,565.5,208.0156" style="stroke:#A80036;stroke-width:1.0;"/><line style="stroke:#A80036;stroke-width:1.0;" x1="67.5" x2="567.5" y1="208.0156" y2="208.0156"/><text fill="#000000" font-family="sans-serif" font-size="13" font-weight="bold" lengthAdjust="spacing" textLength="7" x="74.5" y="203.1592">3</text><text fill="#000000" font-family="sans-serif" font-size="13" lengthAdjust="spacing" textLength="81" x="85.5" y="203.1592">types the field</text><polygon fill="#A80036" points="78.5,241.3672,68.5,245.3672,78.5,249.3672,74.5,245.3672" style="stroke:#A80036;stroke-width:1.0;"/><line style="stroke:#A80036;stroke-width:1.0;stroke-dasharray:2.0,2.0;" x1="72.5" x2="577.5" y1="245.3672" y2="245.3672"/><text fill="#000000" font-family="sans-serif" font-size="13" font-weight="bold" lengthAdjust="spacing" textLength="7" x="84.5" y="240.5107">4</text><text fill="#000000" font-family="sans-serif" font-size="13" lengthAdjust="spacing" textLength="471" x="95.5" y="240.5107">shows list of products and asks to choose how to order the list (by name or price)</text><polygon fill="#A80036" points="561.5,271.7188,571.5,275.7188,561.5,279.7188,565.5,275.7188" style="stroke:#A80036;stroke-width:1.0;"/><line style="stroke:#A80036;stroke-width:1.0;" x1="67.5" x2="567.5" y1="275.7188" y2="275.7188"/><text fill="#000000" font-family="sans-serif" font-size="13" font-weight="bold" lengthAdjust="spacing" textLength="7" x="74.5" y="270.8623">5</text><text fill="#000000" font-family="sans-serif" font-size="13" lengthAdjust="spacing" textLength="124" x="85.5" y="270.8623">chooses how to order</text><polygon fill="#A80036" points="78.5,302.0703,68.5,306.0703,78.5,310.0703,74.5,306.0703" style="stroke:#A80036;stroke-width:1.0;"/><line style="stroke:#A80036;stroke-width:1.0;stroke-dasharray:2.0,2.0;" x1="72.5" x2="577.5" y1="306.0703" y2="306.0703"/><text fill="#000000" font-family="sans-serif" font-size="13" font-weight="bold" lengthAdjust="spacing" textLength="7" x="84.5" y="301.2139">6</text><text fill="#000000" font-family="sans-serif" font-size="13" lengthAdjust="spacing" textLength="273" x="95.5" y="301.2139">shows list of products and asks for the barcode</text><polygon fill="#A80036" points="561.5,332.4219,571.5,336.4219,561.5,340.4219,565.5,336.4219" style="stroke:#A80036;stroke-width:1.0;"/><line style="stroke:#A80036;stroke-width:1.0;" x1="67.5" x2="567.5" y1="336.4219" y2="336.4219"/><text fill="#000000" font-family="sans-serif" font-size="13" font-weight="bold" lengthAdjust="spacing" textLength="7" x="74.5" y="331.5654">7</text><text fill="#000000" font-family="sans-serif" font-size="13" lengthAdjust="spacing" textLength="206" x="85.5" y="331.5654">types the chosen product's barcode</text><polygon fill="#A80036" points="78.5,362.7734,68.5,366.7734,78.5,370.7734,74.5,366.7734" style="stroke:#A80036;stroke-width:1.0;"/><line style="stroke:#A80036;stroke-width:1.0;stroke-dasharray:2.0,2.0;" x1="72.5" x2="577.5" y1="366.7734" y2="366.7734"/><text fill="#000000" font-family="sans-serif" font-size="13" font-weight="bold" lengthAdjust="spacing" textLength="7" x="84.5" y="361.917">8</text><text fill="#000000" font-family="sans-serif" font-size="13" lengthAdjust="spacing" textLength="457" x="95.5" y="361.917">shows all data(code,description,brand,category,price)and requests confirmation</text><polygon fill="#A80036" points="561.5,393.125,571.5,397.125,561.5,401.125,565.5,397.125" style="stroke:#A80036;stroke-width:1.0;"/><line style="stroke:#A80036;stroke-width:1.0;" x1="67.5" x2="567.5" y1="397.125" y2="397.125"/><text fill="#000000" font-family="sans-serif" font-size="13" font-weight="bold" lengthAdjust="spacing" textLength="7" x="74.5" y="392.2686">9</text><text fill="#000000" font-family="sans-serif" font-size="13" lengthAdjust="spacing" textLength="100" x="85.5" y="392.2686">confirms the data</text><polygon fill="#A80036" points="73.5,423.4766,63.5,427.4766,73.5,431.4766,69.5,427.4766" style="stroke:#A80036;stroke-width:1.0;"/><line style="stroke:#A80036;stroke-width:1.0;stroke-dasharray:2.0,2.0;" x1="67.5" x2="577.5" y1="427.4766" y2="427.4766"/><text fill="#000000" font-family="sans-serif" font-size="13" font-weight="bold" lengthAdjust="spacing" textLength="14" x="79.5" y="422.6201">10</text><text fill="#000000" font-family="sans-serif" font-size="13" lengthAdjust="spacing" textLength="152" x="97.5" y="422.6201">informs operation success</text><!--MD5=[1a7e6ef757036b7ca4a2f605061e9b11]
@startuml
autonumber
actor "Sales Clerck" as SC

activate SC
SC -> ":System" : starts to view/search the products catalog
activate ":System"
loop until exits
":System" - -> SC : asks for a field(category,description, brand..)to filter the catalog
deactivate ":System"

SC -> ":System" : types the field
activate ":System"

end loop
":System" - -> SC : shows list of products and asks to choose how to order the list (by name or price)
deactivate ":System"

SC -> ":System" : chooses how to order
activate ":System"

":System" - -> SC : shows list of products and asks for the barcode
deactivate ":System"

SC -> ":System" : types the chosen product's barcode
activate ":System"


":System" - -> SC :shows all data(code,description,brand,category,price)and requests confirmation
deactivate ":System"
SC -> ":System" : confirms the data

activate ":System"
":System" - -> SC : informs operation success
deactivate ":System"

deactivate ":System"
deactivate SC

@enduml

PlantUML version 1.2022.1(Tue Feb 01 18:19:58 GMT 2022)
(GPL source distribution)
Java Runtime: OpenJDK Runtime Environment
JVM: OpenJDK 64-Bit Server VM
Default Encoding: Cp1252
Language: pt
Country: PT
--></g></svg>