<?xml version="1.0" encoding="UTF-8" standalone="no"?><svg xmlns="http://www.w3.org/2000/svg" xmlns:xlink="http://www.w3.org/1999/xlink" contentStyleType="text/css" height="341.6px" preserveAspectRatio="none" style="width:420px;height:341px;background:#FFFFFF;" version="1.1" viewBox="0 0 420 341" width="420.7px" zoomAndPan="magnify"><defs/><g><rect fill="#FFFFFF" height="206.8609" style="stroke:#181818;stroke-width:0.6999999999999998;" width="7" x="29.75" y="64.8266"/><rect fill="#FFFFFF" height="21.2461" style="stroke:#181818;stroke-width:0.6999999999999998;" width="7" x="390.95" y="80.4727"/><rect fill="#FFFFFF" height="21.2461" style="stroke:#181818;stroke-width:0.6999999999999998;" width="7" x="390.95" y="122.9648"/><rect fill="#FFFFFF" height="21.2461" style="stroke:#181818;stroke-width:0.6999999999999998;" width="7" x="390.95" y="165.457"/><rect fill="#FFFFFF" height="21.2461" style="stroke:#181818;stroke-width:0.6999999999999998;" width="7" x="390.95" y="207.9492"/><rect fill="#FFFFFF" height="21.2461" style="stroke:#181818;stroke-width:0.6999999999999998;" width="7" x="390.95" y="250.4414"/><line style="stroke:#181818;stroke-width:0.3499999999999999;stroke-dasharray:5.0,5.0;" x1="32.9" x2="32.9" y1="57.8266" y2="284.2875"/><line style="stroke:#181818;stroke-width:0.3499999999999999;stroke-dasharray:5.0,5.0;" x1="394.45" x2="394.45" y1="57.8266" y2="284.2875"/><text fill="#000000" font-family="sans-serif" font-size="9.8" lengthAdjust="spacing" textLength="55.3" x="3.5" y="55.6732">Sales Clerck</text><ellipse cx="33.25" cy="9.45" fill="#E2E2F0" rx="5.6" ry="5.6" style="stroke:#181818;stroke-width:0.3499999999999999;"/><path d="M33.25,15.05 L33.25,33.95 M24.15,20.65 L42.35,20.65 M33.25,33.95 L24.15,44.45 M33.25,33.95 L42.35,44.45 " fill="none" style="stroke:#181818;stroke-width:0.3499999999999999;"/><text fill="#000000" font-family="sans-serif" font-size="9.8" lengthAdjust="spacing" textLength="55.3" x="3.5" y="293.7607">Sales Clerck</text><ellipse cx="33.25" cy="301.8641" fill="#E2E2F0" rx="5.6" ry="5.6" style="stroke:#181818;stroke-width:0.3499999999999999;"/><path d="M33.25,307.4641 L33.25,326.3641 M24.15,313.0641 L42.35,313.0641 M33.25,326.3641 L24.15,336.8641 M33.25,326.3641 L42.35,336.8641 " fill="none" style="stroke:#181818;stroke-width:0.3499999999999999;"/><rect fill="#E2E2F0" height="22.1266" rx="1.75" ry="1.75" style="stroke:#181818;stroke-width:0.3499999999999999;" width="44.8" x="372.05" y="35"/><text fill="#000000" font-family="sans-serif" font-size="9.8" lengthAdjust="spacing" textLength="35" x="376.95" y="50.0732">:System</text><rect fill="#E2E2F0" height="22.1266" rx="1.75" ry="1.75" style="stroke:#181818;stroke-width:0.3499999999999999;" width="44.8" x="372.05" y="283.5875"/><text fill="#000000" font-family="sans-serif" font-size="9.8" lengthAdjust="spacing" textLength="35" x="376.95" y="298.6607">:System</text><rect fill="#FFFFFF" height="206.8609" style="stroke:#181818;stroke-width:0.6999999999999998;" width="7" x="29.75" y="64.8266"/><rect fill="#FFFFFF" height="21.2461" style="stroke:#181818;stroke-width:0.6999999999999998;" width="7" x="390.95" y="80.4727"/><rect fill="#FFFFFF" height="21.2461" style="stroke:#181818;stroke-width:0.6999999999999998;" width="7" x="390.95" y="122.9648"/><rect fill="#FFFFFF" height="21.2461" style="stroke:#181818;stroke-width:0.6999999999999998;" width="7" x="390.95" y="165.457"/><rect fill="#FFFFFF" height="21.2461" style="stroke:#181818;stroke-width:0.6999999999999998;" width="7" x="390.95" y="207.9492"/><rect fill="#FFFFFF" height="21.2461" style="stroke:#181818;stroke-width:0.6999999999999998;" width="7" x="390.95" y="250.4414"/><polygon fill="#181818" points="382.55,77.6727,389.55,80.4727,382.55,83.2727,385.35,80.4727" style="stroke:#181818;stroke-width:0.6999999999999998;"/><line style="stroke:#181818;stroke-width:0.6999999999999998;" x1="36.75" x2="386.75" y1="80.4727" y2="80.4727"/><text fill="#000000" font-family="sans-serif" font-size="9.1" font-weight="bold" lengthAdjust="spacing" textLength="4.9" x="41.65" y="77.0731">1</text><text fill="#000000" font-family="sans-serif" font-size="9.1" lengthAdjust="spacing" textLength="168.7" x="49.35" y="77.0731">starts to view/search the products catalog</text><polygon fill="#181818" points="44.45,98.9187,37.45,101.7187,44.45,104.5187,41.65,101.7187" style="stroke:#181818;stroke-width:0.6999999999999998;"/><line style="stroke:#181818;stroke-width:0.6999999999999998;stroke-dasharray:2.0,2.0;" x1="40.25" x2="393.75" y1="101.7187" y2="101.7187"/><text fill="#000000" font-family="sans-serif" font-size="9.1" font-weight="bold" lengthAdjust="spacing" textLength="4.9" x="48.65" y="98.3192">2</text><text fill="#000000" font-family="sans-serif" font-size="9.1" lengthAdjust="spacing" textLength="254.8" x="56.35" y="98.3192">asks for a field(category,description, brand..)to filter the catalog</text><polygon fill="#181818" points="382.55,120.1648,389.55,122.9648,382.55,125.7648,385.35,122.9648" style="stroke:#181818;stroke-width:0.6999999999999998;"/><line style="stroke:#181818;stroke-width:0.6999999999999998;" x1="36.75" x2="386.75" y1="122.9648" y2="122.9648"/><text fill="#000000" font-family="sans-serif" font-size="9.1" font-weight="bold" lengthAdjust="spacing" textLength="4.9" x="41.65" y="119.5653">3</text><text fill="#000000" font-family="sans-serif" font-size="9.1" lengthAdjust="spacing" textLength="56.7" x="49.35" y="119.5653">types the field</text><polygon fill="#181818" points="44.45,141.4109,37.45,144.2109,44.45,147.0109,41.65,144.2109" style="stroke:#181818;stroke-width:0.6999999999999998;"/><line style="stroke:#181818;stroke-width:0.6999999999999998;stroke-dasharray:2.0,2.0;" x1="40.25" x2="393.75" y1="144.2109" y2="144.2109"/><text fill="#000000" font-family="sans-serif" font-size="9.1" font-weight="bold" lengthAdjust="spacing" textLength="4.9" x="48.65" y="140.8114">4</text><text fill="#000000" font-family="sans-serif" font-size="9.1" lengthAdjust="spacing" textLength="329.7" x="56.35" y="140.8114">shows list of products and asks to choose how to order the list (by name or price)</text><polygon fill="#181818" points="382.55,162.657,389.55,165.457,382.55,168.257,385.35,165.457" style="stroke:#181818;stroke-width:0.6999999999999998;"/><line style="stroke:#181818;stroke-width:0.6999999999999998;" x1="36.75" x2="386.75" y1="165.457" y2="165.457"/><text fill="#000000" font-family="sans-serif" font-size="9.1" font-weight="bold" lengthAdjust="spacing" textLength="4.9" x="41.65" y="162.0575">5</text><text fill="#000000" font-family="sans-serif" font-size="9.1" lengthAdjust="spacing" textLength="86.8" x="49.35" y="162.0575">chooses how to order</text><polygon fill="#181818" points="44.45,183.9031,37.45,186.7031,44.45,189.5031,41.65,186.7031" style="stroke:#181818;stroke-width:0.6999999999999998;"/><line style="stroke:#181818;stroke-width:0.6999999999999998;stroke-dasharray:2.0,2.0;" x1="40.25" x2="393.75" y1="186.7031" y2="186.7031"/><text fill="#000000" font-family="sans-serif" font-size="9.1" font-weight="bold" lengthAdjust="spacing" textLength="4.9" x="48.65" y="183.3036">6</text><text fill="#000000" font-family="sans-serif" font-size="9.1" lengthAdjust="spacing" textLength="191.1" x="56.35" y="183.3036">shows list of products and asks for the barcode</text><polygon fill="#181818" points="382.55,205.1492,389.55,207.9492,382.55,210.7492,385.35,207.9492" style="stroke:#181818;stroke-width:0.6999999999999998;"/><line style="stroke:#181818;stroke-width:0.6999999999999998;" x1="36.75" x2="386.75" y1="207.9492" y2="207.9492"/><text fill="#000000" font-family="sans-serif" font-size="9.1" font-weight="bold" lengthAdjust="spacing" textLength="4.9" x="41.65" y="204.5497">7</text><text fill="#000000" font-family="sans-serif" font-size="9.1" lengthAdjust="spacing" textLength="144.2" x="49.35" y="204.5497">types the chosen product's barcode</text><polygon fill="#181818" points="44.45,226.3953,37.45,229.1953,44.45,231.9953,41.65,229.1953" style="stroke:#181818;stroke-width:0.6999999999999998;"/><line style="stroke:#181818;stroke-width:0.6999999999999998;stroke-dasharray:2.0,2.0;" x1="40.25" x2="393.75" y1="229.1953" y2="229.1953"/><text fill="#000000" font-family="sans-serif" font-size="9.1" font-weight="bold" lengthAdjust="spacing" textLength="4.9" x="48.65" y="225.7958">8</text><text fill="#000000" font-family="sans-serif" font-size="9.1" lengthAdjust="spacing" textLength="319.9" x="56.35" y="225.7958">shows all data(code,description,brand,category,price)and requests confirmation</text><polygon fill="#181818" points="382.55,247.6414,389.55,250.4414,382.55,253.2414,385.35,250.4414" style="stroke:#181818;stroke-width:0.6999999999999998;"/><line style="stroke:#181818;stroke-width:0.6999999999999998;" x1="36.75" x2="386.75" y1="250.4414" y2="250.4414"/><text fill="#000000" font-family="sans-serif" font-size="9.1" font-weight="bold" lengthAdjust="spacing" textLength="4.9" x="41.65" y="247.0419">9</text><text fill="#000000" font-family="sans-serif" font-size="9.1" lengthAdjust="spacing" textLength="70" x="49.35" y="247.0419">confirms the data</text><polygon fill="#181818" points="40.95,268.8875,33.95,271.6875,40.95,274.4875,38.15,271.6875" style="stroke:#181818;stroke-width:0.6999999999999998;"/><line style="stroke:#181818;stroke-width:0.6999999999999998;stroke-dasharray:2.0,2.0;" x1="36.75" x2="393.75" y1="271.6875" y2="271.6875"/><text fill="#000000" font-family="sans-serif" font-size="9.1" font-weight="bold" lengthAdjust="spacing" textLength="9.8" x="45.15" y="268.288">10</text><text fill="#000000" font-family="sans-serif" font-size="9.1" lengthAdjust="spacing" textLength="106.4" x="57.75" y="268.288">informs operation success</text><!--MD5=[bec1c91f5321384d51c36c67764d4d13]
@startuml
autonumber
actor "Sales Clerck" as SC

activate SC
SC -> ":System" : starts to view/search the products catalog
activate ":System"

":System" - -> SC : asks for a field(category,description, brand..)to filter the catalog
deactivate ":System"

SC -> ":System" : types the field
activate ":System"

":System" - -> SC : shows list of products and asks to choose how to order the list (by name or price)
deactivate ":System"

SC -> ":System" : chooses how to order
activate ":System"

":System" - -> SC : shows list of products and asks for the barcode
deactivate ":System"

SC -> ":System" : types the chosen product's barcode
activate ":System"


":System" - -> SC :shows all data(code,description,brand,category,price)and requests confirmation
deactivate ":System"
SC -> ":System" : confirms the data

activate ":System"
":System" - -> SC : informs operation success
deactivate ":System"

deactivate ":System"
deactivate SC

@enduml

PlantUML version 1.2022.4(Sat Apr 09 14:29:17 BST 2022)
(GPL source distribution)
Java Runtime: OpenJDK Runtime Environment
JVM: OpenJDK 64-Bit Server VM
Default Encoding: Cp1252
Language: pt
Country: PT
--></g></svg>