<?xml version="1.0" encoding="UTF-8" standalone="no"?><svg xmlns="http://www.w3.org/2000/svg" xmlns:xlink="http://www.w3.org/1999/xlink" contentStyleType="text/css" height="520px" preserveAspectRatio="none" style="width:626px;height:520px;background:#FFFFFF;" version="1.1" viewBox="0 0 626 520" width="626px" zoomAndPan="magnify"><defs/><g><rect fill="#FFFFFF" height="327.8672" style="stroke:#181818;stroke-width:1.0;" width="10" x="57.5" y="92.6094"/><rect fill="#FFFFFF" height="55.7031" style="stroke:#181818;stroke-width:1.0;" width="10" x="573.5" y="114.9609"/><rect fill="#FFFFFF" height="30.3516" style="stroke:#181818;stroke-width:1.0;" width="10" x="573.5" y="201.0156"/><rect fill="#FFFFFF" height="30.3516" style="stroke:#181818;stroke-width:1.0;" width="10" x="573.5" y="261.7188"/><rect fill="#FFFFFF" height="30.3516" style="stroke:#181818;stroke-width:1.0;" width="10" x="573.5" y="322.4219"/><rect fill="#FFFFFF" height="30.3516" style="stroke:#181818;stroke-width:1.0;" width="10" x="573.5" y="390.125"/><rect height="230.8125" style="stroke:#000000;stroke-width:1.5;fill:none;" width="610.5" x="10" y="129.9609"/><line style="stroke:#181818;stroke-width:0.5;fill:none;stroke-dasharray:5.0,5.0;" x1="62" x2="62" y1="82.6094" y2="438.4766"/><line style="stroke:#181818;stroke-width:0.5;fill:none;stroke-dasharray:5.0,5.0;" x1="578.5" x2="578.5" y1="82.6094" y2="438.4766"/><text fill="#000000" font-family="sans-serif" font-size="14" lengthAdjust="spacing" textLength="79" x="20" y="79.5332">Sales Clerck</text><ellipse cx="62.5" cy="13.5" fill="#E2E2F0" rx="8" ry="8" style="stroke:#181818;stroke-width:0.5;"/><path d="M62.5,21.5 L62.5,48.5 M49.5,29.5 L75.5,29.5 M62.5,48.5 L49.5,63.5 M62.5,48.5 L75.5,63.5 " fill="none" style="stroke:#181818;stroke-width:0.5;"/><text fill="#000000" font-family="sans-serif" font-size="14" lengthAdjust="spacing" textLength="79" x="20" y="452.0098">Sales Clerck</text><ellipse cx="62.5" cy="463.5859" fill="#E2E2F0" rx="8" ry="8" style="stroke:#181818;stroke-width:0.5;"/><path d="M62.5,471.5859 L62.5,498.5859 M49.5,479.5859 L75.5,479.5859 M62.5,498.5859 L49.5,513.5859 M62.5,498.5859 L75.5,513.5859 " fill="none" style="stroke:#181818;stroke-width:0.5;"/><rect fill="#E2E2F0" height="31.6094" rx="2.5" ry="2.5" style="stroke:#181818;stroke-width:0.5;" width="64" x="546.5" y="50"/><text fill="#000000" font-family="sans-serif" font-size="14" lengthAdjust="spacing" textLength="50" x="553.5" y="71.5332">:System</text><rect fill="#E2E2F0" height="31.6094" rx="2.5" ry="2.5" style="stroke:#181818;stroke-width:0.5;" width="64" x="546.5" y="437.4766"/><text fill="#000000" font-family="sans-serif" font-size="14" lengthAdjust="spacing" textLength="50" x="553.5" y="459.0098">:System</text><rect fill="#FFFFFF" height="327.8672" style="stroke:#181818;stroke-width:1.0;" width="10" x="57.5" y="92.6094"/><rect fill="#FFFFFF" height="55.7031" style="stroke:#181818;stroke-width:1.0;" width="10" x="573.5" y="114.9609"/><rect fill="#FFFFFF" height="30.3516" style="stroke:#181818;stroke-width:1.0;" width="10" x="573.5" y="201.0156"/><rect fill="#FFFFFF" height="30.3516" style="stroke:#181818;stroke-width:1.0;" width="10" x="573.5" y="261.7188"/><rect fill="#FFFFFF" height="30.3516" style="stroke:#181818;stroke-width:1.0;" width="10" x="573.5" y="322.4219"/><rect fill="#FFFFFF" height="30.3516" style="stroke:#181818;stroke-width:1.0;" width="10" x="573.5" y="390.125"/><polygon fill="#181818" points="561.5,110.9609,571.5,114.9609,561.5,118.9609,565.5,114.9609" style="stroke:#181818;stroke-width:1.0;"/><line style="stroke:#181818;stroke-width:1.0;" x1="67.5" x2="567.5" y1="114.9609" y2="114.9609"/><text fill="#000000" font-family="sans-serif" font-size="13" font-weight="bold" lengthAdjust="spacing" textLength="7" x="74.5" y="110.1045">1</text><text fill="#000000" font-family="sans-serif" font-size="13" lengthAdjust="spacing" textLength="241" x="85.5" y="110.1045">starts to view/search the products catalog</text><path d="M10,129.9609 L83,129.9609 L83,138.3125 L73,148.3125 L10,148.3125 L10,129.9609 " fill="#EEEEEE" style="stroke:#000000;stroke-width:1.5;"/><rect fill="none" height="230.8125" style="stroke:#000000;stroke-width:1.5;" width="610.5" x="10" y="129.9609"/><text fill="#000000" font-family="sans-serif" font-size="13" font-weight="bold" lengthAdjust="spacing" textLength="28" x="25" y="144.4561">loop</text><text fill="#000000" font-family="sans-serif" font-size="11" font-weight="bold" lengthAdjust="spacing" textLength="120" x="98" y="143.3799">[until chooses to exit]</text><polygon fill="#181818" points="78.5,166.6641,68.5,170.6641,78.5,174.6641,74.5,170.6641" style="stroke:#181818;stroke-width:1.0;"/><line style="stroke:#181818;stroke-width:1.0;stroke-dasharray:2.0,2.0;" x1="72.5" x2="577.5" y1="170.6641" y2="170.6641"/><text fill="#000000" font-family="sans-serif" font-size="13" font-weight="bold" lengthAdjust="spacing" textLength="7" x="84.5" y="165.8076">2</text><text fill="#000000" font-family="sans-serif" font-size="13" lengthAdjust="spacing" textLength="364" x="95.5" y="165.8076">asks for a field(category,description, brand..)to filter the catalog</text><polygon fill="#181818" points="561.5,197.0156,571.5,201.0156,561.5,205.0156,565.5,201.0156" style="stroke:#181818;stroke-width:1.0;"/><line style="stroke:#181818;stroke-width:1.0;" x1="67.5" x2="567.5" y1="201.0156" y2="201.0156"/><text fill="#000000" font-family="sans-serif" font-size="13" font-weight="bold" lengthAdjust="spacing" textLength="7" x="74.5" y="196.1592">3</text><text fill="#000000" font-family="sans-serif" font-size="13" lengthAdjust="spacing" textLength="81" x="85.5" y="196.1592">types the field</text><polygon fill="#181818" points="78.5,227.3672,68.5,231.3672,78.5,235.3672,74.5,231.3672" style="stroke:#181818;stroke-width:1.0;"/><line style="stroke:#181818;stroke-width:1.0;stroke-dasharray:2.0,2.0;" x1="72.5" x2="577.5" y1="231.3672" y2="231.3672"/><text fill="#000000" font-family="sans-serif" font-size="13" font-weight="bold" lengthAdjust="spacing" textLength="7" x="84.5" y="226.5107">4</text><text fill="#000000" font-family="sans-serif" font-size="13" lengthAdjust="spacing" textLength="471" x="95.5" y="226.5107">shows list of products and asks to choose how to order the list (by name or price)</text><polygon fill="#181818" points="561.5,257.7188,571.5,261.7188,561.5,265.7188,565.5,261.7188" style="stroke:#181818;stroke-width:1.0;"/><line style="stroke:#181818;stroke-width:1.0;" x1="67.5" x2="567.5" y1="261.7188" y2="261.7188"/><text fill="#000000" font-family="sans-serif" font-size="13" font-weight="bold" lengthAdjust="spacing" textLength="7" x="74.5" y="256.8623">5</text><text fill="#000000" font-family="sans-serif" font-size="13" lengthAdjust="spacing" textLength="124" x="85.5" y="256.8623">chooses how to order</text><polygon fill="#181818" points="78.5,288.0703,68.5,292.0703,78.5,296.0703,74.5,292.0703" style="stroke:#181818;stroke-width:1.0;"/><line style="stroke:#181818;stroke-width:1.0;stroke-dasharray:2.0,2.0;" x1="72.5" x2="577.5" y1="292.0703" y2="292.0703"/><text fill="#000000" font-family="sans-serif" font-size="13" font-weight="bold" lengthAdjust="spacing" textLength="7" x="84.5" y="287.2139">6</text><text fill="#000000" font-family="sans-serif" font-size="13" lengthAdjust="spacing" textLength="273" x="95.5" y="287.2139">shows list of products and asks for the barcode</text><polygon fill="#181818" points="561.5,318.4219,571.5,322.4219,561.5,326.4219,565.5,322.4219" style="stroke:#181818;stroke-width:1.0;"/><line style="stroke:#181818;stroke-width:1.0;" x1="67.5" x2="567.5" y1="322.4219" y2="322.4219"/><text fill="#000000" font-family="sans-serif" font-size="13" font-weight="bold" lengthAdjust="spacing" textLength="7" x="74.5" y="317.5654">7</text><text fill="#000000" font-family="sans-serif" font-size="13" lengthAdjust="spacing" textLength="206" x="85.5" y="317.5654">types the chosen product's barcode</text><polygon fill="#181818" points="78.5,348.7734,68.5,352.7734,78.5,356.7734,74.5,352.7734" style="stroke:#181818;stroke-width:1.0;"/><line style="stroke:#181818;stroke-width:1.0;stroke-dasharray:2.0,2.0;" x1="72.5" x2="577.5" y1="352.7734" y2="352.7734"/><text fill="#000000" font-family="sans-serif" font-size="13" font-weight="bold" lengthAdjust="spacing" textLength="7" x="84.5" y="347.917">8</text><text fill="#000000" font-family="sans-serif" font-size="13" lengthAdjust="spacing" textLength="457" x="95.5" y="347.917">shows all data(code,description,brand,category,price)and requests confirmation</text><polygon fill="#181818" points="561.5,386.125,571.5,390.125,561.5,394.125,565.5,390.125" style="stroke:#181818;stroke-width:1.0;"/><line style="stroke:#181818;stroke-width:1.0;" x1="67.5" x2="567.5" y1="390.125" y2="390.125"/><text fill="#000000" font-family="sans-serif" font-size="13" font-weight="bold" lengthAdjust="spacing" textLength="7" x="74.5" y="385.2686">9</text><text fill="#000000" font-family="sans-serif" font-size="13" lengthAdjust="spacing" textLength="100" x="85.5" y="385.2686">confirms the data</text><polygon fill="#181818" points="73.5,416.4766,63.5,420.4766,73.5,424.4766,69.5,420.4766" style="stroke:#181818;stroke-width:1.0;"/><line style="stroke:#181818;stroke-width:1.0;stroke-dasharray:2.0,2.0;" x1="67.5" x2="577.5" y1="420.4766" y2="420.4766"/><text fill="#000000" font-family="sans-serif" font-size="13" font-weight="bold" lengthAdjust="spacing" textLength="14" x="79.5" y="415.6201">10</text><text fill="#000000" font-family="sans-serif" font-size="13" lengthAdjust="spacing" textLength="152" x="97.5" y="415.6201">informs operation success</text><!--MD5=[09478af98f31d36ee9cfa27f9b7c5029]
@startuml
autonumber
actor "Sales Clerck" as SC

activate SC
SC -> ":System" : starts to view/search the products catalog
activate ":System"
loop until chooses to exit
":System" - -> SC : asks for a field(category,description, brand..)to filter the catalog
deactivate ":System"

SC -> ":System" : types the field
activate ":System"

":System" - -> SC : shows list of products and asks to choose how to order the list (by name or price)
deactivate ":System"

SC -> ":System" : chooses how to order
activate ":System"

":System" - -> SC : shows list of products and asks for the barcode
deactivate ":System"

SC -> ":System" : types the chosen product's barcode
activate ":System"


":System" - -> SC :shows all data(code,description,brand,category,price)and requests confirmation
deactivate ":System"
end loop
SC -> ":System" : confirms the data

activate ":System"
":System" - -> SC : informs operation success
deactivate ":System"

deactivate ":System"
deactivate SC

@enduml

PlantUML version 1.2022.4(Sat Apr 09 14:29:17 BST 2022)
(GPL source distribution)
Java Runtime: OpenJDK Runtime Environment
JVM: OpenJDK 64-Bit Server VM
Default Encoding: Cp1252
Language: pt
Country: PT
--></g></svg>