<?xml version="1.0" encoding="UTF-8" standalone="no"?><svg xmlns="http://www.w3.org/2000/svg" xmlns:xlink="http://www.w3.org/1999/xlink" contentStyleType="text/css" height="989.6px" preserveAspectRatio="none" style="width:1140px;height:989px;background:#FFFFFF;" version="1.1" viewBox="0 0 1140 989" width="1140.8px" zoomAndPan="magnify"><defs/><g><rect fill="#FFFFFF" height="835.5063" style="stroke:#181818;stroke-width:0.8000000000000002;" width="8" x="46" y="74.0875"/><rect fill="#FFFFFF" height="165.9688" style="stroke:#181818;stroke-width:0.8000000000000002;" width="8" x="464.4" y="91.9688"/><rect fill="#FFFFFF" height="171.5688" style="stroke:#181818;stroke-width:0.8000000000000002;" width="8" x="464.4" y="282.2188"/><rect fill="#FFFFFF" height="256.2375" style="stroke:#181818;stroke-width:0.8000000000000002;" width="8" x="464.4" y="478.0688"/><rect fill="#FFFFFF" height="96.8438" style="stroke:#181818;stroke-width:0.8000000000000002;" width="8" x="464.4" y="758.5875"/><rect fill="#FFFFFF" height="24.2813" style="stroke:#181818;stroke-width:0.8000000000000002;" width="8" x="464.4" y="885.3125"/><rect fill="#FFFFFF" height="97.125" style="stroke:#181818;stroke-width:0.8000000000000002;" width="8" x="578.8" y="116.25"/><rect fill="#FFFFFF" height="117.4063" style="stroke:#181818;stroke-width:0.8000000000000002;" width="8" x="578.8" y="306.5"/><rect fill="#FFFFFF" height="48.2813" style="stroke:#181818;stroke-width:0.8000000000000002;" width="8" x="578.8" y="502.35"/><rect fill="#FFFFFF" height="129.5125" style="stroke:#181818;stroke-width:0.8000000000000002;" width="8" x="578.8" y="574.9125"/><rect fill="#FFFFFF" height="48.2813" style="stroke:#181818;stroke-width:0.8000000000000002;" width="8" x="578.8" y="782.8688"/><rect fill="#FFFFFF" height="24.2813" style="stroke:#181818;stroke-width:0.8000000000000002;" width="8" x="706" y="140.5313"/><rect fill="#FFFFFF" height="24.2813" style="stroke:#181818;stroke-width:0.8000000000000002;" width="8" x="706" y="330.7813"/><rect fill="#FFFFFF" height="24.2813" style="stroke:#181818;stroke-width:0.8000000000000002;" width="8" x="823.6" y="164.8125"/><rect fill="#FFFFFF" height="24.2813" style="stroke:#181818;stroke-width:0.8000000000000002;" width="8" x="823.6" y="355.0625"/><rect fill="#FFFFFF" height="44.5625" style="stroke:#181818;stroke-width:0.8000000000000002;" width="8" x="942.8" y="379.3438"/><rect fill="#FFFFFF" height="24.2813" style="stroke:#181818;stroke-width:0.8000000000000002;" width="8" x="1062.4" y="189.0938"/><rect fill="#FFFFFF" height="24" style="stroke:#181818;stroke-width:0.8000000000000002;" width="8" x="1062.4" y="526.6313"/><rect fill="#FFFFFF" height="24" style="stroke:#181818;stroke-width:0.8000000000000002;" width="8" x="1062.4" y="619.475"/><rect fill="#FFFFFF" height="24" style="stroke:#181818;stroke-width:0.8000000000000002;" width="8" x="1062.4" y="680.425"/><rect fill="#FFFFFF" height="24" style="stroke:#181818;stroke-width:0.8000000000000002;" width="8" x="1062.4" y="807.15"/><rect height="636.4563" style="stroke:#000000;stroke-width:1.2000000000000002;fill:none;" width="1128.4" x="8" y="225.375"/><rect height="38.9625" style="stroke:#000000;stroke-width:1.2000000000000002;fill:none;" width="500.8" x="511.6" y="391.3438"/><rect height="123.9125" style="stroke:#000000;stroke-width:1.2000000000000002;fill:none;" width="616.8" x="511.6" y="586.9125"/><line style="stroke:#181818;stroke-width:0.4000000000000001;fill:none;stroke-dasharray:5.0,5.0;" x1="49.6" x2="49.6" y1="66.0875" y2="923.9938"/><line style="stroke:#181818;stroke-width:0.4000000000000001;fill:none;stroke-dasharray:5.0,5.0;" x1="468.4" x2="468.4" y1="66.0875" y2="923.9938"/><line style="stroke:#181818;stroke-width:0.4000000000000001;fill:none;stroke-dasharray:5.0,5.0;" x1="582.8" x2="582.8" y1="66.0875" y2="923.9938"/><line style="stroke:#181818;stroke-width:0.4000000000000001;fill:none;stroke-dasharray:5.0,5.0;" x1="710" x2="710" y1="66.0875" y2="923.9938"/><line style="stroke:#181818;stroke-width:0.4000000000000001;fill:none;stroke-dasharray:5.0,5.0;" x1="827.6" x2="827.6" y1="66.0875" y2="923.9938"/><line style="stroke:#181818;stroke-width:0.4000000000000001;fill:none;stroke-dasharray:5.0,5.0;" x1="946.8" x2="946.8" y1="66.0875" y2="923.9938"/><line style="stroke:#181818;stroke-width:0.4000000000000001;fill:none;stroke-dasharray:5.0,5.0;" x1="1066" x2="1066" y1="66.0875" y2="923.9938"/><text fill="#000000" font-family="sans-serif" font-size="11.2" lengthAdjust="spacing" textLength="63.2" x="16" y="63.6266">Sales Clerck</text><ellipse cx="50" cy="10.8" fill="#E2E2F0" rx="6.4" ry="6.4" style="stroke:#181818;stroke-width:0.4000000000000001;"/><path d="M50,17.2 L50,38.8 M39.6,23.6 L60.4,23.6 M50,38.8 L39.6,50.8 M50,38.8 L60.4,50.8 " fill="none" style="stroke:#181818;stroke-width:0.4000000000000001;"/><text fill="#000000" font-family="sans-serif" font-size="11.2" lengthAdjust="spacing" textLength="63.2" x="16" y="934.8203">Sales Clerck</text><ellipse cx="50" cy="944.0813" fill="#E2E2F0" rx="6.4" ry="6.4" style="stroke:#181818;stroke-width:0.4000000000000001;"/><path d="M50,950.4813 L50,972.0813 M39.6,956.8813 L60.4,956.8813 M50,972.0813 L39.6,984.0813 M50,972.0813 L60.4,984.0813 " fill="none" style="stroke:#181818;stroke-width:0.4000000000000001;"/><rect fill="#E2E2F0" height="25.2875" rx="2" ry="2" style="stroke:#181818;stroke-width:0.4000000000000001;" width="86.4" x="425.2" y="40"/><text fill="#000000" font-family="sans-serif" font-size="11.2" lengthAdjust="spacing" textLength="75.2" x="430.8" y="57.2266">:ViewCatalogUI</text><rect fill="#E2E2F0" height="25.2875" rx="2" ry="2" style="stroke:#181818;stroke-width:0.4000000000000001;" width="86.4" x="425.2" y="923.1938"/><text fill="#000000" font-family="sans-serif" font-size="11.2" lengthAdjust="spacing" textLength="75.2" x="430.8" y="940.4203">:ViewCatalogUI</text><rect fill="#E2E2F0" height="25.2875" rx="2" ry="2" style="stroke:#181818;stroke-width:0.4000000000000001;" width="126.4" x="519.6" y="40"/><text fill="#000000" font-family="sans-serif" font-size="11.2" lengthAdjust="spacing" textLength="115.2" x="525.2" y="57.2266">:ViewCatalogController</text><rect fill="#E2E2F0" height="25.2875" rx="2" ry="2" style="stroke:#181818;stroke-width:0.4000000000000001;" width="126.4" x="519.6" y="923.1938"/><text fill="#000000" font-family="sans-serif" font-size="11.2" lengthAdjust="spacing" textLength="115.2" x="525.2" y="940.4203">:ViewCatalogController</text><rect fill="#E2E2F0" height="25.2875" rx="2" ry="2" style="stroke:#181818;stroke-width:0.4000000000000001;" width="112" x="654" y="40"/><text fill="#000000" font-family="sans-serif" font-size="11.2" lengthAdjust="spacing" textLength="100.8" x="659.6" y="57.2266">:PersistenceContext</text><rect fill="#E2E2F0" height="25.2875" rx="2" ry="2" style="stroke:#181818;stroke-width:0.4000000000000001;" width="112" x="654" y="923.1938"/><text fill="#000000" font-family="sans-serif" font-size="11.2" lengthAdjust="spacing" textLength="100.8" x="659.6" y="940.4203">:PersistenceContext</text><rect fill="#E2E2F0" height="25.2875" rx="2" ry="2" style="stroke:#181818;stroke-width:0.4000000000000001;" width="107.2" x="774" y="40"/><text fill="#000000" font-family="sans-serif" font-size="11.2" lengthAdjust="spacing" textLength="96" x="779.6" y="57.2266">:RepositoryFactory</text><rect fill="#E2E2F0" height="25.2875" rx="2" ry="2" style="stroke:#181818;stroke-width:0.4000000000000001;" width="107.2" x="774" y="923.1938"/><text fill="#000000" font-family="sans-serif" font-size="11.2" lengthAdjust="spacing" textLength="96" x="779.6" y="940.4203">:RepositoryFactory</text><rect fill="#E2E2F0" height="25.2875" rx="2" ry="2" style="stroke:#181818;stroke-width:0.4000000000000001;" width="115.2" x="889.2" y="40"/><text fill="#000000" font-family="sans-serif" font-size="11.2" lengthAdjust="spacing" textLength="104" x="894.8" y="57.2266">:CategoryRepository</text><rect fill="#E2E2F0" height="25.2875" rx="2" ry="2" style="stroke:#181818;stroke-width:0.4000000000000001;" width="115.2" x="889.2" y="923.1938"/><text fill="#000000" font-family="sans-serif" font-size="11.2" lengthAdjust="spacing" textLength="104" x="894.8" y="940.4203">:CategoryRepository</text><rect fill="#E2E2F0" height="25.2875" rx="2" ry="2" style="stroke:#181818;stroke-width:0.4000000000000001;" width="108" x="1012.4" y="40"/><text fill="#000000" font-family="sans-serif" font-size="11.2" lengthAdjust="spacing" textLength="96.8" x="1018" y="57.2266">:ProductRepository</text><rect fill="#E2E2F0" height="25.2875" rx="2" ry="2" style="stroke:#181818;stroke-width:0.4000000000000001;" width="108" x="1012.4" y="923.1938"/><text fill="#000000" font-family="sans-serif" font-size="11.2" lengthAdjust="spacing" textLength="96.8" x="1018" y="940.4203">:ProductRepository</text><rect fill="#FFFFFF" height="835.5063" style="stroke:#181818;stroke-width:0.8000000000000002;" width="8" x="46" y="74.0875"/><rect fill="#FFFFFF" height="165.9688" style="stroke:#181818;stroke-width:0.8000000000000002;" width="8" x="464.4" y="91.9688"/><rect fill="#FFFFFF" height="171.5688" style="stroke:#181818;stroke-width:0.8000000000000002;" width="8" x="464.4" y="282.2188"/><rect fill="#FFFFFF" height="256.2375" style="stroke:#181818;stroke-width:0.8000000000000002;" width="8" x="464.4" y="478.0688"/><rect fill="#FFFFFF" height="96.8438" style="stroke:#181818;stroke-width:0.8000000000000002;" width="8" x="464.4" y="758.5875"/><rect fill="#FFFFFF" height="24.2813" style="stroke:#181818;stroke-width:0.8000000000000002;" width="8" x="464.4" y="885.3125"/><rect fill="#FFFFFF" height="97.125" style="stroke:#181818;stroke-width:0.8000000000000002;" width="8" x="578.8" y="116.25"/><rect fill="#FFFFFF" height="117.4063" style="stroke:#181818;stroke-width:0.8000000000000002;" width="8" x="578.8" y="306.5"/><rect fill="#FFFFFF" height="48.2813" style="stroke:#181818;stroke-width:0.8000000000000002;" width="8" x="578.8" y="502.35"/><rect fill="#FFFFFF" height="129.5125" style="stroke:#181818;stroke-width:0.8000000000000002;" width="8" x="578.8" y="574.9125"/><rect fill="#FFFFFF" height="48.2813" style="stroke:#181818;stroke-width:0.8000000000000002;" width="8" x="578.8" y="782.8688"/><rect fill="#FFFFFF" height="24.2813" style="stroke:#181818;stroke-width:0.8000000000000002;" width="8" x="706" y="140.5313"/><rect fill="#FFFFFF" height="24.2813" style="stroke:#181818;stroke-width:0.8000000000000002;" width="8" x="706" y="330.7813"/><rect fill="#FFFFFF" height="24.2813" style="stroke:#181818;stroke-width:0.8000000000000002;" width="8" x="823.6" y="164.8125"/><rect fill="#FFFFFF" height="24.2813" style="stroke:#181818;stroke-width:0.8000000000000002;" width="8" x="823.6" y="355.0625"/><rect fill="#FFFFFF" height="44.5625" style="stroke:#181818;stroke-width:0.8000000000000002;" width="8" x="942.8" y="379.3438"/><rect fill="#FFFFFF" height="24.2813" style="stroke:#181818;stroke-width:0.8000000000000002;" width="8" x="1062.4" y="189.0938"/><rect fill="#FFFFFF" height="24" style="stroke:#181818;stroke-width:0.8000000000000002;" width="8" x="1062.4" y="526.6313"/><rect fill="#FFFFFF" height="24" style="stroke:#181818;stroke-width:0.8000000000000002;" width="8" x="1062.4" y="619.475"/><rect fill="#FFFFFF" height="24" style="stroke:#181818;stroke-width:0.8000000000000002;" width="8" x="1062.4" y="680.425"/><rect fill="#FFFFFF" height="24" style="stroke:#181818;stroke-width:0.8000000000000002;" width="8" x="1062.4" y="807.15"/><polygon fill="#181818" points="454.8,88.7688,462.8,91.9688,454.8,95.1688,458,91.9688" style="stroke:#181818;stroke-width:0.8000000000000002;"/><line style="stroke:#181818;stroke-width:0.8000000000000002;" x1="54" x2="459.6" y1="91.9688" y2="91.9688"/><text fill="#000000" font-family="sans-serif" font-size="10.4" font-weight="bold" lengthAdjust="spacing" textLength="5.6" x="59.6" y="88.0836">1</text><text fill="#000000" font-family="sans-serif" font-size="10.4" lengthAdjust="spacing" textLength="192.8" x="68.4" y="88.0836">starts to view/search the products catalog</text><polygon fill="#181818" points="569.2,113.05,577.2,116.25,569.2,119.45,572.4,116.25" style="stroke:#181818;stroke-width:0.8000000000000002;"/><line style="stroke:#181818;stroke-width:0.8000000000000002;" x1="472.4" x2="574" y1="116.25" y2="116.25"/><text fill="#000000" font-family="sans-serif" font-size="10.4" font-weight="bold" lengthAdjust="spacing" textLength="5.6" x="478" y="112.3648">2</text><text fill="#000000" font-family="sans-serif" font-size="10.4" lengthAdjust="spacing" textLength="49.6" x="486.8" y="112.3648">getCatalog</text><polygon fill="#181818" points="696.4,137.3313,704.4,140.5313,696.4,143.7313,699.6,140.5313" style="stroke:#181818;stroke-width:0.8000000000000002;"/><line style="stroke:#181818;stroke-width:0.8000000000000002;" x1="586.8" x2="701.2" y1="140.5313" y2="140.5313"/><text fill="#000000" font-family="sans-serif" font-size="10.4" font-weight="bold" lengthAdjust="spacing" textLength="5.6" x="592.4" y="136.6461">3</text><text fill="#000000" font-family="sans-serif" font-size="10.4" lengthAdjust="spacing" textLength="60" x="601.2" y="136.6461">repositories()</text><polygon fill="#181818" points="814,161.6125,822,164.8125,814,168.0125,817.2,164.8125" style="stroke:#181818;stroke-width:0.8000000000000002;"/><line style="stroke:#181818;stroke-width:0.8000000000000002;" x1="710" x2="818.8" y1="164.8125" y2="164.8125"/><text fill="#000000" font-family="sans-serif" font-size="10.4" font-weight="bold" lengthAdjust="spacing" textLength="5.6" x="715.6" y="160.9273">4</text><text fill="#000000" font-family="sans-serif" font-size="10.4" lengthAdjust="spacing" textLength="28.8" x="724.4" y="160.9273">create</text><polygon fill="#181818" points="1052.8,185.8938,1060.8,189.0938,1052.8,192.2938,1056,189.0938" style="stroke:#181818;stroke-width:0.8000000000000002;"/><line style="stroke:#181818;stroke-width:0.8000000000000002;" x1="827.6" x2="1057.6" y1="189.0938" y2="189.0938"/><text fill="#000000" font-family="sans-serif" font-size="10.4" font-weight="bold" lengthAdjust="spacing" textLength="5.6" x="833.2" y="185.2086">5</text><text fill="#000000" font-family="sans-serif" font-size="10.4" lengthAdjust="spacing" textLength="28.8" x="842" y="185.2086">create</text><polygon fill="#181818" points="1056.8,210.175,1064.8,213.375,1056.8,216.575,1060,213.375" style="stroke:#181818;stroke-width:0.8000000000000002;"/><line style="stroke:#181818;stroke-width:0.8000000000000002;" x1="582.8" x2="1061.6" y1="213.375" y2="213.375"/><text fill="#000000" font-family="sans-serif" font-size="10.4" font-weight="bold" lengthAdjust="spacing" textLength="5.6" x="588.4" y="209.4898">6</text><text fill="#000000" font-family="sans-serif" font-size="10.4" lengthAdjust="spacing" textLength="115.2" x="597.2" y="209.4898">getCatalog= getCatalog()</text><path d="M8,225.375 L66.4,225.375 L66.4,232.0563 L58.4,240.0563 L8,240.0563 L8,225.375 " fill="#EEEEEE" style="stroke:#000000;stroke-width:1.2000000000000002;"/><rect fill="none" height="636.4563" style="stroke:#000000;stroke-width:1.2000000000000002;" width="1128.4" x="8" y="225.375"/><text fill="#000000" font-family="sans-serif" font-size="10.4" font-weight="bold" lengthAdjust="spacing" textLength="22.4" x="20" y="236.9711">loop</text><text fill="#000000" font-family="sans-serif" font-size="8.8" font-weight="bold" lengthAdjust="spacing" textLength="49.6" x="78.4" y="236.1102">[until exits]</text><polygon fill="#181818" points="62.8,254.7375,54.8,257.9375,62.8,261.1375,59.6,257.9375" style="stroke:#181818;stroke-width:0.8000000000000002;"/><line style="stroke:#181818;stroke-width:0.8000000000000002;stroke-dasharray:2.0,2.0;" x1="58" x2="467.6" y1="257.9375" y2="257.9375"/><text fill="#000000" font-family="sans-serif" font-size="10.4" font-weight="bold" lengthAdjust="spacing" textLength="5.6" x="67.6" y="254.0523">7</text><text fill="#000000" font-family="sans-serif" font-size="10.4" lengthAdjust="spacing" textLength="156" x="76.4" y="254.0523">asks for a field to filter the catalog</text><polygon fill="#181818" points="454.8,279.0188,462.8,282.2188,454.8,285.4188,458,282.2188" style="stroke:#181818;stroke-width:0.8000000000000002;"/><line style="stroke:#181818;stroke-width:0.8000000000000002;" x1="54" x2="459.6" y1="282.2188" y2="282.2188"/><text fill="#000000" font-family="sans-serif" font-size="10.4" font-weight="bold" lengthAdjust="spacing" textLength="5.6" x="59.6" y="278.3336">8</text><text fill="#000000" font-family="sans-serif" font-size="10.4" lengthAdjust="spacing" textLength="64.8" x="68.4" y="278.3336">types the field</text><polygon fill="#181818" points="569.2,303.3,577.2,306.5,569.2,309.7,572.4,306.5" style="stroke:#181818;stroke-width:0.8000000000000002;"/><line style="stroke:#181818;stroke-width:0.8000000000000002;" x1="472.4" x2="574" y1="306.5" y2="306.5"/><text fill="#000000" font-family="sans-serif" font-size="10.4" font-weight="bold" lengthAdjust="spacing" textLength="5.6" x="478" y="302.6148">9</text><text fill="#000000" font-family="sans-serif" font-size="10.4" lengthAdjust="spacing" textLength="56" x="486.8" y="302.6148">getCategory</text><polygon fill="#181818" points="696.4,327.5813,704.4,330.7813,696.4,333.9813,699.6,330.7813" style="stroke:#181818;stroke-width:0.8000000000000002;"/><line style="stroke:#181818;stroke-width:0.8000000000000002;" x1="586.8" x2="701.2" y1="330.7813" y2="330.7813"/><text fill="#000000" font-family="sans-serif" font-size="10.4" font-weight="bold" lengthAdjust="spacing" textLength="11.2" x="592.4" y="326.8961">10</text><text fill="#000000" font-family="sans-serif" font-size="10.4" lengthAdjust="spacing" textLength="60" x="606.8" y="326.8961">repositories()</text><polygon fill="#181818" points="814,351.8625,822,355.0625,814,358.2625,817.2,355.0625" style="stroke:#181818;stroke-width:0.8000000000000002;"/><line style="stroke:#181818;stroke-width:0.8000000000000002;" x1="710" x2="818.8" y1="355.0625" y2="355.0625"/><text fill="#000000" font-family="sans-serif" font-size="10.4" font-weight="bold" lengthAdjust="spacing" textLength="11.2" x="715.6" y="351.1773">11</text><text fill="#000000" font-family="sans-serif" font-size="10.4" lengthAdjust="spacing" textLength="28.8" x="730" y="351.1773">create</text><polygon fill="#181818" points="933.2,376.1438,941.2,379.3438,933.2,382.5438,936.4,379.3438" style="stroke:#181818;stroke-width:0.8000000000000002;"/><line style="stroke:#181818;stroke-width:0.8000000000000002;" x1="827.6" x2="938" y1="379.3438" y2="379.3438"/><text fill="#000000" font-family="sans-serif" font-size="10.4" font-weight="bold" lengthAdjust="spacing" textLength="11.2" x="833.2" y="375.4586">12</text><text fill="#000000" font-family="sans-serif" font-size="10.4" lengthAdjust="spacing" textLength="28.8" x="847.6" y="375.4586">create</text><path d="M511.6,391.3438 L570,391.3438 L570,398.025 L562,406.025 L511.6,406.025 L511.6,391.3438 " fill="#EEEEEE" style="stroke:#000000;stroke-width:1.2000000000000002;"/><rect fill="none" height="38.9625" style="stroke:#000000;stroke-width:1.2000000000000002;" width="500.8" x="511.6" y="391.3438"/><text fill="#000000" font-family="sans-serif" font-size="10.4" font-weight="bold" lengthAdjust="spacing" textLength="22.4" x="523.6" y="402.9398">loop</text><text fill="#000000" font-family="sans-serif" font-size="8.8" font-weight="bold" lengthAdjust="spacing" textLength="49.6" x="582" y="402.0789">[until exits]</text><polygon fill="#181818" points="937.2,420.7063,945.2,423.9063,937.2,427.1063,940.4,423.9063" style="stroke:#181818;stroke-width:0.8000000000000002;"/><line style="stroke:#181818;stroke-width:0.8000000000000002;" x1="582.8" x2="942" y1="423.9063" y2="423.9063"/><text fill="#000000" font-family="sans-serif" font-size="10.4" font-weight="bold" lengthAdjust="spacing" textLength="11.2" x="588.4" y="420.0211">13</text><text fill="#000000" font-family="sans-serif" font-size="10.4" lengthAdjust="spacing" textLength="128" x="602.8" y="420.0211">getCategory= getCategory()</text><polygon fill="#181818" points="62.8,450.5875,54.8,453.7875,62.8,456.9875,59.6,453.7875" style="stroke:#181818;stroke-width:0.8000000000000002;"/><line style="stroke:#181818;stroke-width:0.8000000000000002;stroke-dasharray:2.0,2.0;" x1="58" x2="467.6" y1="453.7875" y2="453.7875"/><text fill="#000000" font-family="sans-serif" font-size="10.4" font-weight="bold" lengthAdjust="spacing" textLength="11.2" x="67.6" y="449.9023">14</text><text fill="#000000" font-family="sans-serif" font-size="10.4" lengthAdjust="spacing" textLength="376.8" x="82" y="449.9023">shows list of products and asks to choose how to order the list (by name or price)</text><polygon fill="#181818" points="454.8,474.8688,462.8,478.0688,454.8,481.2688,458,478.0688" style="stroke:#181818;stroke-width:0.8000000000000002;"/><line style="stroke:#181818;stroke-width:0.8000000000000002;" x1="54" x2="459.6" y1="478.0688" y2="478.0688"/><text fill="#000000" font-family="sans-serif" font-size="10.4" font-weight="bold" lengthAdjust="spacing" textLength="11.2" x="59.6" y="474.1836">15</text><text fill="#000000" font-family="sans-serif" font-size="10.4" lengthAdjust="spacing" textLength="99.2" x="74" y="474.1836">chooses how to order</text><polygon fill="#181818" points="569.2,499.15,577.2,502.35,569.2,505.55,572.4,502.35" style="stroke:#181818;stroke-width:0.8000000000000002;"/><line style="stroke:#181818;stroke-width:0.8000000000000002;" x1="472.4" x2="574" y1="502.35" y2="502.35"/><text fill="#000000" font-family="sans-serif" font-size="10.4" font-weight="bold" lengthAdjust="spacing" textLength="11.2" x="478" y="498.4648">16</text><text fill="#000000" font-family="sans-serif" font-size="10.4" lengthAdjust="spacing" textLength="56" x="492.4" y="498.4648">getProducts</text><polygon fill="#181818" points="1052.8,523.4313,1060.8,526.6313,1052.8,529.8313,1056,526.6313" style="stroke:#181818;stroke-width:0.8000000000000002;"/><line style="stroke:#181818;stroke-width:0.8000000000000002;" x1="586.8" x2="1057.6" y1="526.6313" y2="526.6313"/><text fill="#000000" font-family="sans-serif" font-size="10.4" font-weight="bold" lengthAdjust="spacing" textLength="11.2" x="592.4" y="522.7461">17</text><text fill="#000000" font-family="sans-serif" font-size="10.4" lengthAdjust="spacing" textLength="128" x="606.8" y="522.7461">getProducts= getProducts()</text><polygon fill="#181818" points="569.2,571.7125,577.2,574.9125,569.2,578.1125,572.4,574.9125" style="stroke:#181818;stroke-width:0.8000000000000002;"/><line style="stroke:#181818;stroke-width:0.8000000000000002;" x1="472.4" x2="574" y1="574.9125" y2="574.9125"/><text fill="#000000" font-family="sans-serif" font-size="10.4" font-weight="bold" lengthAdjust="spacing" textLength="11.2" x="478" y="571.0273">18</text><text fill="#000000" font-family="sans-serif" font-size="10.4" lengthAdjust="spacing" textLength="64.8" x="492.4" y="571.0273">orderProducts</text><path d="M511.6,586.9125 L560.4,586.9125 L560.4,593.5938 L552.4,601.5938 L511.6,601.5938 L511.6,586.9125 " fill="#EEEEEE" style="stroke:#000000;stroke-width:1.2000000000000002;"/><rect fill="none" height="123.9125" style="stroke:#000000;stroke-width:1.2000000000000002;" width="616.8" x="511.6" y="586.9125"/><text fill="#000000" font-family="sans-serif" font-size="10.4" font-weight="bold" lengthAdjust="spacing" textLength="12.8" x="523.6" y="598.5086">alt</text><text fill="#000000" font-family="sans-serif" font-size="8.8" font-weight="bold" lengthAdjust="spacing" textLength="116.8" x="572.4" y="597.6477">[chooses to sort by name]</text><polygon fill="#181818" points="1052.8,616.275,1060.8,619.475,1052.8,622.675,1056,619.475" style="stroke:#181818;stroke-width:0.8000000000000002;"/><line style="stroke:#181818;stroke-width:0.8000000000000002;" x1="586.8" x2="1057.6" y1="619.475" y2="619.475"/><text fill="#000000" font-family="sans-serif" font-size="10.4" font-weight="bold" lengthAdjust="spacing" textLength="11.2" x="592.4" y="615.5898">19</text><text fill="#000000" font-family="sans-serif" font-size="10.4" lengthAdjust="spacing" textLength="142.4" x="606.8" y="615.5898">orderByName= orderByName()</text><line style="stroke:#000000;stroke-width:0.8000000000000002;stroke-dasharray:2.0,2.0;" x1="511.6" x2="1128.4" y1="650.675" y2="650.675"/><text fill="#000000" font-family="sans-serif" font-size="8.8" font-weight="bold" lengthAdjust="spacing" textLength="114.4" x="515.6" y="659.8102">[chooses to sort by price]</text><polygon fill="#181818" points="1052.8,677.225,1060.8,680.425,1052.8,683.625,1056,680.425" style="stroke:#181818;stroke-width:0.8000000000000002;"/><line style="stroke:#181818;stroke-width:0.8000000000000002;" x1="586.8" x2="1057.6" y1="680.425" y2="680.425"/><text fill="#000000" font-family="sans-serif" font-size="10.4" font-weight="bold" lengthAdjust="spacing" textLength="11.2" x="592.4" y="676.5398">20</text><text fill="#000000" font-family="sans-serif" font-size="10.4" lengthAdjust="spacing" textLength="136" x="606.8" y="676.5398">orderByPrice= orderByPrice()</text><polygon fill="#181818" points="62.8,731.1063,54.8,734.3063,62.8,737.5063,59.6,734.3063" style="stroke:#181818;stroke-width:0.8000000000000002;"/><line style="stroke:#181818;stroke-width:0.8000000000000002;stroke-dasharray:2.0,2.0;" x1="58" x2="467.6" y1="734.3063" y2="734.3063"/><text fill="#000000" font-family="sans-serif" font-size="10.4" font-weight="bold" lengthAdjust="spacing" textLength="11.2" x="67.6" y="730.4211">21</text><text fill="#000000" font-family="sans-serif" font-size="10.4" lengthAdjust="spacing" textLength="218.4" x="82" y="730.4211">shows list of products and asks for the barcode</text><polygon fill="#181818" points="454.8,755.3875,462.8,758.5875,454.8,761.7875,458,758.5875" style="stroke:#181818;stroke-width:0.8000000000000002;"/><line style="stroke:#181818;stroke-width:0.8000000000000002;" x1="54" x2="459.6" y1="758.5875" y2="758.5875"/><text fill="#000000" font-family="sans-serif" font-size="10.4" font-weight="bold" lengthAdjust="spacing" textLength="11.2" x="59.6" y="754.7023">22</text><text fill="#000000" font-family="sans-serif" font-size="10.4" lengthAdjust="spacing" textLength="164.8" x="74" y="754.7023">types the chosen product's barcode</text><polygon fill="#181818" points="569.2,779.6688,577.2,782.8688,569.2,786.0688,572.4,782.8688" style="stroke:#181818;stroke-width:0.8000000000000002;"/><line style="stroke:#181818;stroke-width:0.8000000000000002;" x1="472.4" x2="574" y1="782.8688" y2="782.8688"/><text fill="#000000" font-family="sans-serif" font-size="10.4" font-weight="bold" lengthAdjust="spacing" textLength="11.2" x="478" y="778.9836">23</text><text fill="#000000" font-family="sans-serif" font-size="10.4" lengthAdjust="spacing" textLength="50.4" x="492.4" y="778.9836">getProduct</text><polygon fill="#181818" points="1052.8,803.95,1060.8,807.15,1052.8,810.35,1056,807.15" style="stroke:#181818;stroke-width:0.8000000000000002;"/><line style="stroke:#181818;stroke-width:0.8000000000000002;" x1="586.8" x2="1057.6" y1="807.15" y2="807.15"/><text fill="#000000" font-family="sans-serif" font-size="10.4" font-weight="bold" lengthAdjust="spacing" textLength="11.2" x="592.4" y="803.2648">24</text><text fill="#000000" font-family="sans-serif" font-size="10.4" lengthAdjust="spacing" textLength="116.8" x="606.8" y="803.2648">getProduct= getProduct()</text><polygon fill="#181818" points="62.8,852.2313,54.8,855.4313,62.8,858.6313,59.6,855.4313" style="stroke:#181818;stroke-width:0.8000000000000002;"/><line style="stroke:#181818;stroke-width:0.8000000000000002;stroke-dasharray:2.0,2.0;" x1="58" x2="467.6" y1="855.4313" y2="855.4313"/><text fill="#000000" font-family="sans-serif" font-size="10.4" font-weight="bold" lengthAdjust="spacing" textLength="11.2" x="67.6" y="851.5461">25</text><text fill="#000000" font-family="sans-serif" font-size="10.4" lengthAdjust="spacing" textLength="246.4" x="82" y="851.5461">shows all data(code,description,brand,category,price)</text><polygon fill="#181818" points="454.8,882.1125,462.8,885.3125,454.8,888.5125,458,885.3125" style="stroke:#181818;stroke-width:0.8000000000000002;"/><line style="stroke:#181818;stroke-width:0.8000000000000002;" x1="54" x2="459.6" y1="885.3125" y2="885.3125"/><text fill="#000000" font-family="sans-serif" font-size="10.4" font-weight="bold" lengthAdjust="spacing" textLength="11.2" x="59.6" y="881.4273">26</text><text fill="#000000" font-family="sans-serif" font-size="10.4" lengthAdjust="spacing" textLength="80" x="74" y="881.4273">confirms the data</text><polygon fill="#181818" points="58.8,906.3938,50.8,909.5938,58.8,912.7938,55.6,909.5938" style="stroke:#181818;stroke-width:0.8000000000000002;"/><line style="stroke:#181818;stroke-width:0.8000000000000002;stroke-dasharray:2.0,2.0;" x1="54" x2="467.6" y1="909.5938" y2="909.5938"/><text fill="#000000" font-family="sans-serif" font-size="10.4" font-weight="bold" lengthAdjust="spacing" textLength="11.2" x="63.6" y="905.7086">27</text><text fill="#000000" font-family="sans-serif" font-size="10.4" lengthAdjust="spacing" textLength="121.6" x="78" y="905.7086">informs operation success</text><!--MD5=[b8d361ad12c76bd955c3deb8fe4f293d]
@startuml
autonumber
'hide footbox
actor "Sales Clerck" as SC
participant ":ViewCatalogUI" as UI
participant ":ViewCatalogController" as CTRL
participant ":PersistenceContext" as PC
participant ":RepositoryFactory" as RF
participant ":CategoryRepository" as CatRepo
participant ":ProductRepository" as ProdRepo

activate SC

SC -> UI : starts to view/search the products catalog
activate UI


UI -> CTRL : getCatalog
activate CTRL
CTRL -> PC : repositories()

activate PC
PC -> RF : create
deactivate PC
activate RF
RF -> ProdRepo : create
deactivate RF
activate ProdRepo
deactivate ProdRepo
CTRL -> ProdRepo : getCatalog= getCatalog()
deactivate CTRL
deactivate ProdRepo


loop until exits

UI - -> SC : asks for a field to filter the catalog
deactivate UI
SC -> UI : types the field
activate UI


UI -> CTRL : getCategory
activate CTRL
CTRL -> PC : repositories()

activate PC
PC -> RF : create
deactivate PC
activate RF
RF -> CatRepo : create
deactivate RF
activate CatRepo
deactivate CatRepo
loop until exits
CTRL -> CatRepo : getCategory= getCategory()
deactivate CTRL
deactivate CatRepo

end loop
UI - -> SC : shows list of products and asks to choose how to order the list (by name or price)
deactivate UI

SC -> UI : chooses how to order
activate UI


UI -> CTRL : getProducts
activate CTRL

CTRL -> ProdRepo : getProducts= getProducts()
activate ProdRepo
deactivate CTRL
deactivate ProdRepo

UI -> CTRL : orderProducts
activate CTRL

alt chooses to sort by name
CTRL -> ProdRepo : orderByName= orderByName()
activate ProdRepo
deactivate ProdRepo

else chooses to sort by price
CTRL -> ProdRepo : orderByPrice= orderByPrice()
activate ProdRepo
deactivate CTRL
deactivate ProdRepo
end


UI - -> SC : shows list of products and asks for the barcode
deactivate UI

SC -> UI : types the chosen product's barcode
activate UI


UI -> CTRL : getProduct
activate CTRL
CTRL -> ProdRepo : getProduct= getProduct()
activate ProdRepo
deactivate CTRL
deactivate ProdRepo

UI - -> SC :shows all data(code,description,brand,category,price)
deactivate UI

deactivate UI
end loop

SC -> UI : confirms the data

activate UI
UI - -> SC : informs operation success
deactivate UI

deactivate UI
deactivate SC

@enduml

@startuml
autonumber
actor "Sales Clerck" as SC
participant ":ViewCatalogUI" as UI
participant ":ViewCatalogController" as CTRL
participant ":PersistenceContext" as PC
participant ":RepositoryFactory" as RF
participant ":CategoryRepository" as CatRepo
participant ":ProductRepository" as ProdRepo

activate SC

SC -> UI : starts to view/search the products catalog
activate UI


UI -> CTRL : getCatalog
activate CTRL
CTRL -> PC : repositories()

activate PC
PC -> RF : create
deactivate PC
activate RF
RF -> ProdRepo : create
deactivate RF
activate ProdRepo
deactivate ProdRepo
CTRL -> ProdRepo : getCatalog= getCatalog()
deactivate CTRL
deactivate ProdRepo


loop until exits

UI - -> SC : asks for a field to filter the catalog
deactivate UI
SC -> UI : types the field
activate UI


UI -> CTRL : getCategory
activate CTRL
CTRL -> PC : repositories()

activate PC
PC -> RF : create
deactivate PC
activate RF
RF -> CatRepo : create
deactivate RF
activate CatRepo
deactivate CatRepo
loop until exits
CTRL -> CatRepo : getCategory= getCategory()
deactivate CTRL
deactivate CatRepo

end loop
UI - -> SC : shows list of products and asks to choose how to order the list (by name or price)
deactivate UI

SC -> UI : chooses how to order
activate UI


UI -> CTRL : getProducts
activate CTRL

CTRL -> ProdRepo : getProducts= getProducts()
activate ProdRepo
deactivate CTRL
deactivate ProdRepo

UI -> CTRL : orderProducts
activate CTRL

alt chooses to sort by name
CTRL -> ProdRepo : orderByName= orderByName()
activate ProdRepo
deactivate ProdRepo

else chooses to sort by price
CTRL -> ProdRepo : orderByPrice= orderByPrice()
activate ProdRepo
deactivate CTRL
deactivate ProdRepo
end


UI - -> SC : shows list of products and asks for the barcode
deactivate UI

SC -> UI : types the chosen product's barcode
activate UI


UI -> CTRL : getProduct
activate CTRL
CTRL -> ProdRepo : getProduct= getProduct()
activate ProdRepo
deactivate CTRL
deactivate ProdRepo

UI - -> SC :shows all data(code,description,brand,category,price)
deactivate UI

deactivate UI
end loop

SC -> UI : confirms the data

activate UI
UI - -> SC : informs operation success
deactivate UI

deactivate UI
deactivate SC

@enduml

PlantUML version 1.2022.4(Sat Apr 09 14:29:17 BST 2022)
(GPL source distribution)
Java Runtime: OpenJDK Runtime Environment
JVM: OpenJDK 64-Bit Server VM
Default Encoding: Cp1252
Language: pt
Country: PT
--></g></svg>