<?xml version="1.0" encoding="UTF-8" standalone="no"?><svg xmlns="http://www.w3.org/2000/svg" xmlns:xlink="http://www.w3.org/1999/xlink" contentScriptType="application/ecmascript" contentStyleType="text/css" height="416px" preserveAspectRatio="none" style="width:576px;height:416px;background:#FFFFFF;" version="1.1" viewBox="0 0 576 416" width="576px" zoomAndPan="magnify"><defs><filter height="300%" id="f3m4vyrar6qev" width="300%" x="-1" y="-1"><feGaussianBlur result="blurOut" stdDeviation="2.0"/><feColorMatrix in="blurOut" result="blurOut2" type="matrix" values="0 0 0 0 0 0 0 0 0 0 0 0 0 0 0 0 0 0 .4 0"/><feOffset dx="4.0" dy="4.0" in="blurOut2" result="blurOut3"/><feBlend in="SourceGraphic" in2="blurOut3" mode="normal"/></filter></defs><g><!--MD5=[9681dc6e01e10c6b4fe06895ae94f592]
cluster UI--><polygon fill="#FFFFFF" filter="url(#f3m4vyrar6qev)" points="211,6,231,6,238,29.6094,357,29.6094,357,106,211,106,211,6" style="stroke:#000000;stroke-width:1.5;"/><line style="stroke:#000000;stroke-width:1.5;" x1="211" x2="238" y1="29.6094" y2="29.6094"/><text fill="#000000" font-family="sans-serif" font-size="14" font-weight="bold" lengthAdjust="spacing" textLength="14" x="215" y="22.5332">UI</text><!--MD5=[1f2cfc53d9d308f53762fd0fcbaa4873]
cluster Controller--><polygon fill="#FFFFFF" filter="url(#f3m4vyrar6qev)" points="190,130,267,130,274,153.6094,378,153.6094,378,230,190,230,190,130" style="stroke:#000000;stroke-width:1.5;"/><line style="stroke:#000000;stroke-width:1.5;" x1="190" x2="274" y1="153.6094" y2="153.6094"/><text fill="#000000" font-family="sans-serif" font-size="14" font-weight="bold" lengthAdjust="spacing" textLength="71" x="194" y="146.5332">Controller</text><!--MD5=[4523f918a499262345e8d765b0fe948b]
cluster Order--><polygon fill="#FFFFFF" filter="url(#f3m4vyrar6qev)" points="16,254,63,254,70,277.6094,421,277.6094,421,409,16,409,16,254" style="stroke:#000000;stroke-width:1.5;"/><line style="stroke:#000000;stroke-width:1.5;" x1="16" x2="70" y1="277.6094" y2="277.6094"/><text fill="#000000" font-family="sans-serif" font-size="14" font-weight="bold" lengthAdjust="spacing" textLength="41" x="20" y="270.5332">Order</text><text fill="#000000" font-family="sans-serif" font-size="14" font-style="italic" lengthAdjust="spacing" textLength="82" x="181.5" y="294.1426">«Aggregate»</text><!--MD5=[5810de2917e203e3e76dad8ecc0f182f]
cluster Category--><polygon fill="#FFFFFF" filter="url(#f3m4vyrar6qev)" points="445,268.5,514,268.5,521,292.1094,559,292.1094,559,394.5,445,394.5,445,268.5" style="stroke:#000000;stroke-width:1.5;"/><line style="stroke:#000000;stroke-width:1.5;" x1="445" x2="521" y1="292.1094" y2="292.1094"/><text fill="#000000" font-family="sans-serif" font-size="14" font-weight="bold" lengthAdjust="spacing" textLength="63" x="449" y="285.0332">Category</text><text fill="#000000" font-family="sans-serif" font-size="14" font-style="italic" lengthAdjust="spacing" textLength="82" x="465" y="308.6426">«Aggregate»</text><!--MD5=[86429b8f6286f8ae82eb27da35b74181]
class ViewCatalogUI--><rect codeLine="4" fill="#FEFECE" filter="url(#f3m4vyrar6qev)" height="48" id="ViewCatalogUI" style="stroke:#A80036;stroke-width:1.5;" width="113" x="227.5" y="42"/><ellipse cx="242.5" cy="58" fill="#ADD1B2" rx="11" ry="11" style="stroke:#A80036;stroke-width:1.0;"/><path d="M244.5,54.5 Q244.7031,54 244.9375,53.75 Q245.1719,53.5 245.4375,53.5 Q245.9063,53.5 246.2031,53.7813 Q246.5,54.0625 246.5,54.7188 L246.5,56.2813 Q246.5,56.9375 246.2188,57.2188 Q245.9375,57.5 245.5,57.5 Q245.1094,57.5 244.8594,57.3281 Q244.6094,57.1563 244.5,56.7031 Q244.4531,56.3906 244.2813,56.2188 Q243.9688,55.8906 243.4063,55.7031 Q242.8438,55.5 242.2813,55.5 Q241.5781,55.5 240.9844,55.7813 Q240.4063,56.0625 239.9531,56.6875 Q239.5,57.3125 239.5,58.1719 L239.5,59.0938 Q239.5,60.125 240.3438,60.8125 Q241.1875,61.5 242.6875,61.5 Q243.5781,61.5 244.2031,61.2969 Q244.5625,61.1875 244.9688,60.8281 Q245.2344,60.625 245.375,60.5625 Q245.5156,60.5 245.6875,60.5 Q246.0156,60.5 246.25,60.7656 Q246.5,61.0156 246.5,61.375 Q246.5,61.7188 246.1563,62.125 Q245.6563,62.7188 244.8594,63.0469 Q243.8125,63.5 242.5313,63.5 Q241.0313,63.5 239.8281,62.9063 Q238.8594,62.4375 238.1719,61.4219 Q237.5,60.4063 237.5,59.2031 L237.5,58.1094 Q237.5,56.8594 238.0938,55.7656 Q238.7031,54.6719 239.75,54.0938 Q240.8125,53.5 242,53.5 Q242.7188,53.5 243.3438,53.75 Q243.9688,54 244.5,54.5 Z " fill="#000000"/><text fill="#000000" font-family="sans-serif" font-size="12" lengthAdjust="spacing" textLength="81" x="256.5" y="62.9102">ViewCatalogUI</text><line style="stroke:#A80036;stroke-width:1.5;" x1="228.5" x2="339.5" y1="74" y2="74"/><line style="stroke:#A80036;stroke-width:1.5;" x1="228.5" x2="339.5" y1="82" y2="82"/><!--MD5=[60885691ff61b259e8da5f4ba12b8b0f]
class ViewCatalogController--><rect codeLine="9" fill="#FEFECE" filter="url(#f3m4vyrar6qev)" height="48" id="ViewCatalogController" style="stroke:#A80036;stroke-width:1.5;" width="155" x="206.5" y="166"/><ellipse cx="221.5" cy="182" fill="#ADD1B2" rx="11" ry="11" style="stroke:#A80036;stroke-width:1.0;"/><path d="M223.5,178.5 Q223.7031,178 223.9375,177.75 Q224.1719,177.5 224.4375,177.5 Q224.9063,177.5 225.2031,177.7813 Q225.5,178.0625 225.5,178.7188 L225.5,180.2813 Q225.5,180.9375 225.2188,181.2188 Q224.9375,181.5 224.5,181.5 Q224.1094,181.5 223.8594,181.3281 Q223.6094,181.1563 223.5,180.7031 Q223.4531,180.3906 223.2813,180.2188 Q222.9688,179.8906 222.4063,179.7031 Q221.8438,179.5 221.2813,179.5 Q220.5781,179.5 219.9844,179.7813 Q219.4063,180.0625 218.9531,180.6875 Q218.5,181.3125 218.5,182.1719 L218.5,183.0938 Q218.5,184.125 219.3438,184.8125 Q220.1875,185.5 221.6875,185.5 Q222.5781,185.5 223.2031,185.2969 Q223.5625,185.1875 223.9688,184.8281 Q224.2344,184.625 224.375,184.5625 Q224.5156,184.5 224.6875,184.5 Q225.0156,184.5 225.25,184.7656 Q225.5,185.0156 225.5,185.375 Q225.5,185.7188 225.1563,186.125 Q224.6563,186.7188 223.8594,187.0469 Q222.8125,187.5 221.5313,187.5 Q220.0313,187.5 218.8281,186.9063 Q217.8594,186.4375 217.1719,185.4219 Q216.5,184.4063 216.5,183.2031 L216.5,182.1094 Q216.5,180.8594 217.0938,179.7656 Q217.7031,178.6719 218.75,178.0938 Q219.8125,177.5 221,177.5 Q221.7188,177.5 222.3438,177.75 Q222.9688,178 223.5,178.5 Z " fill="#000000"/><text fill="#000000" font-family="sans-serif" font-size="12" lengthAdjust="spacing" textLength="123" x="235.5" y="186.9102">ViewCatalogController</text><line style="stroke:#A80036;stroke-width:1.5;" x1="207.5" x2="360.5" y1="198" y2="198"/><line style="stroke:#A80036;stroke-width:1.5;" x1="207.5" x2="360.5" y1="206" y2="206"/><!--MD5=[72136138052d025cffdce3c22fbd185f]
class Product--><rect codeLine="16" fill="#FEFECE" filter="url(#f3m4vyrar6qev)" height="85.1172" id="Product" style="stroke:#A80036;stroke-width:1.5;" width="107" x="297.5" y="308"/><ellipse cx="327.35" cy="335.6406" fill="#ADD1B2" rx="11" ry="11" style="stroke:#A80036;stroke-width:1.0;"/><path d="M325.85,336.6406 L325.85,338.6406 L329.85,338.6406 L329.85,337.6406 L329.85,337.1563 L330.475,336.6406 L330.85,336.6406 L331.225,336.6406 L331.85,337.1563 L331.85,337.6406 L331.85,340.6406 L323.85,340.6406 L323.3656,340.6406 L322.85,340.0156 L322.85,339.6406 L322.85,339.2656 L323.3656,338.6406 L323.85,338.6406 L323.85,338.6406 L323.85,332.6406 L323.85,332.6406 L323.3656,332.6406 L322.85,332.0156 L322.85,331.6406 L322.85,331.2656 L323.3656,330.6406 L323.85,330.6406 L331.85,330.6406 L331.85,333.6406 L331.85,334.125 L331.225,334.6406 L330.85,334.6406 L330.475,334.6406 L329.85,334.125 L329.85,333.6406 L329.85,332.6406 L325.85,332.6406 L325.85,334.6406 L326.85,334.6406 L326.85,334.1563 L326.85,334.1563 L327.475,333.6406 L327.85,333.6406 L328.225,333.6406 L328.85,334.1563 L328.85,334.6406 L328.85,336.6406 L328.85,337.125 L328.225,337.6406 L328.225,337.6406 L327.85,337.6406 L327.475,337.6406 L326.85,337.125 L326.85,337.125 L326.85,336.6406 L325.85,336.6406 Z " fill="#000000"/><text fill="#000000" font-family="sans-serif" font-size="12" font-style="italic" lengthAdjust="spacing" textLength="44" x="343.65" y="325.457">«Entity»</text><text fill="#000000" font-family="sans-serif" font-size="12" font-style="italic" lengthAdjust="spacing" textLength="40" x="345.65" y="340.5508">«Root»</text><text fill="#000000" font-family="sans-serif" font-size="12" lengthAdjust="spacing" textLength="42" x="344.65" y="355.6445">Product</text><line style="stroke:#A80036;stroke-width:1.5;" x1="298.5" x2="403.5" y1="363.2813" y2="363.2813"/><text fill="#000000" font-family="sans-serif" font-size="11" lengthAdjust="spacing" textLength="95" x="303.5" y="378.7002">-ProductDescription</text><line style="stroke:#A80036;stroke-width:1.5;" x1="298.5" x2="403.5" y1="385.1172" y2="385.1172"/><!--MD5=[dfc542421e64cd05f8e432ec32216532]
class PriceTable--><rect codeLine="19" fill="#FEFECE" filter="url(#f3m4vyrar6qev)" height="56.1875" id="PriceTable" style="stroke:#A80036;stroke-width:1.5;" width="91" x="171.5" y="322.5"/><ellipse cx="186.5" cy="342.5938" fill="#ADD1B2" rx="11" ry="11" style="stroke:#A80036;stroke-width:1.0;"/><path d="M185,343.5938 L185,345.5938 L189,345.5938 L189,344.5938 L189,344.1094 L189.625,343.5938 L190,343.5938 L190.375,343.5938 L191,344.1094 L191,344.5938 L191,347.5938 L183,347.5938 L182.5156,347.5938 L182,346.9688 L182,346.5938 L182,346.2188 L182.5156,345.5938 L183,345.5938 L183,345.5938 L183,339.5938 L183,339.5938 L182.5156,339.5938 L182,338.9688 L182,338.5938 L182,338.2188 L182.5156,337.5938 L183,337.5938 L191,337.5938 L191,340.5938 L191,341.0781 L190.375,341.5938 L190,341.5938 L189.625,341.5938 L189,341.0781 L189,340.5938 L189,339.5938 L185,339.5938 L185,341.5938 L186,341.5938 L186,341.1094 L186,341.1094 L186.625,340.5938 L187,340.5938 L187.375,340.5938 L188,341.1094 L188,341.5938 L188,343.5938 L188,344.0781 L187.375,344.5938 L187.375,344.5938 L187,344.5938 L186.625,344.5938 L186,344.0781 L186,344.0781 L186,343.5938 L185,343.5938 Z " fill="#000000"/><text fill="#000000" font-family="sans-serif" font-size="12" font-style="italic" lengthAdjust="spacing" textLength="44" x="208" y="339.957">«Entity»</text><text fill="#000000" font-family="sans-serif" font-size="12" lengthAdjust="spacing" textLength="59" x="200.5" y="355.0508">PriceTable</text><line style="stroke:#A80036;stroke-width:1.5;" x1="172.5" x2="261.5" y1="362.6875" y2="362.6875"/><line style="stroke:#A80036;stroke-width:1.5;" x1="172.5" x2="261.5" y1="370.6875" y2="370.6875"/><!--MD5=[daea4ed884149fc5a9dd77ed50ff66dd]
class SalesRegion--><rect codeLine="20" fill="#FEFECE" filter="url(#f3m4vyrar6qev)" height="56.1875" id="SalesRegion" style="stroke:#A80036;stroke-width:1.5;" width="104" x="32" y="322.5"/><ellipse cx="47" cy="342.5938" fill="#ADD1B2" rx="11" ry="11" style="stroke:#A80036;stroke-width:1.0;"/><path d="M45.5,343.5938 L45.5,345.5938 L49.5,345.5938 L49.5,344.5938 L49.5,344.1094 L50.125,343.5938 L50.5,343.5938 L50.875,343.5938 L51.5,344.1094 L51.5,344.5938 L51.5,347.5938 L43.5,347.5938 L43.0156,347.5938 L42.5,346.9688 L42.5,346.5938 L42.5,346.2188 L43.0156,345.5938 L43.5,345.5938 L43.5,345.5938 L43.5,339.5938 L43.5,339.5938 L43.0156,339.5938 L42.5,338.9688 L42.5,338.5938 L42.5,338.2188 L43.0156,337.5938 L43.5,337.5938 L51.5,337.5938 L51.5,340.5938 L51.5,341.0781 L50.875,341.5938 L50.5,341.5938 L50.125,341.5938 L49.5,341.0781 L49.5,340.5938 L49.5,339.5938 L45.5,339.5938 L45.5,341.5938 L46.5,341.5938 L46.5,341.1094 L46.5,341.1094 L47.125,340.5938 L47.5,340.5938 L47.875,340.5938 L48.5,341.1094 L48.5,341.5938 L48.5,343.5938 L48.5,344.0781 L47.875,344.5938 L47.875,344.5938 L47.5,344.5938 L47.125,344.5938 L46.5,344.0781 L46.5,344.0781 L46.5,343.5938 L45.5,343.5938 Z " fill="#000000"/><text fill="#000000" font-family="sans-serif" font-size="12" font-style="italic" lengthAdjust="spacing" textLength="44" x="75" y="339.957">«Entity»</text><text fill="#000000" font-family="sans-serif" font-size="12" lengthAdjust="spacing" textLength="72" x="61" y="355.0508">SalesRegion</text><line style="stroke:#A80036;stroke-width:1.5;" x1="33" x2="135" y1="362.6875" y2="362.6875"/><line style="stroke:#A80036;stroke-width:1.5;" x1="33" x2="135" y1="370.6875" y2="370.6875"/><!--MD5=[a96594a83e2ecdc78cbf17c2ddf01934]
class Category--><rect codeLine="25" fill="#FEFECE" filter="url(#f3m4vyrar6qev)" height="56.1875" id="Category" style="stroke:#A80036;stroke-width:1.5;" width="81" x="461.5" y="322.5"/><ellipse cx="476.5" cy="342.5938" fill="#ADD1B2" rx="11" ry="11" style="stroke:#A80036;stroke-width:1.0;"/><path d="M475,343.5938 L475,345.5938 L479,345.5938 L479,344.5938 L479,344.1094 L479.625,343.5938 L480,343.5938 L480.375,343.5938 L481,344.1094 L481,344.5938 L481,347.5938 L473,347.5938 L472.5156,347.5938 L472,346.9688 L472,346.5938 L472,346.2188 L472.5156,345.5938 L473,345.5938 L473,345.5938 L473,339.5938 L473,339.5938 L472.5156,339.5938 L472,338.9688 L472,338.5938 L472,338.2188 L472.5156,337.5938 L473,337.5938 L481,337.5938 L481,340.5938 L481,341.0781 L480.375,341.5938 L480,341.5938 L479.625,341.5938 L479,341.0781 L479,340.5938 L479,339.5938 L475,339.5938 L475,341.5938 L476,341.5938 L476,341.1094 L476,341.1094 L476.625,340.5938 L477,340.5938 L477.375,340.5938 L478,341.1094 L478,341.5938 L478,343.5938 L478,344.0781 L477.375,344.5938 L477.375,344.5938 L477,344.5938 L476.625,344.5938 L476,344.0781 L476,344.0781 L476,343.5938 L475,343.5938 Z " fill="#000000"/><text fill="#000000" font-family="sans-serif" font-size="12" font-style="italic" lengthAdjust="spacing" textLength="44" x="493" y="339.957">«Entity»</text><text fill="#000000" font-family="sans-serif" font-size="12" lengthAdjust="spacing" textLength="49" x="490.5" y="355.0508">Category</text><line style="stroke:#A80036;stroke-width:1.5;" x1="462.5" x2="541.5" y1="362.6875" y2="362.6875"/><line style="stroke:#A80036;stroke-width:1.5;" x1="462.5" x2="541.5" y1="370.6875" y2="370.6875"/><!--MD5=[40fb8bc3ce01f8b419b259b0f59e3cf5]
link ViewCatalogUI to ViewCatalogController--><path codeLine="29" d="M284,90.23 C284,110.25 284,139.2 284,160.59 " fill="none" id="ViewCatalogUI-to-ViewCatalogController" style="stroke:#A80036;stroke-width:1.0;stroke-dasharray:7.0,7.0;"/><polygon fill="#A80036" points="284,165.85,288,156.85,284,160.85,280,156.85,284,165.85" style="stroke:#A80036;stroke-width:1.0;"/><!--MD5=[a68f3e21f21b913849507d4172d10460]
link ViewCatalogController to Category--><path codeLine="30" d="M361.69,214.04 C382.13,222.21 403.38,232.76 421,246 C447,265.53 469.15,295.39 483.68,318.02 " fill="none" id="ViewCatalogController-to-Category" style="stroke:#A80036;stroke-width:1.0;stroke-dasharray:7.0,7.0;"/><polygon fill="#A80036" points="486.49,322.45,485.0648,312.7048,483.8195,318.2229,478.3014,316.9776,486.49,322.45" style="stroke:#A80036;stroke-width:1.0;"/><!--MD5=[2be246ca0a2836a7b7ee60abcc3cd9a2]
link ViewCatalogController to PriceTable--><path codeLine="31" d="M274.26,214.05 C262.72,241.35 243.43,286.99 230.46,317.65 " fill="none" id="ViewCatalogController-to-PriceTable" style="stroke:#A80036;stroke-width:1.0;stroke-dasharray:7.0,7.0;"/><polygon fill="#A80036" points="228.44,322.44,235.6367,315.7164,230.3924,317.8369,228.2718,312.5926,228.44,322.44" style="stroke:#A80036;stroke-width:1.0;"/><!--MD5=[1e3eade0a768cc45ff46ae526a857d0a]
link ViewCatalogController to Product--><path codeLine="33" d="M293.74,214.05 C303.6,237.36 319.1,274.03 331.49,303.34 " fill="none" id="ViewCatalogController-to-Product" style="stroke:#A80036;stroke-width:1.0;stroke-dasharray:7.0,7.0;"/><polygon fill="#A80036" points="333.45,307.98,333.6331,298.1328,331.5046,303.374,326.2635,301.2455,333.45,307.98" style="stroke:#A80036;stroke-width:1.0;"/><!--MD5=[fec0becb688f6a1e1bc43cb25f941ee9]
link ViewCatalogController to SalesRegion--><path codeLine="35" d="M209.01,214.13 C189.83,222.26 170.09,232.77 154,246 C130.38,265.42 111.55,294.84 99.39,317.35 " fill="none" id="ViewCatalogController-to-SalesRegion" style="stroke:#A80036;stroke-width:1.0;stroke-dasharray:7.0,7.0;"/><polygon fill="#A80036" points="96.9,322.05,104.6525,315.9755,99.244,317.6335,97.5861,312.2251,96.9,322.05" style="stroke:#A80036;stroke-width:1.0;"/><!--MD5=[748d9756c693c698177da23cf48e42f4]
@startuml
skinparam classAttributeIconSize 0

package UI {
class ViewCatalogUI {
}
}

package Controller{
class ViewCatalogController {

}
}

package Order <<Aggregate>>{

entity Product <<Entity>> <<Root>> {
- ProductDescription
}
entity PriceTable <<Entity>>
entity SalesRegion <<Entity>>
}


package Category <<Aggregate>> {
    entity Category <<Entity>>

}

ViewCatalogUI ..> ViewCatalogController
ViewCatalogController ..> Category
ViewCatalogController ..>PriceTable

ViewCatalogController ..> Product

ViewCatalogController ..> SalesRegion


@enduml

PlantUML version 1.2022.1(Tue Feb 01 18:19:58 GMT 2022)
(GPL source distribution)
Java Runtime: OpenJDK Runtime Environment
JVM: OpenJDK 64-Bit Server VM
Default Encoding: Cp1252
Language: pt
Country: PT
--></g></svg>