<?xml version="1.0" encoding="UTF-8" standalone="no"?><svg xmlns="http://www.w3.org/2000/svg" xmlns:xlink="http://www.w3.org/1999/xlink" contentStyleType="text/css" height="290.4px" preserveAspectRatio="none" style="width:565px;height:290px;background:#FFFFFF;" version="1.1" viewBox="0 0 565 290" width="565.2px" zoomAndPan="magnify"><defs/><g><!--MD5=[86429b8f6286f8ae82eb27da35b74181]
class ViewCatalogUI--><g id="elem_ViewCatalogUI"><rect codeLine="4" fill="#F1F1F1" height="45.7875" id="ViewCatalogUI" rx="1.5" ry="1.5" style="stroke:#181818;stroke-width:0.3;" width="73.2" x="374.1" y="4.2"/><ellipse cx="383.1" cy="17.0109" fill="#ADD1B2" rx="6.6" ry="6.6" style="stroke:#181818;stroke-width:0.6;"/><path d="M384.3,14.9109 Q384.4219,14.6109 384.5625,14.4609 Q384.7031,14.3109 384.8625,14.3109 Q385.1438,14.3109 385.3219,14.4797 Q385.5,14.6484 385.5,15.0422 L385.5,15.9797 Q385.5,16.3734 385.3313,16.5422 Q385.1625,16.7109 384.9,16.7109 Q384.6656,16.7109 384.5156,16.6078 Q384.3656,16.5047 384.3,16.2328 Q384.2719,16.0453 384.1688,15.9422 Q383.9813,15.7453 383.6438,15.6328 Q383.3063,15.5109 382.9688,15.5109 Q382.5469,15.5109 382.1906,15.6797 Q381.8438,15.8484 381.5719,16.2234 Q381.3,16.5984 381.3,17.1141 L381.3,17.6672 Q381.3,18.2859 381.8063,18.6984 Q382.3125,19.1109 383.2125,19.1109 Q383.7469,19.1109 384.1219,18.9891 Q384.3375,18.9234 384.5813,18.7078 Q384.7406,18.5859 384.825,18.5484 Q384.9094,18.5109 385.0125,18.5109 Q385.2094,18.5109 385.35,18.6703 Q385.5,18.8203 385.5,19.0359 Q385.5,19.2422 385.2938,19.4859 Q384.9938,19.8422 384.5156,20.0391 Q383.8875,20.3109 383.1188,20.3109 Q382.2188,20.3109 381.4969,19.9547 Q380.9156,19.6734 380.5031,19.0641 Q380.1,18.4547 380.1,17.7328 L380.1,17.0766 Q380.1,16.3266 380.4563,15.6703 Q380.8219,15.0141 381.45,14.6672 Q382.0875,14.3109 382.8,14.3109 Q383.2313,14.3109 383.6063,14.4609 Q383.9813,14.6109 384.3,14.9109 Z " fill="#000000"/><text fill="#000000" font-family="sans-serif" font-size="7.2" font-style="italic" lengthAdjust="spacing" textLength="49.2" x="393.9" y="14.6742">«presentation»</text><text fill="#000000" font-family="sans-serif" font-size="8.4" lengthAdjust="spacing" textLength="54" x="391.5" y="24.9762">ViewCatalogUI</text><line style="stroke:#181818;stroke-width:0.3;" x1="374.7" x2="446.7" y1="29.8219" y2="29.8219"/><line style="stroke:#181818;stroke-width:0.3;" x1="374.7" x2="446.7" y1="34.6219" y2="34.6219"/><text fill="#000000" font-family="sans-serif" font-size="8.4" lengthAdjust="spacing" textLength="36" x="377.7" y="45.7418">doShow()</text></g><!--MD5=[60885691ff61b259e8da5f4ba12b8b0f]
class ViewCatalogController--><g id="elem_ViewCatalogController"><rect codeLine="8" fill="#F1F1F1" height="88.05" id="ViewCatalogController" rx="1.5" ry="1.5" style="stroke:#181818;stroke-width:0.3;" width="171" x="208.8" y="96.6"/><ellipse cx="249.75" cy="109.4109" fill="#ADD1B2" rx="6.6" ry="6.6" style="stroke:#181818;stroke-width:0.6;"/><path d="M250.95,107.3109 Q251.0719,107.0109 251.2125,106.8609 Q251.3531,106.7109 251.5125,106.7109 Q251.7938,106.7109 251.9719,106.8797 Q252.15,107.0484 252.15,107.4422 L252.15,108.3797 Q252.15,108.7734 251.9813,108.9422 Q251.8125,109.1109 251.55,109.1109 Q251.3156,109.1109 251.1656,109.0078 Q251.0156,108.9047 250.95,108.6328 Q250.9219,108.4453 250.8188,108.3422 Q250.6313,108.1453 250.2938,108.0328 Q249.9562,107.9109 249.6187,107.9109 Q249.1969,107.9109 248.8406,108.0797 Q248.4937,108.2484 248.2219,108.6234 Q247.95,108.9984 247.95,109.5141 L247.95,110.0672 Q247.95,110.6859 248.4562,111.0984 Q248.9625,111.5109 249.8625,111.5109 Q250.3969,111.5109 250.7719,111.3891 Q250.9875,111.3234 251.2313,111.1078 Q251.3906,110.9859 251.475,110.9484 Q251.5594,110.9109 251.6625,110.9109 Q251.8594,110.9109 252,111.0703 Q252.15,111.2203 252.15,111.4359 Q252.15,111.6422 251.9438,111.8859 Q251.6437,112.2422 251.1656,112.4391 Q250.5375,112.7109 249.7687,112.7109 Q248.8687,112.7109 248.1469,112.3547 Q247.5656,112.0734 247.1531,111.4641 Q246.75,110.8547 246.75,110.1328 L246.75,109.4766 Q246.75,108.7266 247.1063,108.0703 Q247.4719,107.4141 248.1,107.0672 Q248.7375,106.7109 249.45,106.7109 Q249.8813,106.7109 250.2563,106.8609 Q250.6313,107.0109 250.95,107.3109 Z " fill="#000000"/><text fill="#000000" font-family="sans-serif" font-size="7.2" font-style="italic" lengthAdjust="spacing" textLength="44.4" x="281.85" y="107.0742">«application»</text><text fill="#000000" font-family="sans-serif" font-size="8.4" lengthAdjust="spacing" textLength="84" x="262.05" y="117.3762">ViewCatalogController</text><line style="stroke:#181818;stroke-width:0.3;" x1="209.4" x2="379.2" y1="122.2219" y2="122.2219"/><line style="stroke:#181818;stroke-width:0.3;" x1="209.4" x2="379.2" y1="127.0219" y2="127.0219"/><text fill="#000000" font-family="sans-serif" font-size="8.4" lengthAdjust="spacing" textLength="104.4" x="212.4" y="138.1418">getProductByBrand( brand)</text><text fill="#000000" font-family="sans-serif" font-size="8.4" lengthAdjust="spacing" textLength="127.2" x="212.4" y="148.7074">getProductByCategory( category)</text><text fill="#000000" font-family="sans-serif" font-size="8.4" lengthAdjust="spacing" textLength="163.8" x="212.4" y="159.273">getProductByDescription( shortDescription)</text><text fill="#000000" font-family="sans-serif" font-size="8.4" lengthAdjust="spacing" textLength="93.6" x="212.4" y="169.8387">sortByPrice( productList)</text><text fill="#000000" font-family="sans-serif" font-size="8.4" lengthAdjust="spacing" textLength="117" x="212.4" y="180.4043">sortByDescription( productList)</text></g><!--MD5=[36e65ff18b6f5d58aed32f4733db2ea9]
class ProductSorter--><g id="elem_ProductSorter"><rect codeLine="10" fill="#F1F1F1" height="49.9313" id="ProductSorter" rx="1.5" ry="1.5" style="stroke:#181818;stroke-width:0.3;" width="100.8" x="356.7" y="234"/><ellipse cx="378.66" cy="243.6" fill="#ADD1B2" rx="6.6" ry="6.6" style="stroke:#181818;stroke-width:0.6;"/><path d="M379.86,241.5 Q379.9819,241.2 380.1225,241.05 Q380.2631,240.9 380.4225,240.9 Q380.7038,240.9 380.8819,241.0688 Q381.06,241.2375 381.06,241.6313 L381.06,242.5688 Q381.06,242.9625 380.8913,243.1313 Q380.7225,243.3 380.46,243.3 Q380.2256,243.3 380.0756,243.1969 Q379.9256,243.0938 379.86,242.8219 Q379.8319,242.6344 379.7288,242.5313 Q379.5413,242.3344 379.2038,242.2219 Q378.8663,242.1 378.5288,242.1 Q378.1069,242.1 377.7506,242.2687 Q377.4038,242.4375 377.1319,242.8125 Q376.86,243.1875 376.86,243.7031 L376.86,244.2563 Q376.86,244.875 377.3663,245.2875 Q377.8725,245.7 378.7725,245.7 Q379.3069,245.7 379.6819,245.5781 Q379.8975,245.5125 380.1413,245.2969 Q380.3006,245.175 380.385,245.1375 Q380.4694,245.1 380.5725,245.1 Q380.7694,245.1 380.91,245.2594 Q381.06,245.4094 381.06,245.625 Q381.06,245.8312 380.8538,246.075 Q380.5538,246.4312 380.0756,246.6281 Q379.4475,246.9 378.6788,246.9 Q377.7788,246.9 377.0569,246.5438 Q376.4756,246.2625 376.0631,245.6531 Q375.66,245.0438 375.66,244.3219 L375.66,243.6656 Q375.66,242.9156 376.0163,242.2594 Q376.3819,241.6031 377.01,241.2563 Q377.6475,240.9 378.36,240.9 Q378.7913,240.9 379.1663,241.05 Q379.5413,241.2 379.86,241.5 Z " fill="#000000"/><text fill="#000000" font-family="sans-serif" font-size="8.4" lengthAdjust="spacing" textLength="52.8" x="389.94" y="247.0371">ProductSorter</text><line style="stroke:#181818;stroke-width:0.3;" x1="357.3" x2="456.9" y1="253.2" y2="253.2"/><line style="stroke:#181818;stroke-width:0.3;" x1="357.3" x2="456.9" y1="258" y2="258"/><text fill="#000000" font-family="sans-serif" font-size="8.4" lengthAdjust="spacing" textLength="91.2" x="360.3" y="269.1199">sortByPrice(productList)</text><text fill="#000000" font-family="sans-serif" font-size="8.4" lengthAdjust="spacing" textLength="93.6" x="360.3" y="279.6855">sortByName(productList)</text></g><!--MD5=[f9761e4ec0e5a044b983a0fb01ce84a9]
class ProductRepository--><g id="elem_ProductRepository"><rect codeLine="11" fill="#F1F1F1" height="45.7875" id="ProductRepository" rx="1.5" ry="1.5" style="stroke:#181818;stroke-width:0.3;" width="89.4" x="4.2" y="236.1"/><ellipse cx="13.2" cy="248.9109" fill="#ADD1B2" rx="6.6" ry="6.6" style="stroke:#181818;stroke-width:0.6;"/><path d="M14.4,246.8109 Q14.5219,246.5109 14.6625,246.3609 Q14.8031,246.2109 14.9625,246.2109 Q15.2437,246.2109 15.4219,246.3797 Q15.6,246.5484 15.6,246.9422 L15.6,247.8797 Q15.6,248.2734 15.4312,248.4422 Q15.2625,248.6109 15,248.6109 Q14.7656,248.6109 14.6156,248.5078 Q14.4656,248.4047 14.4,248.1328 Q14.3719,247.9453 14.2687,247.8422 Q14.0812,247.6453 13.7438,247.5328 Q13.4063,247.4109 13.0688,247.4109 Q12.6469,247.4109 12.2906,247.5797 Q11.9438,247.7484 11.6719,248.1234 Q11.4,248.4984 11.4,249.0141 L11.4,249.5672 Q11.4,250.1859 11.9063,250.5984 Q12.4125,251.0109 13.3125,251.0109 Q13.8469,251.0109 14.2219,250.8891 Q14.4375,250.8234 14.6812,250.6078 Q14.8406,250.4859 14.925,250.4484 Q15.0094,250.4109 15.1125,250.4109 Q15.3094,250.4109 15.45,250.5703 Q15.6,250.7203 15.6,250.9359 Q15.6,251.1422 15.3937,251.3859 Q15.0938,251.7422 14.6156,251.9391 Q13.9875,252.2109 13.2188,252.2109 Q12.3188,252.2109 11.5969,251.8547 Q11.0156,251.5734 10.6031,250.9641 Q10.2,250.3547 10.2,249.6328 L10.2,248.9766 Q10.2,248.2266 10.5563,247.5703 Q10.9219,246.9141 11.55,246.5672 Q12.1875,246.2109 12.9,246.2109 Q13.3312,246.2109 13.7062,246.3609 Q14.0812,246.5109 14.4,246.8109 Z " fill="#000000"/><text fill="#000000" font-family="sans-serif" font-size="7.2" font-style="italic" lengthAdjust="spacing" textLength="40.8" x="36.3" y="246.5742">«repository»</text><text fill="#000000" font-family="sans-serif" font-size="8.4" lengthAdjust="spacing" textLength="70.2" x="21.6" y="256.8762">ProductRepository</text><line style="stroke:#181818;stroke-width:0.3;" x1="4.8" x2="93" y1="261.7219" y2="261.7219"/><line style="stroke:#181818;stroke-width:0.3;" x1="4.8" x2="93" y1="266.5219" y2="266.5219"/><text fill="#000000" font-family="sans-serif" font-size="8.4" lengthAdjust="spacing" textLength="62.4" x="7.8" y="277.6418">findAllProducts()</text></g><!--MD5=[72136138052d025cffdce3c22fbd185f]
class Product--><g id="elem_Product"><rect codeLine="15" fill="#F1F1F1" height="54.8438" id="Product" rx="1.5" ry="1.5" style="stroke:#181818;stroke-width:0.3;" width="82.2" x="478.8" y="231.6"/><ellipse cx="502.92" cy="248.9391" fill="#ADD1B2" rx="6.6" ry="6.6" style="stroke:#181818;stroke-width:0.6;"/><path d="M502.02,249.5391 L502.02,250.7391 L504.42,250.7391 L504.42,250.1391 L504.42,249.8484 L504.795,249.5391 L505.02,249.5391 L505.245,249.5391 L505.62,249.8484 L505.62,250.1391 L505.62,251.9391 L500.82,251.9391 L500.5294,251.9391 L500.22,251.5641 L500.22,251.3391 L500.22,251.1141 L500.5294,250.7391 L500.82,250.7391 L500.82,250.7391 L500.82,247.1391 L500.82,247.1391 L500.5294,247.1391 L500.22,246.7641 L500.22,246.5391 L500.22,246.3141 L500.5294,245.9391 L500.82,245.9391 L505.62,245.9391 L505.62,247.7391 L505.62,248.0297 L505.245,248.3391 L505.02,248.3391 L504.795,248.3391 L504.42,248.0297 L504.42,247.7391 L504.42,247.1391 L502.02,247.1391 L502.02,248.3391 L502.62,248.3391 L502.62,248.0484 L502.62,248.0484 L502.995,247.7391 L503.22,247.7391 L503.445,247.7391 L503.82,248.0484 L503.82,248.3391 L503.82,249.5391 L503.82,249.8297 L503.445,250.1391 L503.445,250.1391 L503.22,250.1391 L502.995,250.1391 L502.62,249.8297 L502.62,249.8297 L502.62,249.5391 L502.02,249.5391 Z " fill="#000000"/><text fill="#000000" font-family="sans-serif" font-size="7.2" font-style="italic" lengthAdjust="spacing" textLength="26.4" x="516.18" y="242.0742">«Entity»</text><text fill="#000000" font-family="sans-serif" font-size="7.2" font-style="italic" lengthAdjust="spacing" textLength="24" x="517.38" y="251.1305">«Root»</text><text fill="#000000" font-family="sans-serif" font-size="8.4" lengthAdjust="spacing" textLength="29.4" x="514.68" y="261.4324">Product</text><line style="stroke:#181818;stroke-width:0.3;" x1="479.4" x2="560.4" y1="266.2781" y2="266.2781"/><text fill="#000000" font-family="sans-serif" font-size="8.4" lengthAdjust="spacing" textLength="75" x="482.4" y="277.398">-ProductDescription</text><line style="stroke:#181818;stroke-width:0.3;" x1="479.4" x2="560.4" y1="281.6438" y2="281.6438"/></g><!--MD5=[a96594a83e2ecdc78cbf17c2ddf01934]
class Category--><g id="elem_Category"><rect codeLine="20" fill="#F1F1F1" height="35.2219" id="Category" rx="1.5" ry="1.5" style="stroke:#181818;stroke-width:0.3;" width="54" x="114.9" y="241.2"/><ellipse cx="123.9" cy="254.0109" fill="#ADD1B2" rx="6.6" ry="6.6" style="stroke:#181818;stroke-width:0.6;"/><path d="M123,254.6109 L123,255.8109 L125.4,255.8109 L125.4,255.2109 L125.4,254.9203 L125.775,254.6109 L126,254.6109 L126.225,254.6109 L126.6,254.9203 L126.6,255.2109 L126.6,257.0109 L121.8,257.0109 L121.5094,257.0109 L121.2,256.6359 L121.2,256.4109 L121.2,256.1859 L121.5094,255.8109 L121.8,255.8109 L121.8,255.8109 L121.8,252.2109 L121.8,252.2109 L121.5094,252.2109 L121.2,251.8359 L121.2,251.6109 L121.2,251.3859 L121.5094,251.0109 L121.8,251.0109 L126.6,251.0109 L126.6,252.8109 L126.6,253.1016 L126.225,253.4109 L126,253.4109 L125.775,253.4109 L125.4,253.1016 L125.4,252.8109 L125.4,252.2109 L123,252.2109 L123,253.4109 L123.6,253.4109 L123.6,253.1203 L123.6,253.1203 L123.975,252.8109 L124.2,252.8109 L124.425,252.8109 L124.8,253.1203 L124.8,253.4109 L124.8,254.6109 L124.8,254.9016 L124.425,255.2109 L124.425,255.2109 L124.2,255.2109 L123.975,255.2109 L123.6,254.9016 L123.6,254.9016 L123.6,254.6109 L123,254.6109 Z " fill="#000000"/><text fill="#000000" font-family="sans-serif" font-size="7.2" font-style="italic" lengthAdjust="spacing" textLength="26.4" x="136.5" y="251.6742">«Entity»</text><text fill="#000000" font-family="sans-serif" font-size="8.4" lengthAdjust="spacing" textLength="34.8" x="132.3" y="261.9762">Category</text><line style="stroke:#181818;stroke-width:0.3;" x1="115.5" x2="168.3" y1="266.8219" y2="266.8219"/><line style="stroke:#181818;stroke-width:0.3;" x1="115.5" x2="168.3" y1="271.6219" y2="271.6219"/></g><!--MD5=[8a78b94ac034f628eee9959bc26304be]
class Brand--><g id="elem_Brand"><rect fill="#F1F1F1" height="28.8" id="Brand" rx="1.5" ry="1.5" style="stroke:#181818;stroke-width:0.3;" width="42" x="189.9" y="244.5"/><ellipse cx="198.9" cy="254.1" fill="#ADD1B2" rx="6.6" ry="6.6" style="stroke:#181818;stroke-width:0.6;"/><path d="M200.1,252 Q200.2219,251.7 200.3625,251.55 Q200.5031,251.4 200.6625,251.4 Q200.9438,251.4 201.1219,251.5688 Q201.3,251.7375 201.3,252.1313 L201.3,253.0688 Q201.3,253.4625 201.1313,253.6313 Q200.9625,253.8 200.7,253.8 Q200.4656,253.8 200.3156,253.6969 Q200.1656,253.5938 200.1,253.3219 Q200.0719,253.1344 199.9688,253.0313 Q199.7813,252.8344 199.4438,252.7219 Q199.1063,252.6 198.7687,252.6 Q198.3469,252.6 197.9906,252.7687 Q197.6437,252.9375 197.3719,253.3125 Q197.1,253.6875 197.1,254.2031 L197.1,254.7563 Q197.1,255.375 197.6063,255.7875 Q198.1125,256.2 199.0125,256.2 Q199.5469,256.2 199.9219,256.0781 Q200.1375,256.0125 200.3813,255.7969 Q200.5406,255.675 200.625,255.6375 Q200.7094,255.6 200.8125,255.6 Q201.0094,255.6 201.15,255.7594 Q201.3,255.9094 201.3,256.125 Q201.3,256.3313 201.0938,256.575 Q200.7938,256.9313 200.3156,257.1281 Q199.6875,257.4 198.9188,257.4 Q198.0187,257.4 197.2969,257.0438 Q196.7156,256.7625 196.3031,256.1531 Q195.9,255.5438 195.9,254.8219 L195.9,254.1656 Q195.9,253.4156 196.2563,252.7594 Q196.6219,252.1031 197.25,251.7563 Q197.8875,251.4 198.6,251.4 Q199.0313,251.4 199.4063,251.55 Q199.7813,251.7 200.1,252 Z " fill="#000000"/><text fill="#000000" font-family="sans-serif" font-size="8.4" lengthAdjust="spacing" textLength="22.8" x="207.3" y="257.5371">Brand</text><line style="stroke:#181818;stroke-width:0.3;" x1="190.5" x2="231.3" y1="263.7" y2="263.7"/><line style="stroke:#181818;stroke-width:0.3;" x1="190.5" x2="231.3" y1="268.5" y2="268.5"/></g><!--MD5=[79d3acb8d8b4a000645cdf546551f625]
class ShortDescription--><g id="elem_ShortDescription"><rect fill="#F1F1F1" height="28.8" id="ShortDescription" rx="1.5" ry="1.5" style="stroke:#181818;stroke-width:0.3;" width="82.2" x="253.2" y="244.5"/><ellipse cx="262.2" cy="254.1" fill="#ADD1B2" rx="6.6" ry="6.6" style="stroke:#181818;stroke-width:0.6;"/><path d="M263.4,252 Q263.5219,251.7 263.6625,251.55 Q263.8031,251.4 263.9625,251.4 Q264.2438,251.4 264.4219,251.5688 Q264.6,251.7375 264.6,252.1313 L264.6,253.0688 Q264.6,253.4625 264.4313,253.6313 Q264.2625,253.8 264,253.8 Q263.7656,253.8 263.6156,253.6969 Q263.4656,253.5938 263.4,253.3219 Q263.3719,253.1344 263.2688,253.0313 Q263.0813,252.8344 262.7438,252.7219 Q262.4063,252.6 262.0687,252.6 Q261.6469,252.6 261.2906,252.7687 Q260.9437,252.9375 260.6719,253.3125 Q260.4,253.6875 260.4,254.2031 L260.4,254.7563 Q260.4,255.375 260.9063,255.7875 Q261.4125,256.2 262.3125,256.2 Q262.8469,256.2 263.2219,256.0781 Q263.4375,256.0125 263.6813,255.7969 Q263.8406,255.675 263.925,255.6375 Q264.0094,255.6 264.1125,255.6 Q264.3094,255.6 264.45,255.7594 Q264.6,255.9094 264.6,256.125 Q264.6,256.3313 264.3938,256.575 Q264.0938,256.9313 263.6156,257.1281 Q262.9875,257.4 262.2188,257.4 Q261.3187,257.4 260.5969,257.0438 Q260.0156,256.7625 259.6031,256.1531 Q259.2,255.5438 259.2,254.8219 L259.2,254.1656 Q259.2,253.4156 259.5563,252.7594 Q259.9219,252.1031 260.55,251.7563 Q261.1875,251.4 261.9,251.4 Q262.3313,251.4 262.7063,251.55 Q263.0813,251.7 263.4,252 Z " fill="#000000"/><text fill="#000000" font-family="sans-serif" font-size="8.4" lengthAdjust="spacing" textLength="63" x="270.6" y="257.5371">ShortDescription</text><line style="stroke:#181818;stroke-width:0.3;" x1="253.8" x2="334.8" y1="263.7" y2="263.7"/><line style="stroke:#181818;stroke-width:0.3;" x1="253.8" x2="334.8" y1="268.5" y2="268.5"/></g><!--MD5=[a68f3e21f21b913849507d4172d10460]
link ViewCatalogController to Category--><g id="link_ViewCatalogController_Category"><path codeLine="25" d="M237.552,184.866 C213.174,203.58 185.946,224.484 166.794,239.184 " fill="none" id="ViewCatalogController-to-Category" style="stroke:#181818;stroke-width:0.6;"/><polygon fill="#181818" points="164.268,241.128,170.0117,239.7389,166.6462,239.2993,167.0858,235.9338,164.268,241.128" style="stroke:#181818;stroke-width:0.6;"/></g><!--MD5=[1e3eade0a768cc45ff46ae526a857d0a]
link ViewCatalogController to Product--><g id="link_ViewCatalogController_Product"><path codeLine="26" d="M378.306,184.866 C411.432,202.044 448.104,221.064 475.83,235.446 " fill="none" id="ViewCatalogController-to-Product" style="stroke:#181818;stroke-width:0.6;"/><polygon fill="#181818" points="478.656,236.91,474.9756,232.2868,475.9953,235.5241,472.758,236.5438,478.656,236.91" style="stroke:#181818;stroke-width:0.6;"/><text fill="#000000" font-family="sans-serif" font-size="7.8" lengthAdjust="spacing" textLength="37.8" x="427.5" y="211.4971">theProduct</text></g><!--MD5=[e1131d1684a62e94cf79a48d3749b7f8]
link ViewCatalogController to Brand--><g id="link_ViewCatalogController_Brand"><path codeLine="27" d="M263.244,184.866 C249.06,204.768 233.112,227.136 222.588,241.896 " fill="none" id="ViewCatalogController-to-Brand" style="stroke:#181818;stroke-width:0.6;"/><polygon fill="#181818" points="220.818,244.38,225.9057,241.374,222.5585,241.9365,221.996,238.5893,220.818,244.38" style="stroke:#181818;stroke-width:0.6;"/></g><!--MD5=[4a2dd4d91db26e5e279d53454f3e55ca]
link ViewCatalogController to ShortDescription--><g id="link_ViewCatalogController_ShortDescription"><path codeLine="28" d="M294.3,184.866 C294.3,204.516 294.3,226.584 294.3,241.344 " fill="none" id="ViewCatalogController-to-ShortDescription" style="stroke:#181818;stroke-width:0.6;"/><polygon fill="#181818" points="294.3,244.38,296.7,238.98,294.3,241.38,291.9,238.98,294.3,244.38" style="stroke:#181818;stroke-width:0.6;"/></g><!--MD5=[40fb8bc3ce01f8b419b259b0f59e3cf5]
link ViewCatalogUI to ViewCatalogController--><g id="link_ViewCatalogUI_ViewCatalogController"><path codeLine="29" d="M387.702,49.824 C374.568,62.52 357.6,78.918 341.742,94.248 " fill="none" id="ViewCatalogUI-to-ViewCatalogController" style="stroke:#181818;stroke-width:0.6;"/><polygon fill="#181818" points="339.408,96.504,344.9571,94.4723,341.5634,94.4173,341.6183,91.0236,339.408,96.504" style="stroke:#181818;stroke-width:0.6;"/><text fill="#000000" font-family="sans-serif" font-size="7.8" lengthAdjust="spacing" textLength="43.8" x="366.9" y="76.4971">theController</text></g><!--MD5=[8ebd2ce3f074323b12abc9b1aab3de66]
link ViewCatalogUI to Product--><g id="link_ViewCatalogUI_Product"><path codeLine="30" d="M421.272,49.932 C441.078,91.782 483.792,182.016 505.944,228.81 " fill="none" id="ViewCatalogUI-to-Product" style="stroke:#181818;stroke-width:0.6;stroke-dasharray:7.0,7.0;"/><polygon fill="#181818" points="507.24,231.552,507.1078,225.6442,505.9605,228.8385,502.7662,227.6913,507.24,231.552" style="stroke:#181818;stroke-width:0.6;"/><text fill="#000000" font-family="sans-serif" font-size="7.8" lengthAdjust="spacing" textLength="37.8" x="485.1" y="143.9971">theProduct</text></g><!--MD5=[201364d21bfd415ec2c4aa4dfbf507ed]
link ViewCatalogController to ProductRepository--><g id="link_ViewCatalogController_ProductRepository"><path codeLine="32" d="M208.788,181.734 C176.016,197.274 138.3,215.208 104.1,231.6 C101.634,232.782 99.102,233.994 96.552,235.224 " fill="none" id="ViewCatalogController-to-ProductRepository" style="stroke:#181818;stroke-width:0.6;"/><polygon fill="#181818" points="93.774,236.562,99.6806,236.384,96.4775,235.2616,97.6,232.0584,93.774,236.562" style="stroke:#181818;stroke-width:0.6;"/><text fill="#000000" font-family="sans-serif" font-size="7.8" lengthAdjust="spacing" textLength="15" x="162.3" y="211.4971">repo</text></g><!--MD5=[12f7310e23388535722b820f24ba4c8a]
link ViewCatalogController to ProductSorter--><g id="link_ViewCatalogController_ProductSorter"><path codeLine="33" d="M336.3,184.866 C351.462,200.592 368.112,217.86 381.456,231.702 " fill="none" id="ViewCatalogController-to-ProductSorter" style="stroke:#181818;stroke-width:0.6;"/><polygon fill="#181818" points="383.568,233.892,381.5473,228.3389,381.4856,231.7325,378.092,231.6708,383.568,233.892" style="stroke:#181818;stroke-width:0.6;"/><text fill="#000000" font-family="sans-serif" font-size="7.8" lengthAdjust="spacing" textLength="19.8" x="360.9" y="211.4971">sorter</text></g><!--MD5=[f28b0215d9533f80e297c50b55ccd983]
@startuml
skinparam classAttributeIconSize 0


class ViewCatalogUI <<presentation>>



class ViewCatalogController <<application>>

class ProductSorter
class ProductRepository <<repository>>



entity Product <<Entity>> <<Root>> {
- ProductDescription
}


    entity Category <<Entity>>




ViewCatalogController - -> Category
ViewCatalogController - -> Product: theProduct
ViewCatalogController - ->Brand
ViewCatalogController - ->ShortDescription
ViewCatalogUI - -> ViewCatalogController : theController
ViewCatalogUI ..> Product : theProduct
ViewCatalogUI : doShow()
ViewCatalogController - -> ProductRepository : repo
ViewCatalogController - -> ProductSorter : sorter
ProductSorter : sortByPrice(productList)
ProductSorter : sortByName(productList)
ViewCatalogController : getProductByBrand( brand)
ViewCatalogController : getProductByCategory( category)
ViewCatalogController : getProductByDescription( shortDescription)
ViewCatalogController : sortByPrice( productList)
ViewCatalogController : sortByDescription( productList)

ProductRepository : findAllProducts()

@enduml

PlantUML version 1.2022.4(Sat Apr 09 14:29:17 BST 2022)
(GPL source distribution)
Java Runtime: OpenJDK Runtime Environment
JVM: OpenJDK 64-Bit Server VM
Default Encoding: Cp1252
Language: pt
Country: PT
--></g></svg>