<?xml version="1.0" encoding="UTF-8" standalone="no"?><svg xmlns="http://www.w3.org/2000/svg" xmlns:xlink="http://www.w3.org/1999/xlink" contentStyleType="text/css" height="316px" preserveAspectRatio="none" style="width:282px;height:316px;background:#FFFFFF;" version="1.1" viewBox="0 0 282 316" width="282.4px" zoomAndPan="magnify"><defs/><g><!--MD5=[2db72af7162cb1f528c20ced9ec610b5]
class CheckOpenOrderUI--><g id="elem_CheckOpenOrderUI"><rect codeLine="4" fill="#F1F1F1" height="61.05" id="CheckOpenOrderUI" rx="2" ry="2" style="stroke:#181818;stroke-width:0.4000000000000001;" width="124.8" x="92" y="5.6"/><ellipse cx="104" cy="22.6813" fill="#ADD1B2" rx="8.8" ry="8.8" style="stroke:#181818;stroke-width:0.8000000000000002;"/><path d="M105.6,19.8813 Q105.7625,19.4813 105.95,19.2813 Q106.1375,19.0813 106.35,19.0813 Q106.725,19.0813 106.9625,19.3063 Q107.2,19.5313 107.2,20.0563 L107.2,21.3063 Q107.2,21.8313 106.975,22.0563 Q106.75,22.2813 106.4,22.2813 Q106.0875,22.2813 105.8875,22.1438 Q105.6875,22.0063 105.6,21.6438 Q105.5625,21.3938 105.425,21.2563 Q105.175,20.9938 104.725,20.8438 Q104.275,20.6813 103.825,20.6813 Q103.2625,20.6813 102.7875,20.9063 Q102.325,21.1313 101.9625,21.6313 Q101.6,22.1313 101.6,22.8188 L101.6,23.5563 Q101.6,24.3813 102.275,24.9313 Q102.95,25.4813 104.15,25.4813 Q104.8625,25.4813 105.3625,25.3188 Q105.65,25.2313 105.975,24.9438 Q106.1875,24.7813 106.3,24.7313 Q106.4125,24.6813 106.55,24.6813 Q106.8125,24.6813 107,24.8938 Q107.2,25.0938 107.2,25.3813 Q107.2,25.6563 106.925,25.9813 Q106.525,26.4563 105.8875,26.7188 Q105.05,27.0813 104.025,27.0813 Q102.825,27.0813 101.8625,26.6063 Q101.0875,26.2313 100.5375,25.4188 Q100,24.6063 100,23.6438 L100,22.7688 Q100,21.7688 100.475,20.8938 Q100.9625,20.0188 101.8,19.5563 Q102.65,19.0813 103.6,19.0813 Q104.175,19.0813 104.675,19.2813 Q105.175,19.4813 105.6,19.8813 Z " fill="#000000"/><text fill="#000000" font-family="sans-serif" font-size="9.6" font-style="italic" lengthAdjust="spacing" textLength="65.6" x="132" y="19.5656">«presentation»</text><text fill="#000000" font-family="sans-serif" font-size="11.2" lengthAdjust="spacing" textLength="99.2" x="115.2" y="33.3016">CheckOpenOrderUI</text><line style="stroke:#181818;stroke-width:0.4000000000000001;" x1="92.8" x2="216" y1="39.7625" y2="39.7625"/><line style="stroke:#181818;stroke-width:0.4000000000000001;" x1="92.8" x2="216" y1="46.1625" y2="46.1625"/><text fill="#000000" font-family="sans-serif" font-size="11.2" lengthAdjust="spacing" textLength="48" x="96.8" y="60.9891">doShow()</text></g><!--MD5=[cffc85b1f638066180f5dbc4a56c8e42]
class CheckOpenOrderController--><g id="elem_CheckOpenOrderController"><rect codeLine="8" fill="#F1F1F1" height="61.05" id="CheckOpenOrderController" rx="2" ry="2" style="stroke:#181818;stroke-width:0.4000000000000001;" width="164.8" x="72" y="128.8"/><ellipse cx="84" cy="145.8813" fill="#ADD1B2" rx="8.8" ry="8.8" style="stroke:#181818;stroke-width:0.8000000000000002;"/><path d="M85.6,143.0813 Q85.7625,142.6813 85.95,142.4813 Q86.1375,142.2813 86.35,142.2813 Q86.725,142.2813 86.9625,142.5063 Q87.2,142.7313 87.2,143.2563 L87.2,144.5063 Q87.2,145.0313 86.975,145.2563 Q86.75,145.4813 86.4,145.4813 Q86.0875,145.4813 85.8875,145.3438 Q85.6875,145.2063 85.6,144.8438 Q85.5625,144.5938 85.425,144.4563 Q85.175,144.1938 84.725,144.0438 Q84.275,143.8813 83.825,143.8813 Q83.2625,143.8813 82.7875,144.1063 Q82.325,144.3313 81.9625,144.8313 Q81.6,145.3313 81.6,146.0188 L81.6,146.7563 Q81.6,147.5813 82.275,148.1313 Q82.95,148.6813 84.15,148.6813 Q84.8625,148.6813 85.3625,148.5188 Q85.65,148.4313 85.975,148.1438 Q86.1875,147.9813 86.3,147.9313 Q86.4125,147.8813 86.55,147.8813 Q86.8125,147.8813 87,148.0938 Q87.2,148.2938 87.2,148.5813 Q87.2,148.8563 86.925,149.1813 Q86.525,149.6563 85.8875,149.9188 Q85.05,150.2813 84.025,150.2813 Q82.825,150.2813 81.8625,149.8063 Q81.0875,149.4313 80.5375,148.6188 Q80,147.8063 80,146.8438 L80,145.9688 Q80,144.9688 80.475,144.0938 Q80.9625,143.2188 81.8,142.7563 Q82.65,142.2813 83.6,142.2813 Q84.175,142.2813 84.675,142.4813 Q85.175,142.6813 85.6,143.0813 Z " fill="#000000"/><text fill="#000000" font-family="sans-serif" font-size="9.6" font-style="italic" lengthAdjust="spacing" textLength="59.2" x="135.2" y="142.7656">«application»</text><text fill="#000000" font-family="sans-serif" font-size="11.2" lengthAdjust="spacing" textLength="139.2" x="95.2" y="156.5016">CheckOpenOrderController</text><line style="stroke:#181818;stroke-width:0.4000000000000001;" x1="72.8" x2="236" y1="162.9625" y2="162.9625"/><line style="stroke:#181818;stroke-width:0.4000000000000001;" x1="72.8" x2="236" y1="169.3625" y2="169.3625"/><text fill="#000000" font-family="sans-serif" font-size="11.2" lengthAdjust="spacing" textLength="99.2" x="76.8" y="184.1891">getAllOpenOrders()</text></g><!--MD5=[bd7ae71472438d91a1e396970731067c]
class ProductOrderRepository--><g id="elem_ProductOrderRepository"><rect codeLine="10" fill="#F1F1F1" height="46.9625" id="ProductOrderRepository" rx="2" ry="2" style="stroke:#181818;stroke-width:0.4000000000000001;" width="148.8" x="5.6" y="258"/><ellipse cx="17.6" cy="275.0813" fill="#ADD1B2" rx="8.8" ry="8.8" style="stroke:#181818;stroke-width:0.8000000000000002;"/><path d="M19.2,272.2813 Q19.3625,271.8813 19.55,271.6813 Q19.7375,271.4813 19.95,271.4813 Q20.325,271.4813 20.5625,271.7063 Q20.8,271.9313 20.8,272.4563 L20.8,273.7063 Q20.8,274.2313 20.575,274.4563 Q20.35,274.6813 20,274.6813 Q19.6875,274.6813 19.4875,274.5438 Q19.2875,274.4063 19.2,274.0438 Q19.1625,273.7938 19.025,273.6563 Q18.775,273.3938 18.325,273.2438 Q17.875,273.0813 17.425,273.0813 Q16.8625,273.0813 16.3875,273.3063 Q15.925,273.5313 15.5625,274.0313 Q15.2,274.5313 15.2,275.2188 L15.2,275.9563 Q15.2,276.7813 15.875,277.3313 Q16.55,277.8813 17.75,277.8813 Q18.4625,277.8813 18.9625,277.7188 Q19.25,277.6313 19.575,277.3438 Q19.7875,277.1813 19.9,277.1313 Q20.0125,277.0813 20.15,277.0813 Q20.4125,277.0813 20.6,277.2938 Q20.8,277.4938 20.8,277.7813 Q20.8,278.0563 20.525,278.3813 Q20.125,278.8563 19.4875,279.1188 Q18.65,279.4813 17.625,279.4813 Q16.425,279.4813 15.4625,279.0063 Q14.6875,278.6313 14.1375,277.8188 Q13.6,277.0063 13.6,276.0438 L13.6,275.1688 Q13.6,274.1688 14.075,273.2938 Q14.5625,272.4188 15.4,271.9563 Q16.25,271.4813 17.2,271.4813 Q17.775,271.4813 18.275,271.6813 Q18.775,271.8813 19.2,272.2813 Z " fill="#000000"/><text fill="#000000" font-family="sans-serif" font-size="9.6" font-style="italic" lengthAdjust="spacing" textLength="54.4" x="63.2" y="271.9656">«repository»</text><text fill="#000000" font-family="sans-serif" font-size="11.2" lengthAdjust="spacing" textLength="123.2" x="28.8" y="285.7016">ProductOrderRepository</text><line style="stroke:#181818;stroke-width:0.4000000000000001;" x1="6.4" x2="153.6" y1="292.1625" y2="292.1625"/><line style="stroke:#181818;stroke-width:0.4000000000000001;" x1="6.4" x2="153.6" y1="298.5625" y2="298.5625"/></g><!--MD5=[9265192601ae3d68217fc2a2ce1ea439]
class ProductOrder--><g id="elem_ProductOrder"><rect codeLine="14" fill="#F1F1F1" height="59.0375" id="ProductOrder" rx="2" ry="2" style="stroke:#181818;stroke-width:0.4000000000000001;" width="94.4" x="182.4" y="252"/><ellipse cx="194.4" cy="275.1188" fill="#ADD1B2" rx="8.8" ry="8.8" style="stroke:#181818;stroke-width:0.8000000000000002;"/><path d="M193.2,275.9188 L193.2,277.5188 L196.4,277.5188 L196.4,276.7188 L196.4,276.3313 L196.9,275.9188 L197.2,275.9188 L197.5,275.9188 L198,276.3313 L198,276.7188 L198,279.1188 L191.6,279.1188 L191.2125,279.1188 L190.8,278.6188 L190.8,278.3188 L190.8,278.0188 L191.2125,277.5188 L191.6,277.5188 L191.6,277.5188 L191.6,272.7188 L191.6,272.7188 L191.2125,272.7188 L190.8,272.2188 L190.8,271.9188 L190.8,271.6188 L191.2125,271.1188 L191.6,271.1188 L198,271.1188 L198,273.5188 L198,273.9063 L197.5,274.3188 L197.2,274.3188 L196.9,274.3188 L196.4,273.9063 L196.4,273.5188 L196.4,272.7188 L193.2,272.7188 L193.2,274.3188 L194,274.3188 L194,273.9313 L194,273.9313 L194.5,273.5188 L194.8,273.5188 L195.1,273.5188 L195.6,273.9313 L195.6,274.3188 L195.6,275.9188 L195.6,276.3063 L195.1,276.7188 L195.1,276.7188 L194.8,276.7188 L194.5,276.7188 L194,276.3063 L194,276.3063 L194,275.9188 L193.2,275.9188 Z " fill="#000000"/><text fill="#000000" font-family="sans-serif" font-size="9.6" font-style="italic" lengthAdjust="spacing" textLength="35.2" x="222.4" y="265.9656">«Entity»</text><text fill="#000000" font-family="sans-serif" font-size="9.6" font-style="italic" lengthAdjust="spacing" textLength="32" x="224" y="278.0406">«Root»</text><text fill="#000000" font-family="sans-serif" font-size="11.2" lengthAdjust="spacing" textLength="68.8" x="205.6" y="291.7766">ProductOrder</text><line style="stroke:#181818;stroke-width:0.4000000000000001;" x1="183.2" x2="276" y1="298.2375" y2="298.2375"/><line style="stroke:#181818;stroke-width:0.4000000000000001;" x1="183.2" x2="276" y1="304.6375" y2="304.6375"/></g><!--MD5=[d69fc0eef2c8b3e93e15097a45842f11]
link CheckOpenOrderController to ProductOrder--><g id="link_CheckOpenOrderController_ProductOrder"><path codeLine="20" d="M172.992,189.864 C184.04,207.608 198.064,230.136 209.384,248.328 " fill="none" id="CheckOpenOrderController-to-ProductOrder" style="stroke:#181818;stroke-width:0.8000000000000002;"/><polygon fill="#181818" points="211.616,251.904,210.5254,244.1008,209.5011,248.5088,205.0931,247.4845,211.616,251.904" style="stroke:#181818;stroke-width:0.8000000000000002;"/></g><!--MD5=[5ae5e7c2983228878596f9285fce6b1c]
link CheckOpenOrderUI to CheckOpenOrderController--><g id="link_CheckOpenOrderUI_CheckOpenOrderController"><path codeLine="21" d="M154.4,66.544 C154.4,84.128 154.4,106.448 154.4,124.688 " fill="none" id="CheckOpenOrderUI-to-CheckOpenOrderController" style="stroke:#181818;stroke-width:0.8000000000000002;"/><polygon fill="#181818" points="154.4,128.752,157.6,121.552,154.4,124.752,151.2,121.552,154.4,128.752" style="stroke:#181818;stroke-width:0.8000000000000002;"/><text fill="#000000" font-family="sans-serif" font-size="10.4" lengthAdjust="spacing" textLength="58.4" x="155.2" y="101.9961">theController</text></g><!--MD5=[64e31ea89d49d7e12b762626432ccd8e]
link CheckOpenOrderController to ProductOrderRepository--><g id="link_CheckOpenOrderController_ProductOrderRepository"><path codeLine="23" d="M136.008,189.864 C123.856,209.592 108.072,235.224 96.352,254.248 " fill="none" id="CheckOpenOrderController-to-ProductOrderRepository" style="stroke:#181818;stroke-width:0.8000000000000002;"/><polygon fill="#181818" points="94.216,257.72,100.7215,253.2749,96.3175,254.3165,95.2759,249.9125,94.216,257.72" style="stroke:#181818;stroke-width:0.8000000000000002;"/><text fill="#000000" font-family="sans-serif" font-size="10.4" lengthAdjust="spacing" textLength="20" x="120.8" y="225.1961">repo</text></g><!--MD5=[86c2233d13883949035f83790214b14e]
@startuml
skinparam classAttributeIconSize 0


class CheckOpenOrderUI <<presentation>>



class CheckOpenOrderController <<application>>

class ProductOrderRepository <<repository>>



entity ProductOrder <<Entity>> <<Root>>





CheckOpenOrderController - -> ProductOrder
CheckOpenOrderUI - -> CheckOpenOrderController : theController
CheckOpenOrderUI : doShow()
CheckOpenOrderController - -> ProductOrderRepository : repo
CheckOpenOrderController : getAllOpenOrders()

@enduml

PlantUML version 1.2022.4(Sat Apr 09 14:29:17 BST 2022)
(GPL source distribution)
Java Runtime: OpenJDK Runtime Environment
JVM: OpenJDK 64-Bit Server VM
Default Encoding: Cp1252
Language: pt
Country: PT
--></g></svg>