<?xml version="1.0" encoding="UTF-8" standalone="no"?><svg xmlns="http://www.w3.org/2000/svg" xmlns:xlink="http://www.w3.org/1999/xlink" contentStyleType="text/css" height="761px" preserveAspectRatio="none" style="width:1795px;height:761px;background:#FFFFFF;" version="1.1" viewBox="0 0 1795 761" width="1795px" zoomAndPan="magnify"><defs/><g><rect fill="#FFFFFF" height="568.3281" style="stroke:#181818;stroke-width:1.0;" width="10" x="33.5" y="92.6094"/><rect fill="#FFFFFF" height="485.2734" style="stroke:#181818;stroke-width:1.0;" width="10" x="361.5" y="114.9609"/><rect fill="#FFFFFF" height="30.3516" style="stroke:#181818;stroke-width:1.0;" width="10" x="361.5" y="630.5859"/><rect fill="#FFFFFF" height="30" style="stroke:#181818;stroke-width:1.0;" width="10" x="599.5" y="145.3125"/><rect fill="#FFFFFF" height="121.4063" style="stroke:#181818;stroke-width:1.0;" width="10" x="779" y="205.6641"/><rect fill="#FFFFFF" height="212.4609" style="stroke:#181818;stroke-width:1.0;" width="10" x="779" y="357.4219"/><rect fill="#FFFFFF" height="30.3516" style="stroke:#181818;stroke-width:1.0;" width="10" x="955" y="236.0156"/><rect fill="#FFFFFF" height="30.3516" style="stroke:#181818;stroke-width:1.0;" width="10" x="955" y="387.7734"/><rect fill="#FFFFFF" height="30.3516" style="stroke:#181818;stroke-width:1.0;" width="10" x="1102" y="266.3672"/><rect fill="#FFFFFF" height="30.3516" style="stroke:#181818;stroke-width:1.0;" width="10" x="1102" y="418.125"/><rect fill="#FFFFFF" height="30.3516" style="stroke:#181818;stroke-width:1.0;" width="10" x="1252.5" y="296.7188"/><rect fill="#FFFFFF" height="30.3516" style="stroke:#181818;stroke-width:1.0;" width="10" x="1422" y="448.4766"/><rect fill="#FFFFFF" height="30.3516" style="stroke:#181818;stroke-width:1.0;" width="10" x="1593.5" y="509.1797"/><rect fill="#FFFFFF" height="30.3516" style="stroke:#181818;stroke-width:1.0;" width="10" x="1731.5" y="539.5313"/><line style="stroke:#181818;stroke-width:0.5;stroke-dasharray:5.0,5.0;" x1="38" x2="38" y1="82.6094" y2="678.9375"/><line style="stroke:#181818;stroke-width:0.5;stroke-dasharray:5.0,5.0;" x1="366.5" x2="366.5" y1="82.6094" y2="678.9375"/><line style="stroke:#181818;stroke-width:0.5;stroke-dasharray:5.0,5.0;" x1="604" x2="604" y1="82.6094" y2="678.9375"/><line style="stroke:#181818;stroke-width:0.5;stroke-dasharray:5.0,5.0;" x1="784" x2="784" y1="82.6094" y2="678.9375"/><line style="stroke:#181818;stroke-width:0.5;stroke-dasharray:5.0,5.0;" x1="960" x2="960" y1="82.6094" y2="678.9375"/><line style="stroke:#181818;stroke-width:0.5;stroke-dasharray:5.0,5.0;" x1="1107" x2="1107" y1="82.6094" y2="678.9375"/><line style="stroke:#181818;stroke-width:0.5;stroke-dasharray:5.0,5.0;" x1="1257" x2="1257" y1="82.6094" y2="678.9375"/><line style="stroke:#181818;stroke-width:0.5;stroke-dasharray:5.0,5.0;" x1="1427" x2="1427" y1="82.6094" y2="678.9375"/><line style="stroke:#181818;stroke-width:0.5;stroke-dasharray:5.0,5.0;" x1="1598" x2="1598" y1="82.6094" y2="678.9375"/><line style="stroke:#181818;stroke-width:0.5;stroke-dasharray:5.0,5.0;" x1="1736" x2="1736" y1="82.6094" y2="678.9375"/><text fill="#000000" font-family="sans-serif" font-size="14" lengthAdjust="spacing" textLength="61" x="5" y="79.5332">Customer</text><ellipse cx="38.5" cy="13.5" fill="#E2E2F0" rx="8" ry="8" style="stroke:#181818;stroke-width:0.5;"/><path d="M38.5,21.5 L38.5,48.5 M25.5,29.5 L51.5,29.5 M38.5,48.5 L25.5,63.5 M38.5,48.5 L51.5,63.5 " fill="none" style="stroke:#181818;stroke-width:0.5;"/><text fill="#000000" font-family="sans-serif" font-size="14" lengthAdjust="spacing" textLength="61" x="5" y="692.4707">Customer</text><ellipse cx="38.5" cy="704.0469" fill="#E2E2F0" rx="8" ry="8" style="stroke:#181818;stroke-width:0.5;"/><path d="M38.5,712.0469 L38.5,739.0469 M25.5,720.0469 L51.5,720.0469 M38.5,739.0469 L25.5,754.0469 M38.5,739.0469 L51.5,754.0469 " fill="none" style="stroke:#181818;stroke-width:0.5;"/><rect fill="#E2E2F0" height="49.2188" rx="2.5" ry="2.5" style="stroke:#181818;stroke-width:0.5;" width="142" x="295.5" y="32.3906"/><text fill="#000000" font-family="sans-serif" font-size="14" font-style="italic" lengthAdjust="spacing" textLength="95" x="319" y="53.9238">«presentation»</text><text fill="#000000" font-family="sans-serif" font-size="14" lengthAdjust="spacing" textLength="128" x="302.5" y="71.5332">:CheckOpenOrderUI</text><rect fill="#E2E2F0" height="49.2188" rx="2.5" ry="2.5" style="stroke:#181818;stroke-width:0.5;" width="142" x="295.5" y="677.9375"/><text fill="#000000" font-family="sans-serif" font-size="14" font-style="italic" lengthAdjust="spacing" textLength="95" x="319" y="699.4707">«presentation»</text><text fill="#000000" font-family="sans-serif" font-size="14" lengthAdjust="spacing" textLength="128" x="302.5" y="717.0801">:CheckOpenOrderUI</text><rect fill="#E2E2F0" height="49.2188" rx="2.5" ry="2.5" style="stroke:#181818;stroke-width:0.5;" width="147" x="531" y="32.3906"/><text fill="#000000" font-family="sans-serif" font-size="14" font-style="italic" lengthAdjust="spacing" textLength="84" x="562.5" y="53.9238">«application»</text><text fill="#000000" font-family="sans-serif" font-size="14" lengthAdjust="spacing" textLength="133" x="538" y="71.5332">:AuthorizationService</text><rect fill="#E2E2F0" height="49.2188" rx="2.5" ry="2.5" style="stroke:#181818;stroke-width:0.5;" width="147" x="531" y="677.9375"/><text fill="#000000" font-family="sans-serif" font-size="14" font-style="italic" lengthAdjust="spacing" textLength="84" x="562.5" y="699.4707">«application»</text><text fill="#000000" font-family="sans-serif" font-size="14" lengthAdjust="spacing" textLength="133" x="538" y="717.0801">:AuthorizationService</text><rect fill="#E2E2F0" height="49.2188" rx="2.5" ry="2.5" style="stroke:#181818;stroke-width:0.5;" width="192" x="688" y="32.3906"/><text fill="#000000" font-family="sans-serif" font-size="14" font-style="italic" lengthAdjust="spacing" textLength="84" x="742" y="53.9238">«application»</text><text fill="#000000" font-family="sans-serif" font-size="14" lengthAdjust="spacing" textLength="178" x="695" y="71.5332">:CheckOpenOrderController</text><rect fill="#E2E2F0" height="49.2188" rx="2.5" ry="2.5" style="stroke:#181818;stroke-width:0.5;" width="192" x="688" y="677.9375"/><text fill="#000000" font-family="sans-serif" font-size="14" font-style="italic" lengthAdjust="spacing" textLength="84" x="742" y="699.4707">«application»</text><text fill="#000000" font-family="sans-serif" font-size="14" lengthAdjust="spacing" textLength="178" x="695" y="717.0801">:CheckOpenOrderController</text><rect fill="#E2E2F0" height="31.6094" rx="2.5" ry="2.5" style="stroke:#181818;stroke-width:0.5;" width="140" x="890" y="50"/><text fill="#000000" font-family="sans-serif" font-size="14" lengthAdjust="spacing" textLength="126" x="897" y="71.5332">:PersistenceContext</text><rect fill="#E2E2F0" height="31.6094" rx="2.5" ry="2.5" style="stroke:#181818;stroke-width:0.5;" width="140" x="890" y="677.9375"/><text fill="#000000" font-family="sans-serif" font-size="14" lengthAdjust="spacing" textLength="126" x="897" y="699.4707">:PersistenceContext</text><rect fill="#E2E2F0" height="31.6094" rx="2.5" ry="2.5" style="stroke:#181818;stroke-width:0.5;" width="134" x="1040" y="50"/><text fill="#000000" font-family="sans-serif" font-size="14" lengthAdjust="spacing" textLength="120" x="1047" y="71.5332">:RepositoryFactory</text><rect fill="#E2E2F0" height="31.6094" rx="2.5" ry="2.5" style="stroke:#181818;stroke-width:0.5;" width="134" x="1040" y="677.9375"/><text fill="#000000" font-family="sans-serif" font-size="14" lengthAdjust="spacing" textLength="120" x="1047" y="699.4707">:RepositoryFactory</text><rect fill="#E2E2F0" height="49.2188" rx="2.5" ry="2.5" style="stroke:#181818;stroke-width:0.5;" width="147" x="1184" y="32.3906"/><text fill="#000000" font-family="sans-serif" font-size="14" font-style="italic" lengthAdjust="spacing" textLength="79" x="1218" y="53.9238">«repository»</text><text fill="#000000" font-family="sans-serif" font-size="14" lengthAdjust="spacing" textLength="133" x="1191" y="71.5332">:CustomerRepository</text><rect fill="#E2E2F0" height="49.2188" rx="2.5" ry="2.5" style="stroke:#181818;stroke-width:0.5;" width="147" x="1184" y="677.9375"/><text fill="#000000" font-family="sans-serif" font-size="14" font-style="italic" lengthAdjust="spacing" textLength="79" x="1218" y="699.4707">«repository»</text><text fill="#000000" font-family="sans-serif" font-size="14" lengthAdjust="spacing" textLength="133" x="1191" y="717.0801">:CustomerRepository</text><rect fill="#E2E2F0" height="49.2188" rx="2.5" ry="2.5" style="stroke:#181818;stroke-width:0.5;" width="172" x="1341" y="32.3906"/><text fill="#000000" font-family="sans-serif" font-size="14" font-style="italic" lengthAdjust="spacing" textLength="79" x="1387.5" y="53.9238">«repository»</text><text fill="#000000" font-family="sans-serif" font-size="14" lengthAdjust="spacing" textLength="158" x="1348" y="71.5332">:ProductOrderRepository</text><rect fill="#E2E2F0" height="49.2188" rx="2.5" ry="2.5" style="stroke:#181818;stroke-width:0.5;" width="172" x="1341" y="677.9375"/><text fill="#000000" font-family="sans-serif" font-size="14" font-style="italic" lengthAdjust="spacing" textLength="79" x="1387.5" y="699.4707">«repository»</text><text fill="#000000" font-family="sans-serif" font-size="14" lengthAdjust="spacing" textLength="158" x="1348" y="717.0801">:ProductOrderRepository</text><rect fill="#E2E2F0" height="49.2188" rx="2.5" ry="2.5" style="stroke:#181818;stroke-width:0.5;" width="151" x="1523" y="32.3906"/><text fill="#000000" font-family="sans-serif" font-size="14" font-style="italic" lengthAdjust="spacing" textLength="84" x="1556.5" y="53.9238">«application»</text><text fill="#000000" font-family="sans-serif" font-size="14" lengthAdjust="spacing" textLength="137" x="1530" y="71.5332">:ProductOrderService</text><rect fill="#E2E2F0" height="49.2188" rx="2.5" ry="2.5" style="stroke:#181818;stroke-width:0.5;" width="151" x="1523" y="677.9375"/><text fill="#000000" font-family="sans-serif" font-size="14" font-style="italic" lengthAdjust="spacing" textLength="84" x="1556.5" y="699.4707">«application»</text><text fill="#000000" font-family="sans-serif" font-size="14" lengthAdjust="spacing" textLength="137" x="1530" y="717.0801">:ProductOrderService</text><rect fill="#E2E2F0" height="49.2188" rx="2.5" ry="2.5" style="stroke:#181818;stroke-width:0.5;" width="105" x="1684" y="32.3906"/><text fill="#000000" font-family="sans-serif" font-size="14" font-style="italic" lengthAdjust="spacing" textLength="50" x="1711.5" y="53.9238">«proxy»</text><text fill="#000000" font-family="sans-serif" font-size="14" lengthAdjust="spacing" textLength="91" x="1691" y="71.5332">:ProtocolProxy</text><rect fill="#E2E2F0" height="49.2188" rx="2.5" ry="2.5" style="stroke:#181818;stroke-width:0.5;" width="105" x="1684" y="677.9375"/><text fill="#000000" font-family="sans-serif" font-size="14" font-style="italic" lengthAdjust="spacing" textLength="50" x="1711.5" y="699.4707">«proxy»</text><text fill="#000000" font-family="sans-serif" font-size="14" lengthAdjust="spacing" textLength="91" x="1691" y="717.0801">:ProtocolProxy</text><rect fill="#FFFFFF" height="568.3281" style="stroke:#181818;stroke-width:1.0;" width="10" x="33.5" y="92.6094"/><rect fill="#FFFFFF" height="485.2734" style="stroke:#181818;stroke-width:1.0;" width="10" x="361.5" y="114.9609"/><rect fill="#FFFFFF" height="30.3516" style="stroke:#181818;stroke-width:1.0;" width="10" x="361.5" y="630.5859"/><rect fill="#FFFFFF" height="30" style="stroke:#181818;stroke-width:1.0;" width="10" x="599.5" y="145.3125"/><rect fill="#FFFFFF" height="121.4063" style="stroke:#181818;stroke-width:1.0;" width="10" x="779" y="205.6641"/><rect fill="#FFFFFF" height="212.4609" style="stroke:#181818;stroke-width:1.0;" width="10" x="779" y="357.4219"/><rect fill="#FFFFFF" height="30.3516" style="stroke:#181818;stroke-width:1.0;" width="10" x="955" y="236.0156"/><rect fill="#FFFFFF" height="30.3516" style="stroke:#181818;stroke-width:1.0;" width="10" x="955" y="387.7734"/><rect fill="#FFFFFF" height="30.3516" style="stroke:#181818;stroke-width:1.0;" width="10" x="1102" y="266.3672"/><rect fill="#FFFFFF" height="30.3516" style="stroke:#181818;stroke-width:1.0;" width="10" x="1102" y="418.125"/><rect fill="#FFFFFF" height="30.3516" style="stroke:#181818;stroke-width:1.0;" width="10" x="1252.5" y="296.7188"/><rect fill="#FFFFFF" height="30.3516" style="stroke:#181818;stroke-width:1.0;" width="10" x="1422" y="448.4766"/><rect fill="#FFFFFF" height="30.3516" style="stroke:#181818;stroke-width:1.0;" width="10" x="1593.5" y="509.1797"/><rect fill="#FFFFFF" height="30.3516" style="stroke:#181818;stroke-width:1.0;" width="10" x="1731.5" y="539.5313"/><polygon fill="#181818" points="349.5,110.9609,359.5,114.9609,349.5,118.9609,353.5,114.9609" style="stroke:#181818;stroke-width:1.0;"/><line style="stroke:#181818;stroke-width:1.0;" x1="43.5" x2="355.5" y1="114.9609" y2="114.9609"/><text fill="#000000" font-family="sans-serif" font-size="13" font-weight="bold" lengthAdjust="spacing" textLength="7" x="50.5" y="110.1045">1</text><text fill="#000000" font-family="sans-serif" font-size="13" lengthAdjust="spacing" textLength="200" x="61.5" y="110.1045">asks to view the list of open orders</text><polygon fill="#181818" points="587.5,141.3125,597.5,145.3125,587.5,149.3125,591.5,145.3125" style="stroke:#181818;stroke-width:1.0;"/><line style="stroke:#181818;stroke-width:1.0;" x1="371.5" x2="593.5" y1="145.3125" y2="145.3125"/><text fill="#000000" font-family="sans-serif" font-size="13" font-weight="bold" lengthAdjust="spacing" textLength="7" x="378.5" y="140.4561">2</text><text fill="#000000" font-family="sans-serif" font-size="13" lengthAdjust="spacing" textLength="198" x="389.5" y="140.4561">email=getCustomerLoggedInEmail</text><polygon fill="#181818" points="767,201.6641,777,205.6641,767,209.6641,771,205.6641" style="stroke:#181818;stroke-width:1.0;"/><line style="stroke:#181818;stroke-width:1.0;" x1="371.5" x2="773" y1="205.6641" y2="205.6641"/><text fill="#000000" font-family="sans-serif" font-size="13" font-weight="bold" lengthAdjust="spacing" textLength="7" x="378.5" y="200.8076">3</text><text fill="#000000" font-family="sans-serif" font-size="13" lengthAdjust="spacing" textLength="123" x="389.5" y="200.8076">getCustomerByEmail</text><polygon fill="#181818" points="943,232.0156,953,236.0156,943,240.0156,947,236.0156" style="stroke:#181818;stroke-width:1.0;"/><line style="stroke:#181818;stroke-width:1.0;" x1="789" x2="949" y1="236.0156" y2="236.0156"/><text fill="#000000" font-family="sans-serif" font-size="13" font-weight="bold" lengthAdjust="spacing" textLength="7" x="796" y="231.1592">4</text><text fill="#000000" font-family="sans-serif" font-size="13" lengthAdjust="spacing" textLength="75" x="807" y="231.1592">repositories()</text><polygon fill="#181818" points="1090,262.3672,1100,266.3672,1090,270.3672,1094,266.3672" style="stroke:#181818;stroke-width:1.0;"/><line style="stroke:#181818;stroke-width:1.0;" x1="960" x2="1096" y1="266.3672" y2="266.3672"/><text fill="#000000" font-family="sans-serif" font-size="13" font-weight="bold" lengthAdjust="spacing" textLength="7" x="967" y="261.5107">5</text><text fill="#000000" font-family="sans-serif" font-size="13" lengthAdjust="spacing" textLength="36" x="978" y="261.5107">create</text><polygon fill="#181818" points="1240.5,292.7188,1250.5,296.7188,1240.5,300.7188,1244.5,296.7188" style="stroke:#181818;stroke-width:1.0;"/><line style="stroke:#181818;stroke-width:1.0;" x1="1107" x2="1246.5" y1="296.7188" y2="296.7188"/><text fill="#000000" font-family="sans-serif" font-size="13" font-weight="bold" lengthAdjust="spacing" textLength="7" x="1114" y="291.8623">6</text><text fill="#000000" font-family="sans-serif" font-size="13" lengthAdjust="spacing" textLength="36" x="1125" y="291.8623">create</text><polygon fill="#181818" points="1245.5,323.0703,1255.5,327.0703,1245.5,331.0703,1249.5,327.0703" style="stroke:#181818;stroke-width:1.0;"/><line style="stroke:#181818;stroke-width:1.0;" x1="784" x2="1251.5" y1="327.0703" y2="327.0703"/><text fill="#000000" font-family="sans-serif" font-size="13" font-weight="bold" lengthAdjust="spacing" textLength="7" x="791" y="322.2139">7</text><text fill="#000000" font-family="sans-serif" font-size="13" lengthAdjust="spacing" textLength="301" x="802" y="322.2139">getCustomerByEmail=  getCustomerByEmail(email)</text><polygon fill="#181818" points="767,353.4219,777,357.4219,767,361.4219,771,357.4219" style="stroke:#181818;stroke-width:1.0;"/><line style="stroke:#181818;stroke-width:1.0;" x1="371.5" x2="773" y1="357.4219" y2="357.4219"/><text fill="#000000" font-family="sans-serif" font-size="13" font-weight="bold" lengthAdjust="spacing" textLength="7" x="378.5" y="352.5654">8</text><text fill="#000000" font-family="sans-serif" font-size="13" lengthAdjust="spacing" textLength="88" x="389.5" y="352.5654">getOpenOrders</text><polygon fill="#181818" points="943,383.7734,953,387.7734,943,391.7734,947,387.7734" style="stroke:#181818;stroke-width:1.0;"/><line style="stroke:#181818;stroke-width:1.0;" x1="789" x2="949" y1="387.7734" y2="387.7734"/><text fill="#000000" font-family="sans-serif" font-size="13" font-weight="bold" lengthAdjust="spacing" textLength="7" x="796" y="382.917">9</text><text fill="#000000" font-family="sans-serif" font-size="13" lengthAdjust="spacing" textLength="75" x="807" y="382.917">repositories()</text><polygon fill="#181818" points="1090,414.125,1100,418.125,1090,422.125,1094,418.125" style="stroke:#181818;stroke-width:1.0;"/><line style="stroke:#181818;stroke-width:1.0;" x1="960" x2="1096" y1="418.125" y2="418.125"/><text fill="#000000" font-family="sans-serif" font-size="13" font-weight="bold" lengthAdjust="spacing" textLength="14" x="967" y="413.2686">10</text><text fill="#000000" font-family="sans-serif" font-size="13" lengthAdjust="spacing" textLength="36" x="985" y="413.2686">create</text><polygon fill="#181818" points="1410,444.4766,1420,448.4766,1410,452.4766,1414,448.4766" style="stroke:#181818;stroke-width:1.0;"/><line style="stroke:#181818;stroke-width:1.0;" x1="1107" x2="1416" y1="448.4766" y2="448.4766"/><text fill="#000000" font-family="sans-serif" font-size="13" font-weight="bold" lengthAdjust="spacing" textLength="14" x="1114" y="443.6201">11</text><text fill="#000000" font-family="sans-serif" font-size="13" lengthAdjust="spacing" textLength="36" x="1132" y="443.6201">create</text><polygon fill="#181818" points="1415,474.8281,1425,478.8281,1415,482.8281,1419,478.8281" style="stroke:#181818;stroke-width:1.0;"/><line style="stroke:#181818;stroke-width:1.0;" x1="789" x2="1421" y1="478.8281" y2="478.8281"/><text fill="#000000" font-family="sans-serif" font-size="13" font-weight="bold" lengthAdjust="spacing" textLength="14" x="796" y="473.9717">12</text><text fill="#000000" font-family="sans-serif" font-size="13" lengthAdjust="spacing" textLength="298" x="814" y="473.9717">getOpenOrders= getOpenOrders(Status, Customer)</text><polygon fill="#181818" points="1581.5,505.1797,1591.5,509.1797,1581.5,513.1797,1585.5,509.1797" style="stroke:#181818;stroke-width:1.0;"/><line style="stroke:#181818;stroke-width:1.0;" x1="789" x2="1587.5" y1="509.1797" y2="509.1797"/><text fill="#000000" font-family="sans-serif" font-size="13" font-weight="bold" lengthAdjust="spacing" textLength="14" x="796" y="504.3232">13</text><text fill="#000000" font-family="sans-serif" font-size="13" lengthAdjust="spacing" textLength="322" x="814" y="504.3232">printOpenOrderList=printOpenOrderList(getOpenOrders)</text><polygon fill="#181818" points="1719.5,535.5313,1729.5,539.5313,1719.5,543.5313,1723.5,539.5313" style="stroke:#181818;stroke-width:1.0;"/><line style="stroke:#181818;stroke-width:1.0;" x1="789" x2="1725.5" y1="539.5313" y2="539.5313"/><text fill="#000000" font-family="sans-serif" font-size="13" font-weight="bold" lengthAdjust="spacing" textLength="14" x="796" y="534.6748">14</text><text fill="#000000" font-family="sans-serif" font-size="13" lengthAdjust="spacing" textLength="325" x="814" y="534.6748">sendOrdersToServer= sendOrdersToServer(status,email)</text><polygon fill="#181818" points="382.5,565.8828,372.5,569.8828,382.5,573.8828,378.5,569.8828" style="stroke:#181818;stroke-width:1.0;"/><line style="stroke:#181818;stroke-width:1.0;stroke-dasharray:2.0,2.0;" x1="376.5" x2="783" y1="569.8828" y2="569.8828"/><text fill="#000000" font-family="sans-serif" font-size="13" font-weight="bold" lengthAdjust="spacing" textLength="14" x="388.5" y="565.0264">15</text><text fill="#000000" font-family="sans-serif" font-size="13" lengthAdjust="spacing" textLength="108" x="406.5" y="565.0264">getOpenOrdersDto</text><polygon fill="#181818" points="54.5,596.2344,44.5,600.2344,54.5,604.2344,50.5,600.2344" style="stroke:#181818;stroke-width:1.0;"/><line style="stroke:#181818;stroke-width:1.0;stroke-dasharray:2.0,2.0;" x1="48.5" x2="365.5" y1="600.2344" y2="600.2344"/><text fill="#000000" font-family="sans-serif" font-size="13" font-weight="bold" lengthAdjust="spacing" textLength="14" x="60.5" y="595.3779">16</text><text fill="#000000" font-family="sans-serif" font-size="13" lengthAdjust="spacing" textLength="276" x="78.5" y="595.3779">shows list of orders with the status on each one</text><polygon fill="#181818" points="349.5,626.5859,359.5,630.5859,349.5,634.5859,353.5,630.5859" style="stroke:#181818;stroke-width:1.0;"/><line style="stroke:#181818;stroke-width:1.0;" x1="43.5" x2="355.5" y1="630.5859" y2="630.5859"/><text fill="#000000" font-family="sans-serif" font-size="13" font-weight="bold" lengthAdjust="spacing" textLength="14" x="50.5" y="625.7295">17</text><text fill="#000000" font-family="sans-serif" font-size="13" lengthAdjust="spacing" textLength="100" x="68.5" y="625.7295">confirms the data</text><polygon fill="#181818" points="49.5,656.9375,39.5,660.9375,49.5,664.9375,45.5,660.9375" style="stroke:#181818;stroke-width:1.0;"/><line style="stroke:#181818;stroke-width:1.0;stroke-dasharray:2.0,2.0;" x1="43.5" x2="365.5" y1="660.9375" y2="660.9375"/><text fill="#000000" font-family="sans-serif" font-size="13" font-weight="bold" lengthAdjust="spacing" textLength="14" x="55.5" y="656.0811">18</text><text fill="#000000" font-family="sans-serif" font-size="13" lengthAdjust="spacing" textLength="152" x="73.5" y="656.0811">informs operation success</text><!--MD5=[79e681b82a01288ade041ccbba0fbd4b]
@startuml
autonumber
'hide footbox
actor "Customer" as WE
participant ":CheckOpenOrderUI" as UI <<presentation>>
participant ":AuthorizationService" as Au <<application>>
participant ":CheckOpenOrderController" as CTRL <<application>>
participant ":PersistenceContext" as PC
participant ":RepositoryFactory" as RF
participant ":CustomerRepository" as CRepo <<repository>>
participant ":ProductOrderRepository" as ProdRepo <<repository>>
participant ":ProductOrderService" as ProdS <<application>>
participant ":ProtocolProxy" as P <<proxy>>

activate WE

WE -> UI : asks to view the list of open orders
activate UI
UI -> Au : email=getCustomerLoggedInEmail
activate Au
deactivate CTRL
deactivate Au


UI -> CTRL : getCustomerByEmail
activate CTRL
CTRL -> PC : repositories()

activate PC
PC -> RF : create
deactivate PC
activate RF
RF -> CRepo : create
deactivate RF
activate CRepo



CTRL -> CRepo :  getCustomerByEmail=  getCustomerByEmail(email)

deactivate CTRL

deactivate CRepo

UI -> CTRL : getOpenOrders

activate CTRL
CTRL -> PC : repositories()

activate PC
PC -> RF : create
deactivate PC
activate RF
RF -> ProdRepo : create
deactivate RF
activate ProdRepo


CTRL -> ProdRepo : getOpenOrders= getOpenOrders(Status, Customer)
deactivate ProdRepo


CTRL -> ProdS : printOpenOrderList=printOpenOrderList(getOpenOrders)
deactivate ProdRepo
activate ProdS

CTRL -> P : sendOrdersToServer= sendOrdersToServer(status,email)
deactivate ProdS
activate P
CTRL - -> UI :  getOpenOrdersDto
deactivate P

deactivate CTRL

UI - -> WE :shows list of orders with the status on each one
deactivate UI


WE -> UI : confirms the data

activate UI
UI - -> WE : informs operation success
deactivate UI

deactivate UI
deactivate WE

@enduml

@startuml
autonumber
actor "Customer" as WE
participant ":CheckOpenOrderUI" as UI <<presentation>>
participant ":AuthorizationService" as Au <<application>>
participant ":CheckOpenOrderController" as CTRL <<application>>
participant ":PersistenceContext" as PC
participant ":RepositoryFactory" as RF
participant ":CustomerRepository" as CRepo <<repository>>
participant ":ProductOrderRepository" as ProdRepo <<repository>>
participant ":ProductOrderService" as ProdS <<application>>
participant ":ProtocolProxy" as P <<proxy>>

activate WE

WE -> UI : asks to view the list of open orders
activate UI
UI -> Au : email=getCustomerLoggedInEmail
activate Au
deactivate CTRL
deactivate Au


UI -> CTRL : getCustomerByEmail
activate CTRL
CTRL -> PC : repositories()

activate PC
PC -> RF : create
deactivate PC
activate RF
RF -> CRepo : create
deactivate RF
activate CRepo



CTRL -> CRepo :  getCustomerByEmail=  getCustomerByEmail(email)

deactivate CTRL

deactivate CRepo

UI -> CTRL : getOpenOrders

activate CTRL
CTRL -> PC : repositories()

activate PC
PC -> RF : create
deactivate PC
activate RF
RF -> ProdRepo : create
deactivate RF
activate ProdRepo


CTRL -> ProdRepo : getOpenOrders= getOpenOrders(Status, Customer)
deactivate ProdRepo


CTRL -> ProdS : printOpenOrderList=printOpenOrderList(getOpenOrders)
deactivate ProdRepo
activate ProdS

CTRL -> P : sendOrdersToServer= sendOrdersToServer(status,email)
deactivate ProdS
activate P
CTRL - -> UI :  getOpenOrdersDto
deactivate P

deactivate CTRL

UI - -> WE :shows list of orders with the status on each one
deactivate UI


WE -> UI : confirms the data

activate UI
UI - -> WE : informs operation success
deactivate UI

deactivate UI
deactivate WE

@enduml

PlantUML version 1.2022.4(Sat Apr 09 14:29:17 BST 2022)
(GPL source distribution)
Java Runtime: OpenJDK Runtime Environment
JVM: OpenJDK 64-Bit Server VM
Default Encoding: Cp1252
Language: pt
Country: PT
--></g></svg>