<?xml version="1.0" encoding="UTF-8" standalone="no"?><svg xmlns="http://www.w3.org/2000/svg" xmlns:xlink="http://www.w3.org/1999/xlink" contentStyleType="text/css" height="414.4px" preserveAspectRatio="none" style="width:1020px;height:414px;background:#FFFFFF;" version="1.1" viewBox="0 0 1020 414" width="1020px" zoomAndPan="magnify"><defs/><g><rect fill="#FFFFFF" height="260.6938" style="stroke:#181818;stroke-width:0.8000000000000002;" width="8" x="26.8" y="74.0875"/><rect fill="#FFFFFF" height="194.25" style="stroke:#181818;stroke-width:0.8000000000000002;" width="8" x="283.6" y="91.9688"/><rect fill="#FFFFFF" height="24.2813" style="stroke:#181818;stroke-width:0.8000000000000002;" width="8" x="283.6" y="310.5"/><rect fill="#FFFFFF" height="145.6875" style="stroke:#181818;stroke-width:0.8000000000000002;" width="8" x="425.2" y="116.25"/><rect fill="#FFFFFF" height="24.2813" style="stroke:#181818;stroke-width:0.8000000000000002;" width="8" x="566" y="140.5313"/><rect fill="#FFFFFF" height="24.2813" style="stroke:#181818;stroke-width:0.8000000000000002;" width="8" x="683.6" y="164.8125"/><rect fill="#FFFFFF" height="24.2813" style="stroke:#181818;stroke-width:0.8000000000000002;" width="8" x="814" y="189.0938"/><rect fill="#FFFFFF" height="24.2813" style="stroke:#181818;stroke-width:0.8000000000000002;" width="8" x="951.2" y="237.6563"/><line style="stroke:#181818;stroke-width:0.4000000000000001;stroke-dasharray:5.0,5.0;" x1="30.4" x2="30.4" y1="66.0875" y2="349.1813"/><line style="stroke:#181818;stroke-width:0.4000000000000001;stroke-dasharray:5.0,5.0;" x1="287.6" x2="287.6" y1="66.0875" y2="349.1813"/><line style="stroke:#181818;stroke-width:0.4000000000000001;stroke-dasharray:5.0,5.0;" x1="429.2" x2="429.2" y1="66.0875" y2="349.1813"/><line style="stroke:#181818;stroke-width:0.4000000000000001;stroke-dasharray:5.0,5.0;" x1="570" x2="570" y1="66.0875" y2="349.1813"/><line style="stroke:#181818;stroke-width:0.4000000000000001;stroke-dasharray:5.0,5.0;" x1="687.6" x2="687.6" y1="66.0875" y2="349.1813"/><line style="stroke:#181818;stroke-width:0.4000000000000001;stroke-dasharray:5.0,5.0;" x1="818" x2="818" y1="66.0875" y2="349.1813"/><line style="stroke:#181818;stroke-width:0.4000000000000001;stroke-dasharray:5.0,5.0;" x1="954.8" x2="954.8" y1="66.0875" y2="349.1813"/><text fill="#000000" font-family="sans-serif" font-size="11.2" lengthAdjust="spacing" textLength="48.8" x="4" y="63.6266">Customer</text><ellipse cx="30.8" cy="10.8" fill="#E2E2F0" rx="6.4" ry="6.4" style="stroke:#181818;stroke-width:0.4000000000000001;"/><path d="M30.8,17.2 L30.8,38.8 M20.4,23.6 L41.2,23.6 M30.8,38.8 L20.4,50.8 M30.8,38.8 L41.2,50.8 " fill="none" style="stroke:#181818;stroke-width:0.4000000000000001;"/><text fill="#000000" font-family="sans-serif" font-size="11.2" lengthAdjust="spacing" textLength="48.8" x="4" y="360.0078">Customer</text><ellipse cx="30.8" cy="369.2688" fill="#E2E2F0" rx="6.4" ry="6.4" style="stroke:#181818;stroke-width:0.4000000000000001;"/><path d="M30.8,375.6688 L30.8,397.2688 M20.4,382.0688 L41.2,382.0688 M30.8,397.2688 L20.4,409.2688 M30.8,397.2688 L41.2,409.2688 " fill="none" style="stroke:#181818;stroke-width:0.4000000000000001;"/><rect fill="#E2E2F0" height="25.2875" rx="2" ry="2" style="stroke:#181818;stroke-width:0.4000000000000001;" width="113.6" x="230.8" y="40"/><text fill="#000000" font-family="sans-serif" font-size="11.2" lengthAdjust="spacing" textLength="102.4" x="236.4" y="57.2266">:CheckOpenOrderUI</text><rect fill="#E2E2F0" height="25.2875" rx="2" ry="2" style="stroke:#181818;stroke-width:0.4000000000000001;" width="113.6" x="230.8" y="348.3813"/><text fill="#000000" font-family="sans-serif" font-size="11.2" lengthAdjust="spacing" textLength="102.4" x="236.4" y="365.6078">:CheckOpenOrderUI</text><rect fill="#E2E2F0" height="25.2875" rx="2" ry="2" style="stroke:#181818;stroke-width:0.4000000000000001;" width="153.6" x="352.4" y="40"/><text fill="#000000" font-family="sans-serif" font-size="11.2" lengthAdjust="spacing" textLength="142.4" x="358" y="57.2266">:CheckOpenOrderController</text><rect fill="#E2E2F0" height="25.2875" rx="2" ry="2" style="stroke:#181818;stroke-width:0.4000000000000001;" width="153.6" x="352.4" y="348.3813"/><text fill="#000000" font-family="sans-serif" font-size="11.2" lengthAdjust="spacing" textLength="142.4" x="358" y="365.6078">:CheckOpenOrderController</text><rect fill="#E2E2F0" height="25.2875" rx="2" ry="2" style="stroke:#181818;stroke-width:0.4000000000000001;" width="112" x="514" y="40"/><text fill="#000000" font-family="sans-serif" font-size="11.2" lengthAdjust="spacing" textLength="100.8" x="519.6" y="57.2266">:PersistenceContext</text><rect fill="#E2E2F0" height="25.2875" rx="2" ry="2" style="stroke:#181818;stroke-width:0.4000000000000001;" width="112" x="514" y="348.3813"/><text fill="#000000" font-family="sans-serif" font-size="11.2" lengthAdjust="spacing" textLength="100.8" x="519.6" y="365.6078">:PersistenceContext</text><rect fill="#E2E2F0" height="25.2875" rx="2" ry="2" style="stroke:#181818;stroke-width:0.4000000000000001;" width="107.2" x="634" y="40"/><text fill="#000000" font-family="sans-serif" font-size="11.2" lengthAdjust="spacing" textLength="96" x="639.6" y="57.2266">:RepositoryFactory</text><rect fill="#E2E2F0" height="25.2875" rx="2" ry="2" style="stroke:#181818;stroke-width:0.4000000000000001;" width="107.2" x="634" y="348.3813"/><text fill="#000000" font-family="sans-serif" font-size="11.2" lengthAdjust="spacing" textLength="96" x="639.6" y="365.6078">:RepositoryFactory</text><rect fill="#E2E2F0" height="25.2875" rx="2" ry="2" style="stroke:#181818;stroke-width:0.4000000000000001;" width="137.6" x="749.2" y="40"/><text fill="#000000" font-family="sans-serif" font-size="11.2" lengthAdjust="spacing" textLength="126.4" x="754.8" y="57.2266">:ProductOrderRepository</text><rect fill="#E2E2F0" height="25.2875" rx="2" ry="2" style="stroke:#181818;stroke-width:0.4000000000000001;" width="137.6" x="749.2" y="348.3813"/><text fill="#000000" font-family="sans-serif" font-size="11.2" lengthAdjust="spacing" textLength="126.4" x="754.8" y="365.6078">:ProductOrderRepository</text><rect fill="#E2E2F0" height="25.2875" rx="2" ry="2" style="stroke:#181818;stroke-width:0.4000000000000001;" width="120.8" x="894.8" y="40"/><text fill="#000000" font-family="sans-serif" font-size="11.2" lengthAdjust="spacing" textLength="109.6" x="900.4" y="57.2266">:ProductOrderService</text><rect fill="#E2E2F0" height="25.2875" rx="2" ry="2" style="stroke:#181818;stroke-width:0.4000000000000001;" width="120.8" x="894.8" y="348.3813"/><text fill="#000000" font-family="sans-serif" font-size="11.2" lengthAdjust="spacing" textLength="109.6" x="900.4" y="365.6078">:ProductOrderService</text><rect fill="#FFFFFF" height="260.6938" style="stroke:#181818;stroke-width:0.8000000000000002;" width="8" x="26.8" y="74.0875"/><rect fill="#FFFFFF" height="194.25" style="stroke:#181818;stroke-width:0.8000000000000002;" width="8" x="283.6" y="91.9688"/><rect fill="#FFFFFF" height="24.2813" style="stroke:#181818;stroke-width:0.8000000000000002;" width="8" x="283.6" y="310.5"/><rect fill="#FFFFFF" height="145.6875" style="stroke:#181818;stroke-width:0.8000000000000002;" width="8" x="425.2" y="116.25"/><rect fill="#FFFFFF" height="24.2813" style="stroke:#181818;stroke-width:0.8000000000000002;" width="8" x="566" y="140.5313"/><rect fill="#FFFFFF" height="24.2813" style="stroke:#181818;stroke-width:0.8000000000000002;" width="8" x="683.6" y="164.8125"/><rect fill="#FFFFFF" height="24.2813" style="stroke:#181818;stroke-width:0.8000000000000002;" width="8" x="814" y="189.0938"/><rect fill="#FFFFFF" height="24.2813" style="stroke:#181818;stroke-width:0.8000000000000002;" width="8" x="951.2" y="237.6563"/><polygon fill="#181818" points="274,88.7688,282,91.9688,274,95.1688,277.2,91.9688" style="stroke:#181818;stroke-width:0.8000000000000002;"/><line style="stroke:#181818;stroke-width:0.8000000000000002;" x1="34.8" x2="278.8" y1="91.9688" y2="91.9688"/><text fill="#000000" font-family="sans-serif" font-size="10.4" font-weight="bold" lengthAdjust="spacing" textLength="5.6" x="40.4" y="88.0836">1</text><text fill="#000000" font-family="sans-serif" font-size="10.4" lengthAdjust="spacing" textLength="160" x="49.2" y="88.0836">asks to view the list of open orders</text><polygon fill="#181818" points="415.6,113.05,423.6,116.25,415.6,119.45,418.8,116.25" style="stroke:#181818;stroke-width:0.8000000000000002;"/><line style="stroke:#181818;stroke-width:0.8000000000000002;" x1="291.6" x2="420.4" y1="116.25" y2="116.25"/><text fill="#000000" font-family="sans-serif" font-size="10.4" font-weight="bold" lengthAdjust="spacing" textLength="5.6" x="297.2" y="112.3648">2</text><text fill="#000000" font-family="sans-serif" font-size="10.4" lengthAdjust="spacing" textLength="70.4" x="306" y="112.3648">getOpenOrders</text><polygon fill="#181818" points="556.4,137.3313,564.4,140.5313,556.4,143.7313,559.6,140.5313" style="stroke:#181818;stroke-width:0.8000000000000002;"/><line style="stroke:#181818;stroke-width:0.8000000000000002;" x1="433.2" x2="561.2" y1="140.5313" y2="140.5313"/><text fill="#000000" font-family="sans-serif" font-size="10.4" font-weight="bold" lengthAdjust="spacing" textLength="5.6" x="438.8" y="136.6461">3</text><text fill="#000000" font-family="sans-serif" font-size="10.4" lengthAdjust="spacing" textLength="60" x="447.6" y="136.6461">repositories()</text><polygon fill="#181818" points="674,161.6125,682,164.8125,674,168.0125,677.2,164.8125" style="stroke:#181818;stroke-width:0.8000000000000002;"/><line style="stroke:#181818;stroke-width:0.8000000000000002;" x1="570" x2="678.8" y1="164.8125" y2="164.8125"/><text fill="#000000" font-family="sans-serif" font-size="10.4" font-weight="bold" lengthAdjust="spacing" textLength="5.6" x="575.6" y="160.9273">4</text><text fill="#000000" font-family="sans-serif" font-size="10.4" lengthAdjust="spacing" textLength="28.8" x="584.4" y="160.9273">create</text><polygon fill="#181818" points="804.4,185.8938,812.4,189.0938,804.4,192.2938,807.6,189.0938" style="stroke:#181818;stroke-width:0.8000000000000002;"/><line style="stroke:#181818;stroke-width:0.8000000000000002;" x1="687.6" x2="809.2" y1="189.0938" y2="189.0938"/><text fill="#000000" font-family="sans-serif" font-size="10.4" font-weight="bold" lengthAdjust="spacing" textLength="5.6" x="693.2" y="185.2086">5</text><text fill="#000000" font-family="sans-serif" font-size="10.4" lengthAdjust="spacing" textLength="28.8" x="702" y="185.2086">create</text><polygon fill="#181818" points="808.4,210.175,816.4,213.375,808.4,216.575,811.6,213.375" style="stroke:#181818;stroke-width:0.8000000000000002;"/><line style="stroke:#181818;stroke-width:0.8000000000000002;" x1="433.2" x2="813.2" y1="213.375" y2="213.375"/><text fill="#000000" font-family="sans-serif" font-size="10.4" font-weight="bold" lengthAdjust="spacing" textLength="5.6" x="438.8" y="209.4898">6</text><text fill="#000000" font-family="sans-serif" font-size="10.4" lengthAdjust="spacing" textLength="156.8" x="447.6" y="209.4898">getOpenOrders= getOpenOrders()</text><polygon fill="#181818" points="941.6,234.4563,949.6,237.6563,941.6,240.8563,944.8,237.6563" style="stroke:#181818;stroke-width:0.8000000000000002;"/><line style="stroke:#181818;stroke-width:0.8000000000000002;" x1="433.2" x2="946.4" y1="237.6563" y2="237.6563"/><text fill="#000000" font-family="sans-serif" font-size="10.4" font-weight="bold" lengthAdjust="spacing" textLength="5.6" x="438.8" y="233.7711">7</text><text fill="#000000" font-family="sans-serif" font-size="10.4" lengthAdjust="spacing" textLength="257.6" x="447.6" y="233.7711">printOpenOrderList=printOpenOrderList(getOpenOrders)</text><polygon fill="#181818" points="300.4,258.7375,292.4,261.9375,300.4,265.1375,297.2,261.9375" style="stroke:#181818;stroke-width:0.8000000000000002;"/><line style="stroke:#181818;stroke-width:0.8000000000000002;stroke-dasharray:2.0,2.0;" x1="295.6" x2="428.4" y1="261.9375" y2="261.9375"/><text fill="#000000" font-family="sans-serif" font-size="10.4" font-weight="bold" lengthAdjust="spacing" textLength="5.6" x="305.2" y="258.0523">8</text><text fill="#000000" font-family="sans-serif" font-size="10.4" lengthAdjust="spacing" textLength="70.4" x="314" y="258.0523">getOpenOrders</text><polygon fill="#181818" points="43.6,283.0188,35.6,286.2188,43.6,289.4188,40.4,286.2188" style="stroke:#181818;stroke-width:0.8000000000000002;"/><line style="stroke:#181818;stroke-width:0.8000000000000002;stroke-dasharray:2.0,2.0;" x1="38.8" x2="286.8" y1="286.2188" y2="286.2188"/><text fill="#000000" font-family="sans-serif" font-size="10.4" font-weight="bold" lengthAdjust="spacing" textLength="5.6" x="48.4" y="282.3336">9</text><text fill="#000000" font-family="sans-serif" font-size="10.4" lengthAdjust="spacing" textLength="220.8" x="57.2" y="282.3336">shows list of orders with the status on each one</text><polygon fill="#181818" points="274,307.3,282,310.5,274,313.7,277.2,310.5" style="stroke:#181818;stroke-width:0.8000000000000002;"/><line style="stroke:#181818;stroke-width:0.8000000000000002;" x1="34.8" x2="278.8" y1="310.5" y2="310.5"/><text fill="#000000" font-family="sans-serif" font-size="10.4" font-weight="bold" lengthAdjust="spacing" textLength="11.2" x="40.4" y="306.6148">10</text><text fill="#000000" font-family="sans-serif" font-size="10.4" lengthAdjust="spacing" textLength="80" x="54.8" y="306.6148">confirms the data</text><polygon fill="#181818" points="39.6,331.5813,31.6,334.7813,39.6,337.9813,36.4,334.7813" style="stroke:#181818;stroke-width:0.8000000000000002;"/><line style="stroke:#181818;stroke-width:0.8000000000000002;stroke-dasharray:2.0,2.0;" x1="34.8" x2="286.8" y1="334.7813" y2="334.7813"/><text fill="#000000" font-family="sans-serif" font-size="10.4" font-weight="bold" lengthAdjust="spacing" textLength="11.2" x="44.4" y="330.8961">11</text><text fill="#000000" font-family="sans-serif" font-size="10.4" lengthAdjust="spacing" textLength="121.6" x="58.8" y="330.8961">informs operation success</text><!--MD5=[4263fd47f2466b8bfc2aab899978d324]
@startuml
autonumber
'hide footbox
actor "Customer" as WE
participant ":CheckOpenOrderUI" as UI
participant ":CheckOpenOrderController" as CTRL
participant ":PersistenceContext" as PC
participant ":RepositoryFactory" as RF
participant ":ProductOrderRepository" as ProdRepo
participant ":ProductOrderService" as ProdS


activate WE

WE -> UI : asks to view the list of open orders
activate UI


UI -> CTRL : getOpenOrders
activate CTRL
CTRL -> PC : repositories()

activate PC
PC -> RF : create
deactivate PC
activate RF
RF -> ProdRepo : create
deactivate RF
activate ProdRepo
deactivate ProdRepo
CTRL -> ProdRepo : getOpenOrders= getOpenOrders()
deactivate ProdRepo
CTRL -> ProdS : printOpenOrderList=printOpenOrderList(getOpenOrders)


activate ProdS

CTRL - -> UI :  getOpenOrders
deactivate ProdS
deactivate CTRL

UI - -> WE :shows list of orders with the status on each one
deactivate UI


WE -> UI : confirms the data

activate UI
UI - -> WE : informs operation success
deactivate UI

deactivate UI
deactivate WE

@enduml

@startuml
autonumber
actor "Customer" as WE
participant ":CheckOpenOrderUI" as UI
participant ":CheckOpenOrderController" as CTRL
participant ":PersistenceContext" as PC
participant ":RepositoryFactory" as RF
participant ":ProductOrderRepository" as ProdRepo
participant ":ProductOrderService" as ProdS


activate WE

WE -> UI : asks to view the list of open orders
activate UI


UI -> CTRL : getOpenOrders
activate CTRL
CTRL -> PC : repositories()

activate PC
PC -> RF : create
deactivate PC
activate RF
RF -> ProdRepo : create
deactivate RF
activate ProdRepo
deactivate ProdRepo
CTRL -> ProdRepo : getOpenOrders= getOpenOrders()
deactivate ProdRepo
CTRL -> ProdS : printOpenOrderList=printOpenOrderList(getOpenOrders)


activate ProdS

CTRL - -> UI :  getOpenOrders
deactivate ProdS
deactivate CTRL

UI - -> WE :shows list of orders with the status on each one
deactivate UI


WE -> UI : confirms the data

activate UI
UI - -> WE : informs operation success
deactivate UI

deactivate UI
deactivate WE

@enduml

PlantUML version 1.2022.4(Sat Apr 09 14:29:17 BST 2022)
(GPL source distribution)
Java Runtime: OpenJDK Runtime Environment
JVM: OpenJDK 64-Bit Server VM
Default Encoding: Cp1252
Language: pt
Country: PT
--></g></svg>